<svg xmlns="http://www.w3.org/2000/svg" xmlns:xlink="http://www.w3.org/1999/xlink" width="150" height="150.386" viewBox="0 0 150 150.386">
  <defs>
    <clipPath id="clip-path">
      <rect id="Rectángulo_401172" data-name="Rectángulo 401172" width="150" height="86.283" fill="none"/>
    </clipPath>
  </defs>
  <g id="Grupo_1099518" data-name="Grupo 1099518" transform="translate(-881.505 -516.143)">
    <path id="_12068" data-name="12068" d="M106.883,72.471C92,70.295,76.274,70.827,62.728,77.716c-18.784,9.553-31.122,31.212-31.594,53.271s10.38,43.735,27.147,56.837,38.879,17.747,59.383,13.813c20.676-3.967,40.083-16.83,50.868-35.924,6.916-12.244,10.148-27.363,6.328-41.045-2.307-8.258-7.022-15.574-12.568-21.873A91.291,91.291,0,0,0,106.883,72.471Z" transform="translate(855.019 463.537)" fill="#26aab7"/>
    <g id="Grupo_1099288" data-name="Grupo 1099288" transform="translate(881.505 557.559)">
      <g id="Grupo_1099287" data-name="Grupo 1099287" clip-path="url(#clip-path)">
        <g id="Grupo_1099286" data-name="Grupo 1099286">
          <g id="Grupo_1099285" data-name="Grupo 1099285" clip-path="url(#clip-path)">
            <path id="Trazado_873366" data-name="Trazado 873366" d="M203.187,57.418a34.062,34.062,0,0,1,.527,6.913l.8-1.89c.129,2.3,1.266,4.367,2.695,4.909A2.341,2.341,0,0,1,207,65.72l1.818,3.38a13.666,13.666,0,0,0-.737-6,1.9,1.9,0,0,1,1.625.791c-.06-1.719-1.588-2.522-1.768-4.22-.04-.372-.008-.754-.031-1.13a1.444,1.444,0,0,0-.329-.956,2.48,2.48,0,0,1,1.2,1.416,5.731,5.731,0,0,0-1.311-3.936Z" transform="translate(-130.023 -23.981)" fill="#ffd240"/>
            <path id="Trazado_873367" data-name="Trazado 873367" d="M205.657,57.413a16.841,16.841,0,0,1,.677,3.418l.287-.228c.018,1.865.957,3.606,2.127,3.944a2.05,2.05,0,0,1-.143-1.364c.081-.467.231-.906.27-1.386s-.079-1.047-.368-1.213l.346.03a5.361,5.361,0,0,1-.781-3.2.216.216,0,0,0,.358.067,2.5,2.5,0,0,0-.987-1.031Z" transform="translate(-131.603 -24.583)" fill="#ffb457"/>
            <path id="Trazado_873368" data-name="Trazado 873368" d="M204.429,53.554l-4.282,2.35c-.423.232-.891-.055-1.1-.676l-.618-1.827,6.35-3.484.243,2.032a1.643,1.643,0,0,1-.592,1.605" transform="translate(-126.978 -21.738)" fill="#f2a03c"/>
            <path id="Trazado_873369" data-name="Trazado 873369" d="M187.908,45.328s-2.258,2.2-2,4.5,2.772,7.555,2.772,7.555l.9-.5s-1.132-4.228.494-5.305Z" transform="translate(-118.953 -19.739)" fill="#ffd947"/>
            <path id="Trazado_873370" data-name="Trazado 873370" d="M214.83,37.121s2.642-.485,3.352,1.564.838,8.616.838,8.616l-.9.5s-.8-4.413-2.5-3.664Z" transform="translate(-137.473 -16.144)" fill="#ffd947"/>
            <path id="Trazado_873371" data-name="Trazado 873371" d="M184.422.037c-.18-.1-.379.01-.48.264-.79,1.993-3.883,10.658-1.374,18.471,2.857,8.9,4.929,14.279,4.929,14.279l3.6-1.928h0l0,0,3.586-2.018s-.521-6.235-1.827-15.982A17.468,17.468,0,0,0,184.422.037" transform="translate(-116.212 0)" fill="#e6e6e6"/>
            <path id="Trazado_873372" data-name="Trazado 873372" d="M184.422.037c-.18-.1-.379.01-.48.264-.79,1.993-3.883,10.658-1.374,18.471,2.857,8.9,4.929,14.279,4.929,14.279l3.6-1.928h0l0,0,3.586-2.018s-.521-6.235-1.827-15.982A17.468,17.468,0,0,0,184.422.037" transform="translate(-116.212 0)" fill="#fff"/>
            <path id="Trazado_873373" data-name="Trazado 873373" d="M192.463,12.052c.495,2.217-.25,4.643-1.664,5.419s-2.962-.392-3.456-2.609.25-4.643,1.664-5.418,2.962.392,3.456,2.609" transform="translate(-119.786 -4.008)" fill="#ffd947"/>
            <path id="Trazado_873374" data-name="Trazado 873374" d="M193.2,13.575c.334,1.5-.169,3.134-1.123,3.658s-2-.265-2.333-1.761.169-3.134,1.123-3.658,2,.265,2.333,1.761" transform="translate(-121.352 -5.074)" fill="#7d6eb2"/>
            <path id="Trazado_873375" data-name="Trazado 873375" d="M183.746,29.6l.017.051,10.4-4.842-.005-.042-.329-2.54-.005-.04L183.035,27.4Z" transform="translate(-117.127 -9.66)" fill="#ffd947"/>
            <path id="Trazado_873376" data-name="Trazado 873376" d="M187.14,36.455l9.666-4.5q-.146-1.244-.318-2.627l-10.1,4.887q.39,1.176.751,2.241" transform="translate(-119.274 -12.771)" fill="#ffd947"/>
            <path id="Trazado_873378" data-name="Trazado 873378" d="M211.517,110.193s31.24-18.206,70.488-9.582c0,0-9.049-25.632-19-25.153,0,0-52.355-1.677-51.493,34.735" transform="translate(-135.347 -32.855)" fill="#fff3e3"/>
            <path id="Trazado_873379" data-name="Trazado 873379" d="M211.538,103.177s25.819-24.973,69.01-19.863c0,0-6.8-12.742-14.9-16.829,0,0-54.113,2.2-54.113,36.692" transform="translate(-135.367 -28.953)" fill="#ffdfb5"/>
            <path id="Trazado_873380" data-name="Trazado 873380" d="M211.536,104.816s.19-28.746,65.515-32.579c0,0-6.676-10.7-14.472-8.943,0,0-50.651,2.236-51.044,41.522" transform="translate(-135.366 -27.478)" fill="#fff3e3"/>
            <path id="Trazado_873381" data-name="Trazado 873381" d="M211.536,101.13s11.616-36.023,62.693-39.5c0,0-6.049-7.451-10.35-6.972,0,0-51.189,6.228-52.343,46.473" transform="translate(-135.366 -23.792)" fill="#ffdfb5"/>
            <path id="Trazado_873382" data-name="Trazado 873382" d="M209.536,93.386S221.935,56.495,262.8,43.8c0,0-10.193-6.947-18.022-6.947,0,0-35.239,18.206-35.239,56.535" transform="translate(-134.086 -16.048)" fill="#fff3e3"/>
            <path id="Trazado_873383" data-name="Trazado 873383" d="M86.241,110.193S55,91.987,15.753,100.611c0,0,9.049-25.632,19-25.153,0,0,52.355-1.677,51.493,34.735" transform="translate(-10.081 -32.855)" fill="#fff3e3"/>
            <path id="Trazado_873384" data-name="Trazado 873384" d="M88.866,103.177S63.047,78.2,19.856,83.314c0,0,6.8-12.742,14.9-16.829,0,0,54.113,2.2,54.112,36.692" transform="translate(-12.706 -28.953)" fill="#ffdfb5"/>
            <path id="Trazado_873385" data-name="Trazado 873385" d="M95.079,104.816s-.19-28.746-65.515-32.579c0,0,6.676-10.7,14.472-8.943,0,0,50.651,2.236,51.044,41.522" transform="translate(-18.919 -27.478)" fill="#fff3e3"/>
            <path id="Trazado_873386" data-name="Trazado 873386" d="M100.1,101.13S88.48,65.107,37.4,61.629c0,0,6.049-7.451,10.35-6.972,0,0,51.189,6.228,52.343,46.473" transform="translate(-23.935 -23.792)" fill="#ffdfb5"/>
            <path id="Trazado_873387" data-name="Trazado 873387" d="M118.856,93.386S106.456,56.495,65.6,43.8c0,0,10.193-6.947,18.022-6.947,0,0,35.239,18.206,35.239,56.535" transform="translate(-41.975 -16.048)" fill="#fff3e3"/>
            <path id="Trazado_873388" data-name="Trazado 873388" d="M91.963,118.023H78.34s-30.881-21.547-64.3-6.406v9.318s32.918-17.062,64.3,6.988H91.963c31.386-24.05,64.3-6.988,64.3-6.988v-9.318c-33.424-15.141-64.3,6.406-64.3,6.406" transform="translate(-8.981 -46.258)" fill="#7d6eb2"/>
          </g>
        </g>
      </g>
    </g>
    <g id="Grupo_1099024" data-name="Grupo 1099024" transform="translate(830.641 807.56) rotate(-90)">
      <path id="Trazado_873104" data-name="Trazado 873104" d="M149.557,395.548a1.582,1.582,0,1,0-.106-2.456A1.573,1.573,0,0,0,149.557,395.548Z" transform="translate(21.557 -215.301)" fill="#fff"/>
      <path id="Trazado_873105" data-name="Trazado 873105" d="M417.219,416a1.582,1.582,0,1,0-.105-2.456A1.573,1.573,0,0,0,417.219,416Z" transform="translate(-203.666 -229.027)" fill="#ffd947"/>
      <path id="Trazado_873106" data-name="Trazado 873106" d="M303.26,44.546a1.582,1.582,0,1,0-.106-2.456A1.573,1.573,0,0,0,303.26,44.546Z" transform="translate(-14.347 9.151)" fill="#7d6eb2"/>
      <path id="Trazado_873109" data-name="Trazado 873109" d="M339.452,404.413a3.448,3.448,0,1,0-1.687-4.918A3.468,3.468,0,0,0,339.452,404.413Z" transform="translate(-67.653 -222.246)" fill="#7d6eb2"/>
      <path id="Trazado_873110" data-name="Trazado 873110" d="M390.262,440.006a3.448,3.448,0,1,0-1.687-4.918A3.468,3.468,0,0,0,390.262,440.006Z" transform="translate(-157.353 -239.371)" fill="#ffd947"/>
      <path id="Trazado_873111" data-name="Trazado 873111" d="M176.115,56.142a3.448,3.448,0,1,0-1.687-4.918A3.468,3.468,0,0,0,176.115,56.142Z" transform="translate(-32.569 41.641)" fill="#ffd947"/>
      <path id="Trazado_873113" data-name="Trazado 873113" d="M321.56,66.974a3.448,3.448,0,1,0-1.687-4.918A3.468,3.468,0,0,0,321.56,66.974Z" transform="translate(-38.011 -0.895)" fill="#ffd947"/>
      <circle id="Elipse_11485" data-name="Elipse 11485" cx="1.689" cy="1.689" r="1.689" transform="translate(149.167 185.575)" fill="none" stroke="#26aab7" stroke-linecap="round" stroke-linejoin="round" stroke-width="1.5"/>
    </g>
  </g>
</svg>
