<svg xmlns="http://www.w3.org/2000/svg" width="215.503" height="433.164" viewBox="0 0 215.503 433.164">
  <g id="Grupo_53941" data-name="Grupo 53941" transform="translate(-926.307 -451.532)">
    <g id="Grupo_46726" data-name="Grupo 46726" transform="translate(926.307 508.112)">
      <path id="Trazado_97178" data-name="Trazado 97178" d="M728.836,1473.615h41.9a9.391,9.391,0,0,1,9.391,9.391v19.534a9.391,9.391,0,0,1-9.391,9.391h-.311l3.363,11.267a.534.534,0,0,1-.836.577l-15.525-11.844H728.836a9.391,9.391,0,0,1-9.391-9.391v-19.534A9.391,9.391,0,0,1,728.836,1473.615Z" transform="translate(-719.445 -1473.615)" fill="#dee7f3"/>
      <path id="Trazado_97179" data-name="Trazado 97179" d="M800.527,1523.132H760.3a4.649,4.649,0,0,1-4.649-4.649h0a4.648,4.648,0,0,1,4.649-4.648h40.229a4.648,4.648,0,0,1,4.648,4.648h0A4.648,4.648,0,0,1,800.527,1523.132Z" transform="translate(-749.253 -1506.73)" fill="#00223d" opacity="0.25"/>
      <path id="Trazado_97180" data-name="Trazado 97180" d="M800.527,1603.491H760.3a4.649,4.649,0,0,1-4.649-4.648h0a4.648,4.648,0,0,1,4.649-4.649h40.229a4.648,4.648,0,0,1,4.648,4.649h0A4.648,4.648,0,0,1,800.527,1603.491Z" transform="translate(-749.253 -1572.892)" fill="#00223d" opacity="0.25"/>
    </g>
    <g id="Grupo_53210" data-name="Grupo 53210" transform="translate(1067.503 497.183)">
      <path id="Trazado_97178-2" data-name="Trazado 97178" d="M770.737,1473.615h-41.9a9.391,9.391,0,0,0-9.391,9.391v19.534a9.391,9.391,0,0,0,9.391,9.391h.311l-3.363,11.267a.534.534,0,0,0,.836.577l15.525-11.844h28.592a9.391,9.391,0,0,0,9.391-9.391v-19.534A9.391,9.391,0,0,0,770.737,1473.615Z" transform="translate(-719.445 -1473.615)" fill="#dee7f3"/>
      <path id="Trazado_97179-2" data-name="Trazado 97179" d="M760.3,1523.132h40.229a4.649,4.649,0,0,0,4.648-4.649h0a4.648,4.648,0,0,0-4.648-4.648H760.3a4.648,4.648,0,0,0-4.648,4.648h0A4.648,4.648,0,0,0,760.3,1523.132Z" transform="translate(-750.886 -1506.73)" fill="#00223d" opacity="0.25"/>
      <path id="Trazado_97180-2" data-name="Trazado 97180" d="M760.3,1603.491h40.229a4.649,4.649,0,0,0,4.648-4.648h0a4.648,4.648,0,0,0-4.648-4.649H760.3a4.648,4.648,0,0,0-4.648,4.649h0A4.648,4.648,0,0,0,760.3,1603.491Z" transform="translate(-750.886 -1572.892)" fill="#00223d" opacity="0.25"/>
    </g>
    <g id="Grupo_53209" data-name="Grupo 53209" transform="translate(965.132 468.126)">
      <g id="Grupo_46746" data-name="Grupo 46746" transform="translate(28.762)">
        <path id="v-2" d="M1208.288,1625.025h.013l10.579.04,2.4,24.989-12.35,6.52-13.171-6.447,2.128-25.062Z" transform="translate(-1169.001 -1566.914)" fill="#e49963"/>
        <g id="Grupo_46745" data-name="Grupo 46745" transform="translate(0)">
          <path id="Trazado_97195" data-name="Trazado 97195" d="M1148.541,1532.94c6.512,16.272,22.151,25.316,34.931,20.2s17.861-22.451,11.349-38.722-22.15-25.317-34.931-20.2S1142.03,1516.668,1148.541,1532.94Z" transform="translate(-1138.322 -1485.857)" fill="#e49963"/>
          <path id="Trazado_97196" data-name="Trazado 97196" d="M1257.572,1556.519a2.394,2.394,0,1,0,.6-3.332A2.393,2.393,0,0,0,1257.572,1556.519Z" transform="translate(-1206.63 -1522.616)"/>
          <path id="Trazado_97197" data-name="Trazado 97197" d="M1211.188,1574.936a2.591,2.591,0,1,0,.647-3.607A2.591,2.591,0,0,0,1211.188,1574.936Z" transform="translate(-1178.177 -1533.716)"/>
          <path id="Trazado_97198" data-name="Trazado 97198" d="M1248.857,1572.347c3.237,2.551,7.284,5.63,7.284,5.63s.042,3.9-4.519,5.593c1.651-1.5,3.1-3.487,1.381-5.787S1248.857,1572.347,1248.857,1572.347Z" transform="translate(-1201.551 -1534.624)" fill="#d68d5d"/>
          <g id="Grupo_46740" data-name="Grupo 46740" transform="translate(27.098 33.103)">
            <path id="Trazado_97199" data-name="Trazado 97199" d="M1197.84,1566.969a1.18,1.18,0,0,1-.278-.033,1.194,1.194,0,0,1-.885-1.439c.418-1.751,2.171-5.07,5.813-5.087a1.194,1.194,0,1,1,.012,2.388c-2.7.012-3.494,3.22-3.5,3.253A1.2,1.2,0,0,1,1197.84,1566.969Z" transform="translate(-1196.645 -1560.41)" fill="#201d40"/>
          </g>
          <g id="Grupo_46741" data-name="Grupo 46741" transform="translate(47.44 25.081)">
            <path id="Trazado_97200" data-name="Trazado 97200" d="M1250.2,1543.442a1,1,0,0,1-.857-1.5,4.906,4.906,0,0,1,3.067-2.192,5.1,5.1,0,0,1,4.148,1.315,1,1,0,0,1-1.244,1.555,3.233,3.233,0,0,0-2.543-.912,2.877,2.877,0,0,0-1.712,1.24A1,1,0,0,1,1250.2,1543.442Z" transform="translate(-1249.203 -1539.683)" fill="#201d40"/>
          </g>
          <path id="Trazado_97201" data-name="Trazado 97201" d="M1127.956,1509.809c-5.508-15.68,7.909-24.695,7.909-24.695s-3.6-.322-4.029-5.377a13.3,13.3,0,0,0,8.368-.18c17.882-6.474,30.2-6.388,30.2,1.264,0,2.723,11.81.857,10.82,19.177.069-1.293-4.15-8.824-8.138-9.576s-.388,4.578-8.721,5.722c-8.41,1.155-14.592-.887-19.729,3.854-4.019,4.136-5.015,25.183-4.4,26.449C1138.826,1523.544,1130.376,1516.7,1127.956,1509.809Z" transform="translate(-1126.629 -1474.88)" fill="#00223d"/>
          <path id="Trazado_97202" data-name="Trazado 97202" d="M1207.108,1572.347s.761,9.548-.616,12.5c-1.434-3.829-4.509.229-7.4.611-6.981.923-19.577-1.4-20.825,9.068-8.532,2.7-16.525-15.564-16.525-15.564-.49,20.4,14.441,31.99,35.927,28.6C1211.827,1605.322,1213.139,1585.611,1207.108,1572.347Z" transform="translate(-1148.146 -1534.624)" fill="#00223d"/>
          <g id="Grupo_46742" data-name="Grupo 46742" transform="translate(39.514 51.634)">
            <path id="Trazado_97203" data-name="Trazado 97203" d="M1233.456,1613.942a18.123,18.123,0,0,1-4.31-1.69.8.8,0,0,1,.752-1.405c3.3,1.768,6.268,2.27,8.807,1.5a8.309,8.309,0,0,0,4.585-3.628.8.8,0,0,1,1.411.74,9.794,9.794,0,0,1-5.5,4.4A10.764,10.764,0,0,1,1233.456,1613.942Z" transform="translate(-1228.725 -1608.291)" fill="#d68d5d"/>
          </g>
          <g id="Grupo_46744" data-name="Grupo 46744" transform="translate(3.243 43.339)">
            <path id="Trazado_97204" data-name="Trazado 97204" d="M1145.161,1587.993c3.594,2.018,5.168,6.038,3.516,8.979s-5.9,3.688-9.5,1.669-5.167-6.038-3.516-8.979S1141.569,1585.974,1145.161,1587.993Z" transform="translate(-1135.008 -1586.858)" fill="#e49963"/>
            <g id="Grupo_46743" data-name="Grupo 46743" transform="translate(4.007 3.326)">
              <path id="Trazado_97205" data-name="Trazado 97205" d="M1150.961,1602.07a.915.915,0,0,0,.275-.311,4.074,4.074,0,0,0-.433-4.985,4.343,4.343,0,0,0-4.947-.907.9.9,0,0,0,.814,1.608,2.571,2.571,0,0,1,2.842.555,2.309,2.309,0,0,1,.139,2.873.9.9,0,0,0,1.311,1.166Z" transform="translate(-1145.361 -1595.453)" fill="#d68d5d"/>
            </g>
          </g>
        </g>
      </g>
      <path id="Trazado_97206" data-name="Trazado 97206" d="M1242.628,2476.521c2.251-6.114,7.064-6.8,7.064-6.8,9.355,12.907,32.328,4.987,31.568,22.446-34.935-.227-49.455,0-49.455,0a128.033,128.033,0,0,1,1.543-17.253l1.82.334Z" transform="translate(-1162.338 -2084.691)" fill="#36c"/>
      <path id="Trazado_97207" data-name="Trazado 97207" d="M1107.573,2477.395c2.252-6.115,7.065-6.793,7.065-6.793,9.355,12.906,32.328,4.986,31.568,22.443-34.935-.223-49.454,0-49.454,0a128.058,128.058,0,0,1,1.542-17.25l1.821.334Z" transform="translate(-1079.554 -2085.227)" fill="#36c"/>
      <path id="Trazado_97208" data-name="Trazado 97208" d="M1248.424,1960.59s5.672,82.725,3.368,101.117-10.464,41.971-9.539,102.805c-11.388,2.85-27.888,0-27.888,0s-2.446-68.787,9.593-99.511c-4.9-29.844-20.605-98.2-20.605-98.2Z" transform="translate(-1144.897 -1772.606)" fill="#213755"/>
      <path id="Trazado_97209" data-name="Trazado 97209" d="M1159.021,1966.432s-11.453,92.874-17.059,110.49-16.54,32.511-26.691,92.44c-11.7.586-22.6,0-22.6,0s1.58-76.016,19.808-93.3c.616-30.263-2.948-109.028-2.948-109.028Z" transform="translate(-1077.052 -1776.186)" fill="#344966"/>
      <g id="v" transform="translate(26.547 80.233)">
        <path id="h-5" d="M1123.531,1686.791s19.892-6.965,26.526-3.771c20.611,9.924,25.338,0,25.338,0,6.587.568,26.468,3.771,26.468,3.771,0,22.2,1.483,44.483,1.079,61.286-.285,14.633,2.5,54.452,2.5,54.452s-21.931,5.75-42.678,5.9c-20.747-.135-41.863-5.666-41.863-5.666s1.108-40.331,2.029-55.321C1122.635,1730.639,1123.531,1708.936,1123.531,1686.791Z" transform="translate(-1120.905 -1682.182)" fill="#8ec8c8"/>
      </g>
      <g id="c" transform="translate(101.853 84.839)">
        <path id="c-2" data-name="c" d="M1356.494,1727.089c-8.211-19.59-32.575-32.05-35.36-33l-5.651,25.15a147.166,147.166,0,0,1,20.2,14.41c-1.441,7-1.2,13.87-5.253,22.727,0,0,3.521-4.858,7.864-1.983,4.222,2.794,11.987-2.91,11.987-2.91S1362.765,1742.053,1356.494,1727.089Z" transform="translate(-1315.482 -1694.089)" fill="#26aab7"/>
      </g>
      <g id="c-3" data-name="c" transform="translate(0 84.839)">
        <g id="c-4" data-name="c" transform="translate(81.324 7.589)">
          <g id="c-5" data-name="c">
            <path id="c-6" data-name="c" d="M1322.734,1788.615a2.247,2.247,0,0,0,.427.086h.467a2.222,2.222,0,0,0,1.889-1.55l21.889-70.571a2.256,2.256,0,0,0,.087-.427,2.316,2.316,0,0,0,0-.279c0-.055,0-.112,0-.168s-.021-.1-.028-.144a2.216,2.216,0,0,0-1.523-1.763,2.267,2.267,0,0,0-.417-.089,2.331,2.331,0,0,0-.474,0h-55.1L1267.87,1788.7h54.9Z" transform="translate(-1265.769 -1713.698)" fill="#7d6eb2"/>
            <path id="c-7" data-name="c" d="M1287.124,1713.8a2.225,2.225,0,0,0-2.783,1.465l-21.751,70.395-.049.165A2.222,2.222,0,0,0,1264,1788.6l0,0a2.223,2.223,0,0,0,2.783-1.463l21.807-70.557A2.223,2.223,0,0,0,1287.124,1713.8Z" transform="translate(-1262.441 -1713.697)" fill="#00223d"/>
          </g>
        </g>
        <path id="c-8" data-name="c" d="M1432.037,1806.41a2.29,2.29,0,0,1,.659-.287c-.023-.035-.048-.067-.073-.1-1.37-2.068-1.278-4.54.2-5.523a2.4,2.4,0,0,1,.792-.332,3.321,3.321,0,0,1,1.02-3.694,2.491,2.491,0,0,1,1.422-.4,3.319,3.319,0,0,1,1.087-3.869c1.483-.982,3.635-.348,4.8,1.417s.916,3.992-.568,4.975a2.776,2.776,0,0,1-1.229.442c.988,1.925.789,4.031-.553,4.92a2.375,2.375,0,0,1-.791.332,3.32,3.32,0,0,1-1.019,3.694,2.449,2.449,0,0,1-1.313.4,2.839,2.839,0,0,1-.864,3.425,3.287,3.287,0,0,1-3.578-5.4Z" transform="translate(-1284.4 -1753.948)" fill="#e49963"/>
        <path id="Trazado_97210" data-name="Trazado 97210" d="M1258.746,1801.95l5.024-2.91a9.491,9.491,0,0,1,9.457-7.3c-.925,2.989-2.255,7.3-2.255,7.3s3.97,3.083,13.386-2.193c9.206-2.069,5.273,4.642,8.324,5.124,4.5.711-3.282,9.558-12.473,10.91-11.893,1.753-13.3-.682-13.3-.682l-6.73,2.352Z" transform="translate(-1178.852 -1753.948)" fill="#e49963"/>
        <path id="c-9" data-name="c" d="M1085.731,1749.7c16.789-1.173,45.429-9.466,45.429-9.466,4.585,7.03,3.316,16.367,3.316,16.367-26.072,22.859-65.312,30.248-77.351,24.746-10.992-5.022-3.232-71.933,24.365-87.261h0C1090.951,1710.1,1085.731,1749.7,1085.731,1749.7Z" transform="translate(-1052.319 -1694.089)" fill="#26aab7"/>
      </g>
    </g>
    <g id="Grupo_46794" data-name="Grupo 46794" transform="translate(945.9 827.241)">
      <g id="Grupo_46792" data-name="Grupo 46792" transform="translate(12.572 41.126)">
        <path id="Trazado_97307" data-name="Trazado 97307" d="M1454.952,2094.406v8.177h2.226a1.958,1.958,0,0,1,1.958,1.959v.324a1.957,1.957,0,0,1-1.958,1.958H1362.3a2.278,2.278,0,0,1-2.277-2.277v-11.776a2.276,2.276,0,0,1,2.277-2.276h94.88a1.958,1.958,0,0,1,1.958,1.954h0a1.958,1.958,0,0,1-1.958,1.957Z" transform="translate(-1360.021 -2090.495)" fill="#7d6eb2"/>
        <path id="Rectángulo_28257" data-name="Rectángulo 28257" d="M1.207,0H84.646a0,0,0,0,1,0,0V8.176a0,0,0,0,1,0,0H1.207A1.207,1.207,0,0,1,0,6.969V1.207A1.207,1.207,0,0,1,1.207,0Z" transform="translate(10.566 3.913)" fill="#fff"/>
      </g>
      <g id="Grupo_46793" data-name="Grupo 46793" transform="translate(0 23.055)">
        <path id="Trazado_97308" data-name="Trazado 97308" d="M1343.523,2065.1v9.048H1341.3a2.069,2.069,0,0,0-1.955,2.165v.365a2.067,2.067,0,0,0,1.955,2.163h94.883a2.409,2.409,0,0,0,2.278-2.519v-13.031a2.408,2.408,0,0,0-2.278-2.519H1341.3a2.067,2.067,0,0,0-1.955,2.163h0a2.068,2.068,0,0,0,1.955,2.165Z" transform="translate(-1339.34 -2060.77)" fill="#167377"/>
        <path id="Rectángulo_28258" data-name="Rectángulo 28258" d="M1.336,0h83.31a0,0,0,0,1,0,0V9.047a0,0,0,0,1,0,0H1.336A1.336,1.336,0,0,1,0,7.711V1.336A1.336,1.336,0,0,1,1.336,0Z" transform="translate(88.548 13.375) rotate(180)" fill="#fff"/>
      </g>
      <path id="Rectángulo_28259" data-name="Rectángulo 28259" d="M2.166,0H91.274a2.167,2.167,0,0,1,2.167,2.167V12.5a2.167,2.167,0,0,1-2.167,2.167H2.167A2.167,2.167,0,0,1,0,12.5V2.166A2.166,2.166,0,0,1,2.166,0Z" transform="translate(7.732 0)" fill="#5b7393"/>
      <rect id="Rectángulo_28260" data-name="Rectángulo 28260" width="93.441" height="8.384" rx="1.238" transform="translate(13.839 14.671)" fill="#7d6eb2"/>
    </g>
    <g id="Grupo_54152" data-name="Grupo 54152" transform="translate(937.628 620.019)">
      <path id="Trazado_100437" data-name="Trazado 100437" d="M2524.44,1127.775H2469.7c-2.589,0-4.688,2.524-4.688,5.637v40.741c0,3.113,2.1,5.637,4.688,5.637h54.74c2.589,0,4.688-2.524,4.688-5.637v-40.741C2529.128,1130.3,2527.029,1127.775,2524.44,1127.775Z" transform="translate(-2465.011 -1127.775)" fill="#d7e9f9"/>
      <path id="Trazado_100438" data-name="Trazado 100438" d="M2529.123,1133.414v2.234h-64.117v-2.234c0-3.113,2.1-5.636,4.688-5.636h54.741C2527.024,1127.778,2529.123,1130.3,2529.123,1133.414Z" transform="translate(-2465.006 -1127.778)" fill="#7d6eb2"/>
      <g id="Grupo_50283" data-name="Grupo 50283" transform="translate(9.696 17.484)">
        <rect id="Rectángulo_29047" data-name="Rectángulo 29047" width="7.881" height="15.352" rx="2" transform="translate(0 11.641)" fill="#167377"/>
        <rect id="Rectángulo_29048" data-name="Rectángulo 29048" width="7.881" height="19.112" rx="2" transform="translate(12.282 7.881)" fill="#167377"/>
        <rect id="Rectángulo_29049" data-name="Rectángulo 29049" width="7.881" height="22.899" rx="2" transform="translate(24.563 4.094)" fill="#7d6eb2"/>
        <rect id="Rectángulo_29050" data-name="Rectángulo 29050" width="7.881" height="26.993" rx="2" transform="translate(36.845)" fill="#7d6eb2"/>
      </g>
      <circle id="Elipse_4018" data-name="Elipse 4018" cx="1.534" cy="1.534" r="1.534" transform="translate(3.153 2.747)" fill="#d8e5ed"/>
      <circle id="Elipse_4019" data-name="Elipse 4019" cx="1.534" cy="1.534" r="1.534" transform="translate(7.33 2.747)" fill="#d8e5ed"/>
      <circle id="Elipse_4020" data-name="Elipse 4020" cx="1.534" cy="1.534" r="1.534" transform="translate(11.507 2.747)" fill="#d8e5ed"/>
    </g>
    <g id="Grupo_47021" data-name="Grupo 47021" transform="translate(1086.262 645.162)">
      <g id="Grupo_47020" data-name="Grupo 47020" transform="translate(3.152 3.164)">
        <path id="Trazado_97743" data-name="Trazado 97743" d="M1381.462,210.931a24.219,24.219,0,0,1-31.634,36.518l-8.58,3.7,3.7-8.58a24.219,24.219,0,0,1,36.519-31.633Z" transform="translate(-1339.714 -203.444)" fill="#fdfdfd" fill-rule="evenodd"/>
        <path id="Trazado_97744" data-name="Trazado 97744" d="M1361.746,250.158a24.6,24.6,0,0,1-14.566-4.765l-8.366,3.6a.405.405,0,0,1-.532-.533l3.6-8.366a24.627,24.627,0,1,1,21.515,10C1362.848,250.139,1362.3,250.158,1361.746,250.158Zm-14.512-5.635a.4.4,0,0,1,.243.081A23.814,23.814,0,1,0,1344.9,208.7a23.913,23.913,0,0,0-2.23,31.1.406.406,0,0,1,.048.4l-3.293,7.645,7.645-3.293A.4.4,0,0,1,1347.234,244.523Z" transform="translate(-1337.12 -200.923)" fill="#00223d"/>
      </g>
      <circle id="Elipse_3890" data-name="Elipse 3890" cx="20.584" cy="20.584" r="20.584" transform="translate(7.19 7.192)" fill="#00223d"/>
      <path id="Trazado_97745" data-name="Trazado 97745" d="M1341.548,233.051a27.681,27.681,0,0,1-15.082-4.455.405.405,0,0,1,.442-.68,26.975,26.975,0,0,0,29.25.031.405.405,0,0,1,.439.681A27.77,27.77,0,0,1,1341.548,233.051Zm19.745-8.407a.405.405,0,0,1-.292-.686,26.9,26.9,0,0,0,3.388-33.046.405.405,0,1,1,.686-.432,27.907,27.907,0,0,1,4.13,17.48,27.473,27.473,0,0,1-7.62,16.56A.4.4,0,0,1,1361.292,224.644Zm-42.715-4.093a.406.406,0,0,1-.34-.185,27.8,27.8,0,0,1-4.3-17.973.405.405,0,0,1,.806.084,26.986,26.986,0,0,0,4.177,17.448.406.406,0,0,1-.34.626Zm-2.824-23.991a.405.405,0,0,1-.382-.54,27.778,27.778,0,0,1,33.986-17.408.405.405,0,0,1-.227.778,26.969,26.969,0,0,0-33,16.9A.405.405,0,0,1,1315.753,196.56Zm45.014-10.377a.4.4,0,0,1-.285-.117,27,27,0,0,0-5.61-4.245.405.405,0,0,1,.4-.7,27.812,27.812,0,0,1,5.778,4.373.405.405,0,0,1-.284.694Z" transform="translate(-1313.784 -177.498)" fill="#00223d"/>
    </g>
    <g id="Grupo_47026" data-name="Grupo 47026" transform="translate(1060.838 451.532)">
      <g id="Grupo_47025" data-name="Grupo 47025" transform="translate(0 0)">
        <path id="Trazado_97773" data-name="Trazado 97773" d="M2503.973,340.345h19.692a2.467,2.467,0,0,0,2.461-2.461V319.422h-9.846l-2.461,2.461h-9.847a2.469,2.469,0,0,0-2.462,2.461v13.539A2.467,2.467,0,0,0,2503.973,340.345Z" transform="translate(-2501.106 -319.017)" fill="#eff4ef" fill-rule="evenodd"/>
        <path id="Trazado_97774" data-name="Trazado 97774" d="M2521.071,338.155h-19.693a2.87,2.87,0,0,1-2.866-2.866V321.75a2.87,2.87,0,0,1,2.866-2.866h9.679l2.342-2.343a.406.406,0,0,1,.287-.119h9.846a.4.4,0,0,1,.4.405v18.461A2.87,2.87,0,0,1,2521.071,338.155Zm-19.693-18.461a2.059,2.059,0,0,0-2.057,2.056v13.539a2.059,2.059,0,0,0,2.057,2.056h19.693a2.058,2.058,0,0,0,2.056-2.056V317.232h-9.273l-2.343,2.343a.4.4,0,0,1-.285.119Z" transform="translate(-2498.511 -316.422)" fill="#00223d"/>
      </g>
      <path id="Trazado_97775" data-name="Trazado 97775" d="M2541.515,371.9h-6.154a.405.405,0,0,1,0-.81h6.154a.405.405,0,0,1,0,.81Z" transform="translate(-2530.033 -363.708)" fill="#00223d"/>
      <path id="Trazado_97776" data-name="Trazado 97776" d="M2537.822,408.349h-2.461a.405.405,0,0,1,0-.81h2.461a.405.405,0,1,1,0,.81Z" transform="translate(-2530.033 -395.231)" fill="#00223d"/>
    </g>
    <path id="Trazado_97777" data-name="Trazado 97777" d="M1432.572,282.747a13.55,13.55,0,1,0,12.766,8.978l-2.043,2.043a11.023,11.023,0,1,1-3.666-5.922l1.8-1.8a13.507,13.507,0,0,0-8.861-3.3Zm-7.131,12.216a1.695,1.695,0,1,1,2.4-2.4l4.734,4.734,10.666-10.667a1.695,1.695,0,0,1,2.4,2.4L1433.771,300.9a1.7,1.7,0,0,1-2.4,0Z" transform="translate(-318.536 376.633)" fill="#fff" fill-rule="evenodd"/>
  </g>
</svg>
