<svg xmlns="http://www.w3.org/2000/svg" xmlns:xlink="http://www.w3.org/1999/xlink" width="104.852" height="104.852" viewBox="0 0 104.852 104.852">
  <defs>
    <radialGradient id="radial-gradient" cx="0.076" cy="0.019" r="1.465" gradientTransform="translate(0.001)" gradientUnits="objectBoundingBox">
      <stop offset="0" stop-color="#f6f6f7"/>
      <stop offset="0.477" stop-color="#f9f9fa"/>
      <stop offset="0.715" stop-color="#fff"/>
    </radialGradient>
  </defs>
  <g id="Grupo_54158" data-name="Grupo 54158" transform="translate(-217 -997)">
    <g id="Grupo_18531" data-name="Grupo 18531" transform="translate(217 997)">
      <g id="Grupo_18423" data-name="Grupo 18423" transform="translate(0 0)">
        <g id="Grupo_18421" data-name="Grupo 18421">
          <g id="Grupo_18420" data-name="Grupo 18420">
            <g id="Grupo_18419" data-name="Grupo 18419">
              <path id="Trazado_40936" data-name="Trazado 40936" d="M299.475,2198.146a52.426,52.426,0,1,1-52.425-52.424A52.425,52.425,0,0,1,299.475,2198.146Z" transform="translate(-194.623 -2145.721)" fill="#fff"/>
            </g>
          </g>
        </g>
        <path id="Trazado_40937" data-name="Trazado 40937" d="M298.99,2197.617a52.425,52.425,0,1,0-52.425,52.427A52.219,52.219,0,0,0,298.99,2197.617Z" transform="translate(-194.138 -2145.192)" fill="url(#radial-gradient)"/>
        <path id="Trazado_40938" data-name="Trazado 40938" d="M282.3,2193.357a40.016,40.016,0,1,0-40.016,40.016A39.868,39.868,0,0,0,282.3,2193.357Z" transform="translate(-189.698 -2140.758)" fill="none" stroke="#7d6eb2" stroke-miterlimit="10" stroke-width="4"/>
        <g id="Grupo_18422" data-name="Grupo 18422" transform="translate(9.288 29.433)">
          <path id="Trazado_40939" data-name="Trazado 40939" d="M290.808,2164.488a52.432,52.432,0,0,1-90.263,52.208,52.266,52.266,0,0,0,90.263-52.208Z" transform="translate(-200.545 -2164.488)" fill="#eceef0"/>
        </g>
      </g>
    </g>
    <g id="Grupo_22578" data-name="Grupo 22578" transform="translate(242.352 1024.357)">
      <path id="Trazado_49251" data-name="Trazado 49251" d="M3439.3,533.974l-8.54-.012h0a.784.784,0,0,0-.784.785l0,2.141h-.893l-11.029-4.821,8.687-8.687a.783.783,0,0,0,.1-.126l.438-.438h0l.33-.33,1.6-1.6a3.4,3.4,0,0,0,0-4.8l-.967-.967a3.4,3.4,0,0,0-4.8,0l-1.6,1.6-.33.33-.437.438a.792.792,0,0,0-.127.1L3408.939,529.6a7.382,7.382,0,0,0-1.267.15l-9.865,2.065a7.413,7.413,0,0,0-4.8,3.39l-5.1,8.379a3.393,3.393,0,0,0,2.009,5.033l-2.95,2.95a.785.785,0,0,0-.224.467l-1.968,6.544a.784.784,0,0,0,.977.977l3.737-1.124h0l2.823-.849a.776.776,0,0,0,.452-.22l2.18-2.18a2.788,2.788,0,0,0,2.324,1.27,2.744,2.744,0,0,0,.427-.034l9.7-1.532h0l.514-.081a5.85,5.85,0,0,1,2.563.169l3.4,1.008a7.343,7.343,0,0,0,4.527-.1l8.057-2.8,3.545,0v1.1a.784.784,0,0,0,.783.783l8.493.013h0a.784.784,0,0,0,.784-.783l.022-19.426A.784.784,0,0,0,3439.3,533.974ZM3438.5,553.4l-6.927-.01v-1.881l-.017-13.05V536.89l0-1.358,6.97.009Zm-12.172-1.9a.8.8,0,0,0-.258.044l-8.183,2.845a5.785,5.785,0,0,1-3.566.083l-3.4-1.008a7.433,7.433,0,0,0-3.253-.215l-.514.081-.744.118-8.957,1.415a1.2,1.2,0,0,1-1.338-.857c-.011-.038-.02-.077-.027-.118a3.129,3.129,0,0,1,.536-2.374,3.129,3.129,0,0,1,2.067-1.284l.109-.017,1.321-.212,5.772-.928h0l2.362-.38a3.416,3.416,0,0,0,2.147-1.262l1.317-1.672a4.743,4.743,0,0,0-.737-6.62l5.885-5.885,11.741,5.132a.784.784,0,0,0,.313.066h1.06l.017,13.05Zm-35.106-4.389a1.805,1.805,0,0,1-1.387-.236,1.829,1.829,0,0,1-.58-2.482l5.1-8.379a5.839,5.839,0,0,1,3.778-2.671l8.93-1.87-5.962,5.962-1.952.239a3.406,3.406,0,0,0-2.506,1.614l-4.1,6.7-1.021,1.021A1.837,1.837,0,0,1,3391.219,547.113Zm8.075-7.873-2.028,2.028.709-1.16A1.845,1.845,0,0,1,3399.294,539.24Zm-6.85,9.067,1.338-1.339,8.041-8.041.9-.9.9-.9,5.956-5.956.708-.707.661-.661,8.857-8.857,1.235,1.235-8.177,8.177-.631.631-.631.631-5.212,5.212-.851.851-.9.9-14.767,14.767-1.235-1.235Zm33.4-32.618a1.817,1.817,0,0,1,1.293.536l.967.967a1.831,1.831,0,0,1,0,2.587l-1.043,1.043-3.554-3.554,1.043-1.043A1.816,1.816,0,0,1,3425.844,515.689Zm-3.772,3.015.328-.328,3.554,3.554-.328.328,0,0-.552.552-.593.593-1.223-1.223-1.109-1.109-1.222-1.223.593-.593.552-.552Zm-34.287,38.6-1.084.326h0l.326-1.084.758.758Zm1.7-.513-1.95-1.95.37-1.231,2.811,2.811Zm2.724-1.1-1.235-1.235,15.994-15.994.636-.636.607-.607,5.095-5.095.631-.631.631-.631,7.575-7.575,1.235,1.235-6.9,6.9-.631.631-.631.631-5.5,5.5-.56.56-.56.56-9.227,9.227-.928.149a4.721,4.721,0,0,0-3.97,4.749Zm17.686-15.412a3.177,3.177,0,0,1,.589,4.508l-1.317,1.672a1.853,1.853,0,0,1-1.164.684l-1.555.25h0l-4.438.713,7.852-7.852Z" transform="translate(-3384.747 -514.123)" fill="#12263f"/>
      <path id="Trazado_49252" data-name="Trazado 49252" d="M3751.694,779.641a2.155,2.155,0,1,0,1.254-4c-.047,0-.093-.007-.141-.007a2.155,2.155,0,0,0-1.877,3.218A2.171,2.171,0,0,0,3751.694,779.641Zm1.114-2.435a.579.579,0,0,1,.138.018.584.584,0,1,1-.138-.018Z" transform="translate(-3702.844 -741.47)" fill="#12263f"/>
    </g>
  </g>
</svg>
