<svg xmlns="http://www.w3.org/2000/svg" xmlns:xlink="http://www.w3.org/1999/xlink" width="104.852" height="104.852" viewBox="0 0 104.852 104.852">
  <defs>
    <radialGradient id="radial-gradient" cx="0.076" cy="0.019" r="1.465" gradientTransform="translate(0.001)" gradientUnits="objectBoundingBox">
      <stop offset="0" stop-color="#f6f6f7"/>
      <stop offset="0.477" stop-color="#f9f9fa"/>
      <stop offset="0.715" stop-color="#fff"/>
    </radialGradient>
  </defs>
  <g id="Grupo_50460" data-name="Grupo 50460" transform="translate(-217 -997)">
    <g id="Grupo_18531" data-name="Grupo 18531" transform="translate(217 997)">
      <g id="Grupo_18423" data-name="Grupo 18423" transform="translate(0 0)">
        <g id="Grupo_18421" data-name="Grupo 18421">
          <g id="Grupo_18420" data-name="Grupo 18420">
            <g id="Grupo_18419" data-name="Grupo 18419">
              <path id="Trazado_40936" data-name="Trazado 40936" d="M299.475,2198.146a52.426,52.426,0,1,1-52.425-52.424A52.425,52.425,0,0,1,299.475,2198.146Z" transform="translate(-194.623 -2145.721)" fill="#fff"/>
            </g>
          </g>
        </g>
        <path id="Trazado_40937" data-name="Trazado 40937" d="M298.99,2197.617a52.425,52.425,0,1,0-52.425,52.427A52.219,52.219,0,0,0,298.99,2197.617Z" transform="translate(-194.138 -2145.192)" fill="url(#radial-gradient)"/>
        <path id="Trazado_40938" data-name="Trazado 40938" d="M282.3,2193.357a40.016,40.016,0,1,0-40.016,40.016A39.868,39.868,0,0,0,282.3,2193.357Z" transform="translate(-189.698 -2140.758)" fill="none" stroke="#7d6eb2" stroke-miterlimit="10" stroke-width="4"/>
        <g id="Grupo_18422" data-name="Grupo 18422" transform="translate(9.288 29.433)">
          <path id="Trazado_40939" data-name="Trazado 40939" d="M290.808,2164.488a52.432,52.432,0,0,1-90.263,52.208,52.266,52.266,0,0,0,90.263-52.208Z" transform="translate(-200.545 -2164.488)" fill="#eceef0"/>
        </g>
      </g>
    </g>
    <g id="Grupo_22579" data-name="Grupo 22579" transform="translate(241.352 1021.391)">
      <path id="Trazado_49253" data-name="Trazado 49253" d="M3637.613,204.863l6.79-1.819.583-.156a.8.8,0,0,0,.581-.757v-5.316a.784.784,0,0,0-.987-.757l-7.373,1.975a.784.784,0,0,0-.581.757v5.316a.784.784,0,0,0,.987.757Zm.581-5.472,5.8-1.555v3.693l-5.8,1.555Z" transform="translate(-3605.5 -161.122)" fill="#12263f"/>
      <path id="Trazado_49254" data-name="Trazado 49254" d="M3723.659,243.47a.785.785,0,0,0-.68-.135l-7.373,1.975a.784.784,0,0,0-.581.757v5.316a.784.784,0,0,0,.784.784.792.792,0,0,0,.2-.027l7.373-1.976a.784.784,0,0,0,.581-.757v-5.316A.784.784,0,0,0,3723.659,243.47Zm-1.261,5.337-5.8,1.555v-3.693l5.8-1.555Z" transform="translate(-3673.656 -202.222)" fill="#12263f"/>
      <path id="Trazado_49255" data-name="Trazado 49255" d="M3649.222,269.8l-.166.044-.784.21-7.2,1.929.406,1.514,6.8-1.821.783-.21.569-.153-.2-.757Z" transform="translate(-3609.366 -225.257)" fill="#12263f"/>
      <path id="Trazado_49256" data-name="Trazado 49256" d="M3649.222,296.737l-.161.043-.784.21-6.338,1.7-.866.232.148.552.21.784.048.179.667-.179,2.926-.784,2.926-.784.282-.076.784-.21.564-.151-.2-.757Z" transform="translate(-3609.366 -248.67)" fill="#12263f"/>
      <path id="Trazado_49257" data-name="Trazado 49257" d="M3647.483,150.366c0-.385,0-.73-.012-1.049q.167.289.375.607l.969,1.491,1.266-.339V146.5l-1.246.334v1.363c0,.315,0,.6.014.857-.1-.172-.2-.334-.291-.478l-.945-1.414-1.376.369v4.579l1.246-.334Z" transform="translate(-3613.855 -118.061)" fill="#12263f"/>
      <path id="Trazado_49258" data-name="Trazado 49258" d="M3683.339,142.583l-1.721.461v-.6l1.541-.413v-1.16l-1.541.413v-.48l1.635-.438v-1.166l-2.956.792v4.578l3.042-.815Z" transform="translate(-3643.464 -111.711)" fill="#12263f"/>
      <path id="Trazado_49259" data-name="Trazado 49259" d="M3707.284,130.3c.02-.091.039-.18.057-.269.009.048.019.1.029.145l.395,1.9,1.326-.355.523-2.165.5-2.074.159-.657-.246.066-.762.2-.375.1-.365,1.921-.063.377c0,.006,0,.012,0,.018-.014-.073-.028-.145-.042-.217l-.375-1.872-1.314.352-.377,1.92c-.032.169-.065.342-.1.514-.022-.12-.045-.24-.068-.358l-.355-1.835-1.387.371,1.087,4.287,1.334-.357Z" transform="translate(-3664.455 -100.961)" fill="#12263f"/>
      <path id="Trazado_49260" data-name="Trazado 49260" d="M3749.631,124.87a2.507,2.507,0,0,0,.5.091c.529.041.529.134.529.208,0,.194-.2.362-.525.45a2.013,2.013,0,0,1-.391.063,1.861,1.861,0,0,1-.564-.043l-.187-.048-.033.143-.244,1.048.172.049a1.371,1.371,0,0,0,.222.04,2.307,2.307,0,0,0,.251.013,3.137,3.137,0,0,0,.534-.05c.092-.016.185-.035.28-.06,1.345-.36,1.824-1.234,1.824-1.932s-.409-1.061-1.25-1.146c-.568-.061-.609-.114-.609-.2,0-.129.161-.3.47-.385a1.622,1.622,0,0,1,.779-.033l.179.041.307-1.184-.194-.04a2.547,2.547,0,0,0-1.156.078,2.638,2.638,0,0,0-1.206.678,1.693,1.693,0,0,0-.519,1.184A1.021,1.021,0,0,0,3749.631,124.87Z" transform="translate(-3702.942 -96.646)" fill="#12263f"/>
      <path id="Trazado_49261" data-name="Trazado 49261" d="M3467.2,270.9l-.789-.211-9.692-2.6-.2.757-.2.757,10.133,2.715.789.211.789.211,3.887,1.042,2.685.719.193-.719.01-.038.2-.757-7.013-1.879Z" transform="translate(-3448.748 -223.767)" fill="#12263f"/>
      <path id="Trazado_49262" data-name="Trazado 49262" d="M3467.1,235.071l-.789-.211-3.174-.851-2.926-.784-1.22-.327-.765-.205-1.505-.4-.2.757-.2.757,10.031,2.688.789.211.789.211,6.674,1.788.2-.757.2-.757-7.115-1.906Z" transform="translate(-3448.748 -192.643)" fill="#12263f"/>
      <path id="Trazado_49263" data-name="Trazado 49263" d="M3460.478,127.514l.763.2L3474.6,131.3l.2-.757.2-.757-13.544-3.629-.762-.2-.763-.2-3.213-.861-.2.757-.2.757,3.4.911Z" transform="translate(-3448.748 -99.271)" fill="#12263f"/>
      <path id="Trazado_49264" data-name="Trazado 49264" d="M3451.74-41.377V-51.415a.783.783,0,0,0-.307-.622.784.784,0,0,0-.68-.135l-8.665,2.322a10.983,10.983,0,0,0-5.557-2.63l-.069-.013H3432a13.551,13.551,0,0,0,4.244-9.111,9.782,9.782,0,0,0-2.637-6.842,8.8,8.8,0,0,0-6.4-2.713,8.8,8.8,0,0,0-6.4,2.713,9.781,9.781,0,0,0-2.637,6.842,13.551,13.551,0,0,0,4.244,9.111h-4.462l-.069.013a10.981,10.981,0,0,0-5.555,2.63l-8.665-2.322a.784.784,0,0,0-.68.135.783.783,0,0,0-.307.622v10.037a4.363,4.363,0,0,0-4.279,4.356v.894a4.363,4.363,0,0,0,4.279,4.356V-20.9a.784.784,0,0,0,.581.757l23.7,6.35a.783.783,0,0,0,.2.027c.018,0,.035,0,.053,0s.035,0,.053,0a.784.784,0,0,0,.2-.027l23.7-6.35a.784.784,0,0,0,.581-.757V-31.771a4.363,4.363,0,0,0,4.279-4.356v-.894A4.363,4.363,0,0,0,3451.74-41.377Zm2.711,5.25a2.792,2.792,0,0,1-2.711,2.787c-.027,0-.053,0-.08,0a2.779,2.779,0,0,1-.7-.094,2.775,2.775,0,0,1-.784-.341,2.788,2.788,0,0,1-1.3-2.356v-.894a2.789,2.789,0,0,1,1.3-2.356,2.771,2.771,0,0,1,.784-.34,2.779,2.779,0,0,1,.7-.094c.027,0,.053,0,.08,0a2.792,2.792,0,0,1,2.711,2.786Zm-54.5-.894a2.792,2.792,0,0,1,2.711-2.786c.027,0,.053,0,.08,0a2.777,2.777,0,0,1,.7.094,2.771,2.771,0,0,1,.784.34,2.788,2.788,0,0,1,1.3,2.356v.894a2.789,2.789,0,0,1-1.3,2.357,2.771,2.771,0,0,1-.784.34,2.777,2.777,0,0,1-.7.094c-.027,0-.053,0-.08,0a2.792,2.792,0,0,1-2.711-2.787Zm4.279-13.372,6.918,1.854.823.221.834.224,13.556,3.632v28.889l-22.132-5.93V-32.031a4.381,4.381,0,0,0,2.537-2.426l1.443.387.765.2.765.2,5.816,1.558.765.2.35.094.789.211,6.776,1.816.2-.757.2-.757-7.217-1.934-.789-.211-.128-.034-.765-.2-5.814-1.558-.765-.2-.765-.2-1.3-.349c0-.045,0-.09,0-.135v-.894a4.331,4.331,0,0,0-.588-2.182l2.249.6.764.2.765.2,13.944,3.736.2-.757.2-.757-14.152-3.792-.764-.2-.764-.2-2.6-.7-.2.757-.077.288a4.378,4.378,0,0,0-1.847-1.3Zm18.208-4.39a11.567,11.567,0,0,1-2.714-6.822c0-4.553,3.213-7.987,7.474-7.987s7.475,3.434,7.475,7.987a11.567,11.567,0,0,1-2.714,6.822,11.4,11.4,0,0,1-2.414,2.29,5.642,5.642,0,0,1-1.587.784,2.8,2.8,0,0,1-.76.117,2.8,2.8,0,0,1-.76-.117,5.642,5.642,0,0,1-1.587-.784A11.4,11.4,0,0,1,3422.443-54.783Zm4.76,4.759a5.588,5.588,0,0,0,2.791-.9h6.327a9.868,9.868,0,0,1,3.89,1.578L3427.2-45.862,3414.2-49.347a9.866,9.866,0,0,1,3.889-1.578h6.328A5.588,5.588,0,0,0,3427.2-50.024ZM3450.172-21.5l-22.132,5.93V-44.463L3441.6-48.1l.835-.224.823-.221,6.918-1.854v9.276a4.374,4.374,0,0,0-2.76,3.128l-1.64.44-.764.2-.765.2-4.68,1.254.2.757.2.757,4.466-1.2.765-.2.765-.2,1.338-.359v.209a4.332,4.332,0,0,0,.307,1.6l-1.425.382-.765.2-.765.2-5.092,1.364.2.757.066.249.136.508,1.9-.508,2.973-.8.765-.205.765-.2,1.747-.468-.258-.964a4.382,4.382,0,0,0,2.314,1.969Z" transform="translate(-3398.388 71.159)" fill="#12263f"/>
    </g>
  </g>
</svg>
