<svg xmlns="http://www.w3.org/2000/svg" xmlns:xlink="http://www.w3.org/1999/xlink" width="104.852" height="104.852" viewBox="0 0 104.852 104.852">
  <defs>
    <radialGradient id="radial-gradient" cx="0.076" cy="0.019" r="1.465" gradientTransform="translate(0.001)" gradientUnits="objectBoundingBox">
      <stop offset="0" stop-color="#f6f6f7"/>
      <stop offset="0.477" stop-color="#f9f9fa"/>
      <stop offset="0.715" stop-color="#fff"/>
    </radialGradient>
  </defs>
  <g id="Grupo_54160" data-name="Grupo 54160" transform="translate(-217 -997)">
    <g id="Grupo_18531" data-name="Grupo 18531" transform="translate(217 997)">
      <g id="Grupo_18423" data-name="Grupo 18423" transform="translate(0 0)">
        <g id="Grupo_18421" data-name="Grupo 18421">
          <g id="Grupo_18420" data-name="Grupo 18420">
            <g id="Grupo_18419" data-name="Grupo 18419">
              <path id="Trazado_40936" data-name="Trazado 40936" d="M299.475,2198.146a52.426,52.426,0,1,1-52.425-52.424A52.425,52.425,0,0,1,299.475,2198.146Z" transform="translate(-194.623 -2145.721)" fill="#fff"/>
            </g>
          </g>
        </g>
        <path id="Trazado_40937" data-name="Trazado 40937" d="M298.99,2197.617a52.425,52.425,0,1,0-52.425,52.427A52.219,52.219,0,0,0,298.99,2197.617Z" transform="translate(-194.138 -2145.192)" fill="url(#radial-gradient)"/>
        <path id="Trazado_40938" data-name="Trazado 40938" d="M282.3,2193.357a40.016,40.016,0,1,0-40.016,40.016A39.868,39.868,0,0,0,282.3,2193.357Z" transform="translate(-189.698 -2140.758)" fill="none" stroke="#7d6eb2" stroke-miterlimit="10" stroke-width="4"/>
        <g id="Grupo_18422" data-name="Grupo 18422" transform="translate(9.288 29.433)">
          <path id="Trazado_40939" data-name="Trazado 40939" d="M290.808,2164.488a52.432,52.432,0,0,1-90.263,52.208,52.266,52.266,0,0,0,90.263-52.208Z" transform="translate(-200.545 -2164.488)" fill="#eceef0"/>
        </g>
      </g>
    </g>
    <g id="Grupo_54161" data-name="Grupo 54161" transform="translate(-237.208 -537.741)">
      <g id="Grupo_22580" data-name="Grupo 22580" transform="translate(487 1564.82)">
        <path id="Trazado_49265" data-name="Trazado 49265" d="M3479.947,1773.458H3443.8a3.3,3.3,0,0,1-3.295-3.295v-22.152a3.3,3.3,0,0,1,3.295-3.294.813.813,0,0,1,0,1.627,1.669,1.669,0,0,0-1.667,1.667v22.152a1.669,1.669,0,0,0,1.667,1.667h36.143a1.669,1.669,0,0,0,1.667-1.667v-22.152a1.669,1.669,0,0,0-1.667-1.667.813.813,0,0,1,0-1.627,3.3,3.3,0,0,1,3.294,3.294v22.152A3.3,3.3,0,0,1,3479.947,1773.458Z" transform="translate(-3440.509 -1734.851)"/>
        <path id="Trazado_49266" data-name="Trazado 49266" d="M3482.427,1970.259h-41.1a.813.813,0,1,1,0-1.627h41.1a.813.813,0,1,1,0,1.627Z" transform="translate(-3440.509 -1935.448)"/>
        <path id="Trazado_49267" data-name="Trazado 49267" d="M3619.2,2010.8h-5.125a.813.813,0,0,1-.813-.813v-4.094a.813.813,0,0,1,.813-.814h5.125a.813.813,0,0,1,.813.814v4.094A.813.813,0,0,1,3619.2,2010.8Zm-4.311-1.627h3.5v-2.468h-3.5Z" transform="translate(-3595.271 -1968.101)"/>
        <path id="Trazado_49268" data-name="Trazado 49268" d="M3594.986,2051.8h-11.495a.814.814,0,0,1-.793-.992l1.3-5.776a.814.814,0,0,1,.793-.635h8.892a.813.813,0,0,1,.793.635l1.3,5.776a.814.814,0,0,1-.794.992Zm-10.478-1.627h9.461l-.935-4.149h-7.592Z" transform="translate(-3567.872 -2003.325)"/>
        <path id="Trazado_49269" data-name="Trazado 49269" d="M3558.9,2101.484h-20.987a.813.813,0,0,1,0-1.627H3558.9a.813.813,0,0,1,0,1.627Z" transform="translate(-3527.045 -2053.007)"/>
        <path id="Trazado_49270" data-name="Trazado 49270" d="M3524.374,1684.789h-30.193a.813.813,0,0,1-.813-.813v-33.184a.813.813,0,0,1,.813-.813h23.245a.814.814,0,0,1,.5.176l6.948,5.505a.813.813,0,0,1,.308.638v27.679A.813.813,0,0,1,3524.374,1684.789Zm-29.379-1.627h28.566V1656.69l-6.418-5.085h-22.148Z" transform="translate(-3487.863 -1649.978)"/>
        <path id="Trazado_49271" data-name="Trazado 49271" d="M3724.338,1657.109h-6.948a.813.813,0,0,1-.813-.813v-5.505a.813.813,0,0,1,1.318-.637l6.948,5.505a.813.813,0,0,1-.505,1.451Zm-6.135-1.627h3.8l-3.8-3.01Z" transform="translate(-3687.828 -1649.977)"/>
        <path id="Trazado_49272" data-name="Trazado 49272" d="M3552.176,1783.432a2.079,2.079,0,0,1-1.468-.623c-.279-.263-.473-.241-1.291.144a2.506,2.506,0,0,1-3.1-.144c-.279-.263-.473-.241-1.291.144a2.506,2.506,0,0,1-3.1-.144c-.279-.263-.473-.241-1.291.144a2.506,2.506,0,0,1-3.1-.144c-.279-.263-.473-.241-1.292.144a2.506,2.506,0,0,1-3.1-.144.813.813,0,1,1,1.116-1.183c.28.263.473.242,1.292-.144a2.512,2.512,0,0,1,3.1.144c.28.264.472.244,1.292-.144a2.511,2.511,0,0,1,3.1.144c.279.264.473.244,1.292-.144a2.512,2.512,0,0,1,3.1.144c.279.264.472.244,1.292-.144a2.512,2.512,0,0,1,3.1.144c.279.264.472.244,1.292-.144a2.512,2.512,0,0,1,3.1.144.814.814,0,0,1-1.116,1.185c-.279-.264-.473-.241-1.291.144A3.906,3.906,0,0,1,3552.176,1783.432Z" transform="translate(-3523.263 -1767.36)"/>
        <path id="Trazado_49273" data-name="Trazado 49273" d="M3552.176,1823.952a2.079,2.079,0,0,1-1.467-.622c-.278-.263-.472-.243-1.292.144a2.508,2.508,0,0,1-3.1-.144c-.278-.263-.471-.243-1.292.144a2.508,2.508,0,0,1-3.1-.144c-.279-.263-.472-.243-1.292.144a2.508,2.508,0,0,1-3.1-.144c-.279-.263-.472-.243-1.292.144a2.509,2.509,0,0,1-3.1-.144.814.814,0,0,1,1.116-1.184c.28.264.473.242,1.291-.144a2.509,2.509,0,0,1,3.1.144c.28.263.473.242,1.291-.144a2.509,2.509,0,0,1,3.1.144c.28.263.474.242,1.292-.144a2.509,2.509,0,0,1,3.1.144c.28.263.473.242,1.291-.144a2.509,2.509,0,0,1,3.1.144c.28.263.473.242,1.291-.144a2.509,2.509,0,0,1,3.1.144.813.813,0,1,1-1.116,1.183c-.28-.262-.473-.242-1.292.144A3.909,3.909,0,0,1,3552.176,1823.952Z" transform="translate(-3523.263 -1803.66)"/>
      </g>
    </g>
  </g>
</svg>
