<svg xmlns="http://www.w3.org/2000/svg" xmlns:xlink="http://www.w3.org/1999/xlink" width="124.455" height="124.491" viewBox="0 0 124.455 124.491">
  <defs>
    <linearGradient id="linear-gradient" x1="0.5" x2="0.5" y2="1" gradientUnits="objectBoundingBox">
      <stop offset="0" stop-color="#fff"/>
      <stop offset="1" stop-color="#d2e6ee"/>
    </linearGradient>
  </defs>
  <g id="Grupo_14490" data-name="Grupo 14490" transform="translate(-0.073 0)">
    <g id="Grupo_14488" data-name="Grupo 14488" transform="translate(1.899 1.641)">
      <path id="Trazado_24362" data-name="Trazado 24362" d="M151.441,299.691l9.057-2.065a7.26,7.26,0,0,0,5.643-7.224l-.174-8.795-14.481,3.3Z" transform="translate(-116.463 -214.776)" fill="url(#linear-gradient)"/>
      <path id="Trazado_24363" data-name="Trazado 24363" d="M114.129,330.132c-6.7-16.73-8.911-35.269-4.491-51.305l13.756,3.794.009-.035a41.853,41.853,0,0,0-.672,13.77,39.549,39.549,0,0,0,8.463,20.748,6.871,6.871,0,0,1-1.072,9.611l-7.043,5.713a5.745,5.745,0,0,1-8.95-2.3Z" transform="translate(-83.085 -212.672)" fill="#6b5e9a"/>
      <path id="Trazado_24364" data-name="Trazado 24364" d="M136.387,317.1a39.547,39.547,0,0,1-8.463-20.748,41.853,41.853,0,0,1,.672-13.77l-.009.035-13.756-3.794c-.229.831-.436,1.669-.629,2.513l4.643,1.281.009-.035a41.857,41.857,0,0,0-.672,13.77,39.547,39.547,0,0,0,8.463,20.748,6.871,6.871,0,0,1-1.073,9.611l-5.631,4.567a5.756,5.756,0,0,0,8.329,1.146l7.043-5.713a6.87,6.87,0,0,0,1.073-9.611Z" transform="translate(-88.278 -212.671)" fill="#7d6eb2"/>
      <g id="Grupo_14487" data-name="Grupo 14487">
        <g id="Grupo_14486" data-name="Grupo 14486">
          <g id="Grupo_14485" data-name="Grupo 14485">
            <path id="Trazado_24365" data-name="Trazado 24365" d="M273.246,107.956c-6.224-11.8-21.987-12.1-21.987-12.1L240.761,49.8s13.561-6.064,14.57-20.437Z" transform="translate(-184.065 -23.866)" fill="url(#linear-gradient)"/>
            <path id="Trazado_24366" data-name="Trazado 24366" d="M97.615,159.468,46.18,157.713a6.512,6.512,0,0,1-5.838-5.045l-2.42-10.616A6.511,6.511,0,0,1,41,134.975l46.121-21.558Z" transform="translate(-30.422 -87.481)" fill="#f5ca56"/>
            <path id="Trazado_24367" data-name="Trazado 24367" d="M214.036,159.134l9.818.335-10.5-46.051-8.8,4.115Z" transform="translate(-156.661 -87.481)" fill="#deac2f"/>
            <path id="Trazado_24368" data-name="Trazado 24368" d="M17.536,241.507l-4.831,1.035a3.39,3.39,0,0,1-4.059-2.552L7.67,235.7a3.39,3.39,0,0,1,2.552-4.059l4.831-1.035Z" transform="translate(-7.584 -176.179)" fill="url(#linear-gradient)"/>
            <path id="Trazado_24369" data-name="Trazado 24369" d="M323.318,94.309h0a4.315,4.315,0,0,1-5.167-3.248L300.134,12.023a4.315,4.315,0,0,1,3.248-5.167h0a4.315,4.315,0,0,1,5.167,3.248l18.017,79.038A4.315,4.315,0,0,1,323.318,94.309Z" transform="translate(-228.919 -6.747)" fill="#7d6eb2"/>
          </g>
        </g>
      </g>
    </g>
    <g id="Grupo_14489" data-name="Grupo 14489" transform="translate(0.073 0)">
      <path id="Trazado_24370" data-name="Trazado 24370" d="M90.409,35.733a1.827,1.827,0,0,0-3.562.812l10.918,47.9c.707,3.1-4.136,4.256-4.854,1.106L74.944,6.726C74.218,3.531,79,2.12,79.749,5.4l4.939,21.666a1.827,1.827,0,0,0,3.562-.812L83.31,4.592c-1.734-7.608-13.685-5.1-11.989,2.673-1.059,12.89-13.35,18.59-13.475,18.646l-.013.006-.012,0L11.7,47.481q-.074.035-.145.076a8.3,8.3,0,0,0-4.148,7.068l-3.277.7A5.223,5.223,0,0,0,.2,61.572l.977,4.286A5.262,5.262,0,0,0,7.4,69.79l3.292-.705a8.292,8.292,0,0,0,6.819,4.61l.08,0,7.652.261c-.231,1.415-.423,2.855-.566,4.3a81.753,81.753,0,0,0,1.2,23.257,1.827,1.827,0,0,0,3.589-.682,78.106,78.106,0,0,1-1.149-22.216c.151-1.532.355-3.052.609-4.538l10.909.372a45.573,45.573,0,0,0,.545,15.217,41.586,41.586,0,0,0,7.837,17.075c2.325,2.992,1.435,6-1.295,8.215-2.158,1.75-4.17,3.7-6.491,5.241a3.972,3.972,0,0,1-4.387-.029c-2.474-1.678-3.153-6.336-3.982-8.991-.681-2.182-4.2-1.193-3.487,1.089,1.135,3.635,2.035,8.63,5.418,10.925a7.7,7.7,0,0,0,8.459.05c2.42-1.607,4.522-3.623,6.771-5.448,4.294-3.483,5.407-8.752,1.879-13.294a37.921,37.921,0,0,1-7.143-15.568q-.209-1.017-.367-2.042l2.749-.627A9.123,9.123,0,0,0,53.4,77.231l-.046-2.311,15.672.535h.027c.146,0,14.569.4,20.3,10.932,1.787,7.683,13.731,4.967,11.971-2.757ZM6.615,66.222a1.593,1.593,0,0,1-1.872-1.177L3.766,60.76a1.561,1.561,0,0,1,1.153-1.867l3.068-.657L9.659,65.57ZM49.752,77.3a5.456,5.456,0,0,1-4.223,5.407l-2.341.533a40.786,40.786,0,0,1,.322-8.661l6.192.212ZM17.763,70.049A4.663,4.663,0,0,1,13.6,66.422L11.18,55.8a4.663,4.663,0,0,1,2.147-5.05l43.99-20.562,9.467,41.531Zm52.808,1.844L60.691,28.554c2.8-1.56,9.2-5.8,12.424-13.414L87.561,78.512C81.534,73.406,73.76,72.184,70.571,71.893Z" transform="translate(-0.073 0)" fill="#00223d"/>
      <path id="Trazado_24371" data-name="Trazado 24371" d="M407.886,147.243a1.828,1.828,0,0,0-.083,1.766l1.481,3-8.713.061a1.828,1.828,0,0,0,.026,3.653l11.628-.081a1.843,1.843,0,0,0,1.625-2.635l-1.482-3,9.244-.075a1.828,1.828,0,0,0-.03-3.653l-12.155.1a1.826,1.826,0,0,0-1.54.868Z" transform="translate(-301.865 -110.71)" fill="#00223d"/>
      <path id="Trazado_24372" data-name="Trazado 24372" d="M387.062,69.261a1.814,1.814,0,0,0,.824-.2l10.375-5.253a1.843,1.843,0,0,0,.282-3.083l-2.665-2.03,8.242-4.186c2.038-1.035.477-4.339-1.654-3.257l-10.838,5.5a1.843,1.843,0,0,0-.28,3.082l2.662,2.027L386.236,65.8A1.846,1.846,0,0,0,387.062,69.261Z" transform="translate(-291.621 -38.63)" fill="#00223d"/>
      <path id="Trazado_24373" data-name="Trazado 24373" d="M434.055,231.021l-9.242-.2,1.522-2.984a1.843,1.843,0,0,0-1.589-2.656l-11.626-.237a1.828,1.828,0,0,0-.075,3.653l8.711.178-1.52,2.981a1.843,1.843,0,0,0,1.588,2.656l12.152.262a1.828,1.828,0,0,0,.079-3.652Z" transform="translate(-311.325 -170.249)" fill="#00223d"/>
    </g>
  </g>
</svg>
