<svg xmlns="http://www.w3.org/2000/svg" width="60" height="60" viewBox="0 0 60 60">
  <g id="Grupo_55996" data-name="Grupo 55996" transform="translate(-180 -16713.131)">
    <circle id="Elipse_4114" data-name="Elipse 4114" cx="30" cy="30" r="30" transform="translate(180 16713.131)" fill="#26aab7"/>
    <path id="Trazado_130616" data-name="Trazado 130616" d="M11.03,22.753a5.214,5.214,0,0,1-3.574,1.436,5.771,5.771,0,0,1-4.6-1.963,7.733,7.733,0,0,1-1.7-5.244,7.87,7.87,0,0,1,.952-3.809A7.144,7.144,0,0,1,4.783,10.39a7.288,7.288,0,0,1,3.8-1.025A7.075,7.075,0,0,1,12.4,10.426a7.15,7.15,0,0,1,2.659,3A10.315,10.315,0,0,1,16.04,17.9v1.89a12.821,12.821,0,0,1-1.384,6.123A9.556,9.556,0,0,1,10.708,29.9a12.336,12.336,0,0,1-5.977,1.392H4.424V27.338l.938-.015Q10.459,27.074,11.03,22.753ZM8.789,20.629A2.4,2.4,0,0,0,11.1,19.237V17.187a5.332,5.332,0,0,0-.688-3.032,2.159,2.159,0,0,0-1.86-.981,2.041,2.041,0,0,0-1.743,1.113,4.946,4.946,0,0,0-.7,2.7,4.435,4.435,0,0,0,.718,2.659A2.3,2.3,0,0,0,8.789,20.629Z" transform="translate(201.5 16723.131)" fill="#fff"/>
  </g>
</svg>
