<svg xmlns="http://www.w3.org/2000/svg" xmlns:xlink="http://www.w3.org/1999/xlink" width="1230" height="698.754" viewBox="0 0 1230 698.754">
  <defs>
    <clipPath id="clip-path">
      <rect id="Rectángulo_30853" data-name="Rectángulo 30853" width="80.23" height="160.96" rx="4.49" transform="translate(460.267 237.596) rotate(173.56)" fill="none"/>
    </clipPath>
    <clipPath id="clip-path-2">
      <rect id="Rectángulo_30858" data-name="Rectángulo 30858" width="80.23" height="160.96" rx="4.49" transform="translate(656.025 151.755) rotate(20.21)" fill="none"/>
    </clipPath>
    <clipPath id="clip-path-3">
      <rect id="Rectángulo_30861" data-name="Rectángulo 30861" width="80.23" height="160.96" rx="4.49" transform="translate(37.127 194.347) rotate(-6.44)" fill="none"/>
    </clipPath>
    <radialGradient id="radial-gradient" cx="0.929" cy="-0.262" r="1.471" gradientTransform="translate(-0.202) scale(1.405 1)" gradientUnits="objectBoundingBox">
      <stop offset="0.03" stop-color="#ffc"/>
      <stop offset="0.39" stop-color="#ffdbcc"/>
      <stop offset="1" stop-color="#ff9393"/>
    </radialGradient>
    <radialGradient id="radial-gradient-2" cx="-32.894" cy="-101.148" r="200.698" gradientTransform="translate(-0.495) scale(1.989 1)" xlink:href="#radial-gradient"/>
    <linearGradient id="linear-gradient" y1="0.5" x2="1" y2="0.5" gradientUnits="objectBoundingBox">
      <stop offset="0" stop-color="#e4e4f2"/>
      <stop offset="1" stop-color="#fff"/>
    </linearGradient>
    <linearGradient id="linear-gradient-2" x1="0" y1="0.5" x2="1.002" y2="0.5" xlink:href="#linear-gradient"/>
    <clipPath id="clip-path-4">
      <rect id="Rectángulo_30866" data-name="Rectángulo 30866" width="80.23" height="160.96" rx="4.49" transform="translate(944.794 282.816) rotate(173.56)" fill="none"/>
    </clipPath>
  </defs>
  <g id="Grupo_55997" data-name="Grupo 55997" transform="translate(-176 -531.826)">
    <g id="Grupo_55996" data-name="Grupo 55996">
      <rect id="Rectángulo_30867" data-name="Rectángulo 30867" width="1230" height="557" rx="18" transform="translate(176 531.826)" fill="#aee6e6" opacity="0.15"/>
      <g id="redes-01" transform="translate(223.701 555.67)">
        <g id="OBJECTS">
          <path id="Trazado_130404" data-name="Trazado 130404" d="M370.23,125.13c18.71-16.49,55.95,90.27,55.74,98.33-.84,32.29-6.58,65.73-22.88,75.22-15,.22-34.11-3.24-48.11-7.83-.75-12.54-6-57.21-5.79-76.35C349.42,196.86,366.61,128.33,370.23,125.13Z" fill="#fd9b55"/>
          <path id="Trazado_130405" data-name="Trazado 130405" d="M310.81,441c14.28-54.91,33.66-116.69,44.81-153.4,20.24-6,31.61-1.72,48.79,6.38-4.74,43.55-14.67,138-20.64,195.12A232.681,232.681,0,0,1,310.81,441Z" fill="#fd9b55"/>
          <rect id="Rectángulo_30849" data-name="Rectángulo 30849" width="92.34" height="189.64" rx="12.36" transform="translate(468.663 258.026) rotate(173.56)" fill="#1d2769"/>
          <path id="Trazado_130406" data-name="Trazado 130406" d="M388.64,262.18l67.2-7.59a12.36,12.36,0,0,0,10.9-13.66L448.24,77.05a12.35,12.35,0,0,0-13.66-10.9l-67.2,7.59a12.35,12.35,0,0,0-10.9,13.66L375,251.29A12.35,12.35,0,0,0,388.64,262.18Z" fill="#2f4dab"/>
          <path id="Trazado_130407" data-name="Trazado 130407" d="M392.61,80.62l11.59-1.3a1.54,1.54,0,0,0,1.35-1.7h0a1.54,1.54,0,0,0-1.7-1.35l-11.58,1.3a1.54,1.54,0,0,0-1.35,1.7h0a1.52,1.52,0,0,0,1.69,1.35Z" fill="#1d2769"/>
          <path id="Trazado_130408" data-name="Trazado 130408" d="M409.82,77.14a1.53,1.53,0,1,0,.321-1.131,1.53,1.53,0,0,0-.321,1.131Z" fill="#1d2769"/>
          <path id="Trazado_130409" data-name="Trazado 130409" d="M416.45,249.18a4.72,4.72,0,1,0,4.16-5.22,4.72,4.72,0,0,0-4.16,5.22Z" fill="#1d2769"/>
          <g id="Grupo_55981" data-name="Grupo 55981" clip-path="url(#clip-path)">
            <rect id="Rectángulo_30850" data-name="Rectángulo 30850" width="91.8" height="163.37" transform="translate(356.761 86.647) rotate(-6.52)" fill="#c1c9e7"/>
            <rect id="Rectángulo_30851" data-name="Rectángulo 30851" width="91.8" height="51.31" transform="translate(356.781 86.803) rotate(-6.52)" fill="#fff"/>
            <circle id="Elipse_4300" data-name="Elipse 4300" cx="6.21" cy="6.21" r="6.21" transform="matrix(0.627, -0.779, 0.779, 0.627, 370.25, 148.024)" fill="#98a4d1"/>
            <path id="Trazado_130410" data-name="Trazado 130410" d="M392.48,155.15a1.62,1.62,0,0,1-.18-3.23l52.58-6a1.621,1.621,0,1,1,.37,3.22l-52.58,6Z" fill="#98a4d1"/>
            <path id="Trazado_130411" data-name="Trazado 130411" d="M393.41,163.33a1.62,1.62,0,0,1-.18-3.23l52.59-6a1.62,1.62,0,1,1,.36,3.22l-52.58,6Z" fill="#98a4d1"/>
            <path id="Trazado_130412" data-name="Trazado 130412" d="M391.54,147a1.62,1.62,0,0,1-.18-3.23l52.59-6a1.61,1.61,0,0,1,1.79,1.42,1.63,1.63,0,0,1-1.43,1.8l-52.58,6Z" fill="#98a4d1"/>
            <path id="Trazado_130413" data-name="Trazado 130413" d="M383.82,231.56a1.62,1.62,0,0,1-.19-3.23l69.76-8a1.621,1.621,0,1,1,.37,3.22l-69.76,8Z" fill="#98a4d1"/>
            <path id="Trazado_130414" data-name="Trazado 130414" d="M384.86,240.68a1.62,1.62,0,0,1-.18-3.23l69.75-8a1.621,1.621,0,0,1,.37,3.22l-69.75,8Z" fill="#98a4d1"/>
            <rect id="Rectángulo_30852" data-name="Rectángulo 30852" width="71.83" height="43.21" transform="translate(375.975 175.518) rotate(-6.52)" fill="#fff"/>
          </g>
          <path id="Trazado_130415" data-name="Trazado 130415" d="M388.89,287.8c5.73.85,22.08-26.13,11.35-57.41,14.62-12.6,22-48,10.48-52.73-8-3.25-49.35,62.6-49,69.29C362.28,259.21,389.08,279.86,388.89,287.8Z" fill="#fd9b55"/>
          <path id="Trazado_130416" data-name="Trazado 130416" d="M400.16,230.57a67.841,67.841,0,0,1,4.38,15.54,47.94,47.94,0,0,1-.11,16.38,37.17,37.17,0,0,1-6.59,15.12,42.43,42.43,0,0,1-12,10.88,74.9,74.9,0,0,0,9.76-12.38,44,44,0,0,0,5.4-14.27,62.661,62.661,0,0,0,.83-15.45C401.57,241.16,400.83,235.91,400.16,230.57Z" fill="#d37c3a"/>
          <path id="Trazado_130417" data-name="Trazado 130417" d="M459.88,281c-15.4-15.91-31.19-31.45-35.84-26.94-6.21,6,9.25,51.06,36.06,69.45C470.22,330.45,492.82,283.87,459.88,281Z" fill="#fd9b55"/>
          <path id="Trazado_130418" data-name="Trazado 130418" d="M459.8,177.1c-20.58,59.26-3.27,137.53,1,140.56,17,12.14,59.17,17.25,63.33,11.31,15.16-21.67,22.31-59.13,9.22-80.24-4.39-7.09-45.91-15.81-55.11-14-3.93-16.49-2.56-42.07-.66-52.72C481.76,158.38,465.54,160.59,459.8,177.1Z" fill="#fd9b55"/>
          <g id="Grupo_55982" data-name="Grupo 55982" opacity="0.2">
            <path id="Trazado_130419" data-name="Trazado 130419" d="M410.15,26l-34,3.78A5.81,5.81,0,0,0,371,36.2l1.66,14.92a5.82,5.82,0,0,0,6.42,5.13L390.19,55l7.38,11.21,4.62-12.54,10.91-1.22a5.8,5.8,0,0,0,5.13-6.41l-1.66-14.92A5.81,5.81,0,0,0,410.15,26Z" fill="#000a49"/>
          </g>
          <path id="Trazado_130420" data-name="Trazado 130420" d="M410.15,17.36l-34,3.78A5.81,5.81,0,0,0,371,27.56l1.66,14.92a5.82,5.82,0,0,0,6.42,5.13l11.08-1.24,7.38,11.21L402.19,45l10.91-1.22a5.8,5.8,0,0,0,5.13-6.41l-1.66-14.92A5.81,5.81,0,0,0,410.15,17.36Z" fill="#fd0044"/>
          <path id="Trazado_130421" data-name="Trazado 130421" d="M396.55,29.2a4.43,4.43,0,0,0-8.5-1.18,4.42,4.42,0,1,0-6.49,5.9h0l7.85,6.28,6.28-7.85h0A4.44,4.44,0,0,0,396.55,29.2Z" fill="#fff"/>
          <text id="_1" data-name="1" transform="translate(402.11 38.15) rotate(-6.34)" fill="#fff" font-size="19" font-family="SegoeUIBlack, Segoe UI"><tspan x="0" y="0">1</tspan></text>
          <g id="Grupo_55983" data-name="Grupo 55983" opacity="0.2">
            <rect id="Rectángulo_30854" data-name="Rectángulo 30854" width="79.99" height="35.18" rx="7.67" transform="translate(312.226 104.776) rotate(-6.44)" fill="#000a49"/>
          </g>
          <rect id="Rectángulo_30855" data-name="Rectángulo 30855" width="79.99" height="35.18" rx="7.67" transform="translate(312.226 96.121) rotate(-6.44)" fill="#2b459c"/>
          <path id="Trazado_130422" data-name="Trazado 130422" d="M330.79,113h0a6.61,6.61,0,0,0-5.83,7.31l13.13-1.49A6.6,6.6,0,0,0,330.79,113Z" fill="#fff"/>
          <path id="Trazado_130423" data-name="Trazado 130423" d="M330.62,111.46a3.75,3.75,0,1,0-2.768-.79,3.76,3.76,0,0,0,2.768.79Z" fill="#fff"/>
          <path id="Trazado_130424" data-name="Trazado 130424" d="M344.32,106.09a1.34,1.34,0,0,1-.15-2.67l36.1-4.07a1.338,1.338,0,0,1,.3,2.66l-36.1,4.07Z" fill="#fff"/>
          <path id="Trazado_130425" data-name="Trazado 130425" d="M372.33,108.4a1.34,1.34,0,0,1-.15-2.67l8.7-1a1.34,1.34,0,0,1,.3,2.66l-8.7,1Z" fill="#fff"/>
          <path id="Trazado_130426" data-name="Trazado 130426" d="M344.93,111.49a1.34,1.34,0,0,1-.15-2.67l22.27-2.51a1.34,1.34,0,1,1,.3,2.66l-22.27,2.51Z" fill="#fff"/>
          <path id="Trazado_130427" data-name="Trazado 130427" d="M345.54,116.89a1.34,1.34,0,0,1-.15-2.67l14.76-1.66a1.34,1.34,0,0,1,.3,2.66l-14.76,1.66Z" fill="#fff"/>
          <g id="Grupo_55984" data-name="Grupo 55984" opacity="0.2">
            <path id="Trazado_130428" data-name="Trazado 130428" d="M468.53,126.43l-41.18,4.65a8.26,8.26,0,0,0-7.28,9.13l2.4,21.2h0l2.58,22.89,13.18-16.36,34.54-3.9a8.26,8.26,0,0,0,7.28-9.13l-2.39-21.2a8.26,8.26,0,0,0-9.13-7.28Z" fill="#000a49"/>
          </g>
          <path id="Trazado_130429" data-name="Trazado 130429" d="M468.53,117.79l-41.18,4.65a8.26,8.26,0,0,0-7.28,9.13l2.4,21.2h0l2.58,22.89,13.18-16.36,34.54-3.9a8.26,8.26,0,0,0,7.28-9.13l-2.39-21.2a8.26,8.26,0,0,0-9.13-7.28Z" fill="#fff"/>
          <path id="Trazado_130430" data-name="Trazado 130430" d="M450,154.05a15.59,15.59,0,1,1,15.5-17.33h0A15.58,15.58,0,0,1,451.76,154a15,15,0,0,1-1.76.05Zm0-29.34a13.754,13.754,0,1,0,13.63,12.21h0A13.75,13.75,0,0,0,450,124.71Z" fill="#2b459c"/>
          <path id="Trazado_130431" data-name="Trazado 130431" d="M458.55,132.14a2,2,0,0,0-1.9-2,1.88,1.88,0,0,1-3.66,0,2,2,0,0,0-1.92,2c0,2.42,2.88,4.39,3.63,4.61a.23.23,0,0,0,.18,0C455.64,136.51,458.54,134.56,458.55,132.14Z" fill="#fd0044"/>
          <path id="Trazado_130432" data-name="Trazado 130432" d="M440.27,134.2a2,2,0,0,1,1.4-2.41,1.88,1.88,0,0,0,3.57-.83,2,2,0,0,1,2.32,1.55c.55,2.36-1.82,4.92-2.51,5.3a.28.28,0,0,1-.18,0C444.09,137.81,440.82,136.56,440.27,134.2Z" fill="#fd0044"/>
          <path id="Trazado_130433" data-name="Trazado 130433" d="M440.12,140.62v.25a10.08,10.08,0,1,0,20-2.27,1,1,0,0,0,0-.24Z" fill="#2b459c"/>
          <path id="Trazado_130434" data-name="Trazado 130434" d="M413.9,311.73c-19.12-12.48-57.78-24.17-74.82-15.19-1,1.9-.33,9.44.79,11.18l69.51,18.92C411.43,323,414.25,316.7,413.9,311.73Z" fill="#1d2769"/>
          <path id="Trazado_130435" data-name="Trazado 130435" d="M385.89,532.63c7.39-73.6,20.71-155.81,23.49-206-21.27-12.91-41.67-19-69.51-18.92-18.09,54.08-55.76,166.76-75.41,238C307.37,548.6,348.64,544.12,385.89,532.63Z" fill="#7d6eb2"/>
          <path id="Trazado_130436" data-name="Trazado 130436" d="M409.38,326.64c-2.61-1.58-5.2-3.06-7.8-4.44a743.482,743.482,0,0,1-38,131.55A766.009,766.009,0,0,1,321,545.18a315.058,315.058,0,0,0,64.87-12.55C393.28,459,406.6,376.82,409.38,326.64Z" fill="#3a277b"/>
          <path id="Trazado_130437" data-name="Trazado 130437" d="M457.08,308.61s14.17,62.66,14.22,72.18c14.1,3.17,38.22-7.91,44-7.46,0,0,9-51.63,13.9-66.87Z" fill="#fd9b55"/>
          <path id="Trazado_130438" data-name="Trazado 130438" d="M525.58,340.32c-20.83-7-59.05-8.06-71.84,5-.35,2.08,2.42,9.13,3.92,10.5h68.13C526.61,351.79,527.33,345,525.58,340.32Z" fill="#1d2769"/>
          <path id="Trazado_130439" data-name="Trazado 130439" d="M563.81,559.13c-14.48-72.4-26.1-154.58-38-203.35-22.89-6.81-43-7.28-68.13,0-.77,56.51-2.35,174.22.4,247.57C497.59,594.91,533.53,579.85,563.81,559.13Z" fill="#7d6eb2"/>
          <path id="Trazado_130440" data-name="Trazado 130440" d="M525.79,355.78q-4.2-1.26-8.31-2.22A774.763,774.763,0,0,1,521,489.43a780.821,780.821,0,0,1-12.07,98.64,278.291,278.291,0,0,0,54.89-28.94C549.33,486.73,537.71,404.55,525.79,355.78Z" fill="#3a277b"/>
          <path id="Trazado_130441" data-name="Trazado 130441" d="M687.6,259.58c-16.68-18.55-73.81,49.55-73.47,57.6,1.13,26.92,19.93,47.83,33.51,60.92,14.56,3.8,34.23,2.21,48.92,1.08C704.25,340.4,715.27,290.38,687.6,259.58Z" fill="#f8b586"/>
          <path id="Trazado_130442" data-name="Trazado 130442" d="M588.51,294.43c11.08,3.05,20.85,6.7,29.16,14.92,6.1,6,23.43-16.72,14.3-20.28a384.4,384.4,0,0,0-36.81-12.25c-9.74-2.71-15.73,1.22-16.9,5.81C577.23,286.72,580.2,292.13,588.51,294.43Z" fill="#f8b586"/>
          <path id="Trazado_130443" data-name="Trazado 130443" d="M587.89,324.46c12.9,2.4,23.24,4.87,32.86,18.72,5.39,7.76,26.89-17.34,16.51-21.3-13.46-5.14-27.43-9.78-41.77-13.83-11-3.13-18,.78-18.41,5.8C576.76,318.11,579.27,323.35,587.89,324.46Z" fill="#f8b586"/>
          <path id="Trazado_130444" data-name="Trazado 130444" d="M592,266.38c11,3.26,20.71,7.11,28.86,15.48,6,6.15,19.76-1.58,23.63-5.63h0c3.85-4.05.11-10.63-8.95-14.37a384.592,384.592,0,0,0-36.56-13c-9.69-2.9-18.48-2.69-20.11,4.21C577.68,258.37,583.77,263.92,592,266.38Z" fill="#f8b586"/>
          <path id="Trazado_130445" data-name="Trazado 130445" d="M672.19,246.19c-7.72-7.18-40-35.6-50-35.84-5.67-.13-9.16,3.83-8.14,8.92.91,4.55,4.61,8.56,7.77,12.27,6.16,7.27,15.08,13.38,20.75,20,3,3.57,9.89,13.46,14.14,15.81C663.37,271,680.27,253.72,672.19,246.19Z" fill="#f8b586"/>
          <path id="Trazado_130446" data-name="Trazado 130446" d="M660.19,587.23c9.15-56,31.75-169.82,36.4-207.91-16.09-13.65-30.14-2.11-49.12-1.65-13.28,41.74-42,127-59.62,181.68C587.85,559.35,633.35,597.33,660.19,587.23Z" fill="#f8b586"/>
          <path id="Trazado_130447" data-name="Trazado 130447" d="M662.44,348.3,599,324.93a12.35,12.35,0,0,1-7.33-15.86l57-154.77A12.36,12.36,0,0,1,664.5,147L728,170.34a12.35,12.35,0,0,1,7.33,15.86L678.31,341A12.37,12.37,0,0,1,662.44,348.3Z" fill="#1d2769"/>
          <path id="Trazado_130448" data-name="Trazado 130448" d="M664.11,343.76l-63.46-23.37a12.35,12.35,0,0,1-7.33-15.86l57-154.77a12.36,12.36,0,0,1,15.87-7.33l63.46,23.37A12.35,12.35,0,0,1,737,181.66L680,336.43a12.36,12.36,0,0,1-15.89,7.33Z" fill="#2f4dab"/>
          <path id="Trazado_130449" data-name="Trazado 130449" d="M703.48,166.48l-10.94-4a1.54,1.54,0,0,1-.91-2h0a1.55,1.55,0,0,1,2-.91l10.94,4a1.52,1.52,0,0,1,.91,2h0a1.54,1.54,0,0,1-2,.91Z" fill="#1d2769"/>
          <path id="Trazado_130450" data-name="Trazado 130450" d="M687.6,159a1.52,1.52,0,1,1-.028-1.194A1.53,1.53,0,0,1,687.6,159Z" fill="#1d2769"/>
          <circle id="Elipse_4301" data-name="Elipse 4301" cx="4.72" cy="4.72" r="4.72" transform="translate(631.05 318.16)" fill="#1d2769"/>
          <g id="Grupo_55985" data-name="Grupo 55985" clip-path="url(#clip-path-2)">
            <rect id="Rectángulo_30856" data-name="Rectángulo 30856" width="91.8" height="163.37" transform="translate(649.985 150.59) rotate(19.9)" fill="#c1c9e7"/>
            <rect id="Rectángulo_30857" data-name="Rectángulo 30857" width="91.8" height="79.39" transform="translate(638.173 183.235) rotate(19.9)" fill="#fff"/>
            <path id="Trazado_130451" data-name="Trazado 130451" d="M720.6,195.14a1.78,1.78,0,0,1-.55-.1l-66-23.9a1.62,1.62,0,1,1,1.11-3l66,23.89a1.62,1.62,0,0,1-.55,3.15Z" fill="#98a4d1"/>
            <path id="Trazado_130452" data-name="Trazado 130452" d="M717.48,203.77a1.49,1.49,0,0,1-.55-.1l-66-23.89a1.621,1.621,0,0,1,1.1-3.05l66,23.89a1.62,1.62,0,0,1-.55,3.15Z" fill="#98a4d1"/>
            <path id="Trazado_130453" data-name="Trazado 130453" d="M627.53,275.56a6.2,6.2,0,1,1-.211-4.747A6.21,6.21,0,0,1,627.53,275.56Z" fill="#98a4d1"/>
            <path id="Trazado_130454" data-name="Trazado 130454" d="M680.68,304.89a1.519,1.519,0,0,1-.55-.1l-49.77-18a1.62,1.62,0,1,1,1.11-3l49.77,18a1.62,1.62,0,0,1-.56,3.14Z" fill="#98a4d1"/>
            <path id="Trazado_130455" data-name="Trazado 130455" d="M677.88,312.64a1.519,1.519,0,0,1-.55-.1l-49.77-18a1.63,1.63,0,0,1-1-2.08,1.61,1.61,0,0,1,2.07-1l49.77,18a1.62,1.62,0,0,1-.55,3.15Z" fill="#98a4d1"/>
            <path id="Trazado_130456" data-name="Trazado 130456" d="M683.49,297.15a1.58,1.58,0,0,1-.56-.1l-49.76-18a1.621,1.621,0,0,1,1.1-3.05L684,294a1.62,1.62,0,0,1-.55,3.15Z" fill="#98a4d1"/>
          </g>
          <path id="Trazado_130457" data-name="Trazado 130457" d="M657.77,368.58c-5.76-.53-15.22-30.63,2.64-58.46-14.25-4-31.83-14.77-24-21.53,5.39-4.64,33.86,1.37,41.24,5.23,8.16,8.54,18.65,25.4,21,31.67C698.66,325.49,659.48,360.82,657.77,368.58Z" fill="#f8b586"/>
          <path id="Trazado_130458" data-name="Trazado 130458" d="M660.45,310.32c-1.92,5-3.88,9.94-5.42,14.95a62.356,62.356,0,0,0-2.88,15.2A43.861,43.861,0,0,0,654,355.63,74.918,74.918,0,0,0,660.57,370a42.51,42.51,0,0,1-9.07-13.43,37.26,37.26,0,0,1-2.8-16.25,47.809,47.809,0,0,1,3.8-15.94A67.851,67.851,0,0,1,660.45,310.32Z" fill="#ff9549"/>
          <path id="Trazado_130459" data-name="Trazado 130459" d="M641.85,390.4c15.88-2,45.16,6.5,52,9.75,5.05,2,2,23.36-2.48,25.89L634,416.14C633.43,412,635.19,397.08,641.85,390.4Z" fill="#1d2769"/>
          <path id="Trazado_130460" data-name="Trazado 130460" d="M563,616.41c21.19-70.88,54.43-152.81,71-200.27,17.74-1.65,37.3,1.88,57.46,9.9-3.81,56.92-11.77,175.49-20.68,248.87C629.82,661.17,593.21,641.27,563,616.41Z" fill="#2f4dab"/>
          <path id="Trazado_130461" data-name="Trazado 130461" d="M619,653.07a317.24,317.24,0,0,1-56-36.66c21.19-70.88,54.43-152.81,71-200.27a96,96,0,0,1,9.65-.38C621.13,494.19,617,604.6,619,653.07Z" fill="#2b459c"/>
          <path id="Trazado_130462" data-name="Trazado 130462" d="M674.21,412.21,651.2,602q-4.77-.16-9.49-.6,17.92-94.49,31.82-189.41Z" fill="#1d2769"/>
          <path id="Trazado_130463" data-name="Trazado 130463" d="M642.84,410.67q-25,86.46-50,172.93-4.32-2-8.58-4.24,30.42-83.43,57.57-168.66Z" fill="#1d2769"/>
          <path id="Trazado_130464" data-name="Trazado 130464" d="M684.31,416.13,671.89,602.74q-4.86.46-9.69.65,12.67-93.81,21.35-187.56Z" fill="#1d2769"/>
          <path id="Trazado_130465" data-name="Trazado 130465" d="M653.71,410.39,611.56,592.32c-3-.92-6-1.93-8.93-3q26.93-88.72,50.23-178.86Z" fill="#1d2769"/>
          <path id="Trazado_130466" data-name="Trazado 130466" d="M664.2,410.13,631.05,598.46q-4.63-.78-9.23-1.83,22.77-92.76,41.65-186.49Z" fill="#1d2769"/>
          <g id="Grupo_55986" data-name="Grupo 55986" opacity="0.2">
            <path id="Trazado_130467" data-name="Trazado 130467" d="M627.63,170.77l-46-16.74a5.8,5.8,0,0,0-7.44,3.47l-5.14,14.11a5.8,5.8,0,0,0,3.47,7.44l41.56,15.14,6.31,13.36L626,192.32l1.65-4.51,3.49-9.59a5.81,5.81,0,0,0-3.51-7.45Z" fill="#000a49"/>
          </g>
          <path id="Trazado_130468" data-name="Trazado 130468" d="M627.63,162.13l-46-16.74a5.8,5.8,0,0,0-7.44,3.47L569.08,163a5.8,5.8,0,0,0,3.47,7.44l41.56,15.14,6.31,13.36L626,183.68l1.65-4.51,3.49-9.59a5.81,5.81,0,0,0-3.51-7.45Z" fill="#fff"/>
          <path id="Trazado_130469" data-name="Trazado 130469" d="M609.31,169.52a3,3,0,1,0,1.559-1.708A3,3,0,0,0,609.31,169.52Z" fill="#2b459c"/>
          <path id="Trazado_130470" data-name="Trazado 130470" d="M597.29,165.14a3,3,0,1,0,1.559-1.708,3,3,0,0,0-1.559,1.708Z" fill="#2b459c"/>
          <path id="Trazado_130471" data-name="Trazado 130471" d="M585.27,160.76a3,3,0,1,0,1.559-1.708,3,3,0,0,0-1.559,1.708Z" fill="#2b459c"/>
          <g id="Grupo_55987" data-name="Grupo 55987" opacity="0.2">
            <circle id="Elipse_4302" data-name="Elipse 4302" cx="17.06" cy="17.06" r="17.06" transform="matrix(0.467, -0.884, 0.884, 0.467, 632.971, 235.52)" fill="#000a49"/>
          </g>
          <circle id="Elipse_4303" data-name="Elipse 4303" cx="17.06" cy="17.06" r="17.06" transform="matrix(0.467, -0.884, 0.884, 0.467, 632.962, 226.872)" fill="#fd0044"/>
          <path id="Trazado_130472" data-name="Trazado 130472" d="M655.49,221.18h0a8.35,8.35,0,0,0-10.68,5l15.68,5.68a8.34,8.34,0,0,0-5-10.68Z" fill="#fff"/>
          <path id="Trazado_130473" data-name="Trazado 130473" d="M656.14,219.39a4.74,4.74,0,1,0-2.84-6.08,4.74,4.74,0,0,0,2.84,6.08Z" fill="#fff"/>
          <g id="Grupo_55988" data-name="Grupo 55988" opacity="0.2">
            <path id="Trazado_130474" data-name="Trazado 130474" d="M777.57,290.41l-86.48-31.32a17.06,17.06,0,0,1-10.24-21.84h0A17.06,17.06,0,0,1,702.7,227l86.49,31.31a17.07,17.07,0,0,1,10.23,21.85h0A17.06,17.06,0,0,1,777.57,290.41Z" fill="#000a49"/>
          </g>
          <path id="Trazado_130475" data-name="Trazado 130475" d="M777.57,281.77l-86.48-31.32a17.07,17.07,0,0,1-10.24-21.85h0a17.07,17.07,0,0,1,21.85-10.23l86.49,31.32a17.07,17.07,0,0,1,10.23,21.85h0A17.06,17.06,0,0,1,777.57,281.77Z" fill="#fff"/>
          <path id="Trazado_130476" data-name="Trazado 130476" d="M784.61,260.22a1.191,1.191,0,0,1-.45-.08l-84.29-30.52a1.335,1.335,0,1,1,.91-2.51l84.29,30.52a1.33,1.33,0,0,1-.46,2.59Z" fill="#2b459c"/>
          <path id="Trazado_130477" data-name="Trazado 130477" d="M782.28,266.67a1.21,1.21,0,0,1-.46-.08l-51-18.45a1.34,1.34,0,1,1,.92-2.51l50.94,18.45a1.33,1.33,0,0,1-.45,2.59Z" fill="#2b459c"/>
          <path id="Trazado_130478" data-name="Trazado 130478" d="M724.57,245.77a1.24,1.24,0,0,1-.46-.08l-26.57-9.62a1.34,1.34,0,0,1,.91-2.52L725,243.18a1.33,1.33,0,0,1-.45,2.59Z" fill="#2b459c"/>
          <path id="Trazado_130479" data-name="Trazado 130479" d="M757,264.8a1.191,1.191,0,0,1-.45-.08l-61.32-22.2a1.34,1.34,0,1,1,.91-2.52l61.32,22.21a1.33,1.33,0,0,1-.46,2.59Z" fill="#2b459c"/>
          <path id="Trazado_130480" data-name="Trazado 130480" d="M146.8,320.55c-15.3-19.7-97.52,13.37-93.77,20.5,18.13,34.41,30.46,45.27,54,53.51,14.71-3.13,33.69-8.91,45-22.87C151.22,363.61,152.5,327.89,146.8,320.55Z" fill="#db7627"/>
          <path id="Trazado_130481" data-name="Trazado 130481" d="M79,273.74c-9.07-5.36-46.72-26.22-56.46-24.33-5.56,1.07-8.12,5.69-6,10.45,1.86,4.24,6.33,7.37,10.2,10.33,7.58,5.78,17.6,9.84,24.56,15.12,3.74,2.83,12.53,11,17.18,12.42C75.7,299.88,88.5,279.37,79,273.74Z" fill="#db7627"/>
          <path id="Trazado_130482" data-name="Trazado 130482" d="M253.78,536.26C227.63,485.92,171,400.67,151.91,367.37c-21.06-1.31-41.74,10.31-44.85,27.19,14.32,41.4,67.23,133.19,85.78,187.56C217.25,564.59,238.32,560.41,253.78,536.26Z" fill="#db7627"/>
          <path id="Trazado_130483" data-name="Trazado 130483" d="M131,367.11l-67.2,7.58A12.35,12.35,0,0,1,50.16,363.8L31.66,199.92a12.36,12.36,0,0,1,10.89-13.67l67.2-7.58a12.35,12.35,0,0,1,13.66,10.89l18.5,163.88A12.36,12.36,0,0,1,131,367.11Z" fill="#1d2769"/>
          <path id="Trazado_130484" data-name="Trazado 130484" d="M130.48,362.3l-67.2,7.59A12.37,12.37,0,0,1,49.61,359L31.11,195.11A12.35,12.35,0,0,1,42,181.45l67.2-7.59a12.35,12.35,0,0,1,13.66,10.89l18.5,163.89A12.35,12.35,0,0,1,130.48,362.3Z" fill="#2f4dab"/>
          <path id="Trazado_130485" data-name="Trazado 130485" d="M86.14,186.2l-11.58,1.31a1.54,1.54,0,0,1-1.7-1.35h0a1.53,1.53,0,0,1,1.35-1.7l11.59-1.31a1.53,1.53,0,0,1,1.69,1.35h0a1.53,1.53,0,0,1-1.35,1.7Z" fill="#1d2769"/>
          <path id="Trazado_130486" data-name="Trazado 130486" d="M68.59,186.64a1.52,1.52,0,1,1-.563-1.028A1.53,1.53,0,0,1,68.59,186.64Z" fill="#1d2769"/>
          <path id="Trazado_130487" data-name="Trazado 130487" d="M100.47,355.83a4.72,4.72,0,1,1-5.22-4.16A4.72,4.72,0,0,1,100.47,355.83Z" fill="#1d2769"/>
          <g id="Grupo_55989" data-name="Grupo 55989" clip-path="url(#clip-path-3)">
            <rect id="Rectángulo_30859" data-name="Rectángulo 30859" width="91.8" height="163.37" transform="matrix(0.994, -0.113, 0.113, 0.994, 32.101, 198.38)" fill="#c1c9e7"/>
            <rect id="Rectángulo_30860" data-name="Rectángulo 30860" width="91.8" height="79.39" transform="matrix(0.994, -0.113, 0.113, 0.994, 38.687, 256.5)" fill="#fff"/>
            <path id="Trazado_130488" data-name="Trazado 130488" d="M47.35,238.65a1.62,1.62,0,0,1-.18-3.23l69.76-7.91a1.61,1.61,0,0,1,1.79,1.42,1.63,1.63,0,0,1-1.43,1.8l-69.76,7.91Z" fill="#98a4d1"/>
            <path id="Trazado_130489" data-name="Trazado 130489" d="M48.38,247.77a1.62,1.62,0,0,1-.18-3.23l69.8-7.91a1.621,1.621,0,0,1,.37,3.22l-69.76,7.91Z" fill="#98a4d1"/>
            <path id="Trazado_130490" data-name="Trazado 130490" d="M70,342.35a6.2,6.2,0,1,1-2.3-4.161A6.21,6.21,0,0,1,70,342.35Z" fill="#98a4d1"/>
            <path id="Trazado_130491" data-name="Trazado 130491" d="M76.39,343a1.62,1.62,0,0,1-.18-3.23l52.59-6a1.62,1.62,0,1,1,.36,3.22l-52.59,6Z" fill="#98a4d1"/>
          </g>
          <path id="Trazado_130492" data-name="Trazado 130492" d="M113.88,375.91c-5.46-2.32-.91-29,23.21-55-3.76-12.82-5.16-47.9,8.33-48.44,6.48-.26,15.48,49.11,15.48,49.11a435.3,435.3,0,0,1-8.81,50.08S117.43,367.69,113.88,375.91Z" fill="#db7627"/>
          <path id="Trazado_130493" data-name="Trazado 130493" d="M137.37,321.2a127.454,127.454,0,0,0-9.9,11.48,79.23,79.23,0,0,0-7.72,12.68,83.871,83.871,0,0,0-5.19,13.92c-1.33,4.82-2.27,9.77-3.19,14.84a54.53,54.53,0,0,1,.35-15.46,53.78,53.78,0,0,1,4.68-14.93,52.3,52.3,0,0,1,8.85-12.91,50.1,50.1,0,0,1,12.12-9.62Z" fill="#80491f"/>
          <path id="Trazado_130494" data-name="Trazado 130494" d="M301.22,566c-46.78-64-95-139.09-128.68-181.11-26.2,4.93-46.8,14.7-69,34.65,24.28,56.09,74.87,172.91,110.18,243.8C250,635,279.74,601.85,301.22,566Z" fill="#c1c9e7"/>
          <path id="Trazado_130495" data-name="Trazado 130495" d="M172.54,384.92q-4.815.915-9.4,2a797.85,797.85,0,0,1,63.81,132.14,822,822,0,0,1,31.51,103.35A337.288,337.288,0,0,0,301.22,566C254.44,502,206.24,426.94,172.54,384.92Z" fill="#98a4d1"/>
          <path id="Trazado_130496" data-name="Trazado 130496" d="M51.69,332.3c-3.53-.59-6.88-.09-8.58,1.93-3.09,3.67-1.84,11.45,2.23,14.38A11.67,11.67,0,0,0,51,350.55c3.9.49,8.53.17,11.32-3.24C68.66,339.53,56.73,333.13,51.69,332.3Z" fill="#db7627"/>
          <path id="Trazado_130497" data-name="Trazado 130497" d="M59.28,326.59c7.25-8.88-6.36-16.19-12.12-17.14-4-.66-7.85-.09-9.79,2.21-3.53,4.19-2.11,13.08,2.54,16.42a13.559,13.559,0,0,0,6.46,2.22C50.82,330.85,56.1,330.49,59.28,326.59Z" fill="#db7627"/>
          <path id="Trazado_130498" data-name="Trazado 130498" d="M39.46,305.69a13.34,13.34,0,0,0,6.32,2.17c4.36.54,9.53.18,12.65-3.63,7.09-8.7-6.23-15.85-11.87-16.78-4-.65-7.68-.09-9.58,2.16C33.52,293.72,34.91,302.41,39.46,305.69Z" fill="#db7627"/>
          <g id="Grupo_55990" data-name="Grupo 55990" opacity="0.2">
            <path id="Trazado_130499" data-name="Trazado 130499" d="M92.87,153.77l-1.69-14.91a5.81,5.81,0,0,0-6.43-5.12l-34,3.85a5.82,5.82,0,0,0-5.1,6.41l1.69,14.92a5.8,5.8,0,0,0,6.43,5.11l11.08-1.25L72.25,174l4.6-12.55,10.9-1.24a5.81,5.81,0,0,0,5.12-6.44Z" fill="#000a49"/>
          </g>
          <path id="Trazado_130500" data-name="Trazado 130500" d="M92.87,145.13l-1.69-14.91a5.81,5.81,0,0,0-6.43-5.12l-34,3.85a5.82,5.82,0,0,0-5.11,6.43l1.69,14.92a5.81,5.81,0,0,0,6.43,5.11l11.08-1.25,7.4,11.19,4.6-12.55,10.9-1.24a5.81,5.81,0,0,0,5.13-6.43Z" fill="#fd0044"/>
          <path id="Trazado_130501" data-name="Trazado 130501" d="M71.17,137a4.43,4.43,0,0,0-8.5-1.16,4.42,4.42,0,1,0-6.48,5.91h0L64.06,148l6.26-7.86h0A4.38,4.38,0,0,0,71.17,137Z" fill="#fff"/>
          <text id="_1-2" data-name="1" transform="matrix(0.994, -0.113, 0.113, 0.994, 76.72, 145.91)" fill="#fff" font-size="18.79" font-family="SegoeUIBlack, Segoe UI"><tspan x="0" y="0">1</tspan></text>
          <g id="Grupo_55991" data-name="Grupo 55991" opacity="0.2">
            <path id="Trazado_130502" data-name="Trazado 130502" d="M189.3,233.16l-116,13.15a17.08,17.08,0,0,1-18.88-15h0a17.06,17.06,0,0,1,15-18.87l116-13.15a17.05,17.05,0,0,1,18.87,15h0A17.07,17.07,0,0,1,189.3,233.16Z" fill="#000a49"/>
          </g>
          <path id="Trazado_130503" data-name="Trazado 130503" d="M189.3,224.51l-116,13.16a17.08,17.08,0,0,1-18.88-15h0a17.06,17.06,0,0,1,15-18.87l116-13.15a17,17,0,0,1,18.87,15h0a17.06,17.06,0,0,1-14.99,18.86Z" fill="#fff"/>
          <path id="Trazado_130504" data-name="Trazado 130504" d="M96.28,212.25a1.34,1.34,0,0,1-.15-2.67l89.07-10.1a1.34,1.34,0,1,1,.3,2.66l-89.06,10.1Z" fill="#2b459c"/>
          <path id="Trazado_130505" data-name="Trazado 130505" d="M132.28,215.07a1.34,1.34,0,0,1-.14-2.67L186,206.29a1.34,1.34,0,1,1,.31,2.66l-53.84,6.11Z" fill="#2b459c"/>
          <path id="Trazado_130506" data-name="Trazado 130506" d="M97.06,219.06a1.34,1.34,0,0,1-.15-2.67L125,213.21a1.34,1.34,0,0,1,.3,2.66l-28.08,3.18Z" fill="#2b459c"/>
          <path id="Trazado_130507" data-name="Trazado 130507" d="M97.83,225.87a1.332,1.332,0,0,1-.15-2.66l64.81-7.35a1.34,1.34,0,1,1,.3,2.66L98,225.87Z" fill="#2b459c"/>
          <path id="Trazado_130508" data-name="Trazado 130508" d="M84.07,216.69l-7.04-.22-3.8-5.91-2.38,6.62-6.8,1.78,5.55,4.32-.4,7.02,5.82-3.96,6.56,2.56-1.97-6.76Z" fill="#fd0044"/>
          <path id="Trazado_130509" data-name="Trazado 130509" d="M475.56,128.43c1.22,17.56-6.3,25.3-23.85,26.51s-26.06-5.42-27.28-23,6.19-26.95,23.75-28.16,26.17,7.07,27.38,24.62" fill="#2c96d3"/>
          <path id="Trazado_130510" data-name="Trazado 130510" d="M445.54,141.09c10.55-.72,15.72-9.86,15.2-17.44a2.62,2.62,0,0,0-.07-.74,11.7,11.7,0,0,0,2.65-3.17,11.679,11.679,0,0,1-3.23,1.13,5.77,5.77,0,0,0,2.31-3.35,11.5,11.5,0,0,1-3.55,1.64,5.75,5.75,0,0,0-9.65,4.61,6.092,6.092,0,0,0,.23,1.3,16.3,16.3,0,0,1-12.23-5.18,5.76,5.76,0,0,0,2.3,7.54,5.65,5.65,0,0,1-2.65-.54.15.15,0,0,0,0,.07,5.75,5.75,0,0,0,5,5.31,5.721,5.721,0,0,1-1.5.31,6.592,6.592,0,0,1-1.09,0,5.75,5.75,0,0,0,5.64,3.61,11.55,11.55,0,0,1-7,3,12.564,12.564,0,0,1-1.37,0,16.23,16.23,0,0,0,9,2" fill="#fff"/>
          <path id="Trazado_130511" data-name="Trazado 130511" d="M685.43,234.39c-6.18,16.79-16.37,20.84-33.16,14.66s-21.93-15.88-15.74-32.67,17-22.42,33.74-16.24,21.34,17.45,15.16,34.25" fill="#fccc3f"/>
          <path id="Trazado_130512" data-name="Trazado 130512" d="M656.05,239.38l-.24-.1h0l-.16-.05a7.34,7.34,0,0,1-3.59-3.2,6.569,6.569,0,0,0-2-2.14,9.249,9.249,0,0,0-1.24-.58,10.188,10.188,0,0,0-1.84-.45,3.23,3.23,0,0,1-.7-.15.43.43,0,0,1-.34-.49,4.866,4.866,0,0,1,.1-.79c.09-.65.13-1.06-.11-1.19-2.78-1.54-3.39-2.47-3.42-3a1.5,1.5,0,0,1,0-.21.37.37,0,0,1,.41-.24c4.8.92,8.54-3,8.69-3.12h0a1.84,1.84,0,0,0,.69-1.39c0-.84-.93-1.54-1.53-2l-.38-.31c-1.15-1-1.06-1.61-.9-1.86a1.33,1.33,0,0,1,1.52-.35.891.891,0,0,1,.34.21,4.15,4.15,0,0,0,1.46,1A1.36,1.36,0,0,0,654,219c.1-.31.2-.64.3-1,.65-2.19,1.46-4.91,2.7-6.18a8.73,8.73,0,0,1,9.41-2.1l.56.2h.07a8.73,8.73,0,0,1,5.82,7.71c.11,1.77-1,4.37-2,6.46v.09c-.12.29-.25.57-.37.84a1.37,1.37,0,0,0,.77.63h0a4.19,4.19,0,0,0,1.68.14,1.07,1.07,0,0,1,.5.08,1.72,1.72,0,0,1,.51.3h0a1.09,1.09,0,0,1,.46,1.09c-.11.32-.53.7-1.87.74h-.5a3.31,3.31,0,0,0-2.46.53,1.84,1.84,0,0,0-.37,1.51h0c0,.23.34,5.6,4.59,8a.34.34,0,0,1,.15.44.671.671,0,0,1-.11.18c-.35.36-1.42.67-4.54,0-.25-.05-.46.23-.85.84-.13.22-.28.43-.44.65a.41.41,0,0,1-.54.16h0a3.922,3.922,0,0,1-.63-.33,9.3,9.3,0,0,0-1.7-.83,8,8,0,0,0-1.32-.37,6.46,6.46,0,0,0-2.88.35,7.36,7.36,0,0,1-4.82.11" fill="#fff"/>
          <path id="Trazado_130513" data-name="Trazado 130513" d="M123.92,289.47c2.38,21.12-6.28,30.86-27.41,33.24s-31.74-5.17-34.12-26.3,6-32.84,27.18-35.23,32,7.16,34.35,28.29" fill="#3264ae"/>
          <path id="Trazado_130514" data-name="Trazado 130514" d="M76.1,288.14l7-.79,2.53,22.47-7,.79Zm2.24-11.57a4.07,4.07,0,1,1-2.734,1.5,4.08,4.08,0,0,1,2.734-1.5" fill="#fff"/>
          <path id="Trazado_130515" data-name="Trazado 130515" d="M87.48,286.85l6.7-.75.34,3.07h.1a7.36,7.36,0,0,1,6.2-4.38c7.06-.8,8.9,3.71,9.58,9.76l1.39,12.33-7,.79-1.23-10.93c-.29-2.61-.72-6-4.3-5.55s-3.87,3.31-3.54,6.24L97,308.54l-7,.79Z" fill="#fff"/>
          <path id="Trazado_130516" data-name="Trazado 130516" d="M850.05,206.57l57-31.17s39.67,60.77-40.62,99.19C849.74,268,840.61,223.89,850.05,206.57Z" fill="url(#radial-gradient)"/>
          <path id="Trazado_130517" data-name="Trazado 130517" d="M966.14,252.73l-.74,1.46-.21.43C965.52,254,965.82,253.36,966.14,252.73Z" fill="url(#radial-gradient-2)"/>
          <circle id="Elipse_4304" data-name="Elipse 4304" cx="34.98" cy="34.98" r="34.98" transform="translate(842.85 28.91)" fill="#1d2769"/>
          <path id="Trazado_130518" data-name="Trazado 130518" d="M898.58,56.65a9.4,9.4,0,0,0-.37-1c-.07-.16-.14-.32-.22-.48a11,11,0,0,0-4.67-4.91l-.47-.24a10.909,10.909,0,0,0-4.77-1.08,11.2,11.2,0,0,0-1.3.07,11,11,0,0,0-8.62,6.18q-.18.38-.33.75-.15-.37-.33-.75A11.067,11.067,0,0,0,862.81,50l-.47.24a11.06,11.06,0,0,0-4.68,4.91l-.22.48c-.13.33-.26.67-.37,1a11.109,11.109,0,0,0-.49,3.27c0,16.75,21.25,27,21.25,27s21.25-10.25,21.25-27a11.115,11.115,0,0,0-.5-3.25Z" fill="url(#linear-gradient)"/>
          <circle id="Elipse_4305" data-name="Elipse 4305" cx="42.75" cy="42.75" r="42.75" transform="translate(967.51 5.33)" fill="#1d2769"/>
          <path id="Trazado_130519" data-name="Trazado 130519" d="M1021.82,40.24a21.25,21.25,0,0,0,12.41,4v-8.9a12.71,12.71,0,0,1-2.61-.27v7a21.34,21.34,0,0,1-12.41-4V56.24a16.46,16.46,0,0,1-25.63,13.67,16.47,16.47,0,0,0,28.24-11.5Zm3.21-9a12.34,12.34,0,0,1-3.21-7.26V22.85h-2.47a12.44,12.44,0,0,0,5.68,8.41Zm-25.7,31.68a7.44,7.44,0,0,1-1.53-4.56,7.53,7.53,0,0,1,7.53-7.52,7.69,7.69,0,0,1,2.28.35v-9.1A16.142,16.142,0,0,0,1005,42v7a7.709,7.709,0,0,0-2.29-.35,7.53,7.53,0,0,0-3.39,14.25Z" fill="#ff1753" fill-rule="evenodd"/>
          <path id="Trazado_130520" data-name="Trazado 130520" d="M1019.21,38.08a21.34,21.34,0,0,0,12.41,4V35a12.459,12.459,0,0,1-6.59-3.78,12.44,12.44,0,0,1-5.68-8.41h-6.49v35.6a7.54,7.54,0,0,1-13.53,4.53A7.53,7.53,0,0,1,1005,49V42a16.45,16.45,0,0,0-11.43,27.95,16.46,16.46,0,0,0,25.63-13.67Z" fill="#fff" fill-rule="evenodd"/>
          <path id="Trazado_130521" data-name="Trazado 130521" d="M1031.62,35V33.1a12.39,12.39,0,0,1-6.59-1.88,12.43,12.43,0,0,0,6.59,3.78Zm-12.27-12.19c-.06-.34-.11-.68-.14-1V20.69h-9V56.24a7.54,7.54,0,0,1-10.92,6.7,7.54,7.54,0,0,0,13.53-4.53V22.85ZM1005,42V40a17.161,17.161,0,0,0-2.26-.15,16.45,16.45,0,0,0-9.17,30.12A16.45,16.45,0,0,1,1005,42Z" fill="#00c9d0" fill-rule="evenodd"/>
          <circle id="Elipse_4306" data-name="Elipse 4306" cx="21.48" cy="21.48" r="21.48" transform="translate(968.45 161.44)" fill="#1d2769"/>
          <path id="Trazado_130522" data-name="Trazado 130522" d="M1002.67,178.47c-.06-.21-.14-.41-.22-.62a1.269,1.269,0,0,0-.14-.29,6.809,6.809,0,0,0-2.87-3l-.29-.14a6.669,6.669,0,0,0-2.93-.67,7,7,0,0,0-.79.05,6.76,6.76,0,0,0-5.3,3.79c-.07.15-.14.31-.2.46-.06-.15-.13-.31-.2-.46a6.76,6.76,0,0,0-5.3-3.79,6.839,6.839,0,0,0-.79-.05,6.7,6.7,0,0,0-2.93.67l-.29.14a6.81,6.81,0,0,0-2.87,3c0,.09-.09.19-.14.29a5.2,5.2,0,0,0-.22.62,6.7,6.7,0,0,0-.31,2c0,10.29,13,16.58,13,16.58s13.05-6.29,13.05-16.58a6.7,6.7,0,0,0-.26-2Z" fill="url(#linear-gradient-2)"/>
          <circle id="Elipse_4307" data-name="Elipse 4307" cx="22.33" cy="22.33" r="22.33" transform="translate(746 174.82)" fill="#1d2769"/>
          <path id="Trazado_130523" data-name="Trazado 130523" d="M784.06,196.61v-.26a5.372,5.372,0,0,0-.07-.69,8.419,8.419,0,0,0-.62-1.8c-1.93-3.65-7.59-6.29-14.28-6.29-8.28,0-15,4.05-15,9s6.71,9,15,9a16.57,16.57,0,0,0,2.24-.1l-2.24,3.16c6.89-.66,15-6.12,15-12v-.14Zm-21.64,1.47a1.88,1.88,0,1,1,1.88-1.88A1.88,1.88,0,0,1,762.42,198.08Zm6.66,0a1.89,1.89,0,1,1,1.352-.539,1.88,1.88,0,0,1-1.352.539Zm6.65,0a1.88,1.88,0,1,1,1.336-.547A1.88,1.88,0,0,1,775.73,198.08Z" fill="#fff"/>
          <circle id="Elipse_4308" data-name="Elipse 4308" cx="17.58" cy="17.58" r="17.58" transform="translate(776.5 89.02)" fill="#000a49"/>
          <path id="Trazado_130524" data-name="Trazado 130524" d="M804.52,104.75l-6.88-6.89v4c-10.25,1.07-14.32,9.92-14.32,9.92a22.32,22.32,0,0,1,14.32-4.23v4.13Z" fill="#fff"/>
          <circle id="Elipse_4309" data-name="Elipse 4309" cx="23.25" cy="23.25" r="23.25" transform="translate(1030.52 121.35)" fill="#000a49"/>
          <path id="Trazado_130525" data-name="Trazado 130525" d="M1067.57,142.14l-9.1-9.1v5.22c-13.55,1.42-18.94,13.12-18.94,13.12,6.86-5.26,14.81-5.76,18.94-5.59v5.46Z" fill="#fff"/>
          <path id="Trazado_130526" data-name="Trazado 130526" d="M940.58,107.21a11.12,11.12,0,0,0-3.83-.89v3.19a8.338,8.338,0,0,1,7.65,7.68h3.19a11.53,11.53,0,0,0-7-10Z" fill="#fff"/>
          <path id="Trazado_130527" data-name="Trazado 130527" d="M943,101.58a17.63,17.63,0,0,0-6.21-1.37v3.19a14.443,14.443,0,0,1,13.79,13.79h3.19A17.66,17.66,0,0,0,943,101.58Z" fill="#fff"/>
          <path id="Trazado_130528" data-name="Trazado 130528" d="M955.7,104.62a23.64,23.64,0,0,0-19-10.41v3.18a20.42,20.42,0,0,1,19.79,19.8h3.19a23.6,23.6,0,0,0-3.98-12.57Z" fill="#fff"/>
          <path id="Trazado_130529" data-name="Trazado 130529" d="M854.76,170.34c18.71-16.49,56,90.27,55.74,98.32-.84,32.29-6.58,65.74-22.89,75.22-15,.23-34.11-3.24-48.1-7.82-.75-12.54-6-57.21-5.79-76.35C834,242.07,851.13,173.54,854.76,170.34Z" fill="#fd9b55"/>
          <path id="Trazado_130530" data-name="Trazado 130530" d="M795.34,486.19c14.27-54.9,33.65-116.68,44.8-153.4,20.25-6,31.62-1.71,48.8,6.39-4.74,43.55-14.68,138-20.64,195.11a232.51,232.51,0,0,1-72.96-48.1Z" fill="#fd9b55"/>
          <rect id="Rectángulo_30862" data-name="Rectángulo 30862" width="92.34" height="189.64" rx="12.36" transform="translate(953.189 303.246) rotate(173.56)" fill="#1d2769"/>
          <path id="Trazado_130531" data-name="Trazado 130531" d="M873.17,307.39l67.2-7.59a12.35,12.35,0,0,0,10.89-13.66L932.77,122.25a12.35,12.35,0,0,0-13.66-10.89l-67.21,7.58A12.36,12.36,0,0,0,841,132.61l18.5,163.88a12.38,12.38,0,0,0,13.67,10.9Z" fill="#2f4dab"/>
          <path id="Trazado_130532" data-name="Trazado 130532" d="M877.14,125.83l11.58-1.31a1.52,1.52,0,0,0,1.35-1.69h0a1.53,1.53,0,0,0-1.69-1.36l-11.59,1.31a1.54,1.54,0,0,0-1.35,1.7h0a1.54,1.54,0,0,0,1.7,1.35Z" fill="#1d2769"/>
          <path id="Trazado_130533" data-name="Trazado 130533" d="M894.34,122.34A1.53,1.53,0,1,0,895.7,120.9a1.53,1.53,0,0,0-1.356,1.442Z" fill="#1d2769"/>
          <path id="Trazado_130534" data-name="Trazado 130534" d="M901,294.39a4.72,4.72,0,1,0,4.16-5.22,4.72,4.72,0,0,0-4.16,5.22Z" fill="#1d2769"/>
          <g id="Grupo_55992" data-name="Grupo 55992" clip-path="url(#clip-path-4)">
            <rect id="Rectángulo_30863" data-name="Rectángulo 30863" width="91.8" height="163.37" transform="translate(841.29 131.846) rotate(-6.52)" fill="#c1c9e7"/>
            <rect id="Rectángulo_30864" data-name="Rectángulo 30864" width="91.8" height="169.45" transform="translate(841.302 132.004) rotate(-6.52)" fill="#fff"/>
            <path id="Trazado_130535" data-name="Trazado 130535" d="M868.34,276.77a1.62,1.62,0,0,1-.18-3.23l69.76-8a1.61,1.61,0,0,1,1.79,1.42,1.63,1.63,0,0,1-1.43,1.8l-69.75,8Z" fill="#98a4d1"/>
            <path id="Trazado_130536" data-name="Trazado 130536" d="M869.39,285.89a1.62,1.62,0,0,1-.19-3.23l69.76-8a1.621,1.621,0,1,1,.37,3.22l-69.76,8Z" fill="#98a4d1"/>
            <rect id="Rectángulo_30865" data-name="Rectángulo 30865" width="71.83" height="43.21" transform="translate(860.504 220.727) rotate(-6.52)" fill="#fff"/>
          </g>
          <path id="Trazado_130537" data-name="Trazado 130537" d="M873.42,333c5.72.85,22.08-26.13,11.35-57.41,14.62-12.6,22-48.05,10.48-52.73-8-3.25-49.36,62.6-49,69.29C846.8,304.41,873.61,325.06,873.42,333Z" fill="#fd9b55"/>
          <path id="Trazado_130538" data-name="Trazado 130538" d="M884.69,275.78a67.9,67.9,0,0,1,4.38,15.53A48,48,0,0,1,889,307.7a37.211,37.211,0,0,1-6.59,15.11,42.319,42.319,0,0,1-12,10.89,74.563,74.563,0,0,0,9.76-12.39,43.781,43.781,0,0,0,5.4-14.31,62.609,62.609,0,0,0,.83-15.45C886.09,286.36,885.36,281.11,884.69,275.78Z" fill="#d37c3a"/>
          <path id="Trazado_130539" data-name="Trazado 130539" d="M944.4,326.21c-15.39-15.91-31.18-31.45-35.84-26.95-6.21,6,9.25,51.07,36.07,69.46C954.75,375.66,977.35,329.08,944.4,326.21Z" fill="#fd9b55"/>
          <path id="Trazado_130540" data-name="Trazado 130540" d="M944.33,222.31c-20.58,59.25-3.27,137.52,1,140.55,17,12.15,59.17,17.26,63.32,11.32,15.17-21.67,22.32-59.13,9.23-80.24-4.39-7.09-45.91-15.81-55.11-14-3.93-16.49-2.56-42.07-.66-52.72C966.29,203.59,950.06,205.8,944.33,222.31Z" fill="#fd9b55"/>
          <path id="Trazado_130541" data-name="Trazado 130541" d="M898.43,356.94c-19.13-12.49-57.78-24.17-74.82-15.2-1,1.9-.33,9.44.79,11.18l69.51,18.93C896,368.25,898.78,361.91,898.43,356.94Z" fill="#1d2769"/>
          <path id="Trazado_130542" data-name="Trazado 130542" d="M870.41,577.84c7.4-73.6,20.71-155.81,23.5-206-21.27-12.91-41.67-19-69.51-18.93C806.3,407,768.63,519.69,749,590.94,791.9,593.81,833.17,589.33,870.41,577.84Z" fill="#26aab7"/>
          <path id="Trazado_130543" data-name="Trazado 130543" d="M893.91,371.85q-3.92-2.37-7.8-4.44a743.155,743.155,0,0,1-38,131.54,767.67,767.67,0,0,1-42.52,91.44,315,315,0,0,0,64.86-12.55C877.81,504.24,891.12,422,893.91,371.85Z" fill="#0d585f"/>
          <path id="Trazado_130544" data-name="Trazado 130544" d="M941.61,353.82s14.17,62.65,14.22,72.18c14.1,3.17,38.22-7.91,44-7.46,0,0,9-51.63,13.9-66.88Z" fill="#fd9b55"/>
          <path id="Trazado_130545" data-name="Trazado 130545" d="M1010.11,385.53c-20.83-7-59.06-8.06-71.84,5-.35,2.08,2.41,9.12,3.92,10.5h68.13C1011.14,397,1011.85,390.19,1010.11,385.53Z" fill="#1d2769"/>
          <path id="Trazado_130546" data-name="Trazado 130546" d="M1048.34,604.34c-14.49-72.41-26.1-154.58-38-203.35-22.89-6.81-43-7.28-68.13,0-.77,56.51-2.36,174.22.4,247.56C982.12,640.12,1018.05,625.06,1048.34,604.34Z" fill="#26aab7"/>
          <path id="Trazado_130547" data-name="Trazado 130547" d="M1010.32,401c-2.81-.84-5.57-1.58-8.31-2.22a774.749,774.749,0,0,1,3.51,135.87,784.509,784.509,0,0,1-12.07,98.64,278.279,278.279,0,0,0,54.89-28.94C1033.85,531.93,1022.24,449.76,1010.32,401Z" fill="#0d585f"/>
          <circle id="Elipse_4310" data-name="Elipse 4310" cx="35.23" cy="35.23" r="35.23" transform="translate(858.43 146.35)" fill="#000a49"/>
          <path id="Trazado_130548" data-name="Trazado 130548" d="M903.19,175.12a17.52,17.52,0,0,0,10.23,3.27v-7.33a10.4,10.4,0,0,1-2.15-.23v5.78A17.56,17.56,0,0,1,901,173.34v15a13.56,13.56,0,0,1-21.12,11.26,13.57,13.57,0,0,0,23.27-9.48v-15Zm2.65-7.4a10.26,10.26,0,0,1-2.65-6v-.94h-2a10.28,10.28,0,0,0,4.69,6.93Zm-21.18,26.11a6.222,6.222,0,0,1,6.82-9.71v-7.5a12.8,12.8,0,0,0-2.14-.12v5.83a6.369,6.369,0,0,0-1.89-.29,6.21,6.21,0,0,0-2.79,11.75Z" fill="#ff1753" fill-rule="evenodd"/>
          <path id="Trazado_130549" data-name="Trazado 130549" d="M901,173.34a17.56,17.56,0,0,0,10.23,3.27v-5.78a10.23,10.23,0,0,1-5.43-3.11,10.28,10.28,0,0,1-4.69-6.93h-5.34v29.3a7.34,7.34,0,1,1-8.36-8,6.55,6.55,0,0,1,1.89.29v-5.83A12.7,12.7,0,1,0,901,188.31Z" fill="#fff" fill-rule="evenodd"/>
          <path id="Trazado_130550" data-name="Trazado 130550" d="M911.27,170.83v-1.56a10.22,10.22,0,0,1-5.43-1.55,10.19,10.19,0,0,0,5.43,3.11Zm-10.12-10a8.056,8.056,0,0,0-.11-.84V159h-7.38v29.3a6.21,6.21,0,0,1-9,5.52,6.21,6.21,0,0,0,11.15-3.74v-29.3Zm-11.81,15.75v-1.67a14.52,14.52,0,0,0-1.86-.12,13.56,13.56,0,0,0-7.56,24.82,13.56,13.56,0,0,1,9.42-23Z" fill="#00c9d0" fill-rule="evenodd"/>
        </g>
      </g>
    </g>
    <rect id="Rectángulo_29393" data-name="Rectángulo 29393" width="1030" height="142.58" transform="translate(285 1088)" fill="#fff"/>
  </g>
</svg>
