<svg xmlns="http://www.w3.org/2000/svg" xmlns:xlink="http://www.w3.org/1999/xlink" width="159.313" height="175.436" viewBox="0 0 159.313 175.436">
  <defs>
    <clipPath id="clip-path">
      <rect id="Rectángulo_401233" data-name="Rectángulo 401233" width="48.177" height="55.17" fill="none"/>
    </clipPath>
  </defs>
  <g id="Grupo_1099523" data-name="Grupo 1099523" transform="translate(-1144.004 -858.094)">
    <path id="_12068" data-name="12068" d="M103.949,72.366C89.64,70.39,74.525,70.874,61.5,77.128,43.447,85.8,31.588,105.464,31.133,125.491s9.978,39.705,26.1,51.6S94.6,193.2,114.312,189.632c19.875-3.6,38.53-15.279,48.9-32.614,6.648-11.116,9.755-24.842,6.082-37.264-2.217-7.5-6.75-14.14-12.082-19.858A89.263,89.263,0,0,0,103.949,72.366Z" transform="translate(1117.518 842.667)" fill="#26aab7"/>
    <g id="Grupo_1099024" data-name="Grupo 1099024" transform="translate(1093.14 1161.56) rotate(-90)">
      <path id="Trazado_873104" data-name="Trazado 873104" d="M149.557,395.548a1.582,1.582,0,1,0-.106-2.456A1.573,1.573,0,0,0,149.557,395.548Z" transform="translate(13.93 -213.31)" fill="#fff"/>
      <path id="Trazado_873105" data-name="Trazado 873105" d="M417.219,416a1.582,1.582,0,1,0-.105-2.456A1.573,1.573,0,0,0,417.219,416Z" transform="translate(-222.435 -227.035)" fill="#ffd947"/>
      <path id="Trazado_873106" data-name="Trazado 873106" d="M303.26,44.546a1.582,1.582,0,1,0-.106-2.456A1.573,1.573,0,0,0,303.26,44.546Z" transform="translate(-52.901 9.151)" fill="#7d6eb2"/>
      <path id="Trazado_873109" data-name="Trazado 873109" d="M339.452,404.413a3.448,3.448,0,1,0-1.687-4.918A3.468,3.468,0,0,0,339.452,404.413Z" transform="translate(-106.207 -220.255)" fill="#7d6eb2"/>
      <path id="Trazado_873110" data-name="Trazado 873110" d="M390.262,440.006a3.448,3.448,0,1,0-1.687-4.918A3.468,3.468,0,0,0,390.262,440.006Z" transform="translate(-181.42 -237.38)" fill="#ffd947"/>
      <path id="Trazado_873111" data-name="Trazado 873111" d="M176.115,56.142a3.448,3.448,0,1,0-1.687-4.918A3.468,3.468,0,0,0,176.115,56.142Z" transform="translate(-32.569 42.202)" fill="#ffd947"/>
      <path id="Trazado_873113" data-name="Trazado 873113" d="M321.56,66.974a3.448,3.448,0,1,0-1.687-4.918A3.468,3.468,0,0,0,321.56,66.974Z" transform="translate(-76.565 -0.895)" fill="#ffd947"/>
      <circle id="Elipse_11485" data-name="Elipse 11485" cx="1.689" cy="1.689" r="1.689" transform="translate(149.167 187.566)" fill="none" stroke="#26aab7" stroke-linecap="round" stroke-linejoin="round" stroke-width="1.5"/>
    </g>
    <g id="Grupo_1099487" data-name="Grupo 1099487" transform="translate(1162 827.533)">
      <g id="Grupo_1099479" data-name="Grupo 1099479" transform="translate(0 0.004)">
        <path id="Trazado_873612" data-name="Trazado 873612" d="M853.8,837.46c5.783-2.812,19.37,13.206,30.348,35.779s15.191,43.15,9.408,45.962-19.37-13.207-30.348-35.778-15.19-43.151-9.408-45.963" transform="translate(-775.32 -762.507)" fill="#7d6eb2" fill-rule="evenodd"/>
        <path id="Trazado_873613" data-name="Trazado 873613" d="M444.637,1417.955a30,30,0,0,0-16.823-34.587l-.008.013q-.2.8-.354,1.615a29.962,29.962,0,0,0,15.68,32.24q.733.379,1.487.718Z" transform="translate(-388.859 -1260.038)" fill="#0c4c9d" fill-rule="evenodd"/>
        <path id="Trazado_873614" data-name="Trazado 873614" d="M913.553,884.619c3.844-1.87,14.788,12.706,24.44,32.556s14.365,37.457,10.521,39.327-14.787-12.707-24.441-32.556-14.365-37.457-10.52-39.327" transform="translate(-830.887 -805.606)" fill="#62529b" fill-rule="evenodd"/>
        <path id="Trazado_873615" data-name="Trazado 873615" d="M363.566,981.131q33.314-17.556,66.736-4.614c-6.766-4.5-16.363-17.654-24.519-34.424s-12.578-32.44-11.94-40.541Q383.388,935.833,349.01,951.2Z" transform="translate(-317.895 -821.177)" fill="#fefefe" fill-rule="evenodd"/>
        <path id="Trazado_873616" data-name="Trazado 873616" d="M1087.5,1203.2c-1.2.582-.6,4.274,1.335,8.248s4.468,6.723,5.662,6.141.6-4.272-1.334-8.246-4.469-6.722-5.663-6.142" transform="translate(-989.984 -1095.865)" fill="#7d6eb2" fill-rule="evenodd"/>
        <path id="Trazado_873617" data-name="Trazado 873617" d="M1012.167,1218.381c-1.194.582-3.731-2.168-5.663-6.141s-2.531-7.666-1.335-8.247l-8.674,1.45c1.3,3.082,2.758,6.286,4.346,9.551s3.21,6.386,4.83,9.315Z" transform="translate(-907.655 -1096.655)" fill="#fefefe" fill-rule="evenodd"/>
        <path id="Trazado_873618" data-name="Trazado 873618" d="M22.872,1600.663a15.909,15.909,0,1,0-21.266-7.348,15.909,15.909,0,0,0,21.266,7.348" transform="translate(0 -1430.435)" fill="#62529b" fill-rule="evenodd"/>
        <path id="Trazado_873619" data-name="Trazado 873619" d="M237.254,1698.912l8.076-3.927a6.345,6.345,0,0,1,8.458,2.922l18.658,38.362a6.346,6.346,0,0,1-2.923,8.457l-8.076,3.927a6.344,6.344,0,0,1-8.458-2.924l-18.657-38.361a6.345,6.345,0,0,1,2.923-8.457" transform="translate(-212.862 -1543.295)" fill="#62529b" fill-rule="evenodd"/>
        <path id="Trazado_873620" data-name="Trazado 873620" d="M88.363,1383.515l-33.224,16.16a30,30,0,0,0,16.814,34.573l6.139-2.985,21.025-10.227,6.059-2.947q-.753-.339-1.487-.718a29.963,29.963,0,0,1-15.68-32.24q.155-.813.354-1.615" transform="translate(-49.416 -1260.172)" fill="#7d6eb2" fill-rule="evenodd"/>
        <path id="Trazado_873621" data-name="Trazado 873621" d="M213.236,1723.03l-10.763,5.235-3.224,1.568a29.823,29.823,0,0,0,5.337,4.667l.592-.287,3.863-1.88,15.593-7.583,1.738-.845.9-.44q-.893-.61-1.743-1.286-.577-.46-1.133-.948a29.807,29.807,0,0,1-2.46-2.433l-.312.152Z" transform="translate(-181.485 -1565.563)" fill="#62529b" fill-rule="evenodd"/>
        <path id="Trazado_873622" data-name="Trazado 873622" d="M135.279,1623.734l16.685-8.114,6.005-2.921a30.42,30.42,0,0,1-2.857-5.873l-6,2.921-16.685,8.114a30.476,30.476,0,0,0,2.856,5.873" transform="translate(-120.617 -1463.574)" fill="#62529b" fill-rule="evenodd"/>
        <path id="Trazado_873623" data-name="Trazado 873623" d="M127.134,1482.9l8.7-4.233a29.922,29.922,0,0,1-.394-3.436c-.028-.493-.042-.985-.046-1.477q-.007-1.087.064-2.168l-.9.441-17.331,8.429-4.455,2.166a29.806,29.806,0,0,0,.376,7.08Z" transform="translate(-102.659 -1340.387)" fill="#62529b" fill-rule="evenodd"/>
        <g id="Grupo_1099489" data-name="Grupo 1099489" transform="translate(94.025 30.557) rotate(11)">
          <g id="Grupo_1099488" data-name="Grupo 1099488" clip-path="url(#clip-path)">
            <path id="Trazado_873633" data-name="Trazado 873633" d="M136.246,139.56a15.839,15.839,0,1,0-27.054,11.183,17.976,17.976,0,0,1,4.654,7.99l1.277,4.723h10.383l1.21-4.474a18.018,18.018,0,0,1,4.8-8.13,15.79,15.79,0,0,0,4.735-11.294" transform="translate(-96.199 -113.819)" fill="#f4d242"/>
            <path id="Trazado_873634" data-name="Trazado 873634" d="M237.8,601.23h-5.062a2.686,2.686,0,0,1-2.743-2.4l-.427-5.187,11.465-.073-.489,5.26a2.686,2.686,0,0,1-2.743,2.4" transform="translate(-211.194 -546.059)" fill="#59595b"/>
            <path id="Trazado_873635" data-name="Trazado 873635" d="M247.033,621.826c-3.2.137-6.417-.027-9.619.114a.219.219,0,0,0,.016.437c3.2.107,6.418-.092,9.624.01.36.011.344-.577-.02-.561" transform="translate(-218.225 -572.057)" fill="#808183"/>
            <path id="Trazado_873636" data-name="Trazado 873636" d="M247.033,639.207c-3.2.137-6.417-.027-9.619.114a.219.219,0,0,0,.016.437c3.2.107,6.418-.092,9.624.01.36.011.344-.577-.02-.561" transform="translate(-218.225 -588.046)" fill="#808183"/>
            <path id="Trazado_873637" data-name="Trazado 873637" d="M290.733,1.848c0,1.021-.543,4.69-1.212,4.69s-1.212-3.669-1.212-4.69S288.852,0,289.521,0s1.212.827,1.212,1.848" transform="translate(-265.234)" fill="#f4d242"/>
            <path id="Trazado_873638" data-name="Trazado 873638" d="M474.905,86.656c-.774.665-3.2,3.468-2.767,3.976s3.573-1.472,4.347-2.137,1.048-1.616.612-2.124-1.418-.38-2.192.285" transform="translate(-434.302 -79.172)" fill="#f4d242"/>
            <path id="Trazado_873639" data-name="Trazado 873639" d="M525.612,270.195c-1.013.129-4.721.053-4.805-.612s3.487-1.665,4.5-1.793,1.9.306,1.986.97-.668,1.307-1.681,1.435" transform="translate(-479.121 -246.336)" fill="#f4d242"/>
            <path id="Trazado_873640" data-name="Trazado 873640" d="M89.518,72.163c.8.629,3.358,3.319,2.945,3.846s-3.636-1.308-4.44-1.937-1.12-1.567-.708-2.094,1.4-.444,2.2.185" transform="translate(-80.161 -65.898)" fill="#f4d242"/>
            <path id="Trazado_873641" data-name="Trazado 873641" d="M1.687,237.419c1.013.129,4.721.053,4.805-.612s-3.487-1.665-4.5-1.793-1.9.306-1.986.97.668,1.307,1.681,1.435" transform="translate(0 -216.183)" fill="#f4d242"/>
            <path id="Trazado_873642" data-name="Trazado 873642" d="M235.732,330.448a4.075,4.075,0,0,1-1.193-1.408,4.992,4.992,0,0,0,.933-2.549,15.962,15.962,0,0,0,.091-1.63,1.4,1.4,0,0,0-.506-1.3c-.4-.292-.927-.028-1.231.255a2.944,2.944,0,0,0-.657,1.307,5.863,5.863,0,0,0-.1,2.78,5.516,5.516,0,0,0,.265.938,2.438,2.438,0,0,1-.761.405,1.589,1.589,0,0,1-1.923-.959c-.066-.121-.128-.25-.187-.383.068-.182.133-.365.194-.545a11.376,11.376,0,0,0,.531-2.715c.061-.763.083-1.674-.651-2.126a.483.483,0,0,0-.649.17,5.653,5.653,0,0,0-.43,5.148,11.221,11.221,0,0,1-.652,1.3c-.269.463-.782,1.177-1.4,1.087-.58-.084-1.043-.812-1.331-1.262a5.142,5.142,0,0,1-.508-1.048q.111-.291.205-.588a10.773,10.773,0,0,0,.45-2.405c.054-.679.076-1.634-.667-1.959a.482.482,0,0,0-.65.17,6.8,6.8,0,0,0-.366,4.583c.014.052.03.1.046.156a10.068,10.068,0,0,1-1.968,3.112c-.374.405.218,1,.607.607a10.573,10.573,0,0,0,1.841-2.551,6.676,6.676,0,0,0,.481.773,2.717,2.717,0,0,0,1.967,1.348,2.488,2.488,0,0,0,1.92-1.238,6.459,6.459,0,0,0,.562-.922,2.505,2.505,0,0,0,1.76,1.251,2.9,2.9,0,0,0,2.013-.519,6.01,6.01,0,0,0,1.317,1.558.534.534,0,1,0,.65-.843m-5.456-6.606a5.942,5.942,0,0,1-.075,1.078,9.059,9.059,0,0,1-.209,1.247,4.353,4.353,0,0,1,.284-2.325m3.7,2.387a4.509,4.509,0,0,1,.265-1.153,2.373,2.373,0,0,1,.231-.477,1.024,1.024,0,0,1,.075-.092.749.749,0,0,1,.018.115,8.2,8.2,0,0,1-.328,2.914,2.875,2.875,0,0,1-.132.331,5.417,5.417,0,0,1-.129-1.637" transform="translate(-204.688 -296.643)" fill="#fff"/>
            <path id="Trazado_873643" data-name="Trazado 873643" d="M337.1,390.1c-1.684,5.14-3.457,10.255-5.362,15.318a.5.5,0,0,0,.932.372c1.9-5.071,3.661-10.187,5.242-15.366.163-.534-.636-.862-.812-.324" transform="translate(-305.15 -358.628)" fill="#fff"/>
            <path id="Trazado_873644" data-name="Trazado 873644" d="M207.563,383.486c1.344,5.24,2.6,10.505,3.716,15.8a.5.5,0,0,0,.986-.188c-1.126-5.3-2.392-10.558-3.843-15.774-.15-.538-1-.385-.859.164" transform="translate(-190.936 -352.335)" fill="#fff"/>
          </g>
        </g>
      </g>
    </g>
  </g>
</svg>
