<svg xmlns="http://www.w3.org/2000/svg" xmlns:xlink="http://www.w3.org/1999/xlink" width="91.927" height="91.927" viewBox="0 0 91.927 91.927">
  <defs>
    <radialGradient id="radial-gradient" cx="0.076" cy="0.019" r="1.465" gradientTransform="translate(0.001)" gradientUnits="objectBoundingBox">
      <stop offset="0" stop-color="#f6f6f7"/>
      <stop offset="0.477" stop-color="#f9f9fa"/>
      <stop offset="0.715" stop-color="#fff"/>
    </radialGradient>
  </defs>
  <g id="Grupo_54476" data-name="Grupo 54476" transform="translate(-217 -741.333)">
    <g id="Grupo_42274" data-name="Grupo 42274" transform="translate(142 768.333)">
      <g id="Grupo_18423" data-name="Grupo 18423" transform="translate(75 -27)">
        <g id="Grupo_18421" data-name="Grupo 18421">
          <g id="Grupo_18420" data-name="Grupo 18420">
            <g id="Grupo_18419" data-name="Grupo 18419">
              <path id="Trazado_40936" data-name="Trazado 40936" d="M286.55,2191.684a45.964,45.964,0,1,1-45.963-45.962A45.963,45.963,0,0,1,286.55,2191.684Z" transform="translate(-194.623 -2145.721)" fill="#fff"/>
            </g>
          </g>
        </g>
        <path id="Trazado_40937" data-name="Trazado 40937" d="M286.23,2191.334a45.963,45.963,0,1,0-45.963,45.965A45.782,45.782,0,0,0,286.23,2191.334Z" transform="translate(-194.303 -2145.372)" fill="url(#radial-gradient)"/>
        <path id="Trazado_40938" data-name="Trazado 40938" d="M272.56,2188.562a35.084,35.084,0,1,0-35.084,35.084A34.953,34.953,0,0,0,272.56,2188.562Z" transform="translate(-191.373 -2142.446)" fill="none" stroke="#7d6eb2" stroke-miterlimit="10" stroke-width="4"/>
        <g id="Grupo_18422" data-name="Grupo 18422" transform="translate(8.143 25.805)">
          <path id="Trazado_40939" data-name="Trazado 40939" d="M279.682,2164.488a45.969,45.969,0,0,1-79.137,45.773,45.823,45.823,0,0,0,79.137-45.773Z" transform="translate(-200.545 -2164.488)" fill="#eceef0"/>
        </g>
      </g>
    </g>
    <g id="Grupo_42970" data-name="Grupo 42970" transform="translate(242.519 763.589)">
      <g id="Grupo_26570" data-name="Grupo 26570" transform="translate(0 0)">
        <g id="Grupo_26568" data-name="Grupo 26568">
          <g id="Grupo_26567" data-name="Grupo 26567">
            <g id="Grupo_26566" data-name="Grupo 26566">
              <g id="Grupo_26564" data-name="Grupo 26564">
                <path id="Trazado_67407" data-name="Trazado 67407" d="M2768.01,1894.388a1.414,1.414,0,0,1-.872-.281,45.443,45.443,0,0,1-4.307-3.974,53.639,53.639,0,0,1-5.944-7.382,46.791,46.791,0,0,1-5.277-10.491,41.542,41.542,0,0,1-1.667-6.316,40.166,40.166,0,0,1-.636-6.981.744.744,0,0,1,.262-.549,1.321,1.321,0,0,1,.668-.306,58.07,58.07,0,0,0,7.725-1.948,33,33,0,0,0,9.484-4.526,1,1,0,0,1,1.128,0,33.005,33.005,0,0,0,9.483,4.526,58.044,58.044,0,0,0,7.726,1.948,1.317,1.317,0,0,1,.668.306.746.746,0,0,1,.263.549,40.285,40.285,0,0,1-.636,6.981,41.574,41.574,0,0,1-1.668,6.316,46.82,46.82,0,0,1-5.276,10.491,53.659,53.659,0,0,1-5.944,7.382,45.43,45.43,0,0,1-4.308,3.974A1.413,1.413,0,0,1,2768.01,1894.388Z" transform="translate(-2748.816 -1850.98)" fill="none"/>
                <path id="Trazado_67408" data-name="Trazado 67408" d="M2766.4,1893.292a1.911,1.911,0,0,1-1.176-.387,46.149,46.149,0,0,1-4.355-4.018,53.992,53.992,0,0,1-6-7.45,47.233,47.233,0,0,1-5.332-10.6,42.122,42.122,0,0,1-1.688-6.391,40.78,40.78,0,0,1-.643-7.066,1.225,1.225,0,0,1,.421-.912,1.806,1.806,0,0,1,.918-.426,57.636,57.636,0,0,0,7.654-1.931,32.55,32.55,0,0,0,9.342-4.453,1.529,1.529,0,0,1,1.715,0,32.563,32.563,0,0,0,9.342,4.453,57.62,57.62,0,0,0,7.654,1.931,1.8,1.8,0,0,1,.917.426,1.227,1.227,0,0,1,.423.912,40.681,40.681,0,0,1-.645,7.066,42,42,0,0,1-1.687,6.391,47.29,47.29,0,0,1-5.332,10.6,54.115,54.115,0,0,1-6,7.45,46.236,46.236,0,0,1-4.355,4.018A1.913,1.913,0,0,1,2766.4,1893.292Zm0-42.928a.459.459,0,0,0-.271.076,33.5,33.5,0,0,1-9.626,4.6,58.639,58.639,0,0,1-7.8,1.966.84.84,0,0,0-.419.184.276.276,0,0,0-.1.186,39.734,39.734,0,0,0,.629,6.9,40.891,40.891,0,0,0,1.648,6.242,46.3,46.3,0,0,0,5.222,10.381,53.062,53.062,0,0,0,5.89,7.315,45.171,45.171,0,0,0,4.26,3.931,1.066,1.066,0,0,0,1.134,0,45.1,45.1,0,0,0,4.261-3.931,53.1,53.1,0,0,0,5.889-7.315,46.286,46.286,0,0,0,5.222-10.381,41,41,0,0,0,1.648-6.242,39.633,39.633,0,0,0,.628-6.9.271.271,0,0,0-.1-.186.838.838,0,0,0-.418-.184,58.6,58.6,0,0,1-7.8-1.966,33.513,33.513,0,0,1-9.626-4.6A.457.457,0,0,0,2766.4,1850.364Z" transform="translate(-2747.203 -1849.395)" fill="#00223d"/>
              </g>
              <g id="Grupo_26565" data-name="Grupo 26565" transform="translate(2.877 3.227)">
                <path id="Trazado_67409" data-name="Trazado 67409" d="M2777.507,1901.833c-.795-.683-1.886-1.679-3.137-2.98a50.73,50.73,0,0,1-5.629-6.991,43.929,43.929,0,0,1-4.959-9.853,38.786,38.786,0,0,1-1.554-5.885,37.334,37.334,0,0,1-.548-4.816,64.882,64.882,0,0,0,6.655-1.77,38.8,38.8,0,0,0,9.172-4.159,38.843,38.843,0,0,0,9.172,4.159,64.841,64.841,0,0,0,6.656,1.77,37.261,37.261,0,0,1-.548,4.816,38.612,38.612,0,0,1-1.554,5.885,43.949,43.949,0,0,1-4.959,9.853,50.652,50.652,0,0,1-5.629,6.99C2779.393,1900.154,2778.3,1901.15,2777.507,1901.833Z" transform="translate(-2761.191 -1864.891)" fill="#fff"/>
                <path id="Trazado_67410" data-name="Trazado 67410" d="M2775.894,1900.709a.485.485,0,0,1-.318-.119c-1.049-.9-2.115-1.915-3.171-3.012a51.244,51.244,0,0,1-5.684-7.058,44.441,44.441,0,0,1-5.014-9.963,39.288,39.288,0,0,1-1.574-5.959,38.041,38.041,0,0,1-.555-4.879.487.487,0,0,1,.389-.5,64.161,64.161,0,0,0,6.6-1.756,38.4,38.4,0,0,0,9.056-4.1.491.491,0,0,1,.535,0,38.386,38.386,0,0,0,9.056,4.1,63.963,63.963,0,0,0,6.6,1.755.488.488,0,0,1,.388.5,37.845,37.845,0,0,1-.555,4.879,39.284,39.284,0,0,1-1.573,5.959,44.464,44.464,0,0,1-5.014,9.963,51.283,51.283,0,0,1-5.683,7.058c-1.058,1.1-2.125,2.112-3.172,3.012A.486.486,0,0,1,2775.894,1900.709Zm-15.317-30.622a36.925,36.925,0,0,0,.519,4.338,38.249,38.249,0,0,0,1.534,5.809,43.476,43.476,0,0,0,4.9,9.743,50.205,50.205,0,0,0,5.575,6.924c.927.964,1.862,1.861,2.785,2.671.921-.809,1.857-1.706,2.785-2.671a50.248,50.248,0,0,0,5.575-6.923,43.452,43.452,0,0,0,4.9-9.743,38.251,38.251,0,0,0,1.535-5.809,36.793,36.793,0,0,0,.518-4.338c-1.355-.292-3.68-.846-6.3-1.7a40.037,40.037,0,0,1-9.021-4.042,40.047,40.047,0,0,1-9.021,4.042C2764.256,1869.241,2761.932,1869.795,2760.577,1870.087Z" transform="translate(-2759.577 -1863.277)" fill="#00223d"/>
              </g>
            </g>
          </g>
        </g>
        <g id="Grupo_26569" data-name="Grupo 26569" transform="translate(10.858 14.1)">
          <path id="Trazado_67411" data-name="Trazado 67411" d="M2802.162,1924.373a1.965,1.965,0,0,1-1.395-.578l-4.179-4.179a1.973,1.973,0,0,1,2.79-2.79l2.783,2.784,6.239-6.9a1.972,1.972,0,1,1,2.79,2.789l-7.634,8.293A1.965,1.965,0,0,1,2802.162,1924.373Z" transform="translate(-2795.522 -1911.65)" fill="none"/>
          <path id="Trazado_67412" data-name="Trazado 67412" d="M2800.548,1923.259a2.445,2.445,0,0,1-1.741-.721l-4.179-4.179a2.461,2.461,0,1,1,3.481-3.48l2.421,2.42,5.894-6.517a2.469,2.469,0,0,1,3.5-.018,2.462,2.462,0,0,1,0,3.481l-7.62,8.278A2.455,2.455,0,0,1,2800.548,1923.259Zm-4.179-8.124a1.484,1.484,0,0,0-1.049,2.533l4.178,4.178a1.484,1.484,0,0,0,2.1,0l7.62-8.278a1.49,1.49,0,0,0,.449-1.064,1.484,1.484,0,0,0-2.533-1.049l-6.223,6.88a.488.488,0,0,1-.708.018l-2.783-2.784A1.473,1.473,0,0,0,2796.369,1915.135Z" transform="translate(-2793.908 -1910.047)" fill="#00223d"/>
        </g>
      </g>
      <g id="Grupo_26575" data-name="Grupo 26575" transform="translate(24.976 2.643)">
        <g id="Grupo_26571" data-name="Grupo 26571" transform="translate(1.546 7.379)">
          <path id="Trazado_67413" data-name="Trazado 67413" d="M2864.382,1909.614s.046.841.09,1.1l-1.081,20.591a2.165,2.165,0,0,0,2.042,2.282c.041,0,.082,0,.122,0a2.164,2.164,0,0,0,2.16-2.044l.857-16.839a4.854,4.854,0,0,0,.625.045,4.77,4.77,0,0,0,.712-.059l.848,16.638a2.165,2.165,0,0,0,2.159,2.044c.041,0,.081,0,.123,0a2.166,2.166,0,0,0,2.041-2.281c-.05-.817-.91-14.266-1.2-20.122l.062-.959.037-13.206h-3.326c-1.108-3.4-1.79-2.417-2.433,0H2864.9l-.294,11.433-.219,1.378Z" transform="translate(-2862.899 -1894.118)" fill="#fff"/>
          <path id="Trazado_67414" data-name="Trazado 67414" d="M2863.941,1932.465c-.049,0-.1,0-.147,0a2.657,2.657,0,0,1-2.5-2.8l1.078-20.54c-.043-.316-.083-1.013-.087-1.1a.525.525,0,0,1,.005-.1l.214-1.346.294-11.4a.488.488,0,0,1,.488-.476h2.952c.384-1.35.788-2.176,1.49-2.2.628-.018,1.12.624,1.666,2.2h2.975a.489.489,0,0,1,.489.49l-.038,13.206-.061.961c.119,2.424.418,7.774,1.16,19.512l.036.576a2.611,2.611,0,0,1-.663,1.91,2.639,2.639,0,0,1-1.838.89c-.052,0-.1,0-.15,0a2.653,2.653,0,0,1-2.647-2.506l-.821-16.124c-.141.008-.274.009-.413,0l-.831,16.334A2.654,2.654,0,0,1,2863.941,1932.465Zm-.682-24.44c.019.321.054.834.081.995a.483.483,0,0,1,.006.106l-1.08,20.591a1.678,1.678,0,0,0,1.58,1.768l.095,0a1.676,1.676,0,0,0,1.671-1.583l.857-16.837a.492.492,0,0,1,.175-.351.486.486,0,0,1,.376-.109,3.788,3.788,0,0,0,1.2-.012.488.488,0,0,1,.56.458l.848,16.637a1.675,1.675,0,0,0,2.928,1.014,1.643,1.643,0,0,0,.419-1.2l-.036-.575c-.746-11.788-1.044-17.139-1.163-19.553a.382.382,0,0,1,0-.055l.062-.959.035-12.685h-2.836a.489.489,0,0,1-.464-.337,5.242,5.242,0,0,0-.821-1.815,5.37,5.37,0,0,0-.675,1.789.489.489,0,0,1-.472.363h-2.849l-.282,10.957a.519.519,0,0,1-.006.064Z" transform="translate(-2861.286 -1892.504)" fill="#00223d"/>
        </g>
        <g id="Grupo_26572" data-name="Grupo 26572" transform="translate(3.067 0)">
          <circle id="Elipse_2822" data-name="Elipse 2822" cx="3.547" cy="3.547" r="3.547" transform="translate(0 5.016) rotate(-45)" fill="#fff"/>
          <path id="Trazado_67415" data-name="Trazado 67415" d="M2876.08,1873.051a4.036,4.036,0,1,1,4.035-4.036A4.04,4.04,0,0,1,2876.08,1873.051Zm0-7.094a3.058,3.058,0,1,0,3.058,3.058A3.062,3.062,0,0,0,2876.08,1865.957Z" transform="translate(-2871.063 -1863.999)" fill="#00223d"/>
        </g>
        <g id="Grupo_26573" data-name="Grupo 26573" transform="translate(2.885 9.474)">
          <path id="Trazado_67416" data-name="Trazado 67416" d="M2873.961,1903.619s2.808,0,2.857,0c2.076.1,4.59,0,4.586,3.866,0,.138-.013,6.273-.017,7.633a1.814,1.814,0,0,1-1.248,1.823,2.87,2.87,0,0,1-1.6.094l-7.942-1.957-.019,0a2.01,2.01,0,0,1-1.422-2.135,3.668,3.668,0,0,1,.167-.908,2.422,2.422,0,0,1,1.53-1.471,1.986,1.986,0,0,1,1.244.135l5.123,2.223c.552.135.464-.351.545-.8a3.389,3.389,0,0,0,.04-.818l-.256-3.215Z" transform="translate(-2868.656 -1903.129)" fill="#fff"/>
          <path id="Trazado_67417" data-name="Trazado 67417" d="M2877.584,1915.982a3.686,3.686,0,0,1-.763-.081l-7.936-1.955a2.5,2.5,0,0,1-1.833-2.661,3.951,3.951,0,0,1,.2-1.037,2.891,2.891,0,0,1,1.874-1.774,2.456,2.456,0,0,1,1.552.162l4.946,2.146c0-.021,0-.042.006-.061.01-.1.021-.2.039-.3a2.889,2.889,0,0,0,.032-.7l-.256-3.207a.489.489,0,1,1,.975-.078l.256,3.216a3.864,3.864,0,0,1-.046.944c-.014.076-.021.153-.03.228a1.087,1.087,0,0,1-.373.858.874.874,0,0,1-.739.1.493.493,0,0,1-.079-.026l-5.122-2.223a1.511,1.511,0,0,0-.937-.108,1.928,1.928,0,0,0-1.184,1.162,3.29,3.29,0,0,0-.14.784c-.057.654.394,1.525,1,1.609l.07.012,7.943,1.957a2.363,2.363,0,0,0,1.314-.077,1.316,1.316,0,0,0,.933-1.34l.011-4.94c0-1.453.006-2.659.006-2.72,0-3.2-1.76-3.278-3.8-3.364l-.318-.013c-.079,0-1.74,0-2.834,0a.489.489,0,1,1,0-.977c2.819,0,2.866,0,2.88,0l.313.014c2,.084,4.744.2,4.739,4.341,0,.061,0,1.268-.006,2.721l-.011,4.912a2.3,2.3,0,0,1-1.566,2.28A3.16,3.16,0,0,1,2877.584,1915.982Z" transform="translate(-2867.043 -1901.515)" fill="#00223d"/>
        </g>
        <g id="Grupo_26574" data-name="Grupo 26574" transform="translate(0 9.475)">
          <path id="Trazado_67418" data-name="Trazado 67418" d="M2860.539,1908.089l-.433,4.128c-.017.44-.018.885.773.81l5.7-1.011c.978-.073,2.163,0,2.382,1.226a6.172,6.172,0,0,1,.048.936c0,.974-.931,1.508-1.954,1.631l-8.292.8c-.552-.005-1.079.059-1.461-.34a1.944,1.944,0,0,1-.564-1.489s.075-7.452.089-7.6c.273-2.937,2.137-3.554,4.267-3.554l.148,0,3.2,0Z" transform="translate(-2856.249 -1903.133)" fill="#fff"/>
          <path id="Trazado_67419" data-name="Trazado 67419" d="M2856.8,1915.486a1.873,1.873,0,0,1-1.467-.492,2.419,2.419,0,0,1-.7-1.827c.022-2.251.077-7.493.091-7.649.332-3.584,2.872-4,4.753-4l.163,0,3.182,0a.489.489,0,0,1,0,.978l-3.192,0a.117.117,0,0,0-.023,0l-.131,0c-2.48,0-3.575.9-3.78,3.111-.01.2-.057,4.638-.088,7.565a1.459,1.459,0,0,0,.43,1.146c.176.185.438.193.886.189h.2l8.266-.8c.244-.03,1.513-.229,1.513-1.145a6.433,6.433,0,0,0-.04-.85c-.088-.491-.373-.931-1.84-.827l-5.674,1.007-.04.005a1.224,1.224,0,0,1-1.006-.263,1.3,1.3,0,0,1-.3-1.053c0-.011,0-.021,0-.032l.433-4.128a.489.489,0,0,1,.972.1l-.432,4.112a1.571,1.571,0,0,0,.007.285.753.753,0,0,0,.214.006l5.678-1.007.049-.006c1.708-.127,2.683.42,2.9,1.628a6.542,6.542,0,0,1,.055,1.022c0,1.111-.936,1.942-2.384,2.117l-8.3.8a.439.439,0,0,1-.052,0h-.343Z" transform="translate(-2854.635 -1901.52)" fill="#00223d"/>
        </g>
      </g>
    </g>
  </g>
</svg>
