<svg xmlns="http://www.w3.org/2000/svg" xmlns:xlink="http://www.w3.org/1999/xlink" width="91.927" height="91.927" viewBox="0 0 91.927 91.927">
  <defs>
    <radialGradient id="radial-gradient" cx="0.076" cy="0.019" r="1.465" gradientTransform="translate(0.001)" gradientUnits="objectBoundingBox">
      <stop offset="0" stop-color="#f6f6f7"/>
      <stop offset="0.477" stop-color="#f9f9fa"/>
      <stop offset="0.715" stop-color="#fff"/>
    </radialGradient>
  </defs>
  <g id="Grupo_54470" data-name="Grupo 54470" transform="translate(-217 -741.333)">
    <g id="Grupo_42274" data-name="Grupo 42274" transform="translate(142 768.333)">
      <g id="Grupo_18423" data-name="Grupo 18423" transform="translate(75 -27)">
        <g id="Grupo_18421" data-name="Grupo 18421">
          <g id="Grupo_18420" data-name="Grupo 18420">
            <g id="Grupo_18419" data-name="Grupo 18419">
              <path id="Trazado_40936" data-name="Trazado 40936" d="M286.55,2191.684a45.964,45.964,0,1,1-45.963-45.962A45.963,45.963,0,0,1,286.55,2191.684Z" transform="translate(-194.623 -2145.721)" fill="#fff"/>
            </g>
          </g>
        </g>
        <path id="Trazado_40937" data-name="Trazado 40937" d="M286.23,2191.334a45.963,45.963,0,1,0-45.963,45.965A45.782,45.782,0,0,0,286.23,2191.334Z" transform="translate(-194.303 -2145.372)" fill="url(#radial-gradient)"/>
        <path id="Trazado_40938" data-name="Trazado 40938" d="M272.56,2188.562a35.084,35.084,0,1,0-35.084,35.084A34.953,34.953,0,0,0,272.56,2188.562Z" transform="translate(-191.373 -2142.446)" fill="none" stroke="#7d6eb2" stroke-miterlimit="10" stroke-width="4"/>
        <g id="Grupo_18422" data-name="Grupo 18422" transform="translate(8.143 25.805)">
          <path id="Trazado_40939" data-name="Trazado 40939" d="M279.682,2164.488a45.969,45.969,0,0,1-79.137,45.773,45.823,45.823,0,0,0,79.137-45.773Z" transform="translate(-200.545 -2164.488)" fill="#eceef0"/>
        </g>
      </g>
    </g>
    <g id="Grupo_54478" data-name="Grupo 54478" transform="translate(7.888 634.926)">
      <path id="Trazado_116931" data-name="Trazado 116931" d="M290.269,181.7c6.519.273,11.494,3.171,14.49,9.019A14.391,14.391,0,0,1,305.8,201.9a15.507,15.507,0,0,1-1.826,3.553,25.413,25.413,0,0,1-2.289,2.874,10.112,10.112,0,0,0-2.457,6.315,10.777,10.777,0,0,1-8.59,10.3,6.919,6.919,0,0,1-1.734.157,3.352,3.352,0,0,1-1.424-.4,1.532,1.532,0,0,1,.107-2.789,10.024,10.024,0,0,1,2.2-.6,6.926,6.926,0,0,0,5.765-6.232c.066-.558.126-1.119.155-1.68.151-3,1.619-5.415,3.436-7.672.767-.953,1.518-1.918,2.288-2.867a7.774,7.774,0,0,0,1.591-5.714,12.928,12.928,0,0,0-5.271-9.575,12.481,12.481,0,0,0-9.066-2.3,12.653,12.653,0,0,0-11.129,11.712,6.178,6.178,0,0,1-.3,1.526,1.533,1.533,0,0,1-1.864,1.036A1.739,1.739,0,0,1,274,197.8a19.084,19.084,0,0,1,2.437-8.487,15.3,15.3,0,0,1,6.336-5.755A15.862,15.862,0,0,1,290.269,181.7Z" transform="translate(-36.274 -46.821)" fill="#12263f"/>
      <path id="Trazado_116932" data-name="Trazado 116932" d="M346.015,243.922a1.692,1.692,0,0,1-.887,1.828,1.443,1.443,0,0,1-2.234-.847,4.911,4.911,0,0,1-.2-1.123c-.093-2.806-3.206-5.648-6.01-5.823a6.235,6.235,0,0,0-6.844,5.853,4.952,4.952,0,0,1-.183,1,1.619,1.619,0,0,1-1.609,1.284,1.751,1.751,0,0,1-1.574-1.353,6.693,6.693,0,0,1-.021-2.552,9.917,9.917,0,0,1,19.51.828C346,243.319,346,243.621,346.015,243.922Z" transform="translate(-82.298 -93.159)" fill="#12263f"/>
      <path id="Trazado_116933" data-name="Trazado 116933" d="M520.647,143.871l-2.681-.412c.183-7.035-3.716-10.657-10.144-12.323l.411-2.679C515.562,129.311,521.924,136.206,520.647,143.871Z" transform="translate(-241.897)" fill="#12263f"/>
      <path id="Trazado_116934" data-name="Trazado 116934" d="M303.746,376.293l-2.4,2.247-7.935-8.5,2.4-2.249Z" transform="translate(-53.339 -210.467)" fill="#12263f"/>
      <path id="Trazado_116935" data-name="Trazado 116935" d="M513.441,182.383l-2.877-.285a6.886,6.886,0,0,0-1.218-4.586,5.75,5.75,0,0,0-4.039-2.413c.09-.953.18-1.9.269-2.837C509.8,172.346,514.077,176.858,513.441,182.383Z" transform="translate(-239.684 -38.521)" fill="#12263f"/>
      <path id="Trazado_116936" data-name="Trazado 116936" d="M281.1,444.07a1.759,1.759,0,0,1-1.711,1.751,1.728,1.728,0,0,1-.047-3.455A1.757,1.757,0,0,1,281.1,444.07Z" transform="translate(-39.474 -276.052)" fill="#12263f"/>
      <path id="Trazado_116937" data-name="Trazado 116937" d="M236.206,482.037a1.727,1.727,0,0,1-3.453-.059,1.752,1.752,0,0,1,1.759-1.7A1.73,1.73,0,0,1,236.206,482.037Z" transform="translate(0 -309.394)" fill="#12263f"/>
      <path id="Trazado_116938" data-name="Trazado 116938" d="M367.258,364.715a1.759,1.759,0,0,1-1.731,1.733,1.781,1.781,0,0,1-1.735-1.739,1.76,1.76,0,0,1,1.741-1.725A1.743,1.743,0,0,1,367.258,364.715Z" transform="translate(-115.236 -206.243)" fill="#12263f"/>
      <path id="Trazado_116939" data-name="Trazado 116939" d="M408.494,327.228c-.952.146-1.673-.944-1.685-1.673a1.725,1.725,0,0,1,1.759-1.749,1.773,1.773,0,0,1,1.728,1.719A1.747,1.747,0,0,1,408.494,327.228Z" transform="translate(-153.065 -171.789)" fill="#12263f"/>
    </g>
  </g>
</svg>
