<svg xmlns="http://www.w3.org/2000/svg" xmlns:xlink="http://www.w3.org/1999/xlink" width="603.682" height="427.248" viewBox="0 0 603.682 427.248">
  <defs>
    <linearGradient id="linear-gradient" x1="0.73" y1="0.154" x2="-0.438" y2="1.929" gradientUnits="objectBoundingBox">
      <stop offset="0" stop-color="#aa80f9"/>
      <stop offset="1" stop-color="#6165d7"/>
    </linearGradient>
    <linearGradient id="linear-gradient-2" x1="0" y1="0.5" x2="1" y2="0.5" xlink:href="#linear-gradient"/>
    <linearGradient id="linear-gradient-3" y1="0.5" x2="1" y2="0.5" gradientUnits="objectBoundingBox">
      <stop offset="0" stop-color="#ff9085"/>
      <stop offset="1" stop-color="#fb6fbb"/>
    </linearGradient>
    <linearGradient id="linear-gradient-6" x1="0.5" y1="0.245" x2="0.5" y2="0.788" gradientUnits="objectBoundingBox">
      <stop offset="0.49" stop-color="#ebeff2"/>
      <stop offset="1" stop-color="#fff"/>
    </linearGradient>
    <linearGradient id="linear-gradient-7" x1="1.055" y1="0.186" x2="-0.055" y2="0.814" gradientUnits="objectBoundingBox">
      <stop offset="0" stop-color="#e38ddd"/>
      <stop offset="1" stop-color="#9571f6"/>
    </linearGradient>
    <clipPath id="clip-path">
      <path id="Trazado_100542" data-name="Trazado 100542" d="M1511.814,583.47c-3.576,0-7.091-1.5-10.446-4.459-3.412-3-6.5-7.368-9.177-12.949-5.625-11.719-8.72-27.381-8.72-44.042s3.1-32.323,8.72-44.052a40.236,40.236,0,0,1,9.177-12.949c3.355-2.959,6.871-4.459,10.446-4.459s7.091,1.5,10.447,4.459c3.412,3,6.5,7.368,9.177,12.949,5.625,11.729,8.72,27.374,8.72,44.052s-3.1,32.323-8.72,44.049a40.241,40.241,0,0,1-9.177,12.949C1518.905,581.97,1515.389,583.47,1511.814,583.47Z" transform="translate(-1483.47 -460.56)" fill="none"/>
    </clipPath>
    <linearGradient id="linear-gradient-8" x1="0.418" y1="0.074" x2="0.809" y2="2.101" gradientUnits="objectBoundingBox">
      <stop offset="0" stop-color="#444b8c"/>
      <stop offset="1" stop-color="#26264f"/>
    </linearGradient>
    <linearGradient id="linear-gradient-9" x1="0.419" y1="0.069" x2="0.807" y2="2.121" xlink:href="#linear-gradient-7"/>
    <linearGradient id="linear-gradient-10" x1="0.781" y1="0.33" x2="-0.102" y2="0.987" gradientUnits="objectBoundingBox">
      <stop offset="0" stop-color="#ffc444"/>
      <stop offset="1" stop-color="#f36f56"/>
    </linearGradient>
    <linearGradient id="linear-gradient-11" x1="0.416" y1="0.207" x2="0.656" y2="0.651" xlink:href="#linear-gradient-10"/>
    <linearGradient id="linear-gradient-12" x1="0.388" y1="0.062" x2="1.186" y2="3.329" xlink:href="#linear-gradient-10"/>
    <linearGradient id="linear-gradient-13" x1="0.041" y1="-0.379" x2="0.879" y2="1.572" xlink:href="#linear-gradient-10"/>
    <linearGradient id="linear-gradient-14" x1="-15.404" y1="0.5" x2="-14.404" y2="0.5" gradientUnits="objectBoundingBox">
      <stop offset="0" stop-color="#311944"/>
      <stop offset="1" stop-color="#893976"/>
    </linearGradient>
    <linearGradient id="linear-gradient-15" x1="-15.436" y1="0.129" x2="-14.715" y2="0.732" xlink:href="#linear-gradient-14"/>
    <linearGradient id="linear-gradient-16" x1="-15.152" y1="0.047" x2="-14.432" y2="0.677" xlink:href="#linear-gradient-14"/>
    <linearGradient id="linear-gradient-17" x1="-28.131" y1="-49.975" x2="-27.191" y2="-48.596" xlink:href="#linear-gradient-7"/>
    <linearGradient id="linear-gradient-18" x1="-56.519" y1="-1.337" x2="-55.976" y2="1.11" xlink:href="#linear-gradient-7"/>
    <linearGradient id="linear-gradient-19" x1="-70.02" y1="0.292" x2="-70.767" y2="1.156" xlink:href="#linear-gradient-10"/>
    <linearGradient id="linear-gradient-20" x1="-478.71" y1="-147.373" x2="-482.144" y2="-141.699" xlink:href="#linear-gradient-10"/>
    <linearGradient id="linear-gradient-21" x1="0.018" y1="-1.017" x2="0.749" y2="1.219" xlink:href="#linear-gradient-8"/>
    <linearGradient id="linear-gradient-22" x1="0.052" y1="-0.577" x2="0.546" y2="0.805" xlink:href="#linear-gradient-7"/>
    <linearGradient id="linear-gradient-23" x1="0.564" y1="-0.758" x2="0.27" y2="4.636" xlink:href="#linear-gradient-8"/>
    <linearGradient id="linear-gradient-24" x1="0.736" y1="0.025" x2="-0.589" y2="2.687" xlink:href="#linear-gradient-8"/>
    <linearGradient id="linear-gradient-25" x1="0.503" y1="-5.062" x2="0.494" y2="10.94" xlink:href="#linear-gradient-10"/>
    <linearGradient id="linear-gradient-26" x1="-0.003" y1="-0.019" x2="1.068" y2="1.5" xlink:href="#linear-gradient-10"/>
    <linearGradient id="linear-gradient-27" x1="-111.357" y1="19.637" x2="-110.365" y2="19.637" xlink:href="#linear-gradient-8"/>
    <linearGradient id="linear-gradient-28" x1="-416.984" y1="9.641" x2="-415.678" y2="7.839" xlink:href="#linear-gradient-10"/>
    <linearGradient id="linear-gradient-29" x1="-116.4" y1="32.39" x2="-115.434" y2="32.39" xlink:href="#linear-gradient-8"/>
    <linearGradient id="linear-gradient-30" x1="-327.68" y1="20.006" x2="-326.621" y2="18.114" xlink:href="#linear-gradient-10"/>
    <linearGradient id="linear-gradient-31" x1="8.234" y1="0.086" x2="7.306" y2="-0.577" xlink:href="#linear-gradient-14"/>
    <linearGradient id="linear-gradient-32" x1="9.213" y1="0.092" x2="8.156" y2="-0.582" xlink:href="#linear-gradient-14"/>
    <linearGradient id="linear-gradient-33" x1="1.35" y1="1.322" x2="0.257" y2="0.671" xlink:href="#linear-gradient-14"/>
    <linearGradient id="linear-gradient-34" x1="-0.319" y1="2.288" x2="0.754" y2="0.139" xlink:href="#linear-gradient-7"/>
    <linearGradient id="linear-gradient-35" x1="19.978" y1="-34.525" x2="20.034" y2="-36.295" xlink:href="#linear-gradient-10"/>
    <linearGradient id="linear-gradient-36" x1="-153.707" y1="-11.846" x2="-154.384" y2="-13.395" gradientUnits="objectBoundingBox">
      <stop offset="0" stop-color="#311944"/>
      <stop offset="1" stop-color="#6b3976"/>
    </linearGradient>
    <linearGradient id="linear-gradient-37" x1="-18.158" y1="-13.601" x2="-18.193" y2="-10.442" xlink:href="#linear-gradient-10"/>
    <linearGradient id="linear-gradient-38" x1="-182.4" y1="-16.743" x2="-183.203" y2="-18.87" xlink:href="#linear-gradient-36"/>
    <linearGradient id="linear-gradient-39" x1="-809.39" y1="-228.139" x2="-809.206" y2="-223.379" xlink:href="#linear-gradient-10"/>
    <linearGradient id="linear-gradient-40" x1="0.425" y1="0.122" x2="0.585" y2="1.149" xlink:href="#linear-gradient-10"/>
    <linearGradient id="linear-gradient-41" x1="0.317" y1="0.831" x2="1.122" y2="-0.839" xlink:href="#linear-gradient-7"/>
    <linearGradient id="linear-gradient-42" x1="29.451" y1="-2.572" x2="29.618" y2="2.839" gradientUnits="objectBoundingBox">
      <stop offset="0" stop-color="#26264f"/>
      <stop offset="1" stop-color="#444b8c"/>
    </linearGradient>
    <linearGradient id="linear-gradient-43" x1="-65.851" y1="-42.944" x2="-65.966" y2="-49.446" xlink:href="#linear-gradient-10"/>
    <linearGradient id="linear-gradient-44" x1="29.449" y1="-2.569" x2="29.615" y2="2.836" xlink:href="#linear-gradient-42"/>
    <linearGradient id="linear-gradient-45" x1="-65.83" y1="-41.997" x2="-65.945" y2="-48.496" xlink:href="#linear-gradient-10"/>
    <linearGradient id="linear-gradient-46" x1="0.74" y1="-0.103" x2="0.57" y2="0.191" gradientUnits="objectBoundingBox">
      <stop offset="0" stop-color="#893976"/>
      <stop offset="1" stop-color="#311944"/>
    </linearGradient>
    <linearGradient id="linear-gradient-47" x1="0" y1="0.5" x2="1" y2="0.5" xlink:href="#linear-gradient-46"/>
    <linearGradient id="linear-gradient-48" x1="0.521" y1="0.066" x2="0.461" y2="1.189" xlink:href="#linear-gradient-10"/>
    <linearGradient id="linear-gradient-49" x1="96.961" y1="-20.177" x2="98.142" y2="-18.629" xlink:href="#linear-gradient-10"/>
    <linearGradient id="linear-gradient-50" x1="1048.716" y1="-164.414" x2="1063.02" y2="-150.592" xlink:href="#linear-gradient-10"/>
    <linearGradient id="linear-gradient-51" x1="-0.124" y1="0.253" x2="0.63" y2="0.79" xlink:href="#linear-gradient-3"/>
    <linearGradient id="linear-gradient-52" x1="0" y1="0.5" x2="1" y2="0.5" xlink:href="#linear-gradient-6"/>
    <linearGradient id="linear-gradient-53" x1="-5.552" y1="0.5" x2="-4.551" y2="0.5" xlink:href="#linear-gradient"/>
    <linearGradient id="linear-gradient-54" x1="-41.899" y1="0.5" x2="-40.899" y2="0.5" xlink:href="#linear-gradient"/>
    <linearGradient id="linear-gradient-55" x1="-2.639" y1="1.084" x2="-2.793" y2="0.837" xlink:href="#linear-gradient-8"/>
    <linearGradient id="linear-gradient-58" x1="0.624" y1="0.168" x2="-0.064" y2="1.411" xlink:href="#linear-gradient-10"/>
    <linearGradient id="linear-gradient-59" x1="265.139" y1="94.002" x2="266.188" y2="95.451" xlink:href="#linear-gradient-8"/>
    <linearGradient id="linear-gradient-60" x1="377.271" y1="27.158" x2="377.271" y2="25.741" xlink:href="#linear-gradient-10"/>
    <linearGradient id="linear-gradient-61" x1="336.086" y1="115.539" x2="337.418" y2="117.327" xlink:href="#linear-gradient-8"/>
    <linearGradient id="linear-gradient-62" x1="308.203" y1="-0.511" x2="309.297" y2="0.786" xlink:href="#linear-gradient-8"/>
    <linearGradient id="linear-gradient-63" x1="326.721" y1="-26.93" x2="326.721" y2="-28.294" xlink:href="#linear-gradient-10"/>
    <linearGradient id="linear-gradient-64" x1="382.149" y1="-1.298" x2="383.508" y2="0.478" xlink:href="#linear-gradient-8"/>
    <linearGradient id="linear-gradient-65" x1="0.526" y1="0.526" x2="0.225" y2="-0.06" xlink:href="#linear-gradient-3"/>
    <linearGradient id="linear-gradient-66" x1="97.437" y1="-18.632" x2="98.618" y2="-17.084" xlink:href="#linear-gradient-10"/>
    <linearGradient id="linear-gradient-67" x1="1053.306" y1="-152.266" x2="1067.602" y2="-138.427" xlink:href="#linear-gradient-10"/>
    <linearGradient id="linear-gradient-68" x1="-0.124" y1="0.253" x2="0.63" y2="0.79" xlink:href="#linear-gradient-7"/>
    <linearGradient id="linear-gradient-69" x1="0.669" y1="0.132" x2="0.266" y2="0.499" xlink:href="#linear-gradient-8"/>
    <linearGradient id="linear-gradient-70" x1="0" y1="0.5" x2="1" y2="0.5" xlink:href="#linear-gradient-8"/>
  </defs>
  <g id="portada-01" transform="translate(-95.427 -66.349)">
    <g id="Illustration" transform="translate(95.427 66.349)">
      <path id="Trazado_100490" data-name="Trazado 100490" d="M1153.617,375.076l-45.185-.546-23.152,47.154,23.152,46.938,45.185-.97,22.049-46.391Z" transform="translate(-805.185 -271.837)" opacity="0.15" fill="url(#linear-gradient)"/>
      <path id="Trazado_100491" data-name="Trazado 100491" d="M1153.617,692.97l-45.185,1.183L1085.28,742.2l23.152,46.048,45.185-2.7,22.049-47.235Z" transform="translate(-805.185 -484.165)" opacity="0.47" fill="url(#linear-gradient-2)"/>
      <path id="Trazado_100492" data-name="Trazado 100492" d="M1378.435,228.79l-42.819-1.3-21.926,45.488,21.926,46.088,42.819-.14,20.91-44.782Z" transform="translate(-957.484 -173.794)" opacity="0.5" fill="url(#linear-gradient-3)"/>
      <path id="Trazado_100495" data-name="Trazado 100495" d="M1378.435,533.22l-42.819.3-21.926,46.311,21.926,45.265,42.819-1.743,20.91-45.568Z" transform="translate(-957.484 -377.648)" opacity="0.5" fill="url(#linear-gradient-3)"/>
      <path id="Trazado_100498" data-name="Trazado 100498" d="M1687.042,529.38l-156.922,1.1,20.793,44.452-20.793,45.439L1687.042,614l18.434-42.746Z" transform="translate(-1101.794 -375.087)" opacity="0.15" fill="url(#linear-gradient-2)"/>
      <path id="Trazado_100499" data-name="Trazado 100499" d="M482.232,965.779c-156.132,7.787-195.509,21.226-196.426,33.486-1.483,19.907,95.735,72.583,164.439,49.984,13.662-4.492,46.178-18.534,63.979-4,5.948,4.858,7.964,11.046,9,13.492,19.857,47.094,238.078,42.743,244.407.5,2.759-18.407-36.5-32.146-31.486-48.984,3.959-13.306,41.72-1.146,88.971-22.493,7.7-3.476,25.022-11.3,23.946-16.585-1.929-9.447-61.287-3.256-114.409-.406C607.614,977.589,599.613,959.924,482.232,965.779Z" transform="translate(-272.104 -665.261)" fill="#aee6e6" opacity="0.1"/>
      <path id="Trazado_100500" data-name="Trazado 100500" d="M710.979,1144.1c1.546.09,19.717,1.15,19.993,4.665.3,3.805-20.413,9.6-39.987,10.22-8.96.283-27.784-.2-28.211-3.775C662.275,1151.059,686.544,1142.676,710.979,1144.1Z" transform="translate(-523.464 -784.859)" fill="#6165d7" opacity="0.19"/>
      <path id="Trazado_100501" data-name="Trazado 100501" d="M1727.992,984.038c1.546.09,19.714,1.15,19.994,4.665.3,3.805-20.413,9.6-39.987,10.22-8.964.283-27.784-.2-28.214-3.775C1679.288,991,1703.554,982.616,1727.992,984.038Z" transform="translate(-1201.582 -678.135)" fill="#6165d7" opacity="0.19"/>
      <path id="Trazado_100502" data-name="Trazado 100502" d="M1037.173,1148.339c-19.92,2.233-31.19,3.126-31.77,7.108-.966,6.664,28.734,16.381,47.1,20.66,23.792,5.545,49.244,11.476,71.53-.667,8.854-4.822,10.856-9.037,20.883-11.773,15.625-4.265,22.479,2.769,36.878-.666,15.018-3.589,28.737-16.3,26.878-22.659-.883-3.022-5.828-6.474-47.538-5.555C1112.332,1135.867,1103.105,1140.949,1037.173,1148.339Z" transform="translate(-751.911 -778.657)" fill="#6165d7" opacity="0.19"/>
      <path id="Trazado_100503" data-name="Trazado 100503" d="M435.158,1005.185c-31.63,2.709-45.065,3.436-45.765,8-1.1,7.184,29.707,21.659,61.093,22.439,13.6.333,10.247-2.333,35.765-3.779,29.35-1.666,38.407,1.573,54.206-5.108,12.443-5.262,11.466-9.244,22.436-13.772,20.147-8.331,38.574-1.146,54.872,2.442,48.318,10.643,99.187-5.585,99.744-14.219.446-6.961-31.36-16.018-58.2-19.327-37.191-4.585-47.318,4.025-111.963,12C527.274,996.331,482.839,1001.1,435.158,1005.185Z" transform="translate(-341.166 -675.936)" fill="#6165d7" opacity="0.19"/>
      <path id="Trazado_100504" data-name="Trazado 100504" d="M997.832,898.159A17.1,17.1,0,0,1,986.5,885.29l-8.424-41.69-72.056,2.559-8.867,43.429c-1.243,6.085,3.729,12.186,9.454,14.425l30.147,11.8a39.2,39.2,0,0,0,17.624,2.556l63.709-5.452a3.955,3.955,0,0,0,3.576-3.5c.217-1.876,1.52-4-.257-4.575Z" transform="translate(-679.62 -584.602)" fill="#97a6b7"/>
      <path id="Trazado_100505" data-name="Trazado 100505" d="M1003.383,891.922a16.942,16.942,0,0,1-11.33-12.709l-8.417-41.163-70.31,2.529-8.847,42.886a12.546,12.546,0,0,0,7.764,14.239l30.123,11.64a39.571,39.571,0,0,0,17.607,2.526l63.646-5.382a3.929,3.929,0,0,0,.893-7.664Z" transform="translate(-684.458 -580.901)" fill="url(#linear-gradient-6)"/>
      <path id="Trazado_100506" data-name="Trazado 100506" d="M453.869,397.885c-7.814.466-14.209-4.6-14.209-11.3V145.135c0-6.7,6.395-11.873,14.209-11.536L815.23,149.26a10.927,10.927,0,0,1,10.383,10.786V365.393a11.155,11.155,0,0,1-10.383,10.95Z" transform="translate(-374.701 -111.179)" fill="#97a6b7"/>
      <path id="Trazado_100507" data-name="Trazado 100507" d="M463.575,397.885c-7.814.466-14.205-4.6-14.205-11.3V145.135c0-6.7,6.391-11.873,14.205-11.536L824.937,149.26a10.923,10.923,0,0,1,10.4,10.786V365.393a11.14,11.14,0,0,1-10.383,10.95Z" transform="translate(-381.176 -111.179)" fill="#12263f"/>
      <path id="Trazado_100508" data-name="Trazado 100508" d="M838.222,165.364,476.844,150.5c-4.175-.17-7.574,2.589-7.574,6.168V397.491c0,3.579,3.4,6.281,7.574,6.041l361.378-20.75a5.948,5.948,0,0,0,5.558-5.865V171.125A5.828,5.828,0,0,0,838.222,165.364Z" transform="translate(-394.445 -122.451)" fill="#d8dee8" opacity="0.3"/>
      <path id="Trazado_100509" data-name="Trazado 100509" d="M486.1,390.913a2.616,2.616,0,0,1-2.949-2.379v-223.8a2.644,2.644,0,0,1,2.949-2.406L847.46,176.637a2.279,2.279,0,0,1,2.186,2.239v191.9a2.309,2.309,0,0,1-2.176,2.273Z" transform="translate(-403.699 -130.342)" fill="#d8dee8"/>
      <path id="Trazado_100510" data-name="Trazado 100510" d="M752.835,305.6c-27.306-14.2-8.234-54.571-38.91-74.856-30.918-20.451-74.422,4.632-96.077-16.548-16.124-15.771,2.745-34.812-12.655-49.642-24.136-23.259-85.948,8.728-114.331-14.183a31.2,31.2,0,0,1-10.416-16.1l-18.317-.672c-7.019-.252-12.759,3.651-12.759,8.711v182.31c0,5.06,5.741,8.887,12.759,8.535l324.59-16.266c5.154-.252,9.326-3.965,9.326-8.268v-2.768C774.493,312.006,761.317,310.01,752.835,305.6Z" transform="translate(-361.109 -78.349)" fill="#fff" opacity="0.27"/>
      <path id="Trazado_100511" data-name="Trazado 100511" d="M552.25,695.037l86.978-3.629v-45.6l-86.978,2.106Z" transform="translate(-449.774 -452.72)" fill="#f4f7fa"/>
      <g id="Grupo_55022" data-name="Grupo 55022" transform="translate(102.843 53.813)">
        <g id="Grupo_55021" data-name="Grupo 55021" opacity="0.7">
          <path id="Trazado_100512" data-name="Trazado 100512" d="M1251.5,363.551l13.213-.183V266.757l-13.213-.337Z" transform="translate(-1018.86 -253.564)" fill="#f4f7fa"/>
          <path id="Trazado_100513" data-name="Trazado 100513" d="M1179.93,460.777l13.472-.187V411.82l-13.472-.08Z" transform="translate(-971.139 -350.46)" fill="#f4f7fa"/>
          <path id="Trazado_100514" data-name="Trazado 100514" d="M1106.97,342.964l13.735-.187V234.953l-13.735-.4Z" transform="translate(-922.49 -232.314)" fill="#f4f7fa"/>
          <path id="Trazado_100515" data-name="Trazado 100515" d="M1032.57,374.353l14.005-.193V281.43l-14.005-.32Z" transform="translate(-872.882 -263.359)" fill="#f4f7fa"/>
          <path id="Trazado_100516" data-name="Trazado 100516" d="M956.68,511.338l14.285-.2V486.03l-14.285.057Z" transform="translate(-822.281 -399.995)" fill="#f4f7fa"/>
          <path id="Trazado_100517" data-name="Trazado 100517" d="M879.26,443.09l14.575-.2v-59.61l-14.575-.137Z" transform="translate(-770.659 -331.39)" fill="#f4f7fa"/>
          <path id="Trazado_100518" data-name="Trazado 100518" d="M800.27,389.485l14.872-.207V302.493L800.27,302.2Z" transform="translate(-717.99 -277.421)" fill="#f4f7fa"/>
          <path id="Trazado_100519" data-name="Trazado 100519" d="M719.65,436.575l15.178-.21V372.43l-15.178-.16Z" transform="translate(-664.235 -324.142)" fill="#f4f7fa"/>
          <path id="Trazado_100520" data-name="Trazado 100520" d="M637.36,364.714l15.495-.213V264.3l-15.495-.373Z" transform="translate(-609.366 -251.904)" fill="#f4f7fa"/>
          <path id="Trazado_100521" data-name="Trazado 100521" d="M553.35,341.036l15.818-.217V228.283l-15.818-.443Z" transform="translate(-553.35 -227.84)" fill="#f4f7fa"/>
        </g>
      </g>
      <path id="Trazado_100522" data-name="Trazado 100522" d="M1327.57,742.6l65-2.712V733.31l-65,2.532Z" transform="translate(-966.738 -511.063)" fill="#f4f7fa"/>
      <path id="Trazado_100523" data-name="Trazado 100523" d="M1327.57,485.444l65-.387V478.48l-65,.207Z" transform="translate(-966.738 -341.148)" fill="#f4f7fa"/>
      <path id="Trazado_100524" data-name="Trazado 100524" d="M1327.57,451.138l65-.08V444.48l-65-.1Z" transform="translate(-966.738 -318.411)" fill="#f4f7fa"/>
      <path id="Trazado_100525" data-name="Trazado 100525" d="M1327.57,711.607l10.593-.4V700.84l-10.593.357Z" transform="translate(-966.738 -489.413)" fill="#f4f7fa"/>
      <path id="Trazado_100526" data-name="Trazado 100526" d="M1351.12,580.16a24.025,24.025,0,0,0,25.092,24.032,25.478,25.478,0,0,0,24.582-25.222,24.044,24.044,0,0,0-24.582-24.046A25.448,25.448,0,0,0,1351.12,580.16Z" transform="translate(-982.441 -392.118)" fill="#d8dee8"/>
      <path id="Trazado_100527" data-name="Trazado 100527" d="M1355.443,582.181a24.043,24.043,0,0,1,23.635-23.066,22.679,22.679,0,0,1,23.2,22.682,24.032,24.032,0,0,1-23.2,23.792,22.673,22.673,0,0,1-23.659-22.659C1355.423,582.671,1355.433,582.427,1355.443,582.181Z" transform="translate(-985.308 -394.912)" fill="#fff" opacity="0.35"/>
      <path id="Trazado_100528" data-name="Trazado 100528" d="M1355.443,582.181a24.043,24.043,0,0,1,23.635-23.066,22.679,22.679,0,0,1,23.2,22.682,24.032,24.032,0,0,1-23.2,23.792,22.673,22.673,0,0,1-23.659-22.659C1355.423,582.671,1355.433,582.427,1355.443,582.181Z" transform="translate(-985.308 -394.912)" fill="#f4f7fa"/>
      <path id="Trazado_100529" data-name="Trazado 100529" d="M1355.49,585.08a23.964,23.964,0,0,1,15.8-21.62l7.834,21.793Z" transform="translate(-985.355 -397.811)" fill="#fff"/>
      <g id="Grupo_55023" data-name="Grupo 55023" transform="translate(102.483 205.023)">
        <path id="Trazado_100530" data-name="Trazado 100530" d="M576.152,690.211c5.525.21,6.331-3,11.786-3.3,9.227-.527,11.486,8.454,20.377,8.331,7.258-.113,9.084-6.175,16.268-5.505,5.332.5,6.391,4.055,11.6,4.565a12.5,12.5,0,0,0,3.059-.083V715.3l-86.971,3.629V681.62a31.282,31.282,0,0,1,10.5,2.459C568.631,686.648,570.577,690,576.152,690.211Z" transform="translate(-552.27 -681.62)" fill="#f4f7fa"/>
      </g>
      <path id="Trazado_100531" data-name="Trazado 100531" d="M1327.57,299.621l65,.347V242.939l-65-1.909Z" transform="translate(-966.738 -182.822)" fill="#f4f7fa"/>
      <path id="Trazado_100532" data-name="Trazado 100532" d="M553.35,605,799.2,599.507V589.2L553.35,593.659Z" transform="translate(-450.507 -414.974)" fill="#f4f7fa"/>
      <path id="Trazado_100533" data-name="Trazado 100533" d="M844.9,681.827l148.7-6.2V632.1l-148.7,3.562Z" transform="translate(-644.906 -443.578)" fill="#f4f7fa"/>
      <path id="Trazado_100534" data-name="Trazado 100534" d="M1840.568,704.778a13.122,13.122,0,0,0,11.193-7.964l27.271-65.505a11.456,11.456,0,0,0-6.288-15.112c-6-2.409-15.385.43-17.931,6.458l-27.991,66.215a11.193,11.193,0,0,0,6.611,15.218A27.127,27.127,0,0,0,1840.568,704.778Z" transform="translate(-1298.986 -432.404)" fill="#aee6e6"/>
      <path id="Trazado_100535" data-name="Trazado 100535" d="M1879.452,616.2c-6-2.409-15.385.43-17.931,6.458L1835.94,683.2c4.282-1.1,9.35-1,14.215-5.265,8.1-7.1,4.115-16.2,10.533-24.309,2.936-3.705,8.364-7.607,19.417-8.78l5.635-13.536a11.456,11.456,0,0,0-6.288-15.118Z" transform="translate(-1305.707 -432.404)" fill="#26aab7" opacity="0.3"/>
      <path id="Trazado_100536" data-name="Trazado 100536" d="M1980.657,578.633a5.429,5.429,0,0,0-.7.05L1963.1,578.5v43.819l16.278-.223a5.181,5.181,0,0,0,1.279.163c5.778,0,10.46-9.77,10.46-21.82S1986.436,578.633,1980.657,578.633Z" transform="translate(-1390.495 -407.839)" fill="#aee6e6"/>
      <path id="Trazado_100537" data-name="Trazado 100537" d="M1709.585,500.687c6.388,14.6,6.388,29.137,0,43.832l-125.4,40.307-1.3-123.026Z" transform="translate(-1136.98 -330.026)" fill="#26aab7"/>
      <path id="Trazado_100538" data-name="Trazado 100538" d="M1620.632,658.933c11.923-4.518,15.625-21.816,29.47-22.4,10.86-.456,14.132,10.087,24.775,8.95,10.893-1.163,12.722-12.909,24.925-17.048,5.545-1.883,11.35-1.536,16.995.057a53.588,53.588,0,0,1-4.605,26.281L1586.78,695.085l7.4-41.76C1606.563,660.536,1614.844,661.123,1620.632,658.933Z" transform="translate(-1139.573 -440.285)" fill="#aee6e6" opacity="0.3"/>
      <ellipse id="Elipse_4060" data-name="Elipse 4060" cx="30.503" cy="63.619" rx="30.503" ry="63.619" transform="translate(410.622 129.194)" fill="url(#linear-gradient-7)"/>
      <path id="Trazado_100539" data-name="Trazado 100539" d="M1511.814,583.47c-3.576,0-7.091-1.5-10.446-4.459-3.412-3-6.5-7.368-9.177-12.949-5.625-11.719-8.72-27.381-8.72-44.042s3.1-32.323,8.72-44.052a40.236,40.236,0,0,1,9.177-12.949c3.355-2.959,6.871-4.459,10.446-4.459s7.091,1.5,10.447,4.459c3.412,3,6.5,7.368,9.177,12.949a81.736,81.736,0,0,1,5.688,16.555c2,8.437-3.752,17.244-3.752,26.948,0,10.33,5.6,20.79,3.362,29.634a80.192,80.192,0,0,1-5.3,14.965,40.24,40.24,0,0,1-9.177,12.949C1518.905,581.97,1515.389,583.47,1511.814,583.47Z" transform="translate(-1070.689 -329.2)" fill="#278f99"/>
      <g id="Grupo_55024" data-name="Grupo 55024" transform="translate(412.781 131.36)" clip-path="url(#clip-path)">
        <path id="Trazado_100540" data-name="Trazado 100540" d="M1561,589.542c0,16.118,10.663,28.914,23.659,28.587,12.776-.333,22.992-13.279,22.992-28.947s-10.217-28.471-22.992-28.594C1571.663,560.461,1561,573.424,1561,589.542Z" transform="translate(-1535.165 -527.256)" fill="#12263f"/>
      </g>
      <path id="Trazado_100543" data-name="Trazado 100543" d="M367.336,188.356l-114.052,1.616c-4.718.067-8.564-3.432-8.564-7.814V73.791c0-4.385,3.845-7.707,8.564-7.424l114.052,6.864a7.887,7.887,0,0,1,7.354,7.761v99.934A7.461,7.461,0,0,1,367.336,188.356Z" transform="translate(-244.72 -66.349)" fill="#c7bcef"/>
      <g id="Grupo_55025" data-name="Grupo 55025" transform="translate(15.205 45.559)" opacity="0.78">
        <path id="Trazado_100544" data-name="Trazado 100544" d="M486.046,214.063l-11.766-.323V203.07l11.766.4Z" transform="translate(-412.99 -203.07)" fill="#fff"/>
        <path id="Trazado_100545" data-name="Trazado 100545" d="M529.709,215.46l-11.55-.32V204.57l11.55.4Z" transform="translate(-442.248 -204.07)" fill="#fff"/>
        <path id="Trazado_100546" data-name="Trazado 100546" d="M572.573,216.826l-11.343-.31V206.04l11.343.39Z" transform="translate(-470.966 -205.05)" fill="#fff"/>
        <path id="Trazado_100547" data-name="Trazado 100547" d="M303.036,252.1l-12.686-.237V240.78l12.686.323Z" transform="translate(-290.35 -228.214)" fill="#fff"/>
        <path id="Trazado_100548" data-name="Trazado 100548" d="M350.086,253.186l-12.446-.23V241.98l12.446.317Z" transform="translate(-321.882 -229.014)" fill="#fff"/>
        <path id="Trazado_100549" data-name="Trazado 100549" d="M396.263,254.256l-12.213-.227V243.16l12.213.31Z" transform="translate(-352.827 -229.801)" fill="#fff"/>
        <path id="Trazado_100550" data-name="Trazado 100550" d="M441.576,255.3l-11.986-.223V244.31l11.986.3Z" transform="translate(-383.192 -230.568)" fill="#fff"/>
        <path id="Trazado_100551" data-name="Trazado 100551" d="M486.046,256.336l-11.766-.22V245.45l11.766.3Z" transform="translate(-412.99 -231.328)" fill="#fff"/>
        <path id="Trazado_100552" data-name="Trazado 100552" d="M529.709,257.346l-11.55-.217V246.56l11.55.293Z" transform="translate(-442.248 -232.068)" fill="#fff"/>
        <path id="Trazado_100553" data-name="Trazado 100553" d="M572.573,258.336l-11.343-.213V247.65l11.343.287Z" transform="translate(-470.966 -232.795)" fill="#fff"/>
        <path id="Trazado_100554" data-name="Trazado 100554" d="M303.036,295.993l-12.686-.123V284.79l12.686.21Z" transform="translate(-290.35 -257.559)" fill="#fff"/>
        <path id="Trazado_100555" data-name="Trazado 100555" d="M350.086,296.666l-12.446-.123V285.57l12.446.207Z" transform="translate(-321.882 -258.079)" fill="#fff"/>
        <path id="Trazado_100556" data-name="Trazado 100556" d="M396.263,297.33l-12.213-.12V286.34l12.213.2Z" transform="translate(-352.827 -258.592)" fill="#fff"/>
        <path id="Trazado_100557" data-name="Trazado 100557" d="M441.576,297.973l-11.986-.117V287.09l11.986.2Z" transform="translate(-383.192 -259.093)" fill="#fff"/>
        <path id="Trazado_100558" data-name="Trazado 100558" d="M486.046,298.606l-11.766-.117V287.82l11.766.193Z" transform="translate(-412.99 -259.579)" fill="#fff"/>
        <path id="Trazado_100559" data-name="Trazado 100559" d="M529.709,299.233l-11.55-.113V288.55l11.55.19Z" transform="translate(-442.248 -260.066)" fill="#fff"/>
        <path id="Trazado_100560" data-name="Trazado 100560" d="M572.573,299.836l-11.343-.11V289.25l11.343.19Z" transform="translate(-470.966 -260.533)" fill="#fff"/>
        <path id="Trazado_100561" data-name="Trazado 100561" d="M303.036,339.89l-12.686-.01V328.8l12.686.1Z" transform="translate(-290.35 -286.904)" fill="#fff"/>
        <path id="Trazado_100562" data-name="Trazado 100562" d="M350.086,340.146l-12.446-.013V329.16l12.446.093Z" transform="translate(-321.882 -287.144)" fill="#fff"/>
        <path id="Trazado_100563" data-name="Trazado 100563" d="M396.263,340.393l-12.213-.013V329.51l12.213.093Z" transform="translate(-352.827 -287.377)" fill="#fff"/>
        <path id="Trazado_100564" data-name="Trazado 100564" d="M441.576,340.64l-11.986-.01V329.86l11.986.09Z" transform="translate(-383.192 -287.611)" fill="#fff"/>
        <path id="Trazado_100565" data-name="Trazado 100565" d="M486.046,340.88l-11.766-.01V330.2l11.766.09Z" transform="translate(-412.99 -287.837)" fill="#fff"/>
        <path id="Trazado_100566" data-name="Trazado 100566" d="M529.709,341.113l-11.55-.01V330.53l11.55.09Z" transform="translate(-442.248 -288.057)" fill="#fff"/>
        <path id="Trazado_100567" data-name="Trazado 100567" d="M572.573,341.347l-11.343-.01V330.86l11.343.087Z" transform="translate(-470.966 -288.277)" fill="#fff"/>
        <path id="Trazado_100568" data-name="Trazado 100568" d="M303.036,383.753l-12.686.1v-11.08l12.686-.017Z" transform="translate(-290.35 -316.215)" fill="#fff"/>
        <path id="Trazado_100569" data-name="Trazado 100569" d="M350.086,383.59l-12.446.1V372.717l12.446-.017Z" transform="translate(-321.882 -316.175)" fill="#fff"/>
        <path id="Trazado_100570" data-name="Trazado 100570" d="M396.263,383.43l-12.213.1v-10.87l12.213-.017Z" transform="translate(-352.827 -316.135)" fill="#fff"/>
        <path id="Trazado_100571" data-name="Trazado 100571" d="M441.576,383.276l-11.986.1V372.6l11.986-.013Z" transform="translate(-383.192 -316.102)" fill="#fff"/>
        <path id="Trazado_100572" data-name="Trazado 100572" d="M486.046,383.12l-11.766.093v-10.67l11.766-.013Z" transform="translate(-412.99 -316.062)" fill="#fff"/>
        <path id="Trazado_100573" data-name="Trazado 100573" d="M529.709,382.973l-11.55.09v-10.57l11.55-.013Z" transform="translate(-442.248 -316.029)" fill="#fff"/>
      </g>
      <path id="Trazado_100574" data-name="Trazado 100574" d="M435.991,118.888l-79.6-3.659V102.17l79.6,4.3Z" transform="translate(-319.179 -90.234)" fill="#fff"/>
      <path id="Trazado_100575" data-name="Trazado 100575" d="M435.991,157.091l-79.6-3.3V148.82l79.6,3.539Z" transform="translate(-319.179 -121.339)" fill="#fff" opacity="0.78"/>
      <path id="Trazado_100576" data-name="Trazado 100576" d="M486.046,298.606l-11.766-.117V287.82l11.766.193Z" transform="translate(-397.785 -214.021)" fill="#fff"/>
      <g id="Grupo_55026" data-name="Grupo 55026" transform="translate(174.779 137.438)" opacity="0.79">
        <path id="Trazado_100577" data-name="Trazado 100577" d="M780.559,619.583a10.474,10.474,0,0,1-11.33-10.437v-116.8a11.394,11.394,0,0,1,11.33-11.246l206.266-2.3c5.332-.06,9.644,4.479,9.644,10.117V596.343c0,5.641-4.332,10.487-9.644,10.81Z" transform="translate(-769.23 -478.798)" fill="url(#linear-gradient-8)"/>
        <path id="Trazado_100578" data-name="Trazado 100578" d="M994.664,488.779,788.4,491.348a7.567,7.567,0,0,0-7.4,7.594V615.571a6.948,6.948,0,0,0,7.4,7.068l206.266-12.166c3.5-.207,6.331-3.472,6.331-7.294V495.62C1000.988,491.8,998.159,488.736,994.664,488.779Z" transform="translate(-777.075 -485.453)" fill="url(#linear-gradient-9)"/>
        <path id="Trazado_100579" data-name="Trazado 100579" d="M873.971,781.678l-15.452.813V757.666l15.452-.677Z" transform="translate(-828.766 -664.29)" fill="#fff"/>
        <path id="Trazado_100580" data-name="Trazado 100580" d="M950.7,762l-15.172.8V730.1l15.172-.62Z" transform="translate(-880.115 -645.947)" fill="#fff"/>
        <path id="Trazado_100581" data-name="Trazado 100581" d="M1026.039,737.426l-14.9.786V695.14l14.9-.55Z" transform="translate(-930.53 -622.683)" fill="#fff"/>
        <path id="Trazado_100582" data-name="Trazado 100582" d="M1100.025,706.355l-14.635.77V650.386l14.635-.466Z" transform="translate(-980.038 -592.898)" fill="#fff"/>
        <path id="Trazado_100583" data-name="Trazado 100583" d="M853.147,596.364a2.742,2.742,0,0,1-1.043-.16,2.363,2.363,0,0,1-1.433-3.222,3.671,3.671,0,0,1,3.112-1.846c.666-.1,1.529-.2,2.642-.333,36.435-4.155,62.313-18.594,77.495-42.786a2.626,2.626,0,0,1,3.476-.88,2.332,2.332,0,0,1,.846,3.309c-10.26,16.385-25.262,28.677-44.745,36.531-15.781,6.365-30.347,8.051-36.615,8.777-1.04.12-2.109.246-2.606.333a2.915,2.915,0,0,1-1.129.277ZM855.6,594.785Zm0,0Zm0,0Zm0,0Zm0,0Zm0,0Zm0,0Z" transform="translate(-823.393 -524.148)" fill="#fff"/>
        <path id="Trazado_100584" data-name="Trazado 100584" d="M1079.138,549.136a2.413,2.413,0,0,1-2.519-2.2l-.716-10.586-10.57,7a2.612,2.612,0,0,1-3.545-.59,2.389,2.389,0,0,1,.7-3.392l17.887-11.783,1.283,18.934a2.533,2.533,0,0,1-2.353,2.629Z" transform="translate(-964.016 -511.325)" fill="#fff"/>
        <path id="Trazado_100585" data-name="Trazado 100585" d="M1184.184,556.082a3.769,3.769,0,0,1-3.725,3.692,3.582,3.582,0,0,1-3.739-3.532,3.769,3.769,0,0,1,3.739-3.689,3.575,3.575,0,0,1,3.725,3.529Z" transform="translate(-1040.934 -527.974)" fill="#fff" opacity="0.68"/>
        <path id="Trazado_100586" data-name="Trazado 100586" d="M1279.509,550.892l-63.539,1.543V536.4l63.539-1.166Z" transform="translate(-1067.105 -516.426)" fill="#fff" opacity="0.68"/>
        <path id="Trazado_100587" data-name="Trazado 100587" d="M1184.184,621.869a3.805,3.805,0,0,1-3.725,3.722,3.549,3.549,0,0,1-3.739-3.5,3.805,3.805,0,0,1,3.739-3.719,3.542,3.542,0,0,1,3.725,3.5Z" transform="translate(-1040.934 -571.858)" fill="#fff" opacity="0.68"/>
        <path id="Trazado_100588" data-name="Trazado 100588" d="M1279.509,614.932l-63.539,2.059V600.953l63.539-1.683Z" transform="translate(-1067.105 -559.126)" fill="#fff" opacity="0.68"/>
        <path id="Trazado_100589" data-name="Trazado 100589" d="M1184.184,753.428a3.885,3.885,0,0,1-3.725,3.782,3.479,3.479,0,0,1-3.739-3.442,3.885,3.885,0,0,1,3.739-3.786,3.479,3.479,0,0,1,3.725,3.445Z" transform="translate(-1040.934 -659.612)" fill="#fff" opacity="0.68"/>
        <path id="Trazado_100590" data-name="Trazado 100590" d="M1279.509,746.927l-63.539,3v-8.021l63.539-2.809Z" transform="translate(-1067.105 -652.361)" fill="#fff" opacity="0.68"/>
        <path id="Trazado_100591" data-name="Trazado 100591" d="M1184.184,796.708a3.912,3.912,0,0,1-3.726,3.815,3.459,3.459,0,0,1-3.739-3.422,3.912,3.912,0,0,1,3.739-3.8,3.456,3.456,0,0,1,3.726,3.409Z" transform="translate(-1040.934 -688.493)" fill="#fff" opacity="0.68"/>
        <path id="Trazado_100592" data-name="Trazado 100592" d="M1279.509,789.021l-63.539,3.342v-8.021l63.539-3.152Z" transform="translate(-1067.105 -680.426)" fill="#fff" opacity="0.68"/>
      </g>
      <path id="Trazado_100593" data-name="Trazado 100593" d="M490.032,298.581a4.865,4.865,0,0,0,.786-2.479c.06-2.3-1.646-4.092-1.876-4-.123.053.033.73.12,1.026.183.623.38.666.363.966-.033.59-.883.613-1.333,1.393a2.1,2.1,0,0,0,0,2A2.374,2.374,0,0,0,490.032,298.581Z" transform="translate(-406.827 -216.874)" fill="url(#linear-gradient-10)"/>
      <path id="Trazado_100594" data-name="Trazado 100594" d="M602.426,451.572l-.656-2.256,2.736-2.026,1.706-.64-1.01,3.156Z" transform="translate(-482.792 -319.925)" fill="url(#linear-gradient-11)"/>
      <path id="Trazado_100595" data-name="Trazado 100595" d="M593.57,597.016s1.5,3.765,1.1,5.435a16.635,16.635,0,0,0,2.666-.237,18.271,18.271,0,0,1-.773-2.566,25.258,25.258,0,0,1-.156-3Z" transform="translate(-477.325 -419.941)" fill="url(#linear-gradient-12)"/>
      <path id="Trazado_100596" data-name="Trazado 100596" d="M534.472,624.14a1.193,1.193,0,0,1,.283.693,1.115,1.115,0,0,1-.087.463c-.253.666-.667.76-1.086,1.473-.267.433-.217.566-.456.763a1.6,1.6,0,0,1-1.043.277,18.25,18.25,0,0,1-2.4-.137c.536-.69,1.106-1.4,1.716-2.106.267-.31.533-.613.8-.91l1.579-.536Z" transform="translate(-434.724 -438.258)" fill="#26264f"/>
      <path id="Trazado_100597" data-name="Trazado 100597" d="M534.112,601.17s-.9,4.708.243,6.028c.98,1.333-.47.38-.47.38l-1.736,1.513-1.04,1.8s.963-4.612.7-6.441-.383-3.062-.383-3.062Z" transform="translate(-435.678 -422.955)" fill="url(#linear-gradient-13)"/>
      <path id="Trazado_100598" data-name="Trazado 100598" d="M525.046,444.673s-2.426,2.169-2.426,11.1,1.15,28.324,1.15,28.324l1.839,13.892a12.258,12.258,0,0,0,3.182-.313c1.15-5.235,3.019-14.089,2.126-21.49-.383-8.044,3.192-18.127,3.192-18.127s3.062,10.213,5.232,15.328,6.3,21.1,6.684,22.249a6.314,6.314,0,0,0,3.626-.44s-1.63-17.214-3.159-23.726-1.406-22.209-3.959-26.678C536.789,442.494,525.046,444.673,525.046,444.673Z" transform="translate(-430.017 -317.984)" fill="url(#linear-gradient-14)"/>
      <path id="Trazado_100599" data-name="Trazado 100599" d="M525.046,444.673s-2.426,2.169-2.426,11.1,1.15,28.324,1.15,28.324l1.839,13.892a12.258,12.258,0,0,0,3.182-.313c1.15-5.235,3.019-14.089,2.126-21.49-.383-8.044,3.192-18.127,3.192-18.127s3.062,10.213,5.232,15.328,6.3,21.1,6.684,22.249a6.314,6.314,0,0,0,3.626-.44s-1.63-17.214-3.159-23.726-1.406-22.209-3.959-26.678C536.789,442.494,525.046,444.673,525.046,444.673Z" transform="translate(-430.017 -317.984)" fill="url(#linear-gradient-15)"/>
      <path id="Trazado_100600" data-name="Trazado 100600" d="M537.645,461.055c.756,4.915,2.269,7.564,6.051,10.966,3.022,2.269.756,7.184,1.889,10.966.376,1.133,1.513,2.266,1.889,3.4,1.409,2.812.093,6.255.733,9.237a4.119,4.119,0,0,0,1.443-.413s-1.63-17.214-3.159-23.726-1.406-22.209-3.959-26.678c-5.745-2.3-17.488-.127-17.488-.127s-2.426,2.169-2.426,11.1c0,.726,0,1.523.023,2.369a9.2,9.2,0,0,0,10.843.253,1.51,1.51,0,0,1,.607-.277l.017-.047v.043C535.569,457.866,537.318,459.742,537.645,461.055Z" transform="translate(-430.017 -317.995)" opacity="0.25" fill="url(#linear-gradient-16)"/>
      <path id="Trazado_100601" data-name="Trazado 100601" d="M595.027,618.35s-.373,0-.333.483-.167,2.139,1.729,2.216a5.877,5.877,0,0,0,2.253-.133,16.133,16.133,0,0,0-.5-1.586l-.617-.763-1.629-.173Z" transform="translate(-478.072 -434.41)" fill="#26264f"/>
      <path id="Trazado_100602" data-name="Trazado 100602" d="M599.359,614.465a5.958,5.958,0,0,0-.49-1.536c-.333-.753-.06-1.036-.38-1.723a2.051,2.051,0,0,0-.453-.666,1.939,1.939,0,0,0-1.333-.51,1.332,1.332,0,0,0-.63.147,1.483,1.483,0,0,0-.566.6,6.847,6.847,0,0,0-.457,1.353,3.489,3.489,0,0,0-.12.463,3.833,3.833,0,0,0-.05.413,8.815,8.815,0,0,1,2.812.373,1.579,1.579,0,0,1,.606,1.29c0,.5.25.73.5.716A.823.823,0,0,0,599.359,614.465Z" transform="translate(-478.198 -428.862)" fill="#444b8c"/>
      <path id="Trazado_100603" data-name="Trazado 100603" d="M532.5,617.28c.427,0,.74.333.976,1.166s1.37,1.543.047,1.37-2.283,1.7-2.756,2.4-1.729,1.306-1.709.64.59-1,.746-1.686S531.525,617.263,532.5,617.28Z" transform="translate(-434.311 -433.697)" fill="#444b8c"/>
      <path id="Trazado_100604" data-name="Trazado 100604" d="M573.824,388.2c.313-.873,2.276-6.608-.893-11.836a14.066,14.066,0,0,0-7.721-5.868c-3.9-1.153-5.848.333-7.078-1.033-2.083-2.309.28-10.17,4.848-11.746,5.152-1.773,11.33,5.052,13.832,9.533a20.66,20.66,0,0,1,2.286,12.932,20.085,20.085,0,0,1-2.492,6.978Z" transform="translate(-453.187 -260.433)" fill="url(#linear-gradient-17)"/>
      <path id="Trazado_100605" data-name="Trazado 100605" d="M532.154,354.868c-4.6-.183-8.144-.11-10.147,1.893-2.116,2.113.02,4.5-.437,10.03-.7,8.467-6.1,10.533-6.5,19.124a21.944,21.944,0,0,0,.733,6.684,23.034,23.034,0,0,0,6,5.3c4.162,2.532,6.575,2.093,12.553,3.729,9.777,2.666,10.663,5.861,15.495,5.048,4.9-.82,9.2-4.942,8.664-7.208-.31-1.356-2.286-.973-4.559-3.039-2.932-2.666-1.8-5.212-4.029-8.074-3.2-4.115-7.664-1.6-10.387-5.165s-1.666-10.716.667-14.589c1.519-2.533,2.169-5.5,3.462-8.151a1.835,1.835,0,0,0,.177-1.033c-.21-1.729-3.089-2.666-5.272-3.352A26.1,26.1,0,0,0,532.154,354.868Z" transform="translate(-424.966 -258.683)" fill="#7d6eb2"/>
      <path id="Trazado_100606" data-name="Trazado 100606" d="M554.76,353.83l.91-.28s.237,1.23,3.152,1.383a4.355,4.355,0,0,0,2.666-.906l.62.45a4.792,4.792,0,0,1-3.519,1.666A4.332,4.332,0,0,1,554.76,353.83Z" transform="translate(-451.447 -257.848)" fill="url(#linear-gradient-18)"/>
      <path id="Trazado_100607" data-name="Trazado 100607" d="M558.349,336.419a3.929,3.929,0,0,1,1.473-2.4c.973-.773,1.17-.853,1.506-.916l.457-.067h.05a4.507,4.507,0,0,1,1.213.433c.466.333.123,2.646-1.286,5.528-.057.243-.113.487-.167.733,1.23.213,1.533.437,1.543.613.02.383-1.333.873-2.573.906-1.566.04-3.229-.633-3.2-1.136,0-.2.306-.453,1.443-.7l.533-.75A3.423,3.423,0,0,1,558.349,336.419Z" transform="translate(-453.187 -244.172)" fill="url(#linear-gradient-19)"/>
      <path id="Trazado_100608" data-name="Trazado 100608" d="M564.659,341.551c.357-.213.627.243.46.643a.778.778,0,0,1-1.07.413C563.709,342.354,564.182,341.838,564.659,341.551Z" transform="translate(-457.564 -249.811)" fill="url(#linear-gradient-20)"/>
      <path id="Trazado_100609" data-name="Trazado 100609" d="M608.9,333.247c-4.665-5.072-15.545-3.665-21.576.393-2.8,1.893-4.239,4.125-7.551,4.315-2.516.143-6.521-.8-8.631-3.532-.267-.333-1.333-1.783-2.922-3.6a4.273,4.273,0,0,0-2.489-1.723,1.8,1.8,0,0,0-2.263,2.313c.087.36.2.4.183.633-.047.666-1.25.95-1.183,1.283.05.237.666.15.783.447s-.57.61-.866,1.433a3.455,3.455,0,0,0-1.023,2.529,11.237,11.237,0,0,0,.333,4.4c1.666,5.348,2.842,9.174,5.708,11.31,3.8,2.826,7.211.217,16.868-.2,13.219-.566,16.515,3.915,21.266.85C611.5,350.275,613.752,338.512,608.9,333.247Z" transform="translate(-455.794 -241.514)" fill="url(#linear-gradient-21)"/>
      <path id="Trazado_100610" data-name="Trazado 100610" d="M488.553,310.149a13.249,13.249,0,0,0,11.31,14.888c4.015.606,5.748-1.123,7.151.057,2.383,2,1.116,10.11-3.2,12.3-4.858,2.463-11.913-3.456-15-7.551a20.687,20.687,0,0,1-4.035-12.5,20.211,20.211,0,0,1,1.516-7.254,3.59,3.59,0,0,1,1.16-.15A3.662,3.662,0,0,1,488.553,310.149Z" transform="translate(-404.791 -228.765)" fill="#7d6eb2"/>
      <path id="Trazado_100611" data-name="Trazado 100611" d="M549.988,445.254c-1.176-1.206.12-3.635-1.619-5.442-1.609-1.666-3.436-.333-6.028-1.766-3.332-1.853-2.413-5.238-5.591-7.061-2.286-1.31-3.359.1-6.914-.59a14.36,14.36,0,0,1-10-7.5,12.87,12.87,0,0,1-1.283-5.355c-1.6,2.852-3.252,5.585-3.469,10.193a21.945,21.945,0,0,0,.733,6.685,23.033,23.033,0,0,0,6,5.295c4.162,2.532,6.575,2.093,12.553,3.729,9.777,2.666,10.663,5.861,15.495,5.048a13.108,13.108,0,0,0,7.551-4.272C552.874,446.231,550.841,446.131,549.988,445.254Z" transform="translate(-424.979 -300.515)" opacity="0.3" fill="url(#linear-gradient-22)"/>
      <path id="Trazado_100612" data-name="Trazado 100612" d="M458.816,785.779a1.056,1.056,0,0,1-1.06-1.056V639.661a1.06,1.06,0,1,1,2.116,0V784.723A1.056,1.056,0,0,1,458.816,785.779Z" transform="translate(-386.767 -447.874)" fill="#a2a7ae"/>
      <path id="Trazado_100613" data-name="Trazado 100613" d="M649,782.8a1.056,1.056,0,0,1-1.06-1.056V639.66a1.06,1.06,0,1,1,2.116,0V781.74A1.056,1.056,0,0,1,649,782.8Z" transform="translate(-513.574 -447.873)" fill="#a2a7ae"/>
      <path id="Trazado_100614" data-name="Trazado 100614" d="M553.671,805.625a1.06,1.06,0,0,1-1.03-.816L514.587,644.048a1.06,1.06,0,0,1,2.059-.487L554.7,804.322a1.06,1.06,0,0,1-.79,1.273,1.006,1.006,0,0,1-.24.03Z" transform="translate(-424.65 -450.714)" fill="#d8dee8"/>
      <path id="Trazado_100615" data-name="Trazado 100615" d="M728.45,797.612a1.063,1.063,0,0,1-1.026-.8L688.433,643.956a1.058,1.058,0,0,1,2.049-.526l38.987,152.86a1.063,1.063,0,0,1-.766,1.29A1.158,1.158,0,0,1,728.45,797.612Z" transform="translate(-540.555 -450.602)" fill="#d8dee8"/>
      <path id="Trazado_100616" data-name="Trazado 100616" d="M537.917,638.632l-60.7,1.3-19.447-1.3V635.77L503,634.85l34.922.92Z" transform="translate(-386.777 -445.412)" fill="#d8dee8"/>
      <path id="Trazado_100617" data-name="Trazado 100617" d="M576.83,640.472l-60.7,1.3v-2.866l60.7-1.3Z" transform="translate(-425.69 -447.252)" fill="#a2a7ae"/>
      <path id="Trazado_100618" data-name="Trazado 100618" d="M540.292,742.558a1.06,1.06,0,0,1-.06-2.116l57.185-3.186a1.06,1.06,0,0,1,.117,2.116l-57.181,3.182Z" transform="translate(-441.108 -513.693)" fill="#d8dee8"/>
      <path id="Trazado_100619" data-name="Trazado 100619" d="M562.976,837.07a1.06,1.06,0,0,1-.07-2.116l58.151-3.879a1.06,1.06,0,0,1,.143,2.116l-58.151,3.879Z" transform="translate(-456.227 -576.249)" fill="#d8dee8"/>
      <path id="Trazado_100620" data-name="Trazado 100620" d="M585.527,931.265a1.06,1.06,0,0,1-.08-2.116l58.574-4.462a1.06,1.06,0,0,1,.16,2.113l-58.571,4.462Z" transform="translate(-471.258 -638.668)" fill="#d8dee8"/>
      <path id="Trazado_100621" data-name="Trazado 100621" d="M607.95,1024.482a1.06,1.06,0,0,1-.093-2.116l58.931-5.255a1.06,1.06,0,1,1,.187,2.112l-58.931,5.255Z" transform="translate(-486.2 -700.292)" fill="#d8dee8"/>
      <g id="Grupo_55027" data-name="Grupo 55027" transform="translate(301.058 10.15)" opacity="0.78">
        <path id="Trazado_100622" data-name="Trazado 100622" d="M1305.508,186.979H1151.915a3.582,3.582,0,0,1-3.725-3.419V100.054a3.39,3.39,0,0,1,3.725-3.242l153.593,7.274a3.332,3.332,0,0,1,3.136,3.279v76.478a3.133,3.133,0,0,1-3.136,3.136Z" transform="translate(-1148.19 -96.808)" fill="#f5ca56"/>
        <path id="Trazado_100623" data-name="Trazado 100623" d="M1305.508,339.992H1151.915a3.582,3.582,0,0,1-3.725-3.419V326.29l160.454,1.153v9.414a3.132,3.132,0,0,1-3.135,3.136Z" transform="translate(-1148.19 -249.821)" fill="url(#linear-gradient-23)"/>
        <path id="Trazado_100624" data-name="Trazado 100624" d="M1383.78,192.053c0,8.044-6.775,14.435-15.2,14.279-8.5-.16-15.458-6.921-15.458-15.1s6.958-14.565,15.458-14.255C1377.005,177.255,1383.78,184.013,1383.78,192.053Z" transform="translate(-1284.832 -150.256)" fill="url(#linear-gradient-24)"/>
        <path id="Trazado_100625" data-name="Trazado 100625" d="M1381.42,212.011V194.98l17.667,8.99Z" transform="translate(-1303.702 -162.267)" fill="#fff" opacity="0.68"/>
        <path id="Trazado_100626" data-name="Trazado 100626" d="M1312.856,347.056l-153.756-.443v-2.2l153.756.62Z" transform="translate(-1155.464 -261.903)" fill="#fff" opacity="0.68"/>
        <path id="Trazado_100627" data-name="Trazado 100627" d="M1200.23,346.733l-41.13-.12v-2.2l41.13.167Z" transform="translate(-1155.464 -261.903)" fill="url(#linear-gradient-25)"/>
        <path id="Trazado_100628" data-name="Trazado 100628" d="M1272.584,341.652a3.339,3.339,0,0,1-3.449,3.226,3.373,3.373,0,0,1-3.466-3.252,3.465,3.465,0,0,1,6.914.027Z" transform="translate(-1226.523 -257.896)" fill="#fff"/>
      </g>
      <path id="Trazado_100629" data-name="Trazado 100629" d="M1009.178,345.8a3.527,3.527,0,0,0,3.182-6.271c-.083-.043-.167-.077-.253-.113a19.825,19.825,0,0,0,.666-2.889h.277a3.665,3.665,0,0,0,3.236-3.745,3.109,3.109,0,0,0-3.372-3.156,2.622,2.622,0,0,0-.283.04,18.438,18.438,0,0,0-.783-2.762,2.428,2.428,0,0,0,.25-.157,3.666,3.666,0,0,0,1.116-4.822,3.115,3.115,0,0,0-4.538-.86c-.08.057-.157.117-.23.177a16.532,16.532,0,0,0-2.026-1.889c.05-.083.1-.17.147-.26.88-1.733,2.029-3.622.417-4.412-3.729-1.819-5.332-.26-6.208,1.473-.047.09-.083.18-.123.27a16.66,16.66,0,0,0-2.719-.52v-.29c-.037-1.906.526-2.936-1.3-2.972-4-.077-5.331,1.666-5.3,3.562a1.425,1.425,0,0,0,.02.293,18.521,18.521,0,0,0-2.689,1c-.043-.087-.083-.17-.133-.253a3.116,3.116,0,0,0-4.538-.86,3.666,3.666,0,0,0-1.116,4.822,2.173,2.173,0,0,0,.157.23,20.357,20.357,0,0,0-1.939,2.246l-.237-.137a3.528,3.528,0,0,0-3.186,6.271c.083.043.167.077.253.113a19.8,19.8,0,0,0-.667,2.889h-.277a3.665,3.665,0,0,0-3.235,3.745,3.119,3.119,0,0,0,3.375,3.156,2.708,2.708,0,0,0,.28-.04,18.448,18.448,0,0,0,.783,2.762,2.382,2.382,0,0,0-.25.157,3.665,3.665,0,0,0-1.1,4.815c.946,1.569,4.075,2.3,5.638,1.2.08-.053-.943-.46-.87-.52a16.524,16.524,0,0,0,2.026,1.889c-.05.083-.1.17-.147.26a3.258,3.258,0,1,0,5.791,2.939,2.831,2.831,0,0,0,.123-.27,16.667,16.667,0,0,0,2.719.52v.29a3.116,3.116,0,0,0,3.372,3.156,3.665,3.665,0,0,0,3.235-3.745,1.435,1.435,0,0,0-.02-.293,18.393,18.393,0,0,0,2.689-1c.043.087.087.17.133.253a3.12,3.12,0,0,0,4.542.86,3.665,3.665,0,0,0,1.113-4.822,2.744,2.744,0,0,0-.153-.23,20.659,20.659,0,0,0,1.936-2.246A2.245,2.245,0,0,0,1009.178,345.8Zm-19.94.253c-5.808-2.949-7.927-10.437-4.735-16.724s10.49-9,16.295-6.048,7.927,10.437,4.735,16.724S995.046,349.007,989.238,346.057Z" transform="translate(-730.81 -230.572)" fill="#d8dee8"/>
      <path id="Trazado_100630" data-name="Trazado 100630" d="M1047.139,343.68a3.665,3.665,0,0,0,3.235-3.745,3.109,3.109,0,0,0-3.372-3.156,2.659,2.659,0,0,0-.283.04,18.459,18.459,0,0,0-.783-2.762,2.449,2.449,0,0,0,.25-.157c1.563-1.093,3.492-3.735,2.392-5.2-2.092-2.776-4.255-1.573-5.815-.48-.08.057-.157.117-.23.177a16.518,16.518,0,0,0-2.026-1.889c.05-.083.1-.17.147-.26a3.629,3.629,0,0,0,.207-2.866q-2.266,4-4.458,8c4.635,3.4,6.108,10.083,3.212,15.788a12.783,12.783,0,0,1-12.1,7.208c-.21.553-.42,1.106-.647,1.666-.62,1.479-1.333,2.929-2.023,4.379.443.083.886.15,1.333.2v.29c.037,1.906,1.2,3.526,4.5,3.349,1.829-.1,2.146-2.033,2.106-3.939a1.42,1.42,0,0,0-.02-.293,18.39,18.39,0,0,0,2.689-1c.043.087.087.17.133.253.946,1.569,4.229,2.236,5.788,1.143s.813-3.536-.133-5.105a2.677,2.677,0,0,0-.153-.23,20.65,20.65,0,0,0,1.936-2.246c.077.047.156.093.24.137a3.527,3.527,0,0,0,3.182-6.271c-.083-.043-.167-.077-.253-.113a19.816,19.816,0,0,0,.666-2.889Z" transform="translate(-764.892 -237.731)" fill="#d8dee8"/>
      <path id="Trazado_100631" data-name="Trazado 100631" d="M1014.353,346.011a3.527,3.527,0,0,0,3.182-6.271,2.393,2.393,0,0,0-.25-.113,20.252,20.252,0,0,0,.667-2.889h.276a3.666,3.666,0,0,0,3.236-3.745,3.119,3.119,0,0,0-3.372-3.159,1.61,1.61,0,0,0-.283.04,18.493,18.493,0,0,0-.78-2.759c.083-.05.167-.1.247-.157a3.666,3.666,0,0,0,1.117-4.822,3.116,3.116,0,0,0-4.539-.86c-.08.053-.157.117-.23.177a16.282,16.282,0,0,0-2.026-1.889c.053-.087.1-.17.15-.26a3.26,3.26,0,1,0-5.795-2.942c-.043.09-.083.183-.123.273a16.664,16.664,0,0,0-2.719-.52q0-.147,0-.29a3.119,3.119,0,0,0-3.376-3.156,3.665,3.665,0,0,0-3.236,3.745,1.43,1.43,0,0,0,.02.293,18.657,18.657,0,0,0-2.689,1c-.04-.083-.083-.167-.133-.25a3.115,3.115,0,0,0-4.538-.86,3.666,3.666,0,0,0-1.116,4.822c.05.08.1.153.157.23a20,20,0,0,0-1.939,2.246c-.077-.047-.153-.1-.237-.137a3.528,3.528,0,0,0-3.186,6.271,2.444,2.444,0,0,0,.253.11,20.4,20.4,0,0,0-.666,2.892,2.6,2.6,0,0,0-.277,0,3.682,3.682,0,0,0-3.229,3.732,3.119,3.119,0,0,0,3.375,3.156,2.582,2.582,0,0,0,.28-.04,18.771,18.771,0,0,0,.783,2.759c-.083.05-.167.1-.25.16a3.666,3.666,0,0,0-1.113,4.822,3.116,3.116,0,0,0,4.539.86c.08-.057.153-.117.23-.177a16.736,16.736,0,0,0,2.023,1.889c-.05.083-.1.17-.147.26a3.258,3.258,0,1,0,5.791,2.939,2.812,2.812,0,0,0,.123-.273,15.953,15.953,0,0,0,2.723.52v.293a3.119,3.119,0,0,0,3.375,3.156,3.666,3.666,0,0,0,3.233-3.745,2.787,2.787,0,0,0-.02-.293,18.789,18.789,0,0,0,2.689-1c.043.087.087.17.137.253a3.119,3.119,0,0,0,4.539.86,3.666,3.666,0,0,0,1.113-4.822q-.071-.119-.154-.23a20.342,20.342,0,0,0,1.936-2.249A1.318,1.318,0,0,0,1014.353,346.011Zm-19.94.253c-5.808-2.949-7.927-10.437-4.735-16.724s10.49-9,16.3-6.048,7.928,10.437,4.732,16.725S1000.221,349.213,994.413,346.264Z" transform="translate(-734.265 -230.582)" fill="#fff"/>
      <path id="Trazado_100632" data-name="Trazado 100632" d="M845.985,231.281a5.779,5.779,0,0,0,5.215-10.273,4.117,4.117,0,0,0-.413-.183,33.326,33.326,0,0,0,1.1-4.735,4.148,4.148,0,0,0,.453-.017,6.012,6.012,0,0,0,5.3-6.135,5.1,5.1,0,0,0-5.528-5.172,2.633,2.633,0,0,0-.46.063,31.158,31.158,0,0,0-1.28-4.522c.137-.08.273-.163.406-.257a6.028,6.028,0,0,0,1.826-7.9,5.107,5.107,0,0,0-7.434-1.41,4.681,4.681,0,0,0-.377.29,26.836,26.836,0,0,0-3.332-3.1c.087-.14.167-.28.243-.427,1.44-2.836,3.332-5.935.667-7.224-6.108-2.982-8.727-.43-10.17,2.409-.073.147-.137.293-.2.443a27.037,27.037,0,0,0-4.432-.843v-.477c-.06-3.122.866-4.812-2.136-4.868-6.545-.127-8.75,2.712-8.687,5.835a2.247,2.247,0,0,0,.033.48,31.062,31.062,0,0,0-4.409,1.636,4.492,4.492,0,0,0-.22-.413,5.1,5.1,0,0,0-7.421-1.416,6.032,6.032,0,0,0-1.826,7.9c.08.13.167.253.253.377a32.84,32.84,0,0,0-3.172,3.682c-.127-.08-.257-.16-.39-.227a5.779,5.779,0,0,0-5.218,10.273c.137.07.273.127.413.183a33.31,33.31,0,0,0-1.1,4.735,4.145,4.145,0,0,0-.453.017,6.014,6.014,0,0,0-5.3,6.135,5.1,5.1,0,0,0,5.528,5.172,2.722,2.722,0,0,0,.463-.067,30.223,30.223,0,0,0,1.28,4.522c-.14.08-.277.163-.41.257a6.032,6.032,0,0,0-1.826,7.9c1.549,2.569,6.664,3.765,9.234,1.973.133-.093-1.543-.753-1.423-.856a27.1,27.1,0,0,0,3.332,3.1c-.083.137-.167.277-.243.423a5.339,5.339,0,1,0,9.49,4.818c.073-.147.14-.3.2-.447a27.057,27.057,0,0,0,4.458.853v.473a5.105,5.105,0,0,0,5.525,5.172,6.022,6.022,0,0,0,5.3-6.135c0-.163-.02-.333-.033-.483a30.46,30.46,0,0,0,4.405-1.633,4.431,4.431,0,0,0,.22.41,5.1,5.1,0,0,0,7.434,1.41,6.029,6.029,0,0,0,1.826-7.9c-.08-.133-.167-.257-.253-.377a33.142,33.142,0,0,0,3.159-3.682A3.2,3.2,0,0,0,845.985,231.281Zm-32.656.413c-9.514-4.828-13-17.094-7.754-27.4s17.171-14.735,26.7-9.907,13,17.1,7.757,27.4-17.2,14.738-26.715,9.907Z" transform="translate(-606.924 -140.094)" fill="#d8dee8"/>
      <path id="Trazado_100633" data-name="Trazado 100633" d="M908.125,227.822a6.024,6.024,0,0,0,5.3-6.138,5.105,5.105,0,0,0-5.528-5.168,2.631,2.631,0,0,0-.46.063,31.136,31.136,0,0,0-1.28-4.522c.137-.08.273-.163.406-.257,2.556-1.789,5.721-6.121,3.919-8.517-3.429-4.552-6.971-2.572-9.527-.79a4.686,4.686,0,0,0-.377.29,26.847,26.847,0,0,0-3.332-3.1c.087-.14.167-.28.243-.427a5.942,5.942,0,0,0,.333-4.692q-3.705,6.525-7.3,13.1c7.591,5.561,10,16.521,5.265,25.865-4.022,7.921-12.013,12.366-19.817,11.809-.333.9-.69,1.809-1.063,2.7-1,2.426-2.159,4.8-3.309,7.174q1.085.2,2.179.333v.477c.063,3.122,1.956,5.775,7.374,5.488,3-.16,3.512-3.332,3.452-6.451,0-.163-.02-.333-.033-.483a30.457,30.457,0,0,0,4.405-1.633,4.461,4.461,0,0,0,.22.41c1.549,2.573,6.921,3.665,9.48,1.873s1.333-5.791-.22-8.361c-.08-.133-.167-.257-.253-.377a33.148,33.148,0,0,0,3.186-3.7c.127.08.257.157.393.227A5.78,5.78,0,0,0,907,232.754c-.137-.067-.273-.127-.413-.18a33.327,33.327,0,0,0,1.1-4.735C907.821,227.839,907.971,227.836,908.125,227.822Z" transform="translate(-662.709 -151.844)" fill="#d8dee8"/>
      <path id="Trazado_100634" data-name="Trazado 100634" d="M854.415,231.594a5.78,5.78,0,0,0,5.218-10.273c-.136-.07-.276-.127-.413-.183a33.369,33.369,0,0,0,1.1-4.735,4.149,4.149,0,0,0,.453-.017,6.014,6.014,0,0,0,5.3-6.135,5.1,5.1,0,0,0-5.525-5.185,4.308,4.308,0,0,0-.463.067A30.126,30.126,0,0,0,858.8,200.6a4.434,4.434,0,0,0,.41-.26,6.028,6.028,0,0,0,1.826-7.9,5.11,5.11,0,0,0-7.438-1.41c-.13.09-.253.19-.376.29a27.061,27.061,0,0,0-3.315-3.1c.083-.137.167-.277.243-.423a5.338,5.338,0,1,0-9.49-4.818c-.073.147-.14.3-.2.447a26.706,26.706,0,0,0-4.458-.853v-.477a5.1,5.1,0,0,0-5.525-5.168,6.022,6.022,0,0,0-5.3,6.135c0,.163.02.333.033.48a30.874,30.874,0,0,0-4.405,1.636,4.485,4.485,0,0,0-.22-.413,5.1,5.1,0,0,0-7.434-1.41,6.032,6.032,0,0,0-1.826,7.9c.08.13.167.253.253.377a33.144,33.144,0,0,0-3.172,3.682c-.126-.08-.256-.157-.393-.227a5.779,5.779,0,0,0-5.215,10.273c.137.07.273.127.413.183a33.3,33.3,0,0,0-1.1,4.735,4.117,4.117,0,0,0-.453.017,6.011,6.011,0,0,0-5.3,6.135,5.114,5.114,0,0,0,5.545,5.178,2.688,2.688,0,0,0,.46-.067,30.521,30.521,0,0,0,1.279,4.522c-.136.08-.273.163-.406.257a6.029,6.029,0,0,0-1.826,7.9,5.1,5.1,0,0,0,7.434,1.41,4.722,4.722,0,0,0,.377-.29,27.081,27.081,0,0,0,3.332,3.1c-.087.137-.167.277-.243.423a5.339,5.339,0,1,0,9.49,4.818c.073-.147.136-.3.2-.447a26.732,26.732,0,0,0,4.455.853v.473a5.108,5.108,0,0,0,5.528,5.172,6.017,6.017,0,0,0,5.3-6.135,4.476,4.476,0,0,0-.033-.483,30.466,30.466,0,0,0,4.405-1.633c.07.14.14.277.22.41a5.108,5.108,0,0,0,7.438,1.413,6.028,6.028,0,0,0,1.826-7.9c-.08-.13-.167-.253-.253-.377a33.5,33.5,0,0,0,3.172-3.682A3.53,3.53,0,0,0,854.415,231.594Zm-32.656.413c-9.514-4.828-13-17.094-7.757-27.4s17.184-14.735,26.7-9.907,13,17.1,7.754,27.4-17.188,14.722-26.7,9.89Z" transform="translate(-612.538 -140.073)" fill="#fff"/>
      <path id="Trazado_100635" data-name="Trazado 100635" d="M810.693,820.95l-.793-1.493a1.826,1.826,0,0,1-1.06-.666l-.333-.52a1.213,1.213,0,0,1,.437-1.143.6.6,0,0,0,.18-.51c-.083-.57-.25-1.729-.283-2.026a1.239,1.239,0,0,1,.143-.616.15.15,0,0,1,.28.02l.637,2.333s.51-.127.666.3a1.137,1.137,0,0,1,.506.72,11.682,11.682,0,0,1,0,1.566l.7,1.573Z" transform="translate(-620.629 -564.791)" fill="url(#linear-gradient-26)"/>
      <path id="Trazado_100636" data-name="Trazado 100636" d="M772.152,832.11c.437,1,2.862,6.888.06,12.329-3.119,6.085-11.52,9.27-19.924,6.525-.067,1.086-.76,14.845,6,18.131,7.248,3.559,20.906-6.061,23.136-18.1,1.909-10.33-5.448-18.66-6.641-19.993Z" transform="translate(-583.121 -576.2)" fill="#dee4f0"/>
      <path id="Trazado_100637" data-name="Trazado 100637" d="M730.968,1162.8c-.29.267-.31.89-.333,1.3a1.089,1.089,0,0,0,0,.333c.177.456,1.083.45,2.506.506,2.253.094,2.929.23,3.082-.113s-.283-.81-.333-.863a2.047,2.047,0,0,0-1.143-.533c-1.076-.283-1.8-.43-2.019-.473C731.384,1162.675,731.157,1162.625,730.968,1162.8Z" transform="translate(-568.707 -797.368)" fill="url(#linear-gradient-27)"/>
      <path id="Trazado_100638" data-name="Trazado 100638" d="M732.816,1156.27l.09,2.562a1.393,1.393,0,0,1-1.433.1l-.443-2.539Z" transform="translate(-568.98 -793.082)" fill="url(#linear-gradient-28)"/>
      <path id="Trazado_100639" data-name="Trazado 100639" d="M787.8,1161.294a1.259,1.259,0,0,0-.21,1.506c.3.383.776.133,2.106.243,1.426.12,1.779.476,2.762.26.4-.087,1.106-.313,1.106-.593,0-.2-.333-.333-1.5-.776a16.915,16.915,0,0,0-2-.756C789.2,1160.981,788.318,1160.787,787.8,1161.294Z" transform="translate(-606.585 -796.217)" fill="url(#linear-gradient-29)"/>
      <path id="Trazado_100640" data-name="Trazado 100640" d="M788.133,1155.1l.59,2.419a1.386,1.386,0,0,1-1.423.21l-.94-2.369Z" transform="translate(-605.872 -792.302)" fill="url(#linear-gradient-30)"/>
      <path id="Trazado_100641" data-name="Trazado 100641" d="M755.356,997.59a223.549,223.549,0,0,0,4.225,53.216l-2.779.593a23.291,23.291,0,0,1-6.095-10.723c-.716-3.029-.333-4.548-.7-8.247-.573-5.888-2.2-9.044-3.8-13.852a77.643,77.643,0,0,1-3.666-18.994Z" transform="translate(-576.654 -687.278)" fill="url(#linear-gradient-31)"/>
      <path id="Trazado_100642" data-name="Trazado 100642" d="M753.993,1036.691c-1.02-4.039-3-5.108-3.056-8.921-.05-2.7.92-2.916.856-5.5-.1-3.915-2.393-5.971-3.545-8.434-1.216-2.6-1.666-6.778,1.6-13.729l-7.408,1.146a77.641,77.641,0,0,0,3.665,18.994c1.6,4.808,3.226,7.964,3.8,13.852.36,3.7,0,5.218.7,8.247a23.3,23.3,0,0,0,6.095,10.723l.706-.15a13.671,13.671,0,0,1-3.432-7.437C753.646,1042.143,755.022,1040.767,753.993,1036.691Z" transform="translate(-576.588 -688.958)" opacity="0.3" fill="url(#linear-gradient-32)"/>
      <path id="Trazado_100643" data-name="Trazado 100643" d="M724.186,995.774q-1.666,15.219-3.026,31.02-1.03,11.856-1.833,23.416l-2.819.2a32.652,32.652,0,0,1-2.516-7.687c-.783-4.049-.427-6.408-.64-10.57-.243-4.665-.9-5.721-1.849-11.663-1.926-12.023-2.889-18.034.163-21.58C712.66,997.774,715.726,994.918,724.186,995.774Z" transform="translate(-554.762 -685.963)" fill="url(#linear-gradient-33)"/>
      <path id="Trazado_100644" data-name="Trazado 100644" d="M787.125,857.42a9.129,9.129,0,0,1-.64,3.106c-1.226,3.046-4.149,5.265-3.542,8.664.3,1.706,1.236,2.3.853,3.546-.54,1.759-2.766,1.666-5.132,3.665-2.1,1.766-2.219,3.4-3.3,4.888-1.466,2-4.772,3.859-12.786,3.272a7.444,7.444,0,0,0,2.593,2.149c7.257,3.559,20.916-6.061,23.146-18.1A20.551,20.551,0,0,0,787.125,857.42Z" transform="translate(-590.017 -593.816)" opacity="0.3" fill="url(#linear-gradient-34)"/>
      <path id="Trazado_100645" data-name="Trazado 100645" d="M680.18,894.811a60.954,60.954,0,0,1,36.211-1.023q.76,4.239,1.516,8.474a100.5,100.5,0,0,1-.167,11.2c-.317,4.532-.63,4.6-1.356,11-1.19,10.43-.693,13.156-2.789,14.409-1.363.816-1.856-.17-8.814-.86-4.665-.46-7.048-.666-9.41.123-3.219,1.09-4.3,2.916-5.622,2.332-1.273-.57-1.436-2.769-1.589-6.6-.237-5.908-.223-9.927-.243-11.363-.1-6.6-1.773-11.636-3.912-18.087a87.758,87.758,0,0,0-3.825-9.6Z" transform="translate(-535.074 -616.555)" fill="#dee4f0"/>
      <path id="Trazado_100646" data-name="Trazado 100646" d="M733.519,872.07a19.566,19.566,0,0,1-.553,3.855,3.049,3.049,0,0,1-.61,1.486c-.3.31-.73.56-3.139,1.023-1.31.25-1.476.233-1.51.36-.173.62,3.239,2.939,6.908,2.622,2.246-.2,4.332-1.359,4.252-2.036s-2.332-.436-2.932-1.686c-.417-.873.163-2.046.83-3C736.231,873.546,734.052,873.209,733.519,872.07Z" transform="translate(-566.76 -603.585)" fill="url(#linear-gradient-35)"/>
      <path id="Trazado_100647" data-name="Trazado 100647" d="M745.943,867.368a2.353,2.353,0,0,0,.1-2.692,2.555,2.555,0,0,0-1.793-.913,3.872,3.872,0,0,0-3.939,1.533c-.41.76.3,2.416.413,2.712s.377.463.6.723c.31.36.8.936,1.593,1.9a5.684,5.684,0,0,1,.377-.95,5.067,5.067,0,0,1,.736-1.1C744.82,867.712,745.406,868,745.943,867.368Z" transform="translate(-575.082 -598.007)" fill="url(#linear-gradient-36)"/>
      <path id="Trazado_100648" data-name="Trazado 100648" d="M742.784,875.215a3.189,3.189,0,0,0,2.726,1.563c1.666-.02,2.119-3.749,1.1-4.6a2.109,2.109,0,0,0-1.636-.3c-.333.08-.47.213-1.04.333s-.666.043-.833.167-.37.55-.1,1.666a.913.913,0,0,0-.953-.37.581.581,0,0,0-.233.207C741.551,874.275,741.911,874.842,742.784,875.215Z" transform="translate(-576.112 -603.421)" fill="url(#linear-gradient-37)"/>
      <path id="Trazado_100649" data-name="Trazado 100649" d="M743.31,872.739c.077.067-.187.353-.227.777a2.043,2.043,0,0,0,1.55,2c.5.077.666-.22,1.493-.263a3.807,3.807,0,0,1,1.21.137,2.008,2.008,0,0,1-.706,2.193,2.217,2.217,0,0,1-1.836-.033,2.407,2.407,0,0,1-1.313-1.076c-.367-.733.053-1.143-.386-1.649-.22-.257-.523-.377-.8-.863a2.833,2.833,0,0,1-.153-.333C742.6,873.185,743.2,872.645,743.31,872.739Z" transform="translate(-576.388 -604.023)" fill="url(#linear-gradient-38)"/>
      <path id="Trazado_100650" data-name="Trazado 100650" d="M753.72,881.547a2,2,0,0,1-1,.1c-.03,0-.067,0-.07.02a.773.773,0,0,0,.743.26c.263-.06.48-.3.45-.36S753.766,881.54,753.72,881.547Z" transform="translate(-583.396 -609.892)" fill="url(#linear-gradient-39)"/>
      <path id="Trazado_100651" data-name="Trazado 100651" d="M693.323,981.4l1.666-.093s1.839-1.539,2.666-1.443a7.177,7.177,0,0,1,2.242.8c.153.12-.457.8-1.07.736s-1.972.263-2.219.8-1.3.863-1.479.547l-2.259.45Z" transform="translate(-543.536 -675.454)" fill="url(#linear-gradient-40)"/>
      <path id="Trazado_100652" data-name="Trazado 100652" d="M655.91,926.611a4.16,4.16,0,0,1-.667,2.956c-2.219,2.842-9.763,1.666-14.245-2.129a14.661,14.661,0,0,1-5-11.12c.127-7.664,7.221-15.155,17.774-17.747l4.688,14c-6.508.1-10.46,5-9.873,8.5C649,923.7,652.037,926.037,655.91,926.611Z" transform="translate(-505.616 -621.254)" fill="#dee4f0"/>
      <path id="Trazado_100653" data-name="Trazado 100653" d="M720.772,966.572c-3.422-1.46-3.4-4.482-6.6-5.741-4.562-1.8-9.6,2.379-10.387,1.22s5.2-4.905,4.4-8.554c-.637-2.9-4.838-2.386-7.088-6.354-2.136-3.766-.067-7.248-1.956-8.554-.666-.47-1.873-.667-4.142.333a48.075,48.075,0,0,1,2.8,14.688c.02,1.436,0,5.455.243,11.363.153,3.832.333,6.031,1.589,6.6,1.333.593,2.4-1.233,5.621-2.332,2.363-.8,4.742-.583,9.41-.123,6.958.69,7.451,1.666,8.814.86.886-.53,1.31-1.333,1.593-2.862A8.526,8.526,0,0,1,720.772,966.572Z" transform="translate(-544.956 -647.68)" opacity="0.3" fill="url(#linear-gradient-41)"/>
      <path id="Trazado_100654" data-name="Trazado 100654" d="M1349.429,1045.081a.333.333,0,0,1-.333-.3l-4.268-46.125a.335.335,0,0,1,.666-.06l3.6,38.937V997.6a.333.333,0,0,1,.667,0v47.144A.333.333,0,0,1,1349.429,1045.081Z" transform="translate(-978.244 -687.065)" fill="#b7c0ce"/>
      <path id="Trazado_100655" data-name="Trazado 100655" d="M1333.319,1003.142,1286.5,998.01l-37.208,4.089,47.111,5.641Z" transform="translate(-914.543 -687.558)" fill="#f4f7fa" opacity="0.81"/>
      <path id="Trazado_100656" data-name="Trazado 100656" d="M1296.4,1015.921l36.918-4.6v2.222l-36.918,4.6-47.111-5.642v-2.223Z" transform="translate(-914.543 -695.74)" fill="#b7c0ce"/>
      <path id="Trazado_100657" data-name="Trazado 100657" d="M1390.963,1083.82h0a.333.333,0,0,1-.333-.333v-51.9a.333.333,0,1,1,.667,0v43.369l3.4-43.4a.334.334,0,1,1,.667.053l-4.059,51.906A.334.334,0,0,1,1390.963,1083.82Z" transform="translate(-1008.785 -709.726)" fill="#b7c0ce"/>
      <path id="Trazado_100659" data-name="Trazado 100659" d="M1491.459,1064.161a.333.333,0,0,1-.333-.307l-4-47.908a.333.333,0,1,1,.663-.057l3.332,39.93V1017.08a.333.333,0,0,1,.667,0v46.748a.333.333,0,0,1-.333.333Z" transform="translate(-1073.127 -699.278)" fill="#b7c0ce"/>
      <path id="Trazado_100660" data-name="Trazado 100660" d="M1388.985,1009.24l-36.395-.27v.8a.44.44,0,0,0,.373.437l10.29,1.576a1.728,1.728,0,0,0,.37.016l24.965-1.8a.43.43,0,0,0,.4-.427Z" transform="translate(-983.421 -694.866)" fill="#bfc8d6"/>
      <path id="Trazado_100661" data-name="Trazado 100661" d="M1375.049,976.48l-22.809,1.466a.667.667,0,0,1-.74-.623V962.495a.707.707,0,0,1,.74-.667h22.809a.61.61,0,0,1,.61.607V975.84A.667.667,0,0,1,1375.049,976.48Z" transform="translate(-982.695 -663.433)" fill="#bfc8d6"/>
      <path id="Trazado_100662" data-name="Trazado 100662" d="M1376.139,976.48l-22.809,1.466a.666.666,0,0,1-.74-.623V962.495a.706.706,0,0,1,.74-.667h22.809a.61.61,0,0,1,.61.607V975.84A.667.667,0,0,1,1376.139,976.48Z" transform="translate(-983.421 -663.433)" fill="#d8dee8"/>
      <path id="Trazado_100663" data-name="Trazado 100663" d="M1377.409,977.269l-21.246,1.273a.536.536,0,0,1-.6-.51v-13a.576.576,0,0,1,.6-.546l21.246-.08a.5.5,0,0,1,.5.5v11.823A.54.54,0,0,1,1377.409,977.269Z" transform="translate(-985.401 -665.155)" fill="#eff2f6"/>
      <path id="Trazado_100664" data-name="Trazado 100664" d="M1390.4,962.5a.263.263,0,1,1-.26-.25A.256.256,0,0,1,1390.4,962.5Z" transform="translate(-1008.279 -663.714)" fill="#fff"/>
      <path id="Trazado_100665" data-name="Trazado 100665" d="M1370.737,972.416c-1.769-.86-3.159.23-4.5-.846-.813-.666-.417-1.14-1.416-2.116-1.106-1.08-1.829-.716-2.942-1.686-1.41-1.229-.7-2.186-1.916-3.069-1.473-1.07-3.059-.08-4.462-1.106a3.042,3.042,0,0,1-1.106-1.773h-1.373a.413.413,0,0,0-.433.393v15.382a.383.383,0,0,0,.433.366l23.369-1.5a.393.393,0,0,0,.28-.157,5.574,5.574,0,0,1-3.432-1.113C1371.927,974.142,1372.154,973.105,1370.737,972.416Z" transform="translate(-983.421 -663.427)" fill="#fff" opacity="0.48"/>
      <path id="Trazado_100666" data-name="Trazado 100666" d="M1377.059,1005.661,1352.6,1007.2l10.663,1.636a1.543,1.543,0,0,0,.37,0l25.362-1.826-11.546-1.356A2.533,2.533,0,0,0,1377.059,1005.661Z" transform="translate(-983.428 -692.654)" fill="#fff"/>
      <path id="Trazado_100667" data-name="Trazado 100667" d="M1363.3,1007.743l20.363-1.3,6.3.733-20.187,1.393Z" transform="translate(-990.562 -693.179)" fill="#d8dee8" opacity="0.47"/>
      <path id="Trazado_100668" data-name="Trazado 100668" d="M1429.026,1149.68s-5.348.37-5.428.72,3.632,1.7,4.928,1.749,2.363-.333,2.246-.88-.57-1.929-.57-1.929Z" transform="translate(-1030.766 -788.461)" fill="url(#linear-gradient-42)"/>
      <path id="Trazado_100669" data-name="Trazado 100669" d="M1438.947,1143.23l-.1,2.523a1.963,1.963,0,0,0,1.46.2l.72-2.666Z" transform="translate(-1040.937 -784.388)" fill="url(#linear-gradient-43)"/>
      <path id="Trazado_100670" data-name="Trazado 100670" d="M1384.135,1146.62s-5.332.373-5.428.723,3.632,1.7,4.928,1.75,2.363-.333,2.246-.883-.573-1.929-.573-1.929Z" transform="translate(-1000.834 -786.421)" fill="url(#linear-gradient-44)"/>
      <path id="Trazado_100671" data-name="Trazado 100671" d="M1394.043,1140.17l-.093,2.526a1.951,1.951,0,0,0,1.459.193l.72-2.666Z" transform="translate(-1010.999 -782.347)" fill="url(#linear-gradient-45)"/>
      <path id="Trazado_100672" data-name="Trazado 100672" d="M1434.219,1075.6l3,.333a20.154,20.154,0,0,0,4.442-7.778c2.079-7.074-.93-12.169,1-13.439,2.732-1.8,8.664,8.544,18.161,8.277,3.9-.11,9-2.019,10.95-6.181.3-.626,1.746-3.916.333-7-1.459-3.182-8.7-4.565-23.112-7.2-6.188-1.133-9.31-1.7-10.567-1.1C1429.527,1045.76,1433.236,1069.778,1434.219,1075.6Z" transform="translate(-1036.779 -716.404)" fill="url(#linear-gradient-46)"/>
      <path id="Trazado_100673" data-name="Trazado 100673" d="M1391.617,1081.1l3.1.54c1.256-1.849,3.159-4.749,5.285-8.424,4.428-7.664,4.332-9.224,6.4-10.213,4.332-2.086,7.608,3.555,18.327,5.112,3.506.51,11.29,1.639,14.439-2.556a7.5,7.5,0,0,0,1-7c-1.813-4.359-7.777-3.835-27.434-7.664-7.664-1.493-8.714-1.759-10.57-1.1C1391.794,1053.488,1391.594,1076.068,1391.617,1081.1Z" transform="translate(-1009.443 -721.864)" fill="url(#linear-gradient-47)"/>
      <path id="Trazado_100674" data-name="Trazado 100674" d="M1455.125,950.124a10.663,10.663,0,0,1,4.332-4.665,9.773,9.773,0,0,1,1.626-.87,22,22,0,0,1,8.954-1.506c1.776.133,6.161.46,9.413,3.276,1.573,1.366,2.833,3.269,4.665,14,2.556,14.965.483,13.429,2.5,19.494,1.066,3.212,2.729,6.891.973,9.244-.57.76-1.383.98-3.036,1.723a28.165,28.165,0,0,1-15.092,1.969c-3.706-.367-5.578-.577-6.561-1.886-1.57-2.093.047-4.752.333-9.35.2-3.3-.55-5.921-2.052-11.153C1457.7,958.214,1453.169,954.905,1455.125,950.124Z" transform="translate(-1051.475 -650.922)" fill="#f5ca56"/>
      <path id="Trazado_100675" data-name="Trazado 100675" d="M1387.344,1007.4l-3.949-.76a2.329,2.329,0,0,0-.86,0l-3.416.586a9.342,9.342,0,0,0,4.109.616,7.661,7.661,0,0,1,3.952.78Z" transform="translate(-1001.111 -693.286)" fill="url(#linear-gradient-48)"/>
      <path id="Trazado_100676" data-name="Trazado 100676" d="M1477.32,923.486c-.666-1,.333-2.936.723-3.7l.067-.13c.606-1.113.76-1.266,1.05-1.459l.4-.247.047-.02a4.743,4.743,0,0,1,1.313-.08c.567.123,1.17,2.433,1,5.7l.07.377c.09.516.16,1.023.213,1.516s.723.463,1.2.433c1.926-.123,2.869.04,2.952.333.153.54-2.133,2.3-4.955,2.693-3.789.03-6.871-.377-6.538-.973.147-.263,3.082-1.03,3.906-1.789a2.518,2.518,0,0,0,.756-1.929C1479.129,924.222,1477.826,924.249,1477.32,923.486Z" transform="translate(-1064.932 -634.101)" fill="url(#linear-gradient-49)"/>
      <path id="Trazado_100677" data-name="Trazado 100677" d="M1484.118,913.868c-.31.686.443,2.066.723,2.266a1.627,1.627,0,0,1,.367.4.408.408,0,0,1,.057.12c.223.636-.79,1.386-.6,1.666.143.207.833-.07.913.107s-.493.52-.406.72.42,0,.64.247a.844.844,0,0,1,.2.563c.026.906-2.03,4.182-2.456,5.665-.453,1.566.356,3.059,3.309,7.181,4.2,5.861,6.3,8.79,7.464,9.63,5.7,4.1,12.413,3.592,15.162,3.166,3.305-.513,10.133-1.573,12.329-6.831,2.529-6.045-2.446-14.329-7.551-15.718-2.332-.643-3.579.333-6.611-.72-3.333-1.166-2.943-3.226-6.042-4.445-4.135-1.623-6.8,1.28-9.62-.833-1.533-1.15-1.28-2.412-3.166-3.332S1484.528,912.968,1484.118,913.868Z" transform="translate(-1070.667 -630.947)" fill="#26264f"/>
      <path id="Trazado_100678" data-name="Trazado 100678" d="M1487.479,927.781c.247-.333.667-.02.686.423a.792.792,0,0,1-.84.81C1486.913,928.927,1487.143,928.241,1487.479,927.781Z" transform="translate(-1073.112 -640.638)" fill="url(#linear-gradient-50)"/>
      <path id="Trazado_100679" data-name="Trazado 100679" d="M1478.315,1010.862c-1.09-2.169,1.583-5.055-.163-8.364-1.483-2.812-4.175-2.183-5.415-4.758-1.493-3.109,1.759-5.435,1.643-10.17-.14-5.665-5-11.33-7.874-10.823-1.853.333-2.093,3.086-3.4,6.115a68.545,68.545,0,0,1,3.722,9.96c1.5,5.232,2.253,7.851,2.053,11.153-.283,4.6-1.9,7.258-.333,9.35,1,1.306,2.856,1.52,6.561,1.886a28.167,28.167,0,0,0,15.092-1.969c.783-.353,1.366-.616,1.846-.876C1482.4,1013.814,1479.181,1012.585,1478.315,1010.862Z" transform="translate(-1057.113 -673.359)" opacity="0.3" fill="url(#linear-gradient-51)"/>
      <path id="Trazado_100680" data-name="Trazado 100680" d="M1400.79,971.1c.11-.5.224-1,.333-1.51,7.591,1.36,10.906-.167,12.509-1.953,1.473-1.636.846-2.483,3.2-8.734,2.243-5.955,4.788-7.484,6.071-8.037a2.75,2.75,0,0,1,1.8-.37c2.733.666,3.639,7.794,2.872,13.122-.433,3-1.279,8.894-6.111,11.69l-.417.23c-.606.333-3.025,1.49-7.784.63C1407.651,975.155,1402.193,971.939,1400.79,971.1Z" transform="translate(-1015.56 -655.846)" fill="#f5ca56"/>
      <ellipse id="Elipse_4061" data-name="Elipse 4061" cx="16.578" cy="6.768" rx="16.578" ry="6.768" transform="translate(406.16 367.316)" fill="#b7c0ce"/>
      <path id="Trazado_100681" data-name="Trazado 100681" d="M1496.749,1167.98c0,3.529-7.424,6.388-16.578,6.388s-16.581-2.859-16.581-6.388,7.424-9.3,16.581-9.3S1496.749,1164.451,1496.749,1167.98Z" transform="translate(-1057.433 -794.689)" fill="url(#linear-gradient-52)"/>
      <path id="Trazado_100682" data-name="Trazado 100682" d="M1507.387,1167.98c0-3.526-7.424-9.3-16.578-9.3a22.489,22.489,0,0,0-11,2.906,2.417,2.417,0,0,0-.263,1.263c.19,2,3.429,3.2,5.285,3.605,4.682,1,6.964-1.783,10.823-1.666,2.386.063,5.692,1.263,9.61,6.331C1506.607,1170.189,1507.387,1169.116,1507.387,1167.98Z" transform="translate(-1068.072 -794.689)" opacity="0.3" fill="url(#linear-gradient-53)"/>
      <path id="Trazado_100683" data-name="Trazado 100683" d="M1510.562,1128.56a3.757,3.757,0,0,1-1.863,0,1.2,1.2,0,0,1-.89-1.167V1108.7h3.689v18.661A1.223,1.223,0,0,1,1510.562,1128.56Z" transform="translate(-1086.918 -761.364)" fill="#fff"/>
      <path id="Trazado_100684" data-name="Trazado 100684" d="M1510.562,1128.56a3.757,3.757,0,0,1-1.863,0,1.2,1.2,0,0,1-.89-1.167V1108.7h3.689v18.661A1.223,1.223,0,0,1,1510.562,1128.56Z" transform="translate(-1086.918 -761.364)" opacity="0.65" fill="url(#linear-gradient-54)"/>
      <path id="Trazado_100685" data-name="Trazado 100685" d="M1452.111,1035.7l5.632-3.559c.233-1.333,2.889-15.245,13.662-19.614,4.385-1.776,9.1-1.566,11.689-1.449,5.165.23,8.854.4,10.624,2.859,2.279,3.165-1.54,6.034-.75,15.088.333,3.692,1.143,5.332.12,7.777-1.223,2.929-4.058,4.555-6.265,5.468a32.092,32.092,0,0,1-13.289,4.245,33.094,33.094,0,0,1-20.46-5.162,3.379,3.379,0,0,1-2.289-2.536A2.969,2.969,0,0,1,1452.111,1035.7Z" transform="translate(-1048.853 -696.224)" fill="url(#linear-gradient-55)"/>
      <g id="Grupo_55028" data-name="Grupo 55028" transform="translate(280.198 325.474)">
        <path id="Trazado_100658" data-name="Trazado 100658" d="M1250.163,1064.155h0a.333.333,0,0,1-.333-.333v-47.911a.333.333,0,0,1,.667,0v39.41l3.1-39.437a.334.334,0,0,1,.667.053l-3.762,47.908A.333.333,0,0,1,1250.163,1064.155Z" transform="translate(-1176.99 -1015.577)" fill="#b7c0ce"/>
        <path id="Trazado_100687" data-name="Trazado 100687" d="M1131.389,1084.291a.333.333,0,0,1-.333-.3l-4.269-46.125a.333.333,0,0,1,.663-.064l3.605,38.941v-39.947a.333.333,0,0,1,.667,0v47.165A.333.333,0,0,1,1131.389,1084.291Z" transform="translate(-1094.947 -1029.501)" fill="#b7c0ce"/>
        <path id="Trazado_100688" data-name="Trazado 100688" d="M1115.272,1042.338l-46.821-5.128-37.211,4.089,47.115,5.641Z" transform="translate(-1031.24 -1030.001)" fill="#f4f7fa" opacity="0.81"/>
        <path id="Trazado_100689" data-name="Trazado 100689" d="M1078.354,1055.121l36.918-4.6v2.223l-36.918,4.6-47.115-5.641v-2.223Z" transform="translate(-1031.24 -1038.182)" fill="#b7c0ce"/>
        <path id="Trazado_100690" data-name="Trazado 100690" d="M1172.913,1123.023h0a.333.333,0,0,1-.333-.333v-51.906a.333.333,0,0,1,.666,0v43.373l3.4-43.4a.332.332,0,1,1,.663.05l-4.059,51.906a.334.334,0,0,1-.333.307Z" transform="translate(-1125.482 -1052.164)" fill="#b7c0ce"/>
        <path id="Trazado_100691" data-name="Trazado 100691" d="M1032.123,1103.325h0a.333.333,0,0,1-.333-.333v-47.908a.333.333,0,0,1,.666,0v39.394l3.1-39.434a.334.334,0,1,1,.666.053l-3.762,47.908A.333.333,0,0,1,1032.123,1103.325Z" transform="translate(-1031.606 -1041.687)" fill="#b7c0ce"/>
        <path id="Trazado_100692" data-name="Trazado 100692" d="M1273.42,1103.352a.333.333,0,0,1-.333-.3l-4-47.911a.334.334,0,0,1,.667-.053l3.332,39.927v-38.737a.333.333,0,1,1,.666,0v46.745A.333.333,0,0,1,1273.42,1103.352Z" transform="translate(-1189.83 -1041.714)" fill="#b7c0ce"/>
      </g>
      <ellipse id="Elipse_4062" data-name="Elipse 4062" cx="16.578" cy="6.768" rx="16.578" ry="6.768" transform="translate(351.615 389.548)" fill="#b7c0ce"/>
      <g id="Grupo_55030" data-name="Grupo 55030" transform="translate(347.324 337.014)">
        <path id="Trazado_100711" data-name="Trazado 100711" d="M1278.709,1207.18c0,3.525-7.424,6.388-16.578,6.388s-16.581-2.862-16.581-6.388,7.424-9.3,16.581-9.3S1278.709,1203.651,1278.709,1207.18Z" transform="translate(-1241.262 -1148.672)" fill="url(#linear-gradient-52)"/>
        <path id="Trazado_100712" data-name="Trazado 100712" d="M1289.347,1207.18c0-3.529-7.424-9.3-16.578-9.3a22.524,22.524,0,0,0-11,2.9,2.415,2.415,0,0,0-.263,1.263c.19,2,3.429,3.206,5.285,3.609,4.682,1,6.964-1.786,10.823-1.666,2.386.066,5.691,1.263,9.61,6.331C1288.568,1209.386,1289.347,1208.32,1289.347,1207.18Z" transform="translate(-1251.901 -1148.672)" opacity="0.3" fill="url(#linear-gradient-53)"/>
        <path id="Trazado_100714" data-name="Trazado 100714" d="M1292.492,1167.76a3.788,3.788,0,0,1-1.863,0,1.2,1.2,0,0,1-.89-1.166V1147.9h3.689v18.661a1.226,1.226,0,0,1-.936,1.2Z" transform="translate(-1270.726 -1115.346)" fill="#fff" opacity="0.65"/>
        <path id="Trazado_100715" data-name="Trazado 100715" d="M1234.07,1074.9l5.631-3.562c.233-1.333,2.889-15.242,13.662-19.61,4.382-1.776,9.1-1.566,11.69-1.45,5.165.23,8.85.393,10.623,2.859,2.279,3.166-1.54,6.035-.75,15.088.333,3.692,1.143,5.332.12,7.777-1.223,2.929-4.059,4.552-6.265,5.468a32.1,32.1,0,0,1-13.289,4.242,33.069,33.069,0,0,1-20.46-5.162,3.369,3.369,0,0,1-2.289-2.532,2.966,2.966,0,0,1,1.326-3.119Z" transform="translate(-1232.681 -1050.207)" fill="#444b8c"/>
      </g>
      <path id="Trazado_100701" data-name="Trazado 100701" d="M1203.736,1025.641l-.2-1.889-1.086-2.069a1.951,1.951,0,0,1-.226-.916v-2.056l1.313,3.032a10,10,0,0,1,1.19-.943c.333-.163.287.493.04.74s.123,2.256-.123,2.459l.083,1.23Z" transform="translate(-864.82 -691.735)" fill="url(#linear-gradient-58)"/>
      <g id="Grupo_55029" data-name="Grupo 55029" transform="translate(332.368 300.829)">
        <path id="Trazado_100693" data-name="Trazado 100693" d="M1217.434,1192.8c.087-.483,1.666-.92,2.423-.273.387.333.667.973.427,1.27-.08.107.253.293-.067.3C1219.163,1194.1,1217.347,1193.272,1217.434,1192.8Z" transform="translate(-1207.557 -1108.701)" fill="url(#linear-gradient-59)"/>
        <path id="Trazado_100694" data-name="Trazado 100694" d="M1222.536,1186.566l1.619.08c-.56-1.02.113-3.8.113-3.8l-1.749.05s.043.806.15,2A7.569,7.569,0,0,1,1222.536,1186.566Z" transform="translate(-1210.951 -1102.465)" fill="url(#linear-gradient-60)"/>
        <path id="Trazado_100695" data-name="Trazado 100695" d="M1221.873,1193.472s1.933-.446,2.143-.063.373,1.413-.856,1.379S1221.763,1193.8,1221.873,1193.472Z" transform="translate(-1210.5 -1109.402)" fill="url(#linear-gradient-61)"/>
        <path id="Trazado_100696" data-name="Trazado 100696" d="M1187.81,1199.04c.153-.466,1.763-.683,2.439.067.333.373.5,1.056.243,1.333-.1.093.207.333-.11.287C1189.34,1200.573,1187.657,1199.5,1187.81,1199.04Z" transform="translate(-1187.8 -1112.977)" fill="url(#linear-gradient-62)"/>
        <path id="Trazado_100697" data-name="Trazado 100697" d="M1193.53,1193.969l1.593.313c-.41-1.09.667-3.742.667-3.742l-1.74-.2s-.073.8-.14,2A7.35,7.35,0,0,1,1193.53,1193.969Z" transform="translate(-1191.621 -1107.459)" fill="url(#linear-gradient-63)"/>
        <path id="Trazado_100698" data-name="Trazado 100698" d="M1192.15,1200.379s1.979-.17,2.133.237.17,1.449-1.043,1.246S1192,1200.686,1192.15,1200.379Z" transform="translate(-1190.657 -1114.13)" fill="url(#linear-gradient-64)"/>
        <path id="Trazado_100699" data-name="Trazado 100699" d="M1203.768,1012.986l-6.834-15.995a1.406,1.406,0,0,1,.963-1.919l12.519-3.042a1.4,1.4,0,0,1,1.633.836l6.288,15.385a1.41,1.41,0,0,1-.893,1.879l-11.969,3.666A1.41,1.41,0,0,1,1203.768,1012.986Z" transform="translate(-1193.815 -975.204)" fill="#26264f"/>
        <path id="Trazado_100700" data-name="Trazado 100700" d="M1205.627,1013.432l-6.385-14.955a1.333,1.333,0,0,1,.9-1.793l11.693-2.839a1.313,1.313,0,0,1,1.526.78l5.871,14.372a1.313,1.313,0,0,1-.833,1.753l-11.18,3.422A1.313,1.313,0,0,1,1205.627,1013.432Z" transform="translate(-1195.364 -976.416)" fill="url(#linear-gradient-65)"/>
        <path id="Trazado_100702" data-name="Trazado 100702" d="M1237.064,985.7a10.642,10.642,0,0,1,4.332-4.665c2.689-1.759,4.409-1.44,10.58-2.379,8.227-1.25,9.21-2.436,11.976-1.476,3.632,1.263,5.528,4.558,6.4,6.068,4.382,7.618-.743,11.486.573,26.658.537,6.2,1.913,11.58-1.4,14.765a10.071,10.071,0,0,1-3.032,1.723,28.189,28.189,0,0,1-15.092,1.966c-3.706-.366-5.578-.577-6.561-1.886-1.569-2.089.047-4.748.333-9.35.2-3.3-.55-5.918-2.053-11.153C1239.653,993.787,1235.118,990.482,1237.064,985.7Z" transform="translate(-1220.336 -965.095)" fill="#aee6e6"/>
        <path id="Trazado_100703" data-name="Trazado 100703" d="M1273.634,959.493a3.956,3.956,0,0,1,.423-2.836c.6-1.113.76-1.266,1.046-1.459l.4-.247.05-.02a4.726,4.726,0,0,1,1.31-.08c.567.123,1.173,2.433,1,5.7.023.127.047.25.067.377.09.516.16,1.023.216,1.516s.723.463,1.2.433c1.929-.123,2.872.04,2.952.333.156.54-2.13,2.3-4.955,2.692-3.786.03-6.868-.373-6.538-.97.147-.267,3.082-1.033,3.909-1.793a2.531,2.531,0,0,0,.756-1.929C1275.237,961.083,1273.907,960.476,1273.634,959.493Z" transform="translate(-1243.127 -950.431)" fill="url(#linear-gradient-66)"/>
        <path id="Trazado_100704" data-name="Trazado 100704" d="M1281.44,945.207a3.827,3.827,0,0,0,.723,2.269,1.673,1.673,0,0,1,.367.4.506.506,0,0,1,.057.12c.223.637-.793,1.386-.6,1.666.143.207.83-.07.913.11s-.5.516-.406.716.417,0,.64.247c.11.117.076.21.2.563a3.2,3.2,0,0,0,.23.543c.333.593,1.333.813,1.533.573.05-.067,0-.12.06-.333a1.8,1.8,0,0,1,.193-.447,4.806,4.806,0,0,1,1.2-.943,3.28,3.28,0,0,0,1.25-1.423c.027-.07.043-.12.057-.157a3.779,3.779,0,0,0-.094-2.516c-.563-1.13-1.829-.593-2.866-1.713-1.2-1.29-.487-3.052-1.136-3.249C1283.046,941.411,1281.433,943.337,1281.44,945.207Z" transform="translate(-1250.236 -941.617)" fill="#26264f"/>
        <path id="Trazado_100705" data-name="Trazado 100705" d="M1283.428,964.789c.25-.333.666-.023.686.42a.789.789,0,0,1-.84.81C1282.858,965.929,1283.095,965.246,1283.428,964.789Z" transform="translate(-1251.312 -956.974)" fill="url(#linear-gradient-67)"/>
        <path id="Trazado_100706" data-name="Trazado 100706" d="M1279.751,962.85l-.576.75s-.62.916-1,.413c-.3-.41-.373-.4-.39-.383h0s.043-.2.087-.38a3.3,3.3,0,0,0-.49,1.056,1.867,1.867,0,0,0,0,1.443,1.449,1.449,0,0,0,.846.666,3.9,3.9,0,0,0,1.113-.11s-.983-.713-1-.883c-.04-.46.6-.71,1.073-1.666A3.933,3.933,0,0,0,1279.751,962.85Z" transform="translate(-1247.432 -955.774)" fill="#26264f"/>
        <path id="Trazado_100707" data-name="Trazado 100707" d="M1260.275,1050.056c-1.09-2.173,1.583-5.058-.163-8.367-1.483-2.809-4.175-2.179-5.415-4.755-1.493-3.112,1.759-5.438,1.643-10.17-.14-5.665-5-11.33-7.874-10.827-1.853.333-2.093,3.089-3.4,6.115a68.71,68.71,0,0,1,3.722,9.96c1.5,5.235,2.253,7.851,2.053,11.153-.283,4.6-1.9,7.261-.333,9.35.983,1.31,2.856,1.52,6.561,1.886a28.189,28.189,0,0,0,15.092-1.966c.783-.353,1.366-.616,1.846-.876C1264.374,1053.009,1261.141,1051.776,1260.275,1050.056Z" transform="translate(-1225.986 -991.151)" opacity="0.3" fill="url(#linear-gradient-68)"/>
        <path id="Trazado_100708" data-name="Trazado 100708" d="M1205.6,1005.892l1.8-.78c1.016,1.04,2.312,2.049,3.4,1.723,1.626-.49,1.22-3.479,3.2-8.734,2.243-5.955,4.789-7.484,6.072-8.037a2.73,2.73,0,0,1,1.8-.37c2.732.666,3.639,7.791,2.869,13.122-.43,3-1.28,8.89-6.108,11.686-.686.4-4.465,2.583-8.2.863C1207.241,1013.892,1205.268,1010.12,1205.6,1005.892Z" transform="translate(-1199.644 -973.641)" fill="#aee6e6"/>
        <path id="Trazado_100709" data-name="Trazado 100709" d="M1216.179,1114.433l3,.333a20.135,20.135,0,0,0,4.442-7.774c2.066-7.028-1.166-11.643,1-13.439,2.5-2.076,7.434,3.525,18.327,5.108,3.509.51,11.29,1.639,14.442-2.556a7.5,7.5,0,0,0,1-7c-1.813-4.359-7.781-3.836-27.438-7.664-7.571-1.473-8.767-1.956-10.566-1.1C1211.487,1084.593,1215.2,1108.6,1216.179,1114.433Z" transform="translate(-1205.653 -1033.834)" fill="url(#linear-gradient-69)"/>
        <path id="Trazado_100710" data-name="Trazado 100710" d="M1189.4,1122.938l3,.333a20.177,20.177,0,0,0,4.445-7.778c2.063-7.028-1.17-11.639,1-13.439,2.5-2.073,7.431,3.529,18.327,5.108,3.505.51,11.29,1.639,14.439-2.553a7.5,7.5,0,0,0,1-7c-1.813-4.362-7.778-3.835-27.435-7.664-7.574-1.476-8.77-1.959-10.57-1.1C1184.709,1093.091,1188.422,1117.107,1189.4,1122.938Z" transform="translate(-1187.798 -1039.504)" fill="url(#linear-gradient-70)"/>
      </g>
    </g>
  </g>
</svg>
