<svg xmlns="http://www.w3.org/2000/svg" xmlns:xlink="http://www.w3.org/1999/xlink" width="91.927" height="91.927" viewBox="0 0 91.927 91.927">
  <defs>
    <radialGradient id="radial-gradient" cx="0.076" cy="0.019" r="1.465" gradientTransform="translate(0.001)" gradientUnits="objectBoundingBox">
      <stop offset="0" stop-color="#f6f6f7"/>
      <stop offset="0.477" stop-color="#f9f9fa"/>
      <stop offset="0.715" stop-color="#fff"/>
    </radialGradient>
  </defs>
  <g id="Grupo_54465" data-name="Grupo 54465" transform="translate(-217 -741.333)">
    <g id="Grupo_42274" data-name="Grupo 42274" transform="translate(142 768.333)">
      <g id="Grupo_18423" data-name="Grupo 18423" transform="translate(75 -27)">
        <g id="Grupo_18421" data-name="Grupo 18421">
          <g id="Grupo_18420" data-name="Grupo 18420">
            <g id="Grupo_18419" data-name="Grupo 18419">
              <path id="Trazado_40936" data-name="Trazado 40936" d="M286.55,2191.684a45.964,45.964,0,1,1-45.963-45.962A45.963,45.963,0,0,1,286.55,2191.684Z" transform="translate(-194.623 -2145.721)" fill="#fff"/>
            </g>
          </g>
        </g>
        <path id="Trazado_40937" data-name="Trazado 40937" d="M286.23,2191.334a45.963,45.963,0,1,0-45.963,45.965A45.782,45.782,0,0,0,286.23,2191.334Z" transform="translate(-194.303 -2145.372)" fill="url(#radial-gradient)"/>
        <path id="Trazado_40938" data-name="Trazado 40938" d="M272.56,2188.562a35.084,35.084,0,1,0-35.084,35.084A34.953,34.953,0,0,0,272.56,2188.562Z" transform="translate(-191.373 -2142.446)" fill="none" stroke="#7d6eb2" stroke-miterlimit="10" stroke-width="4"/>
        <g id="Grupo_18422" data-name="Grupo 18422" transform="translate(8.143 25.805)">
          <path id="Trazado_40939" data-name="Trazado 40939" d="M279.682,2164.488a45.969,45.969,0,0,1-79.137,45.773,45.823,45.823,0,0,0,79.137-45.773Z" transform="translate(-200.545 -2164.488)" fill="#eceef0"/>
        </g>
      </g>
    </g>
    <g id="Grupo_46654" data-name="Grupo 46654" transform="translate(3036.396 -990.569)">
      <path id="Trazado_97027" data-name="Trazado 97027" d="M-2568,1752.243a1.142,1.142,0,0,1,.506,1.123c-.024.537,0,1.075-.009,1.612s-.324.891-.765.888-.737-.348-.745-.9.02-1.11-.009-1.663a1.067,1.067,0,0,1,.517-1.061Z" transform="translate(-204.23)" fill="#00223d"/>
      <path id="Trazado_97028" data-name="Trazado 97028" d="M-2711.75,1848.778c0,.879.006,1.668,0,2.456a1.676,1.676,0,0,1-1.866,1.875q-3.207.006-6.415,0a1.675,1.675,0,0,1-1.861-1.877c-.005-.789,0-1.579,0-2.45-.38,0-.726.008-1.072,0a1.7,1.7,0,0,1-1.784-1.626,14.776,14.776,0,0,1,.009-1.914,1.693,1.693,0,0,1,.872-1.393.668.668,0,0,0,.246-.476c.028-.672-.01-1.348.024-2.019a.582.582,0,0,0-.413-.639,16.632,16.632,0,0,1-6.075-4.738,16.923,16.923,0,0,1-3.831-10,16.854,16.854,0,0,1,3.807-11.774,16.7,16.7,0,0,1,11.059-6.24,16.516,16.516,0,0,1,7.661.741,1.068,1.068,0,0,0,.99-.025,1.151,1.151,0,0,1,1.392.259,9.206,9.206,0,0,1,.713.715.5.5,0,0,0,.648.17.5.5,0,0,0,.336-.582c-.015-.336-.018-.674,0-1.01a1.284,1.284,0,0,1,1.327-1.3q1.313-.02,2.626,0a1.254,1.254,0,0,1,1.309,1.3,10.668,10.668,0,0,0,.021,1.109.657.657,0,0,0,.344.441.674.674,0,0,0,.555-.081,8.814,8.814,0,0,0,.723-.7,1.287,1.287,0,0,1,1.966.007q.923.9,1.812,1.831a1.273,1.273,0,0,1-.009,1.852c-.217.234-.439.467-.677.679a.521.521,0,0,0-.179.689c.135.325.337.362.626.348.319-.016.64-.014.959,0a1.258,1.258,0,0,1,1.281,1.231c.031.942.032,1.886,0,2.828a1.257,1.257,0,0,1-1.292,1.218c-.32.009-.641.019-.96,0a.531.531,0,0,0-.619.359c-.141.325-.017.491.194.686.247.228.484.469.709.719a1.248,1.248,0,0,1,.025,1.738c-.631.677-1.274,1.347-1.965,1.961a4.933,4.933,0,0,1-1.16.553c-.033.4-.068.929-.125,1.458-.064.6-.376.886-.856.831-.462-.053-.68-.425-.637-1.024.053-.739.086-1.478.115-2.218a3.669,3.669,0,0,0-.055-.534c-.738.079-.787.132-.79.78,0,.337.009.675-.016,1.009a1.211,1.211,0,0,1-1.139,1.145q-1.464.041-2.929,0a1.257,1.257,0,0,1-1.178-1.23,10.519,10.519,0,0,1,0-1.06c.009-.269-.021-.464-.332-.585a.5.5,0,0,0-.65.16,8.114,8.114,0,0,1-.751.748,1.211,1.211,0,0,1-1.734,0c-.7-.653-1.376-1.339-2.028-2.042a1.228,1.228,0,0,1,0-1.622,3.842,3.842,0,0,1,.633-.65c.464-.347.484-.717.107-1.183-.429,0-.9.01-1.37,0a1.259,1.259,0,0,1-1.275-1.284c-.015-.909-.018-1.818,0-2.727a1.256,1.256,0,0,1,1.246-1.261c.353-.015.708-.014,1.06,0,.259.011.435-.031.539-.318.1-.265.135-.459-.111-.664a7.826,7.826,0,0,1-.679-.677,1.3,1.3,0,0,1,.006-1.965,6.843,6.843,0,0,1,.71-.555l-.1-.252c-1.152-.2-2.3-.5-3.459-.59a15.085,15.085,0,0,0-10.855,3.229,14.963,14.963,0,0,0-5.915,10.368c-.748,6.683,1.792,11.885,7.413,15.566a15.931,15.931,0,0,0,2.109,1.072.994.994,0,0,1,.659,1.017c-.016.973,0,1.946,0,2.948h1v-5.331c-1.21-.3-1.42-.575-1.42-1.811,0-.5-.012-1.011.009-1.515a1.229,1.229,0,0,1,1.228-1.219c.639-.02,1.28-.017,1.919,0a1.26,1.26,0,0,1,1.284,1.229c.033.672.035,1.348,0,2.02-.034.711-.422,1.042-1.446,1.308v5.313h2.275v-.514c0-1.886,0-3.771,0-5.657,0-.589.3-.916.787-.892.466.023.724.356.725.968q.008,2.778,0,5.556v.538h1.552v-3.237c0-.758.025-1.517-.014-2.272a1.261,1.261,0,0,0-.3-.759c-1.761-1.81-3.546-3.6-5.324-5.389a1.892,1.892,0,0,0-.188-.149c-1,.576-1.377.524-2.179-.288-.343-.348-.693-.688-1.025-1.046a1.263,1.263,0,0,1-.008-1.813c.413-.443.842-.873,1.281-1.291a1.273,1.273,0,0,1,1.96,0c.307.287.6.595.893.893.938.939.972,1.381.113,2.517.291.253.612.5.9.785,1.548,1.547,3.082,3.109,4.633,4.653a2.5,2.5,0,0,1,.785,1.894c-.018,1.65-.005,3.3-.005,4.95v.564h1.072v-8.42c-.077-.013-.153-.031-.23-.04a1.28,1.28,0,0,1-1.231-1.288c-.028-.622-.03-1.246-.008-1.868a1.282,1.282,0,0,1,1.339-1.338c.589-.021,1.179-.016,1.767,0a1.271,1.271,0,0,1,1.342,1.328c.02.521.008,1.044.006,1.566,0,1.047-.359,1.467-1.439,1.644v4.124c.878-.551,1.68-.994,2.415-1.528a15.382,15.382,0,0,0,4.738-5.618c.372-.74.746-.951,1.218-.719s.508.662.132,1.4a16.9,16.9,0,0,1-8.048,7.845.672.672,0,0,0-.466.764,10.286,10.286,0,0,1,.006,1.212,1.5,1.5,0,0,0,.59,1.494c.9.669.888,3.343.045,4.1a2.686,2.686,0,0,1-1.163.509A5.516,5.516,0,0,1-2711.75,1848.778Zm.271-26.486,1.584,1.594c.707-.635,1.244-1.546,2.5-1.162,1.5.46,1.771,1.522,1.573,2.881h2.272c-.071-1.168-.064-2.2,1.284-2.766,1.382-.582,2.059.278,2.772,1.018l1.635-1.563c-.833-.759-1.617-1.469-1.064-2.834s1.641-1.329,2.759-1.292v-2.263c-1.161.08-2.191.058-2.756-1.277-.583-1.38.267-2.087,1.014-2.809l-1.587-1.6c-.736.808-1.439,1.6-2.81,1.012-1.344-.574-1.292-1.636-1.259-2.744h-2.267c.151,1.274.015,2.309-1.413,2.819-1.314.469-1.92-.394-2.6-1.057l-1.623,1.56c.836.751,1.575,1.487,1.022,2.84s-1.625,1.3-2.73,1.269v2.265c1.209-.1,2.24-.024,2.77,1.351C-2709.886,1820.863-2710.68,1821.543-2711.479,1822.293Zm-5.339,24.976v0c1.967,0,3.934-.006,5.9.006.385,0,.563-.123.541-.522a7.891,7.891,0,0,1,0-1.008c.034-.453-.131-.627-.6-.62-1.546.023-3.093.009-4.64.009-2.354,0-4.708.009-7.062-.008-.438,0-.62.142-.592.58a7.165,7.165,0,0,1,0,.958c-.031.448.123.623.6.618C-2720.719,1847.255-2718.769,1847.268-2716.818,1847.268Zm3.506,3.639h-7.033c-.06.687-.06.688.562.688,1.981,0,3.963-.019,5.945.01C-2713.31,1851.614-2713.179,1851.429-2713.312,1850.907Zm.022-2.087h-7.088l.038.5h7.05Zm-7.694-18.339,1.024-.987-1-.963-.949,1Zm9.478,3.1h1.359V1832.2h-1.359Zm-8.107,3.063v-1.392h-1.355v1.392Z" transform="translate(-56.004 -49.144)" fill="#00223d"/>
      <path id="Trazado_97029" data-name="Trazado 97029" d="M-2582.158,1958.374c-1.318-.37-1.481-.591-1.481-1.969,0-.42-.013-.841,0-1.26a1.3,1.3,0,0,1,1.381-1.346q.857-.011,1.714,0a1.274,1.274,0,0,1,1.354,1.312c.021.486.009.974.009,1.462,0,1.185-.251,1.5-1.463,1.789v.97q0,1.664,0,3.328c0,.719-.263,1.077-.774,1.069-.5-.007-.739-.347-.74-1.043q0-1.916,0-3.832C-2582.158,1958.689-2582.158,1958.525-2582.158,1958.374Zm1.421-1.613v-1.422h-1.345v1.422Z" transform="translate(-191.09 -181.149)" fill="#00223d"/>
      <path id="Trazado_97030" data-name="Trazado 97030" d="M-2650.138,1936.9c.3,0,.6-.008.907,0a1.27,1.27,0,0,1,1.314,1.251,19.8,19.8,0,0,1-.007,2.015,1.229,1.229,0,0,1-1.226,1.225,18.207,18.207,0,0,1-1.964,0,1.25,1.25,0,0,1-1.238-1.272c-.029-.62-.025-1.243-.006-1.864a1.3,1.3,0,0,1,1.413-1.361C-2650.676,1936.892-2650.407,1936.9-2650.138,1936.9Zm.681,1.538h-1.354v1.421h1.354Z" transform="translate(-129.318 -165.96)" fill="#00223d"/>
      <path id="Trazado_97031" data-name="Trazado 97031" d="M-2615.865,1884.042c-.319,0-.639.01-.958,0a1.24,1.24,0,0,1-1.234-1.211q-.034-1.032,0-2.066a1.208,1.208,0,0,1,1.191-1.194c.67-.029,1.344-.029,2.015,0a1.245,1.245,0,0,1,1.223,1.231c.031.67.032,1.344,0,2.015a1.272,1.272,0,0,1-1.331,1.229c-.3.006-.6,0-.907,0Zm.7-1.534v-1.4h-1.354v1.4Z" transform="translate(-160.145 -114.418)" fill="#00223d"/>
      <path id="Trazado_97032" data-name="Trazado 97032" d="M-2778.983,1893.7a4.111,4.111,0,0,1,.431.113c.648.272,1.3.533,1.938.833a.709.709,0,0,1,.41.958.731.731,0,0,1-1,.418c-.655-.255-1.3-.543-1.934-.844a.652.652,0,0,1-.4-.868A2.415,2.415,0,0,1-2778.983,1893.7Z" transform="translate(-14.979 -127.141)" fill="#00223d"/>
      <path id="Trazado_97033" data-name="Trazado 97033" d="M-2795.33,1959.232c.645.081,1.329.151,2.008.258a.738.738,0,0,1,.663.807.774.774,0,0,1-.854.678c-.684-.064-1.367-.147-2.044-.254a.748.748,0,0,1-.687-.836A.807.807,0,0,1-2795.33,1959.232Z" transform="translate(0 -186.037)" fill="#00223d"/>
      <path id="Trazado_97034" data-name="Trazado 97034" d="M-2694.363,1791.632a2.188,2.188,0,0,1,.534.421c.379.51.718,1.051,1.053,1.59a.77.77,0,0,1-.158,1.114.756.756,0,0,1-1.086-.271c-.384-.548-.757-1.107-1.1-1.683C-2695.44,1792.257-2695.115,1791.651-2694.363,1791.632Z" transform="translate(-90.788 -35.402)" fill="#00223d"/>
      <path id="Trazado_97035" data-name="Trazado 97035" d="M-2790.818,2022.639c.5.014.8.2.875.624a.679.679,0,0,1-.534.844c-.733.167-1.477.3-2.223.4a.668.668,0,0,1-.762-.585.674.674,0,0,1,.51-.857C-2792.221,2022.885-2791.476,2022.767-2790.818,2022.639Z" transform="translate(-2.493 -243.026)" fill="#00223d"/>
      <path id="Trazado_97036" data-name="Trazado 97036" d="M-2633.962,1762.65c.12.124.424.311.53.576a15.972,15.972,0,0,1,.589,1.92.75.75,0,0,1-.508,1,.762.762,0,0,1-.944-.608c-.2-.606-.386-1.214-.549-1.83C-2635,1763.13-2634.683,1762.672-2633.962,1762.65Z" transform="translate(-145.039 -9.354)" fill="#00223d"/>
      <path id="Trazado_97037" data-name="Trazado 97037" d="M-2742.044,1839.142c.011.66-.617,1.07-1.089.734a18.327,18.327,0,0,1-1.816-1.519.6.6,0,0,1-.012-.908c.2-.178.671-.341.828-.232a23.29,23.29,0,0,1,1.975,1.631C-2742.072,1838.925-2742.063,1839.091-2742.044,1839.142Z" transform="translate(-45.921 -76.342)" fill="#00223d"/>
      <path id="Trazado_97038" data-name="Trazado 97038" d="M-2768.52,2079.036a3.33,3.33,0,0,1,.668.649.6.6,0,0,1-.248.834c-.685.384-1.387.743-2.1,1.067a.587.587,0,0,1-.814-.3c-.1-.244-.119-.727.016-.817C-2770.229,2079.96-2769.4,2079.534-2768.52,2079.036Z" transform="translate(-22.613 -293.715)" fill="#00223d"/>
      <path id="Trazado_97039" data-name="Trazado 97039" d="M-2730.6,2129.642c.173.136.454.256.545.46a.835.835,0,0,1-.037.736,19.615,19.615,0,0,1-1.732,1.671.643.643,0,0,1-.945-.127.645.645,0,0,1-.044-.916c.538-.572,1.123-1.1,1.7-1.632A1.775,1.775,0,0,1-2730.6,2129.642Z" transform="translate(-56.868 -339.199)" fill="#00223d"/>
      <path id="Trazado_97050" data-name="Trazado 97050" d="M-2496.32,1860.315a5.24,5.24,0,0,1,6.781-5.042.769.769,0,0,1,.628.979.767.767,0,0,1-1.065.475,3.708,3.708,0,0,0-3.014.353,3.775,3.775,0,0,0-1.505,4.709,3.687,3.687,0,0,0,4.615,2.029,3.753,3.753,0,0,0,2.4-4.271c-.032-.148-.075-.294-.1-.442a.754.754,0,0,1,.544-.939.748.748,0,0,1,.922.575,5.234,5.234,0,0,1-.1,3.417,5.237,5.237,0,0,1-6.648,3.085A5.3,5.3,0,0,1-2496.32,1860.315Z" transform="translate(-269.575 -92.393)" fill="#00223d"/>
      <path id="Trazado_97051" data-name="Trazado 97051" d="M-2468.3,1886.029a2.662,2.662,0,0,1-2.66-2.663,2.668,2.668,0,0,1,2.641-2.633,2.643,2.643,0,0,1,2.649,2.665A2.637,2.637,0,0,1-2468.3,1886.029Zm1.1-2.666a1.112,1.112,0,0,0-1.131-1.108,1.148,1.148,0,0,0-1.106,1.146,1.141,1.141,0,0,0,1.144,1.107A1.112,1.112,0,0,0-2467.2,1883.362Z" transform="translate(-292.366 -115.483)" fill="#00223d"/>
    </g>
  </g>
</svg>
