<svg xmlns="http://www.w3.org/2000/svg" xmlns:xlink="http://www.w3.org/1999/xlink" width="91.927" height="91.927" viewBox="0 0 91.927 91.927">
  <defs>
    <radialGradient id="radial-gradient" cx="0.076" cy="0.019" r="1.465" gradientTransform="translate(0.001)" gradientUnits="objectBoundingBox">
      <stop offset="0" stop-color="#f6f6f7"/>
      <stop offset="0.477" stop-color="#f9f9fa"/>
      <stop offset="0.715" stop-color="#fff"/>
    </radialGradient>
  </defs>
  <g id="Grupo_54472" data-name="Grupo 54472" transform="translate(-217 -741.333)">
    <g id="Grupo_42274" data-name="Grupo 42274" transform="translate(142 768.333)">
      <g id="Grupo_18423" data-name="Grupo 18423" transform="translate(75 -27)">
        <g id="Grupo_18421" data-name="Grupo 18421">
          <g id="Grupo_18420" data-name="Grupo 18420">
            <g id="Grupo_18419" data-name="Grupo 18419">
              <path id="Trazado_40936" data-name="Trazado 40936" d="M286.55,2191.684a45.964,45.964,0,1,1-45.963-45.962A45.963,45.963,0,0,1,286.55,2191.684Z" transform="translate(-194.623 -2145.721)" fill="#fff"/>
            </g>
          </g>
        </g>
        <path id="Trazado_40937" data-name="Trazado 40937" d="M286.23,2191.334a45.963,45.963,0,1,0-45.963,45.965A45.782,45.782,0,0,0,286.23,2191.334Z" transform="translate(-194.303 -2145.372)" fill="url(#radial-gradient)"/>
        <path id="Trazado_40938" data-name="Trazado 40938" d="M272.56,2188.562a35.084,35.084,0,1,0-35.084,35.084A34.953,34.953,0,0,0,272.56,2188.562Z" transform="translate(-191.373 -2142.446)" fill="none" stroke="#7d6eb2" stroke-miterlimit="10" stroke-width="4"/>
        <g id="Grupo_18422" data-name="Grupo 18422" transform="translate(8.143 25.805)">
          <path id="Trazado_40939" data-name="Trazado 40939" d="M279.682,2164.488a45.969,45.969,0,0,1-79.137,45.773,45.823,45.823,0,0,0,79.137-45.773Z" transform="translate(-200.545 -2164.488)" fill="#eceef0"/>
        </g>
      </g>
    </g>
    <g id="Grupo_54477" data-name="Grupo 54477" transform="translate(521.174 351.987)">
      <path id="Trazado_96649" data-name="Trazado 96649" d="M-281.874,432.006c-1.973-1.793-1.118-3.011.245-4.271,1.124-1.039,2.06-2.175,3.751-.863.2.152,1.484-.5,1.572-.917.461-2.23,2.15-1.607,3.511-1.648,1.212-.037,2.533-.2,2.752,1.653.147,1.248.99,1.514,2,.761,1.552-1.163,2.408,0,3.3.955s2.4,1.748,1.089,3.455c-.8,1.047-.367,1.811.812,1.993,2.159.334,1.556,1.968,1.61,3.249.05,1.193.325,2.565-1.479,2.891-1.285.233-1.785.916-.89,2.111,1.2,1.6-.211,2.37-1.07,3.268-.881.919-1.7,2.213-3.28,1.083-1.16-.829-1.922-.486-2.118.859-.247,1.7-1.51,1.586-2.633,1.5-1.26-.1-2.964.666-3.468-1.359-.354-1.425-.987-1.781-2.293-.909-1.471.983-2.24-.319-3.09-1.156s-2.188-1.587-1.221-3.064c.956-1.459.441-1.987-1.036-2.426-1.906-.566-1.287-2.308-1.176-3.553a5.332,5.332,0,0,1,1.417-2.431A7.9,7.9,0,0,1-281.874,432.006Zm8.786,11.037a6.676,6.676,0,0,0,6.339-4.538,5.35,5.35,0,0,0-.315-2.048c-.563.358-1.144.692-1.679,1.088-.162.12-.186.416-.3.618a4.446,4.446,0,0,1-5.233,2.42,4.639,4.639,0,0,1-3.472-4.394,4.863,4.863,0,0,1,3.709-4.465c.712-.232,1.256-.984,1.876-1.5-.868-.228-1.8-.786-2.592-.627a6.7,6.7,0,0,0-5.167,7.456A6.776,6.776,0,0,0-273.089,443.042Z" transform="translate(0 -5.707)" fill="#00223d"/>
      <path id="Trazado_96650" data-name="Trazado 96650" d="M-238.114,437.431c-1.516-1.776-2.985-3.363-4.281-5.081a4.177,4.177,0,0,1-1.1-2.667c.977-5.423-2.035-8.969-5.888-11.665-2.218-1.552-5.263-1.935-7.95-2.8-.832-.267-1.712-.386-2.571-.572l.111-1a32.7,32.7,0,0,1,4.383.028,17,17,0,0,1,13.845,12.78c.069.3.253.662.153.9-1.337,3.152.981,4.826,2.684,6.752.257.29.51.583.765.874,2.237,2.549,2.093,3.417-.846,5.112-.036,2.436,1.236,5.093-1.35,7.113-.312.243-.087,1.311.047,1.964a3.049,3.049,0,0,1-2.163,3.816c-4.016,1.558-12.634-.759-15.188-4.143a11.371,11.371,0,0,1-1.07-2.422l.628-.387a4.921,4.921,0,0,1,1.141.881c3.279,4.64,8.208,4.742,13.122,4.687,1.348-.015,2.085-.849,1.847-2.554a8.533,8.533,0,0,1,.914-4.091A6.973,6.973,0,0,1-238.114,437.431Z" transform="translate(-13.522 0)" fill="#00223d"/>
      <path id="Trazado_96651" data-name="Trazado 96651" d="M-236.423,413.694a16.641,16.641,0,0,1,3.059.026c7.069,1.343,11.489,5.647,13.628,12.42a2.3,2.3,0,0,1,.2,1.353c-1.2,2.84.842,4.406,2.337,6.194.348.415.715.814,1.072,1.221,2.421,2.752,2.309,3.485-.792,5.191.02,2.455,1.264,5.121-1.355,7.129-.269.206-.038,1.143.053,1.725.382,2.424-.378,3.6-2.792,4.263a5.867,5.867,0,0,1-6.067-1.443c1.539,0,2.521-.009,3.5,0,3.264.037,3.614-.469,3.45-3.614-.055-1.057.748-2.159,1.3-3.6-.9-1.971.11-5.392,2.633-7.07-1.4-1.647-2.773-3.282-4.165-4.9-1.066-1.239-1.719-2.515-1.031-4.232a3.42,3.42,0,0,0-.06-2.019,15.257,15.257,0,0,0-12.966-11.078,13.79,13.79,0,0,1-2.18-.639Z" transform="translate(-25.982 -0.023)" fill="#00223d"/>
      <path id="Trazado_96652" data-name="Trazado 96652" d="M-196.57,440.106c.069,2.521,1.1,4.939-1.138,6.962-.357.323-.261,1.273-.193,1.914.276,2.606-.677,3.934-3.256,4.4-2.316.423-3.995.04-5.335-1.616,1.609,0,2.842.042,4.071-.009,2.643-.108,3.115-.714,2.7-3.262-.083-.515-.271-1.236-.02-1.546,1.651-2.044,1.422-4.287,1.236-6.691-.063-.821,1.348-1.756,2.394-3.01-.975-1.167-2.211-2.674-3.48-4.154-1.242-1.448-2.346-2.856-1.437-4.992a3.468,3.468,0,0,0-.234-2.25c-2.213-6.042-6.384-9.729-12.885-10.595a11.738,11.738,0,0,1-2.105-.691q.055-.38.11-.759a15.512,15.512,0,0,1,2.553-.152,17.038,17.038,0,0,1,14.181,12.4,1.937,1.937,0,0,1,.135.911c-1.186,3.772,1.61,5.748,3.616,8.072C-193.405,437.648-193.549,438.484-196.57,440.106Z" transform="translate(-36.866 -0.028)" fill="#00223d"/>
      <path id="Trazado_96653" data-name="Trazado 96653" d="M-201.149,506.153c-.891-2.353-.614-3.8,1.437-5.1-.227,2.006-.408,3.619-.59,5.232Z" transform="translate(-44.684 -46.777)" fill="#00223d"/>
      <path id="Trazado_96654" data-name="Trazado 96654" d="M-243.366,504.52l1.819-2.867a14.417,14.417,0,0,1,.25,2.853,6.954,6.954,0,0,1-.887,2.007Z" transform="translate(-22.363 -47.098)" fill="#00223d"/>
      <path id="Trazado_96655" data-name="Trazado 96655" d="M-220.653,506.772c-1.671-2.346-1.391-4.434.767-5.842Z" transform="translate(-33.933 -46.712)" fill="#00223d"/>
      <path id="Trazado_96656" data-name="Trazado 96656" d="M-267.084,449.15a6.776,6.776,0,0,1-6.829-5.99,6.705,6.705,0,0,1,5.167-7.456c.79-.158,1.724.4,2.592.628-.621.514-1.164,1.266-1.876,1.5a4.863,4.863,0,0,0-3.709,4.465,4.639,4.639,0,0,0,3.472,4.394,4.446,4.446,0,0,0,5.233-2.42c.11-.2.134-.5.3-.618.535-.4,1.116-.73,1.679-1.088a5.35,5.35,0,0,1,.315,2.048A6.677,6.677,0,0,1-267.084,449.15Z" transform="translate(-6.005 -11.814)" fill="#fff"/>
      <path id="Trazado_96657" data-name="Trazado 96657" d="M6.87,13.474A6.776,6.776,0,0,1,.041,7.484,6.705,6.705,0,0,1,5.209.028C6-.13,6.932.427,7.8.655c-.621.514-1.164,1.266-1.876,1.5A4.863,4.863,0,0,0,2.215,6.618a4.639,4.639,0,0,0,3.472,4.394,4.446,4.446,0,0,0,5.233-2.42c.11-.2.134-.5.3-.618.535-.4,1.116-.73,1.679-1.088a5.349,5.349,0,0,1,.315,2.048A6.677,6.677,0,0,1,6.87,13.474Z" transform="translate(-264.185 428.229) rotate(120)" fill="#fff"/>
    </g>
  </g>
</svg>
