<svg xmlns="http://www.w3.org/2000/svg" xmlns:xlink="http://www.w3.org/1999/xlink" width="235.653" height="203.852" viewBox="0 0 235.653 203.852">
  <defs>
    <linearGradient id="linear-gradient" x1="0.5" x2="0.5" y2="1" gradientUnits="objectBoundingBox">
      <stop offset="0" stop-color="#fff"/>
      <stop offset="1" stop-color="#d3d3d3"/>
    </linearGradient>
    <linearGradient id="linear-gradient-5" x1="0.5" x2="0.5" y2="1" gradientUnits="objectBoundingBox">
      <stop offset="0" stop-color="#fff"/>
      <stop offset="1" stop-color="#f1f7fa"/>
    </linearGradient>
  </defs>
  <g id="Grupo_46872" data-name="Grupo 46872" transform="translate(-475.526 -769)">
    <g id="Grupo_46851" data-name="Grupo 46851" transform="translate(629.023 798.939)">
      <path id="Trazado_97330" data-name="Trazado 97330" d="M698.835,1338.181c0,2.824-3.7,5.114-8.258,5.114s-8.258-2.29-8.258-5.114,3.7-5.114,8.258-5.114S698.835,1335.357,698.835,1338.181Z" transform="translate(-653.344 -1229.51)" fill="#344966"/>
      <path id="Trazado_97331" data-name="Trazado 97331" d="M597.124,895.5a37.233,37.233,0,0,0-24.387,65.368c.028.03,5.816,6.286,6.771,12.838l.173,4.011a5.627,5.627,0,0,0,1.458,3.543c.078.086.16.169.243.25h31.483c.083-.081.165-.163.243-.25a5.627,5.627,0,0,0,1.458-3.543l.173-4.011c.954-6.552,6.743-12.809,6.771-12.838A37.233,37.233,0,0,0,597.124,895.5Z" transform="translate(-559.891 -895.504)" fill="url(#linear-gradient)"/>
      <path id="Rectángulo_28272" data-name="Rectángulo 28272" d="M0,0H31.641a0,0,0,0,1,0,0V.878A22.354,22.354,0,0,1,9.287,23.233h0A9.287,9.287,0,0,1,0,13.946V0A0,0,0,0,1,0,0Z" transform="translate(21.412 86.009)" fill="url(#linear-gradient)"/>
      <g id="Grupo_46849" data-name="Grupo 46849" transform="translate(21.176 15.721)">
        <path id="Trazado_97333" data-name="Trazado 97333" d="M668.889,1001.5l-7.4-32.268L655,988l-1.9-.659,8.791-25.41,7.548,32.925,7.732-18.874,7.161,12.09-1.733,1.027-5.1-8.607Z" transform="translate(-653.094 -961.933)" fill="#f5ca56"/>
      </g>
      <g id="Grupo_46850" data-name="Grupo 46850" transform="translate(20.417 37.504)">
        <path id="Trazado_97334" data-name="Trazado 97334" d="M758.5,1107.33l-.177.019a1.7,1.7,0,0,1-1.868-1.518l-5.174-49.962A1.7,1.7,0,0,1,752.8,1054l.178-.018a1.7,1.7,0,0,1,1.868,1.518l5.174,49.962A1.7,1.7,0,0,1,758.5,1107.33Z" transform="translate(-751.27 -1053.973)" fill="#f5ca56"/>
        <path id="Trazado_97335" data-name="Trazado 97335" d="M647.72,1107.367h0a1.791,1.791,0,0,0,1.966-1.6l5.156-49.784a1.792,1.792,0,0,0-1.6-1.966h0a1.791,1.791,0,0,0-1.966,1.6l-5.155,49.784A1.791,1.791,0,0,0,647.72,1107.367Z" transform="translate(-621.21 -1054.001)" fill="#f5ca56"/>
      </g>
      <path id="Trazado_97336" data-name="Trazado 97336" d="M677.223,1262.428H646.4a1.752,1.752,0,0,1-1.751-1.751h0a1.751,1.751,0,0,1,1.751-1.751h30.825a1.751,1.751,0,0,1,1.751,1.751h0A1.752,1.752,0,0,1,677.223,1262.428Z" transform="translate(-624.568 -1172.916)" fill="#344966"/>
      <path id="Trazado_97337" data-name="Trazado 97337" d="M677.223,1292.1H646.4a1.751,1.751,0,0,1-1.751-1.751h0a1.751,1.751,0,0,1,1.751-1.751h30.825a1.752,1.752,0,0,1,1.751,1.751h0A1.751,1.751,0,0,1,677.223,1292.1Z" transform="translate(-624.568 -1195.566)" fill="#344966"/>
      <path id="Trazado_97338" data-name="Trazado 97338" d="M677.223,1325.3H646.4a1.752,1.752,0,0,1-1.751-1.751h0a1.751,1.751,0,0,1,1.751-1.752h30.825a1.752,1.752,0,0,1,1.751,1.752h0A1.752,1.752,0,0,1,677.223,1325.3Z" transform="translate(-624.568 -1220.91)" fill="#344966"/>
    </g>
    <g id="Grupo_46852" data-name="Grupo 46852" transform="translate(475.526 833.19)">
      <path id="Trazado_97339" data-name="Trazado 97339" d="M1290.722,1151.262a23.847,23.847,0,1,1,5.1-33.336A23.874,23.874,0,0,1,1290.722,1151.262Zm-2.85-5.2h0a17.985,17.985,0,0,0,2.753-25.285h0a17.985,17.985,0,0,0-25.286-2.754h0a17.985,17.985,0,0,0-2.754,25.285h0A17.985,17.985,0,0,0,1287.872,1146.061Z" transform="translate(-1236.462 -1092.115)" fill="url(#linear-gradient)"/>
      <path id="Trazado_97340" data-name="Trazado 97340" d="M1243.727,1114.7c-.57.11-.948-.293-1.893-1.283-1.691-1.771-3.382-3.543-5.132-5.252a1.581,1.581,0,0,0-1.306-.281c-2.306.654-4.571,1.447-6.883,2.077-.716.2-1.052.409-1.19,1.178-.549,3.079-1.184,6.142-1.78,9.179-2.817.441-9.828-.24-12.1-1.2.041-2.979.036-6.024.151-9.065a1.506,1.506,0,0,0-1.107-1.736,62.787,62.787,0,0,1-6.124-3.271,1.726,1.726,0,0,0-2.227-.07c-2.226,1.576-4.547,3.016-6.8,4.555-.605.414-1.072.456-1.541-.118q-3.306-4.048-6.607-8.1c-.542-.664.035-1.033.4-1.4,1.873-1.874,3.736-3.758,5.67-5.567a1.713,1.713,0,0,0,.48-2.184c-.923-2.5-1.684-5.069-2.572-7.8l-9.8-1.964a35.735,35.735,0,0,1,1.32-12.019l9.794.1c1.578-2.77,2.983-5.367,4.533-7.874a1.346,1.346,0,0,0-.033-1.774c-1.52-2.218-2.971-4.483-4.475-6.712-.326-.482-.5-.861-.036-1.363a34.148,34.148,0,0,1,7.927-6.6,1.074,1.074,0,0,1,1.543.245c1.94,1.976,3.918,3.914,5.849,5.9a1.247,1.247,0,0,0,1.533.391c2.508-.8,5.055-1.5,7.614-2.133a1.06,1.06,0,0,0,.925-1c.614-3.067,1.252-6.131,1.9-9.274a38.34,38.34,0,0,1,11.9,1.182c-.034,3.467-.068,6.911-.1,10.207l8.813,4.744c2-1.317,4.294-2.852,6.613-4.348,1.9-1.228,1.513-1.413,3.221.306a3.746,3.746,0,0,0,.58.4l3.923,4.882a7.471,7.471,0,0,0,.685,1.23,1.538,1.538,0,0,1-.2,2.5c-2.011,1.839-3.907,3.805-5.8,5.764a1.448,1.448,0,0,0-.293,1.174c.6,2.28,1.406,4.513,1.888,6.815a1.771,1.771,0,0,0,1.729,1.638c2.916.53,5.81,1.179,9,1.842-.4,4.03-.79,7.962-1.184,11.937-.758.007-1.194.018-1.63.014-2.688-.027-5.679.29-8.366.215a1.35,1.35,0,0,0-1.416.928c-1.195,2.258-2.232,4.12-3.443,6.37a1.6,1.6,0,0,0,.061,1.351c1.165,1.872,2.433,3.68,3.636,5.529.973,1.5,1.329,2.055,1.007,2.784Zm-5.666-14.65a24.692,24.692,0,1,0-18.353,4.507A24.533,24.533,0,0,0,1238.061,1100.052Z" transform="translate(-1183.3 -1040.225)" fill="url(#linear-gradient)"/>
    </g>
    <path id="Trazado_97341" data-name="Trazado 97341" d="M1325.775,1429.513l-2.462,4.444c-.222.146-.452.04-1.023-.215-1.021-.457-2.044-.914-3.08-1.335a.72.72,0,0,0-.6.107c-.863.675-1.685,1.4-2.554,2.069a.593.593,0,0,0-.3.7c.3,1.4.562,2.8.834,4.192a15.645,15.645,0,0,1-5.328,1.585c-.5-1.268-1.027-2.556-1.5-3.862a.689.689,0,0,0-.769-.543,28.719,28.719,0,0,1-3.157-.325c-.424-.062-.7-.05-.955.356-.67,1.052-1.4,2.064-2.09,3.1-.185.28-.375.378-.672.216q-2.1-1.141-4.2-2.284c-.344-.187-.164-.443-.072-.664.469-1.116.931-2.237,1.437-3.337a.783.783,0,0,0-.174-1.007c-.824-.9-1.59-1.853-2.439-2.857l-4.487.864a16.336,16.336,0,0,1-1.521-5.315l4.162-1.654c.189-1.445.334-2.787.556-4.117a.616.616,0,0,0-.32-.745c-1.028-.676-2.033-1.383-3.056-2.066-.221-.148-.361-.277-.251-.571a15.618,15.618,0,0,1,2.214-4.162.491.491,0,0,1,.695-.163c1.163.5,2.335.978,3.5,1.483a.569.569,0,0,0,.716-.1c.922-.774,1.879-1.51,2.853-2.219a.485.485,0,0,0,.217-.585c-.27-1.4-.531-2.811-.8-4.253a17.5,17.5,0,0,1,5.239-1.558l1.723,4.336,4.551.483c.619-.9,1.324-1.95,2.047-2.984.592-.849.4-.86,1.416-.427a1.74,1.74,0,0,0,.315.069l2.5,1.387a3.485,3.485,0,0,0,.5.4.7.7,0,0,1,.349,1.093c-.532,1.126-1,2.286-1.459,3.444a.66.66,0,0,0,.079.547c.65.86,1.375,1.666,1.978,2.557a.81.81,0,0,0,1.016.394c1.326-.28,2.662-.506,4.129-.778.528,1.774,1.044,3.505,1.564,5.257-.32.134-.5.214-.687.287-1.143.454-2.281.918-3.43,1.351-.327.123-.406.3-.439.638-.115,1.162-.3,2.317-.428,3.478a.733.733,0,0,0,.26.562c.817.59,1.666,1.136,2.495,1.711C1325.538,1428.974,1325.785,1429.149,1325.775,1429.513Zm-9.829-2.685a8.223,8.223,0,0,0-3.209-11.177h0a8.222,8.222,0,0,0-11.177,3.209h0a8.222,8.222,0,0,0,3.209,11.177h0a8.223,8.223,0,0,0,11.177-3.209Z" transform="translate(-796.556 -485.252)" fill="#fcfcfc"/>
    <rect id="Rectángulo_28273" data-name="Rectángulo 28273" width="145.45" height="93.213" rx="1" transform="translate(517.569 875.453)" fill="url(#linear-gradient-5)"/>
    <rect id="Rectángulo_28274" data-name="Rectángulo 28274" width="138.309" height="77.057" transform="translate(521.14 880.719)" fill="url(#linear-gradient)"/>
    <path id="Trazado_97342" data-name="Trazado 97342" d="M697.95,1590.842H852.721a2.706,2.706,0,0,0,2.706-2.706v-4.059H691.185A6.765,6.765,0,0,0,697.95,1590.842Z" transform="translate(-183.012 -622.175)" fill="url(#linear-gradient-5)"/>
    <path id="Trazado_97343" data-name="Trazado 97343" d="M691.467,1585.956a6.433,6.433,0,0,1-.282-1.88H855.427a6.421,6.421,0,0,1-.282,1.88Z" transform="translate(-183.012 -622.175)" fill="#00223d" opacity="0.6"/>
    <path id="Trazado_97344" data-name="Trazado 97344" d="M1144.83,1318.112H1125.7l-38.4-69.789v-7.269h15.128Z" transform="translate(-566.161 -360.336)" fill="#fff" opacity="0.5" style="mix-blend-mode: soft-light;isolation: isolate"/>
    <path id="Trazado_97345" data-name="Trazado 97345" d="M894.708,1318.112H868.624l-42.4-77.057h26.084Z" transform="translate(-254.252 -360.336)" fill="#fff" opacity="0.5" style="mix-blend-mode: soft-light;isolation: isolate"/>
    <path id="Trazado_97346" data-name="Trazado 97346" d="M745.974,1241.055h12l39.965,72.632v4.426h-9.569Z" transform="translate(-138.495 -360.336)" fill="#fff" opacity="0.5" style="mix-blend-mode: soft-light;isolation: isolate"/>
    <path id="Trazado_97347" data-name="Trazado 97347" d="M1444.743,1357.971l-1.144,2.624c-.116.093-.251.047-.584-.066-.6-.2-1.2-.4-1.8-.584a.407.407,0,0,0-.331.092c-.448.425-.87.876-1.322,1.3a.334.334,0,0,0-.131.411c.243.768.465,1.543.692,2.307a8.834,8.834,0,0,1-2.9,1.172c-.347-.684-.713-1.378-1.05-2.086a.388.388,0,0,0-.46-.264,16.128,16.128,0,0,1-1.788-.014c-.241-.013-.393.009-.517.251-.319.625-.676,1.232-1.006,1.852-.089.167-.19.232-.366.157l-2.476-1.057c-.2-.087-.115-.24-.075-.369.2-.652.4-1.3.628-1.948a.442.442,0,0,0-.151-.556c-.51-.461-.991-.955-1.52-1.473l-2.471.723a9.212,9.212,0,0,1-1.136-2.9l2.246-1.15c.029-.821.039-1.581.092-2.339a.348.348,0,0,0-.22-.4c-.612-.324-1.214-.667-1.824-1-.132-.071-.217-.136-.171-.307a8.808,8.808,0,0,1,1.02-2.452.277.277,0,0,1,.381-.129c.679.219,1.362.424,2.039.646a.321.321,0,0,0,.4-.094c.477-.484.974-.948,1.482-1.4a.274.274,0,0,0,.091-.34c-.227-.773-.447-1.548-.676-2.343a9.872,9.872,0,0,1,2.856-1.153l1.2,2.341,2.578.028c.3-.54.639-1.164.988-1.783.288-.508.176-.5.771-.315a1,1,0,0,0,.181.022l1.478.644a1.938,1.938,0,0,0,.3.2c.285.119.368.277.254.594-.239.66-.437,1.336-.634,2.009a.372.372,0,0,0,.073.3c.41.448.86.861,1.246,1.329a.456.456,0,0,0,.59.167c.728-.228,1.466-.426,2.274-.656l1.158,2.865c-.172.092-.271.147-.37.2-.616.315-1.23.636-1.852.94a.349.349,0,0,0-.212.382c0,.658-.047,1.315-.054,1.974a.41.41,0,0,0,.175.3c.49.288,1,.549,1.491.826C1444.581,1357.681,1444.729,1357.765,1444.743,1357.971Zm-5.656-.982a4.633,4.633,0,0,0-2.4-6.1h0a4.633,4.633,0,0,0-6.1,2.4h0a4.633,4.633,0,0,0,2.4,6.1h0a4.633,4.633,0,0,0,6.1-2.4Z" transform="translate(-946.215 -439.748)" fill="#fec55e"/>
    <path id="Trazado_97348" data-name="Trazado 97348" d="M960.646,1125.24s2.971,84.712,14.392,102.692H955.462V1122.915Z" transform="translate(-365.168 -270.155)" fill="#00223d"/>
    <path id="Trazado_97349" data-name="Trazado 97349" d="M760.682,1466.055a15.322,15.322,0,0,1,6.471,1.418v22.39H750.319a13.528,13.528,0,0,1-4.345-9.882C745.974,1472.29,752.559,1466.055,760.682,1466.055Z" transform="translate(-107.704 -532.086)" fill="#00223d"/>
    <path id="Trazado_97350" data-name="Trazado 97350" d="M812.356,1487.658c7.11,0,12.874,5.458,12.874,12.19a11.667,11.667,0,0,1-1.985,6.505H801.467a11.664,11.664,0,0,1-1.986-6.505C799.482,1493.115,805.246,1487.658,812.356,1487.658Z" transform="translate(-178.444 -548.576)" fill="#00223d"/>
    <path id="Trazado_97351" data-name="Trazado 97351" d="M881.581,1426.878c10.85,0,19.646,8.328,19.646,18.6a18.214,18.214,0,0,1-7.311,14.478h-24.67a18.214,18.214,0,0,1-7.311-14.478C861.935,1435.206,870.731,1426.878,881.581,1426.878Z" transform="translate(-269.223 -502.181)" fill="#00223d"/>
    <path id="Trazado_97352" data-name="Trazado 97352" d="M1052.834,1125.24s-3.235,84.712-14.656,102.692h19.839V1122.915Z" transform="translate(-467.723 -270.155)" fill="#00223d"/>
    <path id="Trazado_97353" data-name="Trazado 97353" d="M1247.363,1466.055a15.327,15.327,0,0,0-6.471,1.418v22.39h16.835a13.527,13.527,0,0,0,4.344-9.882C1262.071,1472.29,1255.486,1466.055,1247.363,1466.055Z" transform="translate(-719.752 -532.086)" fill="#00223d"/>
    <path id="Trazado_97354" data-name="Trazado 97354" d="M1180.952,1487.658c-7.11,0-12.874,5.458-12.874,12.19a11.667,11.667,0,0,0,1.985,6.505h21.777a11.663,11.663,0,0,0,1.986-6.505C1193.826,1493.115,1188.062,1487.658,1180.952,1487.658Z" transform="translate(-634.275 -548.576)" fill="#00223d"/>
    <path id="Trazado_97355" data-name="Trazado 97355" d="M1068.04,1426.878c-10.85,0-19.646,8.328-19.646,18.6a18.214,18.214,0,0,0,7.311,14.478h24.67a18.214,18.214,0,0,0,7.311-14.478C1087.687,1435.206,1078.891,1426.878,1068.04,1426.878Z" transform="translate(-499.81 -502.181)" fill="#00223d"/>
    <g id="Grupo_46853" data-name="Grupo 46853" transform="translate(559.022 769)">
      <path id="Trazado_97356" data-name="Trazado 97356" d="M987.476,1155.432l9.559-3.9,9.56,3.9s11.659,15.512-9.56,35.793C975.817,1170.944,987.476,1155.432,987.476,1155.432Z" transform="translate(-965.763 -1060.998)" fill="#f4b34a"/>
      <path id="Trazado_97357" data-name="Trazado 97357" d="M1004.055,1167.026l6.434-2.627,6.434,2.627s7.847,10.44-6.434,24.089C996.207,1177.466,1004.055,1167.026,1004.055,1167.026Z" transform="translate(-979.216 -1070.821)" fill="#fec55e"/>
      <path id="Trazado_97358" data-name="Trazado 97358" d="M1023.563,1153.551l2.755-2.022,2.756,2.022s3.36,8.035-2.756,18.538C1020.2,1161.585,1023.563,1153.551,1023.563,1153.551Z" transform="translate(-995.046 -1060.998)" fill="#00223d"/>
      <path id="Trazado_97359" data-name="Trazado 97359" d="M1110.343,1072.419s-12.636-1.787-17.373,11.956h0a27.347,27.347,0,0,1,.074-14.147,54.086,54.086,0,0,1,9.808-19.773C1112.711,1038.466,1110.343,1072.419,1110.343,1072.419Z" transform="translate(-1092.076 -981.887)" fill="url(#linear-gradient)"/>
      <path id="Trazado_97360" data-name="Trazado 97360" d="M906.289,1072.419s12.635-1.787,17.373,11.956h0a27.345,27.345,0,0,0-.074-14.147,54.092,54.092,0,0,0-9.808-19.773C903.92,1038.466,906.289,1072.419,906.289,1072.419Z" transform="translate(-862.011 -981.887)" fill="url(#linear-gradient)"/>
      <path id="Trazado_97361" data-name="Trazado 97361" d="M951.655,822.673c1.021-29.3,12.256-43.089,20.423-53.673,8.167,10.584,19.387,24.377,20.407,53.673s-7.936,43.281-7.936,43.281H959.591S950.635,851.968,951.655,822.673Z" transform="translate(-940.798 -769)" fill="#7d6eb2"/>
      <path id="Trazado_97362" data-name="Trazado 97362" d="M1024.537,1092.644v-33.92S1031.8,1078.608,1024.537,1092.644Z" transform="translate(-993.265 -990.156)" fill="#8ec8c8"/>
      <path id="Trazado_97363" data-name="Trazado 97363" d="M1038.468,822.91c1.019-29.228,12.2-43.024,20.366-53.6v96.88H1046.4S1037.447,852.205,1038.468,822.91Z" transform="translate(-1027.61 -769.238)" fill="#584795"/>
      <path id="Trazado_97364" data-name="Trazado 97364" d="M967.472,799.246c4.2-14.228,11.242-22.992,16.84-30.246,5.553,7.2,12.516,15.878,16.726,29.906A49.845,49.845,0,0,1,967.472,799.246Z" transform="translate(-953.032 -769)" fill="#8ec8c8"/>
      <path id="Trazado_97365" data-name="Trazado 97365" d="M1055.17,769.311v32.9a51.37,51.37,0,0,1-16.783-2.731C1042.576,785.3,1049.582,776.551,1055.17,769.311Z" transform="translate(-1023.947 -769.238)" fill="#26aab7"/>
      <path id="Trazado_97366" data-name="Trazado 97366" d="M1041.406,1058.723v33.92C1034.143,1078.607,1041.406,1058.723,1041.406,1058.723Z" transform="translate(-1010.134 -990.155)" fill="#26aab7"/>
      <path id="Trazado_97367" data-name="Trazado 97367" d="M996.715,956.913a11.807,11.807,0,0,0,4.68.96,11.65,11.65,0,1,0-4.68-.96Z" transform="translate(-970.347 -895.568)" fill="url(#linear-gradient)"/>
      <path id="Trazado_97368" data-name="Trazado 97368" d="M996.686,952.3a9.87,9.87,0,1,0,9.869-9.728A9.8,9.8,0,0,0,996.686,952.3Z" transform="translate(-975.332 -901.491)" fill="#584795"/>
    </g>
    <path id="Trazado_97369" data-name="Trazado 97369" d="M818.183,1501.266H745.974a14.492,14.492,0,0,1,11.34-5.452c.1,0,.2,0,.3,0,0-.1,0-.2,0-.3a14.523,14.523,0,0,1,28.1-5.157,12.924,12.924,0,0,1,16.345,2.053,9.629,9.629,0,0,1,16.125-1.9Z" transform="translate(-158.734 -543.489)" fill="#fcfcfc" opacity="0.6"/>
    <path id="Trazado_97370" data-name="Trazado 97370" d="M1072.768,1494.963v-12.144a9.626,9.626,0,0,1,14.837,3.53,12.926,12.926,0,0,1,17.317-3.855,12.881,12.881,0,0,1,25.07,5.921,4.569,4.569,0,0,1,3.257,6.548Z" transform="translate(-551.628 -537.186)" fill="#fcfcfc" opacity="0.6"/>
    <g id="Grupo_46855" data-name="Grupo 46855" transform="translate(627.704 842.55)">
      <path id="Trazado_97371" data-name="Trazado 97371" d="M810.487,1126.226c.168.007.628.161,1.3,1.431a47.688,47.688,0,0,1,2.113,6.523l-3.745,1.395-.481-1.023-.792-7.875S810.441,1126.224,810.487,1126.226Z" transform="translate(-797.043 -1115.233)" fill="#26aab7"/>
      <path id="Trazado_97372" data-name="Trazado 97372" d="M828.94,1123.241a22.874,22.874,0,0,1,4.95.707s.9,7.765-.813,13.665c-.384,1.32.318,5.475.318,5.475l-11.1-.146s1.315-10.043.82-11.665-.507-7.276-.507-7.276.076-.012,2.493-.43A25.086,25.086,0,0,1,828.94,1123.241Z" transform="translate(-820.445 -1112.954)" fill="#8ec8c8"/>
      <path id="Trazado_97373" data-name="Trazado 97373" d="M849.072,1268a14.936,14.936,0,0,0,.7,3.618c.451.784-.023,2.118-.048,2.3s-.95.444-2.423.288-1.449-.5-1.33-1.046.9-1.255.95-1.779a13.677,13.677,0,0,0-.452-2.406Z" transform="translate(-841.871 -1223.452)" fill="#ffc3b5"/>
      <path id="Trazado_97374" data-name="Trazado 97374" d="M798.859,1196.659s7.66-.425,9.37.611-1.215,6.12-1.215,6.12-5.33-.245-15.77.357c-2.472.143-2.685-6.446-2.223-6.991S798.859,1196.659,798.859,1196.659Z" transform="translate(-787.162 -1168.864)" fill="#03192b"/>
      <path id="Trazado_97375" data-name="Trazado 97375" d="M846.531,1286.642c-1.517-.162-1.329-.907-1.207-1.472a5.011,5.011,0,0,1,.771-1.167,2.53,2.53,0,0,0,1.015.493,3.791,3.791,0,0,0,2.219-.448,7.349,7.349,0,0,1,.2,1.956A4.411,4.411,0,0,1,846.531,1286.642Z" transform="translate(-841.287 -1235.67)" fill="#293241"/>
      <path id="Trazado_97376" data-name="Trazado 97376" d="M852.524,1202.385c.306,2.316,1.821,13.844,1.821,13.844l-3.516.436s-4.324-15.047-4.1-17.349,1.84-2.5,1.84-2.5S851.714,1196.254,852.524,1202.385Z" transform="translate(-846.444 -1169.11)" fill="#00223d"/>
      <path id="Trazado_97377" data-name="Trazado 97377" d="M818.735,1130.057c1.038-.389,1.545,8.959,1.685,12.807a45.307,45.307,0,0,0,5.837-.059c.375-.028,1.24-.345,1.613-.394a3.736,3.736,0,0,1,.917-.044,17.281,17.281,0,0,1,2.148.967c.2.213.752.75.66.983s-1.057-.648-1.057-.648l-.471-.264c.586.573,1.7,1.326,1.544,1.6s-1.166-.5-1.885-1.02c.616.557,1.383,1.554,1.206,1.709-.158.14-1.03-1.014-1.961-1.346-.345-.123-.689.218-.96.259a1.957,1.957,0,0,1-.7.039l-1.008-.286c-.343.031-.352.234-.7.308-.4.086-1.063.176-1.576.3-2.953.722-3.938,1.057-4.842,1.057C816.442,1146.026,816.283,1130.977,818.735,1130.057Z" transform="translate(-816.691 -1118.148)" fill="#ffc3b5"/>
      <path id="Trazado_97378" data-name="Trazado 97378" d="M862.085,1136.015c-.195-3.941-.166-8.8,2.044-9.627.872-.327,2.409,1.639,2.132,9.708A16.577,16.577,0,0,1,862.085,1136.015Z" transform="translate(-862.009 -1115.331)" fill="#26aab7"/>
      <path id="Trazado_97379" data-name="Trazado 97379" d="M796.533,1279.319a1.916,1.916,0,0,0-.108,1.648c.4.752,2.5,1.858,2.714,2.266a.988.988,0,0,1,.133.7l-6.225-1.526.477-1.876.582-1.3Z" transform="translate(-778.684 -1232.026)" fill="#ffc3b5"/>
      <path id="Trazado_97380" data-name="Trazado 97380" d="M792.726,1285.552s-1.75.3-2.443-.25-.648-.655-.9-.56c-.164.061-.415.809-.573,1.334a.512.512,0,0,0,.368.643l6.481,1.6c.493.094.819-.213.487-.608a5.85,5.85,0,0,0-.669-.622A22.507,22.507,0,0,0,792.726,1285.552Z" transform="translate(-774.664 -1236.209)" fill="#293241"/>
      <path id="Trazado_97381" data-name="Trazado 97381" d="M785.825,1198.983a2.655,2.655,0,0,1,3.6-1.582c1.89.78,2.4,2.7,1.8,4.656s-4.522,13.491-4.659,15.076l-3.134.021s.569-9.129.709-11.336A21.372,21.372,0,0,1,785.825,1198.983Z" transform="translate(-768.585 -1169.372)" fill="#00223d"/>
      <path id="Trazado_97382" data-name="Trazado 97382" d="M803.281,1160.022H792.8a.683.683,0,0,0-.632.425l-3.226,7.894h-5.776a.293.293,0,0,0-.292.293h0a.293.293,0,0,0,.292.294H799.61a1.148,1.148,0,0,0,1.047-.68l3.248-7.261A.685.685,0,0,0,803.281,1160.022Z" transform="translate(-780.954 -1141.031)" fill="#fec55e"/>
      <path id="Trazado_97383" data-name="Trazado 97383" d="M810.676,1176.981a.577.577,0,1,1-.432-.755A.616.616,0,0,1,810.676,1176.981Z" transform="translate(-793.99 -1153.393)" fill="#fff"/>
      <g id="Grupo_46854" data-name="Grupo 46854" transform="translate(5.153)">
        <path id="Trazado_97384" data-name="Trazado 97384" d="M832.444,1080.579a8.041,8.041,0,0,1-.927-.371,4.661,4.661,0,0,0-1.057-.4,2.549,2.549,0,0,0-2.144.572c-.691.75-1.919.135-1.671,4.061.28,4.444,2.751,3.956,2.811,3.881s2.2-2.844,2.2-2.844.75,1.64.75,1.579S836.237,1081.856,832.444,1080.579Z" transform="translate(-826.613 -1079.776)"/>
        <path id="Trazado_97385" data-name="Trazado 97385" d="M842.513,1109.215l.213,1.588s.478,2.287-.137,2.729-2.614-2.794-2.614-2.794l.211-4.024Z" transform="translate(-838.558 -1100.339)" fill="#ffc3b5"/>
        <path id="Trazado_97386" data-name="Trazado 97386" d="M840.86,1108.018a4.555,4.555,0,0,0,2.576,2.543l-.181-1.346-2.327-2.5Z" transform="translate(-839.299 -1100.339)" fill="#fc8899"/>
        <path id="Trazado_97387" data-name="Trazado 97387" d="M834.537,1088.125a2.118,2.118,0,0,1,2.439,2.142,16.125,16.125,0,0,1-.178,2.037c-.283,1.833-1.534,3.447-2.361,3.3a3.974,3.974,0,0,1-2.541-4.334A3.506,3.506,0,0,1,834.537,1088.125Z" transform="translate(-830.708 -1086.128)" fill="#ffc3b5"/>
        <path id="Trazado_97388" data-name="Trazado 97388" d="M852.043,1100.113a.616.616,0,1,1-.468-.833A.682.682,0,0,1,852.043,1100.113Z" transform="translate(-850.282 -1094.658)" fill="#ffc3b5"/>
        <path id="Trazado_97389" data-name="Trazado 97389" d="M831.016,1088.788s1,.249,1.371-.395a3.02,3.02,0,0,1,3.385-1.455c1.687.575-1.484-1.4-1.619-1.4l-1.754-.011s-1.248,1.027-1.293,1.139-.4,1.343-.4,1.343Z" transform="translate(-829.723 -1084.167)"/>
      </g>
      <path id="Trazado_97390" data-name="Trazado 97390" d="M837.467,1110.641l1.819.348a.81.81,0,0,1-.978.556C837.327,1111.386,837.467,1110.641,837.467,1110.641Z" transform="translate(-829.192 -1103.336)" fill="#fff"/>
    </g>
    <g id="Grupo_46857" data-name="Grupo 46857" transform="translate(653.422 961.787)">
      <path id="Trazado_97391" data-name="Trazado 97391" d="M599.834,1592.063v6.6c0,1.068-11.91,1.933-26.6,1.933s-26.6-.865-26.6-1.933v-6.6Z" transform="translate(-546.629 -1590.06)" fill="#f4b34a"/>
      <g id="Grupo_46856" data-name="Grupo 46856" transform="translate(0 2.003)">
        <path id="Trazado_97392" data-name="Trazado 97392" d="M546.629,1600.525v-8.462h19.252v6.6C565.881,1599.549,557.746,1600.294,546.629,1600.525Z" transform="translate(-512.676 -1592.063)" fill="#fec55e"/>
        <path id="Trazado_97393" data-name="Trazado 97393" d="M647.637,1600.543c-2.067.037-4.229.057-6.455.057-3.317,0-6.492-.044-9.42-.125v-8.412h15.875Z" transform="translate(-614.58 -1592.063)" fill="#fec55e"/>
        <path id="Trazado_97394" data-name="Trazado 97394" d="M719.46,1600.445c-9.478-.3-16.116-.98-16.116-1.778v-6.6H719.46Z" transform="translate(-703.344 -1592.063)" fill="#eab054"/>
      </g>
      <path id="Trazado_97395" data-name="Trazado 97395" d="M546.629,1585.531c0,1.068,11.911,1.933,26.6,1.933s26.6-.866,26.6-1.933-11.91-1.933-26.6-1.933S546.629,1584.464,546.629,1585.531Z" transform="translate(-546.629 -1583.598)" fill="#f4b34a"/>
      <path id="Trazado_97396" data-name="Trazado 97396" d="M566.471,1587.443c0,.741,9.808,1.341,21.907,1.341s21.907-.6,21.907-1.341-9.808-1.34-21.907-1.34S566.471,1586.7,566.471,1587.443Z" transform="translate(-561.775 -1585.51)" fill="#f7cc7f"/>
    </g>
    <g id="Grupo_46859" data-name="Grupo 46859" transform="translate(657.973 954.799)">
      <path id="Trazado_97397" data-name="Trazado 97397" d="M580.6,1562.534v6.6c0,1.067-11.91,1.933-26.6,1.933s-26.6-.866-26.6-1.933v-6.6Z" transform="translate(-527.398 -1560.531)" fill="#f4b34a"/>
      <g id="Grupo_46858" data-name="Grupo 46858" transform="translate(0 2.003)">
        <path id="Trazado_97398" data-name="Trazado 97398" d="M527.4,1571v-8.462H546.65v6.6C546.65,1570.02,538.515,1570.765,527.4,1571Z" transform="translate(-493.445 -1562.534)" fill="#fec55e"/>
        <path id="Trazado_97399" data-name="Trazado 97399" d="M628.405,1571.014c-2.067.038-4.228.057-6.455.057-3.317,0-6.492-.044-9.42-.124v-8.413h15.875Z" transform="translate(-595.348 -1562.534)" fill="#fec55e"/>
        <path id="Trazado_97400" data-name="Trazado 97400" d="M700.228,1570.915c-9.478-.3-16.116-.98-16.116-1.777v-6.6h16.116Z" transform="translate(-684.112 -1562.534)" fill="#eab054"/>
      </g>
      <ellipse id="Elipse_3874" data-name="Elipse 3874" cx="26.603" cy="1.933" rx="26.603" ry="1.933" transform="translate(0 0)" fill="#f4b34a"/>
      <ellipse id="Elipse_3875" data-name="Elipse 3875" cx="21.907" cy="1.34" rx="21.907" ry="1.34" transform="translate(4.696 0.593)" fill="#f7cc7f"/>
    </g>
    <g id="Grupo_46861" data-name="Grupo 46861" transform="translate(654.941 947.625)">
      <path id="Trazado_97401" data-name="Trazado 97401" d="M593.416,1532.221v6.6c0,1.068-11.91,1.933-26.6,1.933s-26.6-.865-26.6-1.933v-6.6Z" transform="translate(-540.211 -1530.218)" fill="#f4b34a"/>
      <g id="Grupo_46860" data-name="Grupo 46860" transform="translate(0 2.003)">
        <path id="Trazado_97402" data-name="Trazado 97402" d="M540.211,1540.683v-8.462h19.252v6.6C559.463,1539.707,551.328,1540.451,540.211,1540.683Z" transform="translate(-506.257 -1532.221)" fill="#fec55e"/>
        <path id="Trazado_97403" data-name="Trazado 97403" d="M641.219,1540.7c-2.066.038-4.229.057-6.455.057-3.317,0-6.492-.044-9.421-.124v-8.412h15.875Z" transform="translate(-608.162 -1532.221)" fill="#fec55e"/>
        <path id="Trazado_97404" data-name="Trazado 97404" d="M713.042,1540.6c-9.478-.3-16.116-.98-16.116-1.778v-6.6h16.116Z" transform="translate(-696.926 -1532.221)" fill="#fec55e"/>
      </g>
      <ellipse id="Elipse_3876" data-name="Elipse 3876" cx="26.603" cy="1.933" rx="26.603" ry="1.933" transform="translate(0 0)" fill="#f4b34a"/>
      <ellipse id="Elipse_3877" data-name="Elipse 3877" cx="21.907" cy="1.34" rx="21.907" ry="1.34" transform="translate(4.696 0.593)" fill="#f7cc7f"/>
    </g>
    <g id="Grupo_46863" data-name="Grupo 46863" transform="translate(657.973 940.549)">
      <path id="Trazado_97405" data-name="Trazado 97405" d="M580.6,1502.322v6.6c0,1.068-11.91,1.933-26.6,1.933s-26.6-.866-26.6-1.933v-6.6Z" transform="translate(-527.398 -1500.319)" fill="#f4b34a"/>
      <g id="Grupo_46862" data-name="Grupo 46862" transform="translate(0 2.003)">
        <path id="Trazado_97406" data-name="Trazado 97406" d="M527.4,1510.784v-8.462H546.65v6.6C546.65,1509.808,538.515,1510.553,527.4,1510.784Z" transform="translate(-493.445 -1502.322)" fill="#fec55e"/>
        <path id="Trazado_97407" data-name="Trazado 97407" d="M628.405,1510.8c-2.067.037-4.228.057-6.455.057-3.317,0-6.492-.045-9.42-.125v-8.412h15.875Z" transform="translate(-595.348 -1502.322)" fill="#fec55e"/>
        <path id="Trazado_97408" data-name="Trazado 97408" d="M700.228,1510.7c-9.478-.3-16.116-.98-16.116-1.777v-6.6h16.116Z" transform="translate(-684.112 -1502.322)" fill="#fec55e"/>
      </g>
      <path id="Trazado_97409" data-name="Trazado 97409" d="M527.4,1495.791c0,1.068,11.91,1.933,26.6,1.933s26.6-.866,26.6-1.933-11.91-1.933-26.6-1.933S527.4,1494.724,527.4,1495.791Z" transform="translate(-527.398 -1493.858)" fill="#f4b34a"/>
      <path id="Trazado_97410" data-name="Trazado 97410" d="M547.24,1497.7c0,.741,9.808,1.341,21.907,1.341s21.907-.6,21.907-1.341-9.808-1.34-21.907-1.34S547.24,1496.963,547.24,1497.7Z" transform="translate(-542.544 -1495.77)" fill="#f7cc7f"/>
    </g>
    <g id="Grupo_46865" data-name="Grupo 46865" transform="translate(623.345 955.065)">
      <rect id="Rectángulo_28275" data-name="Rectángulo 28275" width="46.604" height="16.962" transform="translate(0)" fill="#fcfcfc"/>
      <g id="Grupo_46864" data-name="Grupo 46864" transform="translate(0)">
        <rect id="Rectángulo_28276" data-name="Rectángulo 28276" width="46.604" height="2.182" transform="translate(0 2.472)" fill="#eff4ef"/>
        <rect id="Rectángulo_28277" data-name="Rectángulo 28277" width="46.604" height="2.182" transform="translate(0 6.734)" fill="#eff4ef"/>
        <rect id="Rectángulo_28278" data-name="Rectángulo 28278" width="46.604" height="2.182" transform="translate(0 10.996)" fill="#eff4ef"/>
        <rect id="Rectángulo_28279" data-name="Rectángulo 28279" width="46.604" height="2.182" transform="translate(0 14.78)" fill="#eff4ef"/>
        <rect id="Rectángulo_28280" data-name="Rectángulo 28280" width="9.693" height="16.962" transform="translate(17.349)" fill="#f5ca56"/>
      </g>
      <rect id="Rectángulo_28281" data-name="Rectángulo 28281" width="7.038" height="16.962" transform="translate(46.039)" fill="#26aab7"/>
    </g>
    <g id="Grupo_46866" data-name="Grupo 46866" transform="translate(655.203 909.592)">
      <path id="Trazado_97411" data-name="Trazado 97411" d="M597.875,1367.022c.6-1.449,1.215-2.9,2.777-3.635a3.5,3.5,0,0,1,3.709.474c3.183,2.394.409,5.032,4.033,9.571,1.126,1.411,2.489,2.549,3.163,4.2.944,2.313-.18,3.425-1.983,4.532-8.625,5.3-13.147-5.584-12.985-8.074A40.093,40.093,0,0,1,597.875,1367.022Z" transform="translate(-572.298 -1363.053)"/>
      <path id="Trazado_97412" data-name="Trazado 97412" d="M655.763,1439.379c.364-.058,1.247-.69,1.559-.748.242-.045.764-.124.987-.156.273-1.019,1.658-6.573,1.813-8.2.168-1.763,1.415-9.393,1.415-9.393l3.229.587s-1.341,5.87-1.712,8.715c-.318,2.445-3,7.941-3.342,8.521,0,.014,0,.027,0,.042-.052.863-.468.575-.468.575l-.675.172s-2.39.23-2.546.287S655.4,1439.436,655.763,1439.379Z" transform="translate(-639.138 -1407.194)" fill="#ffc3b5"/>
      <path id="Trazado_97413" data-name="Trazado 97413" d="M651.1,1402.034c-2.283.775-3.581,6.981-3.581,6.981s3.581,1,4.5.476c0,0,1.042-4.617,1.415-4.456Z" transform="translate(-625.882 -1392.808)" fill="#8ec8c8"/>
      <path id="Trazado_97414" data-name="Trazado 97414" d="M738.115,1544.352a24.436,24.436,0,0,0-1.094,3.832c-.016.1.13.6.117.711a6.474,6.474,0,0,1-5.145,2.453,29.144,29.144,0,0,0,2.235-1.946,33.866,33.866,0,0,0,.892-5.036C736.2,1544.862,736.924,1544.468,738.115,1544.352Z" transform="translate(-730.56 -1501.445)" fill="#ffc3b5"/>
      <path id="Trazado_97415" data-name="Trazado 97415" d="M658.419,1457.265l3.085,8.689s-4.958.933-6.812,1.273-12.21.793-12.472.976c-.195.137-2.334,7.056-3.29,10.871a8.975,8.975,0,0,1-3.927-.389c.533-5.459,2.46-14.107,3.077-15.049C639.086,1462.1,658.419,1457.265,658.419,1457.265Z" transform="translate(-630.995 -1434.968)" fill="#d1d1d1"/>
      <path id="Trazado_97416" data-name="Trazado 97416" d="M703.671,1560.446a24.414,24.414,0,0,0-.356,3.969c0,.1.241.569.248.677a6.474,6.474,0,0,1-4.594,3.373,28.84,28.84,0,0,0,1.831-2.33,33.754,33.754,0,0,0-.067-5.114C701.88,1561.307,702.522,1560.784,703.671,1560.446Z" transform="translate(-688.299 -1513.73)" fill="#ffc3b5"/>
      <path id="Trazado_97417" data-name="Trazado 97417" d="M643.621,1459.17l1.2,2.044a5.857,5.857,0,0,1-2.936,8.42l-.054.021c-1.757.681-11.845,3.066-12.068,3.3-.166.171-.971,7.368-1.194,11.3a8.974,8.974,0,0,1-3.93.355c-.5-5.462-.227-14.319.2-15.359C625.537,1467.546,643.621,1459.17,643.621,1459.17Z" transform="translate(-612.595 -1436.422)" fill="#fcfcfc"/>
      <path id="Trazado_97418" data-name="Trazado 97418" d="M699.271,1577.355c.268-.3,1.255,1.336,1.5,1.684a.781.781,0,0,1,.165.749c-.088.161-5.288,3.22-6.556,3.438a.636.636,0,0,1-.38-.1c-.5-.439,1.786-3.678,2.81-4.1A4.915,4.915,0,0,0,699.271,1577.355Z" transform="translate(-684.411 -1526.61)" fill="#8ec8c8"/>
      <path id="Trazado_97419" data-name="Trazado 97419" d="M738.265,1560.717c.319-.241.982,1.548,1.159,1.936a.779.779,0,0,1,.022.766c-.116.143-5.8,2.173-7.084,2.15a.638.638,0,0,1-.354-.171c-.4-.524,2.443-3.278,3.529-3.5A4.911,4.911,0,0,0,738.265,1560.717Z" transform="translate(-731.969 -1513.92)" fill="#8ec8c8"/>
      <path id="Trazado_97420" data-name="Trazado 97420" d="M628.278,1401.535h0a.857.857,0,0,1-.23-.048,3.979,3.979,0,0,0-2.072.118c-.877.37-2.237,3.828-2.156,7.378.032.542.065,1.028.093,1.367.221,2.681.991,7.713,1.032,7.74,1.047.673,7.36-1.938,7.794-2.512s.69-7.543.9-7.89l.415-6.061A47.634,47.634,0,0,0,628.278,1401.535Z" transform="translate(-600.898 -1392.327)" fill="#8ec8c8"/>
      <path id="Trazado_97421" data-name="Trazado 97421" d="M640.674,1388.99a16.155,16.155,0,0,0-.325,2.932c.082.829-.31,3.5-2.066,3.511s-.333-3.4-.168-4.211a31.1,31.1,0,0,0,.2-3.329Z" transform="translate(-610.735 -1382.014)" fill="#ffc3b5"/>
      <path id="Trazado_97422" data-name="Trazado 97422" d="M637.415,1389.155c.027-.688.036-1.262.036-1.262l2.354,1.1s-.083.43-.167.978A2.054,2.054,0,0,1,637.415,1389.155Z" transform="translate(-609.867 -1382.014)" fill="#fc8899"/>
      <path id="Trazado_97423" data-name="Trazado 97423" d="M632.25,1367.111a2.915,2.915,0,0,1,1.239,1.594c.332,1.091-.046,3.906-2.389,4.585s-3.359-1.55-2.876-3.292S629.756,1366.048,632.25,1367.111Z" transform="translate(-601.451 -1365.938)" fill="#ffc3b5"/>
      <path id="Trazado_97424" data-name="Trazado 97424" d="M647.836,1374.456c.046.469.3.826.577.8s.456-.428.411-.9-.3-.825-.577-.8S647.79,1373.988,647.836,1374.456Z" transform="translate(-621.357 -1371.073)" fill="#ffc3b5"/>
      <path id="Trazado_97425" data-name="Trazado 97425" d="M624.475,1367.406s.425,3.14,1.44,3.706.59,1.959.59,1.959.921-3.234.118-4.273A4.467,4.467,0,0,0,624.475,1367.406Z" transform="translate(-593.95 -1366.376)"/>
      <path id="Trazado_97426" data-name="Trazado 97426" d="M626.5,1383.433c-.275.409-.274.891,0,1.077s.724.005,1-.4.274-.892,0-1.078S626.776,1383.024,626.5,1383.433Z" transform="translate(-595.138 -1378.246)" fill="#ffc3b5"/>
      <path id="Trazado_97427" data-name="Trazado 97427" d="M638.857,1385.71l1.652.416a.751.751,0,0,1-.93.466C638.686,1386.395,638.857,1385.71,638.857,1385.71Z" transform="translate(-610.908 -1380.348)" fill="#fff"/>
      <path id="Trazado_97428" data-name="Trazado 97428" d="M591.892,1438c-.029-.076-.1-.077-.162-.079a16.577,16.577,0,0,1-1.955-.146,1.386,1.386,0,0,1-.314-.08.817.817,0,0,0-.54-.02,1.076,1.076,0,0,1-.3.032c-.328,0-1.266-.32-1.747-.4a.281.281,0,0,1-.225-.211c-.474-1.873-1.49-6.078-1.622-7.46-.168-1.768-1.389-9.738-1.389-9.738l-3.266.911s1.344,5.883,1.716,8.736c.287,2.2,2.489,6.877,3.179,8.222a1.377,1.377,0,0,0,1.269,1.049.409.409,0,0,1,.259.139,1.814,1.814,0,0,0,.412.359.963.963,0,0,1,.281.28c.139.2.263.414.386.627.082.141.167.185.287.152a.256.256,0,0,0,.189-.289,1.294,1.294,0,0,0-.2-.643.35.35,0,0,1,.026-.466,1.467,1.467,0,0,1,.245-.273.42.42,0,0,1,.334-.121,5.432,5.432,0,0,0,.712.132l.2.04.108.023c.017,0,.364.042.483.042.1,0,.25.007.382.013a2.079,2.079,0,0,0,.38-.057.466.466,0,0,0,.3-.122c.036-.032.07-.068.051-.122a.12.12,0,0,0-.106-.08,4.522,4.522,0,0,1-.48-.081c.121,0,.5-.009.618-.012a.567.567,0,0,0,.415-.182C591.871,1438.118,591.922,1438.071,591.892,1438Z" transform="translate(-548.462 -1406.438)" fill="#ffc3b5"/>
      <path id="Trazado_97429" data-name="Trazado 97429" d="M614.191,1402.263c1.612-.293,2.942,6.92,2.942,6.92s-3.582,1-4.5.476c0,0-1.042-4.617-1.415-4.456Z" transform="translate(-580.994 -1392.977)" fill="#8ec8c8"/>
    </g>
    <g id="Grupo_46870" data-name="Grupo 46870" transform="translate(519.305 793.178)">
      <g id="Grupo_46869" data-name="Grupo 46869" transform="translate(0 0)">
        <path id="Trazado_97430" data-name="Trazado 97430" d="M1309.507,1190.956s-.722.706-.738.966-.064,3.039.231,3.3,1.286.716.882.735c-.288.013-1.881.072-2.954.013-.313-.018-.655-2.423-.779-2.792-.18-.535-.618-1.74-.455-2.113a3.125,3.125,0,0,1,1-.9,4.935,4.935,0,0,0,1.107-1.183Z" transform="translate(-1302.291 -1113.761)" fill="#f48c7f"/>
        <path id="Trazado_97431" data-name="Trazado 97431" d="M1265.013,1204.166s-.647,1.831-.647,1.836c-.048.29-.237,1.007-.237,1.271,0,.991,4.456-.841,3.458-1.28a1.059,1.059,0,0,1-.4-.694,2.327,2.327,0,0,1,.375-1.172Z" transform="translate(-1250.217 -1125.325)" fill="#f7a491"/>
        <g id="Grupo_46867" data-name="Grupo 46867" transform="translate(4.747 44.737)">
          <path id="Trazado_97432" data-name="Trazado 97432" d="M1248.395,1060.193s.324,3.283.324,3.332c0,5.311,1.05,15.686.85,16.684-.487,2.435-5.729,14.859-5.729,14.859l-2.833-.339,3.692-14.875-1.359-5.988-1.921-11.835Z" transform="translate(-1231.355 -1060.193)" fill="#0f8a96"/>
          <path id="Trazado_97433" data-name="Trazado 97433" d="M1257.07,1064.608l-.538,3.113-1.454,12.807-5.539,12.516s.779,1.822,1.929,2.077l8.816-12.851,5.476-16.444-.193-3.653Z" transform="translate(-1249.539 -1061.704)" fill="#26aab7"/>
        </g>
        <path id="Trazado_97434" data-name="Trazado 97434" d="M1306,1193.9s1.665,4.7,2.316,4.928c.173.06,1,.213,1.16.581a1.133,1.133,0,0,1,.021.384h-3.47s-.46-1.974-.633-2.884a13.6,13.6,0,0,1-.817-2.426C1304.682,1194.283,1306,1193.9,1306,1193.9Z" transform="translate(-1301.564 -1117.519)"/>
        <path id="Trazado_97435" data-name="Trazado 97435" d="M1249.538,1213.588l.511-1.617a4.416,4.416,0,0,0,1.607.379,16.148,16.148,0,0,0,1.582-.379c2.139.706,3.891,1.049,3.572,1.617h-7.272Z" transform="translate(-1235.881 -1131.312)"/>
        <path id="Trazado_97436" data-name="Trazado 97436" d="M1142.338,892.2s3.765,2.437,13.044,2.105c0,0-9.946,3.756-13.835,4.337l-1.6-6.321Z" transform="translate(-1108.479 -887.217)" fill="#b54273"/>
        <path id="Trazado_97437" data-name="Trazado 97437" d="M1190.966,900.392a9.587,9.587,0,0,1-2.565,3.259l-.834-3.294.054-1.594Z" transform="translate(-1155.333 -892.231)" fill="#e36099"/>
        <path id="Trazado_97438" data-name="Trazado 97438" d="M1187.567,875.787s10.873-.735,12.564-.114l1.747,6.9a34.3,34.3,0,0,0-12.218,1.479Z" transform="translate(-1166.245 -874.415)" fill="#c1507f"/>
        <path id="Trazado_97439" data-name="Trazado 97439" d="M1210.322,1001.522l1.486,1.14c.286-.221.912-1.15,1.318-1.44l-1.358-1.481h0a.393.393,0,0,1-.159-.355,1.175,1.175,0,0,1,.038-.228c.042-.117.08-.257.122-.374s-.237-.353-.385-.394-.2.522-.259.69a18.329,18.329,0,0,0-.469,2.121Z" transform="translate(-1182.878 -968.278)" fill="#fc8899"/>
        <path id="Trazado_97440" data-name="Trazado 97440" d="M1231.117,1012.1c-.418-.445-1.007-.7-1.443-1.157l-6.594,4.54s-5.1-6.029-7.866-3.893a46.016,46.016,0,0,0,3.424,4.926c1.693,2.1,4.278,3.1,4.782,2.865C1223.988,1019.121,1230.969,1012.28,1231.117,1012.1Z" transform="translate(-1202.025 -977.861)" fill="#d1d1d1"/>
        <path id="Trazado_97441" data-name="Trazado 97441" d="M1323.855,939.116c.218.581.6,1.5.6,1.5.01.262.065,1.354.134,2.692l1.856-1.016a21.188,21.188,0,0,1-.214-2.3c.06-.121.2,0,.694-.924a1.683,1.683,0,0,0,.122-.712s-.03-.547-.158-.583a.256.256,0,0,0-.291.161c-.033.1.005.316-.027.415a.682.682,0,0,1-.421.255,7.3,7.3,0,0,1-.18-1.608s.011-.462.027-.614c.014-.13.084-.515.084-.515s.069-.555-.1-.576c-.1-.012-.3.455-.416.94a9.33,9.33,0,0,1-.22,1.065c-.127,0-.167-.887-.167-.887a2.839,2.839,0,0,0,.05-.606c.089-.247.115-.687-.1-.7a3.6,3.6,0,0,0-.244.578s-.06.4-.1.586a10.608,10.608,0,0,0-.057,1.063c-.026.19-.078.12-.1.13a4.63,4.63,0,0,1-.031-.6,3.532,3.532,0,0,1-.026-.584,4.249,4.249,0,0,0,.01-.621c-.022-.458-.3-.376-.351.05-.018.163-.037.34-.055.519-.071.7.012,1.354-.06,1.368a4.979,4.979,0,0,1-.176-1.182s-.226-.643-.3-.012a5.37,5.37,0,0,0,.01,1.335A5.184,5.184,0,0,0,1323.855,939.116Z" transform="translate(-1323.605 -919.967)" fill="#ffc3b5"/>
        <path id="Trazado_97442" data-name="Trazado 97442" d="M1274.008,974.546a1.076,1.076,0,0,0-1.764.443.8.8,0,0,0-1.014.4s-1.151-.2-1.22,1.494c0,0-.585-.039-.578.65a1.694,1.694,0,0,0,.407,1.1.82.82,0,0,0-.071.887.778.778,0,0,0,.638.544s.227.881.648,1.1a1.273,1.273,0,0,0,.933.029.6.6,0,0,0,.647.371c.448-.1.957-.6,1.487-.464a5.464,5.464,0,0,0,1.822-.231,1.851,1.851,0,0,0,.773-2.294,1.113,1.113,0,0,0-.09-1.554,1.936,1.936,0,0,0-.738-2.034A2.58,2.58,0,0,0,1274.008,974.546Z" transform="translate(-1260.741 -949.845)"/>
        <path id="Trazado_97443" data-name="Trazado 97443" d="M1249.586,1011.98l-2.277-1.172s-2.023.295-2.274.326-.723,9.455-.763,12.986.391,4.1.391,4.1a22.427,22.427,0,0,0,5.645-.165,18.332,18.332,0,0,0,5.059-2.186s-2.918-6.422-3.589-8.456S1249.586,1011.98,1249.586,1011.98Z" transform="translate(-1233.152 -977.758)" fill="#fcfcfc"/>
        <path id="Trazado_97444" data-name="Trazado 97444" d="M1284.249,971.186l-7.479-5.978s-1.7-6.3-1.8-6.537-1.762-.158-2.437-.142a45.338,45.338,0,0,0,1.4,7.93c.541,1.312,6.322,6.887,6.322,6.887a20.706,20.706,0,0,1,1.388,5.723c.133,4.124-.16,9.855.035,10.01,1.165.551,5.326.121,5.538-.334C1289.549,983.718,1284.249,971.186,1284.249,971.186Z" transform="translate(-1272.276 -937.834)" fill="#d1d1d1"/>
        <path id="Trazado_97445" data-name="Trazado 97445" d="M1278.5,999.629l.341,1.311s.634,1.872.162,2.3-2.486-2.078-2.486-2.078l-.231-3.4Z" transform="translate(-1264.541 -967.804)" fill="#ffc3b5"/>
        <path id="Trazado_97446" data-name="Trazado 97446" d="M1278.005,998.868a3.856,3.856,0,0,0,2.427,1.872l-.289-1.111-2.214-1.862Z" transform="translate(-1266.185 -967.804)" fill="#fc8899"/>
        <path id="Trazado_97447" data-name="Trazado 97447" d="M1274.442,981.59a1.794,1.794,0,0,1,2.5,1.137,13.557,13.557,0,0,1,.351,1.693c.217,1.553-.406,3.166-1.112,3.251a3.36,3.36,0,0,1-3.121-2.887A2.968,2.968,0,0,1,1274.442,981.59Z" transform="translate(-1261.929 -955.319)" fill="#ffc3b5"/>
        <path id="Trazado_97448" data-name="Trazado 97448" d="M1289.8,994.314a.522.522,0,1,1-.583-.56A.578.578,0,0,1,1289.8,994.314Z" transform="translate(-1278.123 -964.738)" fill="#ffc3b5"/>
        <path id="Trazado_97449" data-name="Trazado 97449" d="M1270.953,976.244c.8.49,1.162,1.338.809,1.894a1.545,1.545,0,0,1-2.088.119c-.8-.49-1.162-1.338-.809-1.894A1.545,1.545,0,0,1,1270.953,976.244Z" transform="translate(-1255.471 -951.119)"/>
        <path id="Trazado_97450" data-name="Trazado 97450" d="M1281.891,979.079c.03.251-.248.492-.623.537s-.7-.122-.733-.373.248-.492.622-.537S1281.86,978.828,1281.891,979.079Z" transform="translate(-1268.261 -953.248)"/>
        <path id="Trazado_97451" data-name="Trazado 97451" d="M1272.173,985.773a.583.583,0,1,1-.649-.515A.586.586,0,0,1,1272.173,985.773Z" transform="translate(-1256.292 -958.251)"/>
        <path id="Trazado_97452" data-name="Trazado 97452" d="M1243.4,1013.66s3.162,7.473,4.286,10.107c.122.285.733,2.148.755,2.334.051.412-1.682,1.153-1.9,1.148-.194,0-2.739-7.9-4.218-11.73a11.4,11.4,0,0,0-2.169-3.529l-.718-.593-.069-.222S1242.576,1011.459,1243.4,1013.66Z" transform="translate(-1225.065 -978.038)" fill="#d1d1d1"/>
        <rect id="Rectángulo_28282" data-name="Rectángulo 28282" width="0.585" height="52.501" transform="translate(20.707 0.144) rotate(-14.213)"/>
        <g id="Grupo_46868" data-name="Grupo 46868" transform="translate(28.549 30.676)">
          <path id="Trazado_97453" data-name="Trazado 97453" d="M1211.035,1002.381a1.758,1.758,0,0,0-.1-.343.97.97,0,0,0-.2-.314.6.6,0,0,1-.1-.207.356.356,0,0,0-.044-.083v0a.833.833,0,0,0-.195-.188.89.89,0,0,1-.21-.227.63.63,0,0,0-.235-.208c-.094-.046-.166-.047-.2.011-.155.267-.933,1.119-.618,1.532a9.929,9.929,0,0,1,.678.867c.1.224.438.208.643.13A.779.779,0,0,0,1211.035,1002.381Z" transform="translate(-1209.059 -1000.777)" fill="#ffc3b5"/>
        </g>
      </g>
      <path id="Trazado_97454" data-name="Trazado 97454" d="M1277.27,999.9l-1.51.166a.672.672,0,0,0,.767.525C1277.34,1000.521,1277.27,999.9,1277.27,999.9Z" transform="translate(-1262.51 -969.428)" fill="#fff"/>
    </g>
    <g id="Grupo_46871" data-name="Grupo 46871" transform="translate(556.872 903.301)">
      <path id="Trazado_97455" data-name="Trazado 97455" d="M948.359,1340.416a7.235,7.235,0,0,0,.9-.147,4.229,4.229,0,0,1,1.015-.146,2.315,2.315,0,0,1,1.79.927c.466.8,1.675.5.686,3.931-1.12,3.887-3.216,2.97-3.255,2.892s-1.4-2.955-1.4-2.955-.987,1.307-.975,1.255S944.744,1340.805,948.359,1340.416Z" transform="translate(-897.971 -1339.257)"/>
      <path id="Trazado_97456" data-name="Trazado 97456" d="M975.345,1375.854c.014-.256,1.177.012,1.328-.19s-1.273-.81-1.242-1.03c.057-.4,1.6.57,1.638.385s-1.5-1.268-1.2-1.486,1.482,1.29,1.61,1.11-1.22-1.3-1.013-1.73c.111-.227,2.063,2.214,2.409,2.208s.19-1.355.491-1.421-.017,2.6.112,2.75a39.251,39.251,0,0,0,3.828,4.316c.315-.347,2.266-2.067,2.555-2.4.482.766,1.229,1.2,1.751,1.931-1.037,1.068-4.086,3.491-4.508,3.506-1.283.042-4.036-5.153-4.626-6.091s-1.148-.944-1.636-1.365S975.331,1376.11,975.345,1375.854Z" transform="translate(-939.318 -1364.277)" fill="#edaea2"/>
      <path id="Trazado_97457" data-name="Trazado 97457" d="M960.882,1388.961s4.332-3.333,5.145-4.834-1.108-2.566-2.618-2.583-4.707,4.478-4.707,4.478Z" transform="translate(-913.99 -1370.877)" fill="#c1507f"/>
      <path id="Trazado_97458" data-name="Trazado 97458" d="M985.776,1609.707s.129,2.326.13,2.331c.047.3.234,1.025.234,1.293,0,1.009-4.4-.856-3.418-1.3.089-.04.558-.346.587-.689.046-.529.161-1.6.161-1.6Z" transform="translate(-939.559 -1545.041)" fill="#ffc3b5"/>
      <path id="Trazado_97459" data-name="Trazado 97459" d="M985.676,1619.341a15.665,15.665,0,0,0,1.564.385c.53.077,1.228-.573,1.6-.4.413.193.371,2.095.371,2.095s-5.521.331-7.081-.181C981.515,1621.041,983.562,1620.06,985.676,1619.341Z" transform="translate(-942.502 -1552.363)" fill="#fcfcfc"/>
      <path id="Trazado_97460" data-name="Trazado 97460" d="M944.764,1610.649s.129,2.326.13,2.331c.048.3.235,1.025.235,1.293,0,1.009-4.406-.856-3.418-1.3.089-.04.7-.575.726-.918.045-.529.021-1.37.021-1.37Z" transform="translate(-888.841 -1545.761)" fill="#ffc3b5"/>
      <path id="Trazado_97461" data-name="Trazado 97461" d="M944.571,1620.284a15.675,15.675,0,0,0,1.564.386c.529.077,1.228-.573,1.6-.4.412.193.429,1.931.429,1.931s-5.9.436-7.291.027C940.253,1622.046,942.456,1621,944.571,1620.284Z" transform="translate(-891.691 -1553.083)" fill="#fcfcfc"/>
      <path id="Trazado_97462" data-name="Trazado 97462" d="M954.106,1468.77l-1.863.818-3.918,19.059.159,14.287,3.141.074s1.461-12.5,1.461-13.466,6.766-16.95,6.766-16.95Z" transform="translate(-905.164 -1437.459)" fill="#03192b"/>
      <path id="Trazado_97463" data-name="Trazado 97463" d="M936.756,1468.484s1.372,14.684,1.372,17.159,1.113,16.329,1.113,16.329l3.148-.018s.227-4.223.565-10.435c.053-.973-.068-2.936,0-3.943.49-7.244,1.051-19.442.778-19.729C941.669,1465.673,936.756,1468.484,936.756,1468.484Z" transform="translate(-886.377 -1436.125)" fill="#00223d"/>
      <path id="Trazado_97464" data-name="Trazado 97464" d="M943.174,1380.051a13.066,13.066,0,0,1,3.073.639c.683.425,1.039,2.2,1.039,2.2s-.39,9.211-.21,11.365c.139,1.666.21,8.481.21,8.481s-7.986,1.205-11.133.244c0,0,.543-4.947.433-6.224s.042-12.991.234-13.824a3.072,3.072,0,0,1,1.933-2.568A17.551,17.551,0,0,1,943.174,1380.051Z" transform="translate(-889.717 -1369.72)" fill="#fcfcfc"/>
      <path id="Trazado_97465" data-name="Trazado 97465" d="M955.662,1369.32l.8,3.037s-1.459,1.828-2.655,1.61c-1-.183-.86-1.472-.86-1.472a7.872,7.872,0,0,0,.149-2.65C952.861,1368.986,955.662,1369.32,955.662,1369.32Z" transform="translate(-902.867 -1361.497)" fill="#ffc3b5"/>
      <path id="Trazado_97466" data-name="Trazado 97466" d="M956.055,1369.846c-.235-.859,2.566-.525,2.566-.525l.066.252a1.417,1.417,0,0,1-.262.456,3.9,3.9,0,0,1-2.325,1.157A4.2,4.2,0,0,0,956.055,1369.846Z" transform="translate(-905.826 -1361.497)" fill="#fc8899"/>
      <path id="Trazado_97467" data-name="Trazado 97467" d="M1161.837,1598.922s-.806.786-.824,1.075-.072,3.38.258,3.668,1.3.493.984.818c-.235.245-2.041.192-3.238.126-.349-.019-.788-2.807-.926-3.216-.2-.6-.69-1.936-.507-2.35a3.489,3.489,0,0,1,1.115-1.005,5.468,5.468,0,0,0,1.236-1.315Z" transform="translate(-1157.143 -1535.13)" fill="#ffc3b5"/>
      <path id="Trazado_97468" data-name="Trazado 97468" d="M1112.477,1613.614s-.721,2.037-.722,2.042c-.054.323-.265,1.12-.265,1.413,0,1.1,4.97-.935,3.857-1.424a1.173,1.173,0,0,1-.45-.772,2.584,2.584,0,0,1,.419-1.3Z" transform="translate(-1099.437 -1547.99)" fill="#ffc3b5"/>
      <path id="Trazado_97469" data-name="Trazado 97469" d="M1093.94,1453.5s.363,3.651.363,3.706c0,5.907,1.17,17.444.948,18.555-.543,2.708-6.39,16.525-6.39,16.525l-3.16-.378,4.118-16.543-1.515-6.659-2.144-13.162Z" transform="translate(-1073.104 -1425.8)" fill="#03192b"/>
      <path id="Trazado_97470" data-name="Trazado 97470" d="M1103.616,1458.406l-.6,3.461-1.622,14.243-6.178,13.92s.869,2.026,2.151,2.31l9.832-14.292,6.108-18.288-.214-4.062Z" transform="translate(-1093.385 -1427.481)" fill="#00223d"/>
      <path id="Trazado_97471" data-name="Trazado 97471" d="M1157.772,1602.2s1.856,5.228,2.583,5.481c.193.067,1.119.237,1.294.647a1.783,1.783,0,0,1,0,.536h-3.871s-.49-2.3-.683-3.316a15.008,15.008,0,0,1-.91-2.7C1156.3,1602.621,1157.772,1602.2,1157.772,1602.2Z" transform="translate(-1156.176 -1539.309)"/>
      <path id="Trazado_97472" data-name="Trazado 97472" d="M1095.218,1624.092l.569-1.8a4.938,4.938,0,0,0,1.793.421,18,18,0,0,0,1.765-.421c2.386.785,4.339,1.166,3.984,1.8h-8.11Z" transform="translate(-1083.447 -1554.649)"/>
      <path id="Trazado_97473" data-name="Trazado 97473" d="M1018.985,1412.829l-.326.2a2.491,2.491,0,0,1-.4.283c-.081.019-2.309-.03-2.309-.03s-.008.741.007.741,1.172.944,1.172.944l.247.112,1.518-.453,1.386-.174s.983-.114.983-.137a6.461,6.461,0,0,0-.067-.839c-.039-.038-.6-.609-.6-.609s-.427-.1-.441-.1-.427-.082-.442-.086-.661.1-.661.1Z" transform="translate(-982.579 -1394.644)" fill="#edaea2"/>
      <path id="Trazado_97474" data-name="Trazado 97474" d="M1016.034,1414.338a3.75,3.75,0,0,0-.69.154c-.24.1-2.138,1.534-2.138,1.534s-.255.139-.389.029a.306.306,0,0,1-.125-.24s-.226.125-.379.039a.258.258,0,0,1-.129-.3.432.432,0,0,1-.35-.048c-.129-.11-.062-.393-.062-.393s-.408.249-.566.081-.091-.345.067-.479,1.1-.758,1.208-.83.422-.4.518-.446.331-.172.331-.172.393.042.417.057.134.288.331.36a.5.5,0,0,0,.436-.058.377.377,0,0,0,0-.149,3.362,3.362,0,0,1-.187-.436c-.034-.168-.077-.216-.139-.254s-.4-.139-.571-.206a2.824,2.824,0,0,0-.872.129l-.336.144s.062-.248.273-.287.475-.1.623-.111.495.091.653.1a2.563,2.563,0,0,1,.633.1,7.531,7.531,0,0,0,1.319-.01S1016.379,1413.906,1016.034,1414.338Z" transform="translate(-976.334 -1394.47)" fill="#ffc3b5"/>
      <path id="Trazado_97475" data-name="Trazado 97475" d="M945.826,1400.533c.452-.01,5.669-.054,7.629-.07a2.165,2.165,0,0,0,1.318-.463l4.36-3.431,2.646,2.774-5.325,3.681a8.774,8.774,0,0,1-2.838.443c-2.058-.208-7.292-1.256-7.816-1.185Z" transform="translate(-906.493 -1382.347)" fill="#ffc3b5"/>
      <path id="Trazado_97476" data-name="Trazado 97476" d="M1045.353,1402.442c-.452-.01-5.948-.09-7.908-.106a2.161,2.161,0,0,1-1.318-.463l-4.36-3.431-1.909,2.2,5.412,3.91a1.822,1.822,0,0,0,1.251.336c2.058-.208,7.7-.759,8.221-.688Z" transform="translate(-1009.961 -1383.775)" fill="#edaea2"/>
      <path id="Trazado_97477" data-name="Trazado 97477" d="M936.026,1387.241s3.649-3.839,4.969-4.808a1.9,1.9,0,0,1,3.079,1.524c.123,2.441-4.716,6.809-4.716,6.809Z" transform="translate(-886.478 -1371.239)" fill="#c1507f"/>
      <path id="Trazado_97478" data-name="Trazado 97478" d="M1086.856,1387.244s-3.65-3.839-4.97-4.808-3.975-.145-3.765,1.519c.215,1.7,6.177,5.994,6.177,5.994Z" transform="translate(-1062.884 -1371.242)" fill="#167377"/>
      <path id="Trazado_97479" data-name="Trazado 97479" d="M1099,1384.84c.085.588,1.648,16.571,1.648,16.571-7.4,3.574-11.484.636-11.484.636s.243-11.223-.048-12.751c-.192-1.011-.013-7.823.642-8.011a11.963,11.963,0,0,1,2.436-.511,27.374,27.374,0,0,1,5,.062A7.938,7.938,0,0,1,1099,1384.84Z" transform="translate(-1079.266 -1370.227)" fill="#167377"/>
      <path id="Trazado_97480" data-name="Trazado 97480" d="M1107.586,1366.514l-.545,3.329s1.993,4.236,3.184,3.879c1-.3.384-3.937.384-3.937a9.58,9.58,0,0,1-.381-2.931C1110.392,1365.876,1107.586,1366.514,1107.586,1366.514Z" transform="translate(-1093.671 -1359.247)" fill="#ffc3b5"/>
      <path id="Trazado_97481" data-name="Trazado 97481" d="M1111.835,1366.853c.163-.977-2.642-.339-2.642-.339l-.046.286a1.58,1.58,0,0,0,.3.481,3.768,3.768,0,0,0,2.454,1.065A5.1,5.1,0,0,1,1111.835,1366.853Z" transform="translate(-1095.278 -1359.247)" fill="#fc8899"/>
      <path id="Trazado_97482" data-name="Trazado 97482" d="M1102.526,1343.054c-.08-.028-.636,3.933.42,5.022s3.113,1.446,3.851.588c.816-.949.775-5.205-.866-6.327S1102.526,1343.054,1102.526,1343.054Z" transform="translate(-1089.072 -1340.673)" fill="#ffc3b5"/>
      <path id="Trazado_97483" data-name="Trazado 97483" d="M1108.346,1337.327a2.975,2.975,0,0,0-2.168,1.654,3.129,3.129,0,0,0,.9,4.187,2.444,2.444,0,0,1,1.137,1.841l.188-.5a2.762,2.762,0,0,0,.145-1.207,2.288,2.288,0,0,0-.187-.726c-.279-.573.6-.954.844-1.431.189-.367.2-1.207.5-1.814l.356-.464a2.328,2.328,0,0,1,1.625-.44C1112.482,1338.6,1111.495,1334.835,1108.346,1337.327Z" transform="translate(-1094.505 -1336.471)"/>
      <path id="Trazado_97484" data-name="Trazado 97484" d="M1118.586,1356.381c.009.483-.221.879-.512.883s-.533-.383-.542-.866.22-.879.511-.883S1118.577,1355.9,1118.586,1356.381Z" transform="translate(-1103.944 -1351.008)" fill="#ffc3b5"/>
      <path id="Trazado_97485" data-name="Trazado 97485" d="M1106.158,1363.024l-1.744.177a.766.766,0,0,0,.877.6C1106.229,1363.736,1106.158,1363.024,1106.158,1363.024Z" transform="translate(-1088.412 -1356.74)" fill="#fff"/>
      <path id="Trazado_97486" data-name="Trazado 97486" d="M1135.295,1414.855a.478.478,0,0,1,0-.108c.116-1.17,1.087-10.993,1.25-11.411.148-.377,4.5-6.607,4.5-6.607l2.141,2.917-4.189,5.589c-.094.355-1.605,6.986-1.605,6.986s-.31,1.209-.449,1.933c.064.174.126.339.181.474a4.308,4.308,0,0,0,.451.726,4.981,4.981,0,0,1,.535.946c.044.171.124.525.17.739s.107.464.118.58a1.122,1.122,0,0,0,.135.311.187.187,0,0,1-.221.27c-.152-.05-.271-.248-.344-.37-.206-.346-.316-.979-.367-.945s-.232,1.107-.261,1.228a13.179,13.179,0,0,1-.367,1.6c-.122.228-.284.19-.327.047-.037-.123.135-1.867.135-1.867s.022-.223-.076-.153-.256,1.653-.325,1.884-.222.354-.354.168a7.02,7.02,0,0,1,.115-1.906s.03-.211-.059-.191-.2,1.369-.274,1.485a.178.178,0,0,1-.332-.036,8.328,8.328,0,0,1,.159-1.726s-.012-.119-.069-.08-.235,1.183-.352,1.289a.123.123,0,0,1-.179,0c-.214-.146.114-1.234.111-1.774a13.394,13.394,0,0,0,.173-1.792C1135.317,1415.017,1135.3,1414.918,1135.295,1414.855Z" transform="translate(-1132.671 -1382.468)" fill="#ffc3b5"/>
      <path id="Trazado_97487" data-name="Trazado 97487" d="M1126.935,1390.314l3.721,2.5a40.371,40.371,0,0,1,3.223-4.232c1.41-1.392-.514-5.656-1.423-5.414C1130.425,1383.706,1126.935,1390.314,1126.935,1390.314Z" transform="translate(-1121.963 -1372.108)" fill="#167377"/>
      <path id="Trazado_97488" data-name="Trazado 97488" d="M955.462,1347.072a1.924,1.924,0,0,0-2.583,1.421,14.654,14.654,0,0,0-.241,1.842c-.108,1.681.684,3.359,1.446,3.393a3.611,3.611,0,0,0,3.1-3.346A3.186,3.186,0,0,0,955.462,1347.072Z" transform="translate(-903.531 -1344.461)" fill="#ffc3b5"/>
      <path id="Trazado_97489" data-name="Trazado 97489" d="M950.456,1360.091a.56.56,0,1,0,.579-.647A.62.62,0,0,0,950.456,1360.091Z" transform="translate(-897.369 -1354.006)" fill="#ffc3b5"/>
      <path id="Trazado_97490" data-name="Trazado 97490" d="M955.122,1348.163s-.935.024-1.138-.619a2.744,2.744,0,0,0-2.717-1.955c-1.609.179,1.591-.95,1.71-.923l1.558.334s.906,1.156.924,1.264.1,1.271.1,1.271Z" transform="translate(-901.456 -1342.726)"/>
      <path id="Trazado_97491" data-name="Trazado 97491" d="M963.406,1367.828l-1.682-.048a.736.736,0,0,0,.758.685C963.384,1368.517,963.406,1367.828,963.406,1367.828Z" transform="translate(-911.889 -1360.371)" fill="#fff"/>
    </g>
  </g>
</svg>
