<svg xmlns="http://www.w3.org/2000/svg" xmlns:xlink="http://www.w3.org/1999/xlink" width="91.927" height="91.928" viewBox="0 0 91.927 91.928">
  <defs>
    <radialGradient id="radial-gradient" cx="0.076" cy="0.019" r="1.465" gradientTransform="translate(0.001)" gradientUnits="objectBoundingBox">
      <stop offset="0" stop-color="#f6f6f7"/>
      <stop offset="0.477" stop-color="#f9f9fa"/>
      <stop offset="0.715" stop-color="#fff"/>
    </radialGradient>
  </defs>
  <g id="Grupo_55412" data-name="Grupo 55412" transform="translate(-217 -741.333)">
    <g id="Grupo_42274" data-name="Grupo 42274" transform="translate(142 768.333)">
      <g id="Grupo_18423" data-name="Grupo 18423" transform="translate(75 -27)">
        <g id="Grupo_18421" data-name="Grupo 18421">
          <g id="Grupo_18420" data-name="Grupo 18420">
            <g id="Grupo_18419" data-name="Grupo 18419">
              <path id="Trazado_40936" data-name="Trazado 40936" d="M286.55,2191.684a45.964,45.964,0,1,1-45.963-45.962A45.963,45.963,0,0,1,286.55,2191.684Z" transform="translate(-194.623 -2145.721)" fill="#fff"/>
            </g>
          </g>
        </g>
        <path id="Trazado_40937" data-name="Trazado 40937" d="M286.23,2191.334a45.963,45.963,0,1,0-45.963,45.965A45.782,45.782,0,0,0,286.23,2191.334Z" transform="translate(-194.303 -2145.372)" fill="url(#radial-gradient)"/>
        <path id="Trazado_40938" data-name="Trazado 40938" d="M272.56,2188.562a35.084,35.084,0,1,0-35.084,35.084A34.953,34.953,0,0,0,272.56,2188.562Z" transform="translate(-191.373 -2142.446)" fill="none" stroke="#7d6eb2" stroke-miterlimit="10" stroke-width="4"/>
        <g id="Grupo_18422" data-name="Grupo 18422" transform="translate(8.143 25.805)">
          <path id="Trazado_40939" data-name="Trazado 40939" d="M279.682,2164.488a45.969,45.969,0,0,1-79.137,45.773,45.823,45.823,0,0,0,79.137-45.773Z" transform="translate(-200.545 -2164.488)" fill="#eceef0"/>
        </g>
      </g>
    </g>
    <g id="Grupo_55417" data-name="Grupo 55417">
      <g id="Grupo_55416" data-name="Grupo 55416" transform="translate(-227.164 950.615)">
        <path id="Trazado_117271" data-name="Trazado 117271" d="M476.676-145.548c0-1.018.007-2.036-.008-3.054a.622.622,0,0,0-.18-.406,21.826,21.826,0,0,1-7.3-13.84,21.658,21.658,0,0,1,7.562-19.723,20.949,20.949,0,0,1,10.953-5.085,21.7,21.7,0,0,1,16.648,4.02,21.392,21.392,0,0,1,8.719,13.852,21.7,21.7,0,0,1-4.729,18.26c-.708.872-1.548,1.638-2.341,2.439a.7.7,0,0,0-.24.545c0,2,.043,3.993-.024,5.987a5.141,5.141,0,0,1-4.2,4.816,5.2,5.2,0,0,1-5.8-3.126,12.908,12.908,0,0,0-1-2.091,3.971,3.971,0,0,0-3.812-1.889,4.143,4.143,0,0,0-3.592,2.538c-.342.718-.612,1.474-1.005,2.162a5.145,5.145,0,0,1-5.654,2.356,5.169,5.169,0,0,1-3.963-4.673c-.051-1.026-.009-2.056-.009-3.084Zm14.588-13.285q-3.992,0-7.984,0a5.508,5.508,0,0,0-3.211.989,5.5,5.5,0,0,0-2.523,4.673c-.027,3.437-.009,6.875-.006,10.312a4.47,4.47,0,0,0,.056.661,4.323,4.323,0,0,0,3.8,3.661,4.322,4.322,0,0,0,4.458-2.553c.238-.534.442-1.083.7-1.607a4.923,4.923,0,0,1,4.678-3.011,4.917,4.917,0,0,1,4.644,3.015c.251.515.452,1.055.688,1.579a4.331,4.331,0,0,0,4.892,2.511,4.345,4.345,0,0,0,3.439-4.263q.017-5.186,0-10.372a5.566,5.566,0,0,0-5.65-5.6ZM478.7-166.148c.007-.129.014-.227.018-.326a25.9,25.9,0,0,1,1.577-8.184c.088-.238.023-.328-.173-.44a21.954,21.954,0,0,1-5.062-3.989c-.087-.092-.163-.194-.263-.315a21.415,21.415,0,0,0-4.956,13.254Zm28.975-13.217a.634.634,0,0,0-.077.054,22.344,22.344,0,0,1-5.369,4.271c-.169.1-.121.192-.074.321a25.716,25.716,0,0,1,1.538,7.3c.025.419.047.837.07,1.253H512.6A21.367,21.367,0,0,0,507.673-179.365Zm-37.794,14.1a20.356,20.356,0,0,0,1.834,8.283c1.189,2.573,3.921,6.366,4.964,6.88,0-.112,0-.21,0-.309,0-.907-.012-1.814,0-2.721a6.467,6.467,0,0,1,2.776-5.339.348.348,0,0,0,.146-.448,26.087,26.087,0,0,1-.89-6.116c0-.076-.019-.152-.029-.231Zm35.885,15.237a21.365,21.365,0,0,0,5.585-8.45,20.453,20.453,0,0,0,1.238-6.77h-8.824a1.008,1.008,0,0,0-.02.118,25.444,25.444,0,0,1-.886,6.2.311.311,0,0,0,.158.392,6.083,6.083,0,0,1,2.595,4.033,23.825,23.825,0,0,1,.151,2.949C505.777-151.07,505.763-150.59,505.763-150.025ZM491.67-172.989a21.35,21.35,0,0,0,9.318-2.357A25.482,25.482,0,0,0,491.67-186.7Zm-.885-13.708a25.493,25.493,0,0,0-9.318,11.361,21.265,21.265,0,0,0,9.318,2.343Zm12.064,20.543a23.724,23.724,0,0,0-1.558-8.343.181.181,0,0,0-.058,0,1.4,1.4,0,0,0-.138.06,21.866,21.866,0,0,1-9.155,2.287c-.256.007-.288.118-.288.333.006,1.783,0,3.566,0,5.349v.313Zm-12.069,0v-5.977a22.281,22.281,0,0,1-9.625-2.395,24.908,24.908,0,0,0-1.578,8.371Zm.9,6.469h.316q3.688,0,7.377,0a3.893,3.893,0,0,1,.782.051c.627.13,1.247.291,1.885.443a.8.8,0,0,0,.036-.1,25.7,25.7,0,0,0,.818-5.7c.009-.27-.117-.285-.326-.284q-5.26.006-10.52,0h-.367Zm-11.223.634a7.754,7.754,0,0,1,3.663-.642c2.106.022,4.212.008,6.318.009h.343v-5.571h-11.2A24.758,24.758,0,0,0,480.452-159.052Zm.254-16.7a26.416,26.416,0,0,1,9.019-11.267,21.145,21.145,0,0,0-14.35,7A21.5,21.5,0,0,0,480.706-175.749Zm26.376-4.285a21.477,21.477,0,0,0-6.473-4.88c-2.266-1.115-6.844-2.326-7.808-2.05a26.3,26.3,0,0,1,8.948,11.206A21.611,21.611,0,0,0,507.083-180.034Z" fill="#12263f"/>
        <path id="Trazado_117285" data-name="Trazado 117285" d="M672.851,355.218c.27.261.471.445.66.639a1.914,1.914,0,1,1-2.709,2.7c-.194-.19-.366-.4-.638-.7-.219.267-.38.5-.576.7a1.911,1.911,0,0,1-2.732-2.674c.194-.2.4-.4.627-.622-.2-.2-.38-.393-.569-.582a1.916,1.916,0,1,1,2.7-2.717c.185.183.363.375.587.608.2-.209.365-.4.551-.585a1.914,1.914,0,1,1,2.7,2.712C673.272,354.873,673.072,355.027,672.851,355.218Zm-.74,3.12.047-.075a1.02,1.02,0,0,0,.955-.621.983.983,0,0,0-.186-1.147c-.277-.306-.582-.585-.871-.88a.449.449,0,0,1,0-.731c.28-.29.573-.566.85-.858a1.028,1.028,0,0,0-.011-1.487,1.039,1.039,0,0,0-1.49.014c-.282.273-.554.557-.834.832a.456.456,0,0,1-.751-.008c-.271-.27-.538-.544-.812-.811a1.06,1.06,0,0,0-1.517-.022,1.041,1.041,0,0,0,.025,1.512c.275.281.554.556.829.836a.449.449,0,0,1,.007.71c-.258.269-.524.529-.789.792a1.057,1.057,0,1,0,1.48,1.5c.274-.267.539-.543.816-.807a.429.429,0,0,1,.684,0c.28.275.538.576.84.825A4.925,4.925,0,0,0,672.11,358.339Z" transform="translate(-185.383 -506.694)" fill="#12263f"/>
        <path id="Trazado_117286" data-name="Trazado 117286" d="M874.758,340.816h.789a1.916,1.916,0,1,1,.017,3.83c-.251,0-.5,0-.807,0,0,.293,0,.571,0,.847a1.915,1.915,0,0,1-2.921,1.64,1.828,1.828,0,0,1-.9-1.581c-.01-.289,0-.579,0-.9h-.781a1.917,1.917,0,1,1-.021-3.832c.257,0,.6.059.747-.076.129-.116.049-.472.049-.722a1.917,1.917,0,1,1,3.833-.037C874.763,340.242,874.758,340.5,874.758,340.816Zm.246.86c-.2,0-.4,0-.6,0-.352-.008-.489-.144-.495-.5-.006-.413.013-.827-.009-1.239a1.054,1.054,0,1,0-2.107.054c0,.363,0,.726,0,1.088,0,.46-.142.6-.594.6-.363,0-.726-.005-1.088,0a1.057,1.057,0,1,0,.019,2.112c.373,0,.746,0,1.119,0,.4,0,.539.141.544.55,0,.363,0,.726,0,1.088a1.061,1.061,0,0,0,1.045,1.129,1.075,1.075,0,0,0,1.066-1.117c.008-.353,0-.705,0-1.058,0-.5.1-.595.61-.594.373,0,.746.011,1.118,0a1.055,1.055,0,0,0,.007-2.11C875.428,341.669,875.216,341.677,875,341.677Z" transform="translate(-375.013 -494.176)" fill="#12263f"/>
      </g>
    </g>
  </g>
</svg>
