<svg xmlns="http://www.w3.org/2000/svg" xmlns:xlink="http://www.w3.org/1999/xlink" width="388.351" height="625.96" viewBox="0 0 388.351 625.96">
  <defs>
    <linearGradient id="linear-gradient" x1="0.5" x2="0.5" y2="1" gradientUnits="objectBoundingBox">
      <stop offset="0" stop-color="#c33aa3"/>
      <stop offset="1" stop-color="#7d6eb2"/>
    </linearGradient>
  </defs>
  <g id="Instagram_Video_Streaming-pana" data-name="Instagram Video Streaming-pana" transform="translate(-171.463 -19.91)">
    <g id="freepik--Icon--inject-22" transform="translate(465.982 302.344)">
      <path id="Trazado_128883" data-name="Trazado 128883" d="M415.976,321.732h0a46.916,46.916,0,0,1-46.916-46.916h0A46.916,46.916,0,0,1,415.976,227.9h0a46.916,46.916,0,0,1,46.916,46.916h0a46.916,46.916,0,0,1-46.916,46.916Z" transform="translate(-369.06 -227.9)" fill="url(#linear-gradient)"/>
      <path id="Trazado_128884" data-name="Trazado 128884" d="M410.375,248.165c6.871,0,7.686,0,10.4.149a14.354,14.354,0,0,1,4.766.883,8.052,8.052,0,0,1,2.96,1.928,7.823,7.823,0,0,1,1.928,2.96,14.107,14.107,0,0,1,.883,4.78c.122,2.716.149,3.517.149,10.388s0,7.686-.149,10.4a14.106,14.106,0,0,1-.883,4.78,8.582,8.582,0,0,1-4.889,4.875,14,14,0,0,1-4.766.883c-2.716.122-3.531.149-10.4.149s-7.686,0-10.388-.149a14.109,14.109,0,0,1-4.78-.883,7.727,7.727,0,0,1-2.96-1.928,8.147,8.147,0,0,1-1.928-2.947,14.106,14.106,0,0,1-.883-4.78c-.122-2.716-.149-3.531-.149-10.4s0-7.672.149-10.388a14.109,14.109,0,0,1,.883-4.78,8.147,8.147,0,0,1,1.928-2.96,8.052,8.052,0,0,1,2.96-1.928,14.462,14.462,0,0,1,4.834-.937c2.716-.122,3.517-.149,10.388-.149m0-4.631c-6.98,0-7.862,0-10.605.149a18.781,18.781,0,0,0-6.246,1.195,13.254,13.254,0,0,0-7.523,7.523,18.85,18.85,0,0,0-1.2,6.246c-.122,2.716-.149,3.626-.149,10.605s0,7.862.149,10.605a18.714,18.714,0,0,0,1.2,6.246,13.158,13.158,0,0,0,7.523,7.523,18.783,18.783,0,0,0,6.247,1.195c2.716.136,3.626.163,10.605.163s7.862,0,10.605-.163a18.713,18.713,0,0,0,6.246-1.195,13.05,13.05,0,0,0,7.523-7.523A18.712,18.712,0,0,0,436,279.8c.122-2.716.163-3.612.163-10.605s0-7.862-.163-10.605a18.851,18.851,0,0,0-1.195-6.246,13.159,13.159,0,0,0-7.523-7.523,18.711,18.711,0,0,0-6.246-1.2c-2.716-.122-3.612-.149-10.605-.149" transform="translate(-363.459 -222.324)" fill="#fff"/>
      <path id="Trazado_128885" data-name="Trazado 128885" d="M407.093,252.73a13.213,13.213,0,1,0,13.213,13.212,13.213,13.213,0,0,0-13.213-13.212m0,21.727a8.569,8.569,0,1,1,6.073-2.51,8.582,8.582,0,0,1-6.073,2.51" transform="translate(-360.176 -219.013)" fill="#fff"/>
      <path id="Trazado_128886" data-name="Trazado 128886" d="M417.632,253.163a3.082,3.082,0,1,1-.908-2.184,3.1,3.1,0,0,1,.908,2.184" transform="translate(-353.891 -219.961)" fill="#fff"/>
    </g>
    <g id="freepik--Character--inject-22" transform="translate(194.271 156.676)">
      <path id="Trazado_128887" data-name="Trazado 128887" d="M218.123,396.321a256.554,256.554,0,0,0-11.963,27.5c-5.011,14-15.059,90.247-15.059,90.247l207.232-.6,4.658-.217s-6.355-94.335-33.269-125.091Z" transform="translate(-161.044 -24.872)" fill="#263238"/>
      <path id="Trazado_128888" data-name="Trazado 128888" d="M405.831,331.4c-2.512-2.648-5.608-4.875-7.265-8.148-4.318-8.473,3.11-18.6,1.521-27.973-2.213-13.117-19.242-16.974-27.987-27.009-10.537-12.085-7.183-30.377-4.563-46.169,3.123-18.875,4.264-38.538-1.276-56.843-2.784-9.207-9.125-18.508-17.042-26.208a61.677,61.677,0,0,0-40.493-17.137h0c-13.579-.57-26.181,13.579-37.288,21.482-23.886,16.892-36.555,34.871-41.186,67.326-5.975,41.905,8.609,84.992,33.446,119.266,20.111,27.756,48.084,51.248,81.475,59.178,12.221,2.892,25.094,3.639,37.112.149s23.085-11.542,28.3-22.894S414.454,340.472,405.831,331.4Z" transform="translate(-147.509 -120.173)" fill="#263238"/>
      <path id="Trazado_128889" data-name="Trazado 128889" d="M332.006,309.247a13.835,13.835,0,0,0,1.168-4.753,19.011,19.011,0,0,0-4.753-12.221c-1.724-2.268-3.884-4.563-5.961-7.265a22.554,22.554,0,0,1-4.726-9.872,12.492,12.492,0,0,1,.407-6.056c.679-2.023,2.023-3.653,2.716-5.432a4.848,4.848,0,0,0-.787-5.282c-1.249-1.575-3.042-2.933-4.359-4.848a21.021,21.021,0,0,1-3.476-12.493,38.133,38.133,0,0,1,2.241-11.841c2.458-7.238,5.364-13.457,6.314-19.011a25.6,25.6,0,0,0-.652-13.253,27.624,27.624,0,0,0-2.173-4.44,11.869,11.869,0,0,1,2.634,4.264,25.325,25.325,0,0,1,1.073,13.579c-.869,5.8-3.734,12.14-6.1,19.282a38.021,38.021,0,0,0-2.1,11.5,19.839,19.839,0,0,0,3.273,11.746c1.168,1.738,2.906,3.042,4.318,4.807a7.142,7.142,0,0,1,1.467,3.123,6.206,6.206,0,0,1-.475,3.395c-.856,2.023-2.159,3.612-2.716,5.432a11.366,11.366,0,0,0-.394,5.432,21.728,21.728,0,0,0,4.413,9.505c2,2.716,4.074,5.011,5.839,7.346,3.585,4.617,4.861,9.505,4.522,12.778a9.505,9.505,0,0,1-.964,3.626A3.819,3.819,0,0,1,332.006,309.247Z" transform="translate(-117.694 -94.91)" fill="#455a64"/>
      <path id="Trazado_128890" data-name="Trazado 128890" d="M305.465,270.484a4.008,4.008,0,0,1-.394-.706,16.941,16.941,0,0,1-.842-2.118,28.436,28.436,0,0,1-1.358-8.3,46.736,46.736,0,0,1,1.467-12.384,110.365,110.365,0,0,1,4.821-14.435c2-5,3.857-9.75,5.214-14.177a56.954,56.954,0,0,0,2.458-11.977c.57-6.993-.951-11.216-.665-11.271a11.75,11.75,0,0,1,.923,2.933,31.3,31.3,0,0,1,.625,8.392,52.808,52.808,0,0,1-2.227,12.221c-1.358,4.508-3.164,9.315-5.147,14.3a117.562,117.562,0,0,0-4.861,14.258,48.761,48.761,0,0,0-1.711,12.085C303.7,266.37,305.764,270.4,305.465,270.484Z" transform="translate(-121.041 -93.965)" fill="#455a64"/>
      <path id="Trazado_128891" data-name="Trazado 128891" d="M254.425,218.74c-2.281,1.521-54.711-.76-62.315,9.112,0,0,8.148,207.069,25.678,229.108l151.6-8.147-19.31-189.769,8.7-20.6-45.83-13.579Z" transform="translate(-160.683 -85.511)" fill="#f5ca56"/>
      <g id="Grupo_55884" data-name="Grupo 55884" transform="translate(38.679 157.753)" opacity="0.2">
        <path id="Trazado_128892" data-name="Trazado 128892" d="M202.556,360.859c6.165,2.1,13.158.638,18.712-2.716s9.845-8.541,13.4-13.987c10.076-15.44,14.937-33.785,16.8-52.131s.665-36.827-.516-55.227c-1.874,18.576-3.761,37.207-8.039,55.389s-11.04,35.971-21.93,51.139a39.3,39.3,0,0,1-9.886,10.266,17.531,17.531,0,0,1-13.647,2.838" transform="translate(-197.45 -236.8)"/>
      </g>
      <path id="Trazado_128893" data-name="Trazado 128893" d="M243.3,193.344a28.856,28.856,0,0,1-9.234-16.92,21.985,21.985,0,0,1,5.595-18.115,17.762,17.762,0,0,1,18.02-4.631" transform="translate(-145.751 -109.081)" fill="#26aab7"/>
      <path id="Trazado_128894" data-name="Trazado 128894" d="M267.3,127.516c13.864-8.148,23.859-7.767,34.8-5.432,16.607,3.531,32.875,13.077,41.77,27.525,8.148,13.28,8.922,30.132,5.011,45.219-1.358,5.323-4.848,9.587-8.215,13.932s-11.42,8.378-16.893,8.962-6.789-1.7-9.234-6.6c-1.521-3-1.684-6.477-1.847-9.831-.733-14.2-2.349-28.557-7.781-41.688s-15.535-24.891-28.883-29.711" transform="translate(-133.771 -120.627)" fill="#455a64"/>
      <path id="Trazado_128895" data-name="Trazado 128895" d="M254.53,152.672a33.948,33.948,0,0,1,17.341-25.8c7.156-3.829,15.521-4.929,23.614-4.454,10.863.652,21.863,4.237,29.874,11.665s12.425,19.011,9.75,29.575c-1.222,4.793-3.829,9.3-3.952,14.245,0,2.159.312,4.522-.951,6.26a5.119,5.119,0,0,1-5.323,1.643,11.421,11.421,0,0,1-4.97-3.042c-4.888-4.59-8.148-10.619-11.271-16.539" transform="translate(-138.341 -120.024)" fill="#263238"/>
      <path id="Trazado_128896" data-name="Trazado 128896" d="M257.863,154.364c6.192-14.068,22.229-28.231,36.012-21.442l40.656,27.783a9.017,9.017,0,0,1,4.4,11.352L294.4,278.342h0l-16.037,9.18c-14.829,8.5-33.948-.842-35.564-17.857a10.945,10.945,0,0,1,0-2.933h0a21.009,21.009,0,0,1,.475-2.349,75.216,75.216,0,0,1,5.242-14.937h0c3.1-8.759,4.413-12.33,4.386-12.221S235.62,227.406,240.685,202C243.184,189.33,250.951,169.993,257.863,154.364Z" transform="translate(-143.63 -116.854)" fill="#ffbe9d"/>
      <path id="Trazado_128897" data-name="Trazado 128897" d="M251.554,161.178c.231.543,3.2-.326,6.518.9s5.119,3.775,5.635,3.5c.244-.109.122-.978-.652-2.146a9.153,9.153,0,0,0-4.332-3.3,8.555,8.555,0,0,0-5.364-.2C252.043,160.336,251.432,160.933,251.554,161.178Z" transform="translate(-139.412 -106.681)" fill="#263238"/>
      <path id="Trazado_128898" data-name="Trazado 128898" d="M275.934,170.418c.231.543,3.2-.326,6.5.9s5.133,3.775,5.649,3.5c.231-.122.122-.978-.665-2.145a8.921,8.921,0,0,0-4.332-3.3,8.663,8.663,0,0,0-5.364-.217C276.423,169.576,275.812,170.188,275.934,170.418Z" transform="translate(-130.686 -103.374)" fill="#263238"/>
      <path id="Trazado_128899" data-name="Trazado 128899" d="M263.814,188.132c.081-.19-1.847-1.358-5.024-2.96-.815-.394-1.548-.856-1.48-1.48a4.589,4.589,0,0,1,1.48-2.308l4.875-5.513c6.79-7.9,12.126-14.516,11.8-14.788s-6.124,5.907-12.968,13.8l-4.78,5.595a5.337,5.337,0,0,0-1.657,3.164,2.3,2.3,0,0,0,.937,1.752,5.843,5.843,0,0,0,1.358.72C261.655,187.548,263.732,188.322,263.814,188.132Z" transform="translate(-137.794 -106.151)" fill="#263238"/>
      <path id="Trazado_128900" data-name="Trazado 128900" d="M250.028,209.26a65.18,65.18,0,0,0,35.306,3.232s-14.19,13.647-37.383,2.58Z" transform="translate(-140.696 -88.904)" fill="#eb996e"/>
      <path id="Trazado_128901" data-name="Trazado 128901" d="M293.574,166.366c.245-.991-2.933-2.58-6.083-5.3s-5.31-5.527-6.246-5.119c-.434.2-.462,1.276.149,2.8a13.334,13.334,0,0,0,3.775,5.051,13.484,13.484,0,0,0,5.622,2.892C292.392,167.031,293.438,166.9,293.574,166.366Z" transform="translate(-128.894 -107.999)" fill="#263238"/>
      <path id="Trazado_128902" data-name="Trazado 128902" d="M267.814,149.976c-.557-.855-3.055-.231-5.961-.448s-5.337-1-5.975-.217c-.285.38,0,1.209,1.046,2.064a8.691,8.691,0,0,0,9.614.543C267.637,151.184,268.044,150.369,267.814,149.976Z" transform="translate(-137.896 -110.484)" fill="#263238"/>
      <path id="Trazado_128903" data-name="Trazado 128903" d="M298.443,190.339c.665-1.779,4.277-5.242,6.151-4.861,4.984.991,13.335,4.495,9.017,16.5-5.907,16.4-21.156,7.088-21.021,6.613S296.162,196.518,298.443,190.339Z" transform="translate(-124.719 -97.427)" fill="#ffbe9d"/>
      <path id="Trazado_128904" data-name="Trazado 128904" d="M297.942,202.407c.1,0,.217.3.625.693a2.974,2.974,0,0,0,2.118.815c1.955,0,4.413-2.241,5.554-5.16a10.143,10.143,0,0,0,.679-4.386,3.49,3.49,0,0,0-1.358-2.96,1.534,1.534,0,0,0-1.969.176c-.38.38-.394.733-.489.733s-.258-.394.122-1.032a1.956,1.956,0,0,1,1.018-.788,2.227,2.227,0,0,1,1.725.149,4.277,4.277,0,0,1,2.078,3.612,10.387,10.387,0,0,1-.665,4.929c-1.29,3.273-4.074,5.758-6.708,5.595a3.259,3.259,0,0,1-2.458-1.358C297.833,202.815,297.874,202.421,297.942,202.407Z" transform="translate(-122.819 -95.658)" fill="#eb996e"/>
      <path id="Trazado_128905" data-name="Trazado 128905" d="M278.824,131.048a23.832,23.832,0,0,0,8.446,22.84c3.585,2.824,8.351,5.065,9.41,9.505s-2.376,9.166-1.521,13.742c1.209,6.355,10.008,9.505,10.252,15.942.109,2.824-1.562,5.5-1.358,8.31.217,3.761,3.856,6.79,7.6,6.966a12.928,12.928,0,0,0,9.926-4.522,35.306,35.306,0,0,0,5.758-9.641c3.028-6.79,5.812-13.769,6.274-21.143.964-15.467-11.569-42.258-26.371-46.848" transform="translate(-129.787 -118.633)" fill="#263238"/>
      <path id="Trazado_128906" data-name="Trazado 128906" d="M308.534,133.09c-.1.394-6.925-2.485-15.657-1.358s-14.733,5.35-14.937,4.984a11.584,11.584,0,0,1,3.829-2.8,30.608,30.608,0,0,1,22.392-2.648,11.543,11.543,0,0,1,4.372,1.82Z" transform="translate(-129.962 -117.185)" fill="#455a64"/>
      <path id="Trazado_128907" data-name="Trazado 128907" d="M290.922,126.661c0,.38-4.074.706-7.957,3.8s-5.214,6.98-5.567,6.79,0-1.1.652-2.716a14.394,14.394,0,0,1,10.13-7.971C289.862,126.362,290.922,126.512,290.922,126.661Z" transform="translate(-130.207 -118.537)" fill="#455a64"/>
      <path id="Trazado_128908" data-name="Trazado 128908" d="M265.93,196.092c3.245-.611,6.233-2.39,6.586-5.8a3.612,3.612,0,0,0-1.507-3.734,6.152,6.152,0,0,0-3.313-.57c-3.449.815-6.477,1.82-10.008,1.725,0,0-1.684,3.218,0,5.663S262.684,196.7,265.93,196.092Z" transform="translate(-137.479 -97.246)" fill="#eb996e"/>
      <path id="Trazado_128909" data-name="Trazado 128909" d="M261.839,196.162a8.356,8.356,0,0,0,1.222.136,12.424,12.424,0,0,0,3.286-.353,7.142,7.142,0,0,0,4.074-2.336,5.866,5.866,0,0,0,1.29-5.432,2.593,2.593,0,0,0-1.955-1.833,5.785,5.785,0,0,0-2.716.285,21.087,21.087,0,0,1-4.916,1.168,26.484,26.484,0,0,1-3.395.109,4.915,4.915,0,0,1-1.249-.109c0-.136,1.779-.136,4.59-.489a24.782,24.782,0,0,0,4.794-1.29,6.165,6.165,0,0,1,3.069-.353,3.327,3.327,0,0,1,2.5,2.281,6.423,6.423,0,0,1-1.48,6.056,7.007,7.007,0,0,1-2.213,1.684,11.284,11.284,0,0,1-5.717.842A2.252,2.252,0,0,1,261.839,196.162Z" transform="translate(-137.285 -97.37)" fill="#263238"/>
      <path id="Trazado_128910" data-name="Trazado 128910" d="M200.869,224.51s-8.989,8.215-12.4,16.607c-4.237,10.415-20.124,29.508-19.486,44.689.5,11.719,4.7,30.906,35.577,25.638s34.831-28.6,34.831-28.6l-16.431-51.262Z" transform="translate(-168.966 -83.446)" fill="#f5ca56"/>
      <g id="Grupo_55885" data-name="Grupo 55885" transform="translate(0 141.54)" opacity="0.3">
        <path id="Trazado_128911" data-name="Trazado 128911" d="M201.154,224.86s-9.8,8.27-12.683,16.132c-3.87,10.551-20.124,29.508-19.486,44.689.5,11.719,4.7,30.906,35.577,25.638s17.9-25.339,17.9-25.339l.5-54.52Z" transform="translate(-168.967 -224.86)"/>
      </g>
      <path id="Trazado_128912" data-name="Trazado 128912" d="M223.408,277.985s-27.294-17.653-53.719.747c-.516.353.869-3.463,3.028-8.148,4.074-8.677,10.456-21.143,10.456-21.143s13.987-26.031,20.749-26.031l19.486,5.893Z" transform="translate(-168.746 -83.839)" fill="#f5ca56"/>
      <path id="Trazado_128913" data-name="Trazado 128913" d="M182.237,274.808s-3.34,38.687-2.512,53.5,14.367,55.009,42.177,34.423S259.285,223.18,259.285,223.18l-20.749-9.03-24.32,64.243a43.128,43.128,0,0,0-15.059-4.264A51.518,51.518,0,0,0,182.237,274.808Z" transform="translate(-165.163 -87.154)" fill="#ffbe9d"/>
      <path id="Trazado_128914" data-name="Trazado 128914" d="M225.672,238.037,214.36,183.326,225.7,155.91a7.36,7.36,0,0,1,4.074,7.306c-.421,5.35-5.513,18.237-5.513,18.237L238.775,161.6s4.074,1.752,1.915,6.627-8.759,15.277-8.759,15.277l7.075,18.508s1.48-9.573,4.631-8.854,2.526,8.745,2.526,8.745l-.652,15.847s5.038,10.687,3.8,17.653a34.841,34.841,0,0,1-3.68,11.067Z" transform="translate(-152.719 -107.999)" fill="#ffbe9d"/>
      <path id="Trazado_128915" data-name="Trazado 128915" d="M333.009,244.63c-6.953-9.18-15.168-11.23-15.168-11.23L305.62,256.987l16.594,58.988c13.145-7.509,27.593-12.221,39.624-11.366C361.811,304.609,342.528,257.177,333.009,244.63Z" transform="translate(-120.055 -80.264)" fill="#f5ca56"/>
      <g id="Grupo_55886" data-name="Grupo 55886" transform="translate(179.775 153.109)" opacity="0.2">
        <path id="Trazado_128916" data-name="Trazado 128916" d="M320.576,233.38c4.074,8.338-.6,18.169-.57,27.471,0,14.5,11.651,26.832,12.656,41.294.272,3.87-.353,8.039-2.892,10.972s-7.428,4.006-10.4,1.494a12.031,12.031,0,0,1-3.123-5.581l-11.977-34.912c-1.643-4.793-3.313-9.763-2.824-14.8.951-9.763,9.438-16.811,17.259-22.718" transform="translate(-301.356 -233.38)"/>
      </g>
      <ellipse id="Elipse_4228" data-name="Elipse 4228" cx="21.279" cy="19.88" rx="21.279" ry="19.88" transform="translate(156.832 113.343) rotate(-76.79)" fill="#26aab7"/>
      <path id="Trazado_128917" data-name="Trazado 128917" d="M300,217.631a3.122,3.122,0,0,1-.584-.285,12.642,12.642,0,0,1-1.534-1.018,16.676,16.676,0,0,1-4.508-5.051,20.043,20.043,0,0,1-2.512-9.723,23.085,23.085,0,0,1,2.716-11.977,23.424,23.424,0,0,1,8.5-8.881,18.453,18.453,0,0,1,9.682-2.716A12.886,12.886,0,0,1,318.3,179.7a8.055,8.055,0,0,1,1.48,1.113c.312.285.462.448.434.475s-.706-.543-2.091-1.263a13.145,13.145,0,0,0-6.369-1.358,18.236,18.236,0,0,0-9.234,2.811,22.867,22.867,0,0,0-8.148,8.6,22.611,22.611,0,0,0-2.716,11.5,20.016,20.016,0,0,0,2.213,9.41,18.375,18.375,0,0,0,4.169,5.092A20.353,20.353,0,0,1,300,217.631Z" transform="translate(-125.348 -100.1)" fill="#263238"/>
      <path id="Trazado_128918" data-name="Trazado 128918" d="M291.907,181.37c.258,0,0,1.616.991,3s2.594,1.575,2.566,1.833-.407.258-1.086.149A3.762,3.762,0,0,1,292.138,185a3.666,3.666,0,0,1-.693-2.553C291.54,181.683,291.8,181.343,291.907,181.37Z" transform="translate(-125.136 -98.887)" fill="#263238"/>
      <path id="Trazado_128919" data-name="Trazado 128919" d="M291.276,186.23c.149-.217.747-.081,1.439.1s1.263.367,1.276.638-.679.5-1.521.272S291.14,186.447,291.276,186.23Z" transform="translate(-125.197 -97.187)" fill="#263238"/>
      <path id="Trazado_128920" data-name="Trazado 128920" d="M288.325,198.984c.136-.231,1.073.1,2.2-.1s1.942-.706,2.146-.53-.516,1.263-2.01,1.467S288.149,199.242,288.325,198.984Z" transform="translate(-126.252 -92.818)" fill="#263238"/>
      <path id="Trazado_128921" data-name="Trazado 128921" d="M316.475,193.744S334.223,190,338.12,181.02a37.8,37.8,0,0,1-1.168,15.494L312.51,208.138Z" transform="translate(-117.589 -99.012)" fill="#26aab7"/>
      <path id="Trazado_128922" data-name="Trazado 128922" d="M317.659,189.41a7.454,7.454,0,0,1,.339,2.336,23.989,23.989,0,0,1-.176,5.717,13.172,13.172,0,0,1-2.05,5.432c-.842,1.222-1.616,1.752-1.67,1.7s.543-.733,1.249-1.969a15.613,15.613,0,0,0,1.779-5.228,39.251,39.251,0,0,0,.38-5.581A7.834,7.834,0,0,1,317.659,189.41Z" transform="translate(-117.021 -96.009)" fill="#263238"/>
      <path id="Trazado_128923" data-name="Trazado 128923" d="M309.024,314.27a9.236,9.236,0,0,1-.394,1.059l-1.249,2.96c-.285.652-.584,1.358-.923,2.145s-.788,1.589-1.236,2.485c-.91,1.765-1.86,3.829-3.178,5.961-.638,1.073-1.358,2.213-1.983,3.381s-1.534,2.336-2.336,3.571c-1.575,2.5-3.517,4.97-5.5,7.618a123.666,123.666,0,0,1-31.965,28.625c-2.852,1.684-5.527,3.34-8.148,4.631-1.358.665-2.553,1.358-3.8,1.928l-3.585,1.6c-2.268,1.073-4.427,1.792-6.274,2.512-.937.339-1.792.693-2.607.951s-1.548.475-2.227.679l-3.082.923a5.984,5.984,0,0,1-1.086.272,5.923,5.923,0,0,1,1.046-.407l3.042-1.046,2.2-.733c.8-.285,1.643-.652,2.566-1,1.847-.747,3.979-1.494,6.219-2.594l3.544-1.643c1.236-.57,2.471-1.276,3.775-1.955,2.621-1.358,5.282-2.974,8.148-4.671A127.114,127.114,0,0,0,291.778,343c2-2.634,3.938-5.079,5.527-7.55.815-1.222,1.643-2.363,2.349-3.531s1.358-2.281,2.023-3.354c1.358-2.1,2.322-4.074,3.259-5.88.462-.883.91-1.7,1.29-2.458s.679-1.467.964-2.1c.57-1.222,1.032-2.186,1.358-2.906A7.214,7.214,0,0,1,309.024,314.27Z" transform="translate(-147.318 -51.319)" fill="#263238"/>
      <path id="Trazado_128924" data-name="Trazado 128924" d="M212.645,241.835a70.843,70.843,0,0,0-3.49-10.1,74.533,74.533,0,0,0-5.595-9.112,10.987,10.987,0,0,1,2.186,2.295,33.826,33.826,0,0,1,6.518,13.769A10.4,10.4,0,0,1,212.645,241.835Z" transform="translate(-156.584 -84.122)" fill="#263238"/>
      <path id="Trazado_128925" data-name="Trazado 128925" d="M305.069,296.177c-.068,0-.815-1.209-2.512-3.191a36.53,36.53,0,0,0-8.338-7.129,35.754,35.754,0,0,0-15.249-5.147,34.817,34.817,0,0,0-33.188,17.857,35.767,35.767,0,0,0-4.142,15.6A36.364,36.364,0,0,0,243,325.033c.72,2.512,1.358,3.816,1.277,3.857a5.444,5.444,0,0,1-.462-.951,24.733,24.733,0,0,1-1.073-2.824,34.288,34.288,0,0,1-1.589-10.972,34.5,34.5,0,0,1,53.326-28.679,34.747,34.747,0,0,1,8.3,7.374,29.08,29.08,0,0,1,1.765,2.458A5.25,5.25,0,0,1,305.069,296.177Z" transform="translate(-143.132 -63.616)" fill="#fafafa"/>
      <path id="Trazado_128926" data-name="Trazado 128926" d="M282.695,337.972a6.394,6.394,0,0,1-1.575.367,14.372,14.372,0,0,1-1.888.244,22.785,22.785,0,0,1-2.512.136,26.573,26.573,0,0,1-3.055-.1,34.615,34.615,0,0,1-3.49-.448,35.917,35.917,0,0,1-14.666-6.355,34.088,34.088,0,0,1-2.716-2.227,24.862,24.862,0,0,1-2.159-2.159A22.485,22.485,0,0,1,249,325.507a12.55,12.55,0,0,1-1.1-1.548,6.886,6.886,0,0,1-.815-1.358c.122-.081,1.358,1.874,3.9,4.535a27.461,27.461,0,0,0,2.2,2.05,32.919,32.919,0,0,0,2.716,2.146,37,37,0,0,0,14.407,6.246c1.209.2,2.336.421,3.422.5s2.078.163,3,.19C280.413,338.285,282.681,337.823,282.695,337.972Z" transform="translate(-141.004 -48.338)" fill="#fafafa"/>
      <path id="Trazado_128927" data-name="Trazado 128927" d="M272.631,309.39a30.889,30.889,0,0,1-2.336,4.074c-1.521,2.485-3.653,5.893-6.151,9.505s-4.929,6.9-6.79,9.152c-.937,1.127-1.7,2.023-2.254,2.621s-.869.91-.91.883a36.658,36.658,0,0,1,2.716-3.816c1.738-2.322,4.074-5.581,6.586-9.247l6.314-9.505A31.232,31.232,0,0,1,272.631,309.39Z" transform="translate(-138.463 -53.066)" fill="#fafafa"/>
      <path id="Trazado_128928" data-name="Trazado 128928" d="M293.34,320.7c-.081.177-5.866-2.322-12.927-5.581s-12.724-6.056-12.642-6.233,5.866,2.322,12.941,5.581S293.421,320.52,293.34,320.7Z" transform="translate(-133.603 -53.25)" fill="#fafafa"/>
      <path id="Trazado_128929" data-name="Trazado 128929" d="M265.566,281.92a3.065,3.065,0,0,1,.109.72c0,.557.109,1.236.19,2.078.19,1.9.448,4.468.774,7.6.733,6.518,1.725,15.344,2.824,25.081s2.145,18.576,2.892,25.094c.34,3.137.611,5.7.815,7.6,0,.842.136,1.521.177,2.078a2.364,2.364,0,0,1,0,.733,4.552,4.552,0,0,1-.149-.72c-.081-.543-.19-1.222-.312-2.05-.258-1.9-.611-4.468-1.032-7.591-.856-6.409-1.969-15.263-3.11-25.067s-2.064-18.671-2.621-25.108c-.285-3.218-.448-5.839-.543-7.645v-2.078a2.376,2.376,0,0,1-.013-.733Z" transform="translate(-134.399 -62.898)" fill="#fafafa"/>
      <path id="Trazado_128930" data-name="Trazado 128930" d="M265.335,306.32a5.916,5.916,0,0,1-.475,1.589,23.212,23.212,0,0,1-2.064,4.074,25.8,25.8,0,0,1-25.909,11.705,23.3,23.3,0,0,1-4.4-1.141,5.514,5.514,0,0,1-1.507-.679,48.884,48.884,0,0,0,5.975,1.358,26.316,26.316,0,0,0,25.42-11.474,50.159,50.159,0,0,0,2.96-5.432Z" transform="translate(-146.77 -54.164)" fill="#263238"/>
      <g id="Grupo_55887" data-name="Grupo 55887" transform="translate(78.312 259.241)" opacity="0.2">
        <path id="Trazado_128931" data-name="Trazado 128931" d="M235.522,321.807c-2.268-2.241-6.545-1.181-8.148,1.6a7.93,7.93,0,0,0,1.453,8.813,15.494,15.494,0,0,0,8.31,4.318,27.729,27.729,0,0,0,20.586-3.368A23.859,23.859,0,0,0,268.75,315.7a3.992,3.992,0,0,0-1.073-3.734c-1.67-1.195-3.843.38-5.432,1.725a34.491,34.491,0,0,1-29.589,7.659" transform="translate(-226.637 -311.538)"/>
      </g>
      <g id="Grupo_55888" data-name="Grupo 55888" transform="translate(103.248 297.917)" opacity="0.2">
        <path id="Trazado_128932" data-name="Trazado 128932" d="M245,379.508a98.3,98.3,0,0,0,53.923-33.948c2.078-2.607,4.549-5.567,7.876-5.54a6.369,6.369,0,0,1,5.432,3.734,10.253,10.253,0,0,1,.435,6.79c-1.657,6.613-7.564,11.135-13.213,14.937-8.066,5.432-16.472,10.537-25.692,13.579s-19.377,4.074-28.666,1.154" transform="translate(-245 -340.02)"/>
      </g>
      <path id="Trazado_128933" data-name="Trazado 128933" d="M223.161,155.91a1.045,1.045,0,0,1,.462.163,3.978,3.978,0,0,1,1.195.72,6.79,6.79,0,0,1,2.39,4.495,18.209,18.209,0,0,1-.788,7.55l-2.987,8.745c-.462,1.358-.937,2.716-1.358,3.979v-.231c1.928,5.2,3.585,9.777,4.739,13.063l1.358,3.884a7.029,7.029,0,0,1,.407,1.358,6.357,6.357,0,0,1-.638-1.358l-1.534-3.8c-1.263-3.245-3-7.794-4.956-12.982v-.231c.448-1.29.91-2.634,1.358-3.992l3.028-8.7a18.237,18.237,0,0,0,.91-7.292,6.79,6.79,0,0,0-2.064-4.359,5.514,5.514,0,0,0-1.086-.8A2.061,2.061,0,0,1,223.161,155.91Z" transform="translate(-150.181 -107.999)" fill="#eb996e"/>
      <path id="Trazado_128934" data-name="Trazado 128934" d="M242.8,210.366c-.1,0-.76-1.358-2.037-3.34a40.736,40.736,0,0,0-5.88-7.319,41.594,41.594,0,0,0-7.414-5.744c-2.064-1.236-3.436-1.874-3.381-1.983a3.656,3.656,0,0,1,1,.326,21.407,21.407,0,0,1,2.621,1.236,34.274,34.274,0,0,1,13.471,13.226,24.893,24.893,0,0,1,1.29,2.58C242.735,209.986,242.857,210.339,242.8,210.366Z" transform="translate(-149.237 -95.089)" fill="#eb996e"/>
      <path id="Trazado_128935" data-name="Trazado 128935" d="M237.769,206.564c-.2,0-1.154-4.074-2.716-8.922s-3.259-8.731-3.069-8.813a9.506,9.506,0,0,1,1.358,2.4,58.709,58.709,0,0,1,2.431,6.192,60.34,60.34,0,0,1,1.725,6.409A10.157,10.157,0,0,1,237.769,206.564Z" transform="translate(-146.416 -96.216)" fill="#eb996e"/>
      <path id="Trazado_128936" data-name="Trazado 128936" d="M302.5,221.192s-7.319,0-8.27,10.2a127.269,127.269,0,0,1-1.915,14.326s-9.505,13.05-9.505,19.744S285,286.06,285,286.06l30.988-7.9-2.118-8.147,19.581-35.415,11.461-36.935s-4.142-2.553-7.007,0-8.27,12.411-8.27,12.411-5.744-7.631-9.505-7.319a3.028,3.028,0,0,0-2.526,1.629,4.671,4.671,0,0,0,1.168,5.7l3.273,2.865-.964,9.831-16.865,15.643Z" transform="translate(-128.219 -93.462)" fill="#ffbe9d"/>
      <path id="Trazado_128937" data-name="Trazado 128937" d="M303.35,248.875a8.88,8.88,0,0,1,.923-1.725,34.183,34.183,0,0,1,3.3-4.182c1.521-1.67,3.463-3.5,5.595-5.568a44.255,44.255,0,0,0,6.3-7.156,20.64,20.64,0,0,0,3.34-8.8,37.348,37.348,0,0,0,.177-7.794c-.149-2.227-.367-4.074-.5-5.269a10.25,10.25,0,0,1-.149-1.942,11.954,11.954,0,0,1,.421,1.9c.217,1.236.516,3.028.733,5.269a35.3,35.3,0,0,1,0,7.93,20.83,20.83,0,0,1-3.381,9.084,43.034,43.034,0,0,1-6.45,7.251c-2.159,2.037-4.074,3.816-5.676,5.432a43.3,43.3,0,0,0-3.436,4.006,12.815,12.815,0,0,1-1.195,1.562Z" transform="translate(-120.868 -89.913)" fill="#eb996e"/>
      <path id="Trazado_128938" data-name="Trazado 128938" d="M320.737,215.33a9.034,9.034,0,0,1-1.29,1.263l-3.694,3.259c-3.123,2.716-7.428,6.532-12.113,10.863s-8.84,8.229-11.868,11.081c-1.426,1.358-2.634,2.485-3.585,3.368a9.641,9.641,0,0,1-1.358,1.181,8.8,8.8,0,0,1,1.181-1.358c.8-.855,1.969-2.05,3.436-3.531,2.92-2.96,7.048-6.966,11.732-11.244s9.057-8.012,12.221-10.66c1.616-1.358,2.92-2.376,3.843-3.083a8.436,8.436,0,0,1,1.494-1.141Z" transform="translate(-126.781 -86.731)" fill="#eb996e"/>
      <path id="Trazado_128939" data-name="Trazado 128939" d="M284.38,264.539s18.753,102.469,23.8,109.992,19.5,28.869,35.686,26.914,25.692-18.943,27.7-34.763-12.493-70.951-12.493-70.951c-13.471-1.494-17.313.557-26.276,8.446L315.368,256.65Z" transform="translate(-127.657 -71.942)" fill="#ffbe9d"/>
      <path id="Trazado_128940" data-name="Trazado 128940" d="M309.459,250.231a14.17,14.17,0,0,1-1.752,2.417l-4.372,5.73c-3.395,4.495-6.532,7.862-6.695,7.713a13.9,13.9,0,0,1,1.752-2.431l4.372-5.717C306.159,253.436,309.35,250.069,309.459,250.231Z" transform="translate(-123.269 -74.242)" fill="#eb996e"/>
      <path id="Trazado_128941" data-name="Trazado 128941" d="M340.012,356.554a6.657,6.657,0,0,1,0-1.127c0-.733,0-1.833-.095-3.232a69.75,69.75,0,0,0-1.67-11.719,104.867,104.867,0,0,0-5.432-16.716c-1.249-3.069-2.716-6.233-4.074-9.573s-2.716-6.79-4.182-10.375c-5.554-14.3-10.2-27.376-13.579-36.84l-3.857-11.257-.991-3.069a8.148,8.148,0,0,1-.312-1.086,5.155,5.155,0,0,1,.435,1.032l1.127,3.028c.991,2.716,2.376,6.5,4.074,11.176,3.436,9.505,8.148,22.474,13.715,36.759,1.358,3.558,2.784,7.034,4.155,10.361s2.811,6.5,4.074,9.6a101.839,101.839,0,0,1,5.323,16.906,64.091,64.091,0,0,1,1.453,11.827v3.232a5.987,5.987,0,0,1-.163,1.073Z" transform="translate(-119.984 -73.764)" fill="#eb996e"/>
      <path id="Trazado_128942" data-name="Trazado 128942" d="M233.757,215.43a.951.951,0,0,1-.081.312l-.3.9c-.3.828-.706,1.955-1.209,3.381-1.114,3-2.716,7.224-4.59,12.439l-15.372,40.9c-1.507,3.979-2.974,7.917-4.726,11.556s-3.6,7.061-5.432,10.307-3.463,6.314-4.916,9.247a72.894,72.894,0,0,0-3.531,8.406,42.284,42.284,0,0,0-2.336,12.914,15.093,15.093,0,0,0,0,2.078v2.458a1.114,1.114,0,0,1,0,.312.76.76,0,0,1,0-.312,3.571,3.571,0,0,0-.1-.937c-.1-.38,0-.937-.122-1.521a14.349,14.349,0,0,1,0-2.078,40.872,40.872,0,0,1,2.132-13.077,71.979,71.979,0,0,1,3.476-8.487c1.439-2.974,3.1-6.084,4.875-9.315s3.6-6.667,5.323-10.293,3.178-7.509,4.685-11.5c6.07-15.928,11.569-30.336,15.575-40.833,2-5.174,3.639-9.383,4.793-12.357.557-1.358,1-2.526,1.358-3.34l.367-.869a.976.976,0,0,1,.122-.285Z" transform="translate(-161.076 -86.696)" fill="#eb996e"/>
    </g>
    <g id="freepik--Device--inject-22" transform="translate(171.463 19.91)">
      <path id="Trazado_128943" data-name="Trazado 128943" d="M411.139,20.032,198.6,19.91A46.291,46.291,0,0,0,152.279,66.2l-.109,532.834a46.291,46.291,0,0,0,46.278,46.305l212.542.136a46.305,46.305,0,0,0,46.319-46.292l.163-532.875a46.305,46.305,0,0,0-46.332-46.278ZM443.226,591.4a32.427,32.427,0,0,1-32.441,32.414L198.665,623.7a32.427,32.427,0,0,1-32.414-32.427l.109-520.083A32.414,32.414,0,0,1,198.8,38.771h50.555a10.239,10.239,0,0,1,10.008,10.47V56.7a10.239,10.239,0,0,0,10.008,10.47h80.321A10.225,10.225,0,0,0,359.7,56.7V49.227a10.239,10.239,0,0,1,10.008-10.456h41.213a32.427,32.427,0,0,1,32.4,32.427Z" transform="translate(-152.17 -19.91)" fill="#455a64"/>
      <rect id="Rectángulo_30755" data-name="Rectángulo 30755" width="259.213" height="3.775" rx="1.24" transform="translate(26.737 66.837)" fill="#e0e0e0"/>
      <rect id="Rectángulo_30756" data-name="Rectángulo 30756" width="141.957" height="3.775" rx="1.24" transform="translate(26.737 66.837)" fill="#3a277b"/>
      <path id="Trazado_128944" data-name="Trazado 128944" d="M231.9,94.29v5.839h-1.113l-2.92-3.517v3.544H226.51V94.317h1.113l2.906,3.544V94.29Z" transform="translate(-125.562 6.712)" fill="#263238"/>
      <path id="Trazado_128945" data-name="Trazado 128945" d="M231.31,94.484a.747.747,0,0,1,.815-.733.733.733,0,1,1-.815.733Zm.163,1.358h1.358v4.481h-1.358Z" transform="translate(-123.844 6.518)" fill="#263238"/>
      <path id="Trazado_128946" data-name="Trazado 128946" d="M233,97.551a2.322,2.322,0,0,1,2.512-2.308,2.064,2.064,0,0,1,2.01,1.141l-1.018.543a1.113,1.113,0,0,0-1-.625,1.249,1.249,0,1,0,0,2.5,1.114,1.114,0,0,0,1-.625l1.018.557a2.078,2.078,0,0,1-2.01,1.127A2.322,2.322,0,0,1,233,97.551Z" transform="translate(-123.239 7.05)" fill="#263238"/>
      <path id="Trazado_128947" data-name="Trazado 128947" d="M238.823,98.481l-.625.611v1.141H236.84V94H238.2v3.5l1.9-1.792h1.562l-1.888,1.942,2.037,2.58h-1.575Z" transform="translate(-121.865 6.608)" fill="#263238"/>
      <path id="Trazado_128948" data-name="Trazado 128948" d="M245.542,97.227v2.566h-1.358V97.43c0-.733-.34-1.059-.91-1.059a1.077,1.077,0,0,0-1.086,1.209v2.213H240.83V95.312h1.249v.516a2,2,0,0,1,1.494-.584,1.752,1.752,0,0,1,1.969,1.983Z" transform="translate(-120.437 7.048)" fill="#263238"/>
      <path id="Trazado_128949" data-name="Trazado 128949" d="M249.21,97.24v2.553h-1.222v-.557a1.48,1.48,0,0,1-1.358.625c-1.046,0-1.67-.584-1.67-1.358s.557-1.358,1.928-1.358h1.032c0-.557-.339-.883-1.032-.883a2.2,2.2,0,0,0-1.358.421l-.462-.91a3.435,3.435,0,0,1,1.942-.543C248.409,95.244,249.21,95.869,249.21,97.24Zm-1.358,1.141v-.462h-.9c-.611,0-.8.231-.8.53s.272.543.733.543a.964.964,0,0,0,1.018-.611Z" transform="translate(-118.959 7.048)" fill="#263238"/>
      <path id="Trazado_128950" data-name="Trazado 128950" d="M256.584,97.232V99.8h-1.358V97.436c0-.733-.326-1.059-.842-1.059a1.027,1.027,0,0,0-1,1.168V99.8h-1.358V97.436c0-.733-.3-1.059-.842-1.059s-.991.367-.991,1.168V99.8H248.83V95.317h1.249v.516a1.765,1.765,0,0,1,1.358-.584,1.67,1.67,0,0,1,1.48.733,2,2,0,0,1,1.616-.733,1.725,1.725,0,0,1,2.05,1.983Z" transform="translate(-117.574 7.043)" fill="#263238"/>
      <path id="Trazado_128951" data-name="Trazado 128951" d="M259.884,97.916h-3.408a1.208,1.208,0,0,0,1.358.9,1.507,1.507,0,0,0,1.127-.434l.693.76a2.621,2.621,0,0,1-4.413-1.589,2.281,2.281,0,0,1,2.39-2.308,2.227,2.227,0,0,1,2.281,2.39A2.433,2.433,0,0,0,259.884,97.916Zm-3.422-.76h2.213a1.127,1.127,0,0,0-2.213,0Z" transform="translate(-115.279 7.051)" fill="#263238"/>
      <path id="Trazado_128952" data-name="Trazado 128952" d="M232.917,102.66l-1.507,4.182h-.543l-1.358-3.422-1.358,3.422h-.53l-1.562-4.182h.53l1.358,3.558,1.358-3.558h.489l1.358,3.558,1.358-3.558Z" transform="translate(-125.723 9.708)" fill="#263238"/>
      <path id="Trazado_128953" data-name="Trazado 128953" d="M234.92,104.258v2.594h-.53V106.2a1.562,1.562,0,0,1-1.439.693c-.951,0-1.521-.489-1.521-1.222s.407-1.181,1.6-1.181h1.358v-.244a1.032,1.032,0,0,0-1.181-1.113,2.064,2.064,0,0,0-1.358.5l-.258-.421a2.58,2.58,0,0,1,1.7-.57,1.48,1.48,0,0,1,1.629,1.616Zm-.557,1.358v-.693h-1.358c-.815,0-1.073.326-1.073.747s.38.788,1.046.788a1.358,1.358,0,0,0,1.317-.855Z" transform="translate(-123.801 9.698)" fill="#263238"/>
      <path id="Trazado_128954" data-name="Trazado 128954" d="M234.65,106.374l.258-.448a2.526,2.526,0,0,0,1.48.475c.8,0,1.127-.272,1.127-.693,0-1.086-2.716-.231-2.716-1.874,0-.679.584-1.195,1.657-1.195a2.784,2.784,0,0,1,1.48.394l-.258.448a2.078,2.078,0,0,0-1.222-.353c-.76,0-1.086.285-1.086.693,0,1.127,2.716.272,2.716,1.874,0,.72-.638,1.195-1.725,1.195A2.838,2.838,0,0,1,234.65,106.374Z" transform="translate(-122.649 9.701)" fill="#263238"/>
      <path id="Trazado_128955" data-name="Trazado 128955" d="M239.46,101.4h.57v5.893h-.57Z" transform="translate(-120.927 9.257)" fill="#263238"/>
      <path id="Trazado_128956" data-name="Trazado 128956" d="M240.94,101.791a.421.421,0,0,1,.828,0,.407.407,0,0,1-.421.407.394.394,0,0,1-.407-.407Zm.122,1.358h.57v4.182h-.611Z" transform="translate(-120.398 9.273)" fill="#263238"/>
      <path id="Trazado_128957" data-name="Trazado 128957" d="M246.318,102.66l-1.847,4.182h-.584L242,102.66h.584l1.562,3.558,1.589-3.558Z" transform="translate(-120.018 9.708)" fill="#263238"/>
      <path id="Trazado_128958" data-name="Trazado 128958" d="M249.413,104.913h-3.49a1.548,1.548,0,0,0,1.657,1.453,1.616,1.616,0,0,0,1.277-.543l.326.367a2.091,2.091,0,0,1-1.616.679,2.064,2.064,0,0,1-2.186-2.132,2.037,2.037,0,0,1,4.074,0A.666.666,0,0,0,249.413,104.913Zm-3.49-.421h3.015a1.48,1.48,0,0,0-2.96,0Z" transform="translate(-118.809 9.722)" fill="#263238"/>
      <path id="Trazado_128959" data-name="Trazado 128959" d="M248.93,105.565a.421.421,0,0,1,.421-.435.435.435,0,0,1,0,.869.421.421,0,0,1-.421-.435Z" transform="translate(-117.538 10.592)" fill="#263238"/>
      <path id="Trazado_128960" data-name="Trazado 128960" d="M255.459,105.6c0,.937-.679,1.643-2.01,1.643a2.933,2.933,0,0,1-2.01-.706l.285-.462a2.39,2.39,0,0,0,1.725.652c.91,0,1.426-.435,1.426-1.127s-.475-1.1-1.507-1.1h-.394v-.421l1.548-1.928h-2.852v-.5h3.571v.407l-1.562,1.969C254.916,104.094,255.459,104.719,255.459,105.6Z" transform="translate(-116.639 9.346)" fill="#263238"/>
      <path id="Trazado_128961" data-name="Trazado 128961" d="M259.1,104.931v2.417h-.57v-2.417c0-.883-.448-1.358-1.249-1.358a1.358,1.358,0,0,0-1.453,1.507v2.186h-.57V101.4h.57v2.444a1.765,1.765,0,0,1,1.562-.76,1.589,1.589,0,0,1,1.711,1.847Z" transform="translate(-115.272 9.257)" fill="#263238"/>
      <path id="Trazado_128962" data-name="Trazado 128962" d="M263.983,104.258v2.594h-.543V106.2a1.535,1.535,0,0,1-1.426.693c-.951,0-1.534-.489-1.534-1.222s.421-1.181,1.616-1.181h1.358v-.244a1.032,1.032,0,0,0-1.181-1.113,2.091,2.091,0,0,0-1.358.5l-.244-.421a2.58,2.58,0,0,1,1.7-.57,1.48,1.48,0,0,1,1.616,1.616Zm-.557,1.358v-.693h-1.358c-.8,0-1.073.326-1.073.747s.394.788,1.059.788a1.358,1.358,0,0,0,1.372-.856Z" transform="translate(-113.404 9.699)" fill="#263238"/>
      <path id="Trazado_128963" data-name="Trazado 128963" d="M268.113,102.686v3.68a1.82,1.82,0,0,1-2.078,2.078,2.974,2.974,0,0,1-1.955-.638l.285-.435a2.458,2.458,0,0,0,1.643.57c1.059,0,1.548-.475,1.548-1.507v-.57a1.888,1.888,0,0,1-1.63.8,2.037,2.037,0,1,1,0-4.074,1.887,1.887,0,0,1,1.657.842v-.815Zm-.543,2a1.589,1.589,0,1,0-1.589,1.521,1.494,1.494,0,0,0,1.643-1.521Z" transform="translate(-112.183 9.682)" fill="#263238"/>
      <path id="Trazado_128964" data-name="Trazado 128964" d="M267.89,104.762a2.132,2.132,0,1,1,2.132,2.132,2.064,2.064,0,0,1-2.132-2.132Zm3.68,0a1.562,1.562,0,1,0-1.548,1.63,1.521,1.521,0,0,0,1.548-1.63Z" transform="translate(-110.752 9.697)" fill="#263238"/>
      <path id="Trazado_128965" data-name="Trazado 128965" d="M182.972,146.1a.733.733,0,0,1-.489-.19l-6.029-6.043a.638.638,0,0,1-.2-.475.651.651,0,0,1,.2-.489l6.043-5.853a.679.679,0,1,1,.937.964l-5.54,5.432,5.554,5.5a.665.665,0,0,1,0,.951A.679.679,0,0,1,182.972,146.1Z" transform="translate(-143.551 20.49)" fill="#263238"/>
      <path id="Trazado_128966" data-name="Trazado 128966" d="M349.778,146.067a.679.679,0,0,1-.462-1.168l5.54-5.432-5.554-5.432a.679.679,0,0,1,0-.964.693.693,0,0,1,.964,0l6.029,5.975a.693.693,0,0,1,0,.978l-5.975,5.853A.679.679,0,0,1,349.778,146.067Z" transform="translate(-81.684 20.523)" fill="#263238"/>
      <rect id="Rectángulo_30757" data-name="Rectángulo 30757" width="250.699" height="50.678" rx="16.69" transform="translate(29.779 531.259)" fill="#fff"/>
      <path id="Trazado_128967" data-name="Trazado 128967" d="M402.2,461.964a14.326,14.326,0,0,0,1.453-.109,10.965,10.965,0,0,0,1.779-.2,15.087,15.087,0,0,0,2.417-.5,21.467,21.467,0,0,0,6.314-2.716,23.084,23.084,0,0,0,6.79-6.518,22.635,22.635,0,0,0,3.734-11.04c0-4.291.516-9.125-1.086-13.919a22.5,22.5,0,0,0-9.872-12.221,22.217,22.217,0,0,0-8.215-2.892,77.108,77.108,0,0,0-9.275-.244l-199.329.1a22.433,22.433,0,0,0-21.36,15.7c-1.874,8.881-1.928,19.378,4.264,26.3a22.5,22.5,0,0,0,11.148,7.129,23.713,23.713,0,0,0,6.545.815H230.1l89.623.081,60.414.109,16.431.068h0l-16.431.068-60.414.109-89.623.081H197.51a24.238,24.238,0,0,1-6.79-.842,22.99,22.99,0,0,1-11.488-7.333,25.012,25.012,0,0,1-3.653-5.961,24.252,24.252,0,0,1-1.67-6.857c-.177-2.376-.081-4.685-.109-7.048a25.7,25.7,0,0,1,1.018-7.088,23.084,23.084,0,0,1,22.012-16.295l199.329.109a78.651,78.651,0,0,1,9.342.272,22.908,22.908,0,0,1,18.427,15.7,24.442,24.442,0,0,1,1.141,7.265c0,2.363.068,4.617-.1,6.79a22.935,22.935,0,0,1-3.843,11.176,23.49,23.49,0,0,1-6.79,6.532,21.318,21.318,0,0,1-6.382,2.716,15.34,15.34,0,0,1-2.444.475,10.508,10.508,0,0,1-1.793.163C402.746,461.964,402.2,461.964,402.2,461.964Z" transform="translate(-144.429 119.972)" fill="#26aab7"/>
      <circle id="Elipse_4229" data-name="Elipse 4229" cx="15.154" cy="15.154" r="15.154" transform="translate(240.325 541.131)" fill="#26aab7"/>
      <path id="Trazado_128968" data-name="Trazado 128968" d="M342.473,440.795h0a.448.448,0,0,1-.407-.339l-1.942-7.17L333.4,430.9a.434.434,0,0,1-.312-.435.475.475,0,0,1,.3-.435l15.874-5.649a.462.462,0,0,1,.5.122.476.476,0,0,1,.081.5l-6.871,15.521a.462.462,0,0,1-.5.272ZM334.9,430.461l5.73,2.023a.489.489,0,0,1,.3.312l1.657,6.138,5.893-13.321Z" transform="translate(-87.415 124.846)" fill="#fff"/>
      <path id="Trazado_128969" data-name="Trazado 128969" d="M338.665,433.4a.489.489,0,0,1-.339-.149.475.475,0,0,1,0-.665l8.867-8.148a.475.475,0,0,1,.665,0,.462.462,0,0,1,0,.652l-8.867,8.147A.488.488,0,0,1,338.665,433.4Z" transform="translate(-85.59 124.829)" fill="#fff"/>
      <path id="Trazado_128970" data-name="Trazado 128970" d="M216.376,426.888H214v-.638h5.595v.638h-2.431v6.287h-.733Z" transform="translate(-130.04 125.527)" fill="#263238"/>
      <path id="Trazado_128971" data-name="Trazado 128971" d="M223.288,427.52l-2.607,5.826c-.435,1.019-.991,1.358-1.725,1.358a1.834,1.834,0,0,1-1.276-.475l.326-.53a1.358,1.358,0,0,0,.951.407c.475,0,.788-.217,1.086-.869l.231-.516-2.336-5.187h.733l1.955,4.413,1.969-4.413Z" transform="translate(-128.723 125.982)" fill="#263238"/>
      <path id="Trazado_128972" data-name="Trazado 128972" d="M227.809,430.111a2.526,2.526,0,0,1-2.594,2.716,2.282,2.282,0,0,1-1.983-1.032v2.893h-.693v-7.116h.625V428.6a2.3,2.3,0,0,1,2.01-1.073,2.526,2.526,0,0,1,2.634,2.58Zm-.706,0a1.942,1.942,0,1,0-1.928,2.037,1.915,1.915,0,0,0,1.928-2.037Z" transform="translate(-126.983 125.984)" fill="#263238"/>
      <path id="Trazado_128973" data-name="Trazado 128973" d="M232.152,430.356h-4.359a1.928,1.928,0,0,0,2.05,1.82,2.078,2.078,0,0,0,1.589-.679l.394.448a2.54,2.54,0,0,1-2.01.855,2.58,2.58,0,0,1-2.716-2.716,2.512,2.512,0,0,1,2.553-2.634,2.472,2.472,0,0,1,2.512,2.634Zm-4.359-.516h3.694a1.847,1.847,0,0,0-3.694,0Z" transform="translate(-125.352 125.956)" fill="#263238"/>
      <path id="Trazado_128974" data-name="Trazado 128974" d="M237.829,429.524v3.218h-.665v-.815a1.956,1.956,0,0,1-1.792.869c-1.181,0-1.9-.611-1.9-1.521s.516-1.467,2.01-1.467h1.657v-.285c0-.883-.516-1.358-1.48-1.358a2.716,2.716,0,0,0-1.725.611l-.326-.516a3.313,3.313,0,0,1,2.118-.706,1.847,1.847,0,0,1,2.1,1.969Zm-.693,1.657v-.855h-1.589c-1,0-1.358.394-1.358.937s.489.978,1.358.978a1.684,1.684,0,0,0,1.589-1.086Z" transform="translate(-123.071 125.987)" fill="#263238"/>
      <path id="Trazado_128975" data-name="Trazado 128975" d="M248.582,429.726v3.015h-.693v-2.947c0-1.1-.557-1.67-1.494-1.67a1.684,1.684,0,0,0-1.752,1.888v2.716h-.693V429.78c0-1.1-.557-1.67-1.507-1.67A1.684,1.684,0,0,0,240.706,430v2.716H240v-5.2h.679v.951a2.091,2.091,0,0,1,1.9-.991,1.847,1.847,0,0,1,1.847,1.1,2.267,2.267,0,0,1,2.064-1.1,1.969,1.969,0,0,1,2.091,2.254Z" transform="translate(-120.734 125.962)" fill="#263238"/>
      <path id="Trazado_128976" data-name="Trazado 128976" d="M252.409,430.356h-4.345a1.928,1.928,0,0,0,2.05,1.82,2.078,2.078,0,0,0,1.589-.679l.394.448a2.539,2.539,0,0,1-2.01.855,2.58,2.58,0,0,1-2.716-2.716,2.512,2.512,0,0,1,2.539-2.634,2.471,2.471,0,0,1,2.526,2.634C252.422,430.207,252.409,430.288,252.409,430.356Zm-4.345-.516h3.694a1.833,1.833,0,0,0-1.86-1.738A1.806,1.806,0,0,0,248.064,429.84Z" transform="translate(-118.097 125.956)" fill="#263238"/>
      <path id="Trazado_128977" data-name="Trazado 128977" d="M251.62,432.134l.312-.543a3.178,3.178,0,0,0,1.847.584c.991,0,1.358-.339,1.358-.856,0-1.358-3.368-.285-3.368-2.349,0-.856.733-1.48,2.05-1.48a3.517,3.517,0,0,1,1.847.489l-.312.557a2.717,2.717,0,0,0-1.534-.448c-.937,0-1.358.367-1.358.869,0,1.358,3.381.339,3.381,2.336,0,.91-.788,1.494-2.146,1.494A3.449,3.449,0,0,1,251.62,432.134Z" transform="translate(-116.575 125.971)" fill="#263238"/>
      <path id="Trazado_128978" data-name="Trazado 128978" d="M255.18,432.134l.326-.543a3.11,3.11,0,0,0,1.847.584c.991,0,1.358-.339,1.358-.855,0-1.358-3.381-.285-3.381-2.349,0-.855.733-1.48,2.064-1.48a3.5,3.5,0,0,1,1.833.489l-.3.557a2.717,2.717,0,0,0-1.535-.448c-.951,0-1.358.367-1.358.869,0,1.358,3.368.339,3.368,2.336,0,.91-.787,1.494-2.145,1.494A3.5,3.5,0,0,1,255.18,432.134Z" transform="translate(-115.301 125.971)" fill="#263238"/>
      <path id="Trazado_128979" data-name="Trazado 128979" d="M263.319,429.524v3.218h-.665v-.815a1.956,1.956,0,0,1-1.792.869c-1.181,0-1.9-.611-1.9-1.521s.516-1.467,2.01-1.467h1.643v-.285c0-.883-.5-1.358-1.467-1.358a2.716,2.716,0,0,0-1.738.611l-.312-.516a3.286,3.286,0,0,1,2.118-.706,1.847,1.847,0,0,1,2.1,1.969Zm-.706,1.657v-.855h-1.629c-1,0-1.358.394-1.358.937s.475.978,1.358.978a1.657,1.657,0,0,0,1.629-1.086Z" transform="translate(-113.948 125.987)" fill="#263238"/>
      <path id="Trazado_128980" data-name="Trazado 128980" d="M268.574,427.533V432.1a2.282,2.282,0,0,1-2.594,2.607,3.64,3.64,0,0,1-2.431-.8l.353-.53a3.177,3.177,0,0,0,2.05.706c1.358,0,1.915-.6,1.915-1.888v-.665a2.322,2.322,0,0,1-2.023,1,2.526,2.526,0,1,1,0-5.038,2.363,2.363,0,0,1,2.064,1.032v-.991ZM267.9,430a1.983,1.983,0,1,0-1.983,1.915A1.86,1.86,0,0,0,267.9,430Z" transform="translate(-112.454 125.969)" fill="#263238"/>
      <path id="Trazado_128981" data-name="Trazado 128981" d="M273.263,430.342H268.9a1.928,1.928,0,0,0,2.05,1.82,2.1,2.1,0,0,0,1.6-.679l.394.448a2.716,2.716,0,0,1-4.739-1.806,2.5,2.5,0,0,1,2.539-2.634,2.471,2.471,0,0,1,2.526,2.634C273.276,430.193,273.263,430.274,273.263,430.342Zm-4.359-.516H272.6a1.847,1.847,0,0,0-3.694,0Z" transform="translate(-110.638 125.971)" fill="#263238"/>
      <path id="Trazado_128982" data-name="Trazado 128982" d="M272.66,431.14a.53.53,0,1,1,.53.53.53.53,0,0,1-.53-.53Z" transform="translate(-109.044 127.087)" fill="#263238"/>
      <path id="Trazado_128983" data-name="Trazado 128983" d="M274.2,431.14a.53.53,0,1,1,.529.53.529.529,0,0,1-.529-.53Z" transform="translate(-108.493 127.087)" fill="#263238"/>
      <path id="Trazado_128984" data-name="Trazado 128984" d="M275.75,431.14a.53.53,0,1,1,.53.53.53.53,0,0,1-.53-.53Z" transform="translate(-107.938 127.087)" fill="#263238"/>
      <path id="Trazado_128985" data-name="Trazado 128985" d="M192.571,436.081a2.743,2.743,0,0,1-4.21-3.517l5.676-6.79a1.779,1.779,0,0,1,2.716,2.268l-4.821,5.771h0a1,1,0,0,1-1.507-1.276l3.707-4.454-.516-.421-3.531,4.25h0l-.177.2h0a1.643,1.643,0,0,0,2.5,2.078h0l.1-.109.081-.082h0l4.685-5.622h0a2.435,2.435,0,0,0-3.748-3.11h0l-5.921,7.1h0a3.408,3.408,0,0,0,5.2,4.345h0l4.78-5.73-.516-.421Z" transform="translate(-139.694 124.862)" fill="#26aab7"/>
      <path id="Trazado_128986" data-name="Trazado 128986" d="M241.519,383.6a3.272,3.272,0,0,0-2.376,1,3.3,3.3,0,0,0-5.662,2.281c0,2.933,5.662,6.477,5.662,6.477s5.663-3.544,5.663-6.477a3.286,3.286,0,0,0-3.286-3.286Z" transform="translate(-123.068 110.262)" fill="#f5ca56"/>
      <path id="Trazado_128987" data-name="Trazado 128987" d="M230.779,383.6a3.286,3.286,0,0,0-2.376,1,3.232,3.232,0,0,0-2.363-1,3.286,3.286,0,0,0-3.3,3.286c0,2.933,5.663,6.477,5.663,6.477s5.676-3.544,5.676-6.477a3.286,3.286,0,0,0-3.3-3.286Z" transform="translate(-126.912 110.262)" fill="#f5ca56"/>
      <g id="Grupo_55889" data-name="Grupo 55889" transform="translate(95.828 493.862)" opacity="0.4">
        <path id="Trazado_128988" data-name="Trazado 128988" d="M241.519,383.6a3.272,3.272,0,0,0-2.376,1,3.3,3.3,0,0,0-5.662,2.281c0,2.933,5.662,6.477,5.662,6.477s5.663-3.544,5.663-6.477a3.286,3.286,0,0,0-3.286-3.286Z" transform="translate(-218.896 -383.6)" fill="#fff"/>
        <path id="Trazado_128989" data-name="Trazado 128989" d="M230.779,383.6a3.286,3.286,0,0,0-2.376,1,3.232,3.232,0,0,0-2.363-1,3.286,3.286,0,0,0-3.3,3.286c0,2.933,5.663,6.477,5.663,6.477s5.676-3.544,5.676-6.477a3.286,3.286,0,0,0-3.3-3.286Z" transform="translate(-222.74 -383.6)" fill="#fff"/>
      </g>
      <path id="Trazado_128990" data-name="Trazado 128990" d="M232.447,348.843h-1.073l-2.268-3.327V343.37s-1.657-.149-1.534,2.716-.068,2.1-.068,2.1a17.532,17.532,0,0,0-3.843.217,35.955,35.955,0,0,0-.489,5.622,2.064,2.064,0,0,0,1.358,2.118,1.359,1.359,0,0,0,.38,0c.883,0,5.432-.57,5.432-.57h1.86Z" transform="translate(-126.76 95.862)" fill="#455a64"/>
      <path id="Trazado_128991" data-name="Trazado 128991" d="M232.972,347.03l-.856,7.346-1.847-.054.19-7.211Z" transform="translate(-124.217 97.173)" fill="#455a64"/>
      <path id="Trazado_128992" data-name="Trazado 128992" d="M246,348.843h-1.073l-2.268-3.327V343.37s-1.657-.149-1.534,2.716-.068,2.1-.068,2.1a17.432,17.432,0,0,0-3.829.217,35.478,35.478,0,0,0-.5,5.622,2.078,2.078,0,0,0,1.358,2.118,1.167,1.167,0,0,0,.38,0c.883,0,5.432-.57,5.432-.57h1.86Z" transform="translate(-121.91 95.862)" fill="#455a64"/>
      <path id="Trazado_128993" data-name="Trazado 128993" d="M246.539,347.03l-.856,7.346-1.833-.054.19-7.211Z" transform="translate(-119.356 97.173)" fill="#455a64"/>
      <path id="Trazado_128994" data-name="Trazado 128994" d="M223.2,335.73h1.358v6.192H223.2Z" transform="translate(-126.747 93.128)" fill="#263238"/>
      <path id="Trazado_128995" data-name="Trazado 128995" d="M229.509,339.619h-3.395a1.2,1.2,0,0,0,1.29.9,1.507,1.507,0,0,0,1.127-.435l.693.76a2.363,2.363,0,0,1-1.86.72,2.322,2.322,0,0,1-2.553-2.308,2.281,2.281,0,0,1,2.39-2.322,2.227,2.227,0,0,1,2.336,2.336,3.348,3.348,0,0,1-.027.353Zm-3.408-.76h2.213a1.127,1.127,0,0,0-2.213,0Z" transform="translate(-126.171 93.557)" fill="#263238"/>
      <path id="Trazado_128996" data-name="Trazado 128996" d="M233.5,337l-1.888,4.495h-1.358L228.38,337h1.358l1.236,3.055,1.29-3.055Z" transform="translate(-124.893 93.583)" fill="#263238"/>
      <path id="Trazado_128997" data-name="Trazado 128997" d="M232.42,336.195a.76.76,0,0,1,.815-.733.733.733,0,0,1,.815.706.815.815,0,0,1-1.63,0Zm.163,1.358h1.358v4.495h-1.358Z" transform="translate(-123.447 93.03)" fill="#263238"/>
      <path id="Trazado_128998" data-name="Trazado 128998" d="M234.39,335.73h1.358v6.192H234.39Z" transform="translate(-122.742 93.128)" fill="#263238"/>
      <path id="Trazado_128999" data-name="Trazado 128999" d="M235.8,340.29h4.169v.76H235.8Z" transform="translate(-122.237 94.76)" fill="#263238"/>
      <path id="Trazado_129000" data-name="Trazado 129000" d="M239,343.463l.353-.937a1.033,1.033,0,0,0,.557.149c.326,0,.53-.2.53-.652v-4.468H241.8v4.495a1.548,1.548,0,0,1-1.7,1.684A1.927,1.927,0,0,1,239,343.463Zm1.276-7.278a.747.747,0,0,1,.815-.733.733.733,0,0,1,.815.706.815.815,0,1,1-1.629,0Z" transform="translate(-121.092 93.027)" fill="#263238"/>
      <path id="Trazado_129001" data-name="Trazado 129001" d="M246.429,337v4.495h-1.236v-.53a1.928,1.928,0,0,1-3.313-1.358V337h1.358v2.349c0,.747.326,1.086.91,1.086s1.032-.38,1.032-1.209V337Z" transform="translate(-120.061 93.583)" fill="#263238"/>
      <path id="Trazado_129002" data-name="Trazado 129002" d="M246.12,335.73h1.358v6.192H246.12Z" transform="translate(-118.543 93.128)" fill="#263238"/>
      <path id="Trazado_129003" data-name="Trazado 129003" d="M247.85,336.194a.747.747,0,0,1,.815-.733.733.733,0,0,1,.8.706.815.815,0,0,1-1.616,0Zm.163,1.358h1.358v4.495h-1.358Z" transform="translate(-117.924 93.031)" fill="#263238"/>
      <path id="Trazado_129004" data-name="Trazado 129004" d="M253.86,338.93V341.5h-1.209v-.557a1.494,1.494,0,0,1-1.358.625c-1.059,0-1.684-.584-1.684-1.358s.557-1.358,1.928-1.358h1.032c0-.557-.326-.883-1.032-.883a2.064,2.064,0,0,0-1.358.421l-.475-.923a3.584,3.584,0,0,1,1.942-.543C253.073,336.934,253.86,337.572,253.86,338.93Zm-1.358,1.154v-.462h-.883c-.611,0-.8.217-.8.53s.272.543.733.543a.951.951,0,0,0,1-.611Z" transform="translate(-117.294 93.554)" fill="#263238"/>
      <path id="Trazado_129005" data-name="Trazado 129005" d="M223.17,380.562l.747-.9A1.358,1.358,0,0,0,225,380.3c.543,0,.828-.326.828-.964v-2.784h-2.064V375.47h3.408v3.789a1.888,1.888,0,0,1-2.1,2.159A2.322,2.322,0,0,1,223.17,380.562Z" transform="translate(-126.758 107.352)" fill="#263238"/>
      <path id="Trazado_129006" data-name="Trazado 129006" d="M226.781,378.811a2.471,2.471,0,1,1,2.485,2.322,2.322,2.322,0,0,1-2.485-2.322Zm3.626,0a1.154,1.154,0,1,0-.535,1.1A1.154,1.154,0,0,0,230.407,378.811Z" transform="translate(-125.467 107.609)" fill="#263238"/>
      <path id="Trazado_129007" data-name="Trazado 129007" d="M235.678,378.846v2.58h-1.358v-2.417c0-.72-.34-1.059-.91-1.059a1.067,1.067,0,0,0-1.073,1.209v2.227H230.98V375.18h1.358v2.173a1.928,1.928,0,0,1,1.358-.53,1.752,1.752,0,0,1,1.983,2.023Z" transform="translate(-123.962 107.248)" fill="#263238"/>
      <path id="Trazado_129008" data-name="Trazado 129008" d="M239.922,378.418V381h-1.358v-2.417c0-.72-.339-1.059-.923-1.059a1.061,1.061,0,0,0-1.073,1.208v2.227H235.21v-4.495h1.249v.53a1.928,1.928,0,0,1,1.48-.6,1.752,1.752,0,0,1,1.983,2.023Z" transform="translate(-122.448 107.676)" fill="#263238"/>
      <path id="Trazado_129009" data-name="Trazado 129009" d="M239.11,379.78h4.169v.747H239.11Z" transform="translate(-121.052 108.894)" fill="#263238"/>
      <path id="Trazado_129010" data-name="Trazado 129010" d="M244.666,375.47v5.852h-1.358v-4.766H242.14V375.47Z" transform="translate(-119.968 107.352)" fill="#263238"/>
      <path id="Trazado_129011" data-name="Trazado 129011" d="M249.235,380.279v1.1h-4.413V380.5l2.254-2.132c.516-.489.611-.788.611-1.073a.876.876,0,0,0-.937-.733,1.426,1.426,0,0,0-1.209.6l-.991-.638a2.716,2.716,0,0,1,2.322-1.086c1.358,0,2.173.665,2.173,1.725a2.349,2.349,0,0,1-.978,1.847l-1.358,1.276Z" transform="translate(-119.105 107.336)" fill="#263238"/>
      <path id="Trazado_129012" data-name="Trazado 129012" d="M241.623,383.683a1.7,1.7,0,0,1,1.086,0,3.368,3.368,0,0,1,2.227,2.037,3.15,3.15,0,0,1,0,2.186,6.789,6.789,0,0,1-1.276,2.132,20.234,20.234,0,0,1-4.291,3.653l-.19.122-.177-.122a23.3,23.3,0,0,1-2.186-1.575,13.35,13.35,0,0,1-2.987-3.2,4.142,4.142,0,0,1-.638-2.05,3.612,3.612,0,0,1,.611-1.928,3.571,3.571,0,0,1,3.055-1.562,3.422,3.422,0,0,1,2.458,1.127h-.272a3.178,3.178,0,0,1,1.806-.9,1.882,1.882,0,0,1,.706,0,5.808,5.808,0,0,1-.665.163,3.368,3.368,0,0,0-1.575.978l-.122.136-.149-.136a3.109,3.109,0,0,0-2.186-.883,3.042,3.042,0,0,0-2.539,1.358,2.96,2.96,0,0,0-.475,1.6,3.559,3.559,0,0,0,.57,1.684,12.888,12.888,0,0,0,2.852,3,22.9,22.9,0,0,0,2.1,1.534H239a20.941,20.941,0,0,0,4.2-3.449,6.789,6.789,0,0,0,1.222-1.915,2.715,2.715,0,0,0,0-1.847,3.232,3.232,0,0,0-1.874-1.969C242,383.723,241.623,383.737,241.623,383.683Z" transform="translate(-123.171 110.179)" fill="#263238"/>
      <path id="Trazado_129013" data-name="Trazado 129013" d="M230.865,383.683a1.751,1.751,0,0,1,1.1,0,3.354,3.354,0,0,1,2.213,2.037,3.151,3.151,0,0,1,.068,2.186,6.558,6.558,0,0,1-1.276,2.132,20.234,20.234,0,0,1-4.291,3.653l-.177.122-.19-.122a23.29,23.29,0,0,1-2.186-1.575,13.023,13.023,0,0,1-2.974-3.2,4.073,4.073,0,0,1-.652-2.051,3.558,3.558,0,0,1,3.68-3.49,3.477,3.477,0,0,1,2.458,1.127h-.285a3.178,3.178,0,0,1,1.806-.9,1.882,1.882,0,0,1,.706,0,5.808,5.808,0,0,1-.665.163,3.285,3.285,0,0,0-1.562.978l-.136.136-.149-.136a3.11,3.11,0,0,0-2.186-.883,2.974,2.974,0,0,0-2.987,3.083,3.287,3.287,0,0,0,.57,1.684,12.821,12.821,0,0,0,2.838,3,22.919,22.919,0,0,0,2.1,1.534h-.367a20.94,20.94,0,0,0,4.2-3.449,6.489,6.489,0,0,0,1.222-1.915,2.716,2.716,0,0,0,0-1.847,3.246,3.246,0,0,0-1.86-1.969A7.982,7.982,0,0,0,230.865,383.683Z" transform="translate(-126.998 110.179)" fill="#263238"/>
      <circle id="Elipse_4230" data-name="Elipse 4230" cx="22.691" cy="22.691" r="22.691" transform="translate(32.747 435.16) rotate(-45)" fill="#e0e0e0"/>
      <path id="Trazado_129014" data-name="Trazado 129014" d="M190.327,341.81a3.9,3.9,0,0,0-.883,2.2,12.971,12.971,0,0,0,0,2.4,59.743,59.743,0,0,1,0,9.981,9.03,9.03,0,0,0,3.843-5.622,15.3,15.3,0,0,0-.149-6.925,3.8,3.8,0,0,0-.76-1.779,1.494,1.494,0,0,0-1.765-.435" transform="translate(-138.849 95.196)" fill="#455a64"/>
      <path id="Trazado_129015" data-name="Trazado 129015" d="M195.6,337.274a2.974,2.974,0,0,0,.177-2.933,4.467,4.467,0,0,0-2.2-2.064,6.07,6.07,0,0,0-7.441,2.254,2.472,2.472,0,0,0,0,2.974c.312.3.774.53.828.964s-.312.76-.625,1.073a4.074,4.074,0,0,0,2.92,6.912c2.2,0,4.074-1.752,6.26-1.955" transform="translate(-140.351 91.72)" fill="#263238"/>
      <path id="Trazado_129016" data-name="Trazado 129016" d="M191.286,336.113c-1.453,2.634-2.308,6.79-.584,9.6l1.494-.272c1.358-3.436,1.928-8.025,3.1-11.5A5.432,5.432,0,0,0,191.286,336.113Z" transform="translate(-138.721 92.487)" fill="#455a64"/>
      <path id="Trazado_129017" data-name="Trazado 129017" d="M192.95,336.372a3,3,0,0,1,2.132-2.5,15.668,15.668,0,0,0,3.259-1.236,15.946,15.946,0,0,0,2.173-2.213,7.183,7.183,0,0,1,12.085,3.3,4.685,4.685,0,0,1-1.181,4.726c-1.521,1.358-3.775,1-5.717.6s-4.155-.787-5.785.353a8.284,8.284,0,0,0-2.145,2.852,5.106,5.106,0,0,1-2.485,2.5c-1.141.38-2.716-.285-2.716-1.494" transform="translate(-137.71 90.463)" fill="#263238"/>
      <path id="Trazado_129018" data-name="Trazado 129018" d="M193.942,336.1a3.3,3.3,0,0,1-1.29,2.553,4.562,4.562,0,0,0-1.63,2.4c-.136,1.141.693,2.268.448,3.395a8.259,8.259,0,0,1-1.046,1.915,4.074,4.074,0,0,0-.2,3,13.117,13.117,0,0,0,1.439,3.952,15.765,15.765,0,0,0,7.672,4.576,30.121,30.121,0,0,0,8.487.475c2.322-.149,5,0,6.925-3.232a23.885,23.885,0,0,0,2.037-5.717,8.976,8.976,0,0,0,.38-4.916c-.285-.923-.842-1.752-1.113-2.716a21.142,21.142,0,0,1-.353-3.612,8.27,8.27,0,0,0-11.787-6.531" transform="translate(-138.62 91.376)" fill="#263238"/>
      <path id="Trazado_129019" data-name="Trazado 129019" d="M212.817,339.537c-.217-3.341-2.431-7.414-5.758-7.061L196.7,335.124a1.942,1.942,0,0,0-1.738,1.982l.665,22.759a6.016,6.016,0,0,0,6.138,5.839h0a6.029,6.029,0,0,0,5.88-6V356.8s4.264-.72,5.133-6.274A58.844,58.844,0,0,0,212.817,339.537Z" transform="translate(-136.855 91.956)" fill="#a36957"/>
      <path id="Trazado_129020" data-name="Trazado 129020" d="M207.126,340.689a.706.706,0,0,1-.693.72.665.665,0,0,1-.733-.638.72.72,0,0,1,.679-.72.693.693,0,0,1,.747.638Z" transform="translate(-133.011 94.674)" fill="#263238"/>
      <path id="Trazado_129021" data-name="Trazado 129021" d="M208.106,339.6c-.1.1-.625-.3-1.358-.3s-1.358.394-1.358.3,0-.217.3-.394a1.983,1.983,0,0,1,1.127-.353,1.9,1.9,0,0,1,1.113.367C208.065,339.393,208.147,339.556,208.106,339.6Z" transform="translate(-133.122 94.245)" fill="#263238"/>
      <path id="Trazado_129022" data-name="Trazado 129022" d="M201.706,340.629a.72.72,0,0,1-.679.72.692.692,0,0,1-.747-.638.706.706,0,0,1,.693-.72.665.665,0,0,1,.733.638Z" transform="translate(-134.951 94.652)" fill="#263238"/>
      <path id="Trazado_129023" data-name="Trazado 129023" d="M202.556,339.717c-.1.1-.625-.3-1.358-.3s-1.358.394-1.358.3,0-.217.3-.394a1.984,1.984,0,0,1,1.127-.353,1.9,1.9,0,0,1,1.113.353C202.515,339.513,202.6,339.676,202.556,339.717Z" transform="translate(-135.108 94.288)" fill="#263238"/>
      <path id="Trazado_129024" data-name="Trazado 129024" d="M204.011,345.382a5.351,5.351,0,0,1,1.236-.217c.2,0,.38-.068.421-.2a1.018,1.018,0,0,0-.136-.57c-.177-.475-.38-.978-.584-1.494a26.921,26.921,0,0,1-1.358-3.9,25.605,25.605,0,0,1,1.616,3.775c.19.53.38,1.032.557,1.507a1.1,1.1,0,0,1,.109.76.543.543,0,0,1-.326.3h-.326a4.442,4.442,0,0,1-1.209.041Z" transform="translate(-133.766 94.298)" fill="#263238"/>
      <path id="Trazado_129025" data-name="Trazado 129025" d="M206.261,350.9a14.027,14.027,0,0,1-7.441-1.969s1.82,3.816,7.374,3.286Z" transform="translate(-135.473 97.853)" fill="#7a4534"/>
      <path id="Trazado_129026" data-name="Trazado 129026" d="M204.253,345.2a1.358,1.358,0,0,0-1.236-.5,1.262,1.262,0,0,0-.869.462.8.8,0,0,0,0,.923.924.924,0,0,0,1,.244,2.715,2.715,0,0,0,.978-.584.884.884,0,0,0,.217-.231.272.272,0,0,0,0-.285" transform="translate(-134.334 96.332)" fill="#f5ca56"/>
      <path id="Trazado_129027" data-name="Trazado 129027" d="M202.276,344.1c.122,0,.122.815.842,1.358s1.589.489,1.6.611-.2.163-.57.176a2.064,2.064,0,0,1-1.358-.475,1.778,1.778,0,0,1-.652-1.181C202.127,344.3,202.222,344.087,202.276,344.1Z" transform="translate(-134.285 96.124)" fill="#263238"/>
      <path id="Trazado_129028" data-name="Trazado 129028" d="M202.93,338.021c-.081.2-.842.109-1.752.217s-1.616.353-1.738.176.068-.285.367-.489a2.987,2.987,0,0,1,2.648-.3C202.767,337.75,202.93,337.926,202.93,338.021Z" transform="translate(-135.265 93.742)" fill="#263238"/>
      <path id="Trazado_129029" data-name="Trazado 129029" d="M207.891,337.96c-.136.176-.665,0-1.358,0s-1.168.122-1.29,0,0-.272.258-.435a1.819,1.819,0,0,1,1.059-.285,1.792,1.792,0,0,1,1.032.339C207.877,337.7,207.945,337.879,207.891,337.96Z" transform="translate(-133.191 93.668)" fill="#263238"/>
      <path id="Trazado_129030" data-name="Trazado 129030" d="M193.38,353.7a4.943,4.943,0,0,0,5.88-5.432c-.177-1.358-.91-2.716-.448-4.074.638-1.711,3.028-2.227,3.653-3.938.38-.991,0-2.146.462-3.11a3.68,3.68,0,0,1,2.295-1.779,9.7,9.7,0,0,0,2.716-1.181,2.132,2.132,0,0,0,.76-2.621,53.255,53.255,0,0,0-12.126,2.947,4.685,4.685,0,0,0-2.349,1.575,5,5,0,0,0-.489,2.974L194.426,354" transform="translate(-137.42 91.639)" fill="#263238"/>
      <path id="Trazado_129031" data-name="Trazado 129031" d="M194.622,356.338h-.1l-.244-.19c-.217-.163-.53-.421-.923-.76A11.881,11.881,0,0,1,192,354.03a5.12,5.12,0,0,1-1.032-2.295,3.49,3.49,0,0,1,.72-2.919,11.225,11.225,0,0,1,1.29-1.1,3.029,3.029,0,0,0,1-1.358,18.2,18.2,0,0,0,.394-3.775,7.536,7.536,0,0,1,1.575-3.829A5.053,5.053,0,0,1,197.6,337.4a9.967,9.967,0,0,1,1.942-.665,4.469,4.469,0,0,0,1.711-.828,6.939,6.939,0,0,0,1.236-1.358c.693-.991,1.209-2.05,1.874-2.933a6.791,6.791,0,0,1,1.1-1.154,4.17,4.17,0,0,1,1.358-.706,2.716,2.716,0,0,1,2.471.244,2.309,2.309,0,0,1,.883,1.657,1.765,1.765,0,0,1-.339,1.154,1.06,1.06,0,0,1-.231.217h-.081l.068-.081a1.253,1.253,0,0,0,.2-.231,1.67,1.67,0,0,0,.258-1.2,2.2,2.2,0,0,0-.869-1.562,2.716,2.716,0,0,0-2.336-.19,4.075,4.075,0,0,0-1.222.693,6.013,6.013,0,0,0-1.059,1.127c-.638.869-1.141,1.928-1.86,2.947a6.911,6.911,0,0,1-1.276,1.358,4.658,4.658,0,0,1-1.779.883,9.506,9.506,0,0,0-1.9.652,4.863,4.863,0,0,0-1.562,1.276,7.305,7.305,0,0,0-1.534,3.707,17.79,17.79,0,0,1-.407,3.829,3.287,3.287,0,0,1-1.086,1.467,10.212,10.212,0,0,0-1.276,1.073,3.272,3.272,0,0,0-.706,2.716,5.146,5.146,0,0,0,.978,2.241,11.062,11.062,0,0,0,1.263,1.358c.38.353.693.611.9.788A3.342,3.342,0,0,1,194.622,356.338Z" transform="translate(-138.309 90.92)" fill="#455a64"/>
      <path id="Trazado_129032" data-name="Trazado 129032" d="M191.311,342.072a5.432,5.432,0,0,0-3.354,3.544,25.8,25.8,0,0,1-1.847,4.712,4.59,4.59,0,0,0,3.273-1.1,5.593,5.593,0,0,0,1.67-1.521c1.073-1.7.2-4.006.869-5.907" transform="translate(-140.022 95.301)" fill="#455a64"/>
      <path id="Trazado_129033" data-name="Trazado 129033" d="M191.2,341.632a3.959,3.959,0,0,1-.747-.462,3.286,3.286,0,0,1-.693-.57,2.906,2.906,0,0,1,.76.462,2.985,2.985,0,0,1,.679.57Z" transform="translate(-138.716 94.871)" fill="#fafafa"/>
      <path id="Trazado_129034" data-name="Trazado 129034" d="M191.355,340.459a4.745,4.745,0,0,1-.828-.679,4.362,4.362,0,0,1-.747-.76,4.3,4.3,0,0,1,.828.665,5.516,5.516,0,0,1,.747.774Z" transform="translate(-138.709 94.306)" fill="#fafafa"/>
      <path id="Trazado_129035" data-name="Trazado 129035" d="M191.043,338.208a3.075,3.075,0,0,1-.489-.353c-.244-.217-.421-.407-.394-.435s.231.122.475.339A1.657,1.657,0,0,1,191.043,338.208Z" transform="translate(-138.573 93.732)" fill="#fafafa"/>
      <path id="Trazado_129036" data-name="Trazado 129036" d="M192.149,337.025a2.309,2.309,0,0,1-.706-.611,2.717,2.717,0,0,1-.5-.774s.272.312.6.693A5.726,5.726,0,0,1,192.149,337.025Z" transform="translate(-138.293 93.096)" fill="#fafafa"/>
      <path id="Trazado_129037" data-name="Trazado 129037" d="M193.149,335.9a3.723,3.723,0,0,1-.665-.584,4.073,4.073,0,0,1-.584-.679,4.075,4.075,0,0,1,.679.584A3.083,3.083,0,0,1,193.149,335.9Z" transform="translate(-137.95 92.738)" fill="#fafafa"/>
      <path id="Trazado_129038" data-name="Trazado 129038" d="M189.54,355.9a1.1,1.1,0,0,0,0-.136V349.06c0-.951,0-1.847.068-2.716a20.594,20.594,0,0,1,.231-2.173,11.5,11.5,0,0,1,.339-1.439,3.185,3.185,0,0,1,.136-.367c0-.1,0-.136,0-.136a1.5,1.5,0,0,1-.136.516,12.82,12.82,0,0,0-.3,1.439,18,18,0,0,0-.2,2.159v2.716c0,1.887,0,3.585-.081,4.848v1.86a.489.489,0,0,1-.054.136Z" transform="translate(-138.795 95.455)" fill="#263238"/>
      <path id="Trazado_129039" data-name="Trazado 129039" d="M191.664,351.51a6.79,6.79,0,0,1-1.114-1.018,6.432,6.432,0,0,1-.951-1.181s.475.489,1.046,1.086A13.8,13.8,0,0,1,191.664,351.51Z" transform="translate(-138.773 97.989)" fill="#fafafa"/>
      <path id="Trazado_129040" data-name="Trazado 129040" d="M192.922,350.066l-.557-.475c-.339-.312-.8-.733-1.263-1.236a7.244,7.244,0,0,1-1.046-1.439c-.109-.19-.19-.353-.244-.475s-.068-.19,0-.19.136.244.367.625a10.243,10.243,0,0,0,1.059,1.358c.462.5.923.923,1.236,1.249a3.137,3.137,0,0,1,.448.584Z" transform="translate(-138.714 96.893)" fill="#fafafa"/>
      <path id="Trazado_129041" data-name="Trazado 129041" d="M188.261,348.427a2.031,2.031,0,0,1-.217-.435,10.376,10.376,0,0,1-.407-1.1c-.136-.435-.231-.828-.3-1.127a2.394,2.394,0,0,1-.068-.475s.217.706.489,1.575S188.261,348.413,188.261,348.427Z" transform="translate(-139.607 96.55)" fill="#fafafa"/>
      <path id="Trazado_129042" data-name="Trazado 129042" d="M189.556,347.836s-.339-1.046-.679-2.363-.584-2.4-.557-2.4a20.735,20.735,0,0,1,.679,2.363C189.339,346.75,189.583,347.823,189.556,347.836Z" transform="translate(-139.232 95.755)" fill="#fafafa"/>
      <path id="Trazado_129043" data-name="Trazado 129043" d="M189.835,343.471a1.223,1.223,0,0,1-.326-.543,1.589,1.589,0,0,1-.109-.6h0a3.845,3.845,0,0,0,.2.557A4.075,4.075,0,0,1,189.835,343.471Z" transform="translate(-138.845 95.49)" fill="#fafafa"/>
      <path id="Trazado_129044" data-name="Trazado 129044" d="M190.36,354.638l6.912-1.955,12.018-.163,7.645,1.657a21.089,21.089,0,0,1-13.579,4.522C194.909,358.6,190.36,354.638,190.36,354.638Z" transform="translate(-138.501 99.138)" fill="#455a64"/>
      <circle id="Elipse_4231" data-name="Elipse 4231" cx="22.664" cy="22.664" r="22.664" transform="translate(37.671 508.425) rotate(-81.3)" fill="#e0e0e0"/>
      <path id="Trazado_129045" data-name="Trazado 129045" d="M200.867,406.06a6.613,6.613,0,0,1-7.238-5.934l-2-20.043a9.669,9.669,0,0,1,8.894-10.633h.149a10.1,10.1,0,0,1,10.239,9.139c.448,4.6.869,9.6.883,12.058,0,5.228-5.187,6.124-5.187,6.124s.081.855.2,2.05a6.64,6.64,0,0,1-5.948,7.238Z" transform="translate(-138.064 105.197)" fill="#ffbe9d"/>
      <path id="Trazado_129046" data-name="Trazado 129046" d="M204.44,390.071a12.669,12.669,0,0,1-6.79-1.9,6.627,6.627,0,0,0,6.966,3.164Z" transform="translate(-135.892 111.897)" fill="#eb996e"/>
      <path id="Trazado_129047" data-name="Trazado 129047" d="M204.69,378.936a.733.733,0,0,1-.706.76.706.706,0,0,1-.774-.652.747.747,0,0,1,.706-.774.706.706,0,0,1,.774.665Z" transform="translate(-133.902 108.353)" fill="#263238"/>
      <path id="Trazado_129048" data-name="Trazado 129048" d="M205.784,378c-.1.109-.665-.312-1.467-.285s-1.358.421-1.467.326,0-.217.3-.407a2.037,2.037,0,0,1,2.349,0C205.784,377.788,205.784,377.964,205.784,378Z" transform="translate(-134.045 107.994)" fill="#263238"/>
      <path id="Trazado_129049" data-name="Trazado 129049" d="M199.054,379.176a.747.747,0,0,1-.706.76.72.72,0,0,1-.788-.652.76.76,0,0,1,.706-.774.72.72,0,0,1,.788.665Z" transform="translate(-135.924 108.439)" fill="#263238"/>
      <path id="Trazado_129050" data-name="Trazado 129050" d="M199.974,378.2c-.081.1-.665-.312-1.467-.3s-1.358.435-1.467.326,0-.217.3-.407a2,2,0,0,1,1.181-.38,1.873,1.873,0,0,1,1.168.353C199.933,378.011,200.028,378.2,199.974,378.2Z" transform="translate(-136.125 108.057)" fill="#263238"/>
      <path id="Trazado_129051" data-name="Trazado 129051" d="M201.521,384.135a4.466,4.466,0,0,1,1.358-.258c.2,0,.394-.068.421-.217a.992.992,0,0,0-.136-.6l-.638-1.548a25.793,25.793,0,0,1-1.426-4.074,28.117,28.117,0,0,1,1.752,3.924c.2.557.407,1.073.611,1.562a1.14,1.14,0,0,1,.109.8.5.5,0,0,1-.326.312,1.864,1.864,0,0,1-.353,0A5.827,5.827,0,0,1,201.521,384.135Z" transform="translate(-134.657 108.057)" fill="#263238"/>
      <path id="Trazado_129052" data-name="Trazado 129052" d="M199.708,382.8c.122,0,.136.869.9,1.48s1.684.489,1.7.611-.2.177-.6.19a2.213,2.213,0,0,1-1.358-.462,1.955,1.955,0,0,1-.706-1.236C199.546,383.072,199.641,382.8,199.708,382.8Z" transform="translate(-135.194 109.975)" fill="#263238"/>
      <path id="Trazado_129053" data-name="Trazado 129053" d="M200.284,375.854c-.081.217-.883.122-1.82.258s-1.7.394-1.833.2.081-.3.38-.516a3.165,3.165,0,0,1,1.358-.5,3.029,3.029,0,0,1,1.426.149C200.134,375.582,200.311,375.745,200.284,375.854Z" transform="translate(-136.271 107.28)" fill="#263238"/>
      <path id="Trazado_129054" data-name="Trazado 129054" d="M205.49,376.3c-.149.19-.706,0-1.358,0s-1.222.136-1.358,0,0-.285.272-.462a1.861,1.861,0,0,1,1.1-.312,1.833,1.833,0,0,1,1.1.353C205.463,376.033,205.544,376.169,205.49,376.3Z" transform="translate(-134.077 107.373)" fill="#263238"/>
      <path id="Trazado_129055" data-name="Trazado 129055" d="M197.527,373.815h0a4.074,4.074,0,0,0-1.48,2.716v.109c-.19,1.494-.122,3.015-.312,4.495s0,2.607-1.453,3.082a1.956,1.956,0,0,1-2.118-.625,1.2,1.2,0,0,1-.19-.679c-.339-3.6-1.209-4.916-1.263-8.677a3.191,3.191,0,0,1,1.276-2.607c.774-.57,1.738-1.181,2.621-.774s2.037,2.01,2.716,2.716" transform="translate(-138.376 105.653)" fill="#263238"/>
      <path id="Trazado_129056" data-name="Trazado 129056" d="M193.907,379.034c-.1,0-3.612-1-3.436,2.566a2.716,2.716,0,0,0,3.721,2.553C194.124,384.045,193.907,379.034,193.907,379.034Z" transform="translate(-138.463 108.581)" fill="#ffbe9d"/>
      <path id="Trazado_129057" data-name="Trazado 129057" d="M192.773,382.556l-.163.109a.719.719,0,0,1-.462,0,1.548,1.548,0,0,1-.788-1.358,2.118,2.118,0,0,1,.136-.9.706.706,0,0,1,.448-.5.312.312,0,0,1,.367.149v.176s.081-.068,0-.2a.34.34,0,0,0-.149-.217.516.516,0,0,0-.353-.081.923.923,0,0,0-.625.584,2.214,2.214,0,0,0-.163,1,1.643,1.643,0,0,0,.978,1.507.76.76,0,0,0,.57-.122C192.773,382.651,192.787,382.569,192.773,382.556Z" transform="translate(-138.266 108.875)" fill="#eb996e"/>
      <path id="Trazado_129058" data-name="Trazado 129058" d="M193.512,372.333c-.9-1.358,1.48-3.517,3.232-4.074s4.074.244,5.853.788a9.653,9.653,0,0,0,3.381.788,8.15,8.15,0,0,0,2.254-.625,5.838,5.838,0,0,1,2.281-.489,2.159,2.159,0,0,1,1.9,1.168,1.358,1.358,0,0,1-.869,1.833,1.752,1.752,0,1,1,.516,3.245c.5-.394,1.29.231,1.236.869a1.86,1.86,0,0,1-1.195,1.358,6.707,6.707,0,0,1-4.766,0c-1.548-.489-3-1.276-4.535-1.806s-4.074-1.494-5.635-.923c-1.127.407-1.887,1.792-2.526,1.494a2.105,2.105,0,0,1-1.154-1.589,6.328,6.328,0,0,1,0-2.023" transform="translate(-137.443 104.704)" fill="#263238"/>
      <path id="Trazado_129059" data-name="Trazado 129059" d="M211.706,371.325a6.243,6.243,0,0,1-.557.693,4.82,4.82,0,0,1-1.955,1.358,4.576,4.576,0,0,1-3.408-.081,16.293,16.293,0,0,1-3.49-2.607,7.455,7.455,0,0,0-4.074-1.86,4.074,4.074,0,0,0-3.395,1.236,3.055,3.055,0,0,0-.774,2.322,2.226,2.226,0,0,0,.163.652q.109.231.122.2a4.949,4.949,0,0,1-.149-.869,2.988,2.988,0,0,1,.815-2.132,3.884,3.884,0,0,1,3.191-1.086,7.171,7.171,0,0,1,3.843,1.806,15.57,15.57,0,0,0,3.585,2.634,4.712,4.712,0,0,0,3.626,0,4.766,4.766,0,0,0,1.983-1.453,3.18,3.18,0,0,0,.367-.57C211.638,371.407,211.72,371.339,211.706,371.325Z" transform="translate(-137.184 104.965)" fill="#455a64"/>
      <path id="Trazado_129060" data-name="Trazado 129060" d="M192.612,381.364a.859.859,0,0,0,.272-.38,2.444,2.444,0,0,0,.163-1.358c-.1-1.141-1.141-2.363-1.29-3.952a3.544,3.544,0,0,1,.353-2.132,2.716,2.716,0,0,1,1.358-1.168,2.255,2.255,0,0,1,1.181-.19,2.55,2.55,0,0,1,.462.081c.014-.027-.136-.122-.435-.217a2.228,2.228,0,0,0-1.358.081,2.879,2.879,0,0,0-1.494,1.249,3.748,3.748,0,0,0-.435,2.336,6.585,6.585,0,0,0,.72,2.241,6.792,6.792,0,0,1,.679,1.711,2.716,2.716,0,0,1-.177,1.7Z" transform="translate(-138.145 106.102)" fill="#455a64"/>
      <path id="Trazado_129061" data-name="Trazado 129061" d="M189.4,395.113l4.943-3.368c5.527,1.507,10.117,1.48,13.253-.665l8.338,3.571a21.02,21.02,0,0,1-13.579,4.522C193.935,399.037,189.4,395.113,189.4,395.113Z" transform="translate(-138.845 112.939)" fill="#f5ca56"/>
      <circle id="Elipse_4232" data-name="Elipse 4232" cx="29.888" cy="29.888" r="29.888" transform="translate(19.221 110.282) rotate(-45)" fill="#e0e0e0"/>
      <path id="Trazado_129062" data-name="Trazado 129062" d="M222.83,119.052c.367-2.431,1.63-4.644,2.01-7.061a18.577,18.577,0,0,0-.923-7.727c-1.29-4.712-2.892-9.505-6.165-13.158s-8.582-5.825-13.158-4.074l-4.834,4.2c-3.354.869-5.432,4.21-6.681,7.441s-2.1,6.79-4.454,9.315c-1.48,1.6-3.612,2.96-3.856,5.119s1.358,4.318.38,6.138c-.774,1.358-2.716,1.711-3.612,3.055s.584,5.255.584,5.255,9.736,12.914,31.232,7.374c5.839-1.507,8.555-4.861,11.719-8.148a9.872,9.872,0,0,1-2.241-7.727Z" transform="translate(-141.762 3.894)" fill="#263238"/>
      <path id="Trazado_129063" data-name="Trazado 129063" d="M184.81,120.317l9.872-2.865,16.3-.842,9.926,2.336s-4.97,7.048-19.785,6.491c-9.505-.353-13.145-3.2-13.145-3.2" transform="translate(-140.487 14.701)" fill="#f5ca56"/>
      <path id="Trazado_129064" data-name="Trazado 129064" d="M189.76,89.613a12.52,12.52,0,0,1,9.112-4.454,18.671,18.671,0,0,1,13.81,4.074,16.879,16.879,0,0,1,5.214,12,11.311,11.311,0,0,1-1.073,4.522,8.283,8.283,0,0,1-3.87,3.9c-1.453.625-2.01.109-3.11-1.032a7.13,7.13,0,0,1-1.358-2.539,35.43,35.43,0,0,0-5.676-10.863A15.168,15.168,0,0,0,192.354,89.5" transform="translate(-138.716 3.404)" fill="#455a64"/>
      <path id="Trazado_129065" data-name="Trazado 129065" d="M187.9,97.947a9.777,9.777,0,0,1,2.58-8.555,12.833,12.833,0,0,1,6.111-3.232,13.7,13.7,0,0,1,9.193.679,8.935,8.935,0,0,1,5.187,7.292,19.258,19.258,0,0,0,.2,4.21,3.272,3.272,0,0,1,.272,1.806,1.48,1.48,0,0,1-1.358.9,3.341,3.341,0,0,1-1.629-.407,17.789,17.789,0,0,1-4.495-3.585" transform="translate(-139.438 3.625)" fill="#263238"/>
      <path id="Trazado_129066" data-name="Trazado 129066" d="M209.6,93.419,196.02,89.236c-4.359-.693-7.564,4.563-8.08,8.962a78.852,78.852,0,0,0-.679,14.543c.788,7.4,6.369,8.636,6.369,8.636v3.789a8.147,8.147,0,0,0,10.076,8.012l.339-.109a8.148,8.148,0,0,0,5.771-7.265l1.955-29.643a2.607,2.607,0,0,0-2.173-2.743Z" transform="translate(-139.64 4.881)" fill="#ffbe9d"/>
      <path id="Trazado_129067" data-name="Trazado 129067" d="M189.38,99.634a.951.951,0,0,0,.855,1,.91.91,0,0,0,1.018-.8.951.951,0,0,0-.855-1,.9.9,0,0,0-1.019.8Z" transform="translate(-138.852 8.335)" fill="#263238"/>
      <path id="Trazado_129068" data-name="Trazado 129068" d="M188.613,98.4c.109.136.856-.367,1.86-.3s1.738.6,1.847.475,0-.285-.353-.53a2.607,2.607,0,0,0-2.974-.149C188.668,98.179,188.559,98.342,188.613,98.4Z" transform="translate(-139.131 7.861)" fill="#263238"/>
      <path id="Trazado_129069" data-name="Trazado 129069" d="M196.94,100.21a.951.951,0,0,0,.856,1,.9.9,0,0,0,1.018-.8.937.937,0,0,0-.855-.991.9.9,0,0,0-1.018.788Z" transform="translate(-136.146 8.546)" fill="#263238"/>
      <path id="Trazado_129070" data-name="Trazado 129070" d="M195.943,98.914c.109.136.855-.353,1.86-.3s1.738.6,1.847.489,0-.285-.353-.543a2.716,2.716,0,0,0-1.48-.53,2.322,2.322,0,0,0-1.48.394C196.025,98.643,195.889,98.86,195.943,98.914Z" transform="translate(-136.507 8.049)" fill="#263238"/>
      <path id="Trazado_129071" data-name="Trazado 129071" d="M193.607,106.3a6.382,6.382,0,0,0-1.629-.38c-.258,0-.5-.109-.53-.285a1.358,1.358,0,0,1,.2-.76c.285-.611.57-1.263.869-1.928a35.685,35.685,0,0,0,2-5.065,34.111,34.111,0,0,0-2.39,4.889c-.3.679-.584,1.358-.842,1.942a1.589,1.589,0,0,0-.19,1.018.652.652,0,0,0,.407.394,1.358,1.358,0,0,0,.435.081,7.046,7.046,0,0,0,1.67.1Z" transform="translate(-138.244 7.997)" fill="#263238"/>
      <path id="Trazado_129072" data-name="Trazado 129072" d="M192,113.445a18.835,18.835,0,0,0,9.981-2.1s-2.716,5.106-9.994,4.074Z" transform="translate(-137.918 12.815)" fill="#eb996e"/>
      <path id="Trazado_129073" data-name="Trazado 129073" d="M193.2,106.064a1.82,1.82,0,0,1,1.67-.6,1.616,1.616,0,0,1,1.127.679,1.059,1.059,0,0,1,0,1.209,1.209,1.209,0,0,1-1.358.272,3.883,3.883,0,0,1-1.263-.842,1.5,1.5,0,0,1-.272-.312.353.353,0,0,1,0-.38" transform="translate(-137.539 10.703)" fill="#eb996e"/>
      <path id="Trazado_129074" data-name="Trazado 129074" d="M196,104.71c-.163,0-.217,1.086-1.209,1.82s-2.146.543-2.159.706.244.217.747.258a2.716,2.716,0,0,0,1.793-.516,2.444,2.444,0,0,0,.951-1.534C196.188,105,196.079,104.71,196,104.71Z" transform="translate(-137.689 10.442)" fill="#263238"/>
      <path id="Trazado_129075" data-name="Trazado 129075" d="M195.931,96.595c.1.285,1.114.2,2.295.407s2.118.584,2.295.339-.082-.38-.448-.665a4.006,4.006,0,0,0-3.49-.57C196.134,96.255,195.9,96.459,195.931,96.595Z" transform="translate(-136.508 7.3)" fill="#263238"/>
      <path id="Trazado_129076" data-name="Trazado 129076" d="M189.008,95.182c.163.231.869,0,1.711,0s1.548.231,1.725,0,0-.353-.326-.584a2.417,2.417,0,0,0-1.358-.448,2.281,2.281,0,0,0-1.358.394C189.008,94.829,188.926,95.06,189.008,95.182Z" transform="translate(-138.995 6.662)" fill="#263238"/>
      <path id="Trazado_129077" data-name="Trazado 129077" d="M203.3,103.809c0-.557.733-1.806,1.276-1.86,1.453-.149,4.074.1,3.884,3.761-.231,5.011-5.214,3.748-5.214,3.612S203.189,105.7,203.3,103.809Z" transform="translate(-133.895 9.442)" fill="#ffbe9d"/>
      <path id="Trazado_129078" data-name="Trazado 129078" d="M204.431,107.044s.081,0,.231.136a.788.788,0,0,0,.652,0,2.159,2.159,0,0,0,1.086-1.887,2.947,2.947,0,0,0-.19-1.263,1,1,0,0,0-.625-.693.434.434,0,0,0-.53.217v.244c0,.014-.109-.1,0-.3a.516.516,0,0,1,.2-.3.679.679,0,0,1,.489-.109,1.209,1.209,0,0,1,.883.815,3.164,3.164,0,0,1,.244,1.358,2.268,2.268,0,0,1-1.358,2.1.923.923,0,0,1-.788-.163C204.431,107.193,204.417,107.044,204.431,107.044Z" transform="translate(-133.466 9.859)" fill="#eb996e"/>
      <path id="Trazado_129079" data-name="Trazado 129079" d="M193.25,89.548a6.79,6.79,0,0,0,4.264,5.554c1.222.475,2.716.693,3.395,1.82s.122,2.716.747,3.911c.869,1.63,3.558,1.752,4.169,3.5.272.774,0,1.643.312,2.4A2.308,2.308,0,0,0,208.852,108a3.653,3.653,0,0,0,2.336-2.078,9.507,9.507,0,0,0,.76-3.137,17.531,17.531,0,0,0-.068-6.355c-1.046-4.332-6.79-10.619-11.216-10.632" transform="translate(-137.467 3.673)" fill="#263238"/>
      <path id="Trazado_129080" data-name="Trazado 129080" d="M201.588,87.463a11.121,11.121,0,0,0-8.148,3.585,3.49,3.49,0,0,1,.815-1.1,8.84,8.84,0,0,1,5.921-2.621,3.177,3.177,0,0,1,1.412.136Z" transform="translate(-137.399 4.21)" fill="#455a64"/>
      <path id="Trazado_129081" data-name="Trazado 129081" d="M196.083,87.01a8.147,8.147,0,0,0-1.82,1.67,8.365,8.365,0,0,0-.951,2.349,1.523,1.523,0,0,1,0-.788,3.992,3.992,0,0,1,.693-1.779,4.17,4.17,0,0,1,1.358-1.276C195.771,87.01,196.069,86.915,196.083,87.01Z" transform="translate(-137.462 4.093)" fill="#455a64"/>
    </g>
  </g>
</svg>
