<svg xmlns="http://www.w3.org/2000/svg" xmlns:xlink="http://www.w3.org/1999/xlink" width="470.098" height="359.87" viewBox="0 0 470.098 359.87">
  <defs>
    <linearGradient id="linear-gradient" x1="0.57" y1="0.933" x2="0.212" y2="-1.046" gradientUnits="objectBoundingBox">
      <stop offset="0" stop-color="#444b8c"/>
      <stop offset="1" stop-color="#26264f"/>
    </linearGradient>
    <linearGradient id="linear-gradient-2" x1="-0.025" y1="0.67" x2="0.97" y2="0.67" gradientUnits="objectBoundingBox">
      <stop offset="0" stop-color="#ff9085"/>
      <stop offset="1" stop-color="#fb6fbb"/>
    </linearGradient>
    <linearGradient id="linear-gradient-3" x1="-0.031" y1="0.575" x2="0.962" y2="0.575" xlink:href="#linear-gradient-2"/>
    <clipPath id="clip-path">
      <path id="Trazado_128190" data-name="Trazado 128190" d="M265.1,458.63v13.7l35.914.438v-17.5c-9.524-4.46-14.879-4.072-18.023-2.849-3.535,1.376-5.581,4.311-11.47,5.637A24.655,24.655,0,0,1,265.1,458.63Z" transform="translate(-265.1 -451.609)" fill="none"/>
    </clipPath>
    <linearGradient id="linear-gradient-4" x1="-1.035" y1="-0.032" x2="3.178" y2="1.693" xlink:href="#linear-gradient-2"/>
    <linearGradient id="linear-gradient-5" x1="-1.653" y1="-0.018" x2="2.536" y2="1.139" xlink:href="#linear-gradient-2"/>
    <linearGradient id="linear-gradient-6" x1="-2.654" y1="-0.381" x2="1.559" y2="0.927" xlink:href="#linear-gradient-2"/>
    <clipPath id="clip-path-2">
      <path id="Trazado_128217" data-name="Trazado 128217" d="M727.14,661.061a14.337,14.337,0,0,1,8.357-2.63c2.517.086,3.316.945,6.052.663,2.782-.3,2.984-1.307,6.108-1.744a17.526,17.526,0,0,1,6,.265c3.558.783,3.7,2.016,5.893,1.96,2.026-.053,2.175-1.111,6.185-2.732a18.864,18.864,0,0,1,6-1.658c2.547-.182,2.729.5,5.969.5a26.081,26.081,0,0,0,5.863-.723c3.452-.766,3.9-4.643,6.228-4.958a14.031,14.031,0,0,1,6.2.663V670.38l-68.763.816Z" transform="translate(-727.14 -649.909)" fill="none"/>
    </clipPath>
    <linearGradient id="linear-gradient-7" x1="-0.013" y1="0.653" x2="0.982" y2="0.653" xlink:href="#linear-gradient-2"/>
    <linearGradient id="linear-gradient-8" x1="-33.571" y1="-9.569" x2="-32.472" y2="-9.569" gradientUnits="objectBoundingBox">
      <stop offset="0" stop-color="#40447e"/>
      <stop offset="1" stop-color="#3c3b6b"/>
    </linearGradient>
    <linearGradient id="linear-gradient-9" x1="43.146" y1="-14.514" x2="77.554" y2="12.026" gradientUnits="objectBoundingBox">
      <stop offset="0" stop-color="#ffc444"/>
      <stop offset="1" stop-color="#f36f56"/>
    </linearGradient>
    <linearGradient id="linear-gradient-10" x1="1.24" y1="-0.108" x2="2.508" y2="0.904" gradientUnits="objectBoundingBox">
      <stop offset="0" stop-color="#311944"/>
      <stop offset="1" stop-color="#6b3976"/>
    </linearGradient>
    <linearGradient id="linear-gradient-11" x1="2.734" y1="1.09" x2="6.228" y2="0.125" gradientUnits="objectBoundingBox">
      <stop offset="0" stop-color="#311944"/>
      <stop offset="1" stop-color="#893976"/>
    </linearGradient>
    <linearGradient id="linear-gradient-12" x1="6.806" y1="1.207" x2="10.17" y2="-0.964" xlink:href="#linear-gradient-9"/>
    <linearGradient id="linear-gradient-13" x1="10.81" y1="1.597" x2="10.933" y2="-0.009" xlink:href="#linear-gradient-9"/>
    <linearGradient id="linear-gradient-14" x1="-12.753" y1="1.553" x2="-13.56" y2="-0.274" xlink:href="#linear-gradient-10"/>
    <linearGradient id="linear-gradient-15" x1="5.335" y1="0.411" x2="5.299" y2="3.58" xlink:href="#linear-gradient-9"/>
    <linearGradient id="linear-gradient-16" x1="2.64" y1="0.378" x2="3.497" y2="0.378" xlink:href="#linear-gradient-8"/>
    <linearGradient id="linear-gradient-17" x1="-11.615" y1="2.841" x2="-10.622" y2="2.841" xlink:href="#linear-gradient-8"/>
    <linearGradient id="linear-gradient-18" x1="37.664" y1="-5.648" x2="100.841" y2="53.267" xlink:href="#linear-gradient-9"/>
    <linearGradient id="linear-gradient-19" x1="2.821" y1="0.223" x2="7.655" y2="-0.43" xlink:href="#linear-gradient-10"/>
    <linearGradient id="linear-gradient-20" x1="1.12" y1="0.954" x2="2.62" y2="0.046" xlink:href="#linear-gradient-11"/>
    <linearGradient id="linear-gradient-21" x1="1.977" y1="1.002" x2="3.18" y2="-0.466" xlink:href="#linear-gradient-10"/>
    <linearGradient id="linear-gradient-22" x1="0.673" y1="-0.014" x2="0.283" y2="1.22" gradientUnits="objectBoundingBox">
      <stop offset="0" stop-color="#ab316d"/>
      <stop offset="1" stop-color="#792d3d"/>
    </linearGradient>
    <linearGradient id="linear-gradient-23" x1="1.025" y1="-0.268" x2="-0.147" y2="1.709" xlink:href="#linear-gradient-22"/>
    <linearGradient id="linear-gradient-24" x1="1.623" y1="-3.07" x2="2.389" y2="-2.384" xlink:href="#linear-gradient-9"/>
    <linearGradient id="linear-gradient-25" x1="-53.303" y1="1.151" x2="-53.303" y2="-0.028" xlink:href="#linear-gradient-9"/>
    <linearGradient id="linear-gradient-26" x1="-67.49" y1="0.734" x2="-67.49" y2="-0.116" xlink:href="#linear-gradient-9"/>
    <linearGradient id="linear-gradient-27" x1="0.776" y1="1.101" x2="0.102" y2="-0.255" xlink:href="#linear-gradient"/>
    <linearGradient id="linear-gradient-28" x1="-8.104" y1="0.047" x2="-7.383" y2="0.677" xlink:href="#linear-gradient-11"/>
    <linearGradient id="linear-gradient-29" x1="1.209" y1="-0.55" x2="0.189" y2="1.006" gradientUnits="objectBoundingBox">
      <stop offset="0" stop-color="#e38ddd"/>
      <stop offset="1" stop-color="#9571f6"/>
    </linearGradient>
    <linearGradient id="linear-gradient-30" x1="-20.531" y1="0.292" x2="-21.278" y2="1.156" xlink:href="#linear-gradient-9"/>
    <linearGradient id="linear-gradient-31" x1="-18.309" y1="0.5" x2="-17.309" y2="0.5" xlink:href="#linear-gradient-10"/>
    <linearGradient id="linear-gradient-32" x1="-170.5" y1="-78.866" x2="-173.957" y2="-73.145" xlink:href="#linear-gradient-9"/>
    <linearGradient id="linear-gradient-33" x1="1.088" y1="-0.369" x2="-0.684" y2="2.005" xlink:href="#linear-gradient-29"/>
    <linearGradient id="linear-gradient-34" x1="-17.8" y1="-1.342" x2="-17.257" y2="1.115" xlink:href="#linear-gradient-29"/>
    <linearGradient id="linear-gradient-35" x1="0.16" y1="-1.13" x2="1.195" y2="3.498" xlink:href="#linear-gradient-9"/>
    <linearGradient id="linear-gradient-36" x1="2.043" y1="-0.943" x2="0.007" y2="1.086" xlink:href="#linear-gradient-29"/>
    <linearGradient id="linear-gradient-37" x1="0.975" y1="-0.415" x2="-0.384" y2="2.104" xlink:href="#linear-gradient-2"/>
    <linearGradient id="linear-gradient-38" x1="0.656" y1="-0.036" x2="0.223" y2="1.476" xlink:href="#linear-gradient-22"/>
    <linearGradient id="linear-gradient-39" x1="-1.282" y1="2.731" x2="1.197" y2="6.403" xlink:href="#linear-gradient-9"/>
    <linearGradient id="linear-gradient-40" x1="0.621" y1="1.108" x2="0.365" y2="-0.37" gradientUnits="objectBoundingBox">
      <stop offset="0" stop-color="#aa80f9"/>
      <stop offset="1" stop-color="#6165d7"/>
    </linearGradient>
    <linearGradient id="linear-gradient-41" x1="-71.617" y1="-1.519" x2="-71.617" y2="-2.669" xlink:href="#linear-gradient-9"/>
    <linearGradient id="linear-gradient-42" x1="-73.185" y1="0.734" x2="-73.185" y2="-0.116" xlink:href="#linear-gradient-9"/>
    <radialGradient id="radial-gradient" cx="0.159" cy="0.85" r="0.675" gradientTransform="translate(12.33) scale(2.186 1)" gradientUnits="objectBoundingBox">
      <stop offset="0" stop-color="#893976"/>
      <stop offset="0.26" stop-color="#863874"/>
      <stop offset="0.46" stop-color="#7c346f"/>
      <stop offset="0.64" stop-color="#6b2e65"/>
      <stop offset="0.81" stop-color="#542658"/>
      <stop offset="0.98" stop-color="#361b47"/>
      <stop offset="1" stop-color="#311944"/>
    </radialGradient>
    <linearGradient id="linear-gradient-43" x1="-83.012" y1="-43.496" x2="-83.705" y2="-42.577" xlink:href="#linear-gradient-9"/>
    <linearGradient id="linear-gradient-44" x1="0.005" y1="-0.446" x2="1.522" y2="1.996" xlink:href="#linear-gradient-40"/>
    <linearGradient id="linear-gradient-45" x1="-0.678" y1="-0.362" x2="0.852" y2="0.884" xlink:href="#linear-gradient-40"/>
    <linearGradient id="linear-gradient-46" x1="-27.455" y1="-5.174" x2="-27.963" y2="-4.417" xlink:href="#linear-gradient-9"/>
    <linearGradient id="linear-gradient-47" x1="-367.245" y1="-213.185" x2="-371.792" y2="-208.297" xlink:href="#linear-gradient-9"/>
    <linearGradient id="linear-gradient-48" x1="0" y1="0.502" x2="1" y2="0.502" xlink:href="#linear-gradient-29"/>
    <linearGradient id="linear-gradient-49" x1="-0.021" y1="-0.271" x2="0.727" y2="0.822" xlink:href="#linear-gradient"/>
    <linearGradient id="linear-gradient-50" x1="0" y1="0.5" x2="1" y2="0.5" xlink:href="#linear-gradient-11"/>
    <linearGradient id="linear-gradient-51" x1="0" y1="0.5" x2="1" y2="0.5" xlink:href="#linear-gradient-9"/>
    <linearGradient id="linear-gradient-52" x1="0.127" y1="1.079" x2="0.803" y2="-0.165" xlink:href="#linear-gradient-9"/>
    <linearGradient id="linear-gradient-53" x1="0.001" y1="0.5" x2="1.667" y2="0.5" xlink:href="#linear-gradient-9"/>
    <linearGradient id="linear-gradient-54" y1="0.5" x2="1" y2="0.5" gradientUnits="objectBoundingBox">
      <stop offset="0" stop-color="#6e1f3f"/>
      <stop offset="1" stop-color="#792d3d"/>
    </linearGradient>
    <linearGradient id="linear-gradient-55" x1="0" y1="0.5" x2="1" y2="0.5" xlink:href="#linear-gradient-8"/>
    <linearGradient id="linear-gradient-56" x1="-2.56" y1="1.145" x2="-1.627" y2="1.145" xlink:href="#linear-gradient-8"/>
    <linearGradient id="linear-gradient-57" x1="0.393" y1="0.321" x2="0.94" y2="1.57" xlink:href="#linear-gradient-9"/>
    <linearGradient id="linear-gradient-58" x1="0" y1="0.5" x2="0.999" y2="0.5" xlink:href="#linear-gradient-40"/>
    <linearGradient id="linear-gradient-59" x1="-11.232" y1="3.19" x2="-11.149" y2="1.547" xlink:href="#linear-gradient-9"/>
    <linearGradient id="linear-gradient-60" x1="-0.011" y1="0.066" x2="0.936" y2="0.798" xlink:href="#linear-gradient-22"/>
    <linearGradient id="linear-gradient-61" x1="0.655" y1="1.682" x2="1.931" y2="2.663" xlink:href="#linear-gradient-22"/>
    <linearGradient id="linear-gradient-62" x1="-22.108" y1="2.358" x2="-22.154" y2="5.287" xlink:href="#linear-gradient-9"/>
    <linearGradient id="linear-gradient-63" x1="2.83" y1="4.171" x2="6.705" y2="6.299" xlink:href="#linear-gradient-22"/>
    <linearGradient id="linear-gradient-64" x1="0" y1="0.501" x2="0.999" y2="0.501" xlink:href="#linear-gradient-11"/>
  </defs>
  <g id="analitica-2-01" transform="translate(-29.11 -93.713)">
    <g id="Illustration" transform="translate(29.11 93.713)">
      <path id="Trazado_128145" data-name="Trazado 128145" d="M486.192,1001.058a16.832,16.832,0,0,1-11.162-12.674l-8.29-41.064-70.965,2.52-8.735,42.778c-1.22,5.992,3.674,12,9.315,14.206l29.693,11.606a38.635,38.635,0,0,0,17.36,2.517l62.748-5.369a3.893,3.893,0,0,0,3.522-3.449c.212-1.85,1.5-3.926-.252-4.507Z" transform="translate(-268.22 -714.786)" fill="#97a6b7"/>
      <path id="Trazado_128146" data-name="Trazado 128146" d="M491.693,994.891a16.687,16.687,0,0,1-11.152-12.515l-8.29-40.546-69.241,2.49-8.725,42.241a12.359,12.359,0,0,0,7.647,14.021l29.663,11.474a39,39,0,0,0,17.34,2.484l62.675-5.306a3.87,3.87,0,0,0,.879-7.531Z" transform="translate(-273.018 -711.116)" fill="#c8cced"/>
      <path id="Trazado_128147" data-name="Trazado 128147" d="M361.117,450.082V265.961a7.256,7.256,0,0,0-6.924-7.143L37.875,246.1c-4.815-.192-8.765,3.134-8.765,7.395V456.97Z" transform="translate(-29.11 -246.096)" fill="url(#linear-gradient)"/>
      <path id="Trazado_128148" data-name="Trazado 128148" d="M58.61,353.81V512.755c0,3.979,3.668,7.11,8.138,6.984L366.953,511.2a6.718,6.718,0,0,0,6.51-6.632V362.827Z" transform="translate(-48.827 -318.091)" fill="#fff"/>
      <path id="Trazado_128149" data-name="Trazado 128149" d="M373.489,312.4V296.129a6.652,6.652,0,0,0-6.374-6.539L66.609,278.378c-4.377-.163-7.959,2.885-7.959,6.768v18.239Z" transform="translate(-48.854 -267.668)" fill="#f5ca56"/>
      <path id="Trazado_128150" data-name="Trazado 128150" d="M113.621,311.313a2.545,2.545,0,0,1-2.782,2.388,2.753,2.753,0,0,1-2.789-2.57,2.543,2.543,0,0,1,2.789-2.384A2.751,2.751,0,0,1,113.621,311.313Z" transform="translate(-81.873 -287.969)" fill="#9d3060"/>
      <path id="Trazado_128151" data-name="Trazado 128151" d="M149.9,312.53a2.516,2.516,0,0,1-2.749,2.371,2.731,2.731,0,0,1-2.759-2.55,2.526,2.526,0,0,1,2.759-2.374A2.724,2.724,0,0,1,149.9,312.53Z" transform="translate(-106.162 -288.792)" fill="#9d3060"/>
      <path id="Trazado_128152" data-name="Trazado 128152" d="M185.8,313.733a2.5,2.5,0,0,1-2.719,2.361,2.7,2.7,0,0,1-2.726-2.537,2.5,2.5,0,0,1,2.726-2.361A2.7,2.7,0,0,1,185.8,313.733Z" transform="translate(-130.197 -289.607)" fill="#9d3060"/>
      <path id="Trazado_128153" data-name="Trazado 128153" d="M789.634,474.369l-71.565-.259a3.416,3.416,0,0,1-3.469-3.316V420.343a3.316,3.316,0,0,1,3.469-3.23l71.565,1.774a3.346,3.346,0,0,1,3.276,3.3v48.976a3.233,3.233,0,0,1-3.276,3.207Z" transform="translate(-487.283 -360.399)" fill="#f4f7fa"/>
      <path id="Trazado_128154" data-name="Trazado 128154" d="M713.53,531.43v1.462l79,.8v-1.419Z" transform="translate(-486.568 -436.81)" fill="#fff"/>
      <path id="Trazado_128155" data-name="Trazado 128155" d="M761.3,552.481l-19.674-.143a.232.232,0,0,1-.232-.229v-2.464a.229.229,0,0,1,.232-.225l19.674.169a.226.226,0,0,1,.232.222v2.454a.222.222,0,0,1-.232.216Z" transform="translate(-505.189 -448.834)" fill="#c281e8"/>
      <path id="Trazado_128156" data-name="Trazado 128156" d="M785.123,569.287l-43.5-.229a.232.232,0,0,1-.232-.229v-2.464a.229.229,0,0,1,.232-.225l43.5.279a.229.229,0,0,1,.226.222v2.437A.219.219,0,0,1,785.123,569.287Z" transform="translate(-505.189 -460.01)" fill="#d8dee8"/>
      <path id="Trazado_128157" data-name="Trazado 128157" d="M744.664,466.147a1.038,1.038,0,0,1-.876-1.6c5.379-8.426,11.388-12.973,17.854-13.517,4.109-.332,7.209,1.055,10.2,2.411a22.433,22.433,0,0,0,8.954,2.54c6.612.2,13.516-3.648,20.464-11.454a1.039,1.039,0,1,1,1.552,1.383c-7.375,8.29-14.793,12.359-22.075,12.147-4-.116-6.931-1.443-9.766-2.723s-5.6-2.53-9.176-2.232c-5.787.484-11.275,4.712-16.276,12.561a1.031,1.031,0,0,1-.859.481Z" transform="translate(-506.683 -378.494)" fill="url(#linear-gradient-2)"/>
      <path id="Trazado_128158" data-name="Trazado 128158" d="M855.61,477.362a2.779,2.779,0,0,1-2.872,2.746,2.9,2.9,0,0,1-2.878-2.845,2.779,2.779,0,0,1,2.878-2.746A2.9,2.9,0,0,1,855.61,477.362Z" transform="translate(-577.69 -398.768)" fill="#fff"/>
      <path id="Trazado_128159" data-name="Trazado 128159" d="M851.725,479.583h-.06a3.429,3.429,0,0,1-3.4-3.372,3.217,3.217,0,0,1,.972-2.321,3.343,3.343,0,0,1,2.444-.962,3.429,3.429,0,0,1,3.389,3.372,3.227,3.227,0,0,1-.968,2.321A3.369,3.369,0,0,1,851.725,479.583Zm-.1-5.591a2.321,2.321,0,0,0-1.658.663,2.162,2.162,0,0,0-.663,1.559,2.368,2.368,0,0,0,2.358,2.321,2.3,2.3,0,0,0,1.685-.663,2.169,2.169,0,0,0,.663-1.555A2.368,2.368,0,0,0,851.652,474Z" transform="translate(-576.627 -397.706)" fill="#a67ff7"/>
      <path id="Trazado_128160" data-name="Trazado 128160" d="M768.226,436.923l-25.126-.537V432.27l25.126.574Z" transform="translate(-506.332 -370.533)" fill="#d8dee8"/>
      <path id="Trazado_128161" data-name="Trazado 128161" d="M881.085,495.973l-9.975-.146v-3.1l9.975.156Z" transform="translate(-591.893 -410.943)" fill="#c281e8"/>
      <path id="Trazado_128162" data-name="Trazado 128162" d="M202.559,672.195l-82.313,1.695a3.707,3.707,0,0,1-4-3.479V616.258a3.8,3.8,0,0,1,4-3.558l82.313.05a3.619,3.619,0,0,1,3.76,3.452V668.67A3.7,3.7,0,0,1,202.559,672.195Z" transform="translate(-87.353 -491.13)" fill="#f4f7fa"/>
      <path id="Trazado_128163" data-name="Trazado 128163" d="M205.573,729.47l-90.663,1.194v1.569l90.663-1.244Z" transform="translate(-86.458 -569.177)" fill="#fff"/>
      <path id="Trazado_128164" data-name="Trazado 128164" d="M219.305,648.462l-72.865.554v-17.37l72.865-.116Z" transform="translate(-107.532 -503.716)" fill="#d8dee8"/>
      <path id="Trazado_128165" data-name="Trazado 128165" d="M219.305,698.436l-72.865.8V693.1l72.865-.64Z" transform="translate(-107.532 -544.44)" fill="#d8dee8"/>
      <path id="Trazado_128166" data-name="Trazado 128166" d="M169.113,753.676l-22.994.378a.255.255,0,0,1-.269-.239v-2.653a.255.255,0,0,1,.269-.245l22.994-.348a.249.249,0,0,1,.269.235v2.626A.262.262,0,0,1,169.113,753.676Z" transform="translate(-107.138 -583.279)" fill="#d8dee8"/>
      <path id="Trazado_128167" data-name="Trazado 128167" d="M190.585,770.3l-44.456.816a.249.249,0,0,1-.269-.235V768.23a.262.262,0,0,1,.269-.249l44.456-.773a.246.246,0,0,1,.262.232v2.607a.255.255,0,0,1-.262.255Z" transform="translate(-107.144 -594.401)" fill="#d8dee8"/>
      <path id="Trazado_128168" data-name="Trazado 128168" d="M507.583,469.313l-76.639-.269a3.593,3.593,0,0,1-3.714-3.446V413.367a3.475,3.475,0,0,1,3.714-3.339l76.639,1.9a3.526,3.526,0,0,1,3.505,3.416V466a3.406,3.406,0,0,1-3.505,3.316Z" transform="translate(-295.209 -355.665)" fill="#f4f7fa"/>
      <path id="Trazado_128169" data-name="Trazado 128169" d="M511.258,529.279l-84.438-.9v1.512l84.438.852Z" transform="translate(-294.935 -434.771)" fill="#fff"/>
      <path id="Trazado_128170" data-name="Trazado 128170" d="M579.73,412.42v40.052l1.582.017V412.46Z" transform="translate(-397.138 -357.265)" fill="#fff"/>
      <path id="Trazado_128171" data-name="Trazado 128171" d="M487.328,550.256l-29.766-.219a.245.245,0,0,1-.252-.235v-2.553a.239.239,0,0,1,.252-.229l29.766.252a.239.239,0,0,1,.245.232v2.524a.235.235,0,0,1-.245.229Z" transform="translate(-315.314 -447.229)" fill="#c281e8"/>
      <path id="Trazado_128172" data-name="Trazado 128172" d="M495.3,567.516l-37.734-.2a.242.242,0,0,1-.252-.232v-2.55a.242.242,0,0,1,.252-.232l37.734.242a.239.239,0,0,1,.245.232v2.517A.239.239,0,0,1,495.3,567.516Z" transform="translate(-315.314 -458.779)" fill="#d8dee8"/>
      <path id="Trazado_128173" data-name="Trazado 128173" d="M620.494,437.927l-22.994-.458V428.93l22.994.527Z" transform="translate(-409.015 -368.3)" fill="#d8dee8"/>
      <path id="Trazado_128174" data-name="Trazado 128174" d="M620.494,482.857l-22.994-.282V465.65l22.994.428Z" transform="translate(-409.015 -392.843)" fill="#d8dee8"/>
      <path id="Trazado_128175" data-name="Trazado 128175" d="M502.28,438.423a6.41,6.41,0,0,1,6.466,6.148,5.55,5.55,0,0,1-.639,2.586l7.547,3.417a12.767,12.767,0,0,0,1.409-5.856c0-7.591-6.616-13.928-14.79-14.1h-.063v7.806Z" transform="translate(-345.324 -369.43)" fill="#fff"/>
      <path id="Trazado_128176" data-name="Trazado 128176" d="M478.119,447.152a6.6,6.6,0,0,1-12.326-2.815,6.116,6.116,0,0,1,6.437-5.916v-7.806c-8.194-.153-14.889,5.926-14.889,13.576s6.728,14,14.952,14.1a14.678,14.678,0,0,0,13.374-7.72Z" transform="translate(-315.334 -369.424)" fill="url(#linear-gradient-3)"/>
      <path id="Trazado_128177" data-name="Trazado 128177" d="M206.319,460.4a3.6,3.6,0,0,1-3.76,3.435l-82.313-.3a3.809,3.809,0,0,1-4-3.571V405.816a3.684,3.684,0,0,1,4-3.459l82.313,2.036a3.725,3.725,0,0,1,3.76,3.542Z" transform="translate(-87.353 -350.538)" fill="#f4f7fa"/>
      <path id="Trazado_128178" data-name="Trazado 128178" d="M205.573,526.018l-90.663-.968v1.572l90.663.915Z" transform="translate(-86.458 -432.545)" fill="#fff"/>
      <path id="Trazado_128179" data-name="Trazado 128179" d="M246.73,404.13V445.8l1.711.02V404.173Z" transform="translate(-174.565 -351.724)" fill="#fff"/>
      <path id="Trazado_128180" data-name="Trazado 128180" d="M172.007,438.845l-25.567-.411V418.58l25.567.587Z" transform="translate(-107.532 -361.382)" fill="#d8dee8"/>
      <path id="Trazado_128181" data-name="Trazado 128181" d="M172.007,497.339l-25.567-.312V490.02l25.567.375Z" transform="translate(-107.532 -409.132)" fill="#d8dee8"/>
      <path id="Trazado_128182" data-name="Trazado 128182" d="M158.71,547.6l-12.581-.093a.255.255,0,0,1-.269-.242v-2.653a.255.255,0,0,1,.269-.239l12.581.106a.259.259,0,0,1,.265.242v2.653A.252.252,0,0,1,158.71,547.6Z" transform="translate(-107.144 -445.458)" fill="#c281e8"/>
      <path id="Trazado_128183" data-name="Trazado 128183" d="M196.182,565.718l-50.073-.265a.259.259,0,0,1-.269-.242v-2.653a.255.255,0,0,1,.269-.239l50.073.332a.249.249,0,0,1,.262.235v2.6A.249.249,0,0,1,196.182,565.718Z" transform="translate(-107.131 -457.456)" fill="#d8dee8"/>
      <path id="Trazado_128184" data-name="Trazado 128184" d="M280.806,451.342l-7.176-.09V421.5l7.176.166Z" transform="translate(-192.544 -363.334)" fill="#fff"/>
      <path id="Trazado_128185" data-name="Trazado 128185" d="M316.933,452.046l-7.113-.09V422.33l7.113.162Z" transform="translate(-216.733 -363.889)" fill="#fff"/>
      <path id="Trazado_128186" data-name="Trazado 128186" d="M352.753,452.743l-7.053-.09v-29.5l7.053.162Z" transform="translate(-240.715 -364.437)" fill="#fff"/>
      <g id="Grupo_55751" data-name="Grupo 55751" transform="translate(78.257 68.151)" clip-path="url(#clip-path)">
        <path id="Trazado_128187" data-name="Trazado 128187" d="M280.806,480.169l-7.176-.09V464.63l7.176.126Z" transform="translate(-270.801 -460.312)" fill="url(#linear-gradient-4)"/>
        <path id="Trazado_128188" data-name="Trazado 128188" d="M316.933,465.9l-7.113-.09V443.06l7.113.146Z" transform="translate(-294.99 -445.895)" fill="url(#linear-gradient-5)"/>
        <path id="Trazado_128189" data-name="Trazado 128189" d="M352.753,471.8l-7.053-.09V451.66l7.053.139Z" transform="translate(-318.972 -451.643)" fill="url(#linear-gradient-6)"/>
      </g>
      <path id="Trazado_128191" data-name="Trazado 128191" d="M789.634,668.587l-71.565,1.489a3.316,3.316,0,0,1-3.469-3.243V616.374a3.4,3.4,0,0,1,3.469-3.316l71.565.043a3.25,3.25,0,0,1,3.276,3.22V665.3A3.316,3.316,0,0,1,789.634,668.587Z" transform="translate(-487.283 -491.369)" fill="#f4f7fa"/>
      <path id="Trazado_128192" data-name="Trazado 128192" d="M713.53,723.081v1.462l79-1.084V722.04Z" transform="translate(-486.568 -564.211)" fill="#fff"/>
      <path id="Trazado_128193" data-name="Trazado 128193" d="M755.023,744.771l-13.4.222a.226.226,0,0,1-.232-.222V742.3a.235.235,0,0,1,.232-.229l13.4-.206a.226.226,0,0,1,.232.222v2.454a.232.232,0,0,1-.232.226Z" transform="translate(-505.189 -577.465)" fill="#c281e8"/>
      <path id="Trazado_128194" data-name="Trazado 128194" d="M769.07,760.655l-27.448.507a.222.222,0,0,1-.232-.219v-2.467a.236.236,0,0,1,.232-.229l27.448-.477a.222.222,0,0,1,.229.219v2.441A.229.229,0,0,1,769.07,760.655Z" transform="translate(-505.189 -588.093)" fill="#d8dee8"/>
      <path id="Trazado_128195" data-name="Trazado 128195" d="M741.219,658.105l-4.139.046V632.807l4.139-.007Z" transform="translate(-502.309 -504.564)" fill="#fff"/>
      <path id="Trazado_128196" data-name="Trazado 128196" d="M759.749,658.009l-4.119.046V632.767l4.119-.007Z" transform="translate(-514.707 -504.538)" fill="#fff"/>
      <path id="Trazado_128197" data-name="Trazado 128197" d="M778.2,657.923l-4.1.043V632.737l4.1-.007Z" transform="translate(-527.052 -504.517)" fill="#fff"/>
      <path id="Trazado_128198" data-name="Trazado 128198" d="M796.569,657.833l-4.079.046V632.707l4.079-.007Z" transform="translate(-539.344 -504.497)" fill="#fff"/>
      <path id="Trazado_128199" data-name="Trazado 128199" d="M814.842,657.737l-4.062.046V632.667l4.062-.007Z" transform="translate(-551.569 -504.471)" fill="#fff"/>
      <path id="Trazado_128200" data-name="Trazado 128200" d="M833.042,657.65,829,657.7v-25.06l4.042-.007Z" transform="translate(-563.747 -504.451)" fill="#fff"/>
      <path id="Trazado_128201" data-name="Trazado 128201" d="M851.156,657.564l-4.026.043v-25l4.026-.007Z" transform="translate(-575.865 -504.431)" fill="#fff"/>
      <path id="Trazado_128202" data-name="Trazado 128202" d="M869.2,657.467l-4.006.046V632.57l4.006-.01Z" transform="translate(-587.936 -504.404)" fill="#fff"/>
      <path id="Trazado_128203" data-name="Trazado 128203" d="M887.146,657.381l-3.986.046V632.537l3.986-.007Z" transform="translate(-599.947 -504.384)" fill="#fff"/>
      <path id="Trazado_128204" data-name="Trazado 128204" d="M905.019,657.295l-3.969.046V632.507l3.969-.007Z" transform="translate(-611.904 -504.364)" fill="#fff"/>
      <path id="Trazado_128205" data-name="Trazado 128205" d="M922.813,657.208l-3.953.046V632.477l3.953-.007Z" transform="translate(-623.808 -504.344)" fill="#fff"/>
      <g id="Grupo_55752" data-name="Grupo 55752" transform="translate(231.475 133.909)" clip-path="url(#clip-path-2)">
        <path id="Trazado_128206" data-name="Trazado 128206" d="M741.219,682.622l-4.139.046V669.507l4.139-.027Z" transform="translate(-733.784 -662.99)" fill="#ffc244"/>
        <path id="Trazado_128207" data-name="Trazado 128207" d="M759.749,669.819l-4.119.046V650.447l4.119-.017Z" transform="translate(-746.182 -650.257)" fill="#ffc244"/>
        <path id="Trazado_128208" data-name="Trazado 128208" d="M778.2,674.191l-4.1.043V657.09l4.1-.02Z" transform="translate(-758.528 -654.695)" fill="#ffc244"/>
        <path id="Trazado_128209" data-name="Trazado 128209" d="M796.569,673.68l-4.079.046v-17.3l4.079-.02Z" transform="translate(-770.819 -654.254)" fill="#ffc244"/>
        <path id="Trazado_128210" data-name="Trazado 128210" d="M814.842,669.467l-4.062.046V650.227l4.062-.017Z" transform="translate(-783.044 -650.11)" fill="#ffc244"/>
        <path id="Trazado_128211" data-name="Trazado 128211" d="M833.042,673.812l-4.042.046V656.83l4.042-.02Z" transform="translate(-795.222 -654.521)" fill="#ffc244"/>
        <path id="Trazado_128212" data-name="Trazado 128212" d="M851.156,670.838l-4.026.043v-18.4l4.026-.017Z" transform="translate(-807.34 -651.614)" fill="#ffc244"/>
        <path id="Trazado_128213" data-name="Trazado 128213" d="M869.2,674.411l-4.006.047V657.93l4.006-.02Z" transform="translate(-819.411 -655.257)" fill="#ffc244"/>
        <path id="Trazado_128214" data-name="Trazado 128214" d="M887.146,673.429l-3.986.047V656.56l3.986-.02Z" transform="translate(-831.422 -654.341)" fill="#ffc244"/>
        <path id="Trazado_128215" data-name="Trazado 128215" d="M905.019,668.891l-3.969.047V649.867l3.969-.017Z" transform="translate(-843.379 -649.869)" fill="#ffc244"/>
        <path id="Trazado_128216" data-name="Trazado 128216" d="M922.813,664.066l-3.953.053V642.76l3.953-.02Z" transform="translate(-855.283 -645.117)" fill="#ffc244"/>
      </g>
      <path id="Trazado_128218" data-name="Trazado 128218" d="M507.583,670.325,430.944,671.9a3.494,3.494,0,0,1-3.714-3.356V616.319a3.577,3.577,0,0,1,3.714-3.429l76.639.046a3.426,3.426,0,0,1,3.505,3.333v50.657A3.5,3.5,0,0,1,507.583,670.325Z" transform="translate(-295.209 -491.257)" fill="#f4f7fa"/>
      <path id="Trazado_128219" data-name="Trazado 128219" d="M511.258,725.6l-84.438,1.114v1.512l84.438-1.157Z" transform="translate(-294.935 -566.591)" fill="#fff"/>
      <path id="Trazado_128220" data-name="Trazado 128220" d="M482.884,748.7l-25.322.431a.242.242,0,0,1-.252-.229v-2.553a.249.249,0,0,1,.252-.239l25.322-.388a.235.235,0,0,1,.245.225v2.52A.242.242,0,0,1,482.884,748.7Z" transform="translate(-315.314 -580.038)" fill="#c281e8"/>
      <path id="Trazado_128221" data-name="Trazado 128221" d="M503.321,764.727l-45.729.846a.239.239,0,0,1-.252-.229v-2.553a.249.249,0,0,1,.252-.235l45.729-.8a.229.229,0,0,1,.242.222v2.51A.242.242,0,0,1,503.321,764.727Z" transform="translate(-315.334 -590.759)" fill="#d8dee8"/>
      <path id="Trazado_128222" data-name="Trazado 128222" d="M449.162,656.4a1.015,1.015,0,0,1-.494-.126,1.038,1.038,0,0,1-.421-1.409c2.882-5.306,6.128-8.187,9.657-8.549a9.263,9.263,0,0,1,5.355,1.326A8.836,8.836,0,0,0,468.5,648.9a6.433,6.433,0,0,0,3.518-1.522,12.346,12.346,0,0,1,4.812-2.321,11.751,11.751,0,0,1,6.125.07,21.362,21.362,0,0,0,5.074.567,17.313,17.313,0,0,0,7.017-1.5,36.259,36.259,0,0,1,6.171-1.864,40.681,40.681,0,0,1,15.135-.056,1.041,1.041,0,0,1-.358,2.049,38.527,38.527,0,0,0-14.362.046,34.035,34.035,0,0,0-5.846,1.767,19.476,19.476,0,0,1-7.74,1.632,23.262,23.262,0,0,1-5.508-.61,10.161,10.161,0,0,0-5.21-.086,10.379,10.379,0,0,0-4.089,1.99,8.58,8.58,0,0,1-4.52,1.907,10.82,10.82,0,0,1-6.37-1.462,7.477,7.477,0,0,0-4.228-1.124c-2.8.288-5.508,2.8-8.042,7.475A1.031,1.031,0,0,1,449.162,656.4Z" transform="translate(-309.172 -510.441)" fill="url(#linear-gradient-7)"/>
      <path id="Trazado_128223" data-name="Trazado 128223" d="M601.571,686.367l-26.171.285V676.263l26.171-.182Z" transform="translate(-394.244 -533.492)" fill="#d8dee8"/>
      <path id="Trazado_128224" data-name="Trazado 128224" d="M471.088,632.9l-13.6.036a.245.245,0,0,1-.252-.232v-2.553a.245.245,0,0,1,.252-.235h13.6a.242.242,0,0,1,.249.229v2.54A.242.242,0,0,1,471.088,632.9Z" transform="translate(-315.267 -502.639)" fill="#d8dee8"/>
      <path id="Trazado_128225" data-name="Trazado 128225" d="M29.11,865.738v40.636c0,4.261,3.95,7.577,8.765,7.375l316.318-13.374a7.276,7.276,0,0,0,6.924-7.156V857.67Z" transform="translate(-29.11 -654.865)" fill="#ebecff"/>
      <g id="Grupo_55758" data-name="Grupo 55758" transform="translate(199.667 221.89)">
        <path id="Trazado_128226" data-name="Trazado 128226" d="M587.452,333.558c-.517-1.1-.773-5.193,2.039-5.127s4.566-.434,9.037-2.159,4.606,1.015-1.9,4.059S588.191,335.11,587.452,333.558Z" transform="translate(-505.014 -225.106)" fill="url(#linear-gradient-8)"/>
        <path id="Trazado_128227" data-name="Trazado 128227" d="M583,326.264l1.532,2.524a1.4,1.4,0,0,0,1.545.623.905.905,0,0,0,.537-1.353l-2.258-3.648Z" transform="translate(-502.257 -224.218)" fill="url(#linear-gradient-9)"/>
        <path id="Trazado_128228" data-name="Trazado 128228" d="M404.834,210.463c-4.785,2.092-.378,15.334,13.218,15.8,16.474.57,35.121,8.569,44.768,23.246.965-.431,3.16-.889,2.583-2.023-7.959-15.566-16.667-25.813-25.083-30.488C427.583,209.929,418.46,204.5,404.834,210.463Z" transform="translate(-381.924 -146.35)" fill="url(#linear-gradient-10)"/>
        <g id="Grupo_55753" data-name="Grupo 55753" transform="translate(21.028 61.559)" opacity="0.24">
          <path id="Trazado_128229" data-name="Trazado 128229" d="M447.29,228.884c1.791,1.973,3.081-.474,4.755-1.821A44.954,44.954,0,0,0,440.277,217c-12.721-7.07-21.843-12.5-35.483-6.536-4.785,2.092-.378,15.334,13.218,15.8a61.267,61.267,0,0,1,15.032,2.49C437.856,227.5,442.96,222.772,447.29,228.884Z" transform="translate(-402.926 -207.909)" fill="#552d63"/>
        </g>
        <path id="Trazado_128230" data-name="Trazado 128230" d="M381.413,219.417l-.995-.365s-3.343-5.856-3.85-7.335c-.617-1.8,12.741-1.658,18.239-5.283,5.777-3.8-1.054,6.354-1.054,6.354Z" transform="translate(-364.267 -144.795)" fill="url(#linear-gradient-11)"/>
        <path id="Trazado_128231" data-name="Trazado 128231" d="M421.64,104.07s4.225,1.99,6.344,12.12c1.6,7.611,7.8,15.46,7.8,15.46l-.8,5.336-6.931-.925-1.857-2.288-2.086-15.645Z" transform="translate(-394.406 -76.945)" fill="#26aab7"/>
        <path id="Trazado_128232" data-name="Trazado 128232" d="M361.538,93.968s-11.308-2.109-15.509,10.34c-3.88,11.49-1.128,17.287,6.049,30.177.723,1.293,2.391,1.824,2.471,1.99q.643,1.436,1.273,2.984a54.888,54.888,0,0,1,23.213-5.591s-3.29-22.778-5.409-30.658C371.437,95.1,364.546,94.18,361.538,93.968Z" transform="translate(-342.69 -70.103)" fill="#26aab7"/>
        <g id="Grupo_55754" data-name="Grupo 55754" transform="translate(1.593 31.926)" opacity="0.29">
          <path id="Trazado_128233" data-name="Trazado 128233" d="M370.409,145.384c-5.372.995-11.8-1.326-13.225-5.137-1.078-2.865-1.1-3.81-2.156-8.1-.849-3.452-1.562-4.188-4.643-7.849A20.276,20.276,0,0,1,347,118.55a20.479,20.479,0,0,0-.922,2.278c-3.88,11.49-1.127,17.287,6.049,30.177.723,1.293,2.391,1.824,2.47,1.99q.643,1.436,1.273,2.985a54.888,54.888,0,0,1,23.213-5.591s-.6-3.608-1.327-8.642A12.976,12.976,0,0,1,370.409,145.384Z" transform="translate(-344.316 -118.55)" fill="#0d585f"/>
        </g>
        <path id="Trazado_128234" data-name="Trazado 128234" d="M400,185.729a10.522,10.522,0,0,0,3.684.623,8.34,8.34,0,0,1,3.316.02c1.7.312,5.24.361,3.94-1.88-1.449-2.494-5.1-3.081-6.49-2.169a8.3,8.3,0,0,1-3.253,1.1Z" transform="translate(-379.942 -128.978)" fill="url(#linear-gradient-12)"/>
        <path id="Trazado_128235" data-name="Trazado 128235" d="M348.552,105.553s-6.267-1.214-8.907,19.369c-1.37,10.675,8.121,12.117,20.361,11.407,1.23-1.326,1.326-4.891,1.326-4.891s-15.337,1.293-13.1-6.964C350.727,115.189,352.385,105.692,348.552,105.553Z" transform="translate(-339.513 -77.927)" fill="#26aab7"/>
        <path id="Trazado_128236" data-name="Trazado 128236" d="M391.813,101.564h-.259c-3.137-.2-5.78-3.79-5.893-3.943a.153.153,0,0,1,.249-.179c.027.036,2.653,3.648,5.664,3.817a2.3,2.3,0,0,0,1.89-.61,3.4,3.4,0,0,0,.68-2.408.153.153,0,1,1,.305-.033,3.719,3.719,0,0,1-.759,2.653A2.484,2.484,0,0,1,391.813,101.564Z" transform="translate(-370.339 -72.473)" fill="#9f73f8"/>
        <path id="Trazado_128237" data-name="Trazado 128237" d="M376.928,210.987a.153.153,0,0,1-.073-.282c.126-.056,12.634-5.7,22.132-5.057a.153.153,0,0,1-.02.305c-9.411-.633-21.86,4.974-21.986,5.031A.135.135,0,0,1,376.928,210.987Z" transform="translate(-364.424 -144.805)" fill="#ae87f9"/>
        <path id="Trazado_128238" data-name="Trazado 128238" d="M390.57,65.36S390.089,72.8,389.3,74.1s.743,3.475,4.231,4.755,1.864-7.206,1.864-7.206Z" transform="translate(-372.657 -51.072)" fill="url(#linear-gradient-13)"/>
        <path id="Trazado_128239" data-name="Trazado 128239" d="M401.023,37.271c4.974-1.807,6.682-13.6,4.215-14.9-1.416-.743-2.7,2.776-7.959,4.125-4.089,1.051-6.689-.212-8.433,1.834a6.142,6.142,0,0,0-1.3,3.84,15.045,15.045,0,0,0,.647,3.439c.418,1.615.371,1.549.507,2.023a21.589,21.589,0,0,0,2.709,5.73,15.1,15.1,0,0,1,1.549-2.106,13.13,13.13,0,0,1,2.537-2.238C397.789,37.543,399.593,37.788,401.023,37.271Z" transform="translate(-371.62 -22.273)" fill="url(#linear-gradient-14)"/>
        <path id="Trazado_128240" data-name="Trazado 128240" d="M388.212,63.458a8.143,8.143,0,0,0,5.72,5.637c4.155,1.041,7.683-7.892,5.707-10.665a5.43,5.43,0,0,0-3.85-1.811c-.912-.033-1.3.222-2.789.139-1.37-.08-1.681-.332-2.165-.136-.607.249-1.273,1.121-1.326,4.046a2.325,2.325,0,0,0-2.119-1.535,1.452,1.452,0,0,0-.713.355C385.768,60.347,386.292,62.005,388.212,63.458Z" transform="translate(-370.747 -45.184)" fill="url(#linear-gradient-15)"/>
        <path id="Trazado_128241" data-name="Trazado 128241" d="M401,202.68a.269.269,0,0,0-.272.109s-.126.521-.133.534a.265.265,0,0,0,.09.312l8.29,5.939,19.439-1.293-8.416-1.99Z" transform="translate(-380.325 -142.852)" fill="#26264f"/>
        <path id="Trazado_128242" data-name="Trazado 128242" d="M401.3,202.473a.265.265,0,0,0-.285.156.269.269,0,0,0,.09.312l8.29,5.939,19.459-1.293-8.416-1.99Z" transform="translate(-380.607 -142.714)" fill="#444b8c"/>
        <path id="Trazado_128243" data-name="Trazado 128243" d="M425.25,184.693l7.1-17.605a.663.663,0,0,1,.706-.4L454.79,170a.643.643,0,0,1,.468.312.664.664,0,0,1,.05.56L449.2,187.455a.663.663,0,0,1-.7.424l-22.778-2.835Z" transform="translate(-396.818 -118.793)" fill="url(#linear-gradient-16)"/>
        <path id="Trazado_128244" data-name="Trazado 128244" d="M425.94,186.382l7.262-17.99a.663.663,0,0,1,.716-.408l21.737,3.316a.663.663,0,0,1,.517.875l-6.108,16.581a.663.663,0,0,1-.693.424Z" transform="translate(-397.279 -119.66)" fill="#26264f"/>
        <path id="Trazado_128245" data-name="Trazado 128245" d="M425.94,215.326l23.425,2.8a.663.663,0,0,0,.693-.424l1.844-5c-7.766,1.658-16.166-.484-24.33-1.423Z" transform="translate(-397.279 -148.603)" fill="#1f1f44"/>
        <path id="Trazado_128246" data-name="Trazado 128246" d="M542.4,242.578c.03-1.144-.269-2.514,2.381-2.606,1.927-.066,4.994.69,7.77,1.416,3.89,1.015,4.042,3.585-2.013,3.27C546.578,244.452,542.356,244.207,542.4,242.578Z" transform="translate(-475.12 -167.778)" fill="url(#linear-gradient-17)"/>
        <path id="Trazado_128247" data-name="Trazado 128247" d="M548.893,243.009a1.071,1.071,0,0,1-1.18.856c-1.184-.2-.786-.713-.637-1.326s-.179-1.151,1.18-.856A1.048,1.048,0,0,1,548.893,243.009Z" transform="translate(-478.122 -168.868)" fill="url(#linear-gradient-18)"/>
        <path id="Trazado_128248" data-name="Trazado 128248" d="M515.97,224.56l1.174.179a60.325,60.325,0,0,1,7.591,4.45c1.217.62,1.781,4.924-2.029,3.88s-9.285.305-9.285.305Z" transform="translate(-455.751 -157.48)" fill="url(#linear-gradient-19)"/>
        <path id="Trazado_128249" data-name="Trazado 128249" d="M418.819,222.145c-7.524.925-18.239-.551-20.414-.889-2.8-.428-11.772,3.6-11.868,6.138,0,0-.822,3.91,7.654,7.027l20.829,1.512c7.276-1.734,18.312-5.77,19.194-8.758C436.036,220.971,427.736,221.048,418.819,222.145Z" transform="translate(-370.929 -155.251)" fill="url(#linear-gradient-20)"/>
        <g id="Grupo_55755" data-name="Grupo 55755" transform="translate(23.623 64.911)" opacity="0.2">
          <path id="Trazado_128250" data-name="Trazado 128250" d="M419.471,223.843c5.405,1.127,7.773-2.258,14.634-1.28,4.447.633,5.541,2.354,8.151,1.6a8.231,8.231,0,0,0,4.643-4.334c-2.965-.663-7.345-.381-11.895.176-7.3.9-17.619-.468-20.205-.856-.076,0-1.539-1.124-1.539-1.124s-1.452.312-2.51.587A20.152,20.152,0,0,0,419.471,223.843Z" transform="translate(-410.75 -218.02)" fill="url(#linear-gradient-21)"/>
        </g>
      </g>
      <g id="Grupo_55757" data-name="Grupo 55757" transform="translate(12.962 187.649)">
        <path id="Trazado_128251" data-name="Trazado 128251" d="M579.572,898.867l-.962-1.121.842-1.744a1,1,0,0,1,1.031-.55,19.824,19.824,0,0,1,13.6,8.512,1,1,0,0,1-.043,1.134A13.739,13.739,0,0,1,593,906.285Z" transform="translate(-545.465 -895.442)" fill="url(#linear-gradient-22)"/>
        <path id="Trazado_128252" data-name="Trazado 128252" d="M574.168,960.13l2.285,3.979a7.713,7.713,0,0,0,.849,1.622,3.89,3.89,0,0,1-1.363,1.545l-4.129-3.94,2.212-3.17Z" transform="translate(-540.919 -938.68)" fill="url(#linear-gradient-23)"/>
        <path id="Trazado_128253" data-name="Trazado 128253" d="M582.963,967.953l-.663-2.931a5.4,5.4,0,0,0-3.926-3.107c-3.038-.663-3.144.995-3.144.995l1.953.763a4.017,4.017,0,0,1,1.99,2.437,10.775,10.775,0,0,0,2.265,3Z" transform="translate(-543.205 -939.767)" fill="url(#linear-gradient-24)"/>
        <path id="Trazado_128254" data-name="Trazado 128254" d="M504.009,1356.911s-2.1,5.306-1.552,7.627a24.014,24.014,0,0,1-3.717-.332,25.494,25.494,0,0,0,1.084-3.608,35.687,35.687,0,0,0,.222-4.228Z" transform="translate(-492.081 -1203.521)" fill="url(#linear-gradient-25)"/>
        <path id="Trazado_128255" data-name="Trazado 128255" d="M583.715,1395.233a1.659,1.659,0,0,0-.4.972,1.528,1.528,0,0,0,.119.663c.358.945.922,1.068,1.529,2.069.371.61.3.8.64,1.071a2.235,2.235,0,0,0,1.462.391,25.723,25.723,0,0,0,3.376-.192q-1.127-1.459-2.411-2.958c-.375-.434-.746-.862-1.121-1.28l-2.218-.75Z" transform="translate(-548.609 -1229.488)" fill="#26264f"/>
        <path id="Trazado_128256" data-name="Trazado 128256" d="M588.45,1362.78s1.267,6.632-.332,8.469c-1.376,1.85.663.531.663.531l2.434,2.126,1.459,2.52s-1.326-6.476-.995-9.043.537-4.311.537-4.311Z" transform="translate(-551.501 -1207.805)" fill="url(#linear-gradient-26)"/>
        <path id="Trazado_128258" data-name="Trazado 128258" d="M534.847,1141.886s3.406,3.047,3.406,15.586-1.615,39.794-1.615,39.794l-2.58,19.512a17.071,17.071,0,0,1-4.47-.441c-1.615-7.352-4.245-19.787-2.984-30.177.537-11.295-4.484-25.461-4.484-25.461s-4.311,14.346-7.352,21.515-8.851,29.643-9.388,31.254c-3.568.332-5.09-.62-5.09-.62s2.285-24.178,4.437-33.324,1.99-31.2,5.558-37.472C518.35,1138.839,534.847,1141.886,534.847,1141.886Z" transform="translate(-493.116 -1059.29)" fill="url(#linear-gradient-27)"/>
        <path id="Trazado_128259" data-name="Trazado 128259" d="M517.149,1164.891c-1.061,6.9-3.187,10.612-8.5,15.4-4.248,3.187-1.061,10.091-2.653,15.4-.534,1.592-2.126,3.187-2.653,4.779-1.99,3.953-.133,8.788-1.028,12.973a5.688,5.688,0,0,1-2.026-.58s2.285-24.178,4.437-33.324,1.99-31.2,5.558-37.472c8.068-3.227,24.566-.179,24.566-.179s3.406,3.047,3.406,15.586c0,1.018,0,2.135-.03,3.316-3.538,3.13-10.771,3.827-15.231.358a2.1,2.1,0,0,0-.852-.388l-.023-.066a.146.146,0,0,1-.02.063C520.067,1160.411,517.61,1163.047,517.149,1164.891Z" transform="translate(-493.116 -1059.297)" opacity="0.25" fill="url(#linear-gradient-28)"/>
        <path id="Trazado_128260" data-name="Trazado 128260" d="M501.314,1387s.524,0,.481.663.235,3-2.427,3.114a8.118,8.118,0,0,1-3.16-.189,22.027,22.027,0,0,1,.7-2.225l.852-1.091,2.291-.242Z" transform="translate(-490.383 -1223.994)" fill="#26264f"/>
        <path id="Trazado_128261" data-name="Trazado 128261" d="M493.787,1381.467a8.4,8.4,0,0,1,.69-2.162c.468-1.058.083-1.453.534-2.417a2.853,2.853,0,0,1,.633-.962,2.768,2.768,0,0,1,1.88-.716,1.884,1.884,0,0,1,.885.209,2.046,2.046,0,0,1,.8.839,9.3,9.3,0,0,1,.643,1.9,4.639,4.639,0,0,1,.239,1.23c-.7,0-3.386.109-3.953.524a2.228,2.228,0,0,0-.852,1.811c0,.7-.348,1.028-.7.995A1.144,1.144,0,0,1,493.787,1381.467Z" transform="translate(-488.762 -1216.114)" fill="#444b8c"/>
        <path id="Trazado_128262" data-name="Trazado 128262" d="M586.423,1385.51c-.6,0-1.041.487-1.373,1.638s-1.927,2.169-.066,1.927,3.207,2.391,3.873,3.363,2.444,1.84,2.4.889-.832-1.4-1.051-2.371S587.79,1385.49,586.423,1385.51Z" transform="translate(-549.133 -1222.998)" fill="#444b8c"/>
        <path id="Trazado_128263" data-name="Trazado 128263" d="M519.783,1014.963c3.011-.089,10.668-.925,14.259,2.653,3.648,3.648-.046,8.055.613,14.09.448,4.089.285,6.5,1.065,13.188a40.582,40.582,0,0,0,.849,4.742c1.021,4.357,2.8,12.933,3.757,15.072a35.656,35.656,0,0,1-20.381,2.985,31.834,31.834,0,0,1-10.161-3.346c2.444-7.4,1.99-17.529,1.084-21.177-1.787-7.2-2.189-10.028-7.236-20.384-1.389-2.858,1.913-1.257,4.029-3.764C510.9,1015.209,516.745,1015.053,519.783,1014.963Z" transform="translate(-495.129 -975.23)" fill="url(#linear-gradient-29)"/>
        <path id="Trazado_128264" data-name="Trazado 128264" d="M541.591,971.406a9.643,9.643,0,0,0-3.674-5.969c-2.427-1.93-2.922-2.126-3.757-2.285l-1.137-.172H532.9a11.512,11.512,0,0,0-3.028,1.074c-1.161.816-.308,6.6,3.213,13.788.136.607.275,1.217.414,1.824-3.067.541-3.827,1.094-3.85,1.535-.053.958,3.316,2.179,6.417,2.258,3.9.1,8.045-1.582,7.959-2.835-.03-.5-.766-1.131-3.6-1.744l-1.326-1.87C539.5,976.523,541.912,973.884,541.591,971.406Z" transform="translate(-512.56 -940.583)" fill="url(#linear-gradient-30)"/>
        <path id="Trazado_128265" data-name="Trazado 128265" d="M519.266,954.111a5.29,5.29,0,0,1,1.164,4.772c-.219.9-.5.995-.458,1.578.113,1.658,3.114,2.368,2.948,3.2-.119.594-1.685.375-1.953,1.121-.3.816,1.423,1.519,2.159,3.568.116.332.812,2.262-.083,3.406-.836,1.065-2.706.812-4.815.541a17.1,17.1,0,0,1-4.483-1.2,11.012,11.012,0,0,1-4.566-3.074,9.355,9.355,0,0,1-2.076-6.141,9.673,9.673,0,0,1,7.68-8.761C515.4,953.016,517.764,952.645,519.266,954.111Z" transform="translate(-497.667 -933.913)" fill="url(#linear-gradient-31)"/>
        <path id="Trazado_128266" data-name="Trazado 128266" d="M549.091,984.308c-.885-.531-1.559.607-1.144,1.6a1.955,1.955,0,0,0,2.653,1.025C551.433,986.341,550.282,985.021,549.091,984.308Z" transform="translate(-524.885 -954.749)" fill="url(#linear-gradient-32)"/>
        <path id="Trazado_128267" data-name="Trazado 128267" d="M578.947,988.467c2.391.62,9.494-1.456,9.982-2.752,1.117-2.955-1.582-4.354-7.014-7.859,1.433-.872,1.5-2.52,2.935-3.4,4.5,2.268,14.684,5.737,12.78,14.707-1.549,7.3-10.187,14.057-17.576,18.5C578.575,1004.444,575.989,987.7,578.947,988.467Z" transform="translate(-544.783 -948.257)" fill="url(#linear-gradient-33)"/>
        <path id="Trazado_128268" data-name="Trazado 128268" d="M543.336,1014.323l-2.159-.663s-.564,2.922-7.5,3.286a10.366,10.366,0,0,1-6.34-2.159l-1.476,1.074a11.341,11.341,0,0,0,8.38,3.939A10.323,10.323,0,0,0,543.336,1014.323Z" transform="translate(-510.207 -974.458)" fill="url(#linear-gradient-34)"/>
        <path id="Trazado_128269" data-name="Trazado 128269" d="M524.8,1131.1a2.082,2.082,0,0,0,1.519.2c.919-.2,2.039-.962,3.041-1.28s1.078,1.157-.4,1.92a8.256,8.256,0,0,0-3.316,3.439c-.56,1.157-1.96-1.4-1.96-1.4Z" transform="translate(-508.75 -1052.203)" fill="url(#linear-gradient-35)"/>
        <path id="Trazado_128270" data-name="Trazado 128270" d="M493.733,1022a20.259,20.259,0,0,0-9.706,5.637c-6.059,6.437-5.425,14.671-5.279,16.159.972,10.011,9.139,16.637,15.135,19.035l1.326-4.255c-1.552-.948-7.511-4.832-8.46-11.421-.212-1.469-.514-3.565.64-5.438,2.063-3.356,6.463-2.225,8.622-4.643C497.6,1035.344,498.239,1031.471,493.733,1022Z" transform="translate(-478.656 -980.032)" fill="url(#linear-gradient-36)"/>
        <path id="Trazado_128271" data-name="Trazado 128271" d="M558.6,924.841s7.126-14.193,6.632-22.51c8.439-.61,14.385,8.539,14.385,8.539s-13.682,10.565-17.35,16.3C560.311,927.4,558.6,924.841,558.6,924.841Z" transform="translate(-532.089 -900.027)" fill="url(#linear-gradient-37)"/>
        <path id="Trazado_128272" data-name="Trazado 128272" d="M560.453,971.036a3.369,3.369,0,0,0-2.063-.766c-.517,0,.925,2.779,3.668,2.321Z" transform="translate(-531.88 -945.457)" fill="url(#linear-gradient-38)"/>
      </g>
      <path id="Trazado_128273" data-name="Trazado 128273" d="M599.572,890.094a1.386,1.386,0,0,1-1.214-.713c-6.964-12.6-17.071-11.394-17.171-11.381a1.387,1.387,0,0,1-.365-2.749c.491-.066,12.077-1.436,19.96,12.787a1.383,1.383,0,0,1-1.21,2.056Z" transform="translate(-397.063 -666.573)" fill="#ebeff2"/>
      <path id="Trazado_128274" data-name="Trazado 128274" d="M799.317,667.188a8.442,8.442,0,0,0-3.585-1.791,2.74,2.74,0,0,0-2.872,1.529c-.62.955,4.258,1.1,5.737,1.605S799.317,667.188,799.317,667.188Z" transform="translate(-539.556 -526.341)" fill="url(#linear-gradient-39)"/>
      <path id="Trazado_128275" data-name="Trazado 128275" d="M805.43,669.474s5.362,3.575,6.168,4.381,3.664-3.578,3.664-3.578l-7.687-3.217Z" transform="translate(-547.993 -527.463)" fill="url(#linear-gradient-40)"/>
      <path id="Trazado_128276" data-name="Trazado 128276" d="M807.015,939.565a.693.693,0,0,1-.633-.411l-85.831-193a.693.693,0,0,1,1.267-.56l85.831,193a.7.7,0,0,1-.351.915.718.718,0,0,1-.282.056Z" transform="translate(-491.227 -579.695)" fill="#444b8c"/>
      <path id="Trazado_128277" data-name="Trazado 128277" d="M933.81,933.051a.693.693,0,0,1-.627-.4L845.966,748.012a.691.691,0,0,1,1.25-.59l87.214,184.652a.693.693,0,0,1-.332.922A.663.663,0,0,1,933.81,933.051Z" transform="translate(-575.043 -580.911)" fill="#444b8c"/>
      <path id="Trazado_128278" data-name="Trazado 128278" d="M796.354,820.573h0l-41.591-.617a.693.693,0,0,1,.02-1.386l41.591.617a.693.693,0,0,1,0,1.386Z" transform="translate(-513.671 -628.731)" fill="#444b8c"/>
      <path id="Trazado_128279" data-name="Trazado 128279" d="M799.83,918.19a.693.693,0,1,1-.023-1.386l41.359-1.585a.694.694,0,1,1,.053,1.386l-41.362,1.585Z" transform="translate(-543.779 -693.329)" fill="#444b8c"/>
      <path id="Trazado_128280" data-name="Trazado 128280" d="M847.088,1019.846a.693.693,0,0,1-.06-1.383l40.666-3.558a.694.694,0,0,1,.123,1.383l-40.666,3.555Z" transform="translate(-575.378 -759.957)" fill="#444b8c"/>
      <path id="Trazado_128281" data-name="Trazado 128281" d="M893.264,1114.269a.693.693,0,0,1-.106-1.376l40.682-6.34a.693.693,0,0,1,.216,1.37l-40.672,6.34A.6.6,0,0,1,893.264,1114.269Z" transform="translate(-606.244 -821.209)" fill="#444b8c"/>
      <path id="Trazado_128282" data-name="Trazado 128282" d="M938.721,1217.811a.693.693,0,0,1-.113-1.376l41.826-7.037a.693.693,0,0,1,.229,1.366l-41.826,7.037A.683.683,0,0,1,938.721,1217.811Z" transform="translate(-636.623 -889.951)" fill="#444b8c"/>
      <path id="Trazado_128283" data-name="Trazado 128283" d="M922.85,936.3s2.172,4.148,1.92,6.115a19.319,19.319,0,0,0,3.014-.59,21.274,21.274,0,0,1-1.2-2.858,29.5,29.5,0,0,1-.541-3.439Z" transform="translate(-626.475 -706.905)" fill="url(#linear-gradient-41)"/>
      <path id="Trazado_128284" data-name="Trazado 128284" d="M869.261,1012.44a1.386,1.386,0,0,1,.332.8,1.3,1.3,0,0,1-.1.537c-.3.776-.759.879-1.26,1.7-.305.5-.245.663-.527.882a1.847,1.847,0,0,1-1.2.332,21.335,21.335,0,0,1-2.779-.159q.932-1.2,1.99-2.431c.308-.361.617-.713.922-1.054l1.824-.617Z" transform="translate(-586.96 -758.305)" fill="#26264f"/>
      <path id="Trazado_128285" data-name="Trazado 128285" d="M868.872,985.75s-1.044,5.442.285,6.964c1.131,1.526-.547.438-.547.438l-1.99,1.748-1.2,2.076s1.1-5.326.813-7.441-.444-3.538-.444-3.538Z" transform="translate(-588.09 -740.472)" fill="url(#linear-gradient-42)"/>
      <path id="Trazado_128286" data-name="Trazado 128286" d="M849.08,806.253s-2.48,2.825-1.24,13.072,3.648,29.729,3.648,29.729l2.119,16.034a14.069,14.069,0,0,0,3.678-.361c1.327-6.049,3.489-16.276,2.457-24.831a93.939,93.939,0,0,1,1.6-19.542A55.724,55.724,0,0,0,864.653,834c2.514,5.9,7.106,12.2,7.438,13.563,2.9.507,4.215-.163,4.215-.163a112.456,112.456,0,0,0-4.228-15.834c-.421-7.193,2.01-16.03-4.228-27.073C864.328,798.278,849.08,806.253,849.08,806.253Z" transform="translate(-576.107 -617.737)" fill="url(#radial-gradient)"/>
      <path id="Trazado_128287" data-name="Trazado 128287" d="M866.952,1004.45c.491,0,.856.4,1.127,1.346s1.582,1.784.053,1.585-2.653,1.966-3.183,2.766-2.013,1.512-1.99.729.683-1.147.865-1.95S865.821,1004.433,866.952,1004.45Z" transform="translate(-586.445 -752.971)" fill="#444b8c"/>
      <path id="Trazado_128288" data-name="Trazado 128288" d="M720.478,750.761a10.5,10.5,0,0,1-2.321-1.207c-1.071-.743-3.117-2.5-2.726-3.376.262-.584,1.552-.57,4.135-.54a1.793,1.793,0,0,1,.663.09c1.383.547,1.449,3.25,1.449,4.016C721.3,750.1,720.86,750.393,720.478,750.761Z" transform="translate(-487.806 -579.976)" fill="url(#linear-gradient-43)"/>
      <path id="Trazado_128289" data-name="Trazado 128289" d="M760.959,734.029c-6.274-.6-10.857,7.959-16.551,9.285s-9.657-.265-14.031-2.888c-.965.965-1.99,1.894-2.948,2.965,4.427,3.038,9.106,5.773,14.76,6.277,7.12.63,13.755-3.031,21.027-2.364C763.858,744.839,764.023,734.331,760.959,734.029Z" transform="translate(-495.859 -572.204)" fill="url(#linear-gradient-44)"/>
      <path id="Trazado_128290" data-name="Trazado 128290" d="M822.772,722.866c-5.969,2.093-9.587,4.125-9.925,7.1-.491,4.344,4.125,5.969,6.4,9.713a49.3,49.3,0,0,1,3.8,9.162,18.058,18.058,0,0,1,.7,9.438,14.259,14.259,0,0,0,4.066,5.889c4.4,3.7,9.743,2.984,16.09,3.041,15.635.113,25.3,4.676,25.919,2.858.385-1.124-3.585-2.089-7.866-7.329-3.923-4.8-2.948-6.881-6.433-9.832-4.218-3.571-6.526-1.277-9.653-4.643s-2.9-8.032-5.153-12.455a34.029,34.029,0,0,1-1.82-4.231c-.153-.428-.252-.763-.4-1.21a37.826,37.826,0,0,0-2.809-6,6.324,6.324,0,0,0-2.859-2.321C831.686,721.52,828.94,720.7,822.772,722.866Z" transform="translate(-552.926 -563.814)" fill="url(#linear-gradient-45)"/>
      <path id="Trazado_128291" data-name="Trazado 128291" d="M819.147,693.891a8.975,8.975,0,0,1-2.543-4.235,5.675,5.675,0,0,1-.332-2.291,8.3,8.3,0,0,1,.332-1.19,3.7,3.7,0,0,1,.421-.773c.1-.189,0-.083.073-.119.723-.371,1.151-1.35,2.129-1.3,3.13.166,5.8,5.969,6.964,8.357,2.116,4.331,5.306,3.628,5.385,4.377.2,1.618-3.416,2.547-4.616,2.984-1.5.554-5.574,1.767-6.685,0-.451-.72,3.449-2.059,3.886-2.321.2-.613-1.1-1.111-1.31-1.731A7.925,7.925,0,0,1,819.147,693.891Z" transform="translate(-555.22 -538.775)" fill="url(#linear-gradient-46)"/>
      <path id="Trazado_128292" data-name="Trazado 128292" d="M827.048,703.054c.149-.663,1.22-.623,1.578.119s.292,1.99-.663,2.185S826.849,703.936,827.048,703.054Z" transform="translate(-562.392 -551.208)" fill="url(#linear-gradient-47)"/>
      <path id="Trazado_128293" data-name="Trazado 128293" d="M823.65,725.224c.494-.391,1.237-.995,1.7-1.35,1.658,1.791,4.255,1.018,6.48.312a8.649,8.649,0,0,0,4.2-3.316,14.52,14.52,0,0,1,1.516.139,9.474,9.474,0,0,1-5.458,5.531C828.886,727.575,826.144,727.32,823.65,725.224Z" transform="translate(-560.171 -563.429)" fill="url(#linear-gradient-48)"/>
      <path id="Trazado_128294" data-name="Trazado 128294" d="M929.88,956.46a1.36,1.36,0,0,1,.411.759,1.325,1.325,0,0,1-.043.544c-.212.8-.663.952-1.074,1.824-.252.531-.179.663-.434.932a1.844,1.844,0,0,1-1.161.444,21.474,21.474,0,0,1-2.779.129q.8-1.287,1.718-2.623c.269-.391.541-.773.809-1.144l1.751-.8Z" transform="translate(-627.778 -720.895)" fill="#26264f"/>
      <path id="Trazado_128295" data-name="Trazado 128295" d="M927.265,949.043c.494-.043.892.308,1.263,1.224s1.761,1.608.219,1.569-2.421,2.228-2.882,3.084-1.844,1.711-1.89.928.56-1.214.663-2.029S926.144,949.142,927.265,949.043Z" transform="translate(-627.225 -715.935)" fill="#444b8c"/>
      <path id="Trazado_128296" data-name="Trazado 128296" d="M819.06,677.54a9.284,9.284,0,0,0-1.048-1.519,5.751,5.751,0,0,0-.514-.537c-1.157-1.128-1.744-1.068-2.414-1.923a4.923,4.923,0,0,1-.806-3.575,6.219,6.219,0,0,1,2.683-3.933,7.627,7.627,0,0,1,2.769-1.429c1.257-.332,2.925-.477,6.258.623a21.742,21.742,0,0,1,7.153,3.489c4.662,3.608,7.491,9.332,10.456,10.1a7.5,7.5,0,0,0,1.658.259c1.761,0,2.653-.932,4.974-.08,1.794.663,8.25,4.218,8.953,11.086a13.178,13.178,0,0,1-1.25,6.791,17.2,17.2,0,0,1-7.909,8.2c-7.495,3.774-17.43,1.293-22.629-4.261a22.111,22.111,0,0,1-5.707-12.432C821.653,688.4,821.039,681.208,819.06,677.54Z" transform="translate(-553.87 -525.674)" fill="url(#linear-gradient-49)"/>
      <path id="Trazado_128297" data-name="Trazado 128297" d="M1433.577,1049.066a2.1,2.1,0,0,1,2.1-.547c1.366.414,1.356,3.067,1.678,5.9.365,3.214.892,6.632-.547,6.609-.643,0-1.8-1.96-2.033-3.774a18.114,18.114,0,0,0-1.081-4.175,11.637,11.637,0,0,1-.308-1.784C1433.278,1050.17,1433.218,1049.527,1433.577,1049.066Z" transform="translate(-967.655 -782.372)" fill="url(#linear-gradient-50)"/>
      <path id="Trazado_128298" data-name="Trazado 128298" d="M1429.1,1052.444c0,1.389-2.341,1.95-3.754,1.95s-1.373-.56-1.373-1.95.053-2.4,1.469-2.4S1429.1,1051.055,1429.1,1052.444Z" transform="translate(-961.417 -783.443)" fill="url(#linear-gradient-51)"/>
      <path id="Trazado_128299" data-name="Trazado 128299" d="M1248.691,1126.587l-2.321,9.139a2.165,2.165,0,0,0,1.38,1.094,2.356,2.356,0,0,0,1.864-.663,24.5,24.5,0,0,1,2.676-8.834c.719-1.257,1.429-2.046,1.376-2.5C1253.579,1124.017,1251.089,1125.234,1248.691,1126.587Z" transform="translate(-842.712 -833.255)" fill="url(#linear-gradient-52)"/>
      <path id="Trazado_128300" data-name="Trazado 128300" d="M1221.25,964l-1.406.209a24.19,24.19,0,0,0-3.979.156,2.365,2.365,0,0,0-2.295,2.507c0,1.512,1.847,1.7,3.446,1.877.971.109,2.295-.71,3.316-1.466a9.843,9.843,0,0,1,2.524-.995Z" transform="translate(-820.789 -725.934)" fill="url(#linear-gradient-53)"/>
      <path id="Trazado_128301" data-name="Trazado 128301" d="M1262.69,810.062c-1.777,1.184-2.1,4.59-1.632,6.649a15.2,15.2,0,0,0,1.609,4.092c.355.909.663,1.758.908,2.52.182.557.308.995.424,1.482a18.742,18.742,0,0,1,.448,2.7.113.113,0,0,0,.113.106h0a.12.12,0,0,0,.106-.126,18.89,18.89,0,0,0-.454-2.739c-.116-.484-.245-.932-.428-1.5-.129-.4-.278-.829-.438-1.273a12.486,12.486,0,0,1,1.5,4.2,7.415,7.415,0,0,0,9.59,6.078,8.589,8.589,0,0,0,5.239-6.583C1280.852,817.208,1266.6,807.452,1262.69,810.062Z" transform="translate(-852.399 -622.756)" fill="url(#linear-gradient-54)"/>
      <path id="Trazado_128302" data-name="Trazado 128302" d="M1264.749,957.39c-4.152,7.223-6.838,17.967-10.316,30.127-3.124,10.923-5.84,20.706-7.213,28.36a14.935,14.935,0,0,0,2.4,1.622,16.294,16.294,0,0,0,9.086,1.794,72.93,72.93,0,0,1,1.021-8.513c.905-5.014,2.514-14.319,6.35-22.752,2.653-5.85,3.979-8.775,6.241-10.771,1.383-1.23,4.586-3.83,5.137-7.793a3.806,3.806,0,0,0,.03-.5C1277.473,963.422,1267.19,958.491,1264.749,957.39Z" transform="translate(-843.28 -721.516)" fill="#444b8c"/>
      <path id="Trazado_128303" data-name="Trazado 128303" d="M1282.361,957.39a73.793,73.793,0,0,0-5.859,14.657c4.152,2.225,7.7,5.949,6.075,10.489-1.549,4.643-7.352,6.579-8.513,11.995-1.161,5.807,1.545,10.834.385,16.64a48.678,48.678,0,0,0-.879,8.138,18.14,18.14,0,0,0,2.752,0,73.011,73.011,0,0,1,1.021-8.513c.905-5.014,2.514-14.319,6.35-22.752,2.653-5.85,3.979-8.774,6.241-10.771,1.383-1.23,4.586-3.83,5.137-7.793a3.826,3.826,0,0,0,.03-.5C1295.085,963.422,1284.8,958.491,1282.361,957.39Z" transform="translate(-860.892 -721.516)" opacity="0.22" fill="url(#linear-gradient-55)"/>
      <path id="Trazado_128304" data-name="Trazado 128304" d="M1311.5,980.687a1.846,1.846,0,0,0-.139.6c-.08,2.053,3.717,4.745,11.971,17.907,1.459,2.321,3.943,6.393,7.959,7.6a8.544,8.544,0,0,0,1.3.275,8.267,8.267,0,0,0,2.321-.023c.995-.139,4.871,0,15.894.995.086-.2,1.97-4.57-.441-7.594a5.756,5.756,0,0,0-2.2-1.658c-2.587-.388-4.755-.59-6.393-.7a27.68,27.68,0,0,0-4.643,0,20.4,20.4,0,0,0-2.321.332c-3.939-11.364-2.01-21.223-6.745-21.449C1327.123,976.9,1312.465,977.822,1311.5,980.687Z" transform="translate(-886.148 -734.607)" fill="url(#linear-gradient-56)"/>
      <path id="Trazado_128305" data-name="Trazado 128305" d="M1246.611,895.939c-2.4.836,1.214,9.434-3.717,16.03-2.494,3.316-6.248,4.914-9.524,5.73.663,2.135.554,2.142,1.22,4.278a19.842,19.842,0,0,0,13.553-4.527c1.383-1.187,5.664-4.865,5.939-10.582C1254.438,899.587,1248.88,895.153,1246.611,895.939Z" transform="translate(-834.023 -680.383)" fill="#26aab7"/>
      <path id="Trazado_128306" data-name="Trazado 128306" d="M1274.434,863.386a13.47,13.47,0,0,0-2.351,4.493c-1.011,2.742-1.589,4.311-1.515,6.248a11.544,11.544,0,0,0,3.787,7.571c2.577,8.267,3.17,10.2,3.173,10.23v.05a23.816,23.816,0,0,1-.759,4.221c-1.28,4.643-3.061,5.5-2.607,7.173.8,2.928,7.332,4.125,12.3,3.595,2.653-.279,2.875-.839,5.11-1.23,9.385-1.658,13.706,6.682,19.844,4.543,4.361-1.519,4.424-6.573,10.094-7.571,1.99-.332,4.168-.129,4.354-.885s-1.658-1.907-3.217-2.524c-3.356-1.326-6.453-.468-7.826-.252-6.138.972-12.386-5.412-16.136-9.242-10.612-10.831-10.307-25.9-10.18-29.039-.842-.451-3.913-1.963-10.668-.146A11.525,11.525,0,0,0,1274.434,863.386Z" transform="translate(-858.881 -656.253)" fill="#26aab7"/>
      <path id="Trazado_128307" data-name="Trazado 128307" d="M1360.77,927.184c.182-.733-1.658-1.907-3.217-2.524-3.356-1.326-6.453-.468-7.826-.252-6.138.972-12.386-5.412-16.136-9.242a35.793,35.793,0,0,1-9.13-17.476c-.836,6.161-3.051,12.409-.484,17.857,1.933,5.031,9.285,4.643,11.994,10.449,1.161,2.321,4.255,1.933,6.964,2.321,1.937,0,2.709,3.094,5.419,2.709,1.161-.388,1.933-2.321,2.706-2.321.995,0,2.046,0,3.137.07a8.288,8.288,0,0,1,2.218-.7C1358.4,927.721,1360.584,927.94,1360.77,927.184Z" transform="translate(-893.78 -681.614)" fill="#0d585f" opacity="0.25"/>
      <path id="Trazado_128308" data-name="Trazado 128308" d="M1325.052,984.928a7.358,7.358,0,0,1-4.261,1.721,4.58,4.58,0,0,1-1.6-.232,5.11,5.11,0,0,1-2.1-1.416,35.012,35.012,0,0,1,4.576-1.937l1.482-.395Z" transform="translate(-889.987 -738.413)" fill="url(#linear-gradient-57)"/>
      <path id="Trazado_128309" data-name="Trazado 128309" d="M1316.045,906.5l-35.27,14.2a1.791,1.791,0,0,1-2.321-.995l-7.979-20.039a1.791,1.791,0,0,1,.995-2.321l35.274-14.2a1.791,1.791,0,0,1,2.321.995l7.982,20.039A1.794,1.794,0,0,1,1316.045,906.5Z" transform="translate(-858.738 -671.807)" fill="#97a6b7"/>
      <path id="Trazado_128310" data-name="Trazado 128310" d="M1318.033,907.113l-35.274,14.2a1.787,1.787,0,0,1-2.321-.995l-7.982-20.039a1.794,1.794,0,0,1,.995-2.321l35.264-14.213a1.791,1.791,0,0,1,2.321.995l7.982,20.039A1.794,1.794,0,0,1,1318.033,907.113Z" transform="translate(-860.064 -672.208)" fill="#f4f7fa"/>
      <path id="Trazado_128311" data-name="Trazado 128311" d="M1318.037,931.17a4.106,4.106,0,0,1,3.87,3.565,3.281,3.281,0,0,1-.169,1.509l4.258,1.97a7.626,7.626,0,0,0,.361-3.412,9.426,9.426,0,0,0-8.844-8.181h-.033l.524,4.55Z" transform="translate(-890.241 -700.95)" fill="#d8dee8"/>
      <path id="Trazado_128312" data-name="Trazado 128312" d="M1307.4,936.241a2.954,2.954,0,0,1-2.888,1.956,4.105,4.105,0,0,1-3.89-3.565,3,3,0,0,1,3.044-3.465l-.524-4.55a6.888,6.888,0,0,0-7.06,7.959,9.411,9.411,0,0,0,8.954,8.178,6.8,6.8,0,0,0,6.632-4.533Z" transform="translate(-875.9 -700.948)" fill="url(#linear-gradient-58)"/>
      <path id="Trazado_128313" data-name="Trazado 128313" d="M1364.061,917.13l-14.71,6.022a.136.136,0,0,1-.176-.076l-.567-1.4a.136.136,0,0,1,.073-.179l14.72-6a.133.133,0,0,1,.172.076l.561,1.383A.139.139,0,0,1,1364.061,917.13Z" transform="translate(-911.039 -693.506)" fill="#d8dee8"/>
      <path id="Trazado_128314" data-name="Trazado 128314" d="M1360.321,908.15l-14.71,6.022a.136.136,0,0,1-.176-.076l-.567-1.4a.136.136,0,0,1,.073-.179l14.72-6a.133.133,0,0,1,.172.076l.56,1.383A.143.143,0,0,1,1360.321,908.15Z" transform="translate(-908.539 -687.504)" fill="#d8dee8"/>
      <path id="Trazado_128315" data-name="Trazado 128315" d="M1371.357,935.637l-14.71,6.022a.139.139,0,0,1-.179-.076l-.567-1.4a.139.139,0,0,1,.076-.179l14.72-6.022a.129.129,0,0,1,.172.073l.557,1.383a.139.139,0,0,1-.07.2Z" transform="translate(-915.915 -705.861)" fill="#d8dee8"/>
      <path id="Trazado_128316" data-name="Trazado 128316" d="M1367.617,926.683l-14.71,6.022a.139.139,0,0,1-.179-.076l-.567-1.4a.139.139,0,0,1,.076-.179l14.72-6a.129.129,0,0,1,.1,0,.13.13,0,0,1,.071.073l.557,1.386A.136.136,0,0,1,1367.617,926.683Z" transform="translate(-913.415 -699.893)" fill="#d8dee8"/>
      <path id="Trazado_128317" data-name="Trazado 128317" d="M1304.926,870.011c3.595-3.485,14.777.471,18.988,9.617,3.624,7.856,4.686,13.878,1.018,21.6a19.113,19.113,0,0,1-9.471,9.239c-.3-.514-1.37-1.416-2.786-3.562,3.565-1.326,6.924-7.776,7.3-11.732.5-5.259-2.278-10.313-4.871-12.17-2.421-1.734-9.8.249-12.11-1.386C1299.915,879.448,1302.164,872.694,1304.926,870.011Z" transform="translate(-879.567 -662.274)" fill="#26aab7"/>
      <path id="Trazado_128318" data-name="Trazado 128318" d="M1282.866,829.56c-.624,2.955-.875,6.519,1.111,8.36,1.748,1.618,4.258.995,4.437,1.844.332,1.678-9.166,5.422-9.879,4.231-.354-.587,2.633-1.937,2.573-4.089-.026-.9-.431-1.516-2.739-4.7l-.769.272Z" transform="translate(-863.586 -636.076)" fill="url(#linear-gradient-59)"/>
      <path id="Trazado_128319" data-name="Trazado 128319" d="M1307.055,812.385c-1.516-4.609-6.171-6.964-7.053-7.345-5.475-2.477-7.6.869-14.054-1.462-.282-.1-.547-.209-.8-.315a16.278,16.278,0,0,0,5.146.826h.517a18.355,18.355,0,0,0,2.59-.305c.61-.1,1.184-.2,1.625-.232a7.961,7.961,0,0,1,2.709.2l.385.083a.093.093,0,0,0,.113-.073.1.1,0,0,0-.073-.113c-.129-.023-.259-.053-.385-.08a8.066,8.066,0,0,0-2.766-.206c-.448.04-1.025.133-1.638.232a16.886,16.886,0,0,1-2.673.3h-.4a17.571,17.571,0,0,1-6.732-1.38c-.428-.226-.832-.451-1.23-.663l.4.156a15.891,15.891,0,0,0,3.157.995,7.667,7.667,0,0,0,1.207.093h.332a.116.116,0,1,0,0-.229,7.33,7.33,0,0,1-1.479-.086,15.618,15.618,0,0,1-3.11-.975c-.4-.159-.819-.332-1.224-.464l-.507-.169a16.248,16.248,0,0,0-5.276-1.794c-2.142-.365-6.128-.312-7.143.793-1.121,1.217,3.707,2.5,5.432,10.685a20.059,20.059,0,0,0,6.218,11.245c1.074.958,9.842,8.565,18.55,4.891C1304.667,824.512,1308.809,817.754,1307.055,812.385Z" transform="translate(-857.521 -615.771)" fill="url(#linear-gradient-60)"/>
      <g id="Grupo_55756" data-name="Grupo 55756" transform="translate(417.828 188.662)" opacity="0.2">
        <path id="Trazado_128320" data-name="Trazado 128320" d="M1320.806,822.972c-1.515-4.609-6.171-6.964-7.053-7.345a11.633,11.633,0,0,0-1.658-.607,7.387,7.387,0,0,1,1.625,1.658,5.626,5.626,0,0,1,1.26,3.913c-.229,1.658-1.4,2.106-2.524,3.913-1.89,3.031-.534,4.855-1.767,6.559-2.175,3.011-9.66,1.827-14.385-.252a21.627,21.627,0,0,1-7.2-5.206,19.049,19.049,0,0,0,4.974,7.07c1.074.958,9.842,8.566,18.55,4.891C1318.418,835.1,1322.56,828.341,1320.806,822.972Z" transform="translate(-1289.1 -815.02)" fill="url(#linear-gradient-61)"/>
      </g>
      <path id="Trazado_128321" data-name="Trazado 128321" d="M1271.83,821.656a3.84,3.84,0,0,1-3.23,4c-4.185.64-6.281-10.343-5.355-11.126,1.071-.909,2.371.733,5.027-.3,1.118-.434,1.9-2.069,2.722-.55.939,1.724.849,5.041.849,5.041s.875-.968,1.174,0C1273.409,819.975,1272.556,820.926,1271.83,821.656Z" transform="translate(-853.846 -625.042)" fill="url(#linear-gradient-62)"/>
      <path id="Trazado_128322" data-name="Trazado 128322" d="M1262.149,801.9c-1.131,1.552-1.476,4.291-.358,5.475,1.6,1.7,5.226-.856,7.169,1.23.852.915,1.021,2.321,1.379,2.258.3-.063.332-1.068.388-1.9.3-4.586,1.326-5.246.809-6.47C1270.469,800.007,1264.467,798.71,1262.149,801.9Z" transform="translate(-852.561 -616.325)" fill="url(#linear-gradient-63)"/>
      <path id="Trazado_128323" data-name="Trazado 128323" d="M1230.773,1149.46c.3-.415,2.252-.2,3.24.331,1.658.909,2.623,2.534,3.047,2.756a2.688,2.688,0,0,0,1.967.1,1.432,1.432,0,0,1-.514,1.933C1237.335,1155.2,1228.936,1152.024,1230.773,1149.46Z" transform="translate(-832.112 -849.748)" fill="url(#linear-gradient-64)"/>
    </g>
  </g>
</svg>
