<svg xmlns="http://www.w3.org/2000/svg" width="582.202" height="381.487" viewBox="0 0 582.202 381.487">
  <g id="web-01" transform="translate(-8.077 -5.102)">
    <g id="OBJECTS" transform="translate(8.077 5.102)">
      <path id="Trazado_121280" data-name="Trazado 121280" d="M12.819,223.6c10.074-22.842,25.924-29.789,41.009-44.427C72.26,161.224,84.695,148.3,79.9,125.317,72.073,87.7,68.726-6.087,191.192,6.2c43.863,4.392,78.535,31.763,103.763,59.011,21.456,23.215,60.07,25.273,91.141,30.672,38.189,6.657,77.074,16.7,112.409,31.418,72.742,30.382,94.47,73.9,91.514,129.65-.9,16.848-3.839,43.378-38.835,74.423-47.295,41.914-115.96,47.521-198.607,28.283-18.908-4.405-36.779-11.324-55.4-16.572A313.026,313.026,0,0,0,237.4,332.526c-47.464-3.729-96.662,3.024-142.172-8.493-24.194-6.148-46.076-17.181-63.6-32.067C9.9,273.515,2.167,247.689,12.819,223.6Z" transform="translate(-8.077 -5.102)" fill="#eae6ff"/>
      <path id="Trazado_121281" data-name="Trazado 121281" d="M31.12,229.64c0,6.244,85.959,11.27,191.964,11.27s191.964-5.042,191.964-11.27-85.942-11.27-191.964-11.27S31.12,223.412,31.12,229.64Z" transform="translate(8.025 114.525)" fill="#cdccff"/>
      <path id="Trazado_121282" data-name="Trazado 121282" d="M140.187,237.04c0,3.887-21.83,7.055-48.738,7.055S42.71,240.973,42.71,237.04,64.523,230,91.448,230,140.187,233.122,140.187,237.04Z" transform="translate(16.124 121.049)" fill="#cdccff"/>
      <ellipse id="Elipse_4063" data-name="Elipse 4063" cx="81.78" cy="5.588" rx="81.78" ry="5.588" transform="translate(398.747 353.968)" fill="#cdccff"/>
      <path id="Trazado_121283" data-name="Trazado 121283" d="M43.7,176.018,40.56,216.43H82.5l-2.888-40.49Z" transform="translate(14.622 90.725)" fill="#d7d7ff"/>
      <path id="Trazado_121284" data-name="Trazado 121284" d="M47.31,178.669h0a1.187,1.187,0,0,1,.459-.835,1.4,1.4,0,0,1,.968-.289h0a1.287,1.287,0,0,1,1.243.5,1.063,1.063,0,0,1,0,1.247,1.287,1.287,0,0,1-1.243.5h0a1.311,1.311,0,0,1-1.427-1.124Zm1.427-.687a.728.728,0,1,0,0,1.374h0a.891.891,0,0,0,.985-.687C49.722,178.279,49.281,177.983,48.737,177.983ZM47.531,178.669Z" transform="translate(19.339 91.617)" fill="#eae6ff"/>
      <path id="Trazado_121285" data-name="Trazado 121285" d="M55.72,178.645h0a.978.978,0,0,1,.34-.718,1.657,1.657,0,0,1,1.1-.406h0a1.313,1.313,0,0,1,1.444,1.124.961.961,0,0,1-.442.8,1.65,1.65,0,0,1-1,.328h0A1.33,1.33,0,0,1,55.72,178.645Zm1.444-.687a1.126,1.126,0,0,0-.764.265.573.573,0,0,0-.2.421h0a.872.872,0,0,0,.968.687h0a1.187,1.187,0,0,0,.713-.219.6.6,0,0,0,.272-.468.891.891,0,0,0-.985-.687Z" transform="translate(25.216 91.61)" fill="#eae6ff"/>
      <path id="Trazado_121286" data-name="Trazado 121286" d="M55.091,186.546H55.5a8.059,8.059,0,0,0,5.963-2.295,7.724,7.724,0,0,0,1.7-5.9.417.417,0,0,0-.181-.281.49.49,0,0,0-.345-.078.468.468,0,0,0-.306.166.4.4,0,0,0-.085.317,7.039,7.039,0,0,1-1.461,5.229,7.1,7.1,0,0,1-5.283,2.014,6.567,6.567,0,0,1-5.1-1.561,7.333,7.333,0,0,1-1.546-5.572.4.4,0,0,0-.085-.317.48.48,0,0,0-.833.193,7.991,7.991,0,0,0,1.7,6.244,7.31,7.31,0,0,0,5.453,1.842Z" transform="translate(19.712 91.873)" fill="#eae6ff"/>
      <path id="Trazado_121287" data-name="Trazado 121287" d="M56.081,183.268,51.07,213.316l45.545-.094-4.6-30.032Z" transform="translate(21.966 94.792)" fill="#bdc6f9"/>
      <path id="Trazado_121288" data-name="Trazado 121288" d="M47.891,215.74c-5.1,0-9.241,3.8-9.241,8.491s4.138,8.491,9.241,8.491,9.241-3.8,9.241-8.491-4.141-8.483-9.241-8.491Zm0,12.487a3.943,3.943,0,1,0,0-.047Z" transform="translate(13.287 113.05)" fill="#8784ef"/>
      <path id="Trazado_121289" data-name="Trazado 121289" d="M47.008,215.74c-5.106-.009-9.252,3.789-9.258,8.481s4.13,8.5,9.236,8.5,9.247-3.8,9.247-8.491-4.127-8.483-9.224-8.491Zm0,12.487a3.942,3.942,0,1,0,0-.047Z" transform="translate(12.658 113.05)" fill="#9aa3f4"/>
      <path id="Trazado_121290" data-name="Trazado 121290" d="M78.628,215.74c-5.106-.009-9.252,3.789-9.258,8.481s4.13,8.5,9.236,8.5,9.247-3.8,9.247-8.491-4.127-8.483-9.224-8.491Zm0,12.487a3.942,3.942,0,1,0,0-.047Z" transform="translate(34.754 113.05)" fill="#8784ef"/>
      <path id="Trazado_121291" data-name="Trazado 121291" d="M77.721,215.74c-5.1,0-9.241,3.8-9.241,8.491s4.138,8.491,9.241,8.491,9.241-3.8,9.241-8.491-4.141-8.483-9.241-8.491Zm0,12.487a3.944,3.944,0,1,0,0-.047Z" transform="translate(34.132 113.05)" fill="#9aa3f4"/>
      <path id="Trazado_121292" data-name="Trazado 121292" d="M137.131,154.7H109.373a8.688,8.688,0,0,0-7.186,3.668L85.42,183.109" transform="translate(45.97 78.811)" fill="none" stroke="#9aa3f4" stroke-miterlimit="10" stroke-width="1.5"/>
      <path id="Trazado_121293" data-name="Trazado 121293" d="M46.924,219.713H108.9a6.651,6.651,0,0,0,6.642-5.2l6.421-36.791a5.9,5.9,0,0,0-1.548-4.97,7.051,7.051,0,0,0-5.094-2.194H40.5a7.051,7.051,0,0,0-5.094,2.194,5.9,5.9,0,0,0-1.548,4.97l6.421,36.791a6.651,6.651,0,0,0,6.642,5.2Z" transform="translate(9.888 87.708)" fill="none" stroke="#9aa3f4" stroke-miterlimit="10" stroke-width="1.5"/>
      <line id="Línea_140" data-name="Línea 140" y2="49.153" transform="translate(87.816 258.268)" fill="none" stroke="#9aa3f4" stroke-miterlimit="10" stroke-width="1.5"/>
      <line id="Línea_141" data-name="Línea 141" x1="82.069" transform="translate(46.79 282.852)" fill="none" stroke="#9aa3f4" stroke-miterlimit="10" stroke-width="1.5"/>
      <line id="Línea_142" data-name="Línea 142" x1="5.3" y2="49.153" transform="translate(107.012 258.268)" fill="none" stroke="#9aa3f4" stroke-miterlimit="10" stroke-width="1.5"/>
      <line id="Línea_143" data-name="Línea 143" x2="4.91" y2="49.153" transform="translate(64.542 258.268)" fill="none" stroke="#9aa3f4" stroke-miterlimit="10" stroke-width="1.5"/>
      <path id="Trazado_121294" data-name="Trazado 121294" d="M112.847,200.62,122.9,214.34a5.234,5.234,0,0,1,.292,5.764,6.212,6.212,0,0,1-5.389,2.962H35.62" transform="translate(11.17 104.569)" fill="none" stroke="#9aa3f4" stroke-miterlimit="10" stroke-width="1.5"/>
      <rect id="Rectángulo_30454" data-name="Rectángulo 30454" width="85.093" height="21.026" transform="translate(254.926 311.698)" fill="#4a41a3"/>
      <rect id="Rectángulo_30455" data-name="Rectángulo 30455" width="294.979" height="194.99" rx="9.39" transform="translate(150.433 123.576)" fill="#5851bc"/>
      <rect id="Rectángulo_30456" data-name="Rectángulo 30456" width="277.6" height="169.173" rx="5.77" transform="translate(158.673 130.693)" fill="#c4c3fc"/>
      <path id="Trazado_121295" data-name="Trazado 121295" d="M149.045,217.1H282.4c6.868,0,12.435,5.116,12.435,11.426v1.826H136.61v-1.826c0-6.31,5.567-11.426,12.435-11.426Z" transform="translate(81.741 113.813)" fill="#5851bc"/>
      <g id="Grupo_55601" data-name="Grupo 55601" transform="translate(224.96 142.369)" opacity="0.35">
        <rect id="Rectángulo_30457" data-name="Rectángulo 30457" width="194.24" height="119.957" rx="5.01" fill="#fff"/>
      </g>
      <g id="Grupo_55606" data-name="Grupo 55606" transform="translate(224.977 142.369)" opacity="0.25">
        <rect id="Rectángulo_30458" data-name="Rectángulo 30458" width="8.46" height="19.512" transform="translate(18.449 87.646)" fill="#fca70c"/>
        <rect id="Rectángulo_30459" data-name="Rectángulo 30459" width="8.46" height="36.65" transform="translate(37.509 70.507)" fill="#b1affd"/>
        <rect id="Rectángulo_30460" data-name="Rectángulo 30460" width="8.46" height="32.857" transform="translate(56.587 74.3)" fill="#fca70c"/>
        <rect id="Rectángulo_30461" data-name="Rectángulo 30461" width="8.46" height="51.417" transform="translate(75.647 55.741)" fill="#b1affd"/>
        <g id="Grupo_55602" data-name="Grupo 55602" transform="translate(37.509 70.507)" opacity="0.15">
          <rect id="Rectángulo_30462" data-name="Rectángulo 30462" width="3.89" height="36.65" opacity="0.26"/>
        </g>
        <g id="Grupo_55603" data-name="Grupo 55603" transform="translate(18.449 87.646)" opacity="0.15">
          <rect id="Rectángulo_30463" data-name="Rectángulo 30463" width="3.89" height="19.512" opacity="0.26"/>
        </g>
        <g id="Grupo_55604" data-name="Grupo 55604" transform="translate(75.647 55.741)" opacity="0.62">
          <rect id="Rectángulo_30464" data-name="Rectángulo 30464" width="3.89" height="51.417" opacity="0.26"/>
        </g>
        <g id="Grupo_55605" data-name="Grupo 55605" transform="translate(56.587 74.3)" opacity="0.15">
          <rect id="Rectángulo_30465" data-name="Rectángulo 30465" width="3.89" height="32.857" opacity="0.26"/>
        </g>
        <path id="Trazado_121296" data-name="Trazado 121296" d="M223.812,195.021H148.08V120.94h1.155v73.02h74.577Z" transform="translate(-135.22 -82.494)" fill="#d5dbda"/>
        <path id="Trazado_121297" data-name="Trazado 121297" d="M152.974,158.744l-.764-.8,19.808-16.343,18.347,3.668,19.859-20.323.866.718-20.318,20.776-18.432-3.684Z" transform="translate(-132.334 -80.245)" fill="#d5dbda"/>
        <path id="Trazado_121298" data-name="Trazado 121298" d="M190.079,129.742l-5.589-4.933,7.22-1.779Z" transform="translate(-109.777 -81.322)" fill="#d5dbda"/>
        <rect id="Rectángulo_30466" data-name="Rectángulo 30466" width="5.81" height="5.338" transform="translate(95.761 86.257)" fill="#b1affd"/>
        <rect id="Rectángulo_30467" data-name="Rectángulo 30467" width="5.81" height="5.338" transform="translate(95.761 95.607)" fill="#fca70c"/>
        <rect id="Rectángulo_30468" data-name="Rectángulo 30468" width="18.415" height="3.028" transform="translate(103.168 97.917)" fill="#efefef"/>
        <rect id="Rectángulo_30469" data-name="Rectángulo 30469" width="18.415" height="3.028" transform="translate(103.168 88.567)" fill="#efefef"/>
        <rect id="Rectángulo_30470" data-name="Rectángulo 30470" width="5.81" height="5.338" transform="translate(129.924 86.257)" fill="#b1affd"/>
        <rect id="Rectángulo_30471" data-name="Rectángulo 30471" width="5.81" height="5.338" transform="translate(129.924 95.607)" fill="#fca70c"/>
        <rect id="Rectángulo_30472" data-name="Rectángulo 30472" width="18.415" height="3.028" transform="translate(137.331 97.917)" fill="#efefef"/>
        <rect id="Rectángulo_30473" data-name="Rectángulo 30473" width="18.415" height="3.028" transform="translate(137.331 88.567)" fill="#efefef"/>
        <rect id="Rectángulo_30474" data-name="Rectángulo 30474" width="5.81" height="5.338" transform="translate(160.689 86.257)" fill="#b1affd"/>
        <rect id="Rectángulo_30475" data-name="Rectángulo 30475" width="5.81" height="5.338" transform="translate(160.689 95.607)" fill="#fca70c"/>
        <rect id="Rectángulo_30476" data-name="Rectángulo 30476" width="12.112" height="3.028" transform="translate(168.113 97.917)" fill="#efefef"/>
        <rect id="Rectángulo_30477" data-name="Rectángulo 30477" width="12.112" height="3.028" transform="translate(168.113 88.567)" fill="#efefef"/>
        <rect id="Rectángulo_30478" data-name="Rectángulo 30478" width="83.377" height="1.389" transform="translate(96.848 35.246)" fill="#efefef"/>
        <rect id="Rectángulo_30479" data-name="Rectángulo 30479" width="167.365" height="3.184" transform="translate(12.86 18.154)" fill="#efefef"/>
        <rect id="Rectángulo_30480" data-name="Rectángulo 30480" width="83.632" height="1.389" transform="translate(96.594 39.569)" fill="#efefef"/>
        <rect id="Rectángulo_30481" data-name="Rectángulo 30481" width="83.632" height="1.389" transform="translate(96.594 30.906)" fill="#efefef"/>
        <rect id="Rectángulo_30482" data-name="Rectángulo 30482" width="83.632" height="1.389" transform="translate(96.594 43.909)" fill="#efefef"/>
        <rect id="Rectángulo_30483" data-name="Rectángulo 30483" width="83.632" height="1.389" transform="translate(96.594 48.248)" fill="#efefef"/>
        <rect id="Rectángulo_30484" data-name="Rectángulo 30484" width="83.632" height="1.389" transform="translate(96.594 52.572)" fill="#efefef"/>
        <rect id="Rectángulo_30485" data-name="Rectángulo 30485" width="83.632" height="1.389" transform="translate(96.594 56.911)" fill="#efefef"/>
        <rect id="Rectángulo_30486" data-name="Rectángulo 30486" width="83.632" height="1.389" transform="translate(96.594 61.235)" fill="#efefef"/>
        <rect id="Rectángulo_30487" data-name="Rectángulo 30487" width="83.632" height="1.389" transform="translate(96.594 65.574)" fill="#efefef"/>
        <rect id="Rectángulo_30488" data-name="Rectángulo 30488" width="73.388" height="1.389" transform="translate(106.837 69.898)" fill="#efefef"/>
        <path id="Trazado_121299" data-name="Trazado 121299" d="M326.222,96.31H149c-4.691,0-8.494,3.494-8.494,7.8v6.852H334.733v-6.852a7.5,7.5,0,0,0-2.494-5.524,8.892,8.892,0,0,0-6.017-2.28Z" transform="translate(-140.51 -96.31)" fill="#7a7ae5"/>
        <path id="Trazado_121300" data-name="Trazado 121300" d="M242.167,101.988a2.267,2.267,0,0,1-1.509,2.1,2.625,2.625,0,0,1-2.69-.481,2.132,2.132,0,0,1-.542-2.468,2.474,2.474,0,0,1,2.277-1.4,2.371,2.371,0,0,1,2.463,2.248Z" transform="translate(-72.915 -94.386)" fill="#cfcfff"/>
        <ellipse id="Elipse_4064" data-name="Elipse 4064" cx="2.446" cy="2.248" rx="2.446" ry="2.248" transform="translate(174.348 5.354)" fill="#cfcfff"/>
        <ellipse id="Elipse_4065" data-name="Elipse 4065" cx="2.446" cy="2.248" rx="2.446" ry="2.248" transform="translate(184.353 5.354)" fill="#cfcfff"/>
      </g>
      <rect id="Rectángulo_30489" data-name="Rectángulo 30489" width="194.24" height="119.957" rx="5.01" transform="translate(173.367 168.905)" fill="#c4c3fc" opacity="0.55"/>
      <rect id="Rectángulo_30490" data-name="Rectángulo 30490" width="194.24" height="119.957" rx="5.01" transform="translate(177.308 164.238)" fill="#fff"/>
      <rect id="Rectángulo_30491" data-name="Rectángulo 30491" width="8.46" height="19.512" transform="translate(195.774 251.868)" fill="#fca70c"/>
      <rect id="Rectángulo_30492" data-name="Rectángulo 30492" width="8.46" height="36.65" transform="translate(214.835 234.744)" fill="#b1affd"/>
      <rect id="Rectángulo_30493" data-name="Rectángulo 30493" width="8.46" height="32.857" transform="translate(233.895 238.522)" fill="#fca70c"/>
      <rect id="Rectángulo_30494" data-name="Rectángulo 30494" width="8.46" height="51.417" transform="translate(252.973 219.978)" fill="#b1affd"/>
      <g id="Grupo_55607" data-name="Grupo 55607" transform="translate(214.835 234.744)" opacity="0.15">
        <rect id="Rectángulo_30495" data-name="Rectángulo 30495" width="3.89" height="36.65" opacity="0.26"/>
      </g>
      <g id="Grupo_55608" data-name="Grupo 55608" transform="translate(195.774 251.868)" opacity="0.15">
        <rect id="Rectángulo_30496" data-name="Rectángulo 30496" width="3.89" height="19.512" opacity="0.26"/>
      </g>
      <g id="Grupo_55609" data-name="Grupo 55609" transform="translate(252.973 219.978)" opacity="0.62">
        <rect id="Rectángulo_30497" data-name="Rectángulo 30497" width="3.89" height="51.417" opacity="0.26"/>
      </g>
      <g id="Grupo_55610" data-name="Grupo 55610" transform="translate(233.895 238.522)" opacity="0.15">
        <rect id="Rectángulo_30498" data-name="Rectángulo 30498" width="3.89" height="32.857" opacity="0.26"/>
      </g>
      <path id="Trazado_121301" data-name="Trazado 121301" d="M195.745,206.653H120.03V139.19h1.155v66.4h74.56Z" transform="translate(70.155 70.111)" fill="#d5dbda"/>
      <path id="Trazado_121302" data-name="Trazado 121302" d="M124.931,172.754l-.781-.8,19.808-16.343,18.347,3.668,19.876-20.323.849.7-20.318,20.791L144.3,156.77Z" transform="translate(73.034 69.982)" fill="#d5dbda"/>
      <path id="Trazado_121303" data-name="Trazado 121303" d="M162.036,143.758l-5.606-4.948,7.237-1.779Z" transform="translate(95.592 68.9)" fill="#d5dbda"/>
      <rect id="Rectángulo_30499" data-name="Rectángulo 30499" width="5.81" height="5.338" transform="translate(273.07 250.494)" fill="#b1affd"/>
      <rect id="Rectángulo_30500" data-name="Rectángulo 30500" width="5.81" height="5.338" transform="translate(273.07 259.844)" fill="#fca70c"/>
      <rect id="Rectángulo_30501" data-name="Rectángulo 30501" width="18.415" height="3.028" transform="translate(280.493 262.154)" fill="#efefef"/>
      <rect id="Rectángulo_30502" data-name="Rectángulo 30502" width="18.415" height="3.028" transform="translate(280.493 252.789)" fill="#efefef"/>
      <rect id="Rectángulo_30503" data-name="Rectángulo 30503" width="5.81" height="5.338" transform="translate(307.249 250.494)" fill="#b1affd"/>
      <rect id="Rectángulo_30504" data-name="Rectángulo 30504" width="5.81" height="5.338" transform="translate(307.249 259.844)" fill="#fca70c"/>
      <rect id="Rectángulo_30505" data-name="Rectángulo 30505" width="18.415" height="3.028" transform="translate(314.656 262.154)" fill="#efefef"/>
      <rect id="Rectángulo_30506" data-name="Rectángulo 30506" width="18.415" height="3.028" transform="translate(314.656 252.789)" fill="#efefef"/>
      <rect id="Rectángulo_30507" data-name="Rectángulo 30507" width="5.81" height="5.338" transform="translate(338.015 250.494)" fill="#b1affd"/>
      <rect id="Rectángulo_30508" data-name="Rectángulo 30508" width="5.81" height="5.338" transform="translate(338.015 259.844)" fill="#fca70c"/>
      <rect id="Rectángulo_30509" data-name="Rectángulo 30509" width="12.112" height="3.028" transform="translate(345.421 262.154)" fill="#efefef"/>
      <rect id="Rectángulo_30510" data-name="Rectángulo 30510" width="12.112" height="3.028" transform="translate(345.421 252.789)" fill="#efefef"/>
      <rect id="Rectángulo_30511" data-name="Rectángulo 30511" width="83.377" height="1.389" transform="translate(274.157 199.483)" fill="#efefef"/>
      <rect id="Rectángulo_30512" data-name="Rectángulo 30512" width="167.365" height="3.184" transform="translate(190.185 182.375)" fill="#efefef"/>
      <rect id="Rectángulo_30513" data-name="Rectángulo 30513" width="83.632" height="1.389" transform="translate(273.919 203.807)" fill="#efefef"/>
      <rect id="Rectángulo_30514" data-name="Rectángulo 30514" width="83.632" height="1.389" transform="translate(273.919 195.144)" fill="#efefef"/>
      <rect id="Rectángulo_30515" data-name="Rectángulo 30515" width="83.632" height="1.389" transform="translate(273.919 208.146)" fill="#efefef"/>
      <rect id="Rectángulo_30516" data-name="Rectángulo 30516" width="83.632" height="1.389" transform="translate(273.919 212.47)" fill="#efefef"/>
      <rect id="Rectángulo_30517" data-name="Rectángulo 30517" width="83.632" height="1.389" transform="translate(273.919 216.809)" fill="#efefef"/>
      <rect id="Rectángulo_30518" data-name="Rectángulo 30518" width="83.632" height="1.389" transform="translate(273.919 221.133)" fill="#efefef"/>
      <rect id="Rectángulo_30519" data-name="Rectángulo 30519" width="83.632" height="1.389" transform="translate(273.919 225.473)" fill="#efefef"/>
      <rect id="Rectángulo_30520" data-name="Rectángulo 30520" width="83.632" height="1.389" transform="translate(273.919 229.796)" fill="#efefef"/>
      <rect id="Rectángulo_30521" data-name="Rectángulo 30521" width="73.388" height="1.389" transform="translate(284.146 234.136)" fill="#efefef"/>
      <path id="Trazado_121304" data-name="Trazado 121304" d="M298.172,110.32H120.954c-4.691,0-8.494,3.494-8.494,7.8v6.852H306.683v-6.852a7.5,7.5,0,0,0-2.494-5.524A8.891,8.891,0,0,0,298.172,110.32Z" transform="translate(64.865 53.918)" fill="#a4a4f7"/>
      <path id="Trazado_121305" data-name="Trazado 121305" d="M214.106,116a2.268,2.268,0,0,1-1.513,2.1,2.624,2.624,0,0,1-2.692-.488,2.131,2.131,0,0,1-.531-2.474,2.477,2.477,0,0,1,2.289-1.39A2.353,2.353,0,0,1,214.106,116Z" transform="translate(132.453 55.842)" fill="#cfcfff"/>
      <path id="Trazado_121306" data-name="Trazado 121306" d="M220.027,116a2.268,2.268,0,0,1-1.513,2.1,2.624,2.624,0,0,1-2.692-.488,2.131,2.131,0,0,1-.531-2.474,2.477,2.477,0,0,1,2.289-1.39A2.37,2.37,0,0,1,220.027,116Z" transform="translate(136.59 55.842)" fill="#cfcfff"/>
      <path id="Trazado_121307" data-name="Trazado 121307" d="M225.887,116a2.267,2.267,0,0,1-1.509,2.1,2.625,2.625,0,0,1-2.69-.481,2.132,2.132,0,0,1-.542-2.468,2.474,2.474,0,0,1,2.277-1.4A2.371,2.371,0,0,1,225.887,116Z" transform="translate(140.685 55.842)" fill="#cfcfff"/>
      <path id="Trazado_121308" data-name="Trazado 121308" d="M283.192,84.36H237.7q.476,20.292.764,40.662a14.974,14.974,0,0,1-.832,6.134h0c-.595,0-.34.156-.544,1.139h0c-1.835,2.763-5.419,4.261-8.919,4.979a.807.807,0,0,0,0,.453.95.95,0,0,0-.34,1.264c.2.453,2.82,1.061,6.371.7a17.919,17.919,0,0,0,3.941-1,6.213,6.213,0,0,0,1.444-.905,5.474,5.474,0,0,0,1.342-.3l.136.125,4.077-1.561s-.442-2.357-.8-3.59a2.128,2.128,0,0,0-.272-.578,159.711,159.711,0,0,0,7.916-26.114c-.747,10.926-5.1,33.373-5.368,34.137a6.23,6.23,0,0,1-5.1,3.34c-.968,0-5.708-.172-5.2,1.826.136.484,2.582,1.561,6.15,1.717a18.769,18.769,0,0,0,4.077-.359,7.925,7.925,0,0,0,2.531-1.264l.544.671,4.315-.968v-2.263a4.694,4.694,0,0,0-.917-2.419v-2.263l2.4-.25s4.808-14.282,7.084-19.137a39.35,39.35,0,0,0,2.582-6.088,39.38,39.38,0,0,0,.985-7.6A62.71,62.71,0,0,1,268.854,91.1a1.811,1.811,0,0,1,.408-.8,2.424,2.424,0,0,1,1.58-.5c6.116-.515,8.9.437,12.741-.656,5.1-1.436,5.572-3.543,5.827-3.637A17.012,17.012,0,0,0,283.192,84.36Z" transform="translate(145.403 39.356)" fill="#5851bc" opacity="0.35"/>
      <g id="Grupo_55611" data-name="Grupo 55611" transform="translate(411.093 168.873)" opacity="0.35">
        <path id="Trazado_121309" data-name="Trazado 121309" d="M284.387,161.679V113.29c-7.865,9.459-15.663,17.951-23.528,27.41-3.4,4.105-16.784,17.7-7.662,23.164,2.327,1.389,6.387,1.327,8.494,1.452,7.271.468,14.474-1.374,21.558-3.215A5.385,5.385,0,0,1,284.387,161.679Z" transform="translate(-250.068 -113.29)" fill="#5851bc"/>
      </g>
      <path id="Trazado_121310" data-name="Trazado 121310" d="M281.738,152.741l-4.383.312-.085-.234-3.4.25-1.019-2.669a4.422,4.422,0,0,0-4.3-2.5,2.392,2.392,0,0,0-1.969.948,1.991,1.991,0,0,0-.205,2.034c.17.468.68,1.764,1.019,2.638l-3.584.265v.234l-7.39.515c-1.155,0-2.888,1.389-2.514,2.357v.14a1.438,1.438,0,0,0,0,.265L260.3,173.86l-.17,69.758h7.56l14.032-50.106Zm-11.535-.515a2.5,2.5,0,0,1-2.412-1.4,1.133,1.133,0,0,1,.121-1.144,1.36,1.36,0,0,1,1.1-.542,2.52,2.52,0,0,1,2.412,1.4,1.135,1.135,0,0,1-.15,1.11,1.361,1.361,0,0,1-1.073.529Z" transform="translate(163.675 74.995)" fill="#5851bc" opacity="0.35"/>
      <path id="Trazado_121311" data-name="Trazado 121311" d="M115.164,133.631a34.561,34.561,0,0,0-4.383,6.774,7.1,7.1,0,0,1-4.094,3.372c-3.245,1.374-6.8,2.669-10.057,3.887v7.914c6.8-3.762,12.945-7.258,13.047-7.289,5.2,1.811,9.53-2.154,10.94-5.011.612-1.28-.323-1.811-.357-2.419,0-.312.425-2.17.357-2.419-.408-1.67-5.3-.2-4.893-1a5.787,5.787,0,0,1,2.039-2.81c2.378-1.561,4.213-3.122,4.213-3.793C121.976,129.76,115.741,133.069,115.164,133.631Z" transform="translate(53.804 65.306)" fill="#5851bc" opacity="0.35"/>
      <rect id="Rectángulo_30522" data-name="Rectángulo 30522" width="114.686" height="121.861" rx="6.95" transform="translate(432.128 239.177)" fill="#a2a7f4"/>
      <rect id="Rectángulo_30523" data-name="Rectángulo 30523" width="96.984" height="25.037" rx="1.77" transform="translate(442.728 251.93)" fill="#9090f4"/>
      <rect id="Rectángulo_30524" data-name="Rectángulo 30524" width="24.938" height="15.89" rx="1.77" transform="translate(442.728 285.833)" fill="#9090f4"/>
      <rect id="Rectángulo_30525" data-name="Rectángulo 30525" width="24.938" height="15.89" rx="1.77" transform="translate(478.76 285.833)" fill="#9090f4"/>
      <rect id="Rectángulo_30526" data-name="Rectángulo 30526" width="24.938" height="15.89" rx="1.77" transform="translate(514.791 285.833)" fill="#9090f4"/>
      <rect id="Rectángulo_30527" data-name="Rectángulo 30527" width="24.938" height="15.89" rx="1.77" transform="translate(442.728 311.37)" fill="#9090f4"/>
      <rect id="Rectángulo_30528" data-name="Rectángulo 30528" width="24.938" height="15.89" rx="1.77" transform="translate(478.76 311.37)" fill="#9090f4"/>
      <rect id="Rectángulo_30529" data-name="Rectángulo 30529" width="24.938" height="15.89" rx="1.77" transform="translate(442.728 336.922)" fill="#9090f4"/>
      <rect id="Rectángulo_30530" data-name="Rectángulo 30530" width="24.938" height="15.89" rx="1.77" transform="translate(478.76 336.922)" fill="#9090f4"/>
      <rect id="Rectángulo_30531" data-name="Rectángulo 30531" width="24.938" height="41.427" rx="1.77" transform="translate(514.791 311.37)" fill="#9090f4"/>
      <g id="Grupo_55612" data-name="Grupo 55612" transform="translate(440.979 250.307)" opacity="0.45">
        <path id="Trazado_121312" data-name="Trazado 121312" d="M267.66,168.223a2.893,2.893,0,0,1,3.007-2.763h91a2.893,2.893,0,0,1,3.007,2.763v19.5a2.907,2.907,0,0,1-3.007,2.778h-91" transform="translate(-267.66 -165.46)" fill="#e2deff"/>
        <rect id="Rectángulo_30532" data-name="Rectángulo 30532" width="24.938" height="15.89" rx="1.77" transform="translate(0 33.903)" fill="#e2deff"/>
        <rect id="Rectángulo_30533" data-name="Rectángulo 30533" width="24.938" height="15.89" rx="1.77" transform="translate(36.014 33.903)" fill="#e2deff"/>
        <rect id="Rectángulo_30534" data-name="Rectángulo 30534" width="24.938" height="15.89" rx="1.77" transform="translate(72.046 33.903)" fill="#e2deff"/>
        <rect id="Rectángulo_30535" data-name="Rectángulo 30535" width="24.938" height="15.89" rx="1.77" transform="translate(0 59.456)" fill="#e2deff"/>
        <rect id="Rectángulo_30536" data-name="Rectángulo 30536" width="24.938" height="15.89" rx="1.77" transform="translate(36.014 59.456)" fill="#e2deff"/>
        <rect id="Rectángulo_30537" data-name="Rectángulo 30537" width="24.938" height="15.89" rx="1.77" transform="translate(0 84.992)" fill="#e2deff"/>
        <rect id="Rectángulo_30538" data-name="Rectángulo 30538" width="24.938" height="15.89" rx="1.77" transform="translate(36.014 84.992)" fill="#e2deff"/>
      </g>
      <rect id="Rectángulo_30539" data-name="Rectángulo 30539" width="24.938" height="41.427" rx="1.77" transform="translate(513.025 309.762)" fill="#f5ca56"/>
      <path id="Trazado_121313" data-name="Trazado 121313" d="M311.837,243.827v-35.9a2.907,2.907,0,0,1,3.007-2.778h18.891a3.279,3.279,0,0,1,1.036.187,2.991,2.991,0,0,0-2.8-1.8H313.077a2.893,2.893,0,0,0-3.007,2.763v35.9a2.766,2.766,0,0,0,1.954,2.591,2.6,2.6,0,0,1-.187-.968Z" transform="translate(202.955 106.207)" fill="#f9c110"/>
      <path id="Trazado_121314" data-name="Trazado 121314" d="M262.45,182.484l3.075,7.43h12.843s-.883,32.108-.934,38.133,5.385,47.561,5.385,47.561h7.441l-.781-52.369,10.566-26.879s7.933,35.979,11.229,41.989,20.98,37.259,20.98,37.259h6.8l-17.532-68.883L313.991,182.8l-37.917-16.3-13.59,1.233" transform="translate(169.678 85.43)" fill="#5851bc" opacity="0.35"/>
      <path id="Trazado_121315" data-name="Trazado 121315" d="M113.75,193.864l-5.98,57.052h58.863l-5.691-57.145Z" transform="translate(61.588 100.727)" fill="#f5ca56"/>
      <path id="Trazado_121316" data-name="Trazado 121316" d="M117.34,197.8h0a1.993,1.993,0,0,1,2.191-1.717h0a2.048,2.048,0,0,1,2.225,1.7,2.011,2.011,0,0,1-2.208,1.717h0A2.013,2.013,0,0,1,117.34,197.8Zm2.191-1.077a1.242,1.242,0,0,0-1.261.441,1.02,1.02,0,0,0,0,1.24,1.242,1.242,0,0,0,1.261.441h0a1.242,1.242,0,0,0,1.261-.441,1.02,1.02,0,0,0,0-1.24,1.242,1.242,0,0,0-1.261-.441ZM117.68,197.8Z" transform="translate(68.276 102.02)" fill="#5851bc"/>
      <path id="Trazado_121317" data-name="Trazado 121317" d="M130.25,197.769h0a1.5,1.5,0,0,1,.527-1.108,2.425,2.425,0,0,1,1.7-.609h0a2.013,2.013,0,0,1,2.208,1.7,1.52,1.52,0,0,1-.663,1.233,2.515,2.515,0,0,1-1.529.484h0A2.033,2.033,0,0,1,130.25,197.769Zm2.208-1.061a1.789,1.789,0,0,0-1.189.406.946.946,0,0,0-.306.656h0a1.359,1.359,0,0,0,1.495,1.061h0a1.887,1.887,0,0,0,1.087-.343.9.9,0,0,0,.408-.734,1.327,1.327,0,0,0-1.495-1.046Z" transform="translate(77.297 102.003)" fill="#5851bc"/>
      <path id="Trazado_121318" data-name="Trazado 121318" d="M129.283,209.891h.629a12.421,12.421,0,0,0,9.14-3.543,11.858,11.858,0,0,0,2.565-9.053.7.7,0,0,0-.8-.562.668.668,0,0,0-.612.734,10.723,10.723,0,0,1-2.259,8.039,10.914,10.914,0,0,1-8.086,3.122,10.044,10.044,0,0,1-7.814-2.513c-3.143-3.215-2.378-8.491-2.361-8.554a.668.668,0,0,0-.612-.734.742.742,0,0,0-.815.546c0,.25-.866,5.932,2.718,9.615a11.134,11.134,0,0,0,8.307,2.9Z" transform="translate(68.853 102.385)" fill="#5851bc"/>
      <path id="Trazado_121319" data-name="Trazado 121319" d="M82.394,112.024c2.276,3.606.306,8.554,2.616,12.16.917,1.436,2.48,2.576,2.922,4.2a3.509,3.509,0,0,1-1.419,3.769,4.283,4.283,0,0,1-4.323.352,5.571,5.571,0,0,0-.883-.406c-1.138-.3-2.157.624-3.143,1.233a5.083,5.083,0,0,1-4.128.671,5.708,5.708,0,0,1-3.4-3.793c-1.7-4.542-.476-9.506,1.036-14.048.764-2.279,1.886-4.823,4.315-5.651" transform="translate(35.066 54.024)" fill="#5045af"/>
      <path id="Trazado_121320" data-name="Trazado 121320" d="M131.751,141.623c0,.5.883.937.323,2-1.24,2.357-5.1,5.635-9.7,4.121-.2,0-25.482,13.486-27.419,13.486s-15.2-11.535-19.553-25.8c-1.019-3.4-.629-7.4,2.854-9.116a7.961,7.961,0,0,1,4.757,3.9c2.888,4.979,11.484,21.478,13.387,22.1,2.378-1.467,13.947-4.683,23.324-8.273a6.285,6.285,0,0,0,3.635-2.794,27.313,27.313,0,0,1,3.89-5.572c.493-.484,6.048-3.2,6.048-2.31,0,.515-1.7,1.889-3.754,3.122a4.718,4.718,0,0,0-1.8,2.31c-.374.656,3.975-.546,4.332.827C132.125,139.874,131.734,141.435,131.751,141.623Z" transform="translate(38.626 62.887)" fill="#ffb9b0"/>
      <path id="Trazado_121321" data-name="Trazado 121321" d="M77.584,126a11.29,11.29,0,0,1,7.543,5.37,21.4,21.4,0,0,1,1.036,2.17c1.342,3.122,3.194,5.994,4.536,9.131a20.509,20.509,0,0,1-5.946,2.638,13.487,13.487,0,0,1-5.521.687,3.088,3.088,0,0,1-.934-.187,3.185,3.185,0,0,1-.968-.765c-.578-.609-1.138-1.233-1.7-1.857a5.078,5.078,0,0,1-1.138-1.779,5.161,5.161,0,0,1,.272-2.763" transform="translate(38.279 62.713)" fill="#7762ef"/>
      <g id="Grupo_55613" data-name="Grupo 55613" transform="translate(117.635 196.995)" opacity="0.35">
        <path id="Trazado_121322" data-name="Trazado 121322" d="M78.864,131.671a1.136,1.136,0,0,0-.442-.343.825.825,0,0,0-.9.375,1.611,1.611,0,0,0-.187.968,11.851,11.851,0,0,0,.646,3.762l-.442,6.65h0a13.408,13.408,0,0,0,5.1-.687c.781-.265,1.7-.546,2.48-.858C84.334,137.79,81.565,134.637,78.864,131.671Z" transform="translate(-77.323 -131.306)" fill="#7762ef"/>
      </g>
      <path id="Trazado_121323" data-name="Trazado 121323" d="M78.8,122.242s0,4.168.612,4.433a17.7,17.7,0,0,0,2.922.827v8.6L69.864,134.37l-8.494-4.386s8.919-2.716,8.987-3.528-.476-5.416-.476-5.416" transform="translate(29.164 59.931)" fill="#ffb9b0"/>
      <path id="Trazado_121324" data-name="Trazado 121324" d="M61.4,207.4h0c-3.4,14.876-1.784,35.292-2.548,46.484.17,0,4.638.562,4.638.562s10.55-47.187,12.469-56.193a10.216,10.216,0,0,0,.238-1.764c.459-6.79-6.2-7.133-9.955-1.561a23.324,23.324,0,0,0-1.7,3.028c-.2.453-.408.89-.612,1.374h0a42.136,42.136,0,0,0-1.7,4.683v.172c-.153.484-.272.968-.408,1.452v.109C61.636,206.383,61.517,206.882,61.4,207.4Z" transform="translate(27.403 99.197)" fill="#ffb9b0"/>
      <path id="Trazado_121325" data-name="Trazado 121325" d="M80.205,170.69c-.136,1.233-.849,7.087-1.7,14.048-.73,5.807-1.546,12.347-2.157,17.545-.476,3.887-.815,6.977-.951,8.445a18.176,18.176,0,0,1-.374,2.5h0c-1.614,6.79-6.71,7.18-9.819,5.6a7.536,7.536,0,0,1-1.172-.734,3.568,3.568,0,0,1-1.325-2.014h0c-.2-1.389-.391-3.294-.578-5.557h0c-.374-4.417-.7-10.084-.985-15.609-.34-6.79-.544-13.33-.595-17.014v-.609c0-11.317,11.28-18.575,18.313-15.063l.238.109.272.156c.8.484,1.07,2.185,1.087,4.121C80.409,167.865,80.307,169.41,80.205,170.69Z" transform="translate(28.591 82.536)" fill="#ffb9b0"/>
      <path id="Trazado_121326" data-name="Trazado 121326" d="M63.118,195.756l-.866-2.966h0a43.748,43.748,0,0,1-1.07,10.349v.172c-.119.468-.255.968-.408,1.452v.109a7.265,7.265,0,0,0-.374,1.561h0c0,1.342,3.109-4.683,3.822-6.025l.136-.281L63.509,197Z" transform="translate(28.486 100.177)" fill="#ffb9b0"/>
      <path id="Trazado_121327" data-name="Trazado 121327" d="M76.336,210.124h0c-.323,15.609,4.91,33.872,6.3,45.189.153,0,4.264-.515,4.264-.515s.781-47.686.832-57.114a11.712,11.712,0,0,0-.1-1.8c-.832-6.868-6.9-5.7-9.241.749a26.8,26.8,0,0,0-.985,3.418l-.306,1.561h0a46.134,46.134,0,0,0-.612,5.1v.172a8.118,8.118,0,0,1-.1,1.561v.125C76.353,209.047,76.353,209.594,76.336,210.124Z" transform="translate(39.612 99.31)" fill="#ffb9b0"/>
      <path id="Trazado_121328" data-name="Trazado 121328" d="M83.665,220.783a5.6,5.6,0,0,1-1.189-.468,3.2,3.2,0,0,1-1.546-1.7h0c-.442-1.342-.985-3.215-1.563-5.416V213.1c-1.155-4.292-2.514-9.865-3.771-15.3-1.563-6.665-2.973-13.127-3.686-16.8,0-.2-.7-2.872-.73-3.122C69,166.51,78.653,159.158,85.669,161.281l.289.078c1.41.531,1.8,5.089,2.106,8.164s2.7,35.012,3.3,40.787A19.85,19.85,0,0,1,91.5,212.9C91.292,220.065,86.756,221.642,83.665,220.783Z" transform="translate(35.8 82.298)" fill="#ffb9b0"/>
      <path id="Trazado_121329" data-name="Trazado 121329" d="M77.168,197.127,75.86,194.38h0a47.529,47.529,0,0,1,.951,10.536v.172a8.2,8.2,0,0,1-.1,1.561v.125a9.394,9.394,0,0,0,0,1.561h0c.238,1.342,1.937-5.307,2.327-6.868v-.3l-1.24-2.841Z" transform="translate(39.289 101.069)" fill="#ffb9b0"/>
      <path id="Trazado_121330" data-name="Trazado 121330" d="M67.382,153.784s-9.089,10.614-8.154,21.26c.391,4.433.985,8.351,1.546,12.815.085.64,1.172,10.006.866,10.021,0,0,18.687,5.307,36.8-1.655,0-1.139,1.444-22.946-8.324-43.706a171.167,171.167,0,0,1-22.73,1.264Z" transform="translate(27.62 77.588)" fill="#5146af"/>
      <path id="Trazado_121331" data-name="Trazado 121331" d="M95.29,144.746c0,3.028-1.835,4.886-4.349,7.446a83.285,83.285,0,0,0-1.376,11.723c-.136,2.341.951,3.824,0,4.012-3.635,2.9-16.716,5.276-22.713,1.3.629-4.9-1.7-15.687-3.4-21.166-.255-.843-.459-1.561-.663-2.107-1.512-4.168-4.213-17.529-2.208-18.107.391-.125,1.019-.265,1.7-.468,3.194-.812,7.831-2.373,7.831-2.373s2.718,7.383,9.785,8.273c3.856-1.452,3.517-5.947,3.4-8.008,1.257.328,1.818.64,5.725,1.7,1.1,1.452.153,4.5,1.92,9.007C91.468,137.113,95.375,141.046,95.29,144.746Z" transform="translate(28.116 62.152)" fill="#26aab7"/>
      <path id="Trazado_121332" data-name="Trazado 121332" d="M86.238,111.484s.713,8.039-.781,12.253a10.9,10.9,0,0,1-9.428,5.978c-10.431,0-12.3-13.018-12.248-13.658s15.391-6.088,15.391-6.088Z" transform="translate(30.848 53.721)" fill="#ffb9b0"/>
      <path id="Trazado_121333" data-name="Trazado 121333" d="M95.339,237.181c-3.72.624-7.7-.343-9.309-.078-1.359.2-4.808,1.015-6.1,0s-1.087-4.839.408-5.338a6.793,6.793,0,0,0,.951.2,11.24,11.24,0,0,0,4.4-.328,25.772,25.772,0,0,0,6.15,2.123,21.362,21.362,0,0,1,4.094,1.139C97.327,235.449,97.429,236.885,95.339,237.181Z" transform="translate(41.538 121.969)" fill="#5045af"/>
      <path id="Trazado_121334" data-name="Trazado 121334" d="M70.285,239.66c-3.72-.578-6.082-2.466-7.713-2.732-1.342-.219-4.723-.827-5.1-2.107-.255-.937.764-4.886,2.344-4.9a4.75,4.75,0,0,0,.832.5,10.679,10.679,0,0,0,4.264,1.061,22.739,22.739,0,0,0,4.994,3.918,19.323,19.323,0,0,1,3.4,2.341C74.515,238.724,72.459,239.988,70.285,239.66Z" transform="translate(26.416 121.004)" fill="#5045af"/>
      <path id="Trazado_121335" data-name="Trazado 121335" d="M33.11,138.156l3.4-3.746,20.861,17.17s10.193-12.487,12.979-16.343c3.075-4.277,5.861-7.929,10.363-8.648,1.036.593-.357,15.937-.9,16.312-6.286,4.324-18.534,18.278-22.424,19.012C52.9,162.678,33.11,138.156,33.11,138.156Z" transform="translate(9.416 63.044)" fill="#ffb9b0"/>
      <path id="Trazado_121336" data-name="Trazado 121336" d="M68.912,126.11s-4.264,0-6.1,1.436S52.23,141.688,52.23,141.688a5.532,5.532,0,0,0,2.293,4.433,13.351,13.351,0,0,0,6.3,2.5s4.4-4.012,6.88-5.838c1.546-1.14,1.7,1.67,1.7,1.67l7.747-6.946Z" transform="translate(22.777 62.775)" fill="#26aab7"/>
      <path id="Trazado_121337" data-name="Trazado 121337" d="M62.227,138.592c-.238-.109-.459-.234-.68-.359a5.576,5.576,0,0,1-2.8-2.591,7.91,7.91,0,0,1,0-6.244,24.581,24.581,0,0,1,2.854-3.013,8.828,8.828,0,0,0,1.7-5.245A31.686,31.686,0,0,1,63.7,115.6c.714-3.122,1.7-6.041,4.264-8.023,4.162-3.122,12.5-5.089,16.988-1.561.832.656.985,1.171,2.107,1.264a8.783,8.783,0,0,1,3.805,1.03c1.478.78,3.279,1.889,3.075,3.684a6.358,6.358,0,0,1-2.837,3.793,3.429,3.429,0,0,1-1.6.328c-1.7,0-3.228-1.015-4.96-.843a3.327,3.327,0,0,0-2.174,1.108c-.629.7-.544,1.686-1.274,2.357-1.172,1.061-2.99.968-4.366,1.655a1.579,1.579,0,0,0-.612.453,1.349,1.349,0,0,0-.136.687l-.085,2.014c-.7-.281-.764-1.171-1.325-1.561a1.669,1.669,0,0,0-1.988.109,3.041,3.041,0,0,0-.968,1.748,4.773,4.773,0,0,0,.391,2.4c.459,1.374,1.7,2.607,2.752,1.7.747,1.015,0,2.7-.085,3.84,0,.905,0,2.7.917,3.294s2.191.125,2.242,1.561a2.87,2.87,0,0,1-2.752,2.451,11.367,11.367,0,0,1-4.128-.656,6.937,6.937,0,0,0-4.128-.187,13.27,13.27,0,0,1-2.31.952A3.761,3.761,0,0,1,62.227,138.592Z" transform="translate(26.88 50.449)" fill="#5045af"/>
      <path id="Trazado_121338" data-name="Trazado 121338" d="M44.74,138.5s-4.893-3.606-5.232-4.683-.408-2.045-.815-3.013a5.874,5.874,0,0,0-3.4-3.122c-1.223-.468-.629-.843-1.937-.609-1.988.359-2.939,2.138-3.72,3.543-3.4,5.963,5.878,7.087,6.2,7.1.68,0,4.128,3.621,4.128,3.621" transform="translate(6.467 63.276)" fill="#ffb9b0"/>
      <path id="Trazado_121339" data-name="Trazado 121339" d="M29.26,136.754l3.4,2.06a1,1,0,0,0,.719.114.933.933,0,0,0,.589-.4l7.373-11.348L36.922,125l-7.848,10.567a.813.813,0,0,0,.187,1.186Z" transform="translate(6.47 62.152)" fill="#8484ef"/>
      <path id="Trazado_121340" data-name="Trazado 121340" d="M22.657,119.512l1.155.718,4.672-6.244-1.155-.734a4.124,4.124,0,0,0-5.317,1.264h0a3.368,3.368,0,0,0,.646,4.995Z" transform="translate(1.081 55.293)" fill="#c4c4f7"/>
      <path id="Trazado_121341" data-name="Trazado 121341" d="M19.54,129.468l21.49,3,4.91-6.572L35.084,108.63Z" transform="translate(-0.067 52.97)" fill="#c4c4f7"/>
      <path id="Trazado_121342" data-name="Trazado 121342" d="M20.34,124.624l20.131,2.732,1.954-2.622L25.487,117.74Z" transform="translate(0.492 58.08)" fill="#bbbbf2"/>
      <path id="Trazado_121343" data-name="Trazado 121343" d="M37.815,129.114h0a2.855,2.855,0,0,0,3.7-.89l.883-1.171a2.349,2.349,0,0,0-.459-3.481h0a2.856,2.856,0,0,0-3.7.874l-.883,1.171A2.364,2.364,0,0,0,37.815,129.114Z" transform="translate(11.981 61.16)" fill="#c4c4f7"/>
      <path id="Trazado_121344" data-name="Trazado 121344" d="M38.238,124.09l-.866,1.171a2.342,2.342,0,0,0-.57,1.833,2.44,2.44,0,0,0,1.012,1.664,2.873,2.873,0,0,0,3.72-.89L42.4,126.7a1.537,1.537,0,0,0,.17-.265,2.641,2.641,0,0,1-3.474.6,2.183,2.183,0,0,1-.654-3.192Z" transform="translate(11.983 61.501)" fill="#bbbbf2"/>
      <path id="Trazado_121345" data-name="Trazado 121345" d="M19.351,130.477h0a1.79,1.79,0,0,0,2.191-.515l14.729-19.746a1.356,1.356,0,0,0,.342-1.072,1.413,1.413,0,0,0-.6-.973h0a1.678,1.678,0,0,0-2.174.515L19.148,128.432A1.386,1.386,0,0,0,19.351,130.477Z" transform="translate(-0.592 52.601)" fill="#a4a4f7"/>
      <path id="Trazado_121346" data-name="Trazado 121346" d="M36.382,108.34,24.117,124.776a1.788,1.788,0,0,1-2.191.531,1.418,1.418,0,0,1-.374-.39l-2.412,3.309a1.388,1.388,0,0,0,.255,2.045,1.79,1.79,0,0,0,2.191-.515L36.314,110.01A1.455,1.455,0,0,0,36.382,108.34Z" transform="translate(-0.583 52.807)" fill="#8484ef"/>
      <path id="Trazado_121347" data-name="Trazado 121347" d="M34.059,129.8l1.393.874a5.143,5.143,0,0,0,6.642-1.561l1.376-1.857a4.182,4.182,0,0,0,1.014-3.274,4.359,4.359,0,0,0-1.812-2.969l-1.393-.874a5.125,5.125,0,0,0-6.625,1.561l-1.393,1.858a4.182,4.182,0,0,0-1.014,3.274,4.359,4.359,0,0,0,1.812,2.969Z" transform="translate(8.79 59.084)" fill="#a4a4f7"/>
      <path id="Trazado_121348" data-name="Trazado 121348" d="M33.869,122.05,31.8,124.828a1.311,1.311,0,0,0-.321,1.032,1.367,1.367,0,0,0,.576.934l6.472,4.058a1.625,1.625,0,0,0,2.09-.5l2.073-2.778a1.624,1.624,0,0,1-2.107.5l-6.506-4.043a1.375,1.375,0,0,1-.55-.952,1.329,1.329,0,0,1,.346-1.03Z" transform="translate(8.266 60.497)" fill="#8484ef"/>
      <path id="Trazado_121349" data-name="Trazado 121349" d="M29.568,132.978a5.855,5.855,0,0,1,1.189-4.683,9.19,9.19,0,0,1,1.206-1.186,1.709,1.709,0,0,1,.713-.453,2.567,2.567,0,0,1,1.58.328,2.766,2.766,0,0,1,1.291,1.186,1.526,1.526,0,0,1-.951,1.873s-.153.094-.17.156a.486.486,0,0,0,.119.375,2.529,2.529,0,0,1,.493,1.561.877.877,0,0,1-.39.625,1.036,1.036,0,0,1-.766.155c-.255,0-.578-.125-.663,0s0,.125,0,.2a1.546,1.546,0,0,1-.391,1.3.484.484,0,0,1-.306.172.755.755,0,0,1-.323,0,5.567,5.567,0,0,1-1.155-.468" transform="translate(6.876 63.071)" fill="#ffb9b0"/>
      <path id="Trazado_121350" data-name="Trazado 121350" d="M36.8,134.121a19.438,19.438,0,0,1-.391-2.419,5.487,5.487,0,0,0-2.837-4.527.74.74,0,0,0-.459-.125.5.5,0,0,0-.391.406,1.317,1.317,0,0,0,.1.562c.2.562,1.087,1.561.8,2.232a6.322,6.322,0,0,0-.7,2.81c0,.859.476,2.248,1.58,2.388" transform="translate(9.143 63.301)" fill="#ffb9b0"/>
      <line id="Línea_144" data-name="Línea 144" x2="4.332" y2="9.381" transform="translate(21.019 152.047)" fill="none" stroke="#c4c4f7" stroke-linecap="round" stroke-linejoin="round" stroke-width="0.75"/>
      <line id="Línea_145" data-name="Línea 145" x2="8.851" y2="6.103" transform="translate(11.999 160.382)" fill="none" stroke="#c4c4f7" stroke-linecap="round" stroke-linejoin="round" stroke-width="0.75"/>
      <line id="Línea_146" data-name="Línea 146" x2="11.025" y2="0.999" transform="translate(6.274 171.73)" fill="none" stroke="#c4c4f7" stroke-linecap="round" stroke-linejoin="round" stroke-width="0.75"/>
      <path id="Trazado_121351" data-name="Trazado 121351" d="M228,56.5s-3.958-2.56-4.094-3.637a24.938,24.938,0,0,0-3.788-6.244,22.4,22.4,0,0,0-6.506-2.607c-1-.14-6.676.312-5.963,1.015s4.383.453,5.1.843l.714.39s-.714.89-.425,1.42-1.223,1.358-.646,2.263-.238.843.272,1.8c.832,1.561,2.973,2.435,3.533,2.014.425.921,2.056,2.81,3.567,2.685s5.215,3.122,5.215,3.122" transform="translate(131.338 16.708)" fill="#ffb9b0"/>
      <path id="Trazado_121352" data-name="Trazado 121352" d="M261.23,40.28c.119,2.435,0,6.7.7,7.321s3.211.531,3.211.531-8.783,10.208-9.564,9.647-11.161-8.335-8.834-8.741,4.621-.312,4.553-1.42l-.2-3.34" transform="translate(158.463 14.631)" fill="#ffb9b0"/>
      <path id="Trazado_121353" data-name="Trazado 121353" d="M273.837,92.051s-17.141,1.779-21.082,1.857S249,92.1,249,92.1a130.352,130.352,0,0,0-1.7-16.577c-.764-2.981-1.087-4.074-1.7-6.9-1.478-6.244-1.41-7.492-2.973-15.25l10.193-7.555a5.511,5.511,0,0,0,5.351,2.95A8.013,8.013,0,0,0,265.7,45.13l13.947,8.523,1.325,20.713-1.7,17.061" transform="translate(155.828 17.351)" fill="#f5ca56"/>
      <path id="Trazado_121354" data-name="Trazado 121354" d="M262.577,43.8a25.311,25.311,0,0,1-1.206,3.621,4.483,4.483,0,0,1-4.74,3l-5.232.109a6.505,6.505,0,0,1-4.111-.8c-1.07-.858-1.087-2.31-1.325-3.5-.306-1.561-.561-3.122-.747-4.589a62.163,62.163,0,0,1-.459-9.069,5.06,5.06,0,0,1,.119-1.233.738.738,0,0,1,.221-.453,1.087,1.087,0,0,1,.629-.234,58.59,58.59,0,0,1,9.921-.578,12.1,12.1,0,0,1,6.676,1.561,11.4,11.4,0,0,1,3.551,5.526c.119.328.221.765-.085.968" transform="translate(157.303 8.896)" fill="#ffb9b0"/>
      <path id="Trazado_121355" data-name="Trazado 121355" d="M232.61,111.955a31.425,31.425,0,0,0,1.036,4.2c.442,1.077,4.264.094,4.519-.609a29.643,29.643,0,0,0-1.206-5.775" transform="translate(148.826 53.609)" fill="#ed9c80"/>
      <path id="Trazado_121356" data-name="Trazado 121356" d="M243.093,114.438c.323,1.155.747,3.372.747,3.372l-3.822,1.561-.629-.546a7.049,7.049,0,0,1-2.124,1.561,17.54,17.54,0,0,1-3.7.937c-3.4.328-5.793-.25-5.98-.671-.832-1.779,3.584-2.248,4.468-2.466a5.643,5.643,0,0,0,4.2-3.855c.187-.937,0-1.093.51-1.061a1.359,1.359,0,0,1,.951.406,2.579,2.579,0,0,0,2.718.578,2.8,2.8,0,0,0,1.359-1.03A1.633,1.633,0,0,1,243.093,114.438Z" transform="translate(145.24 55.544)" fill="#38287c"/>
      <path id="Trazado_121357" data-name="Trazado 121357" d="M256.229,90.912a70.48,70.48,0,0,1-19.519.421c.849,2.217,2.922,5.073,3.7,8.195,2.6,10.349,3.516,24.241,4.162,32.779,0,0-1.24,2.2-5.249.531-5.98-13.58-16.427-41.1-16.325-47.077.119-7.6,20.759-9.366,35.9-11.3" transform="translate(142.11 33.803)" fill="#453087"/>
      <path id="Trazado_121358" data-name="Trazado 121358" d="M281.657,75.733c4.757,3.122-26.365,15.219-26.365,15.219a55.66,55.66,0,0,1-10.193.89,6.4,6.4,0,0,1-.764-1.779c-.17-.827,0-1.686-.238-2.529a5.911,5.911,0,0,0-3.109-3.84,14.428,14.428,0,0,0-5.1-1.561,74.146,74.146,0,0,0-11.552-.187c9.36-6.337,28.506-7.18,37.374-7.7C263.446,76.888,280.978,75.265,281.657,75.733Z" transform="translate(143.047 33.685)" fill="#38287c"/>
      <path id="Trazado_121359" data-name="Trazado 121359" d="M238.423,116.327a30.392,30.392,0,0,0,.221,4.308c.238,1.124,4.2.749,4.57.109a28.7,28.7,0,0,0-.085-5.885" transform="translate(152.883 56.464)" fill="#ed9c80"/>
      <path id="Trazado_121360" data-name="Trazado 121360" d="M248.7,120.11c.1,1.186.085,3.434.085,3.434l-4.043.905-.51-.64a7.231,7.231,0,0,1-2.4,1.186,16.355,16.355,0,0,1-3.805.343c-3.4-.2-5.657-1.171-5.776-1.561-.476-1.889,3.958-1.655,4.876-1.717a5.9,5.9,0,0,0,4.859-3.122c.357-.89.153-1.093.7-.968a1.4,1.4,0,0,1,.866.562,2.523,2.523,0,0,0,2.565,1,3.012,3.012,0,0,0,1.529-.8A1.573,1.573,0,0,1,248.7,120.11Z" transform="translate(148.553 58.191)" fill="#38287c"/>
      <path id="Trazado_121361" data-name="Trazado 121361" d="M283.58,74.79a208.325,208.325,0,0,1-21.082.624c-2.7,0-23.07,3.512-25.023,6.681-3.194,5.213,2.09,35.714,1.6,57.551,0,0,2.446,1.873,6.8.109,1.087-10.724,7.984-36.026,3.228-47.842,11.229,1.374,20.284,2.732,30.493-.375a7.782,7.782,0,0,0,5.249-5.12C285.89,83.578,285.33,77.334,283.58,74.79Z" transform="translate(151.504 33.988)" fill="#453087"/>
      <path id="Trazado_121362" data-name="Trazado 121362" d="M271.859,45.57l-2.922.156a24.611,24.611,0,0,0-6.048,1.061c-2.786.937-4.74,3.309-7,5.167s-13.454,11.66-15.561,12.019-20.47-11.254-20.47-11.254l-4.519,4.136S235.386,73.87,241.349,73.9c2.9,0,18.908-7.727,24.021-10.739Z" transform="translate(136.758 17.598)" fill="#f5ca56"/>
      <path id="Trazado_121363" data-name="Trazado 121363" d="M241.35,66.853c-4.111.219-22.985-13.018-25.176-14.563l-.883.8S235.336,70.1,241.3,70.131c2.429,0,13.93-5.354,20.657-8.9l1.7-.921L262.618,54.6S245.732,66.635,241.35,66.853Z" transform="translate(136.723 21.367)" fill="#ce4a30" opacity="0.25"/>
      <path id="Trazado_121364" data-name="Trazado 121364" d="M222.672,86.67h45.868l-8.222-24.631a3.5,3.5,0,0,0-3.4-2.279H216.794a2.35,2.35,0,0,0-1.848.846,1.955,1.955,0,0,0-.344,1.87Z" transform="translate(136.17 25.557)" fill="#a4a4f7"/>
      <path id="Trazado_121365" data-name="Trazado 121365" d="M222.667,86.67h45.171L259.6,62.039a3.482,3.482,0,0,0-3.4-2.279H216.042a2.365,2.365,0,0,0-1.838.852,1.969,1.969,0,0,0-.353,1.864l7.882,23.586A.915.915,0,0,0,222.667,86.67Z" transform="translate(135.648 25.557)" fill="#7a74d1"/>
      <g id="Grupo_55614" data-name="Grupo 55614" transform="translate(399.464 62.528)" opacity="0.25">
        <path id="Trazado_121366" data-name="Trazado 121366" d="M272.557,57.679a150.794,150.794,0,0,0-3.4,23.679c-8.018,2.857-11.28,7.118-19.129,10.318,0,0-6.184-.937-6.8,1.2-.374,1.233,7.254,2.216,7.254,2.216,7.271,0,26.433-4.839,27.741-5.167s5.1-22.711,5.215-34.871a7.142,7.142,0,0,0-1.223-4.933,6.809,6.809,0,0,0-2.361-1.561,35.444,35.444,0,0,0-14.627-3.4" transform="translate(-243.222 -45.16)" fill="#ce4a30"/>
      </g>
      <path id="Trazado_121367" data-name="Trazado 121367" d="M253.221,76.314a4.854,4.854,0,0,0-3.822-1.108,25.175,25.175,0,0,0-3.058.219c-.459,0-1,.172-1.053.624s2.259,0,3.4.328q-3.543.261-7.1.172a2.048,2.048,0,0,0-.815,0,.618.618,0,0,0-.459.562.787.787,0,0,0,.323.5,5.05,5.05,0,0,0,2.446.905,20.326,20.326,0,0,0,10.77-.874" transform="translate(154.207 34.196)" fill="#ffb9b0"/>
      <path id="Trazado_121368" data-name="Trazado 121368" d="M269.217,57.491c-.187,10.146-.968,14.782-.747,24.975-5.538,1.093-13.217,6.852-21.048,10.068a3.441,3.441,0,0,0,.255,2.622c.595.2,26.45-5.573,28.506-7.321s4.3-20.557,4.451-32.779a7.142,7.142,0,0,0-1.223-4.933,6.809,6.809,0,0,0-2.361-1.561,35.444,35.444,0,0,0-14.627-3.4" transform="translate(159.071 17.368)" fill="#f5ca56"/>
      <path id="Trazado_121369" data-name="Trazado 121369" d="M238.048,70.022c.17,2.17-2.616,3.918-6.2,3.918s-6.642-1.748-6.8-3.918,2.616-3.9,6.218-3.9S237.878,67.868,238.048,70.022Z" transform="translate(143.541 29.125)" fill="none" stroke="#a4a4f7" stroke-miterlimit="10" stroke-width="1" opacity="0.45"/>
      <path id="Trazado_121426" data-name="Trazado 121426" d="M2.157,0c1.2,0,2.176,1.855,2.183,4.135s-.959,4.124-2.157,4.12S.007,6.4,0,4.12.959,0,2.157,0Z" transform="translate(370.862 101.145) rotate(-87.77)" fill="#a4a4f7"/>
      <path id="Trazado_121370" data-name="Trazado 121370" d="M255.43,34.853c0-.39-1-.453-1.92-.359a15.306,15.306,0,0,0-3.873.765c-.51.359-.476.609-.748.64s-.272-.219-.866-.468a8.42,8.42,0,0,0-2.922,0c-.917.109-1.784.3-1.7.671a2.054,2.054,0,0,0,.357,1.171c.187.109.187.094.917,1.561a1.586,1.586,0,0,0,.837,1,1.834,1.834,0,0,0,1.371.1,2.4,2.4,0,0,0,1.7-2.56c0-.671.221-.749.459-.78s.391,0,.68.656.493,2.029,2.056,2.107c2.022.109,2.9-.531,3.194-1.733.374-1.561.289-1.561.442-1.764a9.229,9.229,0,0,1,1.512.109v-.484A13.109,13.109,0,0,1,255.43,34.853Zm-7.373,3.262a1.6,1.6,0,0,1-1.495,1.7c-.934.109-1.359-.343-1.852-1.452a2.623,2.623,0,0,1-.289-1.967c.153-.265.663-.25,1.818-.328s1.546-.078,1.7.39A5.3,5.3,0,0,1,248.057,38.115Zm6.625-.89a1.9,1.9,0,0,1-1.937,1.873c-1.8.2-2.157-.453-2.429-1.249a6.027,6.027,0,0,1-.34-1.639c0-.484.442-.546,1.58-.749s2.667-.437,2.888-.219a2.615,2.615,0,0,1,.17,1.982Z" transform="translate(156.363 11.363)" fill="#483a99"/>
      <path id="Trazado_121371" data-name="Trazado 121371" d="M268.273,36.25a14.9,14.9,0,0,0-.51-2.5,8.018,8.018,0,0,0-4.23-5.1,14.684,14.684,0,0,0-9.581-.874c-1.7.453-2.412,1.3-3.4,1.264a10.407,10.407,0,0,1-2.463-.734c-6.8-2.263-5.708,3.9-4.978,5.588.323.749,1.886,1.3,2.09,1.561a18.722,18.722,0,0,1,.323,2.513,1.361,1.361,0,0,0,.849.937V36.64a2.45,2.45,0,0,1,1.019-1.858,6.877,6.877,0,0,1,2.463-.64,20.2,20.2,0,0,1,5.1.765c1.291,1.015,1.7,3.325,1.971,4.683.17.64.34,1.061.629,1.061.2-1.873.917-1.92,2.123-1.28a3.091,3.091,0,0,1,1.036,2.513,2.685,2.685,0,0,1-2.039,2.763c-.493.094.968,2.638,1.7,3.278a4.106,4.106,0,0,0,.714.578,3.683,3.683,0,0,0,.832.281l.968.234a2.89,2.89,0,0,0,1.359.109c.714-.187,1.1-.89,1.427-1.561a34.709,34.709,0,0,0,1.6-3.122,16.95,16.95,0,0,0,1-8.195Z" transform="translate(155.785 7.375)" fill="#483a99"/>
      <path id="Trazado_121372" data-name="Trazado 121372" d="M366.142,109.691H279.35l10.4-7.071v-34.5A5.457,5.457,0,0,1,295.4,62.91h70.738a5.458,5.458,0,0,1,5.674,5.213v36.354a5.458,5.458,0,0,1-5.674,5.213Z" transform="translate(181.488 27.324)" fill="#aee6e6"/>
      <rect id="Rectángulo_30540" data-name="Rectángulo 30540" width="39.667" height="3.481" transform="translate(506.094 96.962)" fill="#fff" opacity="0.45"/>
      <rect id="Rectángulo_30541" data-name="Rectángulo 30541" width="39.667" height="3.481" transform="translate(506.094 102.175)" fill="#fff" opacity="0.45"/>
      <rect id="Rectángulo_30542" data-name="Rectángulo 30542" width="39.667" height="3.481" transform="translate(506.094 107.389)" fill="#fff" opacity="0.45"/>
      <rect id="Rectángulo_30543" data-name="Rectángulo 30543" width="39.667" height="3.481" transform="translate(506.094 112.462)" fill="#fff" opacity="0.45"/>
      <rect id="Rectángulo_30544" data-name="Rectángulo 30544" width="27.673" height="3.481" transform="translate(506.094 118.534)" fill="#fff" opacity="0.45"/>
      <rect id="Rectángulo_30545" data-name="Rectángulo 30545" width="24.921" height="26.77" rx="3.39" transform="translate(478.063 96.962)" fill="#26aab7" opacity="0.41"/>
      <rect id="Rectángulo_30546" data-name="Rectángulo 30546" width="24.921" height="2.872" transform="translate(478.063 127.072)" fill="#fff" opacity="0.45"/>
      <path id="Trazado_121373" data-name="Trazado 121373" d="M303.114,81.216h-8.953a1.093,1.093,0,0,1-1.087-.765l-1.7-5.9a.98.98,0,0,1,.2-.9,1.175,1.175,0,0,1,.892-.412h12.52a1.159,1.159,0,0,1,.9.406.964.964,0,0,1,.187.905l-1.7,5.9a1.123,1.123,0,0,1-1.257.765Z" transform="translate(189.865 33.119)" fill="#fff"/>
      <path id="Trazado_121374" data-name="Trazado 121374" d="M303.78,83.766H292.891a.2.2,0,1,1,0-.406H303.61L307.4,71.216a.219.219,0,0,1,.221-.156h2.361a.23.23,0,0,1,.162.065.193.193,0,0,1,.058.154.212.212,0,0,1-.221.2h-2.208l-3.788,12.144A.2.2,0,0,1,303.78,83.766Z" transform="translate(190.796 31.896)" fill="#fff"/>
      <path id="Trazado_121375" data-name="Trazado 121375" d="M294.809,80.7a1.28,1.28,0,0,1-1.325,1.171,1.21,1.21,0,0,1,0-2.419,1.385,1.385,0,0,1,.949.368A1.166,1.166,0,0,1,294.809,80.7Z" transform="translate(190.543 36.602)" fill="#fff"/>
      <ellipse id="Elipse_4067" data-name="Elipse 4067" cx="1.325" cy="1.218" rx="1.325" ry="1.218" transform="translate(492.282 116.083)" fill="#fff"/>
      <path id="Trazado_121376" data-name="Trazado 121376" d="M143.555,87.595H254.147L240.913,78.6V23.02c0-3.672-3.24-6.65-7.237-6.65H143.64a7.555,7.555,0,0,0-5.111,1.949,6.371,6.371,0,0,0-2.109,4.7V80.977a6.939,6.939,0,0,0,7.135,6.618Z" transform="translate(81.609 1.219)" fill="#d5d2ff"/>
      <g id="Grupo_55615" data-name="Grupo 55615" transform="translate(227.542 27.891)" opacity="0.45">
        <rect id="Rectángulo_30547" data-name="Rectángulo 30547" width="50.539" height="4.449" transform="translate(50.556 4.449) rotate(180)" fill="#fff"/>
        <rect id="Rectángulo_30548" data-name="Rectángulo 30548" width="50.539" height="4.449" transform="translate(50.556 11.098) rotate(180)" fill="#fff"/>
        <rect id="Rectángulo_30549" data-name="Rectángulo 30549" width="50.539" height="4.449" transform="translate(50.556 17.732) rotate(180)" fill="#fff"/>
        <rect id="Rectángulo_30550" data-name="Rectángulo 30550" width="50.539" height="4.449" transform="translate(50.556 24.194) rotate(180)" fill="#fff"/>
        <rect id="Rectángulo_30551" data-name="Rectángulo 30551" width="50.539" height="4.449" transform="translate(50.556 30.672) rotate(180)" fill="#fff"/>
        <rect id="Rectángulo_30552" data-name="Rectángulo 30552" width="50.539" height="4.449" transform="translate(50.556 42.426) rotate(180)" fill="#fff"/>
        <rect id="Rectángulo_30553" data-name="Rectángulo 30553" width="86.265" height="4.449" transform="translate(86.265 49.419) rotate(180)" fill="#fff"/>
      </g>
      <rect id="Rectángulo_30554" data-name="Rectángulo 30554" width="31.751" height="34.106" rx="4.31" transform="translate(313.807 62.013) rotate(180)" fill="#c4c4f7"/>
      <rect id="Rectángulo_30555" data-name="Rectángulo 30555" width="31.751" height="3.668" transform="translate(313.807 69.927) rotate(180)" fill="#fff" opacity="0.45"/>
      <path id="Trazado_121377" data-name="Trazado 121377" d="M183.112,40.812h11.535a1.411,1.411,0,0,0,1.376-.983l2.225-7.508A1.242,1.242,0,0,0,198,31.17a1.492,1.492,0,0,0-1.144-.52H180.9a1.492,1.492,0,0,0-1.144.52,1.242,1.242,0,0,0-.249,1.15l2.225,7.508a1.411,1.411,0,0,0,1.376.983Z" transform="translate(111.686 9.229)" fill="#fff"/>
      <path id="Trazado_121378" data-name="Trazado 121378" d="M183.8,44.051h13.879a.259.259,0,1,0,0-.515h-13.59l-4.91-15.469a.27.27,0,0,0-.272-.187h-3.024a.266.266,0,1,0,0,.531h2.8l4.842,15.469A.272.272,0,0,0,183.8,44.051Z" transform="translate(108.981 7.675)" fill="#fff"/>
      <path id="Trazado_121379" data-name="Trazado 121379" d="M187.34,40.131a1.7,1.7,0,1,0,1.7-1.561A1.634,1.634,0,0,0,187.34,40.131Z" transform="translate(117.191 13.671)" fill="#fff"/>
      <path id="Trazado_121380" data-name="Trazado 121380" d="M180.15,40.131a1.7,1.7,0,1,0,1.7-1.561A1.634,1.634,0,0,0,180.15,40.131Z" transform="translate(112.167 13.671)" fill="#fff"/>
      <ellipse id="Elipse_4068" data-name="Elipse 4068" cx="48.738" cy="4.714" rx="48.738" ry="4.714" transform="translate(432.213 372.059)" fill="#eae6ff"/>
      <path id="Trazado_121381" data-name="Trazado 121381" d="M280.455,242.654a12.421,12.421,0,0,1-5.1,3.543c-2.718,1.108-8.494,1.561-5.266,2.607a20.736,20.736,0,0,0,8.817.109,41.531,41.531,0,0,1,5.946-.328c2.922,0,2.956-.187,2.548-3.231C286.86,241.172,281.763,240.282,280.455,242.654Z" transform="translate(174.352 127.422)" fill="#9aa3f4"/>
      <path id="Trazado_121382" data-name="Trazado 121382" d="M309.788,241.965c-.17.843,1.138,3.4-1.189,5.276s-7.645,3.855-4.128,3.934a21.958,21.958,0,0,0,8.681-1.561c1.7-.812.357-2.092,2.565-2.732,2.922-.843,2.327-2.825.8-4.043C314.579,238.89,310.315,239.233,309.788,241.965Z" transform="translate(198.225 126.598)" fill="#9aa3f4"/>
      <path id="Trazado_121383" data-name="Trazado 121383" d="M318.133,199.006s7-18.918-12.86-34.5c0,0-10.634,3.9-19.162,4.371a50.793,50.793,0,0,1-10.193-.2s-.561,16.8-.578,25.849Z" transform="translate(178.685 84.314)" fill="#4a41a3"/>
      <path id="Trazado_121384" data-name="Trazado 121384" d="M274.435,208.893c-.391-8.445,9.6-7.336,13.268-1.03,7.611,13.065-2.8,43.144-4.179,57.4a8.59,8.59,0,0,1-5.266.3,3.49,3.49,0,0,1-1.529-1.561C276.949,246.527,274.842,217.946,274.435,208.893Z" transform="translate(178.045 105.818)" fill="#4a41a3"/>
      <path id="Trazado_121385" data-name="Trazado 121385" d="M287.314,226.621c-1.155,3.45-13.879,7.071-12.86-5.494.459-5.573,1.7-36.338,1.92-39.3s.781-7.305,2.344-7.8c7.8-2.7,21.592,6.681,19.536,17.81C296.963,199.227,289.76,219.519,287.314,226.621Z" transform="translate(178.026 89.385)" fill="#4a41a3"/>
      <path id="Trazado_121386" data-name="Trazado 121386" d="M294.079,213.249c-3.092-7.976,6.914-9.366,12.588-4.48,13.285,11.5,13.794,38.617,16.988,52.6a12.2,12.2,0,0,1-5.81,1.561,2.121,2.121,0,0,1-1.58-.734C310.931,245.4,297.357,221.771,294.079,213.249Z" transform="translate(191.375 107.55)" fill="#4a41a3"/>
      <path id="Trazado_121387" data-name="Trazado 121387" d="M312.2,227.842c.34,3.59-10.193,11.02-14.44-.968-1.869-5.323-9.785-36.775-10.787-39.616s-.73-8.663.51-9.709c6.116-5.2,19.944-.624,22.594,10.411C311.842,195.25,311.485,220.318,312.2,227.842Z" transform="translate(186.386 90.427)" fill="#4a41a3"/>
      <path id="Trazado_121388" data-name="Trazado 121388" d="M269.39,126.481c.357-.359.713-.7,1.036-1.093,2.514-2.95,2.888-5.573,5.215-9.007a28.894,28.894,0,0,1,1.7-2.966,13.419,13.419,0,0,1,3.788-2.857c1.087-.531.153,1.686.153,1.686s.917-1.233,1.818-1.155c.34,0,.408,1.92.408,2.248a14.687,14.687,0,0,1-1.9,7.461,3.676,3.676,0,0,0-.663,1.7,4.333,4.333,0,0,0,2.208-1,2.775,2.775,0,0,1,2.293-.609,5.386,5.386,0,0,1-.442.874,9.446,9.446,0,0,1-4.026,4.371c-1.138.5-2.463.593-3.567,1.14-2.022.983-2.99,3.262-5.1,4.183" transform="translate(174.528 54.006)" fill="#f2a181"/>
      <path id="Trazado_121427" data-name="Trazado 121427" d="M1.423.194,8.037,0A.9.9,0,0,1,9,.9l-.4,13.033a1.035,1.035,0,0,1-1.018.961l-6.614.193a.9.9,0,0,1-.961-.9L.4,1.155A1.035,1.035,0,0,1,1.423.194Z" transform="translate(454.709 164.524) rotate(22.7)" fill="#5e5dbb"/>
      <path id="Trazado_121428" data-name="Trazado 121428" d="M.413.211,7.613,0,7.2,13.3,0,13.511Z" transform="translate(455.26 165.598) rotate(22.7)" fill="#b4b4db"/>
      <path id="Trazado_121389" data-name="Trazado 121389" d="M298.575,133.077a51.514,51.514,0,0,0-9.717,1.561c-6.914,1.9-9.292,4.839-11.688,6.056,4.638-5.416,9.819-16.9,9.819-16.9s-6.252-4.683-6.965-3.59-26.892,29.267-26.077,33.825c.34,1.873,3.4,3.731,6.048,3.653,7.424-.234,16.054-2.716,25.091-5.432,3.958-1.2,5.2,1.374,5.2,1.374" transform="translate(163.723 59.366)" fill="#7a74d1"/>
      <path id="Trazado_121390" data-name="Trazado 121390" d="M269.444,134.289s-3.3,6.1-4.281,6.509,2.4-1.28,4.247-3.028a35.181,35.181,0,0,0,4.4-6.4,39.782,39.782,0,0,0-4.366,2.919Z" transform="translate(171.45 65.725)" fill="#6960c4"/>
      <path id="Trazado_121391" data-name="Trazado 121391" d="M275.363,114.29a1.281,1.281,0,0,1,.459.952,6.867,6.867,0,0,1-.119,4.058,6.086,6.086,0,0,1-1.7,2.076,14.008,14.008,0,0,1-2.684,1.686" transform="translate(175.876 56.144)" fill="#f2a181"/>
      <path id="Trazado_121392" data-name="Trazado 121392" d="M282.241,107.78c-1.7.468-2.667,2.544-3.262,3.949a20.84,20.84,0,0,0-1.308,5.354,6.542,6.542,0,0,0,.289,3.746,7.281,7.281,0,0,0,1.138,1.561,3.445,3.445,0,0,0,.815.8,1.348,1.348,0,0,0,1.138.172c.544-.187.764-.781.917-1.3a32.87,32.87,0,0,1,4.179-9.709" transform="translate(180.21 52.493)" fill="#170d54"/>
      <path id="Trazado_121393" data-name="Trazado 121393" d="M280.6,115.058c0-1.077-1.274-1.764-2.327-.656a6.454,6.454,0,0,0-1.172,3.949c0,1.561,1.24,1.858,2.31,2.076" transform="translate(179.913 55.891)" fill="#f2a181"/>
      <path id="Trazado_121394" data-name="Trazado 121394" d="M272.6,134.015c2.157-2.279,9.021-6.025,18.16-5.76,6.32.187,23.494,1.139,25.482,5.026.985,1.982,2.039,22.274.595,29.267-1.138,5.276-3.941,18.388-3.941,21.51s1.835,4.5.985,5.416c-1.92,2.045-15.068,2.9-21.235,2.9-5.5,0-14.847-1.342-15.289-2.966-.714-2.4,1.07-2.31,1.308-4.823s.934-18.856,0-21.525c-1.818-4.823-2.7-12.69-4.145-16.265C273.35,144.036,270.428,136.294,272.6,134.015Z" transform="translate(176.225 63.97)" fill="#7a74d1"/>
      <path id="Trazado_121395" data-name="Trazado 121395" d="M304.982,142.506c.663,1.249,5.1,7.8,5.1,7.8l.187.8a29.613,29.613,0,0,1-.459,3.5c-1.07,5.292-3.873,18.4-3.873,21.525s1.7,4.449.985,5.416c-1.512,1.889-26.3,6.134-25.091.859.119-.468,20.81-14.985,20.912-15.469.968-4.168,1.784-7.165,2.208-10.193C305.933,149.359,304.337,141.257,304.982,142.506Z" transform="translate(183.189 71.9)" fill="#6960c4"/>
      <path id="Trazado_121396" data-name="Trazado 121396" d="M280.846,125.1a57.412,57.412,0,0,1-.357,6.868,11.877,11.877,0,0,1-1.7.89s1,5.729,2.565,5.307,11.892-5.213,11.892-5.213-1.461-.562-1.461-1.093,1.376-10.926,1.376-10.926" transform="translate(181.096 59.869)" fill="#ffbe9d"/>
      <path id="Trazado_121397" data-name="Trazado 121397" d="M289.172,108.24c-1.495.375-5.47-.39-6.574,1.124a34.058,34.058,0,0,0-2.463,6.244,60.305,60.305,0,0,0-1.937,6.244c-.781,2.685-2.056,7.617.815,9.865a3.863,3.863,0,0,0,2.208,1.03c1.359.234,2.7.484,4.06.7a14.625,14.625,0,0,0,6.523.14c2.786-.843,4.315-4.371,5.1-6.759l4.094-13.7Z" transform="translate(180.007 52.751)" fill="#ffbe9d"/>
      <path id="Trazado_121398" data-name="Trazado 121398" d="M280.589,133.62s-.612,25.771-1.7,41.442l4.128,5.229,2.837-6.556a183.738,183.738,0,0,0-2.684-39.928Z" transform="translate(181.166 66.987)" fill="#3b2e7a"/>
      <path id="Trazado_121399" data-name="Trazado 121399" d="M279.33,132.753l.1.359a6.253,6.253,0,0,0,.849,1.9h0l2.531.187s1.7-.827,1.937-1.733-2.82-2.341-2.82-2.341l-.374.141a5.206,5.206,0,0,0-2.191,1.452Z" transform="translate(181.474 65.59)" fill="#3b2e7a"/>
      <path id="Trazado_121400" data-name="Trazado 121400" d="M290.573,126.9a10.452,10.452,0,0,1,2.888,2.7c-1.308,2.732-4.247,7.586-7.475,9.8a13.8,13.8,0,0,0-5.1-5.9S289.673,132.067,290.573,126.9Z" transform="translate(182.564 63.218)" fill="#fff"/>
      <path id="Trazado_121401" data-name="Trazado 121401" d="M283.016,133.374a10.553,10.553,0,0,0-5.1,4.4,20.344,20.344,0,0,1,.68-8.164s2.072-2.435,2.786-2.482a12,12,0,0,0,1.631,6.244Z" transform="translate(180.387 63.347)" fill="#fff"/>
      <path id="Trazado_121402" data-name="Trazado 121402" d="M283.708,168a9.539,9.539,0,0,0-6.065,3.122c-.153.14-.306.3-.272.484s.34.328.595.359c1.444.219,1.7-.624,3.058-1.155l2.735-1.077" transform="translate(180.102 86.272)" fill="#f2a181"/>
      <path id="Trazado_121403" data-name="Trazado 121403" d="M286.013,155.034l11.11,32.779a1.091,1.091,0,0,1-.152,1.055,1.307,1.307,0,0,1-1.02.505l-23.24,1.873a2.155,2.155,0,0,1-1.954-1.374l-11.892-32.217c-.289-.874,1.087-2.123,2.022-2.138l23.172-1.857a2.1,2.1,0,0,1,1.953,1.374Z" transform="translate(167.146 78.228)" fill="#e9e6ff"/>
      <path id="Trazado_121404" data-name="Trazado 121404" d="M285.22,155.523l10.957,32.2a1.089,1.089,0,0,1-.092,1.123,1.307,1.307,0,0,1-1.08.532l-23.172,1.92a2.138,2.138,0,0,1-1.954-1.374l-10.94-32.2a1.091,1.091,0,0,1,.153-1.055,1.307,1.307,0,0,1,1.02-.505l23.172-1.873A2.143,2.143,0,0,1,285.22,155.523Z" transform="translate(167.174 78.581)" fill="#e0d9ff"/>
      <path id="Trazado_121405" data-name="Trazado 121405" d="M263.49,154.718l.815,2.825,10.838-.874-.883-2.81Z" transform="translate(170.405 78.34)" fill="#fff"/>
      <path id="Trazado_121406" data-name="Trazado 121406" d="M264.761,153.7c.238.656,1.087,3.2,1.087,3.2l5.181-.437-1.087-3.2a3.5,3.5,0,0,0-3.4-2.263,2.138,2.138,0,0,0-1.652.926A1.8,1.8,0,0,0,264.761,153.7Zm1.155,0a1,1,0,0,1,.028-1.02,1.187,1.187,0,0,1,.941-.541,1.966,1.966,0,0,1,1.937,1.264,1.015,1.015,0,0,1-.044,1.019,1.2,1.2,0,0,1-.941.542,1.954,1.954,0,0,1-1.92-1.327Z" transform="translate(171.172 76.736)" fill="#fff"/>
      <path id="Trazado_121407" data-name="Trazado 121407" d="M292.824,166.52c-2.429.468-8.9,2.232-9.581,2.529a29.142,29.142,0,0,0-4.128,2.81c-2.446,2.248-1.206,3.294-2.158,6.337a1.58,1.58,0,0,0,0,.484c0,.328.476.593.951.3.255.39,1,.156,1.359-.281,0,.312.459.5,1.206.125.408-.2.34-.187,1.257-.952a9.829,9.829,0,0,1,2.65-1.467,20.4,20.4,0,0,0,2.565-1.093c.985-.593,2.735-.734,3.6-3.309a2.815,2.815,0,0,1,1.359-1.249l3.958-2.279" transform="translate(179.803 85.441)" fill="#ffbe9d"/>
      <path id="Trazado_121408" data-name="Trazado 121408" d="M302.84,145.171c1.019,3.372,5.317,26.77,5.317,26.77L284,188.019l2,4.854s28.879-8.913,31.19-15,2.157-33.638-5.861-43.3a18.415,18.415,0,0,0-7.679-4.683" transform="translate(184.737 64.895)" fill="#7a74d1"/>
      <path id="Trazado_121409" data-name="Trazado 121409" d="M282,171.92l-.595.5a8.2,8.2,0,0,0-1.257,1.139c-.408.453-.816.921-1.155,1.249a4.662,4.662,0,0,1-.629.515,10.731,10.731,0,0,1,1.478-2.014,5.437,5.437,0,0,1,1.444-1.03Z" transform="translate(180.796 88.47)" fill="#f2a181"/>
      <path id="Trazado_121410" data-name="Trazado 121410" d="M281.187,171a3.522,3.522,0,0,0-.679.718,9.434,9.434,0,0,0-.595.78l-.323.453a4.324,4.324,0,0,0-.272.468,11.1,11.1,0,0,1-1.7,2.622,9.649,9.649,0,0,1,.391-.89c.255-.515.595-1.2.951-1.873a6.794,6.794,0,0,1,1.393-1.7A3.388,3.388,0,0,1,281.187,171Z" transform="translate(180.279 87.954)" fill="#f2a181"/>
      <path id="Trazado_121411" data-name="Trazado 121411" d="M279.973,170.21a7.07,7.07,0,0,1-.578.765c-.187.218-.425.453-.629.734a5.638,5.638,0,0,0-.459.952c-.289.671-.561,1.358-.781,1.873s-.357.859-.357.859a5.574,5.574,0,0,1,.1-.921,7.555,7.555,0,0,1,.68-1.951,5.353,5.353,0,0,1,.578-.983,9.951,9.951,0,0,1,.73-.687,6.245,6.245,0,0,0,.713-.64Z" transform="translate(179.964 87.511)" fill="#f2a181"/>
      <path id="Trazado_121412" data-name="Trazado 121412" d="M297.863,126.245c-.934-.515-1.7-1.046-2.276-.219-.34.453-.527,1.061-1.087,1.2a1.1,1.1,0,0,1-1.274-.812,2.889,2.889,0,0,1,.2-1.561c.391-1.124.765-2.248,1.155-3.372a4.663,4.663,0,0,0,.255-3.372,3.854,3.854,0,0,0-1.155-1.374,13,13,0,0,0-5.64-2.295,60.812,60.812,0,0,1-6.065-1.139,6.657,6.657,0,0,1-2.31-1.061,4.529,4.529,0,0,1-1.7-3.434,6.589,6.589,0,0,1,1.189-3.668,5.217,5.217,0,0,0,.595,1.28,4.85,4.85,0,0,1,1.1-1.561c.595,3.013,14.44,2.014,17.667,3.34,2.242.921,4.094,1.561,4.026,4.87a1.329,1.329,0,0,0,.442.531,9.008,9.008,0,0,1,3.092,6.743c.306,3.7-2.039,7.711-4.349,10.77a7.167,7.167,0,0,1-1.7,1.873,4.911,4.911,0,0,1-3.211.671c-1-.187-2.973-.109-2.99-1.03,0-.671,1.546-1.858,1.971-2.4" transform="translate(180.523 50.855)" fill="#3b2e7a"/>
      <path id="Trazado_121413" data-name="Trazado 121413" d="M287.564,122.468a1.3,1.3,0,0,0,.255,1.108,1.635,1.635,0,0,0,1.7.219,4.12,4.12,0,0,0,2.752-3.122c.323-1.561-.612-3.2-2.208-2.778A2.141,2.141,0,0,0,288.566,120" transform="translate(187.204 58.128)" fill="#ffbe9d"/>
      <path id="Trazado_121414" data-name="Trazado 121414" d="M280.021,124l4.451.749a6.539,6.539,0,0,1-4.5,1.561" transform="translate(181.921 61.591)" fill="#f2a181"/>
      <g id="Grupo_55616" data-name="Grupo 55616" transform="translate(94.982 96.083)" opacity="0.3">
        <path id="Trazado_121415" data-name="Trazado 121415" d="M74.86,80.585l5.946,2.747L77.833,76.62" transform="translate(-56.392 -61.069)" fill="#3939d3"/>
        <path id="Trazado_121416" data-name="Trazado 121416" d="M64.008,77.588A11.487,11.487,0,0,0,71.28,88.721a13.442,13.442,0,0,0,13.947-2.09,10.916,10.916,0,0,0,3.046-12.679,12.626,12.626,0,0,0-11.694-7.29C69.823,66.487,64.193,71.38,64.008,77.588Z" transform="translate(-63.989 -66.657)" fill="#3939d3"/>
        <path id="Trazado_121417" data-name="Trazado 121417" d="M69.58,71.659v7.8a.8.8,0,0,0,.446.714.951.951,0,0,0,.9-.012l7.339-3.887a.794.794,0,0,0,0-1.42l-7.339-3.887a.951.951,0,0,0-.889-.015A.8.8,0,0,0,69.58,71.659Z" transform="translate(-60.081 -64.303)" fill="#fefefe"/>
      </g>
      <g id="Grupo_55617" data-name="Grupo 55617" transform="translate(518.191 178.968)" opacity="0.3">
        <path id="Trazado_121418" data-name="Trazado 121418" d="M319.506,133.685l-5.946,2.747,2.973-6.712" transform="translate(-312.797 -114.169)" fill="#3939d3"/>
        <path id="Trazado_121419" data-name="Trazado 121419" d="M338.268,130.688A11.487,11.487,0,0,1,331,141.821a13.442,13.442,0,0,1-13.947-2.09A10.916,10.916,0,0,1,314,127.052a12.626,12.626,0,0,1,11.694-7.29c6.756-.175,12.386,4.719,12.571,10.926Z" transform="translate(-313.111 -119.757)" fill="#3939d3"/>
        <path id="Trazado_121420" data-name="Trazado 121420" d="M319.235,134.639c2.735,0,5.5,0,8.035-.078.8,0,1.478-1.155.51-1.561a1.676,1.676,0,0,0,1-.749.68.68,0,0,0-.011-.591.78.78,0,0,0-.482-.392.853.853,0,0,0,.595-1.561,1.9,1.9,0,0,0,.8-1.108,1.063,1.063,0,0,0-.578-1.155,2.329,2.329,0,0,0-.985-.14h-3.4a6.061,6.061,0,0,0-.509-4.589,1.371,1.371,0,0,0-1.6-.578c-.595.312-.391,1.03-.357,1.561a5.142,5.142,0,0,1-3.109,4.776S319.269,132.547,319.235,134.639Z" transform="translate(-308.891 -118.479)" fill="#fefefe"/>
        <rect id="Rectángulo_30558" data-name="Rectángulo 30558" width="4.145" height="6.181" transform="translate(5.213 9.979)" fill="#fefefe"/>
      </g>
      <g id="Grupo_55618" data-name="Grupo 55618" transform="translate(318.548 96.972)" opacity="0.3">
        <path id="Trazado_121421" data-name="Trazado 121421" d="M205.724,73.2l4.332-4.308-5.946,1.077" transform="translate(-189.638 -66.294)" fill="#3939d3"/>
        <path id="Trazado_121422" data-name="Trazado 121422" d="M195.606,75.13a8.319,8.319,0,0,0,5.24,8.075,9.744,9.744,0,0,0,10.105-1.475,7.915,7.915,0,0,0,2.258-9.17,9.138,9.138,0,0,0-8.43-5.329,9.329,9.329,0,0,0-6.373,2.2,7.873,7.873,0,0,0-2.8,5.7Z" transform="translate(-195.591 -67.227)" fill="#3939d3"/>
        <path id="Trazado_121423" data-name="Trazado 121423" d="M199.979,77.956h5.266c.527,0,.985-.827.34-1.077a1.227,1.227,0,0,0,.663-.546.546.546,0,0,0-.323-.718c.629.156.866-.8.391-1.108a1.342,1.342,0,0,0,.578-.8.754.754,0,0,0-.374-.827,1.281,1.281,0,0,0-.646-.109H203.5a4.752,4.752,0,0,0-.323-3.325c-.187-.3-.663-.656-1.036-.421s-.272.734-.255,1.077a3.743,3.743,0,0,1-2.022,3.45A37.825,37.825,0,0,1,199.979,77.956Z" transform="translate(-192.608 -66.259)" fill="#fefefe"/>
        <rect id="Rectángulo_30559" data-name="Rectángulo 30559" width="2.718" height="4.48" transform="translate(4.007 7.201)" fill="#fefefe"/>
      </g>
      <g id="Grupo_55619" data-name="Grupo 55619" transform="translate(353.178 26.127)" opacity="0.3">
        <path id="Trazado_121424" data-name="Trazado 121424" d="M239.885,41.8A11.608,11.608,0,0,0,238.5,25.127a14.285,14.285,0,0,0-18.2-.025,11.609,11.609,0,0,0-1.444,16.673,14.215,14.215,0,0,0,17.978,2.62l5.2,2.544Z" transform="translate(-215.976 -21.84)" fill="#3939d3"/>
        <path id="Trazado_121425" data-name="Trazado 121425" d="M220.919,27.857a3.487,3.487,0,0,1,4.638,0l.849.8.849-.78a3.526,3.526,0,0,1,4.689.016,2.875,2.875,0,0,1-.017,4.308l-3.211,2.9h0a3.468,3.468,0,0,1-4.638,0l-3.143-2.95a2.844,2.844,0,0,1-.017-4.293Z" transform="translate(-213.199 -18.96)" fill="#fff"/>
      </g>
    </g>
  </g>
</svg>
