<svg xmlns="http://www.w3.org/2000/svg" width="81" height="81" viewBox="0 0 81 81">
  <g id="Grupo_55931" data-name="Grupo 55931" transform="translate(-375 -1794.826)">
    <circle id="Elipse_4123" data-name="Elipse 4123" cx="40.5" cy="40.5" r="40.5" transform="translate(375 1794.826)" fill="#aee6e6"/>
    <g id="data" transform="translate(383.292 1806.867)">
      <g id="Grupo_55906" data-name="Grupo 55906" transform="translate(4)">
        <g id="Grupo_55905" data-name="Grupo 55905">
          <path id="Trazado_129134" data-name="Trazado 129134" d="M46.8,0H8.756A4.762,4.762,0,0,0,4,4.756V35.194A4.756,4.756,0,0,0,7.568,39.8l.476-1.842A2.854,2.854,0,0,1,5.9,35.194V4.756A2.854,2.854,0,0,1,8.756,1.9H46.8a2.854,2.854,0,0,1,2.854,2.854v.951h1.9V4.756A4.762,4.762,0,0,0,46.8,0Z" transform="translate(-4)" fill="#0d585f"/>
        </g>
      </g>
      <g id="Grupo_55908" data-name="Grupo 55908" transform="translate(7.805 3.805)">
        <g id="Grupo_55907" data-name="Grupo 55907" transform="translate(0)">
          <rect id="Rectángulo_30781" data-name="Rectángulo 30781" width="1.902" height="1.902" fill="#0d585f"/>
        </g>
      </g>
      <g id="Grupo_55910" data-name="Grupo 55910" transform="translate(11.61 3.805)">
        <g id="Grupo_55909" data-name="Grupo 55909">
          <rect id="Rectángulo_30782" data-name="Rectángulo 30782" width="1.902" height="1.902" fill="#0d585f"/>
        </g>
      </g>
      <g id="Grupo_55912" data-name="Grupo 55912" transform="translate(15.414 3.805)">
        <g id="Grupo_55911" data-name="Grupo 55911" transform="translate(0)">
          <rect id="Rectángulo_30783" data-name="Rectángulo 30783" width="1.902" height="1.902" fill="#0d585f"/>
        </g>
      </g>
      <g id="Grupo_55914" data-name="Grupo 55914" transform="translate(13.512 15.219)">
        <g id="Grupo_55913" data-name="Grupo 55913">
          <path id="Trazado_129135" data-name="Trazado 129135" d="M130.33,165.375l-9.022-9.022a13.155,13.155,0,0,0,1.13-2.671h1.512v-1.9h-1.1a12.816,12.816,0,0,0-.8-6.816V135.61h-1.9v6.057a13.388,13.388,0,0,0-1.9-1.975V131.8h-1.9v6.558a13.231,13.231,0,0,0-1.9-.908V128h-1.9v8.877a13.171,13.171,0,0,0-1.9-.267V129.9h-1.9v6.707a13.172,13.172,0,0,0-1.9.267v-3.169h-1.9v3.747a13.236,13.236,0,0,0-1.9.908v-5.606h-1.9v6.936a13.388,13.388,0,0,0-1.9,1.975v-7.008h-1.9v10.305a12.816,12.816,0,0,0-.8,6.816H84v1.9H96.927a13.289,13.289,0,0,0,20.4,7.085l8.807,8.807a.951.951,0,0,0,1.345,0l2.854-2.854A.951.951,0,0,0,130.33,165.375Zm-20.648-4.083A11.414,11.414,0,1,1,121.1,149.878,11.427,11.427,0,0,1,109.682,161.292Zm17.122,6.265-8-8a13.476,13.476,0,0,0,1.432-1.586l8.079,8.079Z" transform="translate(-84 -128)" fill="#0d585f"/>
        </g>
      </g>
      <g id="Grupo_55916" data-name="Grupo 55916" transform="translate(29.682 27.585)">
        <g id="Grupo_55915" data-name="Grupo 55915">
          <path id="Trazado_129136" data-name="Trazado 129136" d="M229.512,232a9.512,9.512,0,1,0,9.512,9.512A9.512,9.512,0,0,0,229.512,232Zm0,17.122a7.61,7.61,0,0,1-6.58-3.8h13.161A7.61,7.61,0,0,1,229.512,249.122Zm-7.359-5.707a7.54,7.54,0,0,1,2.6-7.833v5.931h1.9v-7.049a7.575,7.575,0,0,1,1.9-.495v7.544h1.9v-7.544a7.575,7.575,0,0,1,1.9.495v7.049h1.9v-5.931a7.54,7.54,0,0,1,2.6,7.833Z" transform="translate(-220 -232)" fill="#0d585f"/>
        </g>
      </g>
      <g id="Grupo_55918" data-name="Grupo 55918" transform="translate(9.707 7.61)">
        <g id="Grupo_55917" data-name="Grupo 55917">
          <path id="Trazado_129137" data-name="Trazado 129137" d="M94.8,64H56.756A4.762,4.762,0,0,0,52,68.756V99.194a4.762,4.762,0,0,0,4.756,4.756H69.122v-1.9H56.756A2.854,2.854,0,0,1,53.9,99.194V68.756A2.854,2.854,0,0,1,56.756,65.9H94.8a2.854,2.854,0,0,1,2.854,2.854V99.194a2.854,2.854,0,0,1-.713,1.887l1.427,1.258a4.75,4.75,0,0,0,1.189-3.146V68.756A4.762,4.762,0,0,0,94.8,64Z" transform="translate(-52 -64)" fill="#0d585f"/>
        </g>
      </g>
      <g id="Grupo_55920" data-name="Grupo 55920" transform="translate(13.512 11.414)">
        <g id="Grupo_55919" data-name="Grupo 55919">
          <rect id="Rectángulo_30784" data-name="Rectángulo 30784" width="1.902" height="1.902" fill="#0d585f"/>
        </g>
      </g>
      <g id="Grupo_55922" data-name="Grupo 55922" transform="translate(17.317 11.414)">
        <g id="Grupo_55921" data-name="Grupo 55921">
          <rect id="Rectángulo_30785" data-name="Rectángulo 30785" width="1.902" height="1.902" fill="#0d585f"/>
        </g>
      </g>
      <g id="Grupo_55924" data-name="Grupo 55924" transform="translate(21.122 11.414)">
        <g id="Grupo_55923" data-name="Grupo 55923">
          <rect id="Rectángulo_30786" data-name="Rectángulo 30786" width="1.902" height="1.902" fill="#0d585f"/>
        </g>
      </g>
      <g id="Grupo_55926" data-name="Grupo 55926" transform="translate(15.414 31.39)">
        <g id="Grupo_55925" data-name="Grupo 55925" transform="translate(0)">
          <rect id="Rectángulo_30787" data-name="Rectángulo 30787" width="1.902" height="5.707" fill="#0d585f"/>
        </g>
      </g>
      <g id="Grupo_55928" data-name="Grupo 55928" transform="translate(19.219 25.682)">
        <g id="Grupo_55927" data-name="Grupo 55927">
          <rect id="Rectángulo_30788" data-name="Rectángulo 30788" width="1.902" height="11.414" fill="#0d585f"/>
        </g>
      </g>
      <g id="Grupo_55930" data-name="Grupo 55930" transform="translate(23.024 28.536)">
        <g id="Grupo_55929" data-name="Grupo 55929">
          <rect id="Rectángulo_30789" data-name="Rectángulo 30789" width="1.902" height="8.561" fill="#0d585f"/>
        </g>
      </g>
    </g>
  </g>
</svg>
