<svg xmlns="http://www.w3.org/2000/svg" width="81" height="81" viewBox="0 0 81 81">
  <g id="Grupo_55938" data-name="Grupo 55938" transform="translate(-566 -1794.826)">
    <g id="Grupo_55659" data-name="Grupo 55659" transform="translate(357 791.826)">
      <circle id="Elipse_4085" data-name="Elipse 4085" cx="40.5" cy="40.5" r="40.5" transform="translate(209 1003)" fill="rgba(125,110,178,0.6)"/>
    </g>
    <g id="monitor" transform="translate(570.698 1799.526)">
      <path id="Trazado_129138" data-name="Trazado 129138" d="M60.122,21.425H58.955a8.088,8.088,0,1,0-12.044,0H35.858V12.438a.9.9,0,0,0-.9-.9H31.365a.9.9,0,0,0-.9.9v8.987h-.9V8.844a.9.9,0,0,0-.9-.9H25.074a.9.9,0,0,0-.9.9V21.425h-.9V15.134a.9.9,0,0,0-.9-.9H18.784a.9.9,0,0,0-.9.9v6.291H11.595A3.6,3.6,0,0,0,8,25.019v26.96a3.6,3.6,0,0,0,3.595,3.595H30.118l-1.2,3.595H25.973a.9.9,0,0,0-.9.9v1.8H16.088a.9.9,0,1,0,0,1.8H55.629a.9.9,0,1,0,0-1.8H46.642v-1.8a.9.9,0,0,0-.9-.9H42.8l-1.2-3.595H60.122a3.6,3.6,0,0,0,3.595-3.595V25.019A3.6,3.6,0,0,0,60.122,21.425ZM53.831,9.807a6.3,6.3,0,0,1,5.327,5.327H53.831ZM53.3,16.931h5.854a6.286,6.286,0,0,1-9.991,4.137Zm-6.662-.9a6.3,6.3,0,0,1,5.392-6.225v5.854L47.9,19.8a6.258,6.258,0,0,1-1.255-3.765Zm-14.378-2.7h1.8V30.411h-1.8Zm-2.7,9.885h.9v7.189h-.9ZM25.973,9.742h1.8V30.411h-1.8Zm-2.7,13.48h.9v7.189h-.9Zm-3.595-7.189h1.8V30.411h-1.8ZM44.845,60.966v.9H26.872v-.9Zm-14.03-1.8,1.2-3.595H39.7l1.2,3.595Zm31.1-7.189a1.8,1.8,0,0,1-1.8,1.8H11.595a1.8,1.8,0,0,1-1.8-1.8v-1.8H61.919Zm0-3.595H9.8V25.019a1.8,1.8,0,0,1,1.8-1.8h6.291v7.189h-.9V25.019a.9.9,0,0,0-.9-.9H12.493a.9.9,0,0,0-.9.9V31.31a.9.9,0,0,0,.9.9H41.25a.9.9,0,0,0,.9-.9V25.019a.9.9,0,0,0-.9-.9H37.656a.9.9,0,0,0-.9.9v5.392h-.9V23.222H49.235a8.058,8.058,0,0,0,7.4,0h3.491a1.8,1.8,0,0,1,1.8,1.8ZM15.189,25.918v4.493h-1.8V25.918Zm23.365,4.493V25.918h1.8v4.493Z" fill="#fff"/>
      <path id="Trazado_129139" data-name="Trazado 129139" d="M46.291,392H40.9a.9.9,0,0,0,0,1.8h5.392a.9.9,0,0,0,0-1.8Z" transform="translate(-28.405 -340.92)" fill="#fff"/>
      <path id="Trazado_129140" data-name="Trazado 129140" d="M113.8,392h-.9a.9.9,0,0,0,0,1.8h.9a.9.9,0,0,0,0-1.8Z" transform="translate(-92.317 -340.92)" fill="#fff"/>
      <path id="Trazado_129141" data-name="Trazado 129141" d="M336.9,165.392a.9.9,0,0,0,.635-.263l3.331-3.331h7.716a.9.9,0,0,0,0-1.8h-8.088a.9.9,0,0,0-.635.263l-3.595,3.595a.9.9,0,0,0,.635,1.534Z" transform="translate(-291.155 -134.981)" fill="#fff"/>
      <path id="Trazado_129142" data-name="Trazado 129142" d="M85.805,246.291a2.7,2.7,0,0,0-2.331,1.345l-9.408-5.489a2.7,2.7,0,0,0-5.292.067l-9.467,7.1a2.694,2.694,0,0,0-4.66.245l-9.357-3.9a2.7,2.7,0,1,0-.22,1.855l9.357,3.9a2.7,2.7,0,0,0,5.273-.148l9.467-7.1a2.693,2.693,0,0,0,4.59-.118l9.408,5.489a2.7,2.7,0,1,0,2.64-3.245Zm-42.237,0a.9.9,0,1,1-.9-.9.9.9,0,0,1,.9.9Zm13.48,5.387a.9.9,0,0,1-.9-.9v0a.9.9,0,1,1,.9.9Zm14.378-8.088a.9.9,0,1,1,.9-.9.9.9,0,0,1-.9.9Zm14.378,6.291a.9.9,0,1,1,.9-.9A.9.9,0,0,1,85.805,249.885Z" transform="translate(-28.379 -205.994)" fill="#fff"/>
      <path id="Trazado_129143" data-name="Trazado 129143" d="M327.189,344H320.9a.9.9,0,0,0,0,1.8h6.291a.9.9,0,0,0,0-1.8Z" transform="translate(-276.952 -298.312)" fill="#fff"/>
      <path id="Trazado_129144" data-name="Trazado 129144" d="M355.595,320h-2.7a.9.9,0,0,0,0,1.8h2.7a.9.9,0,0,0,0-1.8Z" transform="translate(-305.358 -277.008)" fill="#fff"/>
      <path id="Trazado_129145" data-name="Trazado 129145" d="M40.9,233.8h9.885a.9.9,0,0,0,0-1.8H40.9a.9.9,0,1,0,0,1.8Z" transform="translate(-28.405 -198.893)" fill="#fff"/>
      <path id="Trazado_129146" data-name="Trazado 129146" d="M152.9,233.8h.9a.9.9,0,0,0,0-1.8h-.9a.9.9,0,1,0,0,1.8Z" transform="translate(-127.824 -198.893)" fill="#fff"/>
    </g>
  </g>
</svg>
