<svg xmlns="http://www.w3.org/2000/svg" width="81" height="81" viewBox="0 0 81 81">
  <g id="Grupo_55946" data-name="Grupo 55946" transform="translate(-759 -1795)">
    <circle id="Elipse_4120" data-name="Elipse 4120" cx="40.5" cy="40.5" r="40.5" transform="translate(759 1795)" fill="#aee6e6"/>
    <g id="audience_1_" data-name="audience (1)" transform="translate(767 1812)">
      <path id="Trazado_129147" data-name="Trazado 129147" d="M433.236,360H433.2a1.238,1.238,0,1,0,0,2.476h.033a1.238,1.238,0,0,0,0-2.476Zm0,0" transform="translate(-378.496 -315.439)" fill="#0d585f"/>
      <path id="Trazado_129148" data-name="Trazado 129148" d="M58.793,33.144a5.656,5.656,0,0,0-4.268-9.324h-.054a7.171,7.171,0,0,0-3.283-2.6,5.656,5.656,0,0,0-4.276-9.315h-.053a7.175,7.175,0,0,0-3.284-2.6,5.619,5.619,0,1,0-8.552,0,7.174,7.174,0,0,0-3.283,2.6h-.106a7.175,7.175,0,0,0-3.284-2.6,5.619,5.619,0,1,0-8.552,0,7.171,7.171,0,0,0-3.283,2.6h-.053a5.628,5.628,0,0,0-.9.073,1.238,1.238,0,0,0,.4,2.443,3.123,3.123,0,0,1,.5-.041,3.178,3.178,0,1,1-2.9,4.4,1.238,1.238,0,0,0-2.288.944,5.687,5.687,0,0,0,.908,1.5A7.176,7.176,0,0,0,8.9,23.821H8.85a5.656,5.656,0,0,0-4.268,9.324A7.2,7.2,0,0,0,0,39.844v3.479a3.717,3.717,0,0,0,3.713,3.713H49.759a1.238,1.238,0,0,0,0-2.476H48.15V39.844a4.723,4.723,0,0,1,4.717-4.717h3.315A4.723,4.723,0,0,1,60.9,39.844v3.479a1.239,1.239,0,0,1-1.238,1.238H58.3a1.238,1.238,0,0,0,0,2.476h1.366a3.717,3.717,0,0,0,3.713-3.713V39.844a7.2,7.2,0,0,0-4.582-6.7Zm-1.125-3.67A3.143,3.143,0,1,1,54.525,26.3a3.164,3.164,0,0,1,3.143,3.178ZM50.056,17.564a3.143,3.143,0,1,1-3.143-3.178A3.164,3.164,0,0,1,50.056,17.564ZM39.3,2.476a3.178,3.178,0,1,1-3.143,3.178A3.164,3.164,0,0,1,39.3,2.476Zm-1.7,8.831H41a4.633,4.633,0,0,1,3.209,1.3,5.666,5.666,0,0,0-1.576,8.618,7.173,7.173,0,0,0-3.283,2.6h-.107a7.17,7.17,0,0,0-3.283-2.6,5.665,5.665,0,0,0-1.576-8.618,4.634,4.634,0,0,1,3.21-1.3Zm1.7,21.344a3.178,3.178,0,1,1,3.143-3.178A3.164,3.164,0,0,1,39.3,32.651Zm-7.612,3.163a7.232,7.232,0,0,0-3.344-2.67,5.665,5.665,0,0,0-1.569-8.626,4.632,4.632,0,0,1,3.209-1.3h3.407a4.632,4.632,0,0,1,3.209,1.3,5.665,5.665,0,0,0-1.569,8.626,7.232,7.232,0,0,0-3.344,2.67ZM20.932,29.473a3.143,3.143,0,1,1,3.143,3.178A3.164,3.164,0,0,1,20.932,29.473ZM31.688,14.386a3.178,3.178,0,1,1-3.143,3.177A3.164,3.164,0,0,1,31.688,14.386ZM24.075,2.476a3.178,3.178,0,1,1-3.143,3.178A3.164,3.164,0,0,1,24.075,2.476ZM19.162,12.607a4.634,4.634,0,0,1,3.21-1.3h3.407a4.634,4.634,0,0,1,3.21,1.3,5.666,5.666,0,0,0-1.577,8.618,7.175,7.175,0,0,0-3.283,2.6h-.107a7.17,7.17,0,0,0-3.283-2.6,5.665,5.665,0,0,0-1.576-8.618Zm-4.4,10.609h3.407a4.633,4.633,0,0,1,3.209,1.3,5.665,5.665,0,0,0-1.569,8.626,7.236,7.236,0,0,0-3.344,2.67,7.23,7.23,0,0,0-3.343-2.67,5.665,5.665,0,0,0-1.569-8.626,4.635,4.635,0,0,1,3.21-1.3ZM8.85,26.3a3.178,3.178,0,1,1-3.143,3.178A3.164,3.164,0,0,1,8.85,26.3ZM2.476,43.323V39.844a4.723,4.723,0,0,1,4.717-4.717h3.315a4.723,4.723,0,0,1,4.717,4.717v4.717H3.714a1.239,1.239,0,0,1-1.238-1.238ZM17.7,39.844a4.723,4.723,0,0,1,4.717-4.717h3.315a4.723,4.723,0,0,1,4.717,4.717v4.717H17.7Zm15.225,0a4.723,4.723,0,0,1,4.717-4.717h3.315a4.723,4.723,0,0,1,4.717,4.717v4.717H32.925Zm13.987-4.03a7.232,7.232,0,0,0-3.344-2.67A5.665,5.665,0,0,0,42,24.517a4.632,4.632,0,0,1,3.209-1.3h3.407a4.632,4.632,0,0,1,3.209,1.3,5.665,5.665,0,0,0-1.569,8.626,7.232,7.232,0,0,0-3.344,2.67Zm0,0" fill="#0d585f"/>
      <path id="Trazado_129149" data-name="Trazado 129149" d="M90.9,120.964a1.219,1.219,0,0,0,.45.086,1.247,1.247,0,0,0,1.156-.785l.008-.019a1.238,1.238,0,0,0-2.307-.9l-.008.019a1.233,1.233,0,0,0,.7,1.6Zm0,0" transform="translate(-78.961 -103.887)" fill="#0d585f"/>
    </g>
  </g>
</svg>
