<svg xmlns="http://www.w3.org/2000/svg" width="81" height="81" viewBox="0 0 81 81">
  <g id="Grupo_55958" data-name="Grupo 55958" transform="translate(-950.999 -1794.826)">
    <g id="Grupo_55661" data-name="Grupo 55661" transform="translate(741.999 791.826)">
      <circle id="Elipse_4085" data-name="Elipse 4085" cx="40.5" cy="40.5" r="40.5" transform="translate(209 1003)" fill="rgba(125,110,178,0.6)"/>
    </g>
    <g id="magnetism" transform="translate(968.066 1802.422)">
      <path id="Trazado_129150" data-name="Trazado 129150" d="M136.723,39.874h.007A5.937,5.937,0,1,0,136.723,28h0a5.937,5.937,0,0,0,0,11.874Zm0-9.763h0a3.826,3.826,0,0,1,0,7.652h0s0-.02,0-.019a3.817,3.817,0,0,1,0-7.633Zm0,0" transform="translate(-113.53 -24.307)" fill="#fff"/>
      <path id="Trazado_129151" data-name="Trazado 129151" d="M241.758,11.741h.081A5.871,5.871,0,1,0,241.76,0h0a5.871,5.871,0,1,0,0,11.742Zm0-9.631h0a3.794,3.794,0,0,1,3.8,3.8,3.707,3.707,0,0,1-3.739,3.724h-.063a3.76,3.76,0,0,1,0-7.52Zm0,0" transform="translate(-204.766 0)" fill="#fff"/>
      <path id="Trazado_129152" data-name="Trazado 129152" d="M1.011,112.886H13.722v2.78a1.078,1.078,0,0,0,1.09,1.046H31.578a1.009,1.009,0,0,0,1.01-1.046v-2.78H45.431a.973.973,0,0,0,1.01-1v-7.737A8.106,8.106,0,0,0,38.307,96H35.821a8.3,8.3,0,0,0-7.487,4.722,8.172,8.172,0,0,0-3.888-1.028H21.957a8.188,8.188,0,0,0-3.879,1.021A8.242,8.242,0,0,0,10.621,96H8.154A8.106,8.106,0,0,0,0,104.122v7.762a.973.973,0,0,0,1.01,1ZM35.821,98.11H38.3a6,6,0,0,1,6.033,6.036v6.63H32.588V107.93a8.138,8.138,0,0,0-2.369-5.8c-.053-.053-.1-.071-.15-.122a6.207,6.207,0,0,1,5.752-3.9ZM21.958,101.8h2.486a6,6,0,0,1,4.28,1.8,6.068,6.068,0,0,1,1.753,4.322V114.6H15.833v-6.695a6.139,6.139,0,0,1,6.126-6.1Zm-19.846,2.32A6,6,0,0,1,8.157,98.11h2.462A6.107,6.107,0,0,1,16.309,102a8.094,8.094,0,0,0-2.588,5.9v2.879H2.112Zm0,0" transform="translate(0 -83.335)" fill="#fff"/>
      <path id="Trazado_129153" data-name="Trazado 129153" d="M32.3,11.742h0a5.893,5.893,0,0,0,5.911-5.864v0A5.894,5.894,0,0,0,32.3,0h0a5.871,5.871,0,1,0,0,11.742Zm-2.687-8.53a3.764,3.764,0,0,1,2.69-1.1h0a3.764,3.764,0,0,1,2.684,1.1A3.7,3.7,0,0,1,36.1,5.855a3.791,3.791,0,0,1-3.8,3.776h0a3.774,3.774,0,0,1-3.8-3.767,3.694,3.694,0,0,1,1.111-2.652Zm0,0" transform="translate(-22.908 -0.001)" fill="#fff"/>
      <path id="Trazado_129154" data-name="Trazado 129154" d="M106.473,329.26a1.042,1.042,0,0,0-.746-.3h0l-5.872-.006A1.05,1.05,0,0,0,98.8,330l-.019,9.389a4.486,4.486,0,0,1-4.46,4.477h-.006a4.457,4.457,0,0,1-4.433-4.469l.011-5.265c0-.037.005-.074.005-.111s0-.064,0-.1l.007-3.909a1.055,1.055,0,0,0-1.055-1.059h0l-5.872.018a1.053,1.053,0,0,0-1.049,1.053l-.005,4v0L81.9,339.4a12.357,12.357,0,0,0,12.376,12.382h.039a12.484,12.484,0,0,0,12.451-12.439l.007-4.881a.945.945,0,0,0,0-.216l.006-4.251a1.036,1.036,0,0,0-.309-.741Zm-1.8,1.79,0,2.26-3.763.007,0-2.262Zm-16.883.028,0,1.9-3.761.007,0-1.892Zm6.524,18.6H94.28A10.249,10.249,0,0,1,84.01,339.4l.009-4.314,3.761-.006-.009,4.305a6.569,6.569,0,0,0,6.544,6.594h.008a6.6,6.6,0,0,0,6.569-6.588l.008-3.955,3.764-.013-.006,3.921A10.368,10.368,0,0,1,94.312,349.676Zm0,0" transform="translate(-71.097 -285.558)" fill="#fff"/>
      <path id="Trazado_129155" data-name="Trazado 129155" d="M102.325,273.8a1.076,1.076,0,0,0,1.055-1.076l.011-3.674A1.05,1.05,0,0,0,102.339,268h0a1.043,1.043,0,0,0-1.055,1.036l-.011,3.694a1.069,1.069,0,0,0,1.052,1.075Zm0,0" transform="translate(-87.908 -232.643)" fill="#fff"/>
      <path id="Trazado_129156" data-name="Trazado 129156" d="M132.516,297.881l2.6-2.6a1.055,1.055,0,0,0-1.492-1.492l-2.6,2.6a1.056,1.056,0,1,0,1.493,1.492Zm0,0" transform="translate(-113.468 -254.762)" fill="#fff"/>
      <path id="Trazado_129157" data-name="Trazado 129157" d="M61.417,292.841a1.055,1.055,0,0,0,0-1.492l-2.6-2.6a1.055,1.055,0,0,0-1.492,1.492l2.6,2.6a1.055,1.055,0,0,0,1.492,0Zm0,0" transform="translate(-49.501 -250.394)" fill="#fff"/>
      <path id="Trazado_129158" data-name="Trazado 129158" d="M234.965,273.668a1.032,1.032,0,0,0,1.055-1.026l.006-3.637A1.017,1.017,0,0,0,234.973,268h0a1.029,1.029,0,0,0-1.055,1.021l-.006,3.639a1.018,1.018,0,0,0,1.054,1.013Zm0,0" transform="translate(-203.05 -232.639)" fill="#fff"/>
      <path id="Trazado_129159" data-name="Trazado 129159" d="M265.852,292.643a1.055,1.055,0,0,0-1.492-1.492l-2.6,2.6a1.056,1.056,0,0,0,1.493,1.493Zm0,0" transform="translate(-226.952 -252.478)" fill="#fff"/>
      <path id="Trazado_129160" data-name="Trazado 129160" d="M193.866,292.962a1.055,1.055,0,0,0,.746-1.8l-2.6-2.6a1.056,1.056,0,0,0-1.493,1.492l2.6,2.6a1.049,1.049,0,0,0,.746.309Zm0,0" transform="translate(-165.12 -250.227)" fill="#fff"/>
    </g>
  </g>
</svg>
