<svg xmlns="http://www.w3.org/2000/svg" width="81" height="81" viewBox="0 0 81 81">
  <g id="Grupo_55932" data-name="Grupo 55932" transform="translate(-1144.5 -1794.826)">
    <circle id="Elipse_4136" data-name="Elipse 4136" cx="40.5" cy="40.5" r="40.5" transform="translate(1144.5 1794.826)" fill="#aee6e6"/>
    <g id="Analysis-report-document-develop-infromation" transform="translate(1154.027 1804.464)">
      <path id="Trazado_129161" data-name="Trazado 129161" d="M58.91,12.761,48.426,2.276A.985.985,0,0,0,47.749,2H23.922a2.868,2.868,0,0,0-2.859,2.859v5.766a19.989,19.989,0,0,0,0,39.935v5.766a2.868,2.868,0,0,0,2.859,2.859H56.327a2.868,2.868,0,0,0,2.859-2.859V13.437a.985.985,0,0,0-.276-.677ZM48.7,5.25l7.234,7.234H49.656a.953.953,0,0,1-.953-.953ZM3.907,30.593a18.131,18.131,0,0,1,17.156-18.08V30.2L8.577,42.688a17.994,17.994,0,0,1-4.67-12.095ZM9.921,44.032,22.406,31.546H40.1A18.074,18.074,0,0,1,9.921,44.032Zm47.36,12.3a.953.953,0,0,1-.953.953H23.922a.953.953,0,0,1-.953-.953V50.561A20.029,20.029,0,0,0,42.031,30.593a.953.953,0,0,0-.953-.953H22.969V4.859a.953.953,0,0,1,.953-.953H46.8v7.625a2.868,2.868,0,0,0,2.859,2.859H57.28Z" fill="#0d585f"/>
      <path id="Trazado_129162" data-name="Trazado 129162" d="M26.953,7A.953.953,0,0,0,26,7.953V27.015a.953.953,0,0,0,.953.953H46.015a.953.953,0,0,0,.953-.953A20.037,20.037,0,0,0,26.953,7Zm.953,19.062V8.935A18.125,18.125,0,0,1,45.033,26.062Z" transform="translate(-1.125 -0.234)" fill="#0d585f"/>
      <path id="Trazado_129163" data-name="Trazado 129163" d="M48.578,40a8.578,8.578,0,1,0,8.578,8.578A8.578,8.578,0,0,0,48.578,40Zm0,15.25a6.672,6.672,0,1,1,6.672-6.672A6.672,6.672,0,0,1,48.578,55.25Z" transform="translate(-1.782 -1.782)" fill="#0d585f"/>
      <path id="Trazado_129164" data-name="Trazado 129164" d="M46.826,50.338l-2.185-2.185L43.293,49.5l2.859,2.859a.953.953,0,0,0,1.348,0l5.719-5.719-1.348-1.348Z" transform="translate(-1.936 -2.03)" fill="#0d585f"/>
      <path id="Trazado_129165" data-name="Trazado 129165" d="M50,19h7.625v1.906H50Z" transform="translate(-2.251 -0.797)" fill="#0d585f"/>
      <path id="Trazado_129166" data-name="Trazado 129166" d="M50,25h7.625v1.906H50Z" transform="translate(-2.251 -1.079)" fill="#0d585f"/>
      <path id="Trazado_129167" data-name="Trazado 129167" d="M50,31h7.625v1.906H50Z" transform="translate(-2.251 -1.36)" fill="#0d585f"/>
    </g>
  </g>
</svg>
