<svg xmlns="http://www.w3.org/2000/svg" xmlns:xlink="http://www.w3.org/1999/xlink" width="328.573" height="219.279" viewBox="0 0 328.573 219.279">
  <defs>
    <linearGradient id="linear-gradient" x1="0.474" y1="0.415" x2="1.197" y2="0.415" gradientUnits="objectBoundingBox">
      <stop offset="0" stop-color="#5eb4fa"/>
      <stop offset="1" stop-color="#4677f1"/>
    </linearGradient>
    <clipPath id="clip-path">
      <path id="Trazado_95876" data-name="Trazado 95876" d="M2134.845,735.357l18.286,49.3,38.476-14.273Zm23.581,37.757-6.091-16.417,18.9,11.664Z" transform="translate(-2134.845 -735.357)" fill="url(#linear-gradient)"/>
    </clipPath>
    <linearGradient id="linear-gradient-3" x1="3.588" y1="2.575" x2="4.843" y2="2.575" gradientUnits="objectBoundingBox">
      <stop offset="0" stop-color="#2e719d"/>
      <stop offset="1" stop-color="#2e3c84"/>
    </linearGradient>
    <linearGradient id="linear-gradient-4" x1="3.928" y1="2.287" x2="5.183" y2="2.287" xlink:href="#linear-gradient-3"/>
    <linearGradient id="linear-gradient-5" x1="4.269" y1="2" x2="5.525" y2="2" xlink:href="#linear-gradient-3"/>
    <linearGradient id="linear-gradient-6" x1="4.608" y1="1.713" x2="5.863" y2="1.713" xlink:href="#linear-gradient-3"/>
    <linearGradient id="linear-gradient-7" x1="4.951" y1="1.426" x2="6.206" y2="1.426" xlink:href="#linear-gradient-3"/>
    <linearGradient id="linear-gradient-8" x1="5.291" y1="1.139" x2="6.547" y2="1.139" xlink:href="#linear-gradient-3"/>
    <linearGradient id="linear-gradient-9" x1="5.631" y1="0.852" x2="6.886" y2="0.852" xlink:href="#linear-gradient-3"/>
    <linearGradient id="linear-gradient-10" x1="5.97" y1="0.565" x2="7.225" y2="0.565" xlink:href="#linear-gradient-3"/>
    <linearGradient id="linear-gradient-11" x1="6.315" y1="0.277" x2="7.57" y2="0.277" xlink:href="#linear-gradient-3"/>
    <linearGradient id="linear-gradient-12" x1="6.651" y1="-0.01" x2="7.906" y2="-0.01" xlink:href="#linear-gradient-3"/>
    <linearGradient id="linear-gradient-13" x1="6.993" y1="-0.297" x2="8.248" y2="-0.297" xlink:href="#linear-gradient-3"/>
  </defs>
  <g id="Grupo_54221" data-name="Grupo 54221" transform="translate(-227.14 -464.782)">
    <g id="Grupo_46275" data-name="Grupo 46275" transform="translate(260.038 519.928)">
      <path id="Trazado_95860" data-name="Trazado 95860" d="M706.151,1936.852c0,2.835-55.542,5.135-124.058,5.135s-124.056-2.3-124.056-5.135,55.542-5.135,124.056-5.135S706.151,1934.016,706.151,1936.852Z" transform="translate(-458.037 -1777.854)" fill="#eff4ef"/>
      <path id="Trazado_95861" data-name="Trazado 95861" d="M811.307,866.915v124.5l-76.4,11.319H677.377l-77.339-11.319v-124.5a15.135,15.135,0,0,1,15.089-15.091H796.215A15.135,15.135,0,0,1,811.307,866.915Z" transform="translate(-579.806 -851.824)" fill="#3c4973"/>
      <rect id="Rectángulo_28184" data-name="Rectángulo 28184" width="181.087" height="113.182" transform="translate(35.322 15.091)" fill="#fff"/>
      <path id="Trazado_95862" data-name="Trazado 95862" d="M773.435,1831.536v3.772a15.133,15.133,0,0,1-15.088,15.091H562.167a15.135,15.135,0,0,1-15.092-15.092v-3.772h94.318l2.094,4.167a6.648,6.648,0,0,0,5.449,3.377h22.635a6.658,6.658,0,0,0,5.453-3.377l2.094-4.167Z" transform="translate(-534.389 -1691.946)" fill="#00223d"/>
    </g>
    <g id="Grupo_46289" data-name="Grupo 46289" transform="translate(498.95 503.334)">
      <path id="Trazado_95863" data-name="Trazado 95863" d="M2134.845,735.357l18.286,49.3,38.476-14.273Zm23.581,37.757-6.091-16.417,18.9,11.664Z" transform="translate(-2134.845 -735.357)" fill="url(#linear-gradient)"/>
      <g id="Grupo_46288" data-name="Grupo 46288" transform="translate(0 0)" clip-path="url(#clip-path)">
        <path id="Trazado_95864" data-name="Trazado 95864" d="M2134.845,735.357l18.286,49.3,38.476-14.273Zm23.581,37.757-6.091-16.417,18.9,11.664Z" transform="translate(-2134.845 -735.357)" fill="#d5f2e8"/>
        <g id="Grupo_46287" data-name="Grupo 46287" transform="translate(6.319 4.656)">
          <g id="Grupo_46276" data-name="Grupo 46276" transform="translate(40.84 25.285)">
            <path id="Trazado_95865" data-name="Trazado 95865" d="M2465.881,949.413a.85.85,0,0,1,.073-.745l1.709-2.772a.855.855,0,0,1,1.455.9l-1.709,2.769a.856.856,0,0,1-1.177.28A.842.842,0,0,1,2465.881,949.413Z" transform="translate(-2465.827 -945.492)" fill="url(#linear-gradient-3)"/>
          </g>
          <g id="Grupo_46277" data-name="Grupo 46277" transform="translate(36.755 22.755)">
            <path id="Trazado_95866" data-name="Trazado 95866" d="M2437.215,931.665a.85.85,0,0,1,.073-.748l1.709-2.769a.855.855,0,1,1,1.455.9l-1.71,2.771a.854.854,0,0,1-1.176.278A.84.84,0,0,1,2437.215,931.665Z" transform="translate(-2437.161 -927.741)" fill="url(#linear-gradient-4)"/>
          </g>
          <g id="Grupo_46278" data-name="Grupo 46278" transform="translate(32.672 20.227)">
            <path id="Trazado_95867" data-name="Trazado 95867" d="M2408.555,913.92a.852.852,0,0,1,.073-.746l1.711-2.771a.854.854,0,1,1,1.454.9l-1.709,2.771a.851.851,0,0,1-1.175.278A.842.842,0,0,1,2408.555,913.92Z" transform="translate(-2408.501 -909.997)" fill="url(#linear-gradient-5)"/>
          </g>
          <g id="Grupo_46279" data-name="Grupo 46279" transform="translate(28.587 17.698)">
            <path id="Trazado_95868" data-name="Trazado 95868" d="M2379.889,896.171a.856.856,0,0,1,.074-.748l1.709-2.77a.856.856,0,1,1,1.456.9l-1.709,2.77a.856.856,0,0,1-1.53-.151Z" transform="translate(-2379.835 -892.247)" fill="url(#linear-gradient-6)"/>
          </g>
          <g id="Grupo_46280" data-name="Grupo 46280" transform="translate(24.504 15.171)">
            <path id="Trazado_95869" data-name="Trazado 95869" d="M2351.232,878.428a.857.857,0,0,1,.073-.747l1.709-2.771a.856.856,0,0,1,1.455.9l-1.709,2.77a.855.855,0,0,1-1.53-.152Z" transform="translate(-2351.178 -874.506)" fill="url(#linear-gradient-7)"/>
          </g>
          <g id="Grupo_46281" data-name="Grupo 46281" transform="translate(20.42 12.641)">
            <path id="Trazado_95870" data-name="Trazado 95870" d="M2322.564,860.68a.855.855,0,0,1,.075-.747l1.71-2.769a.854.854,0,1,1,1.455.9l-1.71,2.771a.856.856,0,0,1-1.529-.151Z" transform="translate(-2322.51 -856.756)" fill="url(#linear-gradient-8)"/>
          </g>
          <g id="Grupo_46282" data-name="Grupo 46282" transform="translate(16.336 10.113)">
            <path id="Trazado_95871" data-name="Trazado 95871" d="M2293.9,842.936a.86.86,0,0,1,.073-.748l1.71-2.77a.855.855,0,0,1,1.456.9l-1.71,2.77a.856.856,0,0,1-1.529-.151Z" transform="translate(-2293.85 -839.012)" fill="url(#linear-gradient-9)"/>
          </g>
          <g id="Grupo_46283" data-name="Grupo 46283" transform="translate(12.251 7.585)">
            <path id="Trazado_95872" data-name="Trazado 95872" d="M2265.233,825.189a.857.857,0,0,1,.076-.747l1.71-2.77a.855.855,0,0,1,1.456.9l-1.71,2.77a.857.857,0,0,1-1.531-.151Z" transform="translate(-2265.181 -821.266)" fill="url(#linear-gradient-10)"/>
          </g>
          <g id="Grupo_46284" data-name="Grupo 46284" transform="translate(8.169 5.057)">
            <path id="Trazado_95873" data-name="Trazado 95873" d="M2236.581,807.449a.85.85,0,0,1,.073-.747l1.709-2.771a.855.855,0,0,1,1.455.9l-1.709,2.77a.853.853,0,0,1-1.176.278A.842.842,0,0,1,2236.581,807.449Z" transform="translate(-2236.527 -803.527)" fill="url(#linear-gradient-11)"/>
          </g>
          <g id="Grupo_46285" data-name="Grupo 46285" transform="translate(4.084 2.528)">
            <path id="Trazado_95874" data-name="Trazado 95874" d="M2207.913,789.7a.854.854,0,0,1,.073-.747l1.71-2.768a.855.855,0,1,1,1.456.9l-1.711,2.77a.852.852,0,0,1-1.175.278A.84.84,0,0,1,2207.913,789.7Z" transform="translate(-2207.859 -785.776)" fill="url(#linear-gradient-12)"/>
          </g>
          <g id="Grupo_46286" data-name="Grupo 46286">
            <path id="Trazado_95875" data-name="Trazado 95875" d="M2179.248,771.955a.844.844,0,0,1,.074-.746l1.709-2.772a.855.855,0,0,1,1.454.9l-1.71,2.769a.854.854,0,0,1-1.175.279A.844.844,0,0,1,2179.248,771.955Z" transform="translate(-2179.194 -768.032)" fill="url(#linear-gradient-13)"/>
          </g>
        </g>
      </g>
    </g>
    <path id="Trazado_95877" data-name="Trazado 95877" d="M1085.55,1408.664a11.88,11.88,0,0,1-9.292-.049l-29.127-14.573c-2.548-1.275-2.538-3.339.024-4.587l30.118-14.672a11.881,11.881,0,0,1,9.291.05l29.128,14.573c2.549,1.275,2.537,3.339-.024,4.587Z" transform="translate(-701.526 -779.554)" fill="#7a77ac"/>
    <path id="Trazado_95878" data-name="Trazado 95878" d="M1085.55,1279.477a11.878,11.878,0,0,1-9.292-.049l-29.127-14.573c-2.548-1.275-2.538-3.339.024-4.588l30.118-14.672a11.88,11.88,0,0,1,9.291.049l29.128,14.574c2.549,1.275,2.537,3.339-.024,4.587Z" transform="translate(-701.526 -668.772)" fill="#665b9a"/>
    <path id="Trazado_95879" data-name="Trazado 95879" d="M1085.55,1150.291a11.881,11.881,0,0,1-9.292-.05l-29.127-14.572c-2.548-1.275-2.538-3.339.024-4.588l30.118-14.672a11.881,11.881,0,0,1,9.291.05l29.128,14.573c2.549,1.275,2.537,3.339-.024,4.587Z" transform="translate(-701.526 -557.993)" fill="#7d6eb2"/>
    <g id="Grupo_46293" data-name="Grupo 46293" transform="translate(238.835 505.904)">
      <path id="Trazado_95880" data-name="Trazado 95880" d="M392.8,788.05a5.2,5.2,0,0,1-5.181,5.181H314.4a5.2,5.2,0,0,1-5.181-5.181v-29.47A5.2,5.2,0,0,1,314.4,753.4h73.219a5.2,5.2,0,0,1,5.181,5.181Z" transform="translate(-309.221 -753.4)" fill="#f2f4fc"/>
      <path id="Trazado_95881" data-name="Trazado 95881" d="M358.676,788.893a3.174,3.174,0,1,0,3.174-3.174A3.175,3.175,0,0,0,358.676,788.893Z" transform="translate(-351.63 -781.114)" fill="#b54273"/>
      <path id="Trazado_95882" data-name="Trazado 95882" d="M358.676,874.078a3.174,3.174,0,1,0,3.174-3.174A3.174,3.174,0,0,0,358.676,874.078Z" transform="translate(-351.63 -854.162)" fill="#f5ca56"/>
      <path id="Trazado_95883" data-name="Trazado 95883" d="M358.676,959.263a3.174,3.174,0,1,0,3.174-3.174A3.174,3.174,0,0,0,358.676,959.263Z" transform="translate(-351.63 -927.209)" fill="#7d6eb2"/>
      <g id="Grupo_46290" data-name="Grupo 46290" transform="translate(16.635 18.62)">
        <path id="Trazado_95884" data-name="Trazado 95884" d="M427.267,886.676a1.3,1.3,0,1,1,0-2.591h58.6a1.3,1.3,0,1,1,0,2.591Z" transform="translate(-425.972 -884.085)" fill="#f5ca56"/>
      </g>
      <g id="Grupo_46291" data-name="Grupo 46291" transform="translate(16.635 6.483)">
        <path id="Trazado_95885" data-name="Trazado 95885" d="M427.267,801.493a1.3,1.3,0,0,1,0-2.591h58.6a1.3,1.3,0,0,1,0,2.591Z" transform="translate(-425.972 -798.901)" fill="#b54273"/>
      </g>
      <g id="Grupo_46292" data-name="Grupo 46292" transform="translate(16.635 30.758)">
        <path id="Trazado_95886" data-name="Trazado 95886" d="M485.871,971.868h-58.6a1.3,1.3,0,1,1,0-2.59h58.6a1.3,1.3,0,1,1,0,2.59Z" transform="translate(-425.972 -969.278)" fill="#7d6eb2"/>
      </g>
      <circle id="Elipse_3860" data-name="Elipse 3860" cx="2.232" cy="2.232" r="2.232" transform="translate(62.86 5.547)" fill="#00223d"/>
      <path id="Trazado_95887" data-name="Trazado 95887" d="M503.188,879.744a2.232,2.232,0,1,1-2.233-2.232A2.233,2.233,0,0,1,503.188,879.744Z" transform="translate(-471.723 -859.829)" fill="#00223d"/>
      <path id="Trazado_95888" data-name="Trazado 95888" d="M637.351,964.933a2.232,2.232,0,1,1-2.232-2.232A2.232,2.232,0,0,1,637.351,964.933Z" transform="translate(-586.77 -932.88)" fill="#00223d"/>
    </g>
    <g id="Grupo_46294" data-name="Grupo 46294" transform="translate(406.371 464.782)">
      <path id="Trazado_95889" data-name="Trazado 95889" d="M1489.615,1107.094l-3.341,3.323a.7.7,0,0,1-1.132-.805l2.051-4.243a1.508,1.508,0,0,1,2.715,1.313A1.568,1.568,0,0,1,1489.615,1107.094Z" transform="translate(-1485.073 -1013.367)" fill="#2d2e85"/>
      <path id="Trazado_95890" data-name="Trazado 95890" d="M1561.245,472.807l-53.729,75.538-11.9,11.292-3.965-2.825,6.786-14.935,53.729-75.538a3.727,3.727,0,0,1,5.183-.869l3.026,2.155A3.728,3.728,0,0,1,1561.245,472.807Z" transform="translate(-1490.713 -464.782)" fill="#00223d"/>
      <path id="Trazado_95891" data-name="Trazado 95891" d="M1912.82,472.807l-2.1,2.945-9.08-6.47,2.1-2.945a3.727,3.727,0,0,1,5.183-.869l3.026,2.155A3.728,3.728,0,0,1,1912.82,472.807Z" transform="translate(-1842.288 -464.782)" fill="#7d6eb2"/>
      <path id="Trazado_95892" data-name="Trazado 95892" d="M1511.272,975.328l-3.756,5.272-11.9,11.292-3.966-2.825,6.786-14.935,3.756-5.273Z" transform="translate(-1490.713 -897.037)" fill="#7d6eb2"/>
    </g>
    <g id="Grupo_46296" data-name="Grupo 46296" transform="translate(459.082 568.114)">
      <path id="Trazado_95893" data-name="Trazado 95893" d="M1855.031,1257.859a9.562,9.562,0,0,0,9.534,9.534h43.849a9.562,9.562,0,0,0,9.533-9.533v-58.308a9.561,9.561,0,0,0-9.533-9.533l-43.849,0a9.561,9.561,0,0,0-9.534,9.534Z" transform="translate(-1855.031 -1190.016)" fill="#abe0e3"/>
      <g id="Grupo_46295" data-name="Grupo 46295" transform="translate(11.225 11.785)">
        <path id="Trazado_95894" data-name="Trazado 95894" d="M1938.708,1277l4.184,9.592,1.611-2.492,3.546,3.272,1.887-1.76-3.546-3.273,2.674-1.509Z" transform="translate(-1938.011 -1276.396)" fill="#00223d"/>
        <path id="Trazado_95895" data-name="Trazado 95895" d="M1944.086,1284.186l-3.475-3.206-1.746,2.7-4.779-10.955,11.828,4.376-2.9,1.635,3.475,3.207Zm-3.619-4.292,3.619,3.338,1.374-1.279-3.619-3.339,2.449-1.382-8.889-3.286,3.592,8.23Z" transform="translate(-1934.046 -1272.729)" fill="#fff"/>
        <path id="Trazado_95896" data-name="Trazado 95896" d="M2137.451,1283.059l-1.611,2.492-4.186-9.591,10.359,3.828-2.675,1.512,3.546,3.274-1.886,1.759Z" transform="translate(-2103.465 -1275.5)" fill="#fff"/>
        <path id="Trazado_95897" data-name="Trazado 95897" d="M2136.48,1439.423v-.556a2.486,2.486,0,0,0,.6-.158.711.711,0,0,0,.331-.276,1.048,1.048,0,0,0,.135-.45,6.724,6.724,0,0,0,.028-.678v-8.38l-.734,0a2.25,2.25,0,0,0-.833.123,1.288,1.288,0,0,0-.5.37,2.2,2.2,0,0,0-.365.679c-.1.283-.189.551-.255.806l-1.242.006v-2.953l10.662-.058v2.953l-1.24.007q-.172-.572-.273-.84a2.248,2.248,0,0,0-.221-.458,1.718,1.718,0,0,0-.258-.315,1.173,1.173,0,0,0-.29-.2,1.306,1.306,0,0,0-.386-.11,3.887,3.887,0,0,0-.6-.037l-.651,0v8.384c0,.3.009.521.026.676a1.2,1.2,0,0,0,.1.373.73.73,0,0,0,.177.231.979.979,0,0,0,.291.159,2.139,2.139,0,0,0,.5.111l0,.555Z" transform="translate(-2105.171 -1405.794)" fill="#fff"/>
        <path id="Trazado_95898" data-name="Trazado 95898" d="M1933.813,1457.748l3.53-7.4,3.156-1.705,1.544,1.426,1.541,1.423-1.818,2.94Z" transform="translate(-1933.813 -1423.578)" fill="#fff"/>
        <path id="Trazado_95899" data-name="Trazado 95899" d="M1986.4,1435.012l-4.379-4.041-1.433,2.5,3.128,2.888Z" transform="translate(-1973.924 -1408.425)" fill="#fff"/>
        <path id="Trazado_95900" data-name="Trazado 95900" d="M1965.335,1471.04a1.223,1.223,0,0,1-.84-.336,1,1,0,0,1-.28-1.177,1.247,1.247,0,0,1,1.933-.366,1,1,0,0,1,.279,1.18A1.219,1.219,0,0,1,1965.335,1471.04Zm-.026-1.538a.477.477,0,0,0-.42.281.362.362,0,0,0,.123.442.465.465,0,0,0,.745-.14.365.365,0,0,0-.122-.442A.464.464,0,0,0,1965.309,1469.5Z" transform="translate(-1959.809 -1440.907)" fill="#00223d"/>
        <path id="Trazado_95901" data-name="Trazado 95901" d="M1938.856,1480.01l-5.043,4.228,4.528-4.7Z" transform="translate(-1933.813 -1450.068)" fill="#00223d"/>
        <path id="Trazado_95902" data-name="Trazado 95902" d="M1981.791,1450.218l-3.031-2.9.523-.471,3.031,2.895Z" transform="translate(-1972.356 -1422.043)" fill="#00223d"/>
        <path id="Trazado_95903" data-name="Trazado 95903" d="M1954.885,1604.225l-9.057.048v-8.211l9.056-.052Z" transform="translate(-1944.116 -1549.949)" fill="#00223d"/>
        <path id="Trazado_95904" data-name="Trazado 95904" d="M1953.057,1602.531l-9.784.053v-8.889l9.784-.053ZM1944,1601.9l8.329-.044v-7.541l-8.329.046Z" transform="translate(-1941.925 -1547.918)" fill="#fff"/>
        <path id="Trazado_95905" data-name="Trazado 95905" d="M2004.672,1591.6l-1.878.009v-1.745l1.878-.009Zm-1.151-.669.425,0v-.392l-.425,0Z" transform="translate(-1992.966 -1544.669)" fill="#fff"/>
        <path id="Trazado_95906" data-name="Trazado 95906" d="M2004.672,1649.254l-1.878.01v-1.742l1.878-.012Zm-1.15-.668.423,0v-.393l-.425,0Z" transform="translate(-1992.966 -1594.11)" fill="#fff"/>
        <path id="Trazado_95907" data-name="Trazado 95907" d="M1941.11,1591.953l-1.879.009v-1.744l1.879-.009Zm-1.154-.67.425,0v-.393h-.425Z" transform="translate(-1938.458 -1544.974)" fill="#fff"/>
        <path id="Trazado_95908" data-name="Trazado 95908" d="M1941.1,1649.6l-1.881.011v-1.745l1.878-.011Zm-1.154-.669h.425v-.4l-.426,0Z" transform="translate(-1938.451 -1594.405)" fill="#fff"/>
        <path id="Trazado_95909" data-name="Trazado 95909" d="M2140.608,1610.215l-4.442,4.145c-.843.789-1.132,1.8-.638,2.258s1.584.18,2.429-.606l4.441-4.148Z" transform="translate(-2106.58 -1562.13)" fill="#00223d"/>
        <path id="Trazado_95910" data-name="Trazado 95910" d="M2134,1614.309h0a1.31,1.31,0,0,1-.913-.319c-.646-.6-.366-1.8.637-2.735l4.7-4.385,2.3,2.124-4.7,4.387A3.183,3.183,0,0,1,2134,1614.309Zm4.424-6.484-4.184,3.9c-.731.682-.941,1.5-.641,1.781.317.292,1.26.005,1.914-.6L2139.7,1609Z" transform="translate(-2104.399 -1559.262)" fill="#fff"/>
        <path id="Trazado_95911" data-name="Trazado 95911" d="M2185.965,1591.074l.305-.281c.844-.789,1.936-1.063,2.428-.607s.206,1.469-.64,2.257l-.3.283Z" transform="translate(-2150.039 -1544.765)" fill="#fff"/>
        <path id="Trazado_95912" data-name="Trazado 95912" d="M2184.668,1591.274l-2.3-2.125.561-.524c.968-.9,2.315-1.188,2.942-.608.645.6.365,1.8-.638,2.732Zm-1.274-2.132,1.275,1.178.046-.047c.732-.679.941-1.5.64-1.779-.317-.292-1.26-.006-1.912.6Z" transform="translate(-2146.953 -1542.836)" fill="#fff"/>
        <path id="Trazado_95913" data-name="Trazado 95913" d="M2167.032,1597.47l.91-.851c.5-.469,1.6-.214,2.442.566l.482.442c.842.778,1.123,1.8.622,2.264l-.91.851Z" transform="translate(-2133.803 -1550.269)" fill="#fff"/>
        <path id="Trazado_95914" data-name="Trazado 95914" d="M2167.48,1599.287l-4.061-3.748,1.17-1.088c.632-.6,1.991-.329,2.955.56l.479.443a3.1,3.1,0,0,1,.914,1.4,1.282,1.282,0,0,1-.289,1.337Zm-3.032-3.754,3.032,2.8.653-.613a.685.685,0,0,0,.1-.691,2.459,2.459,0,0,0-.719-1.095l-.479-.444c-.659-.608-1.6-.875-1.93-.567Z" transform="translate(-2130.705 -1548.338)" fill="#fff"/>
      </g>
    </g>
    <g id="Grupo_46300" data-name="Grupo 46300" transform="translate(227.14 570.756)">
      <g id="Grupo_46297" data-name="Grupo 46297" transform="translate(2.811 1.848)">
        <path id="Trazado_95915" data-name="Trazado 95915" d="M277.481,1308.61a5.177,5.177,0,0,1-7.053,1.89l-20.981-12.112a5.179,5.179,0,0,1-1.89-7.054l38.813-67.226a5.178,5.178,0,0,1,7.053-1.889l20.981,12.113a5.179,5.179,0,0,1,1.89,7.053Z" transform="translate(-246.869 -1221.531)" fill="#d8dff5"/>
        <path id="Trazado_95916" data-name="Trazado 95916" d="M483.961,1293.667l-29.924-17.277,8.115-14.054,29.923,17.276Z" transform="translate(-424.519 -1256.521)" fill="#7d6eb2"/>
        <rect id="Rectángulo_28185" data-name="Rectángulo 28185" width="16.23" height="34.553" transform="matrix(0.5, -0.866, 0.866, 0.5, 18.044, 39.742)" fill="#402f7c" opacity="0.75"/>
        <rect id="Rectángulo_28186" data-name="Rectángulo 28186" width="16.229" height="34.552" transform="translate(6.57 59.616) rotate(-60)" fill="#1f1164" opacity="0.5"/>
        <path id="Trazado_95917" data-name="Trazado 95917" d="M414.881,1792.051a2.618,2.618,0,1,0,3.576-.957A2.619,2.619,0,0,0,414.881,1792.051Z" transform="translate(-390.642 -1709.641)" fill="#8076f5"/>
      </g>
      <g id="Grupo_46298" data-name="Grupo 46298" transform="translate(0.603)">
        <path id="Trazado_95918" data-name="Trazado 95918" d="M264.92,1296.313a5.179,5.179,0,0,1-6.324,3.65l-23.4-6.271a5.176,5.176,0,0,1-3.65-6.322l20.09-74.982a5.18,5.18,0,0,1,6.324-3.652l23.4,6.271a5.179,5.179,0,0,1,3.651,6.323Z" transform="translate(-231.369 -1208.562)" fill="#eceffa"/>
        <rect id="Rectángulo_28187" data-name="Rectángulo 28187" width="16.229" height="34.553" transform="translate(15.098 23.113) rotate(-74.999)" fill="#ffce83"/>
        <path id="Trazado_95919" data-name="Trazado 95919" d="M329.023,1440.95l-33.375-8.944,4.2-15.677,33.376,8.943Z" transform="translate(-286.49 -1386.727)" fill="#f9c869" opacity="0.75"/>
        <rect id="Rectángulo_28188" data-name="Rectángulo 28188" width="16.23" height="34.552" transform="matrix(0.259, -0.966, 0.966, 0.259, 3.22, 67.446)" fill="#f5ca56" opacity="0.5"/>
        <path id="Trazado_95920" data-name="Trazado 95920" d="M414.621,1792.682a2.617,2.617,0,1,0,3.206-1.85A2.617,2.617,0,0,0,414.621,1792.682Z" transform="translate(-388.434 -1707.792)" fill="#8076f5"/>
      </g>
      <g id="Grupo_46299" data-name="Grupo 46299" transform="translate(0 3.637)">
        <path id="Trazado_95921" data-name="Trazado 95921" d="M261.694,1316.874a5.179,5.179,0,0,1-5.163,5.163H232.3a5.178,5.178,0,0,1-5.163-5.163v-77.626a5.177,5.177,0,0,1,5.163-5.163H256.53a5.178,5.178,0,0,1,5.163,5.163Z" transform="translate(-227.14 -1234.085)" fill="#fff"/>
        <rect id="Rectángulo_28189" data-name="Rectángulo 28189" width="34.554" height="16.23" transform="translate(0 8.899)" fill="#e36099"/>
        <rect id="Rectángulo_28190" data-name="Rectángulo 28190" width="34.554" height="16.229" transform="translate(0 31.848)" fill="#b54273" opacity="0.75"/>
        <rect id="Rectángulo_28191" data-name="Rectángulo 28191" width="34.554" height="16.23" transform="translate(0 54.796)" fill="#c1507f" opacity="0.5"/>
        <path id="Trazado_95922" data-name="Trazado 95922" d="M414.541,1793.363a2.617,2.617,0,1,0,2.616-2.618A2.617,2.617,0,0,0,414.541,1793.363Z" transform="translate(-387.84 -1711.431)" fill="#00223d"/>
      </g>
    </g>
  </g>
</svg>
