<svg xmlns="http://www.w3.org/2000/svg" xmlns:xlink="http://www.w3.org/1999/xlink" width="167.853" height="164.873" viewBox="0 0 167.853 164.873">
  <defs>
    <linearGradient id="linear-gradient" x1="0.5" x2="0.5" y2="1" gradientUnits="objectBoundingBox">
      <stop offset="0" stop-color="#fff"/>
      <stop offset="1" stop-color="#d2e6ee"/>
    </linearGradient>
    <linearGradient id="linear-gradient-2" x1="0.167" y1="-0.077" x2="0.833" y2="1.077" gradientUnits="objectBoundingBox">
      <stop offset="0" stop-color="#b1b2f3"/>
      <stop offset="1" stop-color="#9d9ef0"/>
    </linearGradient>
    <linearGradient id="linear-gradient-5" x1="0.314" y1="-0.604" x2="0.686" y2="1.604" xlink:href="#linear-gradient-2"/>
  </defs>
  <g id="Grupo_54157" data-name="Grupo 54157" transform="translate(0 0.023)">
    <g id="Grupo_29020" data-name="Grupo 29020" transform="translate(80.443 5.947)">
      <path id="Trazado_68871" data-name="Trazado 68871" d="M543.705,126.019Z" transform="translate(-528.053 -121.713)" fill="#cbd9e4"/>
      <path id="Trazado_68872" data-name="Trazado 68872" d="M526.562,123.507l-.97.19a7.359,7.359,0,0,0-.786-2.16l.864-.479a8.34,8.34,0,0,0-2.625-2.872l-.553.817a7.359,7.359,0,0,0-2.082-.975l.273-.946-.044-.013a8.319,8.319,0,0,0-3.845-.167l.187.97a7.375,7.375,0,0,0-2.162.781l-.476-.865a8.343,8.343,0,0,0-2.879,2.617l.815.554a7.369,7.369,0,0,0-.98,2.08l-.945-.276-.019.065a8.321,8.321,0,0,0-.172,3.822l.971-.184a7.372,7.372,0,0,0,.775,2.165l-.866.473h0a8.349,8.349,0,0,0,2.609,2.887l.557-.814a7.366,7.366,0,0,0,2.078.985l-.278.946h0l.087.026a8.326,8.326,0,0,0,3.889.159l-.192-.97a7.374,7.374,0,0,0,2.158-.793l.481.863a8.344,8.344,0,0,0,2.865-2.632l-.819-.551a7.372,7.372,0,0,0,.971-2.084l.946.27.006-.022a8.307,8.307,0,0,0,.163-3.867Zm-8.192,6.564a4.975,4.975,0,1,1,4.777-3.617A4.961,4.961,0,0,1,518.37,130.07Z" transform="translate(-510.018 -116.752)" fill="#cbd9e4"/>
    </g>
    <g id="Grupo_29021" data-name="Grupo 29021" transform="translate(18.182 32.249)">
      <path id="Trazado_68873" data-name="Trazado 68873" d="M588.323,405.419a29.082,29.082,0,1,0-51.106,0Z" transform="translate(-460.429 -274.592)" fill="#fff"/>
      <ellipse id="Elipse_3363" data-name="Elipse 3363" cx="38.723" cy="38.723" rx="38.723" ry="38.723" transform="translate(0 24.727)" fill="#fff"/>
      <ellipse id="Elipse_3364" data-name="Elipse 3364" cx="29.081" cy="29.081" rx="29.081" ry="29.081" transform="translate(17.806)" fill="#fff"/>
      <ellipse id="Elipse_3365" data-name="Elipse 3365" cx="29.081" cy="29.081" rx="29.081" ry="29.081" transform="translate(48.554 57.779) rotate(-79.905)" fill="#fff"/>
      <ellipse id="Elipse_3366" data-name="Elipse 3366" cx="22.84" cy="22.84" rx="22.84" ry="22.84" transform="translate(70.518 51.502)" fill="#fff"/>
      <path id="Trazado_68874" data-name="Trazado 68874" d="M398.951,362.789a29.08,29.08,0,0,0,8.3,32.27h63.716A29.077,29.077,0,0,0,438.826,346.8a29.09,29.09,0,0,0-34.383,6.892,5.314,5.314,0,1,0-5.492,9.1Z" transform="translate(-386.873 -264.233)" fill="#fff"/>
    </g>
    <g id="Grupo_29048" data-name="Grupo 29048" transform="translate(49.153 25.566)">
      <g id="Grupo_29044" data-name="Grupo 29044">
        <g id="Grupo_29043" data-name="Grupo 29043">
          <g id="Grupo_29042" data-name="Grupo 29042">
            <path id="Rectángulo_26499" data-name="Rectángulo 26499" d="M8.851,0H63.163a8.85,8.85,0,0,1,8.85,8.85V127.843a8.851,8.851,0,0,1-8.851,8.851H8.85A8.85,8.85,0,0,1,0,127.844V8.851A8.851,8.851,0,0,1,8.851,0Z" transform="translate(0.464 0.464)" fill="#00223d"/>
            <path id="Trazado_68906" data-name="Trazado 68906" d="M511.037,159.907a3.647,3.647,0,0,1,3.647,3.647v128.47a3.647,3.647,0,0,1-3.647,3.647H447.248a3.647,3.647,0,0,1-3.647-3.647V163.555a3.647,3.647,0,0,1,3.647-3.647h63.789m0-.929H447.248a4.582,4.582,0,0,0-4.577,4.577v128.47a4.582,4.582,0,0,0,4.577,4.577h63.789a4.582,4.582,0,0,0,4.577-4.577V163.555a4.581,4.581,0,0,0-4.577-4.577Z" transform="translate(-442.672 -158.978)" fill="#b4b7c6"/>
          </g>
        </g>
      </g>
      <g id="Grupo_29045" data-name="Grupo 29045" transform="translate(0.929 7.933)">
        <path id="Trazado_68907" data-name="Trazado 68907" d="M515.756,180.268V293.594a4.215,4.215,0,0,1-4.215,4.215H448.887a4.215,4.215,0,0,1-4.215-4.215V180.268a4.214,4.214,0,0,1,4.215-4.215h62.655A4.214,4.214,0,0,1,515.756,180.268Z" transform="translate(-444.672 -176.053)" fill="url(#linear-gradient)"/>
      </g>
      <g id="Grupo_29046" data-name="Grupo 29046" transform="translate(31.312 3.722)">
        <path id="Trazado_68908" data-name="Trazado 68908" d="M519.568,168.615h-8.69a.813.813,0,0,1-.814-.814h0a.814.814,0,0,1,.814-.814h8.69a.814.814,0,0,1,.814.814h0A.813.813,0,0,1,519.568,168.615Z" transform="translate(-510.065 -166.988)" fill="#161c59"/>
      </g>
      <g id="Grupo_29047" data-name="Grupo 29047" transform="translate(27.957 3.722)">
        <path id="Trazado_68909" data-name="Trazado 68909" d="M504.47,167.8a.814.814,0,1,1-.814-.814A.813.813,0,0,1,504.47,167.8Z" transform="translate(-502.843 -166.988)" fill="#161c59"/>
      </g>
    </g>
    <path id="Rectángulo_26500" data-name="Rectángulo 26500" d="M2.949,0h50.97a2.949,2.949,0,0,1,2.949,2.949v.79a2.948,2.948,0,0,1-2.948,2.948H2.948A2.948,2.948,0,0,1,0,3.739v-.79A2.949,2.949,0,0,1,2.949,0Z" transform="translate(57.19 79.715)" fill="#e6e7e8" style="mix-blend-mode: multiply;isolation: isolate"/>
    <rect id="Rectángulo_26501" data-name="Rectángulo 26501" width="16.755" height="7.894" rx="2.106" transform="translate(56.899 39.827)" fill="#e6e7e8" style="mix-blend-mode: multiply;isolation: isolate"/>
    <rect id="Rectángulo_26502" data-name="Rectángulo 26502" width="16.755" height="7.894" rx="2.106" transform="translate(77.247 39.827)" fill="#e6e7e8" style="mix-blend-mode: multiply;isolation: isolate"/>
    <rect id="Rectángulo_26503" data-name="Rectángulo 26503" width="16.755" height="7.894" rx="2.106" transform="translate(97.594 39.827)" fill="#e6e7e8" style="mix-blend-mode: multiply;isolation: isolate"/>
    <rect id="Rectángulo_26504" data-name="Rectángulo 26504" width="25.058" height="25.058" rx="2.455" transform="translate(59.283 106.498)" stroke="#707070" stroke-miterlimit="10" stroke-width="8" opacity="0.4" fill="url(#linear-gradient-2)" style="mix-blend-mode: multiply;isolation: isolate"/>
    <rect id="Rectángulo_26505" data-name="Rectángulo 26505" width="25.058" height="25.058" rx="2.455" transform="translate(91.792 106.498)" stroke="#707070" stroke-miterlimit="10" stroke-width="8" opacity="0.4" fill="url(#linear-gradient-2)" style="mix-blend-mode: multiply;isolation: isolate"/>
    <rect id="Rectángulo_26506" data-name="Rectángulo 26506" width="25.058" height="25.058" rx="2.455" transform="translate(124.302 106.498)" stroke="#707070" stroke-miterlimit="10" stroke-width="8" opacity="0.4" fill="url(#linear-gradient-2)" style="mix-blend-mode: multiply;isolation: isolate"/>
    <rect id="Rectángulo_26507" data-name="Rectángulo 26507" width="25.058" height="25.058" rx="2.455" transform="translate(57.495 104.709)" fill="#fff"/>
    <rect id="Rectángulo_26508" data-name="Rectángulo 26508" width="25.058" height="25.058" rx="2.455" transform="translate(90.004 104.709)" fill="#fff"/>
    <rect id="Rectángulo_26509" data-name="Rectángulo 26509" width="25.058" height="12.04" rx="1.702" transform="translate(90.004 134.628)" fill="#e6e7e8" style="mix-blend-mode: multiply;isolation: isolate"/>
    <rect id="Rectángulo_26510" data-name="Rectángulo 26510" width="25.058" height="12.04" rx="1.702" transform="translate(57.241 134.628)" fill="#e6e7e8" style="mix-blend-mode: multiply;isolation: isolate"/>
    <rect id="Rectángulo_26511" data-name="Rectángulo 26511" width="25.058" height="25.058" rx="2.455" transform="translate(122.513 104.709)" fill="#fff"/>
    <g id="Grupo_29049" data-name="Grupo 29049" transform="translate(56.899 49.822)">
      <rect id="Rectángulo_26512" data-name="Rectángulo 26512" width="16.755" height="1.866" rx="0.933" fill="#707070"/>
      <rect id="Rectángulo_26513" data-name="Rectángulo 26513" width="16.755" height="1.866" rx="0.933" transform="translate(20.348)" fill="#707070"/>
      <rect id="Rectángulo_26514" data-name="Rectángulo 26514" width="16.755" height="1.866" rx="0.933" transform="translate(40.696)" fill="#707070"/>
    </g>
    <g id="Grupo_29050" data-name="Grupo 29050" transform="translate(56.899 53.769)" style="mix-blend-mode: multiply;isolation: isolate">
      <rect id="Rectángulo_26515" data-name="Rectángulo 26515" width="16.755" height="1.866" rx="0.933" fill="#e6e7e8"/>
      <rect id="Rectángulo_26516" data-name="Rectángulo 26516" width="16.755" height="1.866" rx="0.933" transform="translate(20.348)" fill="#e6e7e8"/>
      <rect id="Rectángulo_26517" data-name="Rectángulo 26517" width="16.755" height="1.866" rx="0.933" transform="translate(40.696)" fill="#e6e7e8"/>
    </g>
    <g id="Grupo_29053" data-name="Grupo 29053" transform="translate(138.241 108.211)">
      <path id="Trazado_68910" data-name="Trazado 68910" d="M668.575,403.415c-1.256-.105-1.346-7.138-1.152-10.123s.9-5.3,2.438-5.172,1.848,2.53,1.541,5.506S669.832,403.52,668.575,403.415Z" transform="translate(-652.044 -364.298)" fill="#ffc8af"/>
      <path id="Trazado_68911" data-name="Trazado 68911" d="M675.208,431.042c-1.037.419-4.846-8.685-5.678-10.743s-1.55-4.3-.388-4.765,2.2,1.639,3.031,3.7S676.244,430.623,675.208,431.042Z" transform="translate(-652.682 -378.942)" fill="#ffc8af"/>
      <path id="Trazado_68912" data-name="Trazado 68912" d="M680.172,439.341c-.679.467-2.086.768-2.213.531s.091-.905.285-1.386l0,0c.059-.143.113-.269.156-.362.05-.118.084-.187.084-.187s-2.252-8.9-1.835-9.011c.452-.122,3.466,8.708,3.466,8.708s.015.056.04.135l.034.114.23.766C680.449,438.737,680.67,439,680.172,439.341Z" transform="translate(-656.999 -386.144)" fill="#ffc8af"/>
      <path id="Trazado_68913" data-name="Trazado 68913" d="M681.693,449.664c-.679.467-2.086.768-2.213.531s.091-.905.285-1.386l0,0c.058-.143.113-.269.156-.362.043.089.108.221.158.337.089.2.2.206.62-.066a8.056,8.056,0,0,1,1.011-.512s.269.563.342.757C682.089,449.048,682.192,449.327,681.693,449.664Z" transform="translate(-658.521 -396.466)" fill="#262b7f"/>
      <g id="Grupo_29052" data-name="Grupo 29052" transform="translate(16.114 9.148)">
        <path id="Trazado_68914" data-name="Trazado 68914" d="M677.123,367.3c-.839.349-3.317-4.336-4.221-6.4s-1.247-3.856-.223-4.282,2.051,1.079,2.879,3.177S677.961,366.952,677.123,367.3Z" transform="translate(-670.678 -356.544)" fill="#ffc8af"/>
        <g id="Grupo_29051" data-name="Grupo 29051" transform="translate(0 9.313)">
          <path id="Trazado_68915" data-name="Trazado 68915" d="M672.607,386.683c-.732-.336,1.536-5.817,2.234-7.339s1.545-3.077,2.367-2.7.2,2.034-.5,3.556S673.339,387.019,672.607,386.683Z" transform="translate(-670.899 -376.587)" fill="#ffc8af"/>
          <path id="Trazado_68916" data-name="Trazado 68916" d="M671.408,395.167c.892.331.129,1.839-.15,2.343a2.239,2.239,0,0,1-2.046,1.057c-.321-.171.848-1.955.808-2.057s-.573.914-.858.722.423-1.4.887-1.766A1.215,1.215,0,0,1,671.408,395.167Z" transform="translate(-669.096 -386.482)" fill="#ffc8af"/>
        </g>
      </g>
      <path id="Trazado_68917" data-name="Trazado 68917" d="M665.575,439.256c.076.3.23.64.065.939a.828.828,0,0,1-.587.347,6.662,6.662,0,0,1-.977.139,3.588,3.588,0,0,1-.4.032c-.11,0-.219-.02-.329-.027-.216-.013-.432,0-.648-.023-.021,0-.166,0-.186-.026s.018-.068.035-.084c.093-.081.215-.118.311-.2s.206-.184.315-.27a3.006,3.006,0,0,1,.7-.427c.049-.02-1.441-9.358-1-9.455C663.287,430.119,665.574,439.252,665.575,439.256Z" transform="translate(-649.455 -386.833)" fill="#ffc8af"/>
      <path id="Trazado_68918" data-name="Trazado 68918" d="M656.355,404.532c-1.232-.269-.4-7.252.179-10.187s1.589-5.137,3.093-4.809,1.5,2.75.809,5.66S657.587,404.8,656.355,404.532Z" transform="translate(-645.819 -365.042)" fill="#ffc8af"/>
      <path id="Trazado_68919" data-name="Trazado 68919" d="M661.411,432.127c-1.067.335-4.315-9-4.979-11.116s-1.2-4.406-.006-4.781,2.061,1.81,2.725,3.928S662.478,431.792,661.411,432.127Z" transform="translate(-645.819 -379.328)" fill="#ffc8af"/>
      <path id="Trazado_68920" data-name="Trazado 68920" d="M665.02,450.55v1.05a.191.191,0,0,1-.191.191l-3.378,0a.306.306,0,0,1-.185-.551,12.785,12.785,0,0,1,1.86-1.012c.138.122.346.5.589.543A6.786,6.786,0,0,0,665.02,450.55Z" transform="translate(-648.723 -397.551)" fill="#262b7f"/>
      <path id="Trazado_68921" data-name="Trazado 68921" d="M638.018,365.168c.526-.6,5.09,3.111,6.338,4.206s2.484,2.342,1.893,3.015-1.988-.39-3.236-1.484S637.491,365.769,638.018,365.168Z" transform="translate(-636.32 -351.978)" fill="#ffc8af"/>
      <path id="Trazado_68922" data-name="Trazado 68922" d="M666.734,372.956l-7.822-.325-.343-13.383.54-3.361,3.613-1.328,2.327.444a2.73,2.73,0,0,1,2.216,2.777l-.848,9.471Z" transform="translate(-647.346 -346.333)" fill="#ffc8af"/>
      <path id="Trazado_68923" data-name="Trazado 68923" d="M666.187,351.011V353.7a3.993,3.993,0,0,1-1.9.34c-.717,0-.878-.34-.878-.34v-.994Z" transform="translate(-649.938 -344.433)" fill="#ffc8af"/>
      <path id="Trazado_68924" data-name="Trazado 68924" d="M663.686,342.131c-.006.1-.009.189-.016.276,0,.032,0,.063,0,.1a3.37,3.37,0,0,1-2.5,3.538l-.035.007c-.012,0-.031,0-.053,0-.33.041-1.524.138-1.961-.342a4.064,4.064,0,0,1-.968-2.311,9.052,9.052,0,0,1,.129-1.162c0-.223-.12-.921-.122-1.224a2.677,2.677,0,0,1,2.652-2.838C663.369,338.175,663.759,340.415,663.686,342.131Z" transform="translate(-647.125 -337.561)" fill="#ffc8af"/>
      <path id="Trazado_68925" data-name="Trazado 68925" d="M663.414,356.6" transform="translate(-649.94 -347.427)" fill="#6ebaad"/>
      <path id="Trazado_68926" data-name="Trazado 68926" d="M657.826,356.109c-.544.5-.966,1.386-1.069,3.191a6.66,6.66,0,0,0,.274,3.577,13.573,13.573,0,0,1,.462,6.664l8.1.3s.171-5.434.448-7.167c.836-5.23-.007-6.914-1.464-7.322C662.4,354.738,658.37,355.6,657.826,356.109Z" transform="translate(-646.307 -346.644)" fill="#ffe3a1"/>
      <path id="Trazado_68927" data-name="Trazado 68927" d="M654.454,368.367c-.873-.225-.035-5.413.484-7.589s1.317-3.8,2.382-3.522.979,2.08.381,4.235S655.326,368.592,654.454,368.367Z" transform="translate(-644.94 -347.761)" fill="#ffc8af"/>
      <path id="Trazado_68928" data-name="Trazado 68928" d="M634.491,361.3c.21-.234,1.349.887,1.716,1.176.055.044.094.07.108.068s.014-.021,0-.05c-.059-.179-.509-.806-.291-1,.24-.217,1.137.634,1.441,1.178.017.03.039.063.052.091a1.206,1.206,0,0,1-.032,1.38c-.529.781-1.8-.308-2.222-.7a2.953,2.953,0,0,1-.747-1.25A1.13,1.13,0,0,1,634.491,361.3Z" transform="translate(-634.414 -349.925)" fill="#ffc8af"/>
      <path id="Trazado_68929" data-name="Trazado 68929" d="M657.114,339.424a2.413,2.413,0,0,0,.049.258c.176.714.734,1.129.678,1.908a3.255,3.255,0,0,0,.439,2.017c.861,1.46-.329,1.136-.09,3.377.118,1.1,1.162,1.554,3.226,1.524s4.334-.06,4.275-1.614a2.853,2.853,0,0,0-.568-1.544,2.066,2.066,0,0,1-.52-1.843,4.292,4.292,0,0,0,.236-.928c.047-.781-.512-1.032-.947-1.538-.467-.544-.193-1.462-.349-2.117-.508-2.128-2.714-2.378-4.506-1.8C657.942,337.475,656.945,338.167,657.114,339.424Z" transform="translate(-646.557 -336.854)" fill="#00223d"/>
      <path id="Trazado_68930" data-name="Trazado 68930" d="M671.21,382.215c-.068,1.7,1.215,3.931,1.413,5.624.4,3.394-1.95,9.75-1.95,10.16s2.2,5.924,3.048,9.286c0,0-.478.687-2.779,1.106,0,0-3.529-7.68-3.856-9.413s.074-16.446.074-16.446Z" transform="translate(-651.837 -361.139)" fill="#00223d"/>
      <path id="Trazado_68931" data-name="Trazado 68931" d="M660.864,382.816h-4.438a83.2,83.2,0,0,0-1.679,9.461c-.657,5.439-.448,7.053-.328,7.919s3.117,9.054,3.117,9.054a5.227,5.227,0,0,0,3.091-.717,59.236,59.236,0,0,0-1.876-6.813,21.42,21.42,0,0,1-.961-2.63,44.318,44.318,0,0,0,3.118-9.115A22.453,22.453,0,0,0,660.864,382.816Z" transform="translate(-645.055 -361.461)" fill="#00223d"/>
    </g>
    <rect id="Rectángulo_26518" data-name="Rectángulo 26518" width="81.101" height="23.704" rx="1.881" transform="translate(26.995 60.908)" stroke="#707070" stroke-miterlimit="10" stroke-width="8" opacity="0.3" fill="url(#linear-gradient-5)" style="mix-blend-mode: multiply;isolation: isolate"/>
    <g id="Grupo_29065" data-name="Grupo 29065" transform="translate(23.226 57.927)">
      <g id="Grupo_29054" data-name="Grupo 29054" transform="translate(0 72.902)">
        <path id="Trazado_68932" data-name="Trazado 68932" d="M397.355,385.535v6.328h-2.236v5h2.236v.02h-4.544v5h4.544v.02h-6.368v5h6.368v.019h-8.676v5h8.676v.02H386.871v5h26.1v-31.43Z" transform="translate(-386.871 -385.535)" fill="#00223d"/>
      </g>
      <path id="Trazado_68933" data-name="Trazado 68933" d="M418.226,385.535v6.328h-2.236v5h2.236v.02h-4.544v5h4.544v.02h-6.367v5h6.367v.019H409.55v5h8.676v.02H407.742v5h16.406v-31.43Z" transform="translate(-398.045 -312.633)" fill="#8998a5"/>
      <g id="Grupo_29064" data-name="Grupo 29064" transform="translate(4.364)">
        <path id="Trazado_68934" data-name="Trazado 68934" d="M426.256,332.505c1.328-.112,1.423-7.543,1.218-10.7s-.956-5.6-2.577-5.465-1.953,2.674-1.628,5.819S424.928,332.617,426.256,332.505Z" transform="translate(-410.662 -275.585)" fill="#ffc8af"/>
        <path id="Trazado_68935" data-name="Trazado 68935" d="M415.944,361.7c1.1.442,5.122-9.178,6-11.354s1.638-4.54.41-5.036-2.324,1.733-3.2,3.908S414.849,361.258,415.944,361.7Z" transform="translate(-406.686 -291.06)" fill="#ffc8af"/>
        <path id="Trazado_68936" data-name="Trazado 68936" d="M414.327,370.471c.718.494,2.2.813,2.339.561s-.1-.956-.3-1.465l0,0c-.062-.15-.12-.285-.164-.383-.053-.125-.088-.2-.088-.2s2.38-9.4,1.939-9.523c-.478-.129-3.662,9.2-3.662,9.2s-.016.059-.042.142l-.037.12-.242.809C414.035,369.833,413.8,370.116,414.327,370.471Z" transform="translate(-405.753 -298.672)" fill="#ffc8af"/>
        <path id="Trazado_68937" data-name="Trazado 68937" d="M414.24,381.38c.718.494,2.2.813,2.339.561s-.1-.956-.3-1.465l0,0c-.062-.151-.12-.285-.164-.383-.045.094-.114.233-.167.357-.093.215-.216.217-.655-.071a8.478,8.478,0,0,0-1.068-.541s-.283.595-.362.8C413.823,380.73,413.714,381.025,414.24,381.38Z" transform="translate(-405.666 -309.581)" fill="#00223d"/>
        <path id="Trazado_68938" data-name="Trazado 68938" d="M423.1,326.731s.055,6.79-.249,8.211-6.218,15.013-6.218,15.013a8.406,8.406,0,0,1-2.265-.644s2.211-7.769,3.126-10.548,1.737-4.074,1.674-5.084-1.074-9.443-1.074-9.443l5.009-.211Z" transform="translate(-405.958 -279.702)" fill="#00223d"/>
        <g id="Grupo_29057" data-name="Grupo 29057" transform="translate(12.552 14.785)">
          <g id="Grupo_29055" data-name="Grupo 29055" transform="translate(9.498)">
            <path id="Trazado_68939" data-name="Trazado 68939" d="M453.033,265.012c-.526-.669-5.6,3.021-6.985,4.114s-2.777,2.351-2.187,3.1,2.139-.3,3.529-1.4S453.56,265.681,453.033,265.012Z" transform="translate(-443.722 -262.849)" fill="#ffc8af"/>
            <path id="Trazado_68940" data-name="Trazado 68940" d="M460.68,263.583c.562.835,1.921-.323,2.37-.735a2.368,2.368,0,0,0,.578-2.364c-.257-.288-1.8,1.356-1.913,1.34s.8-.815.528-1.061-1.33.781-1.595,1.349A1.284,1.284,0,0,0,460.68,263.583Z" transform="translate(-452.669 -260.45)" fill="#ffc8af"/>
          </g>
          <g id="Grupo_29056" data-name="Grupo 29056" transform="translate(0 7.975)">
            <path id="Trazado_68941" data-name="Trazado 68941" d="M435.475,277.955c-.283-.917-5.765.234-8.055.895s-3.976,1.591-3.631,2.711,2.263.939,4.527.194S435.758,278.873,435.475,277.955Z" transform="translate(-423.529 -277.614)" fill="#ffc8af"/>
            <path id="Trazado_68942" data-name="Trazado 68942" d="M423.494,282.129c-.552-1-.038-2.075,1.5-2.682A44.926,44.926,0,0,1,430.451,278c.04.087.077.173.112.257.91,2.127.5,2.8.5,2.8-2.63,1.057-5.713,1.892-6.747,1.539A3.013,3.013,0,0,1,423.494,282.129Z" transform="translate(-423.28 -277.821)" fill="#ffe3a1"/>
          </g>
        </g>
        <g id="Grupo_29060" data-name="Grupo 29060">
          <rect id="Rectángulo_26519" data-name="Rectángulo 26519" width="81.101" height="23.703" rx="1.47" fill="#00223d"/>
          <g id="Grupo_29058" data-name="Grupo 29058" transform="translate(3.673 3.453)">
            <rect id="Rectángulo_26520" data-name="Rectángulo 26520" width="16.798" height="16.798" rx="0.634" fill="#eef0f2"/>
            <path id="Trazado_68943" data-name="Trazado 68943" d="M422.577,248.386l-7.749-4.474a.3.3,0,0,0-.442.256v8.948a.3.3,0,0,0,.442.256l7.749-4.474A.3.3,0,0,0,422.577,248.386Z" transform="translate(-409.639 -240.242)" fill="#f6c343"/>
          </g>
          <g id="Grupo_29059" data-name="Grupo 29059" transform="translate(25.838 4.411)">
            <rect id="Rectángulo_26521" data-name="Rectángulo 26521" width="47.252" height="2.106" rx="1.053" fill="#eef0f2"/>
            <rect id="Rectángulo_26522" data-name="Rectángulo 26522" width="47.252" height="2.106" rx="1.053" transform="translate(0 6.387)" fill="#eef0f2"/>
            <rect id="Rectángulo_26523" data-name="Rectángulo 26523" width="36.584" height="2.106" rx="1.053" transform="translate(0 12.775)" fill="#eef0f2"/>
          </g>
        </g>
        <path id="Trazado_68944" data-name="Trazado 68944" d="M430.568,370.382c-.065.257-.292.794-.083,1.029.13.145.442.156.617.163a1.94,1.94,0,0,0,.652-.055c.278-.079.442-.141.515-.434.165-.669.232-1.361.33-2.043.147-1.03.293-2.061.43-3.092.139-1.047.273-2.095.375-3.146.038-.392.072-.785.089-1.178a2.22,2.22,0,0,0-.019-.693c-.01-.034-.017-.1-.062-.114C432.985,360.726,430.568,370.378,430.568,370.382Z" transform="translate(-414.539 -299.4)" fill="#ffc8af"/>
        <path id="Trazado_68945" data-name="Trazado 68945" d="M437.948,333.686c1.3-.284.425-7.664-.19-10.765s-1.679-5.429-3.268-5.082-1.587,2.906-.854,5.982S436.647,333.97,437.948,333.686Z" transform="translate(-416.019 -276.371)" fill="#ffc8af"/>
        <path id="Trazado_68946" data-name="Trazado 68946" d="M431.659,362.848c1.127.354,4.56-9.508,5.262-11.747s1.27-4.656.007-5.052-2.178,1.912-2.88,4.151S430.532,362.494,431.659,362.848Z" transform="translate(-415.073 -291.469)" fill="#ffc8af"/>
        <path id="Trazado_68947" data-name="Trazado 68947" d="M430.245,382.318v1.109a.2.2,0,0,0,.2.2l3.569,0a.324.324,0,0,0,.2-.583,13.552,13.552,0,0,0-1.966-1.068c-.146.129-.366.526-.622.574A7.161,7.161,0,0,1,430.245,382.318Z" transform="translate(-414.457 -310.727)" fill="#00223d"/>
        <path id="Trazado_68948" data-name="Trazado 68948" d="M422.679,300.316h8.793l.362-14.143-.655-3.99-4.261-1.309-2.459.469a2.885,2.885,0,0,0-2.343,2.935l.9,10.009Z" transform="translate(-410.104 -256.6)" fill="#ffc8af"/>
        <path id="Trazado_68949" data-name="Trazado 68949" d="M430.47,276.8v2.842a4.221,4.221,0,0,0,2.006.359c.758,0,.928-.359.928-.359V278.6Z" transform="translate(-414.577 -254.421)" fill="#ffc8af"/>
        <path id="Trazado_68950" data-name="Trazado 68950" d="M429.748,267.42c.007.1.01.2.016.292,0,.033,0,.066,0,.1-.07,1.687,1.013,3.493,2.643,3.739l.037.007c.013,0,.033,0,.056,0,.349.043,1.611.146,2.072-.362a4.3,4.3,0,0,0,1.023-2.442,9.591,9.591,0,0,0-.136-1.228c0-.236.126-.974.129-1.294a2.828,2.828,0,0,0-2.8-3C430.084,263.239,429.672,265.607,429.748,267.42Z" transform="translate(-414.186 -247.158)" fill="#ffc8af"/>
        <path id="Trazado_68951" data-name="Trazado 68951" d="M436.781,283.034" transform="translate(-417.956 -257.756)" fill="#6ebaad"/>
        <g id="Grupo_29062" data-name="Grupo 29062" transform="translate(28.424 22.636)">
          <path id="Trazado_68952" data-name="Trazado 68952" d="M466.741,281.026c-.515-.669-5.577,2.941-6.967,4.012s-2.777,2.3-2.2,3.053,2.123-.278,3.513-1.349S467.256,281.694,466.741,281.026Z" transform="translate(-457.441 -279.273)" fill="#ffc8af"/>
          <g id="Grupo_29061" data-name="Grupo 29061" transform="translate(7.575)">
            <path id="Trazado_68953" data-name="Trazado 68953" d="M475.413,278.42a.308.308,0,0,1-.119.064c-.015,0-.013-.024,0-.053.075-.185.591-.816.374-1.039-.238-.245-1.242.593-1.6,1.146-.02.031-.046.064-.061.092a1.274,1.274,0,0,0-.058,1.458c.506.86,1.921-.2,2.39-.585a2.522,2.522,0,0,0,.807-1.122C476.575,278.42,476.06,278.387,475.413,278.42Z" transform="translate(-473.746 -277.348)" fill="#ffc8af"/>
          </g>
        </g>
        <path id="Trazado_68954" data-name="Trazado 68954" d="M436.134,325.761a34.831,34.831,0,0,1,1.364,11.352c-.142,2.321-4.764,14.4-4.764,14.4a3.47,3.47,0,0,1-2.321-.526s3.39-14.252,3.2-15.389-2.744-10.332-2.744-10.332Z" transform="translate(-414.547 -280.365)" fill="#00223d"/>
        <path id="Trazado_68955" data-name="Trazado 68955" d="M428.675,281.536a8.964,8.964,0,0,1,2.327.788,10.3,10.3,0,0,1,.83,3.434c.031.533.028,2.063.009,3.984-.053,4.931-.214,12.455-.214,12.455H421.57s.739-11.043.447-12.875c-.883-5.527.007-7.306,1.547-7.738C425.871,280.937,427.172,281.411,428.675,281.536Z" transform="translate(-409.812 -256.802)" fill="#ffe3a1"/>
        <path id="Trazado_68956" data-name="Trazado 68956" d="M434.483,266.746s-.032,1.105-.19,1.184-.19-.3-.221-.592c-.035-.329-.063-.892-.568-.829s-.341,1.181-.231,1.559-.567,1.9-1.005,1.946-2.191.19-2.428-.174a7.451,7.451,0,0,1-.821-3.095c-.047-1.374-.316-3.253.963-3.663,0,0,.187-.988,2.038-.751s1.971.483,2.714.5a2.6,2.6,0,0,0,.876-.19s.341,1.575-.67,1.859c0,0,.236,1.062-.127,1.235S434.5,266.379,434.483,266.746Z" transform="translate(-413.771 -246.653)" fill="#00223d"/>
        <g id="Grupo_29063" data-name="Grupo 29063" transform="translate(18.797 25.273)">
          <path id="Trazado_68957" data-name="Trazado 68957" d="M447.708,289.473c.429-.85-4.276-3.8-6.366-4.9s-3.934-1.6-4.458-.563.97,2.227,3.1,3.254S447.279,290.323,447.708,289.473Z" transform="translate(-436.752 -283.245)" fill="#ffc8af"/>
          <path id="Trazado_68958" data-name="Trazado 68958" d="M437.2,283.266c-.885.717-.505,2.013.855,2.951a44.938,44.938,0,0,0,4.991,2.641c.059-.076.114-.151.166-.226,1.366-1.867,1.119-2.616,1.119-2.616C442,284.392,438.379,282.308,437.2,283.266Z" transform="translate(-436.72 -283.024)" fill="#ffe3a1"/>
        </g>
        <path id="Trazado_68959" data-name="Trazado 68959" d="M466.794,288c-.221-.247-1.425.936-1.813,1.242.655-.1,1.264-.2,1.782-.3C466.9,288.515,466.917,288.136,466.794,288Z" transform="translate(-433.054 -260.396)" fill="#ffc8af"/>
      </g>
    </g>
    <path id="Trazado_68960" data-name="Trazado 68960" d="M359.111,215.367a11.118,11.118,0,1,0-6.016,9.876c1.814.589,5.162,1.661,5.162,1.661l-1.408-4.815A11.066,11.066,0,0,0,359.111,215.367Z" transform="translate(-336.881 -157.651)" fill="#cbd9e4"/>
    <g id="Grupo_29066" data-name="Grupo 29066" transform="translate(25.177 32.017)">
      <path id="Trazado_68961" data-name="Trazado 68961" d="M397.31,172.931a3.64,3.64,0,1,0,2.852,2.852A3.642,3.642,0,0,0,397.31,172.931Zm1.3,7.206a4.137,4.137,0,0,1-4.031,0,5.523,5.523,0,0,0-3.507,5.144v.12a8.482,8.482,0,0,0,11.048,0v-.12A5.527,5.527,0,0,0,398.606,180.137Z" transform="translate(-391.069 -172.862)" fill="#cbd9e4"/>
    </g>
    <g id="Grupo_29067" data-name="Grupo 29067" transform="translate(97.799 114.131)">
      <path id="Trazado_68962" data-name="Trazado 68962" d="M547.372,355.472v-.96l2.666-1.246v.772l-2.082.953,2.082.953v.772Z" transform="translate(-547.372 -351.561)" fill="#00223d"/>
      <path id="Trazado_68963" data-name="Trazado 68963" d="M556.492,349.6h.895l-2.5,6.213H554Z" transform="translate(-550.921 -349.596)" fill="#00223d"/>
      <path id="Trazado_68964" data-name="Trazado 68964" d="M562.012,356.718v-.772l2.076-.953-2.076-.953v-.772l2.666,1.246v.96Z" transform="translate(-555.21 -351.561)" fill="#00223d"/>
    </g>
    <path id="Rectángulo_26524" data-name="Rectángulo 26524" d="M2.949,0h50.97a2.949,2.949,0,0,1,2.949,2.949v.79a2.949,2.949,0,0,1-2.949,2.949H2.948A2.948,2.948,0,0,1,0,3.739v-.79A2.949,2.949,0,0,1,2.949,0Z" transform="translate(57.19 89.634)" fill="#707070"/>
    <path id="Trazado_68965" data-name="Trazado 68965" d="M486.211,353.378a2.632,2.632,0,0,0-.328-1.123l.325-.181a3.007,3.007,0,0,0-.629-.784l-.248.279a2.624,2.624,0,0,0-1.025-.564l.1-.357h0a3.006,3.006,0,0,0-.819-.114c-.059,0-.117,0-.176.005l.022.372a2.629,2.629,0,0,0-1.123.328l-.181-.326a3.015,3.015,0,0,0-.785.628l.279.249a2.623,2.623,0,0,0-.564,1.025l-.357-.1,0,.007a3,3,0,0,0-.114.819c0,.058,0,.116.005.173l.372-.021a2.624,2.624,0,0,0,.327,1.123l-.326.181a3.014,3.014,0,0,0,.628.785l.249-.278a2.616,2.616,0,0,0,1.024.565l-.1.357.009,0a3.009,3.009,0,0,0,.819.114c.06,0,.121,0,.181-.006l-.023-.372a2.627,2.627,0,0,0,1.123-.329l.182.325a3,3,0,0,0,.783-.63l-.279-.248a2.616,2.616,0,0,0,.563-1.025l.357.1v0a3.009,3.009,0,0,0,.114-.819q0-.09-.006-.178Zm-3.277,2.462h0l.019-.065Zm2.183-1.871a1.588,1.588,0,1,1,.061-.434A1.592,1.592,0,0,1,485.117,353.969Z" transform="translate(-413.816 -235.966)" fill="#00223d"/>
    <path id="Trazado_68966" data-name="Trazado 68966" d="M625.73,353.647v-1.506h-.836v1.506h-1.506v.836h1.506v1.507h.836v-1.507h1.506v-.836Z" transform="translate(-490.27 -236.827)" fill="#00223d"/>
    <g id="Grupo_29070" data-name="Grupo 29070" transform="translate(102.717 6.079)">
      <g id="Grupo_29069" data-name="Grupo 29069" transform="translate(0)">
        <rect id="Rectángulo_26525" data-name="Rectángulo 26525" width="58.912" height="37.429" rx="2.658" fill="url(#linear-gradient)"/>
        <g id="Grupo_29068" data-name="Grupo 29068" transform="translate(5.318 4.323)">
          <rect id="Rectángulo_26526" data-name="Rectángulo 26526" width="9.907" height="0.6" rx="0.3" transform="translate(29.886)" fill="#00223d"/>
          <rect id="Rectángulo_26527" data-name="Rectángulo 26527" width="28.311" height="0.6" rx="0.3" fill="#00223d"/>
          <rect id="Rectángulo_26528" data-name="Rectángulo 26528" width="9.873" height="0.6" rx="0.3" transform="translate(38.402 3.131)" fill="#00223d"/>
          <rect id="Rectángulo_26529" data-name="Rectángulo 26529" width="8.714" height="0.6" rx="0.3" transform="translate(0 3.131)" fill="#00223d"/>
          <rect id="Rectángulo_26530" data-name="Rectángulo 26530" width="26.62" height="0.6" rx="0.3" transform="translate(10.364 3.131)" fill="#00223d"/>
          <rect id="Rectángulo_26531" data-name="Rectángulo 26531" width="16.746" height="0.6" rx="0.3" transform="translate(27.983 6.263)" fill="#00223d"/>
          <rect id="Rectángulo_26532" data-name="Rectángulo 26532" width="26.32" height="0.6" rx="0.3" transform="translate(0 6.263)" fill="#00223d"/>
          <rect id="Rectángulo_26533" data-name="Rectángulo 26533" width="12.487" height="0.6" rx="0.3" transform="translate(0 9.394)" fill="#00223d"/>
          <rect id="Rectángulo_26534" data-name="Rectángulo 26534" width="34.295" height="0.6" rx="0.3" transform="translate(13.98 9.394)" fill="#00223d"/>
          <rect id="Rectángulo_26535" data-name="Rectángulo 26535" width="40.748" height="0.6" rx="0.3" transform="translate(0 12.525)" fill="#00223d"/>
          <rect id="Rectángulo_26536" data-name="Rectángulo 26536" width="7.009" height="0.6" rx="0.3" transform="translate(0 15.657)" fill="#00223d"/>
          <rect id="Rectángulo_26537" data-name="Rectángulo 26537" width="26.783" height="0.6" rx="0.3" transform="translate(8.864 15.657)" fill="#00223d"/>
          <rect id="Rectángulo_26538" data-name="Rectángulo 26538" width="8.073" height="0.6" rx="0.3" transform="translate(37.611 15.657)" fill="#00223d"/>
          <rect id="Rectángulo_26539" data-name="Rectángulo 26539" width="27.601" height="0.6" rx="0.3" transform="translate(0 18.788)" fill="#00223d"/>
          <rect id="Rectángulo_26540" data-name="Rectángulo 26540" width="18.846" height="0.6" rx="0.3" transform="translate(29.429 18.788)" fill="#00223d"/>
          <rect id="Rectángulo_26541" data-name="Rectángulo 26541" width="4.432" height="0.6" rx="0.3" transform="translate(41.838 21.919)" fill="#00223d"/>
          <rect id="Rectángulo_26542" data-name="Rectángulo 26542" width="11.885" height="0.6" rx="0.3" transform="translate(0 21.919)" fill="#00223d"/>
          <rect id="Rectángulo_26543" data-name="Rectángulo 26543" width="26.408" height="0.6" rx="0.3" transform="translate(13.603 21.919)" fill="#00223d"/>
          <rect id="Rectángulo_26544" data-name="Rectángulo 26544" width="21.819" height="0.6" rx="0.3" transform="translate(26.456 25.051)" fill="#00223d"/>
          <rect id="Rectángulo_26545" data-name="Rectángulo 26545" width="24.819" height="0.6" rx="0.3" transform="translate(0 25.051)" fill="#00223d"/>
          <rect id="Rectángulo_26546" data-name="Rectángulo 26546" width="29.129" height="0.6" rx="0.3" transform="translate(5.318 28.182)" fill="#00223d"/>
          <rect id="Rectángulo_26547" data-name="Rectángulo 26547" width="3.409" height="0.6" rx="0.3" transform="translate(0 28.182)" fill="#00223d"/>
        </g>
      </g>
    </g>
    <rect id="Rectángulo_26548" data-name="Rectángulo 26548" width="164.457" height="2.59" rx="1.295" transform="translate(3.395 162.26)" fill="#b3b5c4"/>
    <rect id="Rectángulo_26549" data-name="Rectángulo 26549" width="62.115" height="13.306" rx="3.608" transform="translate(11.228 9.097)" fill="#7d6eb2"/>
    <g id="Grupo_29071" data-name="Grupo 29071" transform="translate(26.3 12.568)">
      <rect id="Rectángulo_26550" data-name="Rectángulo 26550" width="41.781" height="0.901" rx="0.45" fill="#e6eef3"/>
      <rect id="Rectángulo_26551" data-name="Rectángulo 26551" width="41.781" height="0.901" rx="0.45" transform="translate(0 2.732)" fill="#e6eef3"/>
      <rect id="Rectángulo_26552" data-name="Rectángulo 26552" width="32.348" height="0.901" rx="0.45" transform="translate(0 5.463)" fill="#e6eef3"/>
    </g>
    <circle id="Elipse_3367" data-name="Elipse 3367" cx="4.789" cy="4.789" r="4.789" transform="translate(11.912 15.75) rotate(-45)" fill="#e6eef3"/>
    <g id="Grupo_29072" data-name="Grupo 29072" transform="translate(16.487 12.848)">
      <path id="Trazado_68967" data-name="Trazado 68967" d="M374.848,131.634a1.448,1.448,0,1,0,1.135,1.135A1.449,1.449,0,0,0,374.848,131.634Zm.516,2.867a1.648,1.648,0,0,1-1.6,0,2.2,2.2,0,0,0-1.4,2.046v.048a3.374,3.374,0,0,0,4.4,0v-.048A2.2,2.2,0,0,0,375.364,134.5Z" transform="translate(-372.365 -131.607)" fill="#7d6eb2"/>
    </g>
    <g id="Grupo_29077" data-name="Grupo 29077" transform="translate(0.876 94.244)">
      <rect id="Rectángulo_26553" data-name="Rectángulo 26553" width="31.323" height="19.533" rx="2.294" fill="#cbd9e4"/>
      <g id="Grupo_29075" data-name="Grupo 29075" transform="translate(2.721 4.234)">
        <g id="Grupo_29073" data-name="Grupo 29073">
          <rect id="Rectángulo_26554" data-name="Rectángulo 26554" width="1.898" height="11.064" fill="#f6c343"/>
          <rect id="Rectángulo_26555" data-name="Rectángulo 26555" width="1.898" height="11.064" transform="translate(4.066)" fill="#f6c343"/>
          <rect id="Rectángulo_26556" data-name="Rectángulo 26556" width="1.898" height="11.064" transform="translate(8.132)" fill="#f6c343"/>
          <rect id="Rectángulo_26557" data-name="Rectángulo 26557" width="1.898" height="11.064" transform="translate(12.197)" fill="#f6c343"/>
          <rect id="Rectángulo_26558" data-name="Rectángulo 26558" width="1.898" height="11.064" transform="translate(16.263)" fill="#f6c343"/>
        </g>
        <g id="Grupo_29074" data-name="Grupo 29074">
          <rect id="Rectángulo_26559" data-name="Rectángulo 26559" width="1.898" height="2.763" fill="#f1f1f1"/>
          <rect id="Rectángulo_26560" data-name="Rectángulo 26560" width="1.898" height="6.448" transform="translate(4.066)" fill="#f1f1f1"/>
          <rect id="Rectángulo_26561" data-name="Rectángulo 26561" width="1.898" height="4.705" transform="translate(8.132)" fill="#f1f1f1"/>
          <rect id="Rectángulo_26562" data-name="Rectángulo 26562" width="1.898" height="7.982" transform="translate(12.197)" fill="#f1f1f1"/>
          <rect id="Rectángulo_26563" data-name="Rectángulo 26563" width="1.898" height="9.41" transform="translate(16.263)" fill="#f1f1f1"/>
        </g>
      </g>
      <g id="Grupo_29076" data-name="Grupo 29076" transform="translate(22.929 4.234)" style="mix-blend-mode: multiply;isolation: isolate">
        <rect id="Rectángulo_26564" data-name="Rectángulo 26564" width="5.753" height="0.923" fill="#dce8ef"/>
        <rect id="Rectángulo_26565" data-name="Rectángulo 26565" width="5.753" height="0.923" transform="translate(0 2.028)" fill="#dce8ef"/>
        <rect id="Rectángulo_26566" data-name="Rectángulo 26566" width="5.753" height="0.923" transform="translate(0 4.057)" fill="#dce8ef"/>
        <rect id="Rectángulo_26567" data-name="Rectángulo 26567" width="5.753" height="0.923" transform="translate(0 6.085)" fill="#dce8ef"/>
        <rect id="Rectángulo_26568" data-name="Rectángulo 26568" width="5.753" height="0.923" transform="translate(0 8.113)" fill="#dce8ef"/>
        <rect id="Rectángulo_26569" data-name="Rectángulo 26569" width="5.753" height="0.923" transform="translate(0 10.141)" fill="#dce8ef"/>
      </g>
    </g>
    <g id="Grupo_29082" data-name="Grupo 29082" transform="translate(125.888 48.819)">
      <rect id="Rectángulo_26570" data-name="Rectángulo 26570" width="31.323" height="19.533" rx="2.294" transform="translate(0)" fill="url(#linear-gradient)"/>
      <g id="Grupo_29078" data-name="Grupo 29078" transform="translate(3.545 1.858)" style="mix-blend-mode: multiply;isolation: isolate">
        <line id="Línea_260" data-name="Línea 260" y2="15.817" transform="translate(24.233)" fill="none" stroke="#dce8ef" stroke-miterlimit="10" stroke-width="0.5"/>
        <line id="Línea_261" data-name="Línea 261" y2="15.817" transform="translate(20.195)" fill="none" stroke="#dce8ef" stroke-miterlimit="10" stroke-width="0.5"/>
        <line id="Línea_262" data-name="Línea 262" y2="15.817" transform="translate(16.156)" fill="none" stroke="#dce8ef" stroke-miterlimit="10" stroke-width="0.5"/>
        <line id="Línea_263" data-name="Línea 263" y2="15.817" transform="translate(12.117)" fill="none" stroke="#dce8ef" stroke-miterlimit="10" stroke-width="0.5"/>
        <line id="Línea_264" data-name="Línea 264" y2="15.817" transform="translate(8.078)" fill="none" stroke="#dce8ef" stroke-miterlimit="10" stroke-width="0.5"/>
        <line id="Línea_265" data-name="Línea 265" y2="15.817" fill="none" stroke="#dce8ef" stroke-miterlimit="10" stroke-width="0.5"/>
        <line id="Línea_266" data-name="Línea 266" y2="15.817" transform="translate(4.039)" fill="none" stroke="#dce8ef" stroke-miterlimit="10" stroke-width="0.5"/>
      </g>
      <g id="Grupo_29081" data-name="Grupo 29081" transform="translate(2.74 2.111)">
        <g id="Grupo_29080" data-name="Grupo 29080">
          <path id="Trazado_68968" data-name="Trazado 68968" d="M615.456,226.869l4.039-3.911,4.039-1.015,4.039-4,4.039,1.61,4.039-2.039,4.039-2.212" transform="translate(-614.651 -214.498)" fill="none" stroke="#f6c343" stroke-linecap="round" stroke-miterlimit="10" stroke-width="1"/>
          <g id="Grupo_29079" data-name="Grupo 29079">
            <rect id="Rectángulo_26571" data-name="Rectángulo 26571" width="1.61" height="1.61" transform="translate(0 11.567)" fill="#002b45"/>
            <rect id="Rectángulo_26572" data-name="Rectángulo 26572" width="1.61" height="1.61" transform="translate(4.039 7.655)" fill="#00223d"/>
            <rect id="Rectángulo_26573" data-name="Rectángulo 26573" width="1.61" height="1.61" transform="translate(8.078 6.64)" fill="#00223d"/>
            <rect id="Rectángulo_26574" data-name="Rectángulo 26574" width="1.61" height="1.61" transform="translate(12.117 2.642)" fill="#00223d"/>
            <rect id="Rectángulo_26575" data-name="Rectángulo 26575" width="1.61" height="1.61" transform="translate(16.156 4.252)" fill="#00223d"/>
            <rect id="Rectángulo_26576" data-name="Rectángulo 26576" width="1.61" height="1.61" transform="translate(20.195 2.213)" fill="#00223d"/>
            <rect id="Rectángulo_26577" data-name="Rectángulo 26577" width="1.61" height="1.61" transform="translate(24.233)" fill="#00223d"/>
          </g>
        </g>
      </g>
    </g>
    <path id="Trazado_68969" data-name="Trazado 68969" d="M360.657,221.214h.173a.473.473,0,0,0,0-.946h-.172l.713-1.371h-1.838a6.385,6.385,0,1,0,0,3.688h1.839Zm-7.237,4.965a5.438,5.438,0,1,1,5.116-7.282h-.025l-.713,1.371h-.2a4.2,4.2,0,1,0,0,.946h.2l.714,1.372h.024A5.448,5.448,0,0,1,353.42,226.18Zm1.625-5.911a1.694,1.694,0,1,0,0,.946h1.6a3.257,3.257,0,1,1,0-.946Z" transform="translate(-342.318 -163.061)" fill="#12263f"/>
    <path id="Trazado_68970" data-name="Trazado 68970" d="M635.268,295.267h4.425v-1.65h-4.425Zm5.815-6.278c.033-.394.054-.791.054-1.193a14.119,14.119,0,0,0-3.076-8.818.743.743,0,0,0-1.16,0,14.119,14.119,0,0,0-3.075,8.818c0,.4.02.8.053,1.193-2.206,1.485-3.66,5.161-2.047,8a.3.3,0,0,0,.546-.071c.248-1.068.917-3.033,2.542-3.8h5.122c1.625.762,2.294,2.727,2.542,3.8a.3.3,0,0,0,.546.071C644.743,294.149,643.288,290.474,641.083,288.989Zm-3.6-3.584a1.3,1.3,0,1,1,1.3-1.3A1.3,1.3,0,0,1,637.481,285.405Z" transform="translate(-494.424 -197.508)" fill="#12263f"/>
    <g id="Grupo_29083" data-name="Grupo 29083" transform="translate(12.636 26.062)">
      <path id="Trazado_68971" data-name="Trazado 68971" d="M365.054,162a.977.977,0,1,0-.691-.286.986.986,0,0,0,.691.286" transform="translate(-364.077 -160.047)" fill="#cbd9e4"/>
      <path id="Trazado_68972" data-name="Trazado 68972" d="M386.462,162h0a.977.977,0,1,0,0-1.954h0a.977.977,0,0,0,0,1.954Zm-6.795,0h0a.977.977,0,1,0,0-1.954h0a.977.977,0,0,0,0,1.954Z" transform="translate(-371.9 -160.047)" fill="#cbd9e4"/>
      <path id="Trazado_68973" data-name="Trazado 68973" d="M408.926,162a.976.976,0,1,0-.691-.286.984.984,0,0,0,.691.286" transform="translate(-387.565 -160.047)" fill="#cbd9e4"/>
    </g>
    <g id="Grupo_29084" data-name="Grupo 29084" transform="translate(131.972 0)">
      <path id="Trazado_68974" data-name="Trazado 68974" d="M621.9,105.907a.977.977,0,1,0-.691-.286.982.982,0,0,0,.691.286" transform="translate(-620.921 -103.953)" fill="#cbd9e4"/>
      <path id="Trazado_68975" data-name="Trazado 68975" d="M643.306,105.907h.005a.977.977,0,1,0,0-1.954h-.005a.977.977,0,1,0,0,1.954Zm-6.795,0h.005a.977.977,0,1,0,0-1.954h-.005a.977.977,0,0,0,0,1.954Z" transform="translate(-628.745 -103.953)" fill="#cbd9e4"/>
      <path id="Trazado_68976" data-name="Trazado 68976" d="M665.77,105.907a.977.977,0,1,0-.691-.286.984.984,0,0,0,.691.286" transform="translate(-644.409 -103.953)" fill="#cbd9e4"/>
    </g>
    <g id="Grupo_29085" data-name="Grupo 29085" transform="translate(13.115 147.368)">
      <path id="Trazado_68977" data-name="Trazado 68977" d="M369.409,425.431h-4.3v-4.3h4.3Zm-3.569-.733h2.836v-2.836h-2.836Z" transform="translate(-365.108 -421.13)" fill="#dfe1f7"/>
    </g>
    <g id="Grupo_29086" data-name="Grupo 29086" transform="translate(155.69 89.663)">
      <path id="Trazado_68978" data-name="Trazado 68978" d="M676.272,301.235h-4.3v-4.3h4.3ZM672.7,300.5h2.836v-2.836H672.7Z" transform="translate(-671.971 -296.933)" fill="#cbd9e4"/>
    </g>
    <g id="Grupo_29087" data-name="Grupo 29087" transform="translate(155.69 96.744)">
      <path id="Trazado_68979" data-name="Trazado 68979" d="M676.272,316.475h-4.3v-4.3h4.3Zm-3.569-.733h2.836v-2.836H672.7Z" transform="translate(-671.971 -312.174)" fill="#cbd9e4"/>
    </g>
    <path id="Trazado_68980" data-name="Trazado 68980" d="M380.65,372.1v-2.562h-1.422V372.1h-2.562v1.422h2.562v2.562h1.422v-2.562h2.562V372.1Z" transform="translate(-358.181 -246.144)" fill="#002b45"/>
    <path id="Trazado_68981" data-name="Trazado 68981" d="M638.1,432.962a.842.842,0,1,0,.6.247A.848.848,0,0,0,638.1,432.962Zm4.344,0h0a.842.842,0,0,0,0,1.684h0a.842.842,0,0,0,0-1.684Zm-4.344-4.3a.842.842,0,1,0,.6.247A.85.85,0,0,0,638.1,428.661Zm4.34,1.684h0a.842.842,0,0,0,0-1.684h0a.842.842,0,0,0,0,1.684Z" transform="translate(-497.693 -277.794)" fill="#f9fbfc"/>
    <path id="Trazado_68982" data-name="Trazado 68982" d="M348.865,289.116a.977.977,0,1,0,.691.286A.985.985,0,0,0,348.865,289.116Zm5.04,0h0a.977.977,0,1,0,0,1.954h0a.977.977,0,1,0,0-1.954Zm-5.04-4.99a.976.976,0,1,0,.691.286A.985.985,0,0,0,348.865,284.126Zm5.036,1.954h0a.977.977,0,1,0,0-1.954h0a.977.977,0,1,0,0,1.954Z" transform="translate(-342.774 -200.414)" fill="#cbd9e4"/>
    <path id="Trazado_68983" data-name="Trazado 68983" d="M655.347,262.651H651.31v.652h4.037Zm-2.62,4.072.461.461,2.854-2.855-.461-.461Zm5.793-4.072v.652h4.037v-.652Zm-5.793-3.42,2.854,2.854.461-.461-2.854-2.854Zm8.413,0-.461-.461-2.854,2.854.461.461Zm-3.315,5.1,2.854,2.855.461-.461-2.854-2.855Zm-1.217-2.939h.652v-4.036h-.652Zm0,7.21h.652v-4.036h-.652Z" transform="translate(-505.219 -186.081)" fill="#cbd9e4"/>
    <path id="Trazado_68984" data-name="Trazado 68984" d="M366.782,179.931H352.428a2.164,2.164,0,0,0-2.164,2.164v8.026" transform="translate(-344.046 -144.63)" fill="none" stroke="#cbd9e4" stroke-miterlimit="10" stroke-width="2"/>
    <path id="Trazado_68985" data-name="Trazado 68985" d="M660,290.711h11.548a1.535,1.535,0,0,1,1.535,1.535v20.272a1.535,1.535,0,0,1-1.535,1.535h-4.3" transform="translate(-509.871 -203.939)" fill="none" stroke="#cbd9e4" stroke-miterlimit="10" stroke-width="2"/>
    <path id="Trazado_68986" data-name="Trazado 68986" d="M359.2,364.247H351.15a2.078,2.078,0,0,1-2.078-2.078v-8.631" transform="translate(-343.408 -237.575)" fill="none" stroke="#cbd9e4" stroke-miterlimit="10" stroke-width="2"/>
    <path id="Trazado_68987" data-name="Trazado 68987" d="M413.173,112.192v-4.109a2.027,2.027,0,0,1,2.027-2.027h89.468" transform="translate(-377.726 -105.079)" fill="none" stroke="#cbd9e4" stroke-miterlimit="10" stroke-width="2"/>
    <line id="Línea_267" data-name="Línea 267" y2="19.723" transform="translate(21.758 131.946)" fill="none" stroke="#dfe1f7" stroke-miterlimit="10" stroke-width="2"/>
  </g>
</svg>
