<svg xmlns="http://www.w3.org/2000/svg" xmlns:xlink="http://www.w3.org/1999/xlink" width="342.293" height="372.388" viewBox="0 0 342.293 372.388">
  <defs>
    <linearGradient id="linear-gradient" x1="0.5" x2="0.5" y2="1" gradientUnits="objectBoundingBox">
      <stop offset="0" stop-color="#fff"/>
      <stop offset="1" stop-color="#d2e6ee"/>
    </linearGradient>
  </defs>
  <g id="Grupo_46257" data-name="Grupo 46257" transform="translate(-1334.221 -2187.273)">
    <g id="Grupo_12238" data-name="Grupo 12238" transform="translate(1336.905 2193.759)">
      <g id="Grupo_12237" data-name="Grupo 12237" transform="translate(0 34.592)">
        <g id="Grupo_12236" data-name="Grupo 12236" transform="translate(0 200.91)">
          <g id="Grupo_12235" data-name="Grupo 12235">
            <g id="Grupo_12226" data-name="Grupo 12226" transform="translate(0 1.982)">
              <path id="Trazado_16083" data-name="Trazado 16083" d="M1301.545,2376.461l-55.175-10.647c-4.811-.927-8.409-10.246-8.409-17.435v-7.055c0-7.189,3.6-16.505,8.409-17.434l55.175-10.648c5.779-1.115,10.9,5.553,10.9,14.19v34.84C1312.447,2370.908,1307.323,2377.577,1301.545,2376.461Z" transform="translate(-1223.547 -2312.332)" fill="#f6fafc"/>
              <path id="Trazado_16084" data-name="Trazado 16084" d="M1240.585,2329.59c-9.212,0-16.68,7.219-16.68,16.127s7.468,16.127,16.68,16.127" transform="translate(-1223.905 -2311.912)" stroke="#00223d" stroke-miterlimit="10" stroke-width="5.369" fill="url(#linear-gradient)"/>
              <path id="Trazado_16085" data-name="Trazado 16085" d="M1267.145,2367.018s-13.023,13.577-2.449,27.635a1.771,1.771,0,0,1-1.412,2.823h-13.546a3.082,3.082,0,0,1-3.063-3.1v-30.719" transform="translate(-1223.324 -2311.043)" stroke="#00223d" stroke-miterlimit="10" stroke-width="5.158" fill="url(#linear-gradient)"/>
              <path id="Trazado_16086" data-name="Trazado 16086" d="M1297.551,2373.859l-52.259-7.417c-4.557-.647-7.965-7.138-7.965-12.147v-4.916c0-5.009,3.409-11.5,7.965-12.146l52.259-7.418c5.473-.778,10.326,3.868,10.326,9.885v24.272C1307.877,2369.99,1303.024,2374.636,1297.551,2373.859Z" transform="translate(-1223.563 -2311.909)" fill="#aee6e6"/>
              <path id="Trazado_16087" data-name="Trazado 16087" d="M1301.545,2376.461l-55.175-10.647c-4.811-.927-8.409-10.246-8.409-17.435v-7.055c0-7.189,3.6-16.505,8.409-17.434l55.175-10.648c5.779-1.115,10.9,5.553,10.9,14.19v34.84C1312.447,2370.908,1307.323,2377.577,1301.545,2376.461Z" transform="translate(-1223.547 -2312.332)" fill="none" stroke="#00223d" stroke-miterlimit="10" stroke-width="5.732"/>
              <line id="Línea_140" data-name="Línea 140" y2="62.013" transform="translate(77.945)" fill="#eec251" stroke="#00223d" stroke-miterlimit="10" stroke-width="4.585"/>
            </g>
            <g id="Grupo_12234" data-name="Grupo 12234" transform="translate(99.994)">
              <g id="Grupo_12233" data-name="Grupo 12233">
                <g id="Grupo_12228" data-name="Grupo 12228" transform="translate(20.915)">
                  <g id="Grupo_12227" data-name="Grupo 12227">
                    <path id="Trazado_16088" data-name="Trazado 16088" d="M1347.042,2384.1l-5.235-5.305a45.268,45.268,0,0,0,.18-63.075l5.239-5.3A52.829,52.829,0,0,1,1347.042,2384.1Z" transform="translate(-1341.807 -2310.419)" fill="#00223d"/>
                  </g>
                </g>
                <g id="Grupo_12230" data-name="Grupo 12230" transform="translate(10.46 10.586)">
                  <g id="Grupo_12229" data-name="Grupo 12229">
                    <path id="Trazado_16089" data-name="Trazado 16089" d="M1336.848,2373.253l-5.236-5.3a30.172,30.172,0,0,0,.178-41.911l5.236-5.3A37.724,37.724,0,0,1,1336.848,2373.253Z" transform="translate(-1331.612 -2320.742)" fill="#00223d"/>
                  </g>
                </g>
                <g id="Grupo_12232" data-name="Grupo 12232" transform="translate(0 21.172)">
                  <g id="Grupo_12231" data-name="Grupo 12231">
                    <path id="Trazado_16090" data-name="Trazado 16090" d="M1326.652,2362.406l-5.24-5.3a15.1,15.1,0,0,0,.18-20.741l5.236-5.3A22.662,22.662,0,0,1,1326.652,2362.406Z" transform="translate(-1321.412 -2331.064)" fill="#00223d"/>
                  </g>
                </g>
              </g>
            </g>
          </g>
        </g>
        <path id="Trazado_16091" data-name="Trazado 16091" d="M1538.221,2262.888l18.854-2.768-13.994-9.389,8.431-10.8-14.8,1.264.869-12.977-13.141,12.093-6.1-10.218-3.854,14.159" transform="translate(-1328.162 -2228.216)" fill="#f5ca56" stroke="#00223d" stroke-miterlimit="10" stroke-width="4.423"/>
      </g>
      <path id="Trazado_16092" data-name="Trazado 16092" d="M1383.405,2279.464h-51.324c-.952,0-1.8-.878-2.14-2.2l-3.055-12.076c-.745-2.945-3.548-2.935-4.283.016l-6.063,24.312c-.766,3.073-3.722,2.917-4.338-.231l-5.82-29.691c-.6-3.069-3.456-3.322-4.3-.381l-5.5,19.222c-.359,1.255-1.187,2.069-2.1,2.069h-34.466" transform="translate(-1243.184 -2257.139)" fill="none" stroke="#00223d" stroke-linecap="round" stroke-miterlimit="10" stroke-width="5.124"/>
      <path id="Trazado_16093" data-name="Trazado 16093" d="M1247.93,2284.107h0a4.339,4.339,0,0,1-4.327-4.327h0a4.34,4.34,0,0,1,4.327-4.326h0a4.339,4.339,0,0,1,4.327,4.326h0A4.339,4.339,0,0,1,1247.93,2284.107Z" transform="translate(-1243.603 -2256.672)" fill="#00223d"/>
    </g>
    <g id="Grupo_12246" data-name="Grupo 12246" transform="translate(1387.312 2230.193)">
      <g id="Grupo_12242" data-name="Grupo 12242" transform="translate(0 0)">
        <path id="Trazado_16094" data-name="Trazado 16094" d="M1460.978,2422.152h40.261c9.644,0,9.641-7.537,9.26-17.174-.519-13.128,3.061-31.156.108-42.593-4.384-16.981,23.823-15.654,25.7-49.07h0v.427c-.012-41.443-29.813-65.581-65.442-65.581s-64.526,25.763-64.526,57.544c0,8.881.471,15.145,4.5,22.655l9.374.949s-4.212,19.012,6.232,26.689,5.222,24.836,13.767,27.1,18.034-11.29,18.034-11.29S1461.872,2410.819,1460.978,2422.152Z" transform="translate(-1381.327 -2229.55)" fill="#ccdcea"/>
        <g id="Grupo_12239" data-name="Grupo 12239">
          <path id="Trazado_16095" data-name="Trazado 16095" d="M1400.288,2320.243c-4.454-8.449-4.974-15.5-4.974-25.488,0-35.758,31.934-64.742,71.326-64.742s77.808,28.21,77.808,74.855c-.162,17.417-3.367,34.315-18.327,49.442v64.924" transform="translate(-1381.609 -2230.013)" fill="none" stroke="#00223d" stroke-linecap="round" stroke-miterlimit="10" stroke-width="5.124"/>
          <path id="Trazado_16096" data-name="Trazado 16096" d="M1406.35,2392.974c.516,1.557,31.927,7.665,49.16-8.275" transform="translate(-1381.327 -2226.067)" fill="none" stroke="#00223d" stroke-linecap="round" stroke-miterlimit="10" stroke-width="5.124"/>
          <path id="Trazado_16097" data-name="Trazado 16097" d="M1401.919,2319.719s-6.79,10.837-18.371,27.372c-5.791,8.268,5.527,9.82,12.107,10.077,5.263.517,1.843,2.326,0,4.651s4.974,5.943,4.974,5.943l.289,3.1s-1.578,3.358,2.632,4.651,3.469,12.511,3.422,19.12" transform="translate(-1381.949 -2227.724)" fill="none" stroke="#00223d" stroke-linecap="round" stroke-miterlimit="10" stroke-width="5.124"/>
          <path id="Trazado_16098" data-name="Trazado 16098" d="M1407.289,2366.567" transform="translate(-1381.303 -2226.53)" fill="none" stroke="#414651" stroke-miterlimit="10" stroke-width="5.124"/>
          <path id="Trazado_16099" data-name="Trazado 16099" d="M1422.262,2285.441" transform="translate(-1380.921 -2228.599)" fill="none" stroke="#414651" stroke-miterlimit="10" stroke-width="5.124"/>
          <path id="Trazado_16100" data-name="Trazado 16100" d="M1527.5,2306.352" transform="translate(-1378.237 -2228.066)" fill="none" stroke="#414651" stroke-miterlimit="10" stroke-width="5.124"/>
          <path id="Trazado_16101" data-name="Trazado 16101" d="M1399.86,2366.4" transform="translate(-1381.493 -2226.534)" fill="none" stroke="#414651" stroke-miterlimit="10" stroke-width="5.124"/>
        </g>
        <path id="Trazado_16102" data-name="Trazado 16102" d="M1412.62,2367.335s-9.371-1.542-12.318,0" transform="translate(-1381.481 -2226.527)" fill="none" stroke="#00223d" stroke-linecap="round" stroke-miterlimit="10" stroke-width="2.678"/>
        <path id="Trazado_16103" data-name="Trazado 16103" d="M1431.658,2352.834" transform="translate(-1380.682 -2226.88)" fill="none" stroke="#414651" stroke-miterlimit="10" stroke-width="3.125"/>
        <g id="Grupo_12241" data-name="Grupo 12241" transform="translate(30.019 11.633)">
          <path id="Trazado_16104" data-name="Trazado 16104" d="M1493.307,2319.363c-6.654,0-12.124-2.063-14.869-5.774a17.827,17.827,0,0,0-4.937-4.474,44.026,44.026,0,0,1-16.395,3.1c-19.329,0-35.054-12.038-35.054-26.835l.007-.352c-.165-6.256,3.47-13.116,9.979-18.83,12.362-10.852,32.267-15.649,53.243-12.837h0c16.178,2.17,27.573,8.144,33.87,17.755,9,13.732,4.2,29.689,3.988,30.362-3.8,10.828-15.7,16.186-24.736,17.5A35.338,35.338,0,0,1,1493.307,2319.363Z" transform="translate(-1410.946 -2241.07)" fill="#91b8c5"/>
          <g id="Grupo_12240" data-name="Grupo 12240">
            <path id="Trazado_16105" data-name="Trazado 16105" d="M1511.619,2288.9" transform="translate(-1408.661 -2240.143)" fill="#fff"/>
            <path id="Trazado_16106" data-name="Trazado 16106" d="M1491.685,2272.83" transform="translate(-1409.17 -2240.554)" fill="#fff"/>
            <path id="Trazado_16107" data-name="Trazado 16107" d="M1487.5,2313.663c-7.122,0-12.978-2.233-15.917-6.25a19.134,19.134,0,0,0-5.285-4.843,46.681,46.681,0,0,1-17.551,3.359c-20.692,0-37.525-13.032-37.525-29.052l.007-.38c-.177-6.772,3.714-14.2,10.683-20.387,13.234-11.749,34.542-16.942,57-13.9h0c17.319,2.349,29.517,8.817,36.259,19.221,9.63,14.867,4.492,32.144,4.268,32.872-4.07,11.723-16.805,17.524-26.481,18.948A37.546,37.546,0,0,1,1487.5,2313.663Zm-20.977-15.261.819.448a22.7,22.7,0,0,1,7.278,6.347c2.809,3.839,9.779,5.542,17.779,4.363,8.63-1.271,19.947-6.329,23.446-16.4.028-.1,4.824-16.344-3.875-29.737-6.122-9.427-17.419-15.317-33.574-17.509-21.369-2.9-41.545,1.953-53.964,12.979-6.156,5.465-9.594,11.861-9.43,17.547v.037l-.006.405c0,13.96,15.141,25.318,33.75,25.318a42.6,42.6,0,0,0,16.921-3.418Z" transform="translate(-1411.222 -2241.356)" fill="#00223d"/>
            <path id="Trazado_16108" data-name="Trazado 16108" d="M1465.484,2299.24a1.263,1.263,0,0,1-1.269-1.256c0-11.084-12.36-20.1-27.553-20.1a1.255,1.255,0,1,1,0-2.51c16.592,0,30.091,10.143,30.091,22.611A1.263,1.263,0,0,1,1465.484,2299.24Z" transform="translate(-1410.605 -2240.488)" fill="#00223d"/>
            <path id="Trazado_16109" data-name="Trazado 16109" d="M1442.585,2269.066c-5.369-1.8-11.557-.632-15.018,4.193-3.036,4.23-.77,8.9,3.79,10.7,2.018.8,4.091,1.127,5.981,2.278a21.54,21.54,0,0,0,3.15,2.022c2.9,1.141,5.641.428,8.363,2.325.771.537,3.225,1.689,3.692,2.507,1.186,2.077-1.816,2.512-3.4,2.813-3.525.672-6.111-1.341-9.5-1.473-1.044-.041-1.042,1.565,0,1.606,2.815.11,5.1,1.97,7.977,1.73,1.839-.153,4.475-.479,6.026-1.557,3.889-2.705-1.648-5.339-3.594-6.735a10.653,10.653,0,0,0-5.319-2.237,11.562,11.562,0,0,1-5.772-1.831,15.975,15.975,0,0,0-3.483-1.867c-2.3-.842-4.935-1.088-6.567-3.138-1.757-2.205-1.241-4.944.587-6.962,3.331-3.68,8.141-4.343,12.652-2.828.991.333,1.416-1.217.431-1.549Z" transform="translate(-1410.84 -2240.67)" fill="#00223d"/>
            <path id="Trazado_16110" data-name="Trazado 16110" d="M1414.32,2266.012a5.9,5.9,0,0,0,4.323,6.25c3.4.953,6.313-1.134,8.75-3.241.789-.681-.364-1.813-1.148-1.135-1.745,1.509-3.743,3.161-6.207,2.978a4.334,4.334,0,0,1-4.095-4.853c.135-1.021-1.49-1.012-1.623,0Z" transform="translate(-1411.144 -2240.747)" fill="#00223d"/>
            <path id="Trazado_16111" data-name="Trazado 16111" d="M1444.254,2277.45c4.05.04,7.054-4.4,6.709-8.167a4.336,4.336,0,0,0-2.566-3.765c-2.187-.97-5.108-.142-6.772-2.136-.666-.8-1.809.344-1.149,1.135,1.879,2.251,4.559,1.394,7,2.363,4.438,1.763.574,9-3.221,8.964a.8.8,0,0,0,0,1.606Z" transform="translate(-1410.481 -2240.801)" fill="#00223d"/>
            <path id="Trazado_16112" data-name="Trazado 16112" d="M1437.287,2267.788c-3.232-1.282-3.648-7.953-.648-9.66,2.335-1.331,5.051-.291,7.249-2.184.79-.679-.362-1.811-1.148-1.135-1.775,1.528-4.341.83-6.4,1.7a5.322,5.322,0,0,0-3.075,4c-.677,3.23.226,7.5,3.59,8.832.97.384,1.391-1.168.432-1.549Z" transform="translate(-1410.665 -2241.018)" fill="#00223d"/>
            <path id="Trazado_16113" data-name="Trazado 16113" d="M1454.166,2294.756c1.534-.13,4.7-.584,4.794,1.638.041,1.031,1.664,1.036,1.623,0-.136-3.41-3.792-3.467-6.417-3.244-1.034.087-1.043,1.694,0,1.606Z" transform="translate(-1410.146 -2240.037)" fill="#00223d"/>
            <path id="Trazado_16114" data-name="Trazado 16114" d="M1502.675,2279.747c-3.189,2.679-8.557,2.546-12.437,1.735-3.635-.759-6.932-2.738-10.771-2.314-3.609.4-10.165,4.848-4.377,7.6,2.711,1.287,6.165,1.373,9.09,1.365,1.719-.006,8.936-.779,8.679,2.552-.178,2.3-4.281,2.782-5.944,2.991a33.7,33.7,0,0,1-14.3-1.719c-3.5-1.083-6.715-2.6-10.291-1.1-.959.4-.132,1.785.819,1.387,3.04-1.271,6.2.385,9.041,1.263a47.834,47.834,0,0,0,7.083,1.7,26.585,26.585,0,0,0,10.3-.347c4.084-1.042,7.654-6.193,1.9-7.824-4.254-1.208-8.806-.1-13.132-1a7.48,7.48,0,0,1-2.492-.723c-2.011-1.295-.03-3.258,1.444-4,2.518-1.261,5.788-.4,8.287.4,5.688,1.821,13.18,3.433,18.245-.822.8-.669-.356-1.8-1.148-1.135Z" transform="translate(-1409.929 -2240.393)" fill="#00223d"/>
            <path id="Trazado_16115" data-name="Trazado 16115" d="M1458.575,2244.691c6.888,5.686-4.808,9.625-2.328,15.367.595,1.378,2.583,1.807,1.611,3.738-.527,1.047-1.612,1.313-2.032,2.569-.931,2.784.5,4.75,2.913,6.042.92.491,1.74-.894.819-1.387-1.847-.988-2.855-3.687-1.391-5.4.484-.565,1.157-.806,1.551-1.474a2.717,2.717,0,0,0,.455-1.441c-.007-1.237-.756-1.508-1.395-2.341-1.5-1.956-.825-3.025.37-4.927,2.611-4.152,5.2-8.068.573-11.886-.8-.658-1.951.472-1.147,1.135Z" transform="translate(-1410.091 -2241.305)" fill="#00223d"/>
            <path id="Trazado_16116" data-name="Trazado 16116" d="M1449.4,2267.739c1.6-1.8,1.828-4.439,2.459-6.668.562-1.984,1.63-3.806.669-5.8-1.077-2.237-3.858-4.029-6.123-4.792a7.774,7.774,0,0,0-3.416-.389c-1.106.118-4.423,1.709-4.64-.248-.112-1.017-1.737-1.028-1.624,0,.5,4.492,5.1,1.514,7.925,1.9a9.576,9.576,0,0,1,5.508,3.064c1.242,1.436,1.243,2.276.726,4.012-.689,2.315-1.017,5.974-2.631,7.789-.688.773.455,1.913,1.148,1.135Z" transform="translate(-1410.572 -2241.159)" fill="#00223d"/>
            <path id="Trazado_16117" data-name="Trazado 16117" d="M1472.769,2304.452c3.618-3.983,7.837-3.934,12.822-3.057,3.024.532,6.276,1.46,9.241.231,2.939-1.219,5.087-2.822,8.321-3.407,2.388-.432,4.278-1.134,5.291-3.453.41-.938-.988-1.757-1.4-.81-1.378,3.155-5.273,2.491-8.018,3.577a35.747,35.747,0,0,0-3.778,2.065c-2.423,1.307-4.567,1.054-7.2.615-6.231-1.04-11.767-2.027-16.425,3.1-.7.767.448,1.905,1.147,1.135Z" transform="translate(-1409.687 -2240.025)" fill="#00223d"/>
            <path id="Trazado_16118" data-name="Trazado 16118" d="M1514.562,2295.265c.394-3.3.041-6.373-3.284-7.956-3.923-1.867-7.022,2.045-10.763.833-1-.322-1.422,1.229-.432,1.549,2.695.873,4.488-.516,7.018-1.182a4.922,4.922,0,0,1,5.411,1.836c.9,1.434.614,3.342.427,4.921-.122,1.023,1.5,1.015,1.623,0Z" transform="translate(-1408.969 -2240.197)" fill="#00223d"/>
            <path id="Trazado_16119" data-name="Trazado 16119" d="M1510.913,2280.444c-1.345-.035-2.017-.372-1.8-1.749.16-1,.584-1.958.833-2.94.446-1.753.32-3.519-1.7-4.073a.8.8,0,0,0-.432,1.547c1.809.5-.154,4.168-.321,5.386-.318,2.328,1.2,3.375,3.42,3.432a.8.8,0,0,0,0-1.6Z" transform="translate(-1408.773 -2240.583)" fill="#00223d"/>
            <path id="Trazado_16120" data-name="Trazado 16120" d="M1495.1,2277.376c8.151.277,14.279-9.807,8.151-16.1-2.819-2.9-7.124-4.172-11.09-4.31-3.755-.129-7.985.865-10.96-2.081-2.9-2.874-2.212-6.947,1.1-9.116.867-.568.055-1.959-.819-1.386-6.183,4.047-3.962,12.385,3.021,14,5.322,1.229,10.669-.663,15.644,2.476,7.232,4.563,3.3,15.2-5.047,14.913-1.045-.036-1.043,1.57,0,1.606Z" transform="translate(-1409.522 -2241.282)" fill="#00223d"/>
          </g>
          <path id="Trazado_16121" data-name="Trazado 16121" d="M1495.279,2267.063c-.011-.241-.028-.484-.055-.729a10.56,10.56,0,0,0-9.79-9.456,10.306,10.306,0,0,0-9.423,5.154,10.307,10.307,0,0,0-9.48-5.151,10.561,10.561,0,0,0-9.753,9.644,11.02,11.02,0,0,0,.348,3.941,4.751,4.751,0,0,0,1.139,2.02l17.641,18.476,17.109-17.951A8.148,8.148,0,0,0,1495.279,2267.063Z" transform="translate(-1410.061 -2240.961)" fill="#f6fafc"/>
          <path id="Trazado_16122" data-name="Trazado 16122" d="M1498.509,2269.629q-.015-.352-.052-.711a10.086,10.086,0,0,0-9.177-9.222c-3.743-.2-7.775,3.573-9.559,6.734-1.792-3.176-4.4-6.952-8.163-6.731a10.1,10.1,0,0,0-9.142,9.405,11.158,11.158,0,0,0,.325,3.845,4.674,4.674,0,0,0,1.068,1.969l16.539,18.019,16.039-17.505A8.135,8.135,0,0,0,1498.509,2269.629Z" transform="translate(-1409.917 -2240.888)" fill="#ada4ce"/>
          <path id="Trazado_16123" data-name="Trazado 16123" d="M1496.089,2266.927q-.016-.4-.057-.8c-.583-5.635-4.99-10.068-10.263-10.349a10.714,10.714,0,0,0-9.881,5.642,10.709,10.709,0,0,0-9.939-5.638c-5.328.314-9.729,4.849-10.224,10.553a12.6,12.6,0,0,0,.364,4.314,5.273,5.273,0,0,0,1.195,2.21l18.5,20.219,17.938-19.644A9.142,9.142,0,0,0,1496.089,2266.927Z" transform="translate(-1410.088 -2240.988)" fill="none" stroke="#00223d" stroke-miterlimit="10" stroke-width="4.229"/>
        </g>
      </g>
      <path id="Trazado_16124" data-name="Trazado 16124" d="M1401.57,2321.118l10.568-3.27a1.459,1.459,0,0,0,.989-1.057l2.563-10.76,3.27,10.568a1.46,1.46,0,0,0,1.056.989l10.76,2.563-10.567,3.27a1.461,1.461,0,0,0-.99,1.057l-2.563,10.76-3.269-10.568a1.462,1.462,0,0,0-1.057-.989Z" transform="translate(-1381.449 -2228.074)" fill="#f6c343" stroke="#00223d" stroke-miterlimit="10" stroke-width="2.279"/>
      <path id="Trazado_16125" data-name="Trazado 16125" d="M1489.364,2319.6v12.8c0,3.191-3.021,5.779-6.748,5.779h-23.132c-3.726,0-6.747,2.588-6.747,5.78v.826c0,3.192,3.021,5.78,6.747,5.78h44.82c3.726,0,6.747,2.587,6.747,5.78h0c0,3.192-3.021,5.78-6.747,5.78h-35.663c-3.725,0-6.747,2.587-6.747,5.779v.413c0,3.192,3.021,5.78,6.747,5.78h26.024v19.723" transform="translate(-1380.144 -2227.727)" fill="none" stroke="#00223d" stroke-miterlimit="10" stroke-width="3.29"/>
      <path id="Trazado_16126" data-name="Trazado 16126" d="M1475.764,2322.911h25.3l-12.65-20.676Z" transform="translate(-1379.556 -2228.171)" fill="#00223d"/>
      <line id="Línea_141" data-name="Línea 141" y2="25.391" transform="translate(58.709 166.881)" fill="none" stroke="#00223d" stroke-linecap="round" stroke-miterlimit="10" stroke-width="4.229"/>
      <g id="Grupo_12243" data-name="Grupo 12243" transform="translate(108.858 246.475)">
        <path id="Trazado_16127" data-name="Trazado 16127" d="M1554.572,2319.681c1.753-9.812,8.607-14.674,15.051-21.376,4.151-4.317,8.684-8.229,11.379-13.578a22.652,22.652,0,0,1,3.246-5.388,6.473,6.473,0,0,1,9.145-.519c2.785,2.708,2.705,7.167,1.383,10.57-1.454,3.743-5.153,5.872-6.737,9.562-1.208,2.813-3.031,6.9-.316,8.541,9.928,6,16.512-.033,20.161-4.253a45.567,45.567,0,0,1,8.969-8.077,41.244,41.244,0,0,1,5.392-3.055c1.395-.658,4.838-1.275,5.614-2.609,2.078-3.576,3.472-6.476,8.652-5.951,5.035.509,6.742,4.443,8.88,8.324,17.688,32.1-19.086,61.007-48.8,60.413-6.9-.138-13.754-1.559-20.653-1.337s-14.23,2.445-18.34,7.991" transform="translate(-1554.572 -2277.166)" fill="#ccdcea" stroke="#00223d" stroke-miterlimit="10" stroke-width="4.1"/>
        <path id="Trazado_16128" data-name="Trazado 16128" d="M1577.787,2323.114c9.292-4.129,8.216-11.831,7.778-18.2" transform="translate(-1553.98 -2276.458)" fill="none" stroke="#00223d" stroke-linecap="round" stroke-miterlimit="10" stroke-width="4.1"/>
        <path id="Trazado_16129" data-name="Trazado 16129" d="M1647.733,2317.822c1.614-2.8-.5-6.656-3.888-7.609-4.019-1.129-7.322,3.179-8.68,6.2-2.4,5.344-6.245,13.634-13.554,13.259-4.935-.253-9.829-3.322-14.213-5.315-24.453-11.116-33.042,2.065-33.042,2.065" transform="translate(-1554.067 -2276.327)" fill="none" stroke="#00223d" stroke-linecap="round" stroke-miterlimit="10" stroke-width="4.1"/>
        <path id="Trazado_16130" data-name="Trazado 16130" d="M1596.915,2309.238a22.084,22.084,0,0,1,11.012,11.013" transform="translate(-1553.492 -2276.348)" fill="#fff" stroke="#00223d" stroke-linecap="round" stroke-miterlimit="10" stroke-width="4.1"/>
        <path id="Trazado_16131" data-name="Trazado 16131" d="M1609.345,2312.207s13.877-10.13,17.694-23.638" transform="translate(-1553.175 -2276.875)" fill="none" stroke="#00223d" stroke-linecap="round" stroke-miterlimit="10" stroke-width="4.1"/>
        <path id="Trazado_16132" data-name="Trazado 16132" d="M1640.4,2286.084s.344,19.271-21.337,34.758" transform="translate(-1552.927 -2276.939)" fill="none" stroke="#00223d" stroke-linecap="round" stroke-miterlimit="10" stroke-width="4.1"/>
        <path id="Trazado_16133" data-name="Trazado 16133" d="M1645.076,2311.079s7.227-14.454.688-18.928-7.723,5.995-7.723,5.995" transform="translate(-1552.443 -2276.812)" fill="none" stroke="#414651" stroke-linecap="round" stroke-miterlimit="10" stroke-width="4.1"/>
        <path id="Trazado_16134" data-name="Trazado 16134" d="M1645.089,2311.074s7.386-14.7.688-18.928c-6.538-4.129-8.259,7.227-8.259,7.227" transform="translate(-1552.456 -2276.807)" fill="#ccdcea" stroke="#00223d" stroke-linecap="round" stroke-miterlimit="10" stroke-width="4.1"/>
      </g>
      <g id="Grupo_12245" data-name="Grupo 12245" transform="translate(143.445 179.578)">
        <g id="Grupo_12244" data-name="Grupo 12244">
          <path id="Trazado_16135" data-name="Trazado 16135" d="M1619.074,2256.97a13.086,13.086,0,1,0,4.893-17.849A13.087,13.087,0,0,0,1619.074,2256.97Z" transform="translate(-1587.557 -2211.283)" fill="#fff" stroke="#00223d" stroke-miterlimit="10" stroke-width="2.554"/>
          <line id="Línea_142" data-name="Línea 142" x2="8.945" y2="11.393" transform="translate(53.304 48.851)" fill="none" stroke="#00223d" stroke-miterlimit="10" stroke-width="2.211"/>
          <path id="Trazado_16136" data-name="Trazado 16136" d="M1621.253,2255.627a10.348,10.348,0,1,0,3.835-14.172A10.381,10.381,0,0,0,1621.253,2255.627Z" transform="translate(-1587.492 -2211.214)" fill="#ccdcea"/>
          <path id="Trazado_16137" data-name="Trazado 16137" d="M1590.3,2250.066a3.932,3.932,0,1,0,1.469-5.363A3.933,3.933,0,0,0,1590.3,2250.066Z" transform="translate(-1588.26 -2211.11)" fill="#aee6e6"/>
          <path id="Trazado_16138" data-name="Trazado 16138" d="M1648.441,2277.49a5.25,5.25,0,1,0,.594-7.4A5.25,5.25,0,0,0,1648.441,2277.49Z" transform="translate(-1586.795 -2210.481)" fill="#e36099"/>
          <path id="Trazado_16139" data-name="Trazado 16139" d="M1642.986,2219.978a5.231,5.231,0,1,0,2.507-6.96A5.23,5.23,0,0,0,1642.986,2219.978Z" transform="translate(-1586.916 -2211.918)" fill="#e36099"/>
          <path id="Trazado_16140" data-name="Trazado 16140" d="M1643.93,2219.436a5.262,5.262,0,1,0,2.521-7A5.262,5.262,0,0,0,1643.93,2219.436Z" transform="translate(-1586.892 -2211.933)" fill="none" stroke="#00223d" stroke-miterlimit="10" stroke-width="2.477"/>
          <path id="Trazado_16141" data-name="Trazado 16141" d="M1605.845,2223.264a5.144,5.144,0,1,0,.782-7.233A5.145,5.145,0,0,0,1605.845,2223.264Z" transform="translate(-1587.879 -2211.857)" fill="#aee6e6" stroke="#00223d" stroke-miterlimit="10" stroke-width="2.803"/>
          <path id="Trazado_16142" data-name="Trazado 16142" d="M1646.538,2278.384a6.069,6.069,0,1,0,2.174-8.3A6.068,6.068,0,0,0,1646.538,2278.384Z" transform="translate(-1586.833 -2210.47)" fill="none" stroke="#00223d" stroke-miterlimit="10" stroke-width="2.064"/>
          <path id="Trazado_16143" data-name="Trazado 16143" d="M1589,2250a5.315,5.315,0,1,0,1.988-7.248A5.314,5.314,0,0,0,1589,2250Z" transform="translate(-1588.298 -2211.165)" fill="none" stroke="#00223d" stroke-miterlimit="10" stroke-width="2.708"/>
          <path id="Trazado_16144" data-name="Trazado 16144" d="M1663.178,2251.64a5.194,5.194,0,1,0,1.573-7.175A5.195,5.195,0,0,0,1663.178,2251.64Z" transform="translate(-1586.408 -2211.124)" fill="#f6c343" stroke="#00223d" stroke-miterlimit="10" stroke-width="2.477"/>
          <path id="Trazado_16145" data-name="Trazado 16145" d="M1624.036,2253.915a7.209,7.209,0,1,0,2.7-9.832A7.209,7.209,0,0,0,1624.036,2253.915Z" transform="translate(-1587.411 -2211.137)" fill="#00223d"/>
          <line id="Línea_143" data-name="Línea 143" x1="19.607" y1="1.659" transform="translate(10.109 37.181)" fill="none" stroke="#00223d" stroke-miterlimit="10" stroke-width="2.211"/>
          <line id="Línea_144" data-name="Línea 144" y1="15.041" x2="10.679" transform="translate(24.988 48.774)" fill="none" stroke="#00223d" stroke-miterlimit="10" stroke-width="2.064"/>
          <line id="Línea_145" data-name="Línea 145" y1="18.597" x2="11.432" transform="translate(47.846 9.087)" fill="none" stroke="#00223d" stroke-miterlimit="10" stroke-width="2.477"/>
          <line id="Línea_146" data-name="Línea 146" x2="19.943" y2="0.276" transform="translate(56.41 37.36)" fill="none" stroke="#00223d" stroke-miterlimit="10" stroke-width="2.233"/>
          <line id="Línea_147" data-name="Línea 147" x1="9.943" y1="14.682" transform="translate(25.246 12.861)" fill="none" stroke="#00223d" stroke-miterlimit="10" stroke-width="2.708"/>
          <path id="Trazado_16146" data-name="Trazado 16146" d="M1604.959,2280.719a5.593,5.593,0,1,0,2.752-7.541A5.678,5.678,0,0,0,1604.959,2280.719Z" transform="translate(-1587.886 -2210.382)" fill="#aee6e6" stroke="#00223d" stroke-miterlimit="10" stroke-width="2.058"/>
        </g>
      </g>
    </g>
    <path id="Trazado_16147" data-name="Trazado 16147" d="M1615.858,2366.579H1659.3c.952,0,1.8-.878,2.141-2.2l3.056-12.075c.744-2.945,3.547-2.937,4.282.015l6.063,24.311c.766,3.074,3.722,2.916,4.339-.23L1685,2346.7c.6-3.068,3.457-3.321,4.3-.381l5.5,19.223c.36,1.254,1.188,2.069,2.1,2.069h34.467" transform="translate(-71.682 -3.823)" fill="none" stroke="#00223d" stroke-linecap="round" stroke-miterlimit="10" stroke-width="5.124"/>
    <path id="Trazado_16148" data-name="Trazado 16148" d="M1740.793,2371.223h0a4.34,4.34,0,0,0,4.327-4.326h0a4.339,4.339,0,0,0-4.327-4.327h0a4.339,4.339,0,0,0-4.327,4.327h0A4.339,4.339,0,0,0,1740.793,2371.223Z" transform="translate(-68.605 -3.356)" fill="#00223d"/>
    <g id="Grupo_12249" data-name="Grupo 12249" transform="translate(1502.203 2188.043)">
      <g id="Grupo_12247" data-name="Grupo 12247" transform="translate(8.117 7.615)">
        <path id="Trazado_16149" data-name="Trazado 16149" d="M1644.855,2405.47c-10.361-.28-9.937-15.966-20.3-16.246s-10.784,15.407-21.146,15.127-9.939-15.966-20.3-16.245-10.786,15.406-21.148,15.127" transform="translate(-1561.961 -2388.102)" fill="none" stroke="#00223d" stroke-linecap="round" stroke-miterlimit="10" stroke-width="2.664"/>
      </g>
      <g id="Grupo_12248" data-name="Grupo 12248" transform="translate(8.674 5.523)">
        <path id="Trazado_16150" data-name="Trazado 16150" d="M1562.5,2386.063c10.361.28,9.937,15.966,20.3,16.246s10.784-15.407,21.146-15.127,9.939,15.966,20.3,16.246,10.786-15.407,21.149-15.128" transform="translate(-1562.504 -2386.063)" fill="none" stroke="#00223d" stroke-linecap="round" stroke-miterlimit="10" stroke-width="2.664"/>
      </g>
      <ellipse id="Elipse_628" data-name="Elipse 628" cx="3.871" cy="3.282" rx="3.871" ry="3.282" transform="matrix(0.243, -0.97, 0.97, 0.243, 89.376, 29.418)" fill="#e36099" stroke="#00223d" stroke-miterlimit="10" stroke-width="1.54"/>
      <path id="Trazado_16151" data-name="Trazado 16151" d="M1563.374,2384.6a3.882,3.882,0,0,1-3.637,3.75c-1.825-.049-3.154-1.808-2.968-3.927a3.88,3.88,0,0,1,3.637-3.75C1562.23,2380.727,1563.558,2382.486,1563.374,2384.6Z" transform="translate(-1553.976 -2380.677)" fill="#e36099" stroke="#00223d" stroke-miterlimit="10" stroke-width="1.54"/>
      <circle id="Elipse_629" data-name="Elipse 629" cx="3.949" cy="3.949" r="3.949" transform="translate(0 20.053)" fill="#e36099" stroke="#00223d" stroke-miterlimit="10" stroke-width="1.736"/>
      <circle id="Elipse_630" data-name="Elipse 630" cx="3.949" cy="3.949" r="3.949" transform="translate(88.867 7.271) rotate(-49.027)" fill="#e36099" stroke="#00223d" stroke-miterlimit="10" stroke-width="1.736"/>
    </g>
    <path id="Trazado_16152" data-name="Trazado 16152" d="M1688.411,2329.355a5.124,5.124,0,0,1-3.367-1.393l-16.533-15.32a3.306,3.306,0,0,1,.364-5.274,5.218,5.218,0,0,1,6.366.28l12.946,11.926,26.9-28.238a5.19,5.19,0,0,1,6.332-.637,3.286,3.286,0,0,1,.768,5.2l-30.23,31.878a4.872,4.872,0,0,1-3.406,1.574Z" transform="translate(-70.368 -5.21)" fill="#f5ca56" stroke="#00223d" stroke-miterlimit="10" stroke-width="3.438"/>
  </g>
</svg>
