<svg xmlns="http://www.w3.org/2000/svg" xmlns:xlink="http://www.w3.org/1999/xlink" width="78.501" height="73.824" viewBox="0 0 78.501 73.824">
  <defs>
    <clipPath id="clip-path">
      <rect id="Rectángulo_401074" data-name="Rectángulo 401074" width="59" height="59" transform="translate(250.263 6627.738)" fill="#fff" stroke="#707070" stroke-width="1"/>
    </clipPath>
  </defs>
  <g id="Grupo_1099160" data-name="Grupo 1099160" transform="translate(-240.263 -6627.738)">
    <path id="_12068" data-name="12068" d="M72.033,71.913c-8.038-1.11-16.53-.839-23.844,2.675C38.045,79.46,31.382,90.507,31.127,101.757s5.606,22.305,14.66,28.988,21,9.051,32.068,7.045c11.165-2.023,21.645-8.583,27.469-18.322,3.735-6.245,5.48-13.956,3.417-20.934a28.6,28.6,0,0,0-6.787-11.156A50.145,50.145,0,0,0,72.033,71.913Z" transform="translate(209.144 6563.081)" fill="#26aab7"/>
    <g id="Enmascarar_grupo_1098689" data-name="Enmascarar grupo 1098689" clip-path="url(#clip-path)">
      <g id="multimedia" transform="translate(250.263 6627.738)">
        <path id="Trazado_873234" data-name="Trazado 873234" d="M14.274,44.726a3.805,3.805,0,0,1-3.806-3.806V27.6H4.758A3.805,3.805,0,0,0,.952,31.4V54.242a3.805,3.805,0,0,0,3.806,3.806H33.306a3.805,3.805,0,0,0,3.806-3.806V44.726Zm0,0" fill="#fcd770"/>
        <path id="Trazado_873235" data-name="Trazado 873235" d="M46.629,31.4v9.516a3.805,3.805,0,0,1-3.806,3.806H14.274a3.805,3.805,0,0,1-3.806-3.806V18.081a3.805,3.805,0,0,1,3.806-3.806H42.823a3.805,3.805,0,0,1,3.806,3.806Zm0,0" fill="#e6e9ed"/>
        <path id="Trazado_873236" data-name="Trazado 873236" d="M37.113,29.5,21.887,37.113V21.887Zm0,0" fill="#ff826e"/>
        <path id="Trazado_873237" data-name="Trazado 873237" d="M21.887,14.274V4.758A3.805,3.805,0,0,1,25.694.952H54.242a3.805,3.805,0,0,1,3.806,3.806V27.6A3.805,3.805,0,0,1,54.242,31.4H46.629V18.081a3.805,3.805,0,0,0-3.806-3.806Zm0,0" fill="#48cfad"/>
        <path id="Trazado_873238" data-name="Trazado 873238" d="M13.323,52.339v1.9H9.516V50.435h3.806Zm0,0" fill="#e6e9ed"/>
        <g id="Grupo_1099163" data-name="Grupo 1099163">
          <path id="Trazado_873239" data-name="Trazado 873239" d="M13.323,19.032v7.613h1.9V19.032h3.806v-1.9H15.226A1.905,1.905,0,0,0,13.323,19.032Zm0,0" fill="#1e1713"/>
          <path id="Trazado_873240" data-name="Trazado 873240" d="M13.323,28.548h1.9v1.9h-1.9Zm0,0" fill="#1e1713"/>
          <path id="Trazado_873241" data-name="Trazado 873241" d="M13.323,32.355h1.9v1.9h-1.9Zm0,0" fill="#1e1713"/>
          <path id="Trazado_873242" data-name="Trazado 873242" d="M41.871,30.452h1.9v1.9h-1.9Zm0,0" fill="#1e1713"/>
          <path id="Trazado_873243" data-name="Trazado 873243" d="M41.871,34.258h1.9v1.9h-1.9Zm0,0" fill="#1e1713"/>
          <path id="Trazado_873244" data-name="Trazado 873244" d="M41.871,38.065h1.9v1.9h-1.9Zm0,0" fill="#1e1713"/>
          <path id="Trazado_873245" data-name="Trazado 873245" d="M3.806,36.161h1.9v1.9h-1.9Zm0,0" fill="#1e1713"/>
          <path id="Trazado_873246" data-name="Trazado 873246" d="M3.806,39.968h1.9v1.9h-1.9Zm0,0" fill="#1e1713"/>
          <path id="Trazado_873247" data-name="Trazado 873247" d="M3.806,32.355h1.9v1.9h-1.9Zm0,0" fill="#1e1713"/>
          <path id="Trazado_873248" data-name="Trazado 873248" d="M54.242,0H25.694a4.764,4.764,0,0,0-4.758,4.758v8.565H14.274a4.764,4.764,0,0,0-4.758,4.758v8.565H4.758A4.764,4.764,0,0,0,0,31.4V54.242A4.764,4.764,0,0,0,4.758,59H33.306a4.764,4.764,0,0,0,4.758-4.758V45.677h4.758a4.764,4.764,0,0,0,4.758-4.758V32.355h6.661A4.764,4.764,0,0,0,59,27.6V4.758A4.764,4.764,0,0,0,54.242,0ZM36.161,54.242A2.859,2.859,0,0,1,33.306,57.1H4.758A2.859,2.859,0,0,1,1.9,54.242V31.4a2.859,2.859,0,0,1,2.855-2.855H9.516V40.919a4.764,4.764,0,0,0,4.758,4.758H36.161Zm9.516-13.323a2.859,2.859,0,0,1-2.855,2.855H14.274a2.859,2.859,0,0,1-2.855-2.855V18.081a2.859,2.859,0,0,1,2.855-2.855H42.823a2.859,2.859,0,0,1,2.855,2.855ZM53.29,7.613H39.968V5.71H53.29ZM57.1,27.6a2.859,2.859,0,0,1-2.855,2.855H47.581V18.081a4.764,4.764,0,0,0-4.758-4.758H39.968V9.516H53.29v9.691a2.815,2.815,0,0,0-.952-.175,2.855,2.855,0,1,0,2.855,2.855V3.806H38.065v9.516H22.839V4.758A2.859,2.859,0,0,1,25.694,1.9H54.242A2.859,2.859,0,0,1,57.1,4.758Zm-3.806-5.71a.952.952,0,1,1-.952-.952A.952.952,0,0,1,53.29,21.887Zm0,0" fill="#1e1713"/>
          <path id="Trazado_873249" data-name="Trazado 873249" d="M20.935,38.653,39.241,29.5,20.935,20.347Zm1.9-15.226L34.985,29.5,22.839,35.573Zm0,0" fill="#1e1713"/>
          <path id="Trazado_873250" data-name="Trazado 873250" d="M14.274,49.484H8.565v1.9H3.806v1.9H8.565v1.9h5.71v-1.9H34.258v-1.9H14.274Zm-1.9,3.806h-1.9v-1.9h1.9Zm0,0" fill="#1e1713"/>
          <path id="Trazado_873251" data-name="Trazado 873251" d="M24.742,3.806H36.161v1.9H24.742Zm0,0" fill="#1e1713"/>
          <path id="Trazado_873252" data-name="Trazado 873252" d="M24.742,7.613H36.161v1.9H24.742Zm0,0" fill="#1e1713"/>
        </g>
      </g>
    </g>
  </g>
</svg>
