<svg xmlns="http://www.w3.org/2000/svg" xmlns:xlink="http://www.w3.org/1999/xlink" width="91.927" height="91.928" viewBox="0 0 91.927 91.928">
  <defs>
    <radialGradient id="radial-gradient" cx="0.076" cy="0.019" r="1.465" gradientTransform="translate(0.001)" gradientUnits="objectBoundingBox">
      <stop offset="0" stop-color="#f6f6f7"/>
      <stop offset="0.477" stop-color="#f9f9fa"/>
      <stop offset="0.715" stop-color="#fff"/>
    </radialGradient>
  </defs>
  <g id="Grupo_55409" data-name="Grupo 55409" transform="translate(-217 -741.333)">
    <g id="Grupo_42274" data-name="Grupo 42274" transform="translate(142 768.333)">
      <g id="Grupo_18423" data-name="Grupo 18423" transform="translate(75 -27)">
        <g id="Grupo_18421" data-name="Grupo 18421">
          <g id="Grupo_18420" data-name="Grupo 18420">
            <g id="Grupo_18419" data-name="Grupo 18419">
              <path id="Trazado_40936" data-name="Trazado 40936" d="M286.55,2191.684a45.964,45.964,0,1,1-45.963-45.962A45.963,45.963,0,0,1,286.55,2191.684Z" transform="translate(-194.623 -2145.721)" fill="#fff"/>
            </g>
          </g>
        </g>
        <path id="Trazado_40937" data-name="Trazado 40937" d="M286.23,2191.334a45.963,45.963,0,1,0-45.963,45.965A45.782,45.782,0,0,0,286.23,2191.334Z" transform="translate(-194.303 -2145.372)" fill="url(#radial-gradient)"/>
        <path id="Trazado_40938" data-name="Trazado 40938" d="M272.56,2188.562a35.084,35.084,0,1,0-35.084,35.084A34.953,34.953,0,0,0,272.56,2188.562Z" transform="translate(-191.373 -2142.446)" fill="none" stroke="#7d6eb2" stroke-miterlimit="10" stroke-width="4"/>
        <g id="Grupo_18422" data-name="Grupo 18422" transform="translate(8.143 25.805)">
          <path id="Trazado_40939" data-name="Trazado 40939" d="M279.682,2164.488a45.969,45.969,0,0,1-79.137,45.773,45.823,45.823,0,0,0,79.137-45.773Z" transform="translate(-200.545 -2164.488)" fill="#eceef0"/>
        </g>
      </g>
    </g>
    <g id="Grupo_55418" data-name="Grupo 55418" transform="translate(620.893 114.336)">
      <path id="Trazado_117287" data-name="Trazado 117287" d="M-193.1,736.4a12.949,12.949,0,0,1,12.973,12.941,12.876,12.876,0,0,1-13,12.984,12.873,12.873,0,0,1-12.927-12.974A12.93,12.93,0,0,1-193.1,736.4Zm-4.629,15.748a18.194,18.194,0,0,0-2.506.218,2.213,2.213,0,0,0-1.694,2.025,2.127,2.127,0,0,0,1.575,2.027,3.525,3.525,0,0,0,2.613.01,2.239,2.239,0,0,0,1.552-2.287c0-1.19-.007-2.381-.008-3.571,0-1.631,0-3.263,0-4.943l8.262-.963v6.465a3.591,3.591,0,0,0-3.253.433,1.952,1.952,0,0,0,.062,3.31,3.363,3.363,0,0,0,2.911.459,2.333,2.333,0,0,0,1.874-2.5q0-4.538,0-9.077c0-.836,0-1.672,0-2.525-.292,0-.488-.019-.679,0-3.4.384-6.79.783-10.188,1.149-.532.057-.563.333-.559.747.021,2.107.027,4.214.036,6.322C-197.722,750.39-197.726,751.327-197.726,752.151Z" transform="translate(-150.834 -70.259)" fill="#12263f"/>
      <path id="Trazado_117288" data-name="Trazado 117288" d="M-378.372,721.247h14.309l.07-.723h4.844v13.643h-24.123V710h11.354v1.6h-6.454Zm14.324,11.3v-9.583h-14.333v9.583Zm-16.851-8.007v.02c-.3,0-.651-.1-.876.025a1.33,1.33,0,0,0-.677.793.985.985,0,0,0,.632.733,4.7,4.7,0,0,0,1.837-.032,1.1,1.1,0,0,0,.6-.849c.009-.22-.42-.524-.714-.669A2,2,0,0,0-380.9,724.539Zm19.341,1.595v.006c.247,0,.494.007.74,0,.477-.016.818-.217.844-.732a.76.76,0,0,0-.8-.861,15.084,15.084,0,0,0-1.553,0c-.5.021-.838.362-.753.808.056.3.425.589.724.76C-362.155,726.228-361.829,726.134-361.558,726.134Zm.054,1.66a2.2,2.2,0,0,0-.879.024c-.287.139-.661.445-.678.7a.973.973,0,0,0,.568.772,5.475,5.475,0,0,0,1.908,0,.973.973,0,0,0,.567-.771c-.019-.256-.395-.55-.681-.7C-360.912,727.7-361.232,727.792-361.5,727.794Zm-19.428-14.586v-.016c.271,0,.591.091.8-.022.3-.161.726-.463.736-.719a1.044,1.044,0,0,0-.635-.8,4.734,4.734,0,0,0-1.831.037.977.977,0,0,0-.6.755c.046.287.42.579.721.746C-381.527,713.3-381.2,713.207-380.932,713.207Zm-.011,3.227v.026c.222,0,.445.006.667,0,.532-.016.941-.22.94-.812s-.383-.81-.935-.8c-.469.009-.938.013-1.408.019-.512.007-.858.311-.778.77.052.3.416.6.713.775C-381.543,716.53-381.214,716.434-380.943,716.434Zm-.024,6.461v-.01c.3,0,.644.1.875-.024.3-.159.66-.469.7-.759.033-.214-.365-.667-.628-.718a4.815,4.815,0,0,0-1.828-.013,1.062,1.062,0,0,0-.612.812c-.008.229.4.54.686.69C-381.556,722.985-381.238,722.9-380.966,722.9Zm19.477-.008c.247,0,.5,0,.742,0a.71.71,0,0,0,.784-.784.681.681,0,0,0-.723-.762c-.542-.019-1.086-.034-1.628-.007-.469.024-.822.249-.808.777a.746.746,0,0,0,.815.773C-362.034,722.9-361.761,722.887-361.489,722.888Zm-19.424,9.672v.007a2.456,2.456,0,0,0,.947-.027,1.059,1.059,0,0,0,.586-.7.915.915,0,0,0-.523-.727,6.349,6.349,0,0,0-1.974-.033.963.963,0,0,0-.58.753c.015.255.384.563.67.7A2.171,2.171,0,0,0-380.913,732.56Zm-.045-4.767v.022a2.2,2.2,0,0,0-.875.024c-.265.127-.617.451-.607.675a1,1,0,0,0,.571.763,4.885,4.885,0,0,0,1.828.035,1.031,1.031,0,0,0,.661-.759c-.005-.258-.4-.582-.7-.735C-380.318,727.7-380.662,727.792-380.958,727.792Zm.029-9.676V718.1c-.271,0-.542-.011-.813,0-.466.023-.812.291-.714.736a1.163,1.163,0,0,0,.678.765,4.01,4.01,0,0,0,1.682.027,1.142,1.142,0,0,0,.731-.721c.1-.468-.257-.762-.754-.788C-380.386,718.1-380.658,718.116-380.928,718.116Zm19.315,14.464v-.023a2.573,2.573,0,0,0,1.019-.03,1.094,1.094,0,0,0,.587-.771.976.976,0,0,0-.648-.683,7.419,7.419,0,0,0-1.767-.021c-.456.028-.8.337-.672.776a1.592,1.592,0,0,0,.753.732C-362.156,732.667-361.86,732.58-361.613,732.58Z" transform="translate(0 -47.786)" fill="#12263f"/>
      <path id="Trazado_117289" data-name="Trazado 117289" d="M-272.852,653.852V664.9l-1.553.207V655.5h-22.63v14.481h14.065c-.448,1.33-.822,1.612-2.073,1.612h-13.6V653.852Z" transform="translate(-72.023)" fill="#12263f"/>
      <path id="Trazado_117290" data-name="Trazado 117290" d="M-255.03,695.983l3.862,6.439c-.771.537-1.509,1.063-2.263,1.565a.948.948,0,0,1-.5.088q-5.983,0-11.965,0c-.088,0-.177-.016-.265-.025l-.175-.236c.41-.342.843-.66,1.225-1.031,1.047-1.016,2.091-2.037,3.1-3.094a.826.826,0,0,1,1.151-.187c.825.444,1.671.85,2.573,1.305Z" transform="translate(-99.527 -35.857)" fill="#12263f"/>
      <path id="Trazado_117291" data-name="Trazado 117291" d="M-264.042,676.53a2.423,2.423,0,0,1,2.463,2.437,2.449,2.449,0,0,1-2.383,2.451,2.443,2.443,0,0,1-2.464-2.375A2.425,2.425,0,0,1-264.042,676.53Z" transform="translate(-99.446 -19.301)" fill="#12263f"/>
    </g>
  </g>
</svg>
