<svg xmlns="http://www.w3.org/2000/svg" xmlns:xlink="http://www.w3.org/1999/xlink" width="91.927" height="91.928" viewBox="0 0 91.927 91.928">
  <defs>
    <radialGradient id="radial-gradient" cx="0.076" cy="0.019" r="1.465" gradientTransform="translate(0.001)" gradientUnits="objectBoundingBox">
      <stop offset="0" stop-color="#f6f6f7"/>
      <stop offset="0.477" stop-color="#f9f9fa"/>
      <stop offset="0.715" stop-color="#fff"/>
    </radialGradient>
  </defs>
  <g id="Grupo_46263" data-name="Grupo 46263" transform="translate(-217 -741.333)">
    <g id="Grupo_42274" data-name="Grupo 42274" transform="translate(142 768.333)">
      <g id="Grupo_18423" data-name="Grupo 18423" transform="translate(75 -27)">
        <g id="Grupo_18421" data-name="Grupo 18421">
          <g id="Grupo_18420" data-name="Grupo 18420">
            <g id="Grupo_18419" data-name="Grupo 18419">
              <path id="Trazado_40936" data-name="Trazado 40936" d="M286.55,2191.684a45.964,45.964,0,1,1-45.963-45.962A45.963,45.963,0,0,1,286.55,2191.684Z" transform="translate(-194.623 -2145.721)" fill="#fff"/>
            </g>
          </g>
        </g>
        <path id="Trazado_40937" data-name="Trazado 40937" d="M286.23,2191.334a45.963,45.963,0,1,0-45.963,45.965A45.782,45.782,0,0,0,286.23,2191.334Z" transform="translate(-194.303 -2145.372)" fill="url(#radial-gradient)"/>
        <path id="Trazado_40938" data-name="Trazado 40938" d="M272.56,2188.562a35.084,35.084,0,1,0-35.084,35.084A34.953,34.953,0,0,0,272.56,2188.562Z" transform="translate(-191.373 -2142.446)" fill="none" stroke="#7d6eb2" stroke-miterlimit="10" stroke-width="4"/>
        <g id="Grupo_18422" data-name="Grupo 18422" transform="translate(8.143 25.805)">
          <path id="Trazado_40939" data-name="Trazado 40939" d="M279.682,2164.488a45.969,45.969,0,0,1-79.137,45.773,45.823,45.823,0,0,0,79.137-45.773Z" transform="translate(-200.545 -2164.488)" fill="#eceef0"/>
        </g>
      </g>
    </g>
    <g id="Grupo_55420" data-name="Grupo 55420" transform="translate(1043.495 93.404)">
      <path id="Trazado_117299" data-name="Trazado 117299" d="M-792.84,706.148c.013-.02.037-.04.039-.061.159-1.817.159-1.816-1.672-1.813-1.559,0-3.118-.015-4.677.009-.576.009-.778-.2-.777-.782q.016-13.328-.005-26.655c0-.615.219-.812.827-.811q20.715.02,41.43,0c.634,0,.88.2.878.852q-.043,11.062-.051,22.124c0,1.433.022,2.866.024,4.3,0,.929-.037.963-.953.963q-8.352,0-16.7,0c-3.316,0-6.633.009-9.949-.012-.577,0-.861.111-.84.772.047,1.479-.07,1.276,1.224,1.231a7.671,7.671,0,0,1,7.739,4.885,14.6,14.6,0,0,1,.512,2.379c.12.651-.194.867-.835.862-2.871-.022-5.742-.009-8.613-.01l-16.112,0c-.856,0-.933-.083-.9-.936a7.643,7.643,0,0,1,6.644-7.083c.9-.085,1.823-.013,2.735-.013Zm-2.665-4.683c-.066-2.271-.172-4.478-.182-6.686a6.449,6.449,0,0,1,2.661-5.38,1.553,1.553,0,0,0,.671-1.057,3.3,3.3,0,0,1,3.39-2.817,3.421,3.421,0,0,1,3.336,2.917,1.438,1.438,0,0,0,.478.826,6.615,6.615,0,0,1,2.79,5.693c-.059,2.156.285,4.336-.44,6.514h23.228V678.839h-37.6v22.626Zm37.8-24.475h-41.263v26.363h4.838c-.268-.687-.64-1.067-1.388-.977a11.583,11.583,0,0,1-1.41.011c-1.17,0-1.17,0-1.17-1.208q0-11.065.009-22.129c0-1.116,0-1.118,1.109-1.118h20.993q8.128,0,16.255,0c1.067,0,1.085,0,1.086,1.071q.011,11.137.006,22.274c0,1.111-.027,1.11-1.123,1.11-7.6,0-15.2.015-22.8-.015a1.264,1.264,0,0,0-1.336,1.01h.656q12.467,0,24.934.02c.527,0,.62-.2.615-.656-.019-1.605-.012-3.211-.012-4.817q0-9.988,0-19.976Zm-43.649,36.446h24.679a6.878,6.878,0,0,0-3.373-5.355c-.529-.323-.805-.249-1.206.241a9.727,9.727,0,0,1-7.63,3.824,9.709,9.709,0,0,1-7.967-3.89.7.7,0,0,0-1.1-.192A6.855,6.855,0,0,0-801.357,713.436Zm18.04-14.823c-.194.043-.336.082-.48.1-1.6.258-3.162.42-4.636-.577-.3-.206-.923-.024-1.372.084-.467.113-.9.484-1.356.511a25.769,25.769,0,0,1-3.075-.067c-.395-.025-.66,0-.6.466a5.887,5.887,0,0,0,3.868,5.228A5.722,5.722,0,0,0-783.318,698.612Zm.018-3.684a4.741,4.741,0,0,0,.041-.476,5.766,5.766,0,0,0-5.782-5.5,5.8,5.8,0,0,0-5.76,5.543c-.008.4.147.543.507.543.791,0,1.587.059,2.371-.016a6.623,6.623,0,0,0,4.656-1.981c1.005-1.144.985-1.152,1.686.244A2.522,2.522,0,0,0-783.3,694.929Zm1.5,12.508a1.315,1.315,0,0,0-1.781.4,7.082,7.082,0,0,1-10.909.03c-.66-.771-.827-.8-1.766-.353A8.806,8.806,0,0,0-781.8,707.436Zm-4.581-13.674a29.575,29.575,0,0,1-2.907,1.617,10.706,10.706,0,0,1-4.671.582,3.108,3.108,0,0,0-.591,0c-.086.013-.153.144-.229.222.1.079.184.211.288.224.137.018.284-.072.43-.09a5.947,5.947,0,0,1,4.424.653c.286.2.879.042,1.3-.069a12.57,12.57,0,0,1,1.783-.621c1.064-.1,2.146-.029,3.288-.029-.035-.055-.131-.379-.267-.4A3.683,3.683,0,0,1-786.384,693.762Zm-5.432,11.4c-.231,1.449.055,2.047,1.486,2.5a4.054,4.054,0,0,0,2.1.148c1.725-.435,2.385-1.059,2-2.648a17.229,17.229,0,0,1-2.75.419A18.611,18.611,0,0,1-791.816,705.158Zm-1.856,2.1a5.922,5.922,0,0,0,9.268.011c-.937-.14-.937-.14-1.644.452a4.482,4.482,0,0,1-6.015-.075A1.626,1.626,0,0,0-793.672,707.256Zm2.3-18.912a18.524,18.524,0,0,1,2.309-.272,20.173,20.173,0,0,1,2.381.267,2.238,2.238,0,0,0-2.216-1.91A2.3,2.3,0,0,0-791.375,688.345Zm.827,9.194a4.866,4.866,0,0,0-4.087.012A4.7,4.7,0,0,0-790.548,697.538Zm2.912-.057a4.169,4.169,0,0,0,4.236-.057A6.143,6.143,0,0,0-787.635,697.481Z" fill="#12263f"/>
      <path id="Trazado_117312" data-name="Trazado 117312" d="M-622.359,706.888c2.248,0,4.5.018,6.743-.012.656-.009.855.231.851.867q-.033,5.118,0,10.236c0,.567-.191.8-.772.8q-6.861-.018-13.722,0c-.579,0-.8-.233-.794-.793.008-3.337-.007-6.675.006-10.012,0-1.03.154-1.1,1.178-1.084,2.17.028,4.341.009,6.512.009Zm6.636,10.954V707.81h-13.384v10.031Z" transform="translate(-146.629 -26.261)" fill="#12263f"/>
      <path id="Trazado_117313" data-name="Trazado 117313" d="M-749.718,707.789q-3.484,0-6.968,0a1.744,1.744,0,0,1-.656-.053.574.574,0,0,1-.311-.425c.006-.138.2-.321.355-.384a1.61,1.61,0,0,1,.586-.032c4.767.011,9.534.017,14.3.051.241,0,.669.225.687.381.056.5-.382.464-.729.464Q-746.086,707.792-749.718,707.789Z" transform="translate(-37.985 -26.266)" fill="#12263f"/>
      <path id="Trazado_117314" data-name="Trazado 117314" d="M-622.139,799.75h-6.61a1.4,1.4,0,0,1-.586-.026,2.112,2.112,0,0,1-.475-.476,2.744,2.744,0,0,1,.481-.378,1.084,1.084,0,0,1,.44-.017h13.368c.149,0,.324-.044.439.019a3.105,3.105,0,0,1,.5.426,2.262,2.262,0,0,1-.51.431,1.569,1.569,0,0,1-.588.02Z" transform="translate(-146.837 -104.561)" fill="#12263f"/>
      <path id="Trazado_117315" data-name="Trazado 117315" d="M-622.229,831.016c2.3,0,4.6-.012,6.9.018.255,0,.507.246.761.377-.264.156-.527.445-.793.447-4.3.04-8.61.043-12.915.054a3.2,3.2,0,0,1-.885-.02,2.385,2.385,0,0,1-.642-.461c.224-.139.447-.395.673-.4C-626.833,831-624.531,831.016-622.229,831.016Z" transform="translate(-146.84 -131.957)" fill="#12263f"/>
      <path id="Trazado_117316" data-name="Trazado 117316" d="M-560.43,814.928c.666,0,1.336-.036,2,.02.227.019.435.268.652.412-.211.151-.418.425-.635.433-1.3.046-2.613.058-3.918.014-.261-.009-.513-.3-.768-.467.249-.135.489-.365.748-.388.637-.057,1.282-.019,1.923-.019Z" transform="translate(-203.637 -118.252)" fill="#12263f"/>
      <path id="Trazado_117317" data-name="Trazado 117317" d="M-730.856,724.148c-.666,0-1.334.032-2-.019-.208-.016-.4-.255-.6-.392.2-.162.4-.457.606-.464q2.032-.063,4.066,0c.217.006.425.281.637.431-.216.148-.422.406-.649.425C-729.473,724.184-730.166,724.148-730.856,724.148Z" transform="translate(-58.595 -40.195)" fill="#12263f"/>
      <path id="Trazado_117318" data-name="Trazado 117318" d="M-682.766,724.2c-.641,0-1.286.042-1.92-.021-.242-.024-.46-.286-.689-.44.216-.146.429-.411.648-.417,1.353-.033,2.707-.024,4.059.016.2.006.394.253.591.388-.207.155-.4.426-.622.445-.685.058-1.378.021-2.068.021Z" transform="translate(-99.526 -40.244)" fill="#12263f"/>
      <path id="Trazado_117319" data-name="Trazado 117319" d="M-597.411,815.839a7.837,7.837,0,0,1-1.255-.021c-.184-.03-.331-.286-.494-.44.169-.142.332-.4.508-.406a24.837,24.837,0,0,1,2.515,0c.181.009.351.252.526.388-.18.162-.342.428-.545.465a7.117,7.117,0,0,1-1.255.022Z" transform="translate(-172.933 -118.27)" fill="#12263f"/>
      <path id="Trazado_117320" data-name="Trazado 117320" d="M-628.407,814.914a3.623,3.623,0,0,1,.878.02c.185.048.323.273.482.419-.163.148-.315.408-.49.425a9.394,9.394,0,0,1-1.761,0c-.178-.017-.331-.286-.5-.44.168-.142.317-.359.509-.408A3.605,3.605,0,0,1-628.407,814.914Z" transform="translate(-146.851 -118.233)" fill="#12263f"/>
      <path id="Trazado_117321" data-name="Trazado 117321" d="M-756.933,724.363c-.143-.011-.377.034-.524-.059s-.217-.326-.32-.5a4.69,4.69,0,0,1,1.106-.324c.221-.012.456.241.684.375a1.831,1.831,0,0,1-.383.464C-756.5,724.4-756.706,724.352-756.933,724.363Z" transform="translate(-37.88 -40.399)" fill="#12263f"/>
      <path id="Trazado_117323" data-name="Trazado 117323" d="M-597.175,730.365c0-.74-.014-1.48,0-2.219.013-.55.269-.79.811-.507,1.44.755,2.883,1.506,4.31,2.284.522.285.528.647.018.926q-2.141,1.168-4.312,2.282c-.552.284-.811.1-.827-.546C-597.188,731.845-597.175,731.105-597.175,730.365Zm4.1.026-3.153-1.653v3.312Z" transform="translate(-174.62 -43.837)" fill="#12263f"/>
    </g>
  </g>
</svg>
