<svg xmlns="http://www.w3.org/2000/svg" xmlns:xlink="http://www.w3.org/1999/xlink" width="91.927" height="91.928" viewBox="0 0 91.927 91.928">
  <defs>
    <radialGradient id="radial-gradient" cx="0.076" cy="0.019" r="1.465" gradientTransform="translate(0.001)" gradientUnits="objectBoundingBox">
      <stop offset="0" stop-color="#f6f6f7"/>
      <stop offset="0.477" stop-color="#f9f9fa"/>
      <stop offset="0.715" stop-color="#fff"/>
    </radialGradient>
  </defs>
  <g id="Grupo_55415" data-name="Grupo 55415" transform="translate(-217 -741.333)">
    <g id="Grupo_42274" data-name="Grupo 42274" transform="translate(142 768.333)">
      <g id="Grupo_18423" data-name="Grupo 18423" transform="translate(75 -27)">
        <g id="Grupo_18421" data-name="Grupo 18421">
          <g id="Grupo_18420" data-name="Grupo 18420">
            <g id="Grupo_18419" data-name="Grupo 18419">
              <path id="Trazado_40936" data-name="Trazado 40936" d="M286.55,2191.684a45.964,45.964,0,1,1-45.963-45.962A45.963,45.963,0,0,1,286.55,2191.684Z" transform="translate(-194.623 -2145.721)" fill="#fff"/>
            </g>
          </g>
        </g>
        <path id="Trazado_40937" data-name="Trazado 40937" d="M286.23,2191.334a45.963,45.963,0,1,0-45.963,45.965A45.782,45.782,0,0,0,286.23,2191.334Z" transform="translate(-194.303 -2145.372)" fill="url(#radial-gradient)"/>
        <path id="Trazado_40938" data-name="Trazado 40938" d="M272.56,2188.562a35.084,35.084,0,1,0-35.084,35.084A34.953,34.953,0,0,0,272.56,2188.562Z" transform="translate(-191.373 -2142.446)" fill="none" stroke="#7d6eb2" stroke-miterlimit="10" stroke-width="4"/>
        <g id="Grupo_18422" data-name="Grupo 18422" transform="translate(8.143 25.805)">
          <path id="Trazado_40939" data-name="Trazado 40939" d="M279.682,2164.488a45.969,45.969,0,0,1-79.137,45.773,45.823,45.823,0,0,0,79.137-45.773Z" transform="translate(-200.545 -2164.488)" fill="#eceef0"/>
        </g>
      </g>
    </g>
    <g id="Grupo_42969" data-name="Grupo 42969" transform="translate(243.295 764.8)">
      <g id="Grupo_26538" data-name="Grupo 26538" transform="translate(0 0)">
        <g id="Grupo_26537" data-name="Grupo 26537">
          <g id="Grupo_26525" data-name="Grupo 26525">
            <g id="Grupo_26524" data-name="Grupo 26524">
              <path id="Trazado_67369" data-name="Trazado 67369" d="M2152.912,1912.783H2126.46a.411.411,0,0,1-.411-.411v-34.043a.411.411,0,0,1,.411-.411h26.451a.411.411,0,0,1,.411.411v34.043A.41.41,0,0,1,2152.912,1912.783Zm-26.04-.821H2152.5v-33.222h-25.629Z" transform="translate(-2126.05 -1877.918)" fill="#00223d"/>
            </g>
          </g>
          <g id="Grupo_26534" data-name="Grupo 26534" transform="translate(3.985 4.912)">
            <g id="Grupo_26526" data-name="Grupo 26526" transform="translate(11.203)">
              <path id="Trazado_67370" data-name="Trazado 67370" d="M2211.129,1903.884H2204.2a.411.411,0,1,1,0-.821h6.925a.411.411,0,1,1,0,.821Z" transform="translate(-2203.794 -1903.063)" fill="#00223d"/>
            </g>
            <g id="Grupo_26527" data-name="Grupo 26527" transform="translate(11.203 3.349)">
              <path id="Trazado_67371" data-name="Trazado 67371" d="M2211.129,1921.025H2204.2a.411.411,0,1,1,0-.821h6.925a.411.411,0,1,1,0,.821Z" transform="translate(-2203.794 -1920.204)" fill="#00223d"/>
            </g>
            <g id="Grupo_26528" data-name="Grupo 26528" transform="translate(11.203 6.697)">
              <path id="Trazado_67372" data-name="Trazado 67372" d="M2211.129,1938.166H2204.2a.411.411,0,0,1,0-.822h6.925a.411.411,0,0,1,0,.822Z" transform="translate(-2203.794 -1937.344)" fill="#00223d"/>
            </g>
            <g id="Grupo_26529" data-name="Grupo 26529" transform="translate(0 10.009)">
              <path id="Trazado_67373" data-name="Trazado 67373" d="M2164.684,1955.117h-17.826a.411.411,0,1,1,0-.821h17.826a.411.411,0,1,1,0,.821Z" transform="translate(-2146.447 -1954.296)" fill="#00223d"/>
            </g>
            <g id="Grupo_26530" data-name="Grupo 26530" transform="translate(0.056 13.716)">
              <path id="Trazado_67374" data-name="Trazado 67374" d="M2165.215,1974.092h-18.072a.411.411,0,1,1,0-.821h18.072a.411.411,0,1,1,0,.821Z" transform="translate(-2146.733 -1973.271)" fill="#00223d"/>
            </g>
            <g id="Grupo_26531" data-name="Grupo 26531" transform="translate(0.056 17.064)">
              <path id="Trazado_67375" data-name="Trazado 67375" d="M2165.215,1991.232h-18.072a.411.411,0,0,1,0-.821h18.072a.411.411,0,0,1,0,.821Z" transform="translate(-2146.733 -1990.411)" fill="#00223d"/>
            </g>
            <g id="Grupo_26532" data-name="Grupo 26532" transform="translate(0.056 20.413)">
              <path id="Trazado_67376" data-name="Trazado 67376" d="M2165.215,2008.373h-18.072a.411.411,0,1,1,0-.821h18.072a.411.411,0,1,1,0,.821Z" transform="translate(-2146.733 -2007.552)" fill="#00223d"/>
            </g>
            <g id="Grupo_26533" data-name="Grupo 26533" transform="translate(0.056 23.761)">
              <path id="Trazado_67377" data-name="Trazado 67377" d="M2158.99,2025.514h-11.847a.411.411,0,0,1,0-.822h11.847a.411.411,0,0,1,0,.822Z" transform="translate(-2146.733 -2024.692)" fill="#00223d"/>
            </g>
          </g>
          <g id="Grupo_26536" data-name="Grupo 26536" transform="translate(3.783 2.93)">
            <g id="Grupo_26535" data-name="Grupo 26535">
              <path id="Trazado_67378" data-name="Trazado 67378" d="M2150.745,1902.312l-.752,2.518h-2.475l3.228-9.811h3.134l3.274,9.811h-2.569l-.815-2.518Zm2.679-1.66-.658-2.081c-.188-.582-.376-1.31-.533-1.892h-.031c-.157.582-.313,1.325-.485,1.892l-.627,2.081Z" transform="translate(-2147.107 -1894.608)" fill="none"/>
              <path id="Trazado_67379" data-name="Trazado 67379" d="M2155.463,1903.549h-2.57a.411.411,0,0,1-.391-.284l-.722-2.234h-2.419l-.665,2.225a.411.411,0,0,1-.393.293h-2.476a.411.411,0,0,1-.39-.539l3.228-9.811a.41.41,0,0,1,.39-.282h3.134a.412.412,0,0,1,.39.281l3.274,9.81a.41.41,0,0,1-.389.541Zm-2.271-.821h1.7l-3-8.989h-2.541l-2.957,8.989h1.6l.664-2.225a.411.411,0,0,1,.394-.293h3.024a.411.411,0,0,1,.391.284Zm-1.458-3.356H2149.4a.411.411,0,0,1-.393-.529l.627-2.081c.1-.329.2-.727.29-1.113.065-.268.128-.531.193-.768a.41.41,0,0,1,.4-.3h.031a.41.41,0,0,1,.4.3l.077.288c.138.518.3,1.1.45,1.584l.658,2.084a.411.411,0,0,1-.391.535Zm-1.782-.821h1.221l-.489-1.547c-.046-.144-.093-.3-.139-.455-.041.156-.083.308-.125.45Z" transform="translate(-2145.416 -1892.917)" fill="#00223d"/>
            </g>
          </g>
        </g>
      </g>
      <g id="Grupo_26552" data-name="Grupo 26552" transform="translate(9.279 16.962)">
        <g id="Grupo_26546" data-name="Grupo 26546" transform="translate(15.032 12.543)">
          <g id="Grupo_26539" data-name="Grupo 26539" transform="translate(2.613 4.986)">
            <path id="Trazado_67382" data-name="Trazado 67382" d="M2272.264,2063.692a1.7,1.7,0,0,1-.617-.116,1.69,1.69,0,0,1-1.08-1.564,1.7,1.7,0,0,1-1.152-.029,1.686,1.686,0,0,1-1.08-1.563,1.7,1.7,0,0,1-1.153-.03,1.688,1.688,0,0,1-1.08-1.564,1.7,1.7,0,0,1-1.153-.029,1.684,1.684,0,0,1-.96-2.194l.745-1.874a.411.411,0,0,1,.763.3l-.746,1.873a.855.855,0,0,0,.011.661.865.865,0,0,0,.484.463.887.887,0,0,0,1.145-.495l.21-.528a.41.41,0,0,1,.709-.1l.061.081a.41.41,0,0,1,.055.4l-.44,1.109a.851.851,0,0,0,.01.661.866.866,0,0,0,.484.464.887.887,0,0,0,1.144-.495l.33-.827a.41.41,0,0,1,.666-.144l.067.063a.411.411,0,0,1,.1.448l-.565,1.423a.853.853,0,0,0,.01.661.865.865,0,0,0,.484.464.889.889,0,0,0,1.145-.5l.5-1.259a.411.411,0,0,1,.6-.2l.075.045a.41.41,0,0,1,.167.5l-.745,1.875a.85.85,0,0,0,.01.66.866.866,0,0,0,.484.463.888.888,0,0,0,1.145-.494l.382-.961a.411.411,0,1,1,.763.3l-.383.961A1.709,1.709,0,0,1,2272.264,2063.692Z" transform="translate(-2263.869 -2054.47)" fill="#00223d"/>
          </g>
          <g id="Grupo_26540" data-name="Grupo 26540" transform="translate(1.685 1.153)">
            <path id="Trazado_67383" data-name="Trazado 67383" d="M2264.407,2041.545l-2.571-1.835a1.46,1.46,0,0,1-.333-2.052l.072-.1a1.493,1.493,0,0,1,2.071-.337l6.01,4.29Z" transform="translate(-2260.811 -2036.536)" fill="#fff"/>
            <path id="Trazado_67384" data-name="Trazado 67384" d="M2262.714,2040.27a.41.41,0,0,1-.238-.076l-2.571-1.835a1.87,1.87,0,0,1-.427-2.627l.07-.1a1.907,1.907,0,0,1,2.643-.431l6.01,4.29a.41.41,0,1,1-.477.668l-6.01-4.29a1.083,1.083,0,0,0-1.5.244l-.071.1a1.05,1.05,0,0,0,.239,1.477l2.571,1.835a.411.411,0,0,1-.239.745Z" transform="translate(-2259.118 -2034.85)" fill="#00223d"/>
          </g>
          <g id="Grupo_26541" data-name="Grupo 26541" transform="translate(4.832 4.356)">
            <path id="Trazado_67385" data-name="Trazado 67385" d="M2283.926,2059.418l-5.658-2.889a1.671,1.671,0,0,1-.755-2.254,1.706,1.706,0,0,1,2.275-.755l7.879,3.371Z" transform="translate(-2276.921 -2052.934)" fill="#fff"/>
            <path id="Trazado_67386" data-name="Trazado 67386" d="M2282.231,2058.142a.406.406,0,0,1-.186-.045l-5.659-2.889a2.081,2.081,0,0,1-.935-2.8,2.12,2.12,0,0,1,2.824-.938l7.859,3.361a.411.411,0,0,1-.323.755l-7.88-3.371a1.3,1.3,0,0,0-1.747.563,1.26,1.26,0,0,0,.57,1.7l5.664,2.892a.411.411,0,0,1-.187.777Z" transform="translate(-2275.227 -2051.246)" fill="#00223d"/>
          </g>
          <g id="Grupo_26542" data-name="Grupo 26542" transform="translate(5.52 1.958)">
            <path id="Trazado_67387" data-name="Trazado 67387" d="M2294.605,2044.76a.409.409,0,0,1-.288-.118,25.706,25.706,0,0,0-5.351-4.024,4.376,4.376,0,0,0-1.32-.474,22.228,22.228,0,0,0-8.389.117.411.411,0,0,1-.2-.8,22.683,22.683,0,0,1,8.736-.126,5.21,5.21,0,0,1,1.568.564,26.547,26.547,0,0,1,5.527,4.156.411.411,0,0,1-.288.7Z" transform="translate(-2278.749 -2038.975)" fill="#00223d"/>
          </g>
          <g id="Grupo_26543" data-name="Grupo 26543" transform="translate(11.413 10.344)">
            <path id="Trazado_67388" data-name="Trazado 67388" d="M2314.893,2086.013h-.033a8.445,8.445,0,0,1-5.877-3.474.41.41,0,1,1,.681-.458,7.751,7.751,0,0,0,5.262,3.114.411.411,0,0,1-.032.82Z" transform="translate(-2308.912 -2081.898)" fill="#00223d"/>
          </g>
          <g id="Grupo_26544" data-name="Grupo 26544" transform="translate(0 1.605)">
            <path id="Trazado_67389" data-name="Trazado 67389" d="M2252.322,2039a.41.41,0,0,1-.238-.076l-1.419-1.012a.411.411,0,0,1,.477-.669l1.419,1.012a.411.411,0,0,1-.239.745Z" transform="translate(-2250.493 -2037.164)" fill="#00223d"/>
          </g>
          <g id="Grupo_26545" data-name="Grupo 26545" transform="translate(1.168)">
            <path id="Trazado_67390" data-name="Trazado 67390" d="M2258.3,2030.783a.408.408,0,0,1-.238-.076l-1.418-1.012a.411.411,0,1,1,.477-.669l1.418,1.012a.411.411,0,0,1-.239.745Z" transform="translate(-2256.469 -2028.95)" fill="#00223d"/>
          </g>
        </g>
        <g id="Grupo_26547" data-name="Grupo 26547">
          <path id="Trazado_67391" data-name="Trazado 67391" d="M2190.4,1969.333a8.509,8.509,0,0,1,0,12.11,8.7,8.7,0,0,1-12.22,0,8.509,8.509,0,0,1,0-12.11A8.7,8.7,0,0,1,2190.4,1969.333Z" transform="translate(-2175.237 -1966.419)" fill="#fff"/>
          <path id="Trazado_67392" data-name="Trazado 67392" d="M2182.6,1982.683a9.061,9.061,0,0,1-6.4-2.622,8.919,8.919,0,0,1,0-12.693,9.119,9.119,0,0,1,12.8,0,8.919,8.919,0,0,1,0,12.693A9.066,9.066,0,0,1,2182.6,1982.683Zm0-17.118a8.243,8.243,0,0,0-5.821,2.385,8.1,8.1,0,0,0,0,11.526,8.3,8.3,0,0,0,11.642,0,8.1,8.1,0,0,0,0-11.526A8.248,8.248,0,0,0,2182.6,1965.566Z" transform="translate(-2173.545 -1964.745)" fill="#00223d"/>
        </g>
        <g id="Grupo_26548" data-name="Grupo 26548" transform="translate(2.152 2.131)">
          <path id="Trazado_67393" data-name="Trazado 67393" d="M2197.739,1979.62a6.391,6.391,0,0,1,0,9.1,6.532,6.532,0,0,1-9.178,0,6.39,6.39,0,0,1,0-9.1A6.532,6.532,0,0,1,2197.739,1979.62Z" transform="translate(-2186.249 -1977.329)" fill="none"/>
          <path id="Trazado_67394" data-name="Trazado 67394" d="M2191.458,1989.329a6.907,6.907,0,0,1-4.877-2,6.8,6.8,0,0,1,0-9.678,6.95,6.95,0,0,1,9.756,0,6.8,6.8,0,0,1,0,9.678A6.912,6.912,0,0,1,2191.458,1989.329Zm0-12.856a6.088,6.088,0,0,0-4.3,1.762,5.98,5.98,0,0,0,0,8.512,6.127,6.127,0,0,0,8.6,0,5.98,5.98,0,0,0,0-8.512A6.091,6.091,0,0,0,2191.458,1976.472Z" transform="translate(-2184.558 -1975.652)" fill="#00223d"/>
        </g>
        <g id="Grupo_26549" data-name="Grupo 26549" transform="translate(2.113 8.458)">
          <path id="Trazado_67395" data-name="Trazado 67395" d="M2194.081,2008.863h-9.31a.411.411,0,0,1,0-.822h9.31a.411.411,0,0,1,0,.822Z" transform="translate(-2184.361 -2008.041)" fill="#00223d"/>
        </g>
        <g id="Grupo_26550" data-name="Grupo 26550" transform="translate(3.08 5.435)">
          <path id="Trazado_67396" data-name="Trazado 67396" d="M2196.582,1993.388h-6.859a.411.411,0,0,1,0-.822h6.859a.411.411,0,0,1,0,.822Z" transform="translate(-2189.313 -1992.566)" fill="#00223d"/>
        </g>
        <g id="Grupo_26551" data-name="Grupo 26551" transform="translate(2.931 11.481)">
          <path id="Trazado_67397" data-name="Trazado 67397" d="M2197.081,2024.339h-8.12a.411.411,0,1,1,0-.821h8.12a.411.411,0,1,1,0,.821Z" transform="translate(-2188.55 -2023.517)" fill="#00223d"/>
        </g>
      </g>
    </g>
  </g>
</svg>
