<svg xmlns="http://www.w3.org/2000/svg" xmlns:xlink="http://www.w3.org/1999/xlink" width="91.927" height="91.928" viewBox="0 0 91.927 91.928">
  <defs>
    <radialGradient id="radial-gradient" cx="0.076" cy="0.019" r="1.465" gradientTransform="translate(0.001)" gradientUnits="objectBoundingBox">
      <stop offset="0" stop-color="#f6f6f7"/>
      <stop offset="0.477" stop-color="#f9f9fa"/>
      <stop offset="0.715" stop-color="#fff"/>
    </radialGradient>
  </defs>
  <g id="Grupo_55406" data-name="Grupo 55406" transform="translate(-217 -741.333)">
    <g id="Grupo_42274" data-name="Grupo 42274" transform="translate(142 768.333)">
      <g id="Grupo_18423" data-name="Grupo 18423" transform="translate(75 -27)">
        <g id="Grupo_18421" data-name="Grupo 18421">
          <g id="Grupo_18420" data-name="Grupo 18420">
            <g id="Grupo_18419" data-name="Grupo 18419">
              <path id="Trazado_40936" data-name="Trazado 40936" d="M286.55,2191.684a45.964,45.964,0,1,1-45.963-45.962A45.963,45.963,0,0,1,286.55,2191.684Z" transform="translate(-194.623 -2145.721)" fill="#fff"/>
            </g>
          </g>
        </g>
        <path id="Trazado_40937" data-name="Trazado 40937" d="M286.23,2191.334a45.963,45.963,0,1,0-45.963,45.965A45.782,45.782,0,0,0,286.23,2191.334Z" transform="translate(-194.303 -2145.372)" fill="url(#radial-gradient)"/>
        <path id="Trazado_40938" data-name="Trazado 40938" d="M272.56,2188.562a35.084,35.084,0,1,0-35.084,35.084A34.953,34.953,0,0,0,272.56,2188.562Z" transform="translate(-191.373 -2142.446)" fill="none" stroke="#7d6eb2" stroke-miterlimit="10" stroke-width="4"/>
        <g id="Grupo_18422" data-name="Grupo 18422" transform="translate(8.143 25.805)">
          <path id="Trazado_40939" data-name="Trazado 40939" d="M279.682,2164.488a45.969,45.969,0,0,1-79.137,45.773,45.823,45.823,0,0,0,79.137-45.773Z" transform="translate(-200.545 -2164.488)" fill="#eceef0"/>
        </g>
      </g>
    </g>
    <g id="X6TL7I.tif" transform="translate(974.283 40.284)">
      <g id="Grupo_55419" data-name="Grupo 55419" transform="translate(-733.286 729.143)">
        <path id="Trazado_117292" data-name="Trazado 117292" d="M-733.286,759.643V732.3a5.649,5.649,0,0,1,3.155-3.155h37.861c1.813.844,3.147,2.062,3.149,4.235.009,8.405.023,16.81-.009,25.215a4.132,4.132,0,0,1-4.291,4.2c-2.976.033-5.953.009-8.93.009h-4.441l.693,4.208a17.792,17.792,0,0,1,2.916.045c.516.088,1.293.572,1.36.976.147.886-.618,1.087-1.4,1.086q-7.945-.012-15.89,0c-.765,0-1.493-.109-1.512-1.034s.685-1.092,1.464-1.078c.949.017,1.9,0,2.87,0l.663-4.207c-4.2,0-8.221-.1-12.238.034C-730.447,762.916-732.264,762.04-733.286,759.643Zm42.067-5.314v-1.265q0-9.525,0-19.05c0-2.069-.692-2.766-2.743-2.767q-17.21,0-34.42,0c-2.136,0-2.8.674-2.8,2.84q0,9.525,0,19.05c0,.381.036.761.058,1.192Zm-39.877,2.2c-.317,3.622.168,4.164,3.606,4.164h27.711c2.1,0,4.2.024,6.3-.011a2.088,2.088,0,0,0,2.249-2.2c.029-.637.005-1.276.005-1.955Zm16.951,10.41h5.882c-.229-1.392-.445-2.7-.664-4.04h-4.557Z" transform="translate(733.286 -729.143)" fill="#12263f"/>
        <path id="Trazado_117293" data-name="Trazado 117293" d="M-651.157,837.73c-.727-.471-1.182-.986-1.493-.911-.411.1-.71.663-1.057,1.026.344.325.69.91,1.031.908C-652.271,838.75-651.869,838.241-651.157,837.73Z" transform="translate(674.753 -808.336)" fill="#12263f"/>
        <path id="Trazado_117294" data-name="Trazado 117294" d="M-625.422,758.511h-2.1c0,1.884-.007,3.75,0,5.616,0,.776.012,1.639-1,1.675-1.118.041-1.115-.864-1.111-1.689.009-1.83,0-3.661,0-5.558h-2.1c0,1.4,0,2.823,0,4.25a8.173,8.173,0,0,1-.068,2.089,1.5,1.5,0,0,1-1.057.871c-.281.034-.906-.543-.914-.858-.072-2.889-.051-5.781-.029-8.672a1.489,1.489,0,0,1,.325-.7c1.257-1.9,2.507-3.8,3.792-5.679.767-1.121,1.445-1.116,2.216.012,1.259,1.843,2.5,3.7,3.7,5.58a2.938,2.938,0,0,1,.426,1.458c.042,2.452.011,4.906.024,7.359,0,.759-.087,1.511-1.007,1.54-1.02.032-1.111-.761-1.1-1.569C-625.412,762.364-625.422,760.491-625.422,758.511Zm-6.028-2.2h5.74a11.787,11.787,0,0,0-1.838-2.642,2.14,2.14,0,0,0-2.072.014A11.734,11.734,0,0,0-631.45,756.313Z" transform="translate(660.127 -743.763)" fill="#12263f"/>
        <path id="Trazado_117295" data-name="Trazado 117295" d="M-698.1,759.045c-1.967,0-3.938.067-5.9-.047-.482-.028-.929-.646-1.391-.993.455-.354.9-1.005,1.367-1.015q5.965-.122,11.933,0c.47.009.928.646,1.391.992-.456.355-.9.988-1.37,1.015C-694.073,759.111-696.088,759.045-698.1,759.045Z" transform="translate(712.767 -749.58)" fill="#12263f"/>
        <path id="Trazado_117296" data-name="Trazado 117296" d="M-697.943,778.954c-1.923,0-3.847-.009-5.771,0-.8.005-1.6-.069-1.584-1.088.013-.924.753-1.027,1.515-1.025q5.836.016,11.672,0c.781,0,1.481.163,1.456,1.085s-.753,1.034-1.517,1.028C-694.1,778.944-696.02,778.954-697.943,778.954Z" transform="translate(712.701 -764.23)" fill="#12263f"/>
        <path id="Trazado_117297" data-name="Trazado 117297" d="M-700.577,798.816a27.5,27.5,0,0,1-3.4-.046,1.716,1.716,0,0,1-1.246-.961c-.16-.789.495-1.1,1.255-1.1,2.271,0,4.543-.051,6.81.047a1.657,1.657,0,0,1,1.243.959c.157.786-.5,1.1-1.256,1.1C-698.307,798.812-699.442,798.816-700.577,798.816Z" transform="translate(712.663 -778.834)" fill="#12263f"/>
        <path id="Trazado_117298" data-name="Trazado 117298" d="M-651.157,837.73c-.712.511-1.113,1.02-1.518,1.023-.342,0-.688-.583-1.031-.908.347-.364.646-.927,1.057-1.026C-652.339,836.743-651.884,837.259-651.157,837.73Z" transform="translate(674.753 -808.336)" fill="#12263f"/>
      </g>
    </g>
  </g>
</svg>
