<svg xmlns="http://www.w3.org/2000/svg" width="426.99" height="285.541" viewBox="0 0 426.99 285.541">
  <g id="Grupo_55381" data-name="Grupo 55381" transform="translate(-52.714 -41.945)">
    <g id="Background_Complete" data-name="Background Complete" transform="translate(79.75 146.006)">
      <g id="Grupo_54962" data-name="Grupo 54962" transform="translate(254.385 107.249)">
        <g id="Grupo_54961" data-name="Grupo 54961">
          <g id="Grupo_54960" data-name="Grupo 54960">
            <g id="Grupo_54959" data-name="Grupo 54959">
              <g id="Grupo_54958" data-name="Grupo 54958">
                <path id="Trazado_117136" data-name="Trazado 117136" d="M484.21,364.8l6.537,3.925-6.64,3.939-6.64,3.939.1-7.864.1-7.864Z" transform="translate(-477.467 -360.878)" fill="#e0e0e0"/>
              </g>
            </g>
          </g>
        </g>
      </g>
      <g id="Grupo_54994" data-name="Grupo 54994" transform="translate(0 141.77)">
        <g id="Grupo_54993" data-name="Grupo 54993">
          <g id="Grupo_54968" data-name="Grupo 54968" transform="translate(3.946 8.551)">
            <g id="Grupo_54967" data-name="Grupo 54967">
              <g id="Grupo_54966" data-name="Grupo 54966">
                <g id="Grupo_54965" data-name="Grupo 54965">
                  <g id="Grupo_54964" data-name="Grupo 54964">
                    <g id="Grupo_54963" data-name="Grupo 54963">
                      <path id="Trazado_117137" data-name="Trazado 117137" d="M99.476,425.886v30.585h94.056V425.886Z" transform="translate(-99.476 -425.886)" fill="#f5f5f5"/>
                    </g>
                  </g>
                </g>
              </g>
            </g>
          </g>
          <g id="Grupo_54974" data-name="Grupo 54974">
            <g id="Grupo_54973" data-name="Grupo 54973">
              <g id="Grupo_54972" data-name="Grupo 54972">
                <g id="Grupo_54971" data-name="Grupo 54971">
                  <g id="Grupo_54970" data-name="Grupo 54970">
                    <g id="Grupo_54969" data-name="Grupo 54969">
                      <path id="Trazado_117138" data-name="Trazado 117138" d="M93.52,412.981v8.551H194.811v-8.551H93.52Z" transform="translate(-93.52 -412.981)" fill="#e0e0e0"/>
                    </g>
                  </g>
                </g>
              </g>
            </g>
          </g>
          <g id="Grupo_54980" data-name="Grupo 54980" transform="translate(48.672)">
            <g id="Grupo_54979" data-name="Grupo 54979">
              <g id="Grupo_54978" data-name="Grupo 54978">
                <g id="Grupo_54977" data-name="Grupo 54977">
                  <g id="Grupo_54976" data-name="Grupo 54976">
                    <g id="Grupo_54975" data-name="Grupo 54975">
                      <path id="Trazado_117139" data-name="Trazado 117139" d="M168.955,452.116h47.357V421.531H219.6v-8.551H166.981v7.76Z" transform="translate(-166.981 -412.981)" fill="#e0e0e0"/>
                    </g>
                  </g>
                </g>
              </g>
            </g>
          </g>
          <g id="Grupo_54986" data-name="Grupo 54986" transform="translate(17.101 13.483)">
            <g id="Grupo_54985" data-name="Grupo 54985">
              <g id="Grupo_54984" data-name="Grupo 54984">
                <g id="Grupo_54983" data-name="Grupo 54983">
                  <g id="Grupo_54982" data-name="Grupo 54982">
                    <g id="Grupo_54981" data-name="Grupo 54981">
                      <rect id="Rectángulo_29453" data-name="Rectángulo 29453" width="19.074" height="4.604" fill="#e0e0e0"/>
                    </g>
                  </g>
                </g>
              </g>
            </g>
          </g>
          <g id="Grupo_54992" data-name="Grupo 54992" transform="translate(14.646 23.842)">
            <g id="Grupo_54991" data-name="Grupo 54991">
              <g id="Grupo_54990" data-name="Grupo 54990">
                <g id="Grupo_54989" data-name="Grupo 54989">
                  <g id="Grupo_54988" data-name="Grupo 54988">
                    <g id="Grupo_54987" data-name="Grupo 54987">
                      <rect id="Rectángulo_29454" data-name="Rectángulo 29454" width="24.493" height="9.722" fill="#fff"/>
                    </g>
                  </g>
                </g>
              </g>
            </g>
          </g>
        </g>
      </g>
      <g id="Grupo_55026" data-name="Grupo 55026" transform="translate(14.47 102.675)">
        <g id="Grupo_55025" data-name="Grupo 55025">
          <g id="Grupo_55000" data-name="Grupo 55000" transform="translate(3.946 8.551)">
            <g id="Grupo_54999" data-name="Grupo 54999">
              <g id="Grupo_54998" data-name="Grupo 54998">
                <g id="Grupo_54997" data-name="Grupo 54997">
                  <g id="Grupo_54996" data-name="Grupo 54996">
                    <g id="Grupo_54995" data-name="Grupo 54995">
                      <path id="Trazado_117140" data-name="Trazado 117140" d="M121.316,366.88v30.585h94.056V366.88Z" transform="translate(-121.316 -366.88)" fill="#f5f5f5"/>
                    </g>
                  </g>
                </g>
              </g>
            </g>
          </g>
          <g id="Grupo_55006" data-name="Grupo 55006">
            <g id="Grupo_55005" data-name="Grupo 55005">
              <g id="Grupo_55004" data-name="Grupo 55004">
                <g id="Grupo_55003" data-name="Grupo 55003">
                  <g id="Grupo_55002" data-name="Grupo 55002">
                    <g id="Grupo_55001" data-name="Grupo 55001">
                      <path id="Trazado_117141" data-name="Trazado 117141" d="M115.36,353.974v8.551H216.652v-8.551H115.36Z" transform="translate(-115.36 -353.974)" fill="#e0e0e0"/>
                    </g>
                  </g>
                </g>
              </g>
            </g>
          </g>
          <g id="Grupo_55012" data-name="Grupo 55012" transform="translate(48.672)">
            <g id="Grupo_55011" data-name="Grupo 55011">
              <g id="Grupo_55010" data-name="Grupo 55010">
                <g id="Grupo_55009" data-name="Grupo 55009">
                  <g id="Grupo_55008" data-name="Grupo 55008">
                    <g id="Grupo_55007" data-name="Grupo 55007">
                      <path id="Trazado_117142" data-name="Trazado 117142" d="M190.8,393.109h47.357V362.525h3.289v-8.551H188.822v7.76Z" transform="translate(-188.822 -353.974)" fill="#e0e0e0"/>
                    </g>
                  </g>
                </g>
              </g>
            </g>
          </g>
          <g id="Grupo_55018" data-name="Grupo 55018" transform="translate(17.101 13.483)">
            <g id="Grupo_55017" data-name="Grupo 55017">
              <g id="Grupo_55016" data-name="Grupo 55016">
                <g id="Grupo_55015" data-name="Grupo 55015">
                  <g id="Grupo_55014" data-name="Grupo 55014">
                    <g id="Grupo_55013" data-name="Grupo 55013">
                      <rect id="Rectángulo_29455" data-name="Rectángulo 29455" width="19.074" height="4.604" fill="#e0e0e0"/>
                    </g>
                  </g>
                </g>
              </g>
            </g>
          </g>
          <g id="Grupo_55024" data-name="Grupo 55024" transform="translate(14.646 23.842)">
            <g id="Grupo_55023" data-name="Grupo 55023">
              <g id="Grupo_55022" data-name="Grupo 55022">
                <g id="Grupo_55021" data-name="Grupo 55021">
                  <g id="Grupo_55020" data-name="Grupo 55020">
                    <g id="Grupo_55019" data-name="Grupo 55019">
                      <rect id="Rectángulo_29456" data-name="Rectángulo 29456" width="24.493" height="9.722" fill="#fff"/>
                    </g>
                  </g>
                </g>
              </g>
            </g>
          </g>
        </g>
      </g>
      <g id="Grupo_55053" data-name="Grupo 55053" transform="translate(263.795)">
        <g id="Grupo_55027" data-name="Grupo 55027">
          <rect id="Rectángulo_29457" data-name="Rectángulo 29457" width="121.185" height="75.108" rx="7.867" fill="#e0e0e0"/>
        </g>
        <g id="Grupo_55030" data-name="Grupo 55030" transform="translate(51.361 29.344)">
          <g id="Grupo_55028" data-name="Grupo 55028">
            <circle id="Elipse_4027" data-name="Elipse 4027" cx="9.231" cy="9.231" r="9.231" fill="#ebebeb"/>
          </g>
          <g id="Grupo_55029" data-name="Grupo 55029" transform="translate(7.007 6.137)">
            <path id="Trazado_117143" data-name="Trazado 117143" d="M579.765,258.353v-5.447a.347.347,0,0,1,.517-.3l4.868,2.744a.346.346,0,0,1,0,.6l-4.868,2.7A.347.347,0,0,1,579.765,258.353Z" transform="translate(-579.765 -252.559)" fill="#fff"/>
          </g>
        </g>
        <g id="Grupo_55031" data-name="Grupo 55031" transform="translate(5.967 65.419)">
          <path id="Trazado_117144" data-name="Trazado 117144" d="M501.637,298.8V299h-.913v-.154l.492-.467c.12-.115.142-.188.142-.256,0-.113-.078-.179-.231-.179a.346.346,0,0,0-.29.129l-.162-.124a.573.573,0,0,1,.47-.2c.27,0,.443.136.443.355a.5.5,0,0,1-.2.391l-.331.315Z" transform="translate(-500.676 -297.744)" fill="#fff"/>
          <path id="Trazado_117145" data-name="Trazado 117145" d="M502.312,298.343a.145.145,0,1,1,.291,0,.145.145,0,1,1-.291,0Zm0,.674a.145.145,0,1,1,.291,0,.145.145,0,1,1-.291,0Z" transform="translate(-501.228 -297.897)" fill="#fff"/>
          <path id="Trazado_117146" data-name="Trazado 117146" d="M503.369,297.77v1.238h-.23v-1.046h-.262v-.193Z" transform="translate(-501.419 -297.753)" fill="#fff"/>
          <path id="Trazado_117147" data-name="Trazado 117147" d="M505.083,298.727h-.219v.282h-.223v-.282h-.679v-.159l.61-.8h.246l-.575.762h.405v-.249h.216v.249h.219Z" transform="translate(-501.785 -297.753)" fill="#fff"/>
        </g>
        <g id="Grupo_55032" data-name="Grupo 55032" transform="translate(11.285 65.865)">
          <rect id="Rectángulo_29458" data-name="Rectángulo 29458" width="93.855" height="0.497" fill="#fff"/>
        </g>
        <g id="Grupo_55033" data-name="Grupo 55033" transform="translate(11.215 65.347)">
          <rect id="Rectángulo_29459" data-name="Rectángulo 29459" width="29.33" height="1.325" fill="#ebebeb"/>
        </g>
        <g id="Grupo_55034" data-name="Grupo 55034" transform="translate(38.636 64.686)">
          <path id="Trazado_117148" data-name="Trazado 117148" d="M552.839,298.065a1.428,1.428,0,1,1-1.428-1.428A1.428,1.428,0,0,1,552.839,298.065Z" transform="translate(-549.983 -296.637)" fill="#ebebeb"/>
        </g>
        <g id="Grupo_55035" data-name="Grupo 55035" transform="translate(106.516 65.227)">
          <path id="Trazado_117149" data-name="Trazado 117149" d="M653.425,298.327a.412.412,0,0,1-.453.4c-.338,0-.537-.217-.537-.615a.587.587,0,0,1,.607-.659.618.618,0,0,1,.325.08l-.085.173a.419.419,0,0,0-.235-.06c-.234,0-.38.145-.38.427h0a.421.421,0,0,1,.331-.129A.386.386,0,0,1,653.425,298.327Zm-.223.01c0-.129-.1-.21-.248-.21a.226.226,0,0,0-.251.212c0,.117.092.209.257.209A.214.214,0,0,0,653.2,298.337Z" transform="translate(-652.436 -297.454)" fill="#fff"/>
          <path id="Trazado_117150" data-name="Trazado 117150" d="M654.095,298.054a.145.145,0,1,1,.291,0,.145.145,0,1,1-.291,0Zm0,.674a.145.145,0,1,1,.291,0,.145.145,0,1,1-.291,0Z" transform="translate(-652.996 -297.607)" fill="#fff"/>
          <path id="Trazado_117151" data-name="Trazado 117151" d="M654.756,298.091c0-.407.223-.637.517-.637s.518.23.518.637-.223.637-.518.637S654.756,298.5,654.756,298.091Zm.8,0c0-.3-.117-.437-.286-.437s-.285.138-.285.437.117.437.285.437S655.56,298.39,655.56,298.091Z" transform="translate(-653.219 -297.454)" fill="#fff"/>
          <path id="Trazado_117152" data-name="Trazado 117152" d="M656.549,298.091c0-.407.223-.637.517-.637s.518.23.518.637-.223.637-.518.637S656.549,298.5,656.549,298.091Zm.8,0c0-.3-.117-.437-.286-.437s-.285.138-.285.437.117.437.285.437S657.353,298.39,657.353,298.091Z" transform="translate(-653.824 -297.454)" fill="#fff"/>
        </g>
        <g id="Grupo_55036" data-name="Grupo 55036" transform="translate(111.812 64.52)">
          <path id="Trazado_117153" data-name="Trazado 117153" d="M660.925,297.654h-.5v-1.268h1.266v.5h-.769Z" transform="translate(-660.428 -296.386)" fill="#fff"/>
        </g>
        <g id="Grupo_55037" data-name="Grupo 55037" transform="translate(111.81 66.167)">
          <path id="Trazado_117154" data-name="Trazado 117154" d="M661.695,300.138h-1.268v-1.266h.5v.769h.771Z" transform="translate(-660.426 -298.872)" fill="#fff"/>
        </g>
        <g id="Grupo_55038" data-name="Grupo 55038" transform="translate(113.812 66.164)">
          <path id="Trazado_117155" data-name="Trazado 117155" d="M664.713,300.137h-1.266v-.5h.769v-.771h.5Z" transform="translate(-663.448 -298.868)" fill="#fff"/>
        </g>
        <g id="Grupo_55039" data-name="Grupo 55039" transform="translate(113.811 64.52)">
          <path id="Trazado_117156" data-name="Trazado 117156" d="M664.714,297.652h-.5v-.769h-.771v-.5h1.268Z" transform="translate(-663.446 -296.386)" fill="#fff"/>
        </g>
        <g id="Grupo_55041" data-name="Grupo 55041" transform="translate(98.917 7.16)">
          <g id="Grupo_55040" data-name="Grupo 55040">
            <path id="Trazado_117157" data-name="Trazado 117157" d="M641.123,209.954a19.658,19.658,0,0,1,2.553-.139l.137,0v.142c.01.968.021,2.062.033,3.243l0,.419-.3-.3-.341-.34-.865-.869.233.006-1.358,1.194-.256.225,0-.337c.015-1,.048-1.835.076-2.4a3.85,3.85,0,0,1,.075-.845,6.612,6.612,0,0,1,.074.942c.028.573.062,1.364.076,2.3l-.251-.113,1.333-1.221.118-.108.115.115.87.865.339.341-.294.122c.012-1.181.023-2.275.033-3.243l.139.139A25.067,25.067,0,0,1,641.123,209.954Z" transform="translate(-640.967 -209.812)" fill="#fff"/>
          </g>
        </g>
        <g id="Grupo_55043" data-name="Grupo 55043" transform="translate(104.362 7.516)">
          <g id="Grupo_55042" data-name="Grupo 55042">
            <path id="Trazado_117158" data-name="Trazado 117158" d="M653.284,210.54a8.977,8.977,0,0,1-.618.789c-.419.519-1.047,1.3-1.813,2.159l-.285.321,0-.431c0-.508-.005-1.048-.008-1.609v-.157l.053.124-1.131-1.1-.295-.287.409.005c1.122.016,2.085.074,2.728.113a8.543,8.543,0,0,1,.962.073c-.034.015-.454.028-1.116.06s-1.546.078-2.576.081l.115-.281,1.144,1.088.053.05v.231c0,.561-.005,1.1-.008,1.609l-.287-.111c.716-.784,1.365-1.426,1.852-1.915S653.248,210.556,653.284,210.54Z" transform="translate(-649.185 -210.349)" fill="#fff"/>
          </g>
        </g>
        <g id="Grupo_55045" data-name="Grupo 55045" transform="translate(105.906 7.683)">
          <g id="Grupo_55044" data-name="Grupo 55044">
            <path id="Trazado_117159" data-name="Trazado 117159" d="M654.07,210.625c.036.088-.5.4-1.21.7s-1.307.464-1.344.377.5-.4,1.21-.7S654.032,210.538,654.07,210.625Z" transform="translate(-651.514 -210.602)" fill="#fff"/>
          </g>
        </g>
        <g id="Grupo_55047" data-name="Grupo 55047" transform="translate(111.081 7.269)">
          <g id="Grupo_55046" data-name="Grupo 55046">
            <path id="Trazado_117160" data-name="Trazado 117160" d="M661.281,210.01c0-.018.162-.058.458-.009a1.8,1.8,0,0,1,1.076.649,1.919,1.919,0,0,1,.313,1.837,1.957,1.957,0,0,1-3.694,0,1.92,1.92,0,0,1,.313-1.837,1.8,1.8,0,0,1,1.076-.649c.3-.049.459-.009.458.009s-.16.037-.425.121a1.815,1.815,0,0,0-.915.667,1.694,1.694,0,0,0-.209,1.582,1.653,1.653,0,0,0,3.1,0,1.694,1.694,0,0,0-.209-1.582,1.809,1.809,0,0,0-.915-.666C661.441,210.047,661.28,210.039,661.281,210.01Z" transform="translate(-659.325 -209.977)" fill="#fff"/>
          </g>
        </g>
        <g id="Grupo_55049" data-name="Grupo 55049" transform="translate(112.709 7.999)">
          <g id="Grupo_55048" data-name="Grupo 55048">
            <path id="Trazado_117161" data-name="Trazado 117161" d="M662.726,212.959c-.068.067-.466-.223-.892-.648l-.05-.05v-.082c0-.607.078-1.1.172-1.1s.173.492.173,1.1v.011l-.05-.122C662.5,212.494,662.793,212.892,662.726,212.959Z" transform="translate(-661.783 -211.079)" fill="#fff"/>
          </g>
        </g>
        <g id="Grupo_55051" data-name="Grupo 55051" transform="translate(13.51 9.587)">
          <g id="Grupo_55050" data-name="Grupo 55050">
            <path id="Trazado_117162" data-name="Trazado 117162" d="M567.692,213.649c0,.1-12.455.172-27.815.172s-27.817-.077-27.817-.172,12.452-.173,27.817-.173S567.692,213.554,567.692,213.649Z" transform="translate(-512.06 -213.476)" fill="#fff"/>
          </g>
        </g>
        <g id="Grupo_55052" data-name="Grupo 55052" transform="translate(6.497 7.567)">
          <path id="Trazado_117163" data-name="Trazado 117163" d="M505.862,212.62a2.194,2.194,0,1,1-2.194-2.194A2.194,2.194,0,0,1,505.862,212.62Z" transform="translate(-501.475 -210.426)" fill="#fff"/>
        </g>
      </g>
    </g>
    <g id="Character" transform="translate(120.459 93.07)">
      <g id="Grupo_55302" data-name="Grupo 55302" transform="translate(0 0)">
        <g id="Grupo_55054" data-name="Grupo 55054" transform="translate(122.697 37.521)">
          <path id="Trazado_117164" data-name="Trazado 117164" d="M378.75,188.341l-35.093-12.6c2.294,27.392,4.531,55.46-2.755,81.966-.788,2.866-1.48,6.461.8,8.367,1.365,1.142,3.313,1.18,5.092,1.126q5.463-.169,10.9-.8c3.856-.447,7.969-1.2,10.714-3.947,2.3-2.3,3.231-5.6,4.005-8.766A229.994,229.994,0,0,0,378.75,188.341Z" transform="translate(-340.152 -175.74)" fill="#263238"/>
        </g>
        <g id="Grupo_55111" data-name="Grupo 55111" transform="translate(98.083 74.959)">
          <g id="Grupo_55055" data-name="Grupo 55055" transform="translate(5.726 15.532)">
            <path id="Trazado_117165" data-name="Trazado 117165" d="M311.644,328.378l4.158-5.456,2.786-14.587,6.329-35.477s2.792-13.348,11.4-17.171l1.825,35.451L320.581,335.68Z" transform="translate(-311.644 -255.687)" fill="#26aab7"/>
          </g>
          <g id="Grupo_55056" data-name="Grupo 55056" transform="translate(0 2.04)">
            <path id="Trazado_117166" data-name="Trazado 117166" d="M346.461,239.183l-5.174,6.125-7.89,3.507s-17.368,33.185-17.833,33.5-3.257,9.769-1.706,17.833a139.876,139.876,0,0,1,2.481,26.207c-.155,7.6-10.08,32.566-10.7,38.3S303,392.569,303,392.569l87.772-.668a161.864,161.864,0,0,0-3.257-16.545s-.31-22.021-3.567-26.207c0,0,2.481-5.738,2.171-8.995s13.026-20.625,15.662-26.672,13.026-19.849,13.181-29.774-1.4-18.3-6.358-25.122-13.957-11.475-17.678-13.957l-7.289-9.3Z" transform="translate(-303.002 -235.324)" fill="#26aab7"/>
          </g>
          <g id="Grupo_55058" data-name="Grupo 55058" transform="translate(12.164 57.972)">
            <g id="Grupo_55057" data-name="Grupo 55057">
              <path id="Trazado_117167" data-name="Trazado 117167" d="M321.366,421.056a1.521,1.521,0,0,1,0-.266c.007-.191.016-.449.027-.777.03-.7.075-1.705.13-2.987.109-2.614.264-6.362.457-10.988.079-2.32.162-4.861.2-7.589.019-1.364.019-2.775-.029-4.222a19.218,19.218,0,0,1,.449-4.49,70.145,70.145,0,0,1,2.866-9.211,43.845,43.845,0,0,0,1.516-4.837,20.549,20.549,0,0,0,.34-2.561q.13-1.3.262-2.627c.354-3.525.7-6.967,1.032-10.291q.251-2.493.494-4.893c.144-1.6.366-3.161.415-4.7a120.4,120.4,0,0,1,2.209-16.168c.9-4.558,1.717-8.225,2.247-10.767.262-1.256.467-2.239.611-2.926l.164-.761a.133.133,0,1,1,.034.007c-.032.189-.075.443-.13.767l-.548,2.94c-.488,2.551-1.273,6.227-2.138,10.787a123.516,123.516,0,0,0-2.131,16.143c-.045,1.536-.264,3.1-.4,4.7q-.238,2.4-.485,4.9c-.331,3.326-.674,6.769-1.026,10.3q-.132,1.322-.263,2.628a21.028,21.028,0,0,1-.347,2.6,43.9,43.9,0,0,1-1.533,4.878,70.584,70.584,0,0,0-2.873,9.162,18.937,18.937,0,0,0-.457,4.413c.043,1.459.036,2.873.012,4.239-.047,2.732-.144,5.274-.239,7.594-.2,4.641-.409,8.393-.566,10.985-.084,1.281-.15,2.283-.2,2.985-.026.327-.046.584-.062.775A1.536,1.536,0,0,1,321.366,421.056Z" transform="translate(-321.361 -319.743)" fill="#263238"/>
            </g>
          </g>
          <g id="Grupo_55059" data-name="Grupo 55059" transform="translate(25.831)">
            <path id="Trazado_117168" data-name="Trazado 117168" d="M341.989,289.935a77.007,77.007,0,0,1,9.623-22.783,54.357,54.357,0,0,0,7.925-18.821l.1-12.975.557,1.672,33-4.783,1,4.764-22.046,19.953s-10.2,1.981-10.627,2.265S341.989,289.935,341.989,289.935Z" transform="translate(-341.989 -232.245)" fill="#efbda8"/>
          </g>
          <g id="Grupo_55061" data-name="Grupo 55061" transform="translate(46.303 11.344)">
            <g id="Grupo_55060" data-name="Grupo 55060">
              <path id="Trazado_117169" data-name="Trazado 117169" d="M414.512,249.367a3.26,3.26,0,0,1-.291.462c-.2.295-.5.731-.891,1.281-.784,1.106-1.946,2.687-3.425,4.608s-3.273,4.181-5.207,6.731c-.967,1.275-1.968,2.624-2.98,4.042a9.177,9.177,0,0,1-.83,1.057,2.013,2.013,0,0,1-1.268.661,2.489,2.489,0,0,1-1.384-.4c-.407-.237-.781-.492-1.174-.739l-4.541-2.917c-.733-.467-1.453-.945-2.158-1.379a3.564,3.564,0,0,0-2.218-.649,4.427,4.427,0,0,0-2.023.947c-.6.451-1.19.913-1.807,1.287a12.891,12.891,0,0,1-3.681,1.534,13.047,13.047,0,0,1-5.732.132,8.258,8.258,0,0,1-.879-.215,6.01,6.01,0,0,1-.631-.2,3.235,3.235,0,0,1-.5-.206,3.25,3.25,0,0,1,.527.14c.168.056.382.11.635.168s.544.128.877.183a13.356,13.356,0,0,0,5.647-.237,12.8,12.8,0,0,0,3.59-1.54c.6-.371,1.167-.822,1.778-1.289a4.7,4.7,0,0,1,2.167-1.018,3.866,3.866,0,0,1,2.424.681c.725.443,1.434.91,2.172,1.378l4.545,2.911c.781.465,1.528,1.126,2.347,1.083a1.672,1.672,0,0,0,1.05-.558,8.9,8.9,0,0,0,.8-1.015c1.018-1.417,2.027-2.765,3-4.037,1.951-2.544,3.769-4.785,5.267-6.688s2.693-3.457,3.509-4.538l.943-1.243A3.231,3.231,0,0,1,414.512,249.367Z" transform="translate(-372.888 -249.367)" fill="#263238"/>
            </g>
          </g>
          <g id="Grupo_55063" data-name="Grupo 55063" transform="translate(38.283 27.781)">
            <g id="Grupo_55062" data-name="Grupo 55062">
              <path id="Trazado_117170" data-name="Trazado 117170" d="M360.784,295.592a6.26,6.26,0,0,1,.493-.937c.335-.594.841-1.44,1.486-2.474,1.289-2.068,3.166-4.868,5.409-7.835s4.431-5.534,6.071-7.336c.819-.9,1.5-1.619,1.976-2.1a6.135,6.135,0,0,1,.769-.729,6.271,6.271,0,0,1-.671.82l-1.892,2.173c-1.59,1.841-3.738,4.424-5.979,7.383s-4.14,5.729-5.479,7.76l-1.577,2.411A6.176,6.176,0,0,1,360.784,295.592Z" transform="translate(-360.783 -274.176)" fill="#263238"/>
            </g>
          </g>
          <g id="Grupo_55065" data-name="Grupo 55065" transform="translate(34.936 51.744)">
            <g id="Grupo_55064" data-name="Grupo 55064">
              <path id="Trazado_117171" data-name="Trazado 117171" d="M361.929,310.343a.552.552,0,0,1,.129.019l.377.076,1.466.315c1.283.276,3.164.687,5.566,1.169,1.2.24,2.532.5,3.986.749.729.125,1.482.235,2.277.355s1.6.317,2.43.531c1.657.429,3.393.981,5.2,1.613.9.319,1.828.657,2.766,1.026.469.184.941.374,1.417.576l.714.315.358.172c.06.03.119.062.18.1a.827.827,0,0,1,.095.06l.05.036a.268.268,0,0,1,.081.151v.019l-.008.026L382.1,339.74l0,.015-.006.013a13.311,13.311,0,0,1-1.3,2.018,9.473,9.473,0,0,1-1.747,1.786,3.261,3.261,0,0,1-.808.437l-.821.277-1.631.55-3.217,1.084-6.21,2.091-.095.032-.073-.068-6.5-6.025-1.543-1.432a18.258,18.258,0,0,1-1.478-1.456,3.713,3.713,0,0,1-.88-1.863,6.66,6.66,0,0,1,.044-1.991c.884-5.076,1.887-9.523,2.793-13.209s1.743-6.6,2.334-8.592c.3-.981.538-1.745.7-2.28l.192-.586a1.038,1.038,0,0,1,.075-.2,1.177,1.177,0,0,1-.046.2l-.164.594-.649,2.3c-.557,2-1.356,4.923-2.237,8.61s-1.855,8.145-2.714,13.2a6.4,6.4,0,0,0-.038,1.9,3.409,3.409,0,0,0,.82,1.715,18.217,18.217,0,0,0,1.456,1.424l1.547,1.428,6.51,6.011-.168-.036,6.207-2.1,3.217-1.087,1.631-.551.821-.277a2.914,2.914,0,0,0,.714-.389,9.162,9.162,0,0,0,1.678-1.719,12.937,12.937,0,0,0,1.265-1.962l-.011.027c2.536-8.039,4.909-15.565,6.961-22.076l.129.045a88.1,88.1,0,0,0-10.762-3.812c-.822-.217-1.625-.406-2.405-.542s-1.549-.241-2.275-.372c-1.456-.26-2.785-.533-3.985-.786-2.4-.508-4.274-.945-5.551-1.251l-1.456-.358-.372-.1A.507.507,0,0,1,361.929,310.343Z" transform="translate(-355.731 -310.342)" fill="#263238"/>
            </g>
          </g>
          <g id="Grupo_55067" data-name="Grupo 55067" transform="translate(5.273 104.893)" opacity="0.3">
            <g id="Grupo_55066" data-name="Grupo 55066">
              <path id="Trazado_117172" data-name="Trazado 117172" d="M347.547,413.931c-7.674-1.16-18.331-4.362-27.077-6.187-3.124-.652-5.823-1.407-8.947-2.059l-.562,1.737a104.767,104.767,0,0,1,25.506,9.1c4.854,2.484,9.661,5.387,15.057,6.179,6.036.885,12.1-.973,17.917-2.808,3.282-1.036,6.72-2.167,9.06-4.69a19.079,19.079,0,0,0,3.457-6.351q3.436-8.992,6-18.286C377.537,402.252,363.032,416.273,347.547,413.931Z" transform="translate(-310.96 -390.561)"/>
            </g>
          </g>
          <g id="Grupo_55071" data-name="Grupo 55071" transform="translate(35.751 52.748)">
            <g id="Grupo_55068" data-name="Grupo 55068" transform="translate(0.172)">
              <path id="Trazado_117173" data-name="Trazado 117173" d="M399.331,311.858l-22.046,40.548a6.533,6.533,0,0,0-5.12,6.444,3.853,3.853,0,0,0-4.37.115c-1.664.989-6.35,2.307-8.938,3.689a3.093,3.093,0,0,0-1.525,3.551l6.841,24.863s8.316,0,9.055-2.062l11.4-3.567s7.366-1.951,10.2-6.847,19.835-30.229,19.835-30.229" transform="translate(-357.222 -311.858)" fill="#26aab7"/>
            </g>
            <g id="Grupo_55070" data-name="Grupo 55070">
              <g id="Grupo_55069" data-name="Grupo 55069">
                <path id="Trazado_117174" data-name="Trazado 117174" d="M414.576,348.363s-.048.088-.152.253l-.472.73-1.852,2.817-6.947,10.526-4.862,7.419c-1.746,2.694-3.642,5.582-5.536,8.719a12.887,12.887,0,0,1-4.049,3.973,23.523,23.523,0,0,1-5.4,2.567l-12.119,3.8.106-.1a1.856,1.856,0,0,1-.869.884,5.82,5.82,0,0,1-1.108.455,15.467,15.467,0,0,1-2.346.494,38.655,38.655,0,0,1-4.888.342l-.129,0-.034-.127-3.863-14.029q-1.043-3.791-2.062-7.5c-.331-1.244-.694-2.436-.993-3.7a3.267,3.267,0,0,1,1.626-3.349,66.315,66.315,0,0,1,6.81-2.746c.558-.215,1.109-.436,1.637-.686a13.449,13.449,0,0,1,1.61-.776,3.879,3.879,0,0,1,3.49.393l-.262.127a6.592,6.592,0,0,1,1.482-4.3,7.218,7.218,0,0,1,3.769-2.292l-.1.078c6.585-12.059,12.114-22.183,16-29.3l4.538-8.257,1.21-2.176.316-.556c.072-.124.114-.184.114-.184s-.027.068-.092.2l-.295.567-1.169,2.2-4.462,8.3L377.332,352.48l-.031.058-.073.019a6.927,6.927,0,0,0-3.589,2.194,6.279,6.279,0,0,0-1.4,4.1l0,.307-.259-.182a3.567,3.567,0,0,0-3.182-.335,13.475,13.475,0,0,0-1.572.763c-.543.259-1.1.482-1.66.7a66.763,66.763,0,0,0-6.765,2.732,2.926,2.926,0,0,0-1.454,3c.284,1.189.658,2.434.987,3.662l2.063,7.5,3.858,14.031-.164-.125a38.49,38.49,0,0,0,4.841-.335,15.109,15.109,0,0,0,2.294-.48,5.564,5.564,0,0,0,1.044-.425,1.553,1.553,0,0,0,.72-.707l.032-.079.075-.024,12.121-3.777a23.284,23.284,0,0,0,5.33-2.521,12.632,12.632,0,0,0,3.969-3.87c1.906-3.137,3.812-6.021,5.569-8.708l4.9-7.4,7.028-10.474,1.9-2.786.5-.714C414.512,348.44,414.576,348.363,414.576,348.363Z" transform="translate(-356.962 -311.858)" fill="#263238"/>
              </g>
            </g>
          </g>
          <g id="Grupo_55073" data-name="Grupo 55073" transform="translate(70.956 67.474)">
            <g id="Grupo_55072" data-name="Grupo 55072">
              <path id="Trazado_117175" data-name="Trazado 117175" d="M420.571,372.809a1.794,1.794,0,0,1-.125-.39c-.076-.295-.172-.671-.292-1.133-.254-1.029-.6-2.444-1.03-4.174-.869-3.525-2.1-8.386-3.541-13.732s-2.838-10.166-3.863-13.648c-.5-1.709-.915-3.107-1.214-4.124-.13-.46-.237-.832-.319-1.125a1.749,1.749,0,0,1-.089-.4,1.868,1.868,0,0,1,.155.378l.381,1.106c.325.962.777,2.361,1.319,4.094,1.086,3.466,2.514,8.277,3.962,13.629s2.637,10.225,3.447,13.766c.4,1.77.72,3.205.924,4.2.093.468.169.849.228,1.148A1.873,1.873,0,0,1,420.571,372.809Z" transform="translate(-410.096 -334.084)" fill="#fff"/>
            </g>
          </g>
          <g id="Grupo_55075" data-name="Grupo 55075" transform="translate(65.503 75.907)">
            <g id="Grupo_55074" data-name="Grupo 55074">
              <path id="Trazado_117176" data-name="Trazado 117176" d="M409.754,389.78c-.093.017-1.934-9.588-4.11-21.451s-3.866-21.5-3.773-21.516,1.935,9.586,4.112,21.454S409.848,389.763,409.754,389.78Z" transform="translate(-401.867 -346.812)" fill="#fff"/>
            </g>
          </g>
          <g id="Grupo_55077" data-name="Grupo 55077" transform="translate(22.474 62.595)">
            <g id="Grupo_55076" data-name="Grupo 55076">
              <path id="Trazado_117177" data-name="Trazado 117177" d="M351.548,326.723c.054.079-3.177,2.369-7.215,5.116s-7.356,4.91-7.409,4.831,3.176-2.369,7.215-5.117S351.495,326.644,351.548,326.723Z" transform="translate(-336.923 -326.721)" fill="#fff"/>
            </g>
          </g>
          <g id="Grupo_55079" data-name="Grupo 55079" transform="translate(21.231 71.249)">
            <g id="Grupo_55078" data-name="Grupo 55078">
              <path id="Trazado_117178" data-name="Trazado 117178" d="M348.768,339.784a2.643,2.643,0,0,1-.476.5c-.321.307-.8.74-1.391,1.266-1.189,1.053-2.864,2.471-4.76,3.98s-3.657,2.821-4.95,3.743c-.647.461-1.175.827-1.546,1.071a2.684,2.684,0,0,1-.6.351,2.676,2.676,0,0,1,.517-.46l1.48-1.158c1.254-.971,2.987-2.312,4.881-3.818s3.588-2.892,4.817-3.9l1.461-1.182A2.726,2.726,0,0,1,348.768,339.784Z" transform="translate(-335.047 -339.783)" fill="#fff"/>
            </g>
          </g>
          <g id="Grupo_55081" data-name="Grupo 55081" transform="translate(10.531 58.474)">
            <g id="Grupo_55080" data-name="Grupo 55080">
              <path id="Trazado_117179" data-name="Trazado 117179" d="M328.913,334.215c-.077.056-2.381-2.968-5.147-6.755s-4.945-6.9-4.868-6.959,2.381,2.968,5.147,6.755S328.991,334.159,328.913,334.215Z" transform="translate(-318.896 -320.501)" fill="#fff"/>
            </g>
          </g>
          <g id="Grupo_55083" data-name="Grupo 55083" transform="translate(12.575 75.728)">
            <g id="Grupo_55082" data-name="Grupo 55082">
              <path id="Trazado_117180" data-name="Trazado 117180" d="M328.8,354.617a6.319,6.319,0,0,1-1.176-1.018c-.688-.669-1.6-1.631-2.548-2.75s-1.741-2.183-2.284-2.974a6.293,6.293,0,0,1-.806-1.33,7.775,7.775,0,0,1,1,1.185c.592.75,1.413,1.782,2.352,2.9s1.819,2.094,2.46,2.8A7.8,7.8,0,0,1,328.8,354.617Z" transform="translate(-321.981 -346.543)" fill="#fff"/>
            </g>
          </g>
          <g id="Grupo_55085" data-name="Grupo 55085" transform="translate(68.939 13.58)">
            <g id="Grupo_55084" data-name="Grupo 55084">
              <path id="Trazado_117181" data-name="Trazado 117181" d="M417.764,260.767a12.461,12.461,0,0,1-1.627-1.1l-3.831-2.775c-1.49-1.093-2.826-2.1-3.775-2.858a9.892,9.892,0,0,1-1.479-1.293,12.538,12.538,0,0,1,1.626,1.1l3.832,2.775c1.489,1.093,2.826,2.1,3.774,2.858A9.99,9.99,0,0,1,417.764,260.767Z" transform="translate(-407.052 -252.741)" fill="#fff"/>
            </g>
          </g>
          <g id="Grupo_55087" data-name="Grupo 55087" transform="translate(73.317 9.661)">
            <g id="Grupo_55086" data-name="Grupo 55086">
              <path id="Trazado_117182" data-name="Trazado 117182" d="M423.016,254.59a107.123,107.123,0,0,1-9.353-7.761,107.177,107.177,0,0,1,9.353,7.761Z" transform="translate(-413.661 -246.827)" fill="#fff"/>
            </g>
          </g>
          <g id="Grupo_55089" data-name="Grupo 55089" transform="translate(45.215 59.435)">
            <g id="Grupo_55088" data-name="Grupo 55088">
              <path id="Trazado_117183" data-name="Trazado 117183" d="M376.869,321.951c.093.018-1.089,6.6-2.64,14.7s-2.885,14.653-2.979,14.635,1.088-6.6,2.64-14.7S376.775,321.933,376.869,321.951Z" transform="translate(-371.245 -321.951)" fill="#fff"/>
            </g>
          </g>
          <g id="Grupo_55091" data-name="Grupo 55091" transform="translate(56.371 97.532)">
            <g id="Grupo_55090" data-name="Grupo 55090">
              <path id="Trazado_117184" data-name="Trazado 117184" d="M399.327,390.691a2.262,2.262,0,0,1-.575-.27c-.362-.19-.868-.494-1.479-.894a28.54,28.54,0,0,1-8.023-8.022c-.4-.61-.7-1.117-.894-1.478a2.248,2.248,0,0,1-.27-.575c.048-.028.519.739,1.365,1.915a34.335,34.335,0,0,0,7.961,7.959C398.588,390.172,399.356,390.642,399.327,390.691Z" transform="translate(-388.083 -379.452)" fill="#263238"/>
            </g>
          </g>
          <g id="Grupo_55093" data-name="Grupo 55093" transform="translate(55.555 94.69)">
            <g id="Grupo_55092" data-name="Grupo 55092">
              <path id="Trazado_117185" data-name="Trazado 117185" d="M399.635,376.523a7.666,7.666,0,0,1-1.881.343,22.333,22.333,0,0,1-9.134-.968,7.652,7.652,0,0,1-1.767-.729,16.524,16.524,0,0,1,1.837.5,27.98,27.98,0,0,0,9.044.959A16.668,16.668,0,0,1,399.635,376.523Z" transform="translate(-386.853 -375.162)" fill="#263238"/>
            </g>
          </g>
          <g id="Grupo_55095" data-name="Grupo 55095" transform="translate(10.19 33.067)">
            <g id="Grupo_55094" data-name="Grupo 55094">
              <path id="Trazado_117186" data-name="Trazado 117186" d="M329.153,282.154a.627.627,0,0,1-.048.158l-.174.45c-.149.4-.4.97-.739,1.7-.676,1.465-1.81,3.508-3.278,5.983a54.609,54.609,0,0,0-4.56,8.974l-.241.672-.194.7q-.192.7-.388,1.416a9.944,9.944,0,0,0-.308,1.466l-.252,1.509c-.121,1.021-.184,2.069-.246,3.129q0,.8,0,1.608a16.136,16.136,0,0,0,.051,1.628,103.215,103.215,0,0,0,1.7,12.235,87.667,87.667,0,0,1,1.363,10.028c.134,1.438.067,2.747.087,3.891-.089,1.144-.144,2.13-.244,2.929-.137.773-.246,1.383-.325,1.829l-.093.473a.6.6,0,0,1-.044.159.641.641,0,0,1,.009-.166l.059-.479q.1-.67.26-1.831c.079-.8.115-1.782.185-2.919-.038-1.14.011-2.439-.138-3.87a92.115,92.115,0,0,0-1.432-9.988,99.565,99.565,0,0,1-1.732-12.272,16.032,16.032,0,0,1-.051-1.642q0-.817,0-1.623c.064-1.071.129-2.131.254-3.163q.131-.77.26-1.526a10.016,10.016,0,0,1,.316-1.483q.2-.724.4-1.432l.2-.7c.083-.228.164-.454.246-.678a53.055,53.055,0,0,1,4.648-8.99c1.494-2.459,2.656-4.475,3.367-5.917.354-.721.626-1.283.8-1.672l.205-.437A.55.55,0,0,1,329.153,282.154Z" transform="translate(-318.382 -282.154)" fill="#263238"/>
            </g>
          </g>
          <g id="Grupo_55097" data-name="Grupo 55097" transform="translate(25.692 5.899)">
            <g id="Grupo_55096" data-name="Grupo 55096">
              <path id="Trazado_117187" data-name="Trazado 117187" d="M359.546,241.149a.576.576,0,0,1-.082.138l-.266.388c-.235.341-.61.824-1.108,1.436-1,1.224-2.516,2.934-4.428,5.036l-3.117,3.459c-1.106,1.259-2.3,2.61-3.409,4.133a26.876,26.876,0,0,0-4.287,11.47l-.325-.1a19.208,19.208,0,0,1,1.862-2.877c.357-.488.712-.971,1.046-1.46q.25-.367.48-.741l.219-.377.1-.192.049-.1.025-.048a.287.287,0,0,1,.04-.064.2.2,0,0,1,.182-.063.2.2,0,0,1,.145.108l.015.035.02.053.04.106.079.212a2.9,2.9,0,0,1,.138.428,6.241,6.241,0,0,1,.192.871,9.49,9.49,0,0,1,.113,1.748,35.035,35.035,0,0,1-1.087,6.5c-.776,4.137-2.19,7.67-3.033,10.711a27.606,27.606,0,0,0-1.23,7.352,18.8,18.8,0,0,0,.093,2.031l.06.526a.765.765,0,0,1,.011.182,12.027,12.027,0,0,1-.3-2.738,26.566,26.566,0,0,1,1.128-7.419c.819-3.068,2.2-6.594,2.958-10.711a35.238,35.238,0,0,0,1.06-6.443,9.143,9.143,0,0,0-.112-1.688,5.977,5.977,0,0,0-.185-.832,2.64,2.64,0,0,0-.131-.406l-.076-.2-.038-.1-.019-.05,0-.013c.056-.029-.132.046.124-.067h0v0c-.112-.054.16.076.128.068l-.006.013-.026.05-.052.1-.1.2-.226.391q-.235.385-.489.757c-.339.5-.7.982-1.052,1.47a19,19,0,0,0-1.829,2.819l-.494,1.032.168-1.13a26.944,26.944,0,0,1,4.377-11.6c1.136-1.536,2.335-2.881,3.454-4.135s2.184-2.393,3.15-3.435c1.934-2.08,3.478-3.764,4.5-4.96.512-.6.9-1.066,1.153-1.394l.292-.368C359.505,241.186,359.542,241.146,359.546,241.149Z" transform="translate(-341.78 -241.149)" fill="#263238"/>
            </g>
          </g>
          <g id="Grupo_55098" data-name="Grupo 55098" transform="translate(25.831 57.69)">
            <path id="Trazado_117188" data-name="Trazado 117188" d="M341.989,319.318" transform="translate(-341.989 -319.318)" fill="#263238"/>
          </g>
          <g id="Grupo_55100" data-name="Grupo 55100" transform="translate(44.832 100.458)">
            <g id="Grupo_55099" data-name="Grupo 55099">
              <path id="Trazado_117189" data-name="Trazado 117189" d="M370.669,383.869c.009-.008.089.07.233.226l.616.694a13.414,13.414,0,0,1,.924,1.142c.339.462.751.97,1.13,1.586.4.6.829,1.266,1.229,2.016.437.729.816,1.555,1.232,2.414a33.186,33.186,0,0,1,2.943,12.007c.028.955.074,1.862.025,2.711-.008.85-.082,1.638-.158,2.355-.05.721-.182,1.362-.268,1.928a13.436,13.436,0,0,1-.29,1.44l-.225.9a.163.163,0,1,1-.068-.016c.044-.248.1-.549.162-.911.079-.393.168-.876.231-1.443s.182-1.2.216-1.921c.06-.714.119-1.5.115-2.339.037-.842-.019-1.741-.056-2.686a34.424,34.424,0,0,0-2.916-11.895c-.4-.855-.771-1.678-1.193-2.407-.386-.749-.8-1.415-1.183-2.021-.362-.619-.758-1.134-1.08-1.6s-.62-.86-.873-1.172l-.565-.733A1.2,1.2,0,0,1,370.669,383.869Z" transform="translate(-370.668 -383.868)" fill="#263238"/>
            </g>
          </g>
          <g id="Grupo_55102" data-name="Grupo 55102" transform="translate(39.999 57.495)">
            <g id="Grupo_55101" data-name="Grupo 55101">
              <path id="Trazado_117190" data-name="Trazado 117190" d="M389.245,325.9a6.222,6.222,0,0,1-1-.337l-2.7-.992c-2.282-.823-5.466-1.876-9.043-2.828s-6.866-1.612-9.257-2.031l-2.835-.476a6.155,6.155,0,0,1-1.037-.2,6.231,6.231,0,0,1,1.055.071c.677.065,1.654.189,2.857.369a87.593,87.593,0,0,1,18.345,4.871c1.134.441,2.043.817,2.663,1.1A6.284,6.284,0,0,1,389.245,325.9Z" transform="translate(-363.373 -319.022)" fill="#263238"/>
            </g>
          </g>
          <g id="Grupo_55104" data-name="Grupo 55104" transform="translate(50.867 99.024)" opacity="0.3">
            <g id="Grupo_55103" data-name="Grupo 55103">
              <path id="Trazado_117191" data-name="Trazado 117191" d="M391.194,393.778a9.062,9.062,0,0,0-1.869-2.388l-9.516-9.686-.032.716c2.119,1.436,2.569,4.349,3.176,6.836s1.137,5.143,2.87,7.027a4.584,4.584,0,0,0,2.629,1.521,2.779,2.779,0,0,0,2.714-1.108A3.071,3.071,0,0,0,391.194,393.778Z" transform="translate(-379.776 -381.704)"/>
            </g>
          </g>
          <g id="Grupo_55106" data-name="Grupo 55106" transform="translate(35.58 79.838)" opacity="0.3">
            <g id="Grupo_55105" data-name="Grupo 55105">
              <path id="Trazado_117192" data-name="Trazado 117192" d="M370.331,361.032a4.38,4.38,0,0,1-5.713-1.066l-7.914-7.22c2.265,3.335,4.08,6.71,6.345,10.044a5.263,5.263,0,0,0,2.3,2.218,4.828,4.828,0,0,0,3.319-.361,28.148,28.148,0,0,0,10.089-6.664Z" transform="translate(-356.704 -352.745)"/>
            </g>
          </g>
          <g id="Grupo_55108" data-name="Grupo 55108" transform="translate(39.263 19.591)" opacity="0.3">
            <g id="Grupo_55107" data-name="Grupo 55107">
              <path id="Trazado_117193" data-name="Trazado 117193" d="M362.262,289.429c7.4-3.551,10.065-13.391,17.408-17.058a13.226,13.226,0,0,1,13.343,1.073c1.271.915,2.683,2.135,4.189,1.7,1.139-.326,1.8-1.483,2.334-2.538l5.512-10.8-7.229,8.516a3.963,3.963,0,0,1-1.874,1.461c-1.456.374-2.509-1.257-3.855-1.928-4.193-2.091-7.129-4.719-9.467-2.954,0,0-4.07,2.8-5.705,3.1l-14.658,19.143" transform="translate(-362.262 -261.814)"/>
            </g>
          </g>
          <g id="Grupo_55110" data-name="Grupo 55110" transform="translate(26.443 7.24)" opacity="0.3">
            <g id="Grupo_55109" data-name="Grupo 55109">
              <path id="Trazado_117194" data-name="Trazado 117194" d="M343.133,290.343a17.278,17.278,0,0,1,1.46-9.893c1.346-3.033,3.034-5.944,3.864-9.156a18.21,18.21,0,0,0,.269-7.862,9.4,9.4,0,0,1-.318-3.671,6.9,6.9,0,0,1,1-2.149,47.787,47.787,0,0,1,5.773-7.483l4.621-6.956s.2,8.079.049,8.846a52.31,52.31,0,0,1-2.017,7.044,56.106,56.106,0,0,1-5.249,10.737,85.144,85.144,0,0,0-6.513,12.231Z" transform="translate(-342.913 -243.173)"/>
            </g>
          </g>
        </g>
        <g id="Grupo_55281" data-name="Grupo 55281" transform="translate(125.533)">
          <g id="Grupo_55272" data-name="Grupo 55272" transform="translate(0 0.04)">
            <g id="Grupo_55237" data-name="Grupo 55237">
              <g id="Grupo_55122" data-name="Grupo 55122" transform="translate(1.402 2.821)">
                <g id="Grupo_55121" data-name="Grupo 55121">
                  <g id="Grupo_55120" data-name="Grupo 55120">
                    <g id="Grupo_55119" data-name="Grupo 55119">
                      <g id="Grupo_55118" data-name="Grupo 55118">
                        <g id="Grupo_55117" data-name="Grupo 55117">
                          <g id="Grupo_55116" data-name="Grupo 55116">
                            <g id="Grupo_55115" data-name="Grupo 55115">
                              <g id="Grupo_55114" data-name="Grupo 55114">
                                <g id="Grupo_55113" data-name="Grupo 55113">
                                  <g id="Grupo_55112" data-name="Grupo 55112">
                                    <path id="Trazado_117195" data-name="Trazado 117195" d="M373.684,220.242c-9.39-2.216-12.274-6.885-12.386-15.143l-.142-10.5s-10.393-.54-12.816-16.02a153.945,153.945,0,0,1-1.58-30.452c.606-9.282,10.25-25.651,19.5-24.652l25.4,12.357a5.444,5.444,0,0,1,4.858,5.532h0l-1.972,60.007" transform="translate(-346.549 -123.426)" fill="#efbda8"/>
                                  </g>
                                </g>
                              </g>
                            </g>
                          </g>
                        </g>
                      </g>
                    </g>
                  </g>
                </g>
              </g>
              <g id="Grupo_55134" data-name="Grupo 55134" transform="translate(5.582 37.103)">
                <g id="Grupo_55133" data-name="Grupo 55133">
                  <g id="Grupo_55132" data-name="Grupo 55132">
                    <g id="Grupo_55131" data-name="Grupo 55131">
                      <g id="Grupo_55130" data-name="Grupo 55130">
                        <g id="Grupo_55129" data-name="Grupo 55129">
                          <g id="Grupo_55128" data-name="Grupo 55128">
                            <g id="Grupo_55127" data-name="Grupo 55127">
                              <g id="Grupo_55126" data-name="Grupo 55126">
                                <g id="Grupo_55125" data-name="Grupo 55125">
                                  <g id="Grupo_55124" data-name="Grupo 55124">
                                    <g id="Grupo_55123" data-name="Grupo 55123">
                                      <path id="Trazado_117196" data-name="Trazado 117196" d="M352.858,176.959a1.985,1.985,0,0,0,1.909,2.006,1.9,1.9,0,0,0,2.049-1.785,1.985,1.985,0,0,0-1.907-2.008A1.9,1.9,0,0,0,352.858,176.959Z" transform="translate(-352.857 -175.169)" fill="#263238"/>
                                    </g>
                                  </g>
                                </g>
                              </g>
                            </g>
                          </g>
                        </g>
                      </g>
                    </g>
                  </g>
                </g>
              </g>
              <g id="Grupo_55147" data-name="Grupo 55147" transform="translate(4.325 34.181)">
                <g id="Grupo_55146" data-name="Grupo 55146">
                  <g id="Grupo_55145" data-name="Grupo 55145">
                    <g id="Grupo_55144" data-name="Grupo 55144">
                      <g id="Grupo_55143" data-name="Grupo 55143">
                        <g id="Grupo_55142" data-name="Grupo 55142">
                          <g id="Grupo_55141" data-name="Grupo 55141">
                            <g id="Grupo_55140" data-name="Grupo 55140">
                              <g id="Grupo_55139" data-name="Grupo 55139">
                                <g id="Grupo_55138" data-name="Grupo 55138">
                                  <g id="Grupo_55137" data-name="Grupo 55137">
                                    <g id="Grupo_55136" data-name="Grupo 55136">
                                      <g id="Grupo_55135" data-name="Grupo 55135">
                                        <path id="Trazado_117197" data-name="Trazado 117197" d="M350.984,171.194c.215.191,1.777-.022,3.849.489,2.073.494,3.493,1.43,3.742,1.352.121-.032-.08-.331-.7-.749a9.546,9.546,0,0,0-2.966-1.246,8.5,8.5,0,0,0-3.093-.223C351.137,170.919,350.878,171.106,350.984,171.194Z" transform="translate(-350.961 -170.759)" fill="#263238"/>
                                      </g>
                                    </g>
                                  </g>
                                </g>
                              </g>
                            </g>
                          </g>
                        </g>
                      </g>
                    </g>
                  </g>
                </g>
              </g>
              <g id="Grupo_55159" data-name="Grupo 55159" transform="translate(25.461 37.699)">
                <g id="Grupo_55158" data-name="Grupo 55158">
                  <g id="Grupo_55157" data-name="Grupo 55157">
                    <g id="Grupo_55156" data-name="Grupo 55156">
                      <g id="Grupo_55155" data-name="Grupo 55155">
                        <g id="Grupo_55154" data-name="Grupo 55154">
                          <g id="Grupo_55153" data-name="Grupo 55153">
                            <g id="Grupo_55152" data-name="Grupo 55152">
                              <g id="Grupo_55151" data-name="Grupo 55151">
                                <g id="Grupo_55150" data-name="Grupo 55150">
                                  <g id="Grupo_55149" data-name="Grupo 55149">
                                    <g id="Grupo_55148" data-name="Grupo 55148">
                                      <path id="Trazado_117198" data-name="Trazado 117198" d="M382.863,177.857a1.985,1.985,0,0,0,1.909,2.007,1.9,1.9,0,0,0,2.049-1.785,1.984,1.984,0,0,0-1.907-2.008A1.9,1.9,0,0,0,382.863,177.857Z" transform="translate(-382.862 -176.068)" fill="#263238"/>
                                    </g>
                                  </g>
                                </g>
                              </g>
                            </g>
                          </g>
                        </g>
                      </g>
                    </g>
                  </g>
                </g>
              </g>
              <g id="Grupo_55172" data-name="Grupo 55172" transform="translate(25.33 33.647)">
                <g id="Grupo_55171" data-name="Grupo 55171">
                  <g id="Grupo_55170" data-name="Grupo 55170">
                    <g id="Grupo_55169" data-name="Grupo 55169">
                      <g id="Grupo_55168" data-name="Grupo 55168">
                        <g id="Grupo_55167" data-name="Grupo 55167">
                          <g id="Grupo_55166" data-name="Grupo 55166">
                            <g id="Grupo_55165" data-name="Grupo 55165">
                              <g id="Grupo_55164" data-name="Grupo 55164">
                                <g id="Grupo_55163" data-name="Grupo 55163">
                                  <g id="Grupo_55162" data-name="Grupo 55162">
                                    <g id="Grupo_55161" data-name="Grupo 55161">
                                      <g id="Grupo_55160" data-name="Grupo 55160">
                                        <path id="Trazado_117199" data-name="Trazado 117199" d="M382.717,172.585c.307.077,1.68-.974,3.922-1.569,2.234-.612,4.085-.43,4.279-.643.1-.1-.25-.292-1.062-.381a9.871,9.871,0,0,0-3.485.333,8.866,8.866,0,0,0-3.06,1.431C382.717,172.225,382.569,172.553,382.717,172.585Z" transform="translate(-382.664 -169.952)" fill="#263238"/>
                                      </g>
                                    </g>
                                  </g>
                                </g>
                              </g>
                            </g>
                          </g>
                        </g>
                      </g>
                    </g>
                  </g>
                </g>
              </g>
              <g id="Grupo_55184" data-name="Grupo 55184" transform="translate(12.103 32.56)">
                <g id="Grupo_55183" data-name="Grupo 55183">
                  <g id="Grupo_55182" data-name="Grupo 55182">
                    <g id="Grupo_55181" data-name="Grupo 55181">
                      <g id="Grupo_55180" data-name="Grupo 55180">
                        <g id="Grupo_55179" data-name="Grupo 55179">
                          <g id="Grupo_55178" data-name="Grupo 55178">
                            <g id="Grupo_55177" data-name="Grupo 55177">
                              <g id="Grupo_55176" data-name="Grupo 55176">
                                <g id="Grupo_55175" data-name="Grupo 55175">
                                  <g id="Grupo_55174" data-name="Grupo 55174">
                                    <g id="Grupo_55173" data-name="Grupo 55173">
                                      <path id="Trazado_117200" data-name="Trazado 117200" d="M368.137,186.1a14.14,14.14,0,0,0-3.467-.634c-.545-.057-1.061-.166-1.152-.539a2.781,2.781,0,0,1,.368-1.616q.774-1.978,1.622-4.148c2.253-5.907,3.885-10.765,3.646-10.853s-2.259,4.627-4.511,10.534q-.813,2.185-1.554,4.174a3.155,3.155,0,0,0-.288,2.139,1.37,1.37,0,0,0,.9.8,3.687,3.687,0,0,0,.926.13A13.883,13.883,0,0,0,368.137,186.1Z" transform="translate(-362.7 -168.311)" fill="#263238"/>
                                    </g>
                                  </g>
                                </g>
                              </g>
                            </g>
                          </g>
                        </g>
                      </g>
                    </g>
                  </g>
                </g>
              </g>
              <g id="Grupo_55195" data-name="Grupo 55195" transform="translate(16.009 68.658)">
                <g id="Grupo_55194" data-name="Grupo 55194">
                  <g id="Grupo_55193" data-name="Grupo 55193">
                    <g id="Grupo_55192" data-name="Grupo 55192">
                      <g id="Grupo_55191" data-name="Grupo 55191">
                        <g id="Grupo_55190" data-name="Grupo 55190">
                          <g id="Grupo_55189" data-name="Grupo 55189">
                            <g id="Grupo_55188" data-name="Grupo 55188">
                              <g id="Grupo_55187" data-name="Grupo 55187">
                                <g id="Grupo_55186" data-name="Grupo 55186">
                                  <g id="Grupo_55185" data-name="Grupo 55185">
                                    <path id="Trazado_117201" data-name="Trazado 117201" d="M368.6,228.277a39.366,39.366,0,0,0,20.736-5.482s-5.252,10.91-20.736,9.428Z" transform="translate(-368.595 -222.795)" fill="#d1967c"/>
                                  </g>
                                </g>
                              </g>
                            </g>
                          </g>
                        </g>
                      </g>
                    </g>
                  </g>
                </g>
              </g>
              <g id="Grupo_55206" data-name="Grupo 55206" transform="translate(17.542 52.827)">
                <g id="Grupo_55205" data-name="Grupo 55205">
                  <g id="Grupo_55204" data-name="Grupo 55204">
                    <g id="Grupo_55203" data-name="Grupo 55203">
                      <g id="Grupo_55202" data-name="Grupo 55202">
                        <g id="Grupo_55201" data-name="Grupo 55201">
                          <g id="Grupo_55200" data-name="Grupo 55200">
                            <g id="Grupo_55199" data-name="Grupo 55199">
                              <g id="Grupo_55198" data-name="Grupo 55198">
                                <g id="Grupo_55197" data-name="Grupo 55197">
                                  <g id="Grupo_55196" data-name="Grupo 55196">
                                    <path id="Trazado_117202" data-name="Trazado 117202" d="M371.25,201.617a5.7,5.7,0,0,1,4.1-2.712,2.445,2.445,0,0,1,2.406,1.341,3.872,3.872,0,0,1-.344,3.551,3.269,3.269,0,0,1-3.237,1.565,5.471,5.471,0,0,1-2.672-1.741,1.912,1.912,0,0,1-.541-.766,1.315,1.315,0,0,1,.169-1.12" transform="translate(-370.909 -198.901)" fill="#d1967c"/>
                                  </g>
                                </g>
                              </g>
                            </g>
                          </g>
                        </g>
                      </g>
                    </g>
                  </g>
                </g>
              </g>
              <g id="Grupo_55218" data-name="Grupo 55218" transform="translate(17.003 51.842)">
                <g id="Grupo_55217" data-name="Grupo 55217">
                  <g id="Grupo_55216" data-name="Grupo 55216">
                    <g id="Grupo_55215" data-name="Grupo 55215">
                      <g id="Grupo_55214" data-name="Grupo 55214">
                        <g id="Grupo_55213" data-name="Grupo 55213">
                          <g id="Grupo_55212" data-name="Grupo 55212">
                            <g id="Grupo_55211" data-name="Grupo 55211">
                              <g id="Grupo_55210" data-name="Grupo 55210">
                                <g id="Grupo_55209" data-name="Grupo 55209">
                                  <g id="Grupo_55208" data-name="Grupo 55208">
                                    <g id="Grupo_55207" data-name="Grupo 55207">
                                      <path id="Trazado_117203" data-name="Trazado 117203" d="M376.914,197.414c-.347-.021-.357,2.3-2.345,3.938s-4.454,1.38-4.473,1.7c-.033.145.549.451,1.591.482a5.775,5.775,0,0,0,3.734-1.292,5.028,5.028,0,0,0,1.817-3.3C377.329,197.976,377.072,197.4,376.914,197.414Z" transform="translate(-370.095 -197.414)" fill="#263238"/>
                                    </g>
                                  </g>
                                </g>
                              </g>
                            </g>
                          </g>
                        </g>
                      </g>
                    </g>
                  </g>
                </g>
              </g>
              <g id="Grupo_55226" data-name="Grupo 55226" transform="translate(23.625 24.903)">
                <g id="Grupo_55225" data-name="Grupo 55225">
                  <g id="Grupo_55224" data-name="Grupo 55224">
                    <g id="Grupo_55223" data-name="Grupo 55223">
                      <g id="Grupo_55222" data-name="Grupo 55222">
                        <g id="Grupo_55221" data-name="Grupo 55221">
                          <g id="Grupo_55220" data-name="Grupo 55220">
                            <g id="Grupo_55219" data-name="Grupo 55219">
                              <path id="Trazado_117204" data-name="Trazado 117204" d="M380.109,158.8c.266.557,2.361.074,4.884.129,2.525,0,4.607.535,4.887-.016.123-.262-.281-.771-1.149-1.25a8.492,8.492,0,0,0-7.444-.086C380.408,158.031,379.992,158.531,380.109,158.8Z" transform="translate(-380.09 -156.755)" fill="#263238"/>
                            </g>
                          </g>
                        </g>
                      </g>
                    </g>
                  </g>
                </g>
              </g>
              <g id="Grupo_55234" data-name="Grupo 55234" transform="translate(3.629 27.693)">
                <g id="Grupo_55233" data-name="Grupo 55233">
                  <g id="Grupo_55232" data-name="Grupo 55232">
                    <g id="Grupo_55231" data-name="Grupo 55231">
                      <g id="Grupo_55230" data-name="Grupo 55230">
                        <g id="Grupo_55229" data-name="Grupo 55229">
                          <g id="Grupo_55228" data-name="Grupo 55228">
                            <g id="Grupo_55227" data-name="Grupo 55227">
                              <path id="Trazado_117205" data-name="Trazado 117205" d="M349.978,163.186c.468.484,2.294-.023,4.492-.05,2.2-.09,4.059.319,4.487-.189.188-.246-.107-.732-.921-1.19a7.371,7.371,0,0,0-3.653-.788,7.237,7.237,0,0,0-3.581.981C350.026,162.45,349.772,162.95,349.978,163.186Z" transform="translate(-349.91 -160.966)" fill="#263238"/>
                            </g>
                          </g>
                        </g>
                      </g>
                    </g>
                  </g>
                </g>
              </g>
              <g id="Grupo_55235" data-name="Grupo 55235" transform="translate(17.003)">
                <path id="Trazado_117206" data-name="Trazado 117206" d="M426.688,204.427c-3.374-5.456-6.129-19.039-7.3-25.93s-4.825-28.971-10.693-40.577-12.779-16.3-19.561-18.126a15.592,15.592,0,0,0-14.93,3.39c-3.063,2.739-4.107,10.711-4.107,10.711s16.358,3.637,21.867,12.965c6.328,10.715,7.863,16.1,7.863,16.1l2.048,5.861s-1.917,11.345-2.622,16.952.42,10.817,5.035,13.091l9.284,6.561s12.136,8.249,12.7,8.675c2.59,1.978,7.668,9.521,7.668,9.521S433.585,215.575,426.688,204.427Z" transform="translate(-370.095 -119.168)" fill="#263238"/>
              </g>
              <g id="Grupo_55236" data-name="Grupo 55236" transform="translate(0 1.373)">
                <path id="Trazado_117207" data-name="Trazado 117207" d="M360.973,134.7s-9.353-1.013-12.808,9.55c-1.564,4.778-2.756,18.58-2.756,18.58s-1.368-10.957-.864-17.213,3.626-14.163,8.42-18.544c4.662-4.259,8.594-6.256,16.93-5.752a13.375,13.375,0,0,0-6.015,4.5C362.81,127.4,362.346,128.75,360.973,134.7Z" transform="translate(-344.433 -121.241)" fill="#263238"/>
              </g>
            </g>
            <g id="Grupo_55271" data-name="Grupo 55271" transform="translate(46.158 40.035)">
              <g id="Grupo_55253" data-name="Grupo 55253">
                <g id="Grupo_55252" data-name="Grupo 55252">
                  <g id="Grupo_55251" data-name="Grupo 55251">
                    <g id="Grupo_55250" data-name="Grupo 55250">
                      <g id="Grupo_55249" data-name="Grupo 55249">
                        <g id="Grupo_55248" data-name="Grupo 55248">
                          <g id="Grupo_55247" data-name="Grupo 55247">
                            <g id="Grupo_55246" data-name="Grupo 55246">
                              <g id="Grupo_55245" data-name="Grupo 55245">
                                <g id="Grupo_55244" data-name="Grupo 55244">
                                  <g id="Grupo_55243" data-name="Grupo 55243">
                                    <g id="Grupo_55242" data-name="Grupo 55242">
                                      <g id="Grupo_55241" data-name="Grupo 55241">
                                        <g id="Grupo_55240" data-name="Grupo 55240">
                                          <g id="Grupo_55239" data-name="Grupo 55239">
                                            <g id="Grupo_55238" data-name="Grupo 55238">
                                              <path id="Trazado_117208" data-name="Trazado 117208" d="M414.56,184.172a4.7,4.7,0,0,1,6.87-3.995c1.63.942,2.876,2.836,2.726,6.472-.4,9.7-10.051,7.295-10.057,7.016C414.1,193.493,414.36,188.183,414.56,184.172Z" transform="translate(-414.1 -179.594)" fill="#efbda8"/>
                                            </g>
                                          </g>
                                        </g>
                                      </g>
                                    </g>
                                  </g>
                                </g>
                              </g>
                            </g>
                          </g>
                        </g>
                      </g>
                    </g>
                  </g>
                </g>
              </g>
              <g id="Grupo_55270" data-name="Grupo 55270" transform="translate(3.103 2.924)">
                <g id="Grupo_55269" data-name="Grupo 55269">
                  <g id="Grupo_55268" data-name="Grupo 55268">
                    <g id="Grupo_55267" data-name="Grupo 55267">
                      <g id="Grupo_55266" data-name="Grupo 55266">
                        <g id="Grupo_55265" data-name="Grupo 55265">
                          <g id="Grupo_55264" data-name="Grupo 55264">
                            <g id="Grupo_55263" data-name="Grupo 55263">
                              <g id="Grupo_55262" data-name="Grupo 55262">
                                <g id="Grupo_55261" data-name="Grupo 55261">
                                  <g id="Grupo_55260" data-name="Grupo 55260">
                                    <g id="Grupo_55259" data-name="Grupo 55259">
                                      <g id="Grupo_55258" data-name="Grupo 55258">
                                        <g id="Grupo_55257" data-name="Grupo 55257">
                                          <g id="Grupo_55256" data-name="Grupo 55256">
                                            <g id="Grupo_55255" data-name="Grupo 55255">
                                              <g id="Grupo_55254" data-name="Grupo 55254">
                                                <path id="Trazado_117209" data-name="Trazado 117209" d="M418.794,191.6c.044-.029.164.125.445.268a1.688,1.688,0,0,0,1.261.078c1.04-.334,1.97-1.925,2.089-3.671a5.579,5.579,0,0,0-.374-2.438A1.953,1.953,0,0,0,421,184.492a.86.86,0,0,0-1.016.422c-.141.266-.087.462-.14.476-.028.023-.2-.171-.107-.568a1.075,1.075,0,0,1,.407-.592,1.274,1.274,0,0,1,.943-.208,2.376,2.376,0,0,1,1.7,1.576,5.744,5.744,0,0,1,.474,2.727c-.142,1.951-1.218,3.738-2.636,4.085a1.809,1.809,0,0,1-1.534-.32C418.8,191.838,418.759,191.62,418.794,191.6Z" transform="translate(-418.784 -184.007)" fill="#d1967c"/>
                                              </g>
                                            </g>
                                          </g>
                                        </g>
                                      </g>
                                    </g>
                                  </g>
                                </g>
                              </g>
                            </g>
                          </g>
                        </g>
                      </g>
                    </g>
                  </g>
                </g>
              </g>
            </g>
          </g>
          <g id="Grupo_55274" data-name="Grupo 55274" transform="translate(16.99)">
            <g id="Grupo_55273" data-name="Grupo 55273">
              <path id="Trazado_117210" data-name="Trazado 117210" d="M385.244,119.164c0,.072-1.33.033-3.436.312a11.916,11.916,0,0,0-3.539,1.057,11.681,11.681,0,0,0-3.552,2.767,17.993,17.993,0,0,0-3.93,7.2c-.563,2.051-.631,3.383-.7,3.374a4.327,4.327,0,0,1,.031-.932,17.311,17.311,0,0,1,4.341-9.876,11.008,11.008,0,0,1,7.315-3.835,20.178,20.178,0,0,1,2.539-.124A4.482,4.482,0,0,1,385.244,119.164Z" transform="translate(-370.076 -119.108)" fill="#455a64"/>
            </g>
          </g>
          <g id="Grupo_55276" data-name="Grupo 55276" transform="translate(17.752 10.754)">
            <g id="Grupo_55275" data-name="Grupo 55275">
              <path id="Trazado_117211" data-name="Trazado 117211" d="M409.068,176.248a.535.535,0,0,1,.017-.158l.083-.454q.062-.311.144-.735.065-.446.146-1.011a23.321,23.321,0,0,0-3.443-15.414,26.157,26.157,0,0,0-8.51-7.994,48.722,48.722,0,0,0-5.415-2.833c-1.8-.826-3.6-1.47-5.265-2.226a62.789,62.789,0,0,1-8.448-4.749c-2.3-1.527-4.09-2.862-5.3-3.811-.606-.477-1.073-.851-1.383-1.113l-.352-.3c-.078-.069-.116-.107-.112-.111a.558.558,0,0,1,.134.084l.372.272,1.421,1.061c1.238.915,3.047,2.218,5.357,3.713a65.286,65.286,0,0,0,8.446,4.664c1.652.739,3.464,1.381,5.273,2.207a48.155,48.155,0,0,1,5.457,2.847,26.212,26.212,0,0,1,8.6,8.117,23.055,23.055,0,0,1,3.329,9.074,22.1,22.1,0,0,1-.021,6.53q-.1.564-.178,1.011c-.068.282-.127.524-.177.731l-.118.447A.579.579,0,0,1,409.068,176.248Z" transform="translate(-371.226 -135.339)" fill="#455a64"/>
            </g>
          </g>
          <g id="Grupo_55278" data-name="Grupo 55278" transform="translate(21.361 4.706)">
            <g id="Grupo_55277" data-name="Grupo 55277">
              <path id="Trazado_117212" data-name="Trazado 117212" d="M413.151,169.5a.548.548,0,0,1-.01-.159c0-.125,0-.277,0-.464,0-.407.045-1.006.03-1.778a37.28,37.28,0,0,0-.631-6.5,37.809,37.809,0,0,0-3-9.175,36.392,36.392,0,0,0-6.774-9.653,43.013,43.013,0,0,0-9.485-7.052c-3.171-1.811-6.155-3.213-8.64-4.425s-4.5-2.191-5.87-2.919c-.688-.354-1.21-.654-1.566-.851l-.4-.232a.08.08,0,1,1,.017-.031l.417.2,1.595.794c1.384.69,3.408,1.645,5.914,2.818s5.5,2.564,8.693,4.369a42.587,42.587,0,0,1,9.573,7.087,36.2,36.2,0,0,1,6.816,9.757,37.176,37.176,0,0,1,2.954,9.268,34.61,34.61,0,0,1,.525,6.54c-.005.775-.074,1.375-.095,1.782-.016.186-.029.337-.039.462A.527.527,0,0,1,413.151,169.5Z" transform="translate(-376.674 -126.211)" fill="#455a64"/>
            </g>
          </g>
          <g id="Grupo_55280" data-name="Grupo 55280" transform="translate(54.436 52.51)">
            <g id="Grupo_55279" data-name="Grupo 55279">
              <path id="Trazado_117213" data-name="Trazado 117213" d="M429.714,230.093a1.162,1.162,0,0,1-.148-.292l-.364-.865a14.734,14.734,0,0,1-.515-1.393c-.179-.551-.406-1.172-.578-1.881l-.295-1.106c-.095-.386-.172-.794-.262-1.212-.195-.837-.318-1.745-.474-2.7a57.029,57.029,0,0,1-.474-6.251,96.915,96.915,0,0,1,.566-11.36c.147-1.447.284-2.616.388-3.423.051-.37.093-.676.128-.928a.165.165,0,1,1,.069.007l-.064.934c-.07.864-.164,2.023-.278,3.431-.227,2.9-.538,6.9-.464,11.331a61.836,61.836,0,0,0,.444,6.216c.146.946.258,1.851.439,2.683.085.417.154.824.242,1.208l.271,1.1c.157.708.366,1.33.526,1.884s.317,1.024.457,1.405l.3.885A1.232,1.232,0,0,1,429.714,230.093Z" transform="translate(-426.594 -198.363)" fill="#455a64"/>
            </g>
          </g>
        </g>
        <g id="Grupo_55301" data-name="Grupo 55301" transform="translate(0 103.039)">
          <g id="Grupo_55282" data-name="Grupo 55282" transform="translate(60.433 70.201)">
            <path id="Trazado_117214" data-name="Trazado 117214" d="M246.175,380.583s10.537,13.513,14.312,14.591,18.081,4.6,18.081,4.6l46.944,10.853-5.529-20.122L275.53,389.9Z" transform="translate(-246.175 -380.583)" fill="#efbda8"/>
          </g>
          <g id="Grupo_55283" data-name="Grupo 55283">
            <path id="Trazado_117215" data-name="Trazado 117215" d="M155.037,276c3.52,8.724,21.251,48.645,25.36,57.887a4.662,4.662,0,0,0,2.85,2.548l55.8,17.713,55.361,4.138V356.46L249.65,342.9l-14.138-1.656L214.4,288.89a7.548,7.548,0,0,0-5.64-4.6l-52.616-9.643A1,1,0,0,0,155.037,276Z" transform="translate(-154.963 -274.627)" fill="#455a64"/>
          </g>
          <g id="Grupo_55285" data-name="Grupo 55285" transform="translate(79.721 64.566)">
            <g id="Grupo_55284" data-name="Grupo 55284">
              <path id="Trazado_117216" data-name="Trazado 117216" d="M335.011,389.344a.673.673,0,0,1-.176,0l-.515-.038-1.976-.18-7.258-.727-10.758-1.121-13.18-1.324c-4.676-.462-9.137-.814-13.2-1.045l-5.772-.364a9.768,9.768,0,0,1-1.342-.169,2.9,2.9,0,0,1-.649-.209,1.148,1.148,0,0,1-.5-.488,21.207,21.207,0,0,1-.912-2.263l-2.58-6.821-.685-1.861-.17-.487a.683.683,0,0,1-.047-.17.651.651,0,0,1,.08.158l.2.475c.18.445.43,1.059.745,1.838L279,381.332a21.829,21.829,0,0,0,.91,2.208.873.873,0,0,0,.4.384,2.7,2.7,0,0,0,.586.182,9.544,9.544,0,0,0,1.3.154c1.8.084,3.739.215,5.77.332,4.069.214,8.538.556,13.217,1.019l13.177,1.351,10.753,1.195,7.247.835,1.968.245.511.072A.682.682,0,0,1,335.011,389.344Z" transform="translate(-275.288 -372.077)" fill="#263238"/>
            </g>
          </g>
          <g id="Grupo_55297" data-name="Grupo 55297" transform="translate(79.481 54.03)">
            <g id="Grupo_55286" data-name="Grupo 55286">
              <path id="Trazado_117217" data-name="Trazado 117217" d="M306.282,373.286s.8-5.264,0-6.3-6.443-6.111-6.443-6.111l-3.2-3.009-7.058-1.079a2.153,2.153,0,0,0-2.153.99l-.724,1.162-1.911-.32-1.693-2.445h-4.7l-3.478,3.761v5.077a.958.958,0,0,0,1.692.376c1.222-1.034,1.3-3.9,1.3-3.9L280,363.415l-2.217,6.772s1.559,1.413,2.687,0,2.726-3.481,2.726-3.481,1.88,5.074,5.077,6.58,10.906,2.878,12.5,2.52S305.977,376.1,306.282,373.286Z" transform="translate(-274.925 -356.176)" fill="#efbda8"/>
            </g>
            <g id="Grupo_55288" data-name="Grupo 55288" transform="translate(7.433 2.157)">
              <g id="Grupo_55287" data-name="Grupo 55287">
                <path id="Trazado_117218" data-name="Trazado 117218" d="M298.9,362.846c.007,0-.025.079-.128.189a1.422,1.422,0,0,1-.553.354,2.794,2.794,0,0,1-1.027.143c-.406-.006-.853-.1-1.338-.147a2.343,2.343,0,0,0-1.489.235,6.877,6.877,0,0,0-1.236,1.328,5.592,5.592,0,0,1-3.77,2.051,3.553,3.553,0,0,1-3.147-1.463l-.071-.109.089-.093a36.031,36.031,0,0,0,3.411-4.161c.765-1.089,1.175-1.76,1.212-1.739a2.135,2.135,0,0,1-.24.509c-.174.32-.441.78-.8,1.343a30.246,30.246,0,0,1-3.343,4.272l.018-.2a3.25,3.25,0,0,0,2.858,1.3,5.357,5.357,0,0,0,3.549-1.919,6.769,6.769,0,0,1,1.324-1.361,2.565,2.565,0,0,1,1.666-.232c.5.066.936.174,1.32.2a2.853,2.853,0,0,0,.975-.078A2.067,2.067,0,0,0,298.9,362.846Z" transform="translate(-286.144 -359.432)" fill="#d1967c"/>
              </g>
            </g>
            <g id="Grupo_55290" data-name="Grupo 55290" transform="translate(21.005 4.503)">
              <g id="Grupo_55289" data-name="Grupo 55289">
                <path id="Trazado_117219" data-name="Trazado 117219" d="M311.352,375.3c-.04.008-.079-.3-.289-.8a7.659,7.659,0,0,0-1.222-1.929c-.61-.758-1.448-1.578-2.21-2.656a5.74,5.74,0,0,1-.879-1.887,4.493,4.493,0,0,1,.038-2.242,5.459,5.459,0,0,1,1.01-2,2.357,2.357,0,0,1,.849-.711,1.254,1.254,0,0,1,1.1.032,2.533,2.533,0,0,1,1.123,1.54,7.084,7.084,0,0,0,.626,1.445,6.166,6.166,0,0,0,1.5,1.707c.426.336.7.48.68.506a2.4,2.4,0,0,1-.76-.4,5.741,5.741,0,0,1-1.627-1.688,7.017,7.017,0,0,1-.686-1.473,2.273,2.273,0,0,0-1-1.354.924.924,0,0,0-.823-.017,2.051,2.051,0,0,0-.718.621,5.181,5.181,0,0,0-.941,1.876,4.19,4.19,0,0,0-.043,2.076,5.514,5.514,0,0,0,.812,1.786c.721,1.052,1.542,1.894,2.138,2.682a6.954,6.954,0,0,1,1.156,2.035,2.87,2.87,0,0,1,.148.621C311.358,375.225,311.364,375.3,311.352,375.3Z" transform="translate(-306.629 -362.973)" fill="#d1967c"/>
              </g>
            </g>
            <g id="Grupo_55292" data-name="Grupo 55292" transform="translate(3.989 3.726)">
              <g id="Grupo_55291" data-name="Grupo 55291">
                <path id="Trazado_117220" data-name="Trazado 117220" d="M284.757,361.9a1.493,1.493,0,0,0-1.018.419,6.906,6.906,0,0,0-1.263,2.5c-.38,1.057-.712,2.025-.987,2.714a3.415,3.415,0,0,1-.535,1.081,5.512,5.512,0,0,1,.3-1.161c.215-.706.51-1.685.893-2.752a6.008,6.008,0,0,1,1.424-2.56,1.324,1.324,0,0,1,.858-.335C284.658,361.808,284.764,361.88,284.757,361.9Z" transform="translate(-280.946 -361.8)" fill="#d1967c"/>
              </g>
            </g>
            <g id="Grupo_55294" data-name="Grupo 55294" transform="translate(2.986 2.642)">
              <g id="Grupo_55293" data-name="Grupo 55293">
                <path id="Trazado_117221" data-name="Trazado 117221" d="M284.75,361.262c0,.036-.289.1-.775.038a3.545,3.545,0,0,1-1.769-.785h.219l-.433.372a15.073,15.073,0,0,1-2.558,1.952,15.13,15.13,0,0,1,2.335-2.215l.437-.368.111-.093.109.093a4.013,4.013,0,0,0,1.593.826C284.464,361.2,284.75,361.214,284.75,361.262Z" transform="translate(-279.432 -360.163)" fill="#d1967c"/>
              </g>
            </g>
            <g id="Grupo_55296" data-name="Grupo 55296" transform="translate(15.769 9.322)">
              <g id="Grupo_55295" data-name="Grupo 55295">
                <path id="Trazado_117222" data-name="Trazado 117222" d="M298.731,376.779a3.854,3.854,0,0,1,.5-1.2,13.943,13.943,0,0,1,4.111-4.68,3.832,3.832,0,0,1,1.124-.651,22.591,22.591,0,0,0-5.736,6.529Z" transform="translate(-298.726 -370.246)" fill="#d1967c"/>
              </g>
            </g>
          </g>
          <g id="Grupo_55299" data-name="Grupo 55299" transform="translate(55.475 10.509)">
            <g id="Grupo_55298" data-name="Grupo 55298">
              <path id="Trazado_117223" data-name="Trazado 117223" d="M238.694,290.489a.838.838,0,0,1,.086.172l.222.515.82,1.994,2.958,7.353,9.637,24.308,9.545,24.349c1.2,3.1,2.173,5.624,2.856,7.393l.761,2.017c.078.217.14.39.189.528a.787.787,0,0,1,.054.184.84.84,0,0,1-.086-.172l-.222-.515c-.2-.478-.471-1.146-.82-1.992-.708-1.76-1.716-4.266-2.958-7.353L252.1,324.957l-9.544-24.345c-1.2-3.1-2.172-5.624-2.856-7.393l-.761-2.017-.19-.528A.787.787,0,0,1,238.694,290.489Z" transform="translate(-238.693 -290.489)" fill="#263238"/>
            </g>
          </g>
          <g id="Grupo_55300" data-name="Grupo 55300" transform="translate(35.843 31.677)">
            <ellipse id="Elipse_4028" data-name="Elipse 4028" cx="3.189" cy="4.349" rx="3.189" ry="4.349" transform="translate(0 3.737) rotate(-35.872)" fill="#fff"/>
          </g>
        </g>
      </g>
    </g>
    <g id="Desk" transform="translate(52.714 327.141)">
      <g id="Grupo_55304" data-name="Grupo 55304">
        <g id="Grupo_55303" data-name="Grupo 55303">
          <path id="Trazado_117224" data-name="Trazado 117224" d="M479.7,472.568c0,.1-95.592.172-213.484.172-117.933,0-213.505-.077-213.505-.172s95.572-.172,213.505-.172C384.111,472.4,479.7,472.473,479.7,472.568Z" transform="translate(-52.714 -472.396)" fill="#263238"/>
        </g>
      </g>
    </g>
    <g id="Screens" transform="translate(72.53 41.945)">
      <g id="Grupo_55331" data-name="Grupo 55331" transform="translate(0 54.422)">
        <g id="Grupo_55305" data-name="Grupo 55305">
          <rect id="Rectángulo_29460" data-name="Rectángulo 29460" width="140.726" height="87.219" rx="7.867" fill="#12263f"/>
        </g>
        <g id="Grupo_55308" data-name="Grupo 55308" transform="translate(59.643 34.076)">
          <g id="Grupo_55306" data-name="Grupo 55306">
            <circle id="Elipse_4029" data-name="Elipse 4029" cx="10.72" cy="10.72" r="10.72" fill="#7d6eb2"/>
          </g>
          <g id="Grupo_55307" data-name="Grupo 55307" transform="translate(8.137 7.127)">
            <path id="Trazado_117225" data-name="Trazado 117225" d="M184.923,193v-6.325a.4.4,0,0,1,.6-.35l5.653,3.187a.4.4,0,0,1,0,.7l-5.653,3.138A.4.4,0,0,1,184.923,193Z" transform="translate(-184.923 -186.274)" fill="#fff"/>
          </g>
        </g>
        <g id="Grupo_55309" data-name="Grupo 55309" transform="translate(6.93 75.969)">
          <path id="Trazado_117226" data-name="Trazado 117226" d="M94.2,239.978v.226H93.137v-.179l.57-.542c.139-.133.164-.217.164-.3,0-.132-.091-.207-.267-.207a.4.4,0,0,0-.337.15l-.187-.144a.664.664,0,0,1,.546-.239c.312,0,.513.158.513.413a.576.576,0,0,1-.238.454l-.384.365Z" transform="translate(-93.081 -238.746)" fill="#fff"/>
          <path id="Trazado_117227" data-name="Trazado 117227" d="M94.981,239.443a.168.168,0,1,1,.336,0,.168.168,0,1,1-.336,0Zm0,.782a.168.168,0,1,1,.336,0,.168.168,0,1,1-.336,0Z" transform="translate(-93.722 -238.924)" fill="#fff"/>
          <path id="Trazado_117228" data-name="Trazado 117228" d="M96.206,238.777v1.437H95.94V239h-.3v-.224Z" transform="translate(-93.943 -238.756)" fill="#fff"/>
          <path id="Trazado_117229" data-name="Trazado 117229" d="M98.2,239.887h-.254v.327h-.258v-.327H96.9V239.7l.708-.926h.286l-.667.885h.47v-.29h.25v.29H98.2Z" transform="translate(-94.368 -238.756)" fill="#fff"/>
        </g>
        <g id="Grupo_55310" data-name="Grupo 55310" transform="translate(13.105 76.525)">
          <rect id="Rectángulo_29461" data-name="Rectángulo 29461" width="108.989" height="0.497" fill="#fff"/>
        </g>
        <g id="Grupo_55311" data-name="Grupo 55311" transform="translate(13.023 75.99)">
          <rect id="Rectángulo_29462" data-name="Rectángulo 29462" width="34.059" height="1.325" fill="#7d6eb2"/>
        </g>
        <g id="Grupo_55312" data-name="Grupo 55312" transform="translate(44.866 75.116)">
          <path id="Trazado_117230" data-name="Trazado 117230" d="M153.655,239.117A1.658,1.658,0,1,1,152,237.459,1.658,1.658,0,0,1,153.655,239.117Z" transform="translate(-150.339 -237.459)" fill="#7d6eb2"/>
        </g>
        <g id="Grupo_55313" data-name="Grupo 55313" transform="translate(123.693 75.746)">
          <path id="Trazado_117231" data-name="Trazado 117231" d="M270.46,239.422a.479.479,0,0,1-.525.466c-.392,0-.621-.252-.621-.714a.68.68,0,0,1,.7-.764.72.72,0,0,1,.378.093l-.1.2a.49.49,0,0,0-.273-.07c-.27,0-.441.168-.441.495v0a.491.491,0,0,1,.384-.15A.449.449,0,0,1,270.46,239.422Zm-.258.013c0-.15-.113-.244-.288-.244a.261.261,0,0,0-.292.246c0,.135.107.242.3.242A.249.249,0,0,0,270.2,239.434Z" transform="translate(-269.313 -238.41)" fill="#fff"/>
          <path id="Trazado_117232" data-name="Trazado 117232" d="M271.24,239.107a.168.168,0,1,1,.337,0,.168.168,0,1,1-.337,0Zm0,.782a.168.168,0,1,1,.337,0,.168.168,0,1,1-.337,0Z" transform="translate(-269.963 -238.588)" fill="#fff"/>
          <path id="Trazado_117233" data-name="Trazado 117233" d="M272.007,239.149c0-.472.258-.739.6-.739s.6.267.6.739-.258.739-.6.739S272.007,239.621,272.007,239.149Zm.932,0c0-.347-.135-.507-.333-.507s-.33.16-.33.507.135.506.33.506S272.939,239.5,272.939,239.149Z" transform="translate(-270.222 -238.41)" fill="#fff"/>
          <path id="Trazado_117234" data-name="Trazado 117234" d="M274.089,239.149c0-.472.258-.739.6-.739s.6.267.6.739-.258.739-.6.739S274.089,239.621,274.089,239.149Zm.932,0c0-.347-.135-.507-.333-.507s-.33.16-.33.507.135.506.33.506S275.021,239.5,275.021,239.149Z" transform="translate(-270.925 -238.41)" fill="#fff"/>
        </g>
        <g id="Grupo_55314" data-name="Grupo 55314" transform="translate(129.881 74.964)">
          <path id="Trazado_117235" data-name="Trazado 117235" d="M279.151,238.661h-.5v-1.432h1.43v.5h-.933Z" transform="translate(-278.654 -237.229)" fill="#fff"/>
        </g>
        <g id="Grupo_55315" data-name="Grupo 55315" transform="translate(129.88 76.836)">
          <path id="Trazado_117236" data-name="Trazado 117236" d="M280.084,241.485h-1.432v-1.43h.5v.933h.936Z" transform="translate(-278.651 -240.055)" fill="#fff"/>
        </g>
        <g id="Grupo_55316" data-name="Grupo 55316" transform="translate(132.164 76.833)">
          <path id="Trazado_117237" data-name="Trazado 117237" d="M283.529,241.483H282.1v-.5h.933v-.936h.5Z" transform="translate(-282.099 -240.05)" fill="#fff"/>
        </g>
        <g id="Grupo_55317" data-name="Grupo 55317" transform="translate(132.162 74.964)">
          <path id="Trazado_117238" data-name="Trazado 117238" d="M283.529,238.658h-.5v-.933H282.1v-.5h1.432Z" transform="translate(-282.097 -237.229)" fill="#fff"/>
        </g>
        <g id="Grupo_55319" data-name="Grupo 55319" transform="translate(114.893 8.338)">
          <g id="Grupo_55318" data-name="Grupo 55318">
            <path id="Trazado_117239" data-name="Trazado 117239" d="M256.187,136.811a3.591,3.591,0,0,1,.764-.066c.511-.026,1.269-.057,2.2-.073l.138,0v.141c.01,1.11.021,2.386.033,3.765l0,.419-.3-.3-.4-.394-1.005-1.01.233.006-1.575,1.389-.256.225,0-.338c.015-1.159.048-2.121.077-2.776a5.4,5.4,0,0,1,.074-.989,8.588,8.588,0,0,1,.074,1.086c.029.665.062,1.586.076,2.679l-.251-.112,1.55-1.416.119-.108.115.115,1.009,1,.395.4-.294.121c.012-1.379.023-2.656.033-3.765l.138.138c-.869-.015-1.593-.047-2.114-.073A6.038,6.038,0,0,1,256.187,136.811Z" transform="translate(-256.032 -136.67)" fill="#fff"/>
          </g>
        </g>
        <g id="Grupo_55321" data-name="Grupo 55321" transform="translate(121.256 8.755)">
          <g id="Grupo_55320" data-name="Grupo 55320">
            <path id="Trazado_117240" data-name="Trazado 117240" d="M270.329,137.494c.034-.016-.241.315-.735.918s-1.222,1.49-2.108,2.487l-.286.321,0-.432c0-.587,0-1.216-.007-1.867v-.183l.053.124-1.315-1.277-.295-.286.409.005c1.3.017,2.407.076,3.155.115s1.163.059,1.13.074-.515.028-1.283.059-1.8.077-3,.078l.115-.281,1.326,1.264.053.05v.257c0,.651-.005,1.28-.007,1.867l-.288-.11c.836-.916,1.588-1.674,2.148-2.243S270.294,137.509,270.329,137.494Z" transform="translate(-265.636 -137.299)" fill="#fff"/>
          </g>
        </g>
        <g id="Grupo_55323" data-name="Grupo 55323" transform="translate(122.983 8.929)">
          <g id="Grupo_55322" data-name="Grupo 55322">
            <path id="Trazado_117241" data-name="Trazado 117241" d="M271.209,137.583a7.6,7.6,0,0,1-2.965,1.245,7.571,7.571,0,0,1,2.965-1.245Z" transform="translate(-268.243 -137.562)" fill="#fff"/>
          </g>
        </g>
        <g id="Grupo_55325" data-name="Grupo 55325" transform="translate(129.016 8.448)">
          <g id="Grupo_55324" data-name="Grupo 55324">
            <path id="Trazado_117242" data-name="Trazado 117242" d="M279.6,136.867a.95.95,0,0,1,.529,0,2.092,2.092,0,0,1,1.236.755,2.212,2.212,0,0,1,.356,2.114,2.248,2.248,0,0,1-4.242,0,2.211,2.211,0,0,1,.356-2.114,2.091,2.091,0,0,1,1.236-.755.952.952,0,0,1,.529,0,4.47,4.47,0,0,1-.5.131,2.1,2.1,0,0,0-1.075.772,1.986,1.986,0,0,0-.251,1.857,1.944,1.944,0,0,0,3.645,0,1.987,1.987,0,0,0-.25-1.856,2.1,2.1,0,0,0-1.076-.773A4.382,4.382,0,0,1,279.6,136.867Z" transform="translate(-277.348 -136.837)" fill="#fff"/>
          </g>
        </g>
        <g id="Grupo_55327" data-name="Grupo 55327" transform="translate(130.911 9.289)">
          <g id="Grupo_55326" data-name="Grupo 55326">
            <path id="Trazado_117243" data-name="Trazado 117243" d="M281.275,140.288c-.067.068-.521-.278-1.016-.772l-.05-.05v-.083c0-.706.078-1.277.172-1.277s.173.572.173,1.277v.012l-.05-.122C281,139.767,281.342,140.221,281.275,140.288Z" transform="translate(-280.208 -138.105)" fill="#fff"/>
          </g>
        </g>
        <g id="Grupo_55329" data-name="Grupo 55329" transform="translate(15.689 11.161)">
          <g id="Grupo_55328" data-name="Grupo 55328">
            <path id="Trazado_117244" data-name="Trazado 117244" d="M170.9,141.1c0,.1-14.463.172-32.3.172s-32.3-.077-32.3-.172,14.46-.173,32.3-.173S170.9,141.009,170.9,141.1Z" transform="translate(-106.301 -140.931)" fill="#fff"/>
          </g>
        </g>
        <g id="Grupo_55330" data-name="Grupo 55330" transform="translate(7.544 8.786)">
          <circle id="Elipse_4030" data-name="Elipse 4030" cx="2.548" cy="2.548" r="2.548" fill="#fff"/>
        </g>
      </g>
      <g id="Grupo_55360" data-name="Grupo 55360" transform="translate(245.204 13.14)">
        <g id="Grupo_55332" data-name="Grupo 55332" transform="translate(0.176 0.172)">
          <rect id="Rectángulo_29463" data-name="Rectángulo 29463" width="107.071" height="66.361" rx="7.867" fill="#f5f5f5"/>
        </g>
        <g id="Grupo_55333" data-name="Grupo 55333" transform="translate(0.176 24.172)">
          <path id="Trazado_117245" data-name="Trazado 117245" d="M543.054,103.293c-2.56-1.566-5.424-2.9-8.422-2.786-4.259.162-7.814,3.144-11,5.972L508.722,119.7a2.013,2.013,0,0,1-3.482-.079l-13.2-14.644C489.3,101.94,486.172,98.7,482.1,98.3c-3.3-.321-6.452,1.338-9.225,3.154a66.029,66.029,0,0,0-19.745,20.083l-.154,13.861a7.03,7.03,0,0,0,6.377,5.222h94.316a6.459,6.459,0,0,0,6.377-5.849v-13.05A44.979,44.979,0,0,0,543.054,103.293Z" transform="translate(-452.978 -98.262)" fill="#12263f"/>
        </g>
        <g id="Grupo_55356" data-name="Grupo 55356" transform="translate(5.449 6.481)">
          <g id="Grupo_55334" data-name="Grupo 55334" transform="translate(0 51.494)">
            <path id="Trazado_117246" data-name="Trazado 117246" d="M461.781,150.215v.172h-.8v-.136l.433-.411c.106-.1.125-.165.125-.226,0-.1-.068-.157-.2-.157a.309.309,0,0,0-.256.113l-.142-.109a.5.5,0,0,1,.414-.181c.237,0,.39.12.39.313a.439.439,0,0,1-.18.345l-.292.277Z" transform="translate(-460.936 -149.281)" fill="#263238"/>
            <path id="Trazado_117247" data-name="Trazado 117247" d="M462.381,149.81a.128.128,0,1,1,.256,0,.128.128,0,1,1-.256,0Zm0,.593a.128.128,0,1,1,.256,0,.128.128,0,1,1-.256,0Z" transform="translate(-461.424 -149.416)" fill="#263238"/>
            <path id="Trazado_117248" data-name="Trazado 117248" d="M463.313,149.3v1.09h-.2v-.92h-.231v-.17Z" transform="translate(-461.592 -149.289)" fill="#263238"/>
            <path id="Trazado_117249" data-name="Trazado 117249" d="M464.825,150.147h-.193v.248h-.2v-.248h-.6v-.14l.537-.7h.216l-.506.671h.356v-.219h.19v.219h.193Z" transform="translate(-461.915 -149.289)" fill="#263238"/>
          </g>
          <g id="Grupo_55335" data-name="Grupo 55335" transform="translate(4.698 51.856)">
            <rect id="Rectángulo_29464" data-name="Rectángulo 29464" width="82.924" height="0.497" fill="#263238"/>
          </g>
          <g id="Grupo_55336" data-name="Grupo 55336" transform="translate(4.636 51.35)">
            <rect id="Rectángulo_29465" data-name="Rectángulo 29465" width="25.914" height="1.325" fill="#aee6e6"/>
          </g>
          <g id="Grupo_55337" data-name="Grupo 55337" transform="translate(28.863 50.843)">
            <path id="Trazado_117250" data-name="Trazado 117250" d="M507.023,149.559a1.262,1.262,0,1,1-1.262-1.261A1.262,1.262,0,0,1,507.023,149.559Z" transform="translate(-504.5 -148.298)" fill="#aee6e6"/>
          </g>
          <g id="Grupo_55338" data-name="Grupo 55338" transform="translate(88.837 51.325)">
            <path id="Trazado_117251" data-name="Trazado 117251" d="M595.89,149.793a.363.363,0,0,1-.4.353c-.3,0-.472-.191-.472-.542a.516.516,0,0,1,.534-.579.541.541,0,0,1,.286.07l-.075.152a.373.373,0,0,0-.207-.052c-.205,0-.335.127-.335.375h0a.371.371,0,0,1,.291-.113A.341.341,0,0,1,595.89,149.793Zm-.2.009c0-.114-.086-.186-.218-.186a.2.2,0,0,0-.221.187c0,.1.081.184.225.184A.189.189,0,0,0,595.693,149.8Z" transform="translate(-595.019 -149.025)" fill="#263238"/>
            <path id="Trazado_117252" data-name="Trazado 117252" d="M596.485,149.554a.128.128,0,1,1,.256,0,.128.128,0,1,1-.256,0Zm0,.593a.128.128,0,1,1,.256,0,.128.128,0,1,1-.256,0Z" transform="translate(-595.514 -149.16)" fill="#263238"/>
            <path id="Trazado_117253" data-name="Trazado 117253" d="M597.069,149.586c0-.358.2-.561.454-.561s.457.2.457.561-.2.561-.457.561S597.069,149.943,597.069,149.586Zm.706,0c0-.263-.1-.384-.252-.384s-.25.121-.25.384.1.385.25.385S597.775,149.849,597.775,149.586Z" transform="translate(-595.711 -149.025)" fill="#263238"/>
            <path id="Trazado_117254" data-name="Trazado 117254" d="M598.653,149.586c0-.358.2-.561.454-.561s.457.2.457.561-.2.561-.457.561S598.653,149.943,598.653,149.586Zm.706,0c0-.263-.1-.384-.252-.384s-.25.121-.25.384.1.385.25.385S599.359,149.849,599.359,149.586Z" transform="translate(-596.245 -149.025)" fill="#263238"/>
          </g>
          <g id="Grupo_55339" data-name="Grupo 55339" transform="translate(93.487 50.668)">
            <path id="Trazado_117255" data-name="Trazado 117255" d="M602.535,149.183h-.5v-1.149h1.147v.5h-.65Z" transform="translate(-602.038 -148.033)" fill="#263238"/>
          </g>
          <g id="Grupo_55340" data-name="Grupo 55340" transform="translate(93.487 52.152)">
            <path id="Trazado_117256" data-name="Trazado 117256" d="M603.186,151.42h-1.149v-1.147h.5v.65h.652Z" transform="translate(-602.037 -150.273)" fill="#263238"/>
          </g>
          <g id="Grupo_55341" data-name="Grupo 55341" transform="translate(95.284 52.149)">
            <path id="Trazado_117257" data-name="Trazado 117257" d="M605.9,151.419H604.75v-.5h.65v-.653h.5Z" transform="translate(-604.75 -150.27)" fill="#263238"/>
          </g>
          <g id="Grupo_55342" data-name="Grupo 55342" transform="translate(95.283 50.668)">
            <path id="Trazado_117258" data-name="Trazado 117258" d="M605.9,149.18h-.5v-.65h-.652v-.5H605.9Z" transform="translate(-604.748 -148.033)" fill="#263238"/>
          </g>
          <g id="Grupo_55344" data-name="Grupo 55344" transform="translate(82.103)">
            <g id="Grupo_55343" data-name="Grupo 55343">
              <path id="Trazado_117259" data-name="Trazado 117259" d="M585.014,71.7a15.281,15.281,0,0,1,2.255-.139l.136,0,0,.142c.019.812.03,1.8.033,2.865v.416l-.295-.294-.3-.3-.764-.769.233.006-1.2,1.053-.258.227.007-.339a21.947,21.947,0,0,1,.151-2.865,27.194,27.194,0,0,1,.151,2.865l-.252-.112,1.177-1.081.117-.108.115.115.769.764.3.3-.294.121c0-1.069.015-2.053.033-2.865l.138.138A19.849,19.849,0,0,1,585.014,71.7Z" transform="translate(-584.856 -71.56)" fill="#263238"/>
            </g>
          </g>
          <g id="Grupo_55346" data-name="Grupo 55346" transform="translate(86.887 0.311)">
            <g id="Grupo_55345" data-name="Grupo 55345">
              <path id="Trazado_117260" data-name="Trazado 117260" d="M595.745,72.219a6.575,6.575,0,0,1-.535.7c-.366.46-.919,1.154-1.6,1.922l-.285.322,0-.433c0-.45-.005-.926-.008-1.421v-.139l.053.124-1-.973-.295-.287.409.006c1,.015,1.852.072,2.418.111a6.4,6.4,0,0,1,.841.072c-.034.015-.409.028-.994.061s-1.364.08-2.267.083l.115-.281,1.011.96.053.05v.213c0,.494-.005.971-.008,1.421l-.287-.11c.629-.688,1.2-1.248,1.638-1.678S595.71,72.234,595.745,72.219Z" transform="translate(-592.076 -72.03)" fill="#263238"/>
            </g>
          </g>
          <g id="Grupo_55348" data-name="Grupo 55348" transform="translate(88.298 0.474)">
            <g id="Grupo_55347" data-name="Grupo 55347">
              <path id="Trazado_117261" data-name="Trazado 117261" d="M596.463,72.3c.037.088-.438.371-1.061.633s-1.158.4-1.2.315.439-.371,1.061-.633S596.426,72.214,596.463,72.3Z" transform="translate(-594.205 -72.275)" fill="#263238"/>
            </g>
          </g>
          <g id="Grupo_55350" data-name="Grupo 55350" transform="translate(92.853 0.109)">
            <g id="Grupo_55349" data-name="Grupo 55349">
              <path id="Trazado_117262" data-name="Trazado 117262" d="M602.826,71.758c0-.019.143-.056.406-.015a1.593,1.593,0,0,1,.96.572,1.707,1.707,0,0,1,.283,1.638,1.747,1.747,0,0,1-3.3,0,1.711,1.711,0,0,1,.283-1.638,1.594,1.594,0,0,1,.961-.572c.263-.041.407,0,.406.015s-.142.038-.374.115a1.6,1.6,0,0,0-.8.589,1.485,1.485,0,0,0-.178,1.383,1.443,1.443,0,0,0,2.7,0A1.483,1.483,0,0,0,604,72.463a1.6,1.6,0,0,0-.8-.59C602.968,71.8,602.825,71.786,602.826,71.758Z" transform="translate(-601.08 -71.724)" fill="#263238"/>
            </g>
          </g>
          <g id="Grupo_55352" data-name="Grupo 55352" transform="translate(94.289 0.759)">
            <g id="Grupo_55351" data-name="Grupo 55351">
              <path id="Trazado_117263" data-name="Trazado 117263" d="M604.1,74.366c-.067.067-.425-.182-.8-.558l-.05-.05v-.081c0-.537.078-.972.173-.972s.172.435.172.972v.009l-.05-.122C603.918,73.941,604.168,74.3,604.1,74.366Z" transform="translate(-603.248 -72.705)" fill="#263238"/>
            </g>
          </g>
          <g id="Grupo_55354" data-name="Grupo 55354" transform="translate(6.664 2.142)">
            <g id="Grupo_55353" data-name="Grupo 55353">
              <path id="Trazado_117264" data-name="Trazado 117264" d="M520.146,74.965c0,.1-11,.173-24.575.173s-24.577-.078-24.577-.173,11-.172,24.577-.172S520.146,74.871,520.146,74.965Z" transform="translate(-470.994 -74.793)" fill="#12263f"/>
            </g>
          </g>
          <g id="Grupo_55355" data-name="Grupo 55355" transform="translate(0.467 0.376)">
            <path id="Trazado_117265" data-name="Trazado 117265" d="M465.518,74.066a1.938,1.938,0,1,1-1.939-1.938A1.939,1.939,0,0,1,465.518,74.066Z" transform="translate(-461.641 -72.128)" fill="#12263f"/>
          </g>
        </g>
        <g id="Grupo_55358" data-name="Grupo 55358">
          <g id="Grupo_55357" data-name="Grupo 55357">
            <path id="Trazado_117266" data-name="Trazado 117266" d="M554.746,128.311c0-.021.3.007.865-.1a5.145,5.145,0,0,0,2.3-1.026,5.2,5.2,0,0,0,1.96-3.508c.064-1.632.009-3.541.019-5.675-.013-8.556-.032-20.925-.055-36.208q0-5.733-.011-12c-.012-1.037.024-2.11-.028-3.146a5.088,5.088,0,0,0-3.934-4.435,6.906,6.906,0,0,0-1.623-.127h-1.678l-28.7.016-65.757.013a5.042,5.042,0,0,0-3.741,1.663,5.2,5.2,0,0,0-1.307,3.88q0,4.32,0,8.581,0,8.521,0,16.778t0,16.193q0,3.968,0,7.851,0,1.941,0,3.859v1.913a5.607,5.607,0,0,0,.25,1.825,5.061,5.061,0,0,0,3.924,3.407,10.146,10.146,0,0,0,1.821.082l7.285,0,13.931.009,25,.021,36.206.055,9.844.032,2.56.017c.577.005.872.017.872.017s-.295.012-.872.018l-2.56.017-9.844.032-36.206.054-25,.021-13.931.009-7.285,0a10.508,10.508,0,0,1-1.875-.085A5.373,5.373,0,0,1,453,124.764a5.938,5.938,0,0,1-.267-1.923v-1.913q0-1.918,0-3.859,0-3.882,0-7.851,0-7.937,0-16.193t0-16.778q0-4.261,0-8.581a6.169,6.169,0,0,1,.273-2.19,5.4,5.4,0,0,1,5.12-3.7l65.757.013,28.7.016h1.678a7.2,7.2,0,0,1,1.684.135,5.364,5.364,0,0,1,4.142,4.683c.054,1.089.013,2.124.025,3.173q-.006,6.258-.011,12c-.023,15.283-.042,27.652-.054,36.208-.021,2.139.024,4.032-.052,5.686a5.27,5.27,0,0,1-2.019,3.552,5.11,5.11,0,0,1-2.338,1.006,3.886,3.886,0,0,1-.651.058C554.821,128.313,554.746,128.311,554.746,128.311Z" transform="translate(-452.712 -61.778)" fill="#12263f"/>
          </g>
        </g>
        <g id="Grupo_55359" data-name="Grupo 55359" transform="translate(48.393 16.294)">
          <circle id="Elipse_4031" data-name="Elipse 4031" cx="7.117" cy="7.117" r="7.117" fill="#12263f"/>
        </g>
      </g>
      <g id="Grupo_55370" data-name="Grupo 55370" transform="translate(139.435)">
        <g id="Grupo_55365" data-name="Grupo 55365" transform="translate(0)">
          <g id="Grupo_55364" data-name="Grupo 55364">
            <g id="Grupo_55363" data-name="Grupo 55363">
              <g id="Grupo_55362" data-name="Grupo 55362">
                <g id="Grupo_55361" data-name="Grupo 55361">
                  <path id="Trazado_117267" data-name="Trazado 117267" d="M344.517,80.976a3.494,3.494,0,0,0,1.687-.6,3.2,3.2,0,0,0,1.193-1.766,5.153,5.153,0,0,0,.1-1.388q0-.762,0-1.618c.021-4.605.052-11.213.089-19.366q.02-3.067.042-6.417.012-1.674.023-3.413a9.649,9.649,0,0,0-.057-1.7,2.9,2.9,0,0,0-.761-1.434,2.737,2.737,0,0,0-1.446-.771,14.207,14.207,0,0,0-1.8-.038l-3.783.025-7.9.051-35.168.193a2.867,2.867,0,0,0-2.775,2.646q-.028,2.3-.056,4.566-.046,4.557-.09,8.973c-.062,5.882-.122,11.556-.179,16.963q-.011,1.014-.022,2.014a3.006,3.006,0,0,0,.436,1.752,2.742,2.742,0,0,0,1.352,1.119,4.764,4.764,0,0,0,1.815.175l7.45-.021,13.374-.028,19.364,0,5.265.03,1.37.023a2.735,2.735,0,0,1,.466.028,2.687,2.687,0,0,1-.466.033l-1.369.036-5.264.081-19.364.188-13.374.1-7.45.051a5.222,5.222,0,0,1-2.006-.2,3.28,3.28,0,0,1-1.621-1.331,3.566,3.566,0,0,1-.525-2.044q.009-1,.017-2.015c.046-5.406.094-11.081.144-16.963q.04-4.413.081-8.973.028-2.29.056-4.612a3.465,3.465,0,0,1,3.368-3.194l35.169-.146,7.9-.025,3.784-.011a14.015,14.015,0,0,1,1.892.054,3.233,3.233,0,0,1,1.708.919,3.4,3.4,0,0,1,.885,1.684,9.886,9.886,0,0,1,.058,1.8q-.021,1.739-.042,3.413-.042,3.345-.08,6.416C347.9,64.39,347.8,71,347.737,75.6q-.015.856-.029,1.618a5.3,5.3,0,0,1-.138,1.432,3.3,3.3,0,0,1-1.3,1.818,3,3,0,0,1-1.287.493A1.746,1.746,0,0,1,344.517,80.976Z" transform="translate(-293.073 -41.945)" fill="#12263f"/>
                </g>
              </g>
            </g>
          </g>
        </g>
        <g id="Grupo_55369" data-name="Grupo 55369" transform="translate(22.835 12.529)">
          <g id="Grupo_55368" data-name="Grupo 55368">
            <g id="Grupo_55367" data-name="Grupo 55367">
              <g id="Grupo_55366" data-name="Grupo 55366">
                <path id="Trazado_117268" data-name="Trazado 117268" d="M334.281,64.781l6.537,3.925-6.64,3.939-6.64,3.939.1-7.864.1-7.864Z" transform="translate(-327.538 -60.855)" fill="#aee6e6"/>
              </g>
            </g>
          </g>
        </g>
      </g>
      <g id="Grupo_55380" data-name="Grupo 55380" transform="translate(311.731 214.741)">
        <g id="Grupo_55375" data-name="Grupo 55375">
          <g id="Grupo_55374" data-name="Grupo 55374">
            <g id="Grupo_55373" data-name="Grupo 55373">
              <g id="Grupo_55372" data-name="Grupo 55372">
                <g id="Grupo_55371" data-name="Grupo 55371">
                  <path id="Trazado_117269" data-name="Trazado 117269" d="M604.566,405.087a3.483,3.483,0,0,0,1.687-.6,3.187,3.187,0,0,0,1.193-1.766,5.181,5.181,0,0,0,.105-1.388q0-.761,0-1.618c.021-4.605.052-11.213.089-19.366q.02-3.067.042-6.417.012-1.674.023-3.413a9.65,9.65,0,0,0-.056-1.7,2.9,2.9,0,0,0-.761-1.434,2.738,2.738,0,0,0-1.446-.771,14.331,14.331,0,0,0-1.8-.038l-3.783.026-7.9.05-35.169.193a2.866,2.866,0,0,0-2.776,2.646q-.028,2.3-.056,4.566-.046,4.557-.09,8.973c-.062,5.882-.122,11.556-.179,16.963q-.011,1.014-.022,2.015a3.006,3.006,0,0,0,.436,1.752,2.744,2.744,0,0,0,1.352,1.119,4.763,4.763,0,0,0,1.815.175l7.45-.021L578.1,405l19.364,0,5.265.031,1.37.023a2.793,2.793,0,0,1,.466.028,2.605,2.605,0,0,1-.466.033l-1.369.036-5.264.081-19.364.188-13.374.1-7.45.051a5.222,5.222,0,0,1-2.006-.2,3.28,3.28,0,0,1-1.621-1.331,3.566,3.566,0,0,1-.525-2.044q.009-1,.017-2.015c.046-5.406.094-11.081.144-16.963q.04-4.413.082-8.973.027-2.29.056-4.612a3.466,3.466,0,0,1,3.368-3.194l35.169-.146,7.9-.025,3.784-.011a14.131,14.131,0,0,1,1.892.054,3.237,3.237,0,0,1,1.709.919,3.4,3.4,0,0,1,.885,1.684,9.891,9.891,0,0,1,.058,1.8q-.021,1.739-.041,3.413-.043,3.346-.081,6.416c-.117,8.152-.213,14.759-.28,19.364q-.015.856-.029,1.618a5.27,5.27,0,0,1-.138,1.432,3.3,3.3,0,0,1-1.3,1.818,3,3,0,0,1-1.287.493A1.745,1.745,0,0,1,604.566,405.087Z" transform="translate(-553.122 -366.056)" fill="#12263f"/>
                </g>
              </g>
            </g>
          </g>
        </g>
        <g id="Grupo_55379" data-name="Grupo 55379" transform="translate(22.835 12.529)">
          <g id="Grupo_55378" data-name="Grupo 55378">
            <g id="Grupo_55377" data-name="Grupo 55377">
              <g id="Grupo_55376" data-name="Grupo 55376">
                <path id="Trazado_117270" data-name="Trazado 117270" d="M594.33,388.892l6.537,3.925-6.64,3.939-6.64,3.939.1-7.864.1-7.864Z" transform="translate(-587.587 -384.967)" fill="#aee6e6"/>
              </g>
            </g>
          </g>
        </g>
      </g>
    </g>
  </g>
</svg>
