<svg xmlns="http://www.w3.org/2000/svg" xmlns:xlink="http://www.w3.org/1999/xlink" width="398.917" height="422.709" viewBox="0 0 398.917 422.709">
  <defs>
    <linearGradient id="linear-gradient" x1="1.302" y1="0.5" x2="2.302" y2="0.5" gradientUnits="objectBoundingBox">
      <stop offset="0.01" stop-color="#cfdce5"/>
      <stop offset="0.05" stop-color="#d2dee7"/>
      <stop offset="0.37" stop-color="#e9edf1"/>
    </linearGradient>
    <linearGradient id="linear-gradient-2" x1="11.716" y1="1" x2="11.716" gradientUnits="objectBoundingBox">
      <stop offset="0.22" stop-color="#a7b1dd"/>
      <stop offset="0.42" stop-color="#a5addf"/>
      <stop offset="0.61" stop-color="#9da2e6"/>
      <stop offset="0.79" stop-color="#908ff0"/>
      <stop offset="0.92" stop-color="#847dfb"/>
    </linearGradient>
    <linearGradient id="linear-gradient-3" x1="16.67" x2="16.67" y2="0" xlink:href="#linear-gradient-2"/>
    <linearGradient id="linear-gradient-4" x1="21.624" x2="21.624" y2="0" xlink:href="#linear-gradient-2"/>
    <linearGradient id="linear-gradient-5" x1="26.575" x2="26.575" y2="0" xlink:href="#linear-gradient-2"/>
    <linearGradient id="linear-gradient-6" x1="31.529" x2="31.529" y2="0" xlink:href="#linear-gradient-2"/>
    <linearGradient id="linear-gradient-7" x1="36.483" y1="1" x2="36.483" gradientUnits="objectBoundingBox">
      <stop offset="0.01" stop-color="#fbbe52"/>
      <stop offset="0.27" stop-color="#fabb54"/>
      <stop offset="0.4" stop-color="#f9b656"/>
      <stop offset="0.88" stop-color="#fc952e"/>
    </linearGradient>
    <linearGradient id="linear-gradient-8" x1="-2.135" y1="0.5" x2="-1.135" y2="0.5" xlink:href="#linear-gradient-7"/>
    <linearGradient id="linear-gradient-9" x1="-30.444" y1="0.498" x2="-29.446" y2="0.498" xlink:href="#linear-gradient"/>
    <linearGradient id="linear-gradient-10" x1="-1.039" y1="0.5" x2="-0.039" y2="0.5" xlink:href="#linear-gradient"/>
    <linearGradient id="linear-gradient-11" x1="-0.001" y1="0.5" x2="1" y2="0.5" xlink:href="#linear-gradient-7"/>
    <linearGradient id="linear-gradient-12" x1="0.001" y1="0.498" x2="1" y2="0.498" gradientUnits="objectBoundingBox">
      <stop offset="0.23" stop-color="#5c52cf"/>
      <stop offset="0.43" stop-color="#5f55d6"/>
      <stop offset="0.92" stop-color="#655ae2"/>
    </linearGradient>
    <linearGradient id="linear-gradient-13" x1="0" y1="0.5" x2="1" y2="0.5" xlink:href="#linear-gradient-2"/>
    <linearGradient id="linear-gradient-14" y1="0.492" x2="1" y2="0.492" gradientUnits="objectBoundingBox">
      <stop offset="0.01" stop-color="#995eea"/>
      <stop offset="0.25" stop-color="#7a4ed8"/>
      <stop offset="0.57" stop-color="#593cc4"/>
      <stop offset="0.83" stop-color="#4431b7"/>
      <stop offset="1" stop-color="#3d2db3"/>
    </linearGradient>
    <linearGradient id="linear-gradient-15" x1="0.002" y1="0.5" x2="1" y2="0.5" xlink:href="#linear-gradient-14"/>
    <linearGradient id="linear-gradient-16" x1="0.001" y1="0.499" x2="1" y2="0.499" xlink:href="#linear-gradient-14"/>
    <linearGradient id="linear-gradient-17" x1="0.001" y1="0.5" x2="1" y2="0.5" xlink:href="#linear-gradient-14"/>
    <linearGradient id="linear-gradient-18" x1="0" y1="0.5" x2="1" y2="0.5" xlink:href="#linear-gradient-7"/>
    <linearGradient id="linear-gradient-19" x1="1.926" y1="0.5" x2="2.926" y2="0.5" xlink:href="#linear-gradient"/>
    <linearGradient id="linear-gradient-20" x1="0.5" y1="1" x2="0.5" gradientUnits="objectBoundingBox">
      <stop offset="0.08" stop-color="#847dfb"/>
      <stop offset="0.21" stop-color="#908ff0"/>
      <stop offset="0.39" stop-color="#9da2e6"/>
      <stop offset="0.58" stop-color="#a5addf"/>
      <stop offset="0.78" stop-color="#a7b1dd"/>
    </linearGradient>
    <linearGradient id="linear-gradient-21" x1="0.014" y1="1.02" x2="0.711" y2="0.278" gradientUnits="objectBoundingBox">
      <stop offset="0.01" stop-color="#cfdce5"/>
      <stop offset="0.1" stop-color="#d2dee7"/>
      <stop offset="0.84" stop-color="#e9edf1"/>
    </linearGradient>
    <linearGradient id="linear-gradient-22" y1="0.5" x2="1" y2="0.5" gradientUnits="objectBoundingBox">
      <stop offset="0.01" stop-color="#cfdce5"/>
      <stop offset="0.1" stop-color="#d2dee7"/>
      <stop offset="0.78" stop-color="#e9edf1"/>
    </linearGradient>
    <linearGradient id="linear-gradient-25" x1="0.044" y1="0.441" x2="0.735" y2="0.441" gradientUnits="objectBoundingBox">
      <stop offset="0.08" stop-color="#a7b1dd"/>
      <stop offset="0.2" stop-color="#c2c9e7"/>
      <stop offset="0.34" stop-color="#dde0f2"/>
      <stop offset="0.48" stop-color="#f0f1f9"/>
      <stop offset="0.62" stop-color="#fbfcfe"/>
      <stop offset="0.78" stop-color="#fff"/>
    </linearGradient>
    <linearGradient id="linear-gradient-26" x1="-0.006" y1="0.501" x2="1" y2="0.501" xlink:href="#linear-gradient-14"/>
    <linearGradient id="linear-gradient-27" x1="0" y1="0.506" x2="1" y2="0.506" xlink:href="#linear-gradient-14"/>
    <linearGradient id="linear-gradient-28" x1="-0.001" y1="0.5" x2="1" y2="0.5" xlink:href="#linear-gradient"/>
    <linearGradient id="linear-gradient-29" x1="0.002" y1="0.5" y2="0.5" xlink:href="#linear-gradient-22"/>
    <linearGradient id="linear-gradient-30" x1="-1.566" y1="0.499" x2="1.698" y2="0.499" xlink:href="#linear-gradient-2"/>
  </defs>
  <g id="analytics-02" transform="translate(31.857 359.976)">
    <g id="OBJECTS" transform="translate(-39.963 -367)">
      <path id="Trazado_129082" data-name="Trazado 129082" d="M42.9,77.365C59.851,56.487,87.585,26.7,114.847,18.558,149.339,8.168,270.828,56.845,298.22,66.112c19.542,6.644,85.433,70.158,93.918,88.348s10.781,38.564,10.178,58.513a218.794,218.794,0,0,1-34.2,109.7c-10.439,16.5-24.086,28.955-36.577,43.645-12.719,14.95-21.692,27.946-42.8,32.913a67.291,67.291,0,0,1-54.6-11.09c-13.582-10.113-22.409-25.08-35.567-35.714-24.3-19.673-58.855-20.731-87.257-32.164-29.574-11.888-45.469-38.824-49.687-68.154-.9-.326-1.775-.684-2.671-1.026-36.2-14.608-51.9-51.657-50.794-88.088C9.106,131.9,22.932,101.972,42.9,77.365Z" transform="translate(0 6.341)" fill="#7d6eb2"/>
      <path id="Trazado_129083" data-name="Trazado 129083" d="M131.671,227.456c-2.736,16.5,2.443,34.33,11.937,47.879,26.3,37.587,79.929,38.482,118.525,21.676,39.574-17.246,69.05-57.471,67.633-101.507-.5-15.878-4.12-36.072-15.113-48.286-17.7-19.689-26.757,1.335-36.333,15.178-13.028,18.777-39.9,15.031-59.572,14.022C184.925,174.707,138.055,189.006,131.671,227.456Z" transform="translate(77.207 83.073)" fill="#aee6e6"/>
      <path id="Trazado_129084" data-name="Trazado 129084" d="M274.573,110.316a77.1,77.1,0,0,1,1.922,33.6c-2.508,14.934-8.81,28.532-15.813,41.544-22.572,42.049-68.4,76.232-125.267,53.172C97.29,223.157,68.009,189.675,46.821,156.55,15.7,107.954-6.969,9.9,73.2,7.066c43.059-1.531,81.785,38.743,122.825,50.6,19.233,5.553,40.893,5.863,57.455,19.64A66.314,66.314,0,0,1,274.573,110.316Z" transform="translate(6.385 0)" fill="#f5ca56" opacity="0.95"/>
      <rect id="Rectángulo_30759" data-name="Rectángulo 30759" width="191.5" height="103.689" rx="1.83" transform="translate(35.96 189.675)" fill="url(#linear-gradient)"/>
      <rect id="Rectángulo_30760" data-name="Rectángulo 30760" width="10.618" height="31.252" transform="translate(191.551 247.52)" fill="url(#linear-gradient-2)"/>
      <rect id="Rectángulo_30761" data-name="Rectángulo 30761" width="10.618" height="51.38" transform="translate(165.25 227.392)" fill="url(#linear-gradient-3)"/>
      <rect id="Rectángulo_30762" data-name="Rectángulo 30762" width="10.618" height="59.002" transform="translate(138.949 219.786)" fill="url(#linear-gradient-4)"/>
      <rect id="Rectángulo_30763" data-name="Rectángulo 30763" width="10.618" height="51.869" transform="translate(112.665 226.903)" fill="url(#linear-gradient-5)"/>
      <rect id="Rectángulo_30764" data-name="Rectángulo 30764" width="10.618" height="56.38" transform="translate(86.364 222.392)" fill="url(#linear-gradient-6)"/>
      <rect id="Rectángulo_30765" data-name="Rectángulo 30765" width="10.618" height="74.375" transform="translate(60.063 204.397)" fill="url(#linear-gradient-7)"/>
      <rect id="Rectángulo_30766" data-name="Rectángulo 30766" width="5.472" height="41.805" transform="translate(181.193 236.984)" fill="#cfdce5"/>
      <rect id="Rectángulo_30767" data-name="Rectángulo 30767" width="5.472" height="41.805" transform="translate(154.274 236.984)" fill="#cfdce5"/>
      <rect id="Rectángulo_30768" data-name="Rectángulo 30768" width="5.472" height="41.805" transform="translate(127.81 236.984)" fill="#cfdce5"/>
      <rect id="Rectángulo_30769" data-name="Rectángulo 30769" width="5.472" height="41.805" transform="translate(102.73 236.984)" fill="#cfdce5"/>
      <rect id="Rectángulo_30770" data-name="Rectángulo 30770" width="5.472" height="41.805" transform="translate(74.443 236.984)" fill="#cfdce5"/>
      <line id="Línea_215" data-name="Línea 215" x1="155.118" transform="translate(52.995 278.528)" fill="none" stroke="#a7b1dd" stroke-miterlimit="10" stroke-width="0.5"/>
      <line id="Línea_216" data-name="Línea 216" y2="48.531" transform="translate(298.66 72.143)" fill="none" stroke="#fff" stroke-miterlimit="10" stroke-width="0.5" stroke-dasharray="2 2"/>
      <rect id="Rectángulo_30771" data-name="Rectángulo 30771" width="39.574" height="23.076" rx="1.92" transform="translate(278.873 47.405)" fill="url(#linear-gradient-8)"/>
      <path id="Trazado_129085" data-name="Trazado 129085" d="M184.21,78.262a3.778,3.778,0,1,0,3.762-3.762,3.778,3.778,0,0,0-3.762,3.762Z" transform="translate(110.688 42.411)" fill="#fff"/>
      <path id="Trazado_129086" data-name="Trazado 129086" d="M107.08,40.352a3.778,3.778,0,1,0,3.778-3.762,3.778,3.778,0,0,0-3.778,3.762Z" transform="translate(62.209 18.583)" fill="#fff"/>
      <line id="Línea_217" data-name="Línea 217" x1="105.448" transform="translate(170.315 58.935)" fill="none" stroke="#fff" stroke-miterlimit="10" stroke-width="0.5" stroke-dasharray="2 2"/>
      <line id="Línea_218" data-name="Línea 218" x2="54.149" transform="translate(321.053 58.935)" fill="none" stroke="#a7b1dd" stroke-miterlimit="10" stroke-width="0.5" stroke-dasharray="2 2"/>
      <path id="Trazado_129087" data-name="Trazado 129087" d="M228.89,40.352a3.778,3.778,0,1,0,3.762-3.762A3.778,3.778,0,0,0,228.89,40.352Z" transform="translate(138.771 18.583)" fill="url(#linear-gradient-9)"/>
      <rect id="Rectángulo_30772" data-name="Rectángulo 30772" width="76.737" height="55.794" rx="1" transform="translate(257.914 133.881)" fill="url(#linear-gradient-10)"/>
      <path id="Trazado_129088" data-name="Trazado 129088" d="M210.736,111.6v-4.43a1.857,1.857,0,0,0-1.857-1.857H207.5a2.036,2.036,0,0,1-1.938-1.384,14.123,14.123,0,0,0-.765-1.84,2.068,2.068,0,0,1,.407-2.361l.961-.977a1.84,1.84,0,0,0,0-2.622l-3.127-3.143a1.889,1.889,0,0,0-2.638,0l-.977.977a2.068,2.068,0,0,1-2.345.407,15.111,15.111,0,0,0-1.84-.765,2.068,2.068,0,0,1-1.384-1.954V90.283a1.857,1.857,0,0,0-1.857-1.873h-4.43a1.873,1.873,0,0,0-1.873,1.873v1.368a2.068,2.068,0,0,1-1.384,1.954,14.885,14.885,0,0,0-1.824.765,2.085,2.085,0,0,1-2.361-.407l-.977-.977a1.873,1.873,0,0,0-2.622,0l-3.143,3.143a1.873,1.873,0,0,0,0,2.622l.977.977a2.052,2.052,0,0,1,.391,2.361,16.718,16.718,0,0,0-.749,1.84,2.068,2.068,0,0,1-1.954,1.384h-1.319a1.857,1.857,0,0,0-1.873,1.857v4.43a1.857,1.857,0,0,0,1.873,1.857h1.368a2.068,2.068,0,0,1,1.954,1.384,18.141,18.141,0,0,0,.749,1.84,2.052,2.052,0,0,1-.391,2.361l-.977.961a1.889,1.889,0,0,0,0,2.638l3.143,3.143a1.873,1.873,0,0,0,2.622,0l.977-.977a2.084,2.084,0,0,1,2.361-.407,14.883,14.883,0,0,0,1.824.765,2.068,2.068,0,0,1,1.384,1.954v1.335a1.889,1.889,0,0,0,1.873,1.873h4.43a1.873,1.873,0,0,0,1.808-1.873v-1.368a2.068,2.068,0,0,1,1.384-1.954,15.112,15.112,0,0,0,1.84-.765,2.068,2.068,0,0,1,2.345.407l.977.977a1.889,1.889,0,0,0,2.638,0l3.127-3.143a1.857,1.857,0,0,0,0-2.638l-.961-.961a2.052,2.052,0,0,1-.407-2.361,15.116,15.116,0,0,0,.765-1.84,2.036,2.036,0,0,1,1.938-1.384h1.384a1.857,1.857,0,0,0,1.857-1.824Zm-20.145,7.85a10.1,10.1,0,1,1,9.25-9.25,10.1,10.1,0,0,1-9.25,9.25Z" transform="translate(101.034 51.154)" fill="url(#linear-gradient-11)"/>
      <path id="Trazado_129089" data-name="Trazado 129089" d="M212.243,109.289v-3a1.238,1.238,0,0,0-1.254-1.254h-.863a1.4,1.4,0,0,1-1.319-.945,9.067,9.067,0,0,0-.521-1.238,1.449,1.449,0,0,1,.277-1.629l.668-.651a1.254,1.254,0,0,0,0-1.775l-2.117-2.117a1.27,1.27,0,0,0-1.791,0l-.651.651a1.368,1.368,0,0,1-1.629.261c-.407-.179-.814-.358-1.238-.5a1.384,1.384,0,0,1-.945-1.319v-.928a1.238,1.238,0,0,0-1.254-1.254h-3a1.254,1.254,0,0,0-1.254,1.254v1.042a1.384,1.384,0,0,1-.928,1.319c-.423.147-.847.326-1.254.5a1.335,1.335,0,0,1-1.629-.261l-.668-.651a1.254,1.254,0,0,0-1.775,0l-2.117,2.117a1.254,1.254,0,0,0,0,1.775l.651.651a1.384,1.384,0,0,1,.277,1.629,11.714,11.714,0,0,0-.521,1.238,1.384,1.384,0,0,1-1.319.945h-.928a1.254,1.254,0,0,0-1.254,1.254v3a1.254,1.254,0,0,0,1.254,1.254h.928a1.384,1.384,0,0,1,1.319.945,11.707,11.707,0,0,0,.521,1.238,1.368,1.368,0,0,1-.277,1.629l-.651.668a1.254,1.254,0,0,0,0,1.775l2.117,2.117a1.254,1.254,0,0,0,1.775,0l.668-.651a1.368,1.368,0,0,1,1.629-.277,11.971,11.971,0,0,0,1.254.521,1.384,1.384,0,0,1,.928,1.319v.928a1.254,1.254,0,0,0,1.254,1.254h3a1.238,1.238,0,0,0,1.254-1.254v-.928a1.384,1.384,0,0,1,.945-1.319,11.709,11.709,0,0,0,1.238-.521,1.384,1.384,0,0,1,1.629.277l.651.651a1.27,1.27,0,0,0,1.791,0l2.117-2.117a1.254,1.254,0,0,0,0-1.775l-.668-.668a1.417,1.417,0,0,1-.277-1.629,9.071,9.071,0,0,0,.521-1.238,1.4,1.4,0,0,1,1.319-1.059h.928a1.238,1.238,0,0,0,1.189-1.254ZM198.628,114.6a6.824,6.824,0,1,1,6.254-6.254,6.824,6.824,0,0,1-6.254,6.254Z" transform="translate(110.487 54.41)" fill="url(#linear-gradient-12)"/>
      <line id="Línea_219" data-name="Línea 219" y2="23.5" transform="translate(352.386 141.975)" fill="none" stroke="#fff" stroke-miterlimit="10" stroke-width="0.5" stroke-dasharray="2 2"/>
      <path id="Trazado_129090" data-name="Trazado 129090" d="M217.19,105.772a3.778,3.778,0,1,0,3.778-3.762,3.778,3.778,0,0,0-3.778,3.762Z" transform="translate(131.417 59.703)" fill="#fff"/>
      <rect id="Rectángulo_30773" data-name="Rectángulo 30773" width="64.344" height="37.912" rx="1.37" transform="translate(320.206 100.512)" fill="url(#linear-gradient-13)"/>
      <path id="Trazado_129091" data-name="Trazado 129091" d="M204,92.473l6.547-12.165L221.1,89.1,231,73.419l13.908,13.093,9.608-17.7" transform="translate(123.127 38.835)" fill="none" stroke="#e9edf1" stroke-miterlimit="10" stroke-width="0.5"/>
      <path id="Trazado_129092" data-name="Trazado 129092" d="M206.134,83.931A1.547,1.547,0,1,1,204.6,82.4a1.547,1.547,0,0,1,1.531,1.531Z" transform="translate(122.524 47.377)" fill="#fff"/>
      <path id="Trazado_129093" data-name="Trazado 129093" d="M209.9,76.661a1.531,1.531,0,1,1-1.531-1.531A1.531,1.531,0,0,1,209.9,76.661Z" transform="translate(124.912 42.807)" fill="#fff"/>
      <path id="Trazado_129094" data-name="Trazado 129094" d="M217.468,82a2.524,2.524,0,1,1-.7-1.81A2.524,2.524,0,0,1,217.468,82Z" transform="translate(128.42 45.497)" fill="#fff"/>
      <path id="Trazado_129095" data-name="Trazado 129095" d="M223.53,73.044a2.41,2.41,0,1,1-2.394-2.394A2.41,2.41,0,0,1,223.53,73.044Z" transform="translate(132.373 39.992)" fill="#fff"/>
      <path id="Trazado_129096" data-name="Trazado 129096" d="M231.631,80.328a1.547,1.547,0,1,1-.72-1.471A1.547,1.547,0,0,1,231.631,80.328Z" transform="translate(138.555 45.003)" fill="#fff"/>
      <path id="Trazado_129097" data-name="Trazado 129097" d="M237.18,69.439a1.531,1.531,0,1,1-.412-1.146A1.531,1.531,0,0,1,237.18,69.439Z" transform="translate(142.06 38.207)" fill="#fff"/>
      <line id="Línea_220" data-name="Línea 220" y2="41.609" transform="translate(60.291 307.158)" fill="none" stroke="#847dfb" stroke-miterlimit="10" stroke-width="0.75" stroke-dasharray="2 2"/>
      <line id="Línea_221" data-name="Línea 221" x1="58.171" transform="translate(60.291 351.617)" fill="none" stroke="#847dfb" stroke-miterlimit="10" stroke-width="0.75" stroke-dasharray="2 2"/>
      <path id="Trazado_129098" data-name="Trazado 129098" d="M51.762,221.861a7.8,7.8,0,1,1-7.719-7.8,7.8,7.8,0,0,1,7.719,7.8Z" transform="translate(17.633 130.13)" fill="#26aab7"/>
      <path id="Trazado_129099" data-name="Trazado 129099" d="M45.477,192.778A3.843,3.843,0,1,1,41.633,189a3.843,3.843,0,0,1,3.843,3.778Z" transform="translate(18.657 114.379)" fill="url(#linear-gradient-14)"/>
      <line id="Línea_222" data-name="Línea 222" y2="29.77" transform="translate(168.051 369.987)" fill="none" stroke="#847dfb" stroke-miterlimit="10" stroke-width="0.75" stroke-dasharray="2 2"/>
      <path id="Trazado_129100" data-name="Trazado 129100" d="M112.595,253.077a4.511,4.511,0,1,1-1.321-3.206,4.527,4.527,0,0,1,1.321,3.206Z" transform="translate(59.984 151.809)" fill="url(#linear-gradient-15)"/>
      <rect id="Rectángulo_30774" data-name="Rectángulo 30774" width="90.547" height="52.797" rx="4.39" transform="translate(122.664 315.284)" fill="#3a277b"/>
      <path id="Trazado_129101" data-name="Trazado 129101" d="M83.79,231.574h70.679s1.629-28.744-4.381-29.509-9.771,10.341-13.777,14.168-8.322,1.107-13.224,2.313A24.884,24.884,0,0,0,114,222.389c-2.883,1.743-6.97-2.215-11.4-.782s-6.514,6.824-9.2,7.084a62.337,62.337,0,0,0-9.608,2.882Z" transform="translate(47.57 122.567)" fill="#fff"/>
      <line id="Línea_223" data-name="Línea 223" y2="41.121" transform="translate(130.986 321.472)" fill="none" stroke="#fff" stroke-miterlimit="10" stroke-width="0.25"/>
      <line id="Línea_224" data-name="Línea 224" y2="41.121" transform="translate(141.881 321.472)" fill="none" stroke="#fff" stroke-miterlimit="10" stroke-width="0.25"/>
      <line id="Línea_225" data-name="Línea 225" y2="41.121" transform="translate(152.775 321.472)" fill="none" stroke="#fff" stroke-miterlimit="10" stroke-width="0.25"/>
      <line id="Línea_226" data-name="Línea 226" y2="41.121" transform="translate(163.654 321.472)" fill="none" stroke="#fff" stroke-miterlimit="10" stroke-width="0.25"/>
      <line id="Línea_227" data-name="Línea 227" y2="41.121" transform="translate(174.549 321.472)" fill="none" stroke="#fff" stroke-miterlimit="10" stroke-width="0.25"/>
      <line id="Línea_228" data-name="Línea 228" y2="41.121" transform="translate(185.444 321.472)" fill="none" stroke="#fff" stroke-miterlimit="10" stroke-width="0.25"/>
      <line id="Línea_229" data-name="Línea 229" y2="41.121" transform="translate(196.323 321.472)" fill="none" stroke="#fff" stroke-miterlimit="10" stroke-width="0.25"/>
      <line id="Línea_230" data-name="Línea 230" y2="41.121" transform="translate(207.218 321.472)" fill="none" stroke="#fff" stroke-miterlimit="10" stroke-width="0.25"/>
      <line id="Línea_231" data-name="Línea 231" x1="82.258" transform="translate(127.712 357.691)" fill="none" stroke="#fff" stroke-miterlimit="10" stroke-width="0.5"/>
      <line id="Línea_232" data-name="Línea 232" x2="41.17" transform="translate(212.038 173.682)" fill="none" stroke="#847dfb" stroke-miterlimit="10" stroke-width="0.75" stroke-dasharray="2 2"/>
      <path id="Trazado_129102" data-name="Trazado 129102" d="M170.661,112.411a7.784,7.784,0,1,1-2.274-5.515,7.8,7.8,0,0,1,2.274,5.515Z" transform="translate(92.366 61.337)" fill="url(#linear-gradient-16)"/>
      <line id="Línea_233" data-name="Línea 233" y2="23.5" transform="translate(212.038 148.749)" fill="none" stroke="#847dfb" stroke-miterlimit="10" stroke-width="0.75" stroke-dasharray="2 2"/>
      <path id="Trazado_129103" data-name="Trazado 129103" d="M142.893,111.746a6.4,6.4,0,1,1-1.869-4.536,6.416,6.416,0,0,1,1.869,4.536Z" transform="translate(76.653 61.789)" fill="url(#linear-gradient-17)"/>
      <path id="Trazado_129104" data-name="Trazado 129104" d="M89.4,149.441a7.8,7.8,0,1,1-7.8-7.8A7.8,7.8,0,0,1,89.4,149.441Z" transform="translate(41.291 84.612)" fill="url(#linear-gradient-18)"/>
      <line id="Línea_234" data-name="Línea 234" y2="100.041" transform="translate(122.892 127.562)" fill="none" stroke="#847dfb" stroke-miterlimit="10" stroke-width="0.75" stroke-dasharray="2 2"/>
      <rect id="Rectángulo_30775" data-name="Rectángulo 30775" width="149.695" height="93.804" rx="1.48" transform="translate(37.41 75.107)" fill="url(#linear-gradient-19)"/>
      <path id="Trazado_129105" data-name="Trazado 129105" d="M33.08,123.752H159.666V56.51l-15.943,9.576H122.682l-12.6,16.53H80.7L72.442,98.2H57.948l-8.81,17.165Z" transform="translate(15.697 31.104)" fill="url(#linear-gradient-20)"/>
      <line id="Línea_235" data-name="Línea 235" y2="71.802" transform="translate(74.198 85.92)" fill="none" stroke="#a7b1dd" stroke-miterlimit="10" stroke-width="0.5"/>
      <line id="Línea_236" data-name="Línea 236" y2="71.802" transform="translate(95.272 85.92)" fill="none" stroke="#a7b1dd" stroke-miterlimit="10" stroke-width="0.5"/>
      <line id="Línea_237" data-name="Línea 237" y2="71.802" transform="translate(116.361 85.92)" fill="none" stroke="#a7b1dd" stroke-miterlimit="10" stroke-width="0.5"/>
      <line id="Línea_238" data-name="Línea 238" y2="71.802" transform="translate(137.451 85.92)" fill="none" stroke="#a7b1dd" stroke-miterlimit="10" stroke-width="0.5"/>
      <line id="Línea_239" data-name="Línea 239" y2="71.802" transform="translate(158.524 85.92)" fill="none" stroke="#a7b1dd" stroke-miterlimit="10" stroke-width="0.5"/>
      <line id="Línea_240" data-name="Línea 240" x2="136.309" transform="translate(48.777 163.944)" fill="none" stroke="#a7b1dd" stroke-miterlimit="10" stroke-width="2"/>
      <rect id="Rectángulo_30776" data-name="Rectángulo 30776" width="54.41" height="45.876" rx="1.5" transform="translate(88.236 44.393)" fill="#26aab7"/>
      <path id="Trazado_129106" data-name="Trazado 129106" d="M77.8,51.019V36.59A13.224,13.224,0,1,0,90.956,51.019Z" transform="translate(35.486 18.583)" fill="#fff"/>
      <path id="Trazado_129107" data-name="Trazado 129107" d="M89.274,49.468h0A14.152,14.152,0,0,0,75.122,35.3H74.21V49.468Z" transform="translate(41.549 17.773)" fill="url(#linear-gradient-21)"/>
      <rect id="Rectángulo_30777" data-name="Rectángulo 30777" width="85.531" height="50.403" rx="1.83" transform="translate(181.926 96.05)" fill="#fff"/>
      <rect id="Rectángulo_30778" data-name="Rectángulo 30778" width="70.239" height="6.188" transform="translate(188.896 105.74)" fill="url(#linear-gradient-22)"/>
      <rect id="Rectángulo_30779" data-name="Rectángulo 30779" width="70.239" height="6.188" transform="translate(188.896 118.735)" fill="url(#linear-gradient-22)"/>
      <rect id="Rectángulo_30780" data-name="Rectángulo 30780" width="70.239" height="6.188" transform="translate(188.896 131.731)" fill="url(#linear-gradient-22)"/>
      <path id="Trazado_129108" data-name="Trazado 129108" d="M197.82,157.08a33.89,33.89,0,1,1-33.89-33.89,33.89,33.89,0,0,1,33.89,33.89Z" transform="translate(76.64 73.015)" fill="#fff" opacity="0.4"/>
      <path id="Trazado_129109" data-name="Trazado 129109" d="M183.658,153.133a23.8,23.8,0,1,0,0,.005Z" transform="translate(80.575 76.962)" fill="#fff" opacity="0.4"/>
      <path id="Trazado_129110" data-name="Trazado 129110" d="M170.86,149.569a14.445,14.445,0,1,1-14.429-14.429,14.445,14.445,0,0,1,14.429,14.429Z" transform="translate(84.139 80.526)" fill="#fff" opacity="0.4"/>
      <path id="Trazado_129111" data-name="Trazado 129111" d="M296.826,268.441c-.13,2.459-28.841,3.062-64.181,1.352s-63.855-5.065-63.725-7.524,28.841-3.062,64.165-1.368S296.94,265.982,296.826,268.441Z" transform="translate(101.078 158.968)" fill="url(#linear-gradient-25)"/>
      <path id="Trazado_129112" data-name="Trazado 129112" d="M153.936,150.268a11.661,11.661,0,0,1-4.169-3.68c-1.254-2.182-1.971-3.371-.212-4.218s1.938-.619,2.948-.147c2.345,1.107.814,0,3.387,6.074Z" transform="translate(88.246 84.713)" fill="#fbbe52"/>
      <path id="Trazado_129113" data-name="Trazado 129113" d="M210.252,257.87s2.573,5.13,1.954,6.319-4.886,3.143-6.514,3.518-2.768.619-2.948,0c-.521-1.629,4.576-4.006,2.752-3.078-1.368.684,3.648-1.629,3.257-4.071-.375-2,0-2.215,0-2.215Z" transform="translate(122.314 157.667)" fill="url(#linear-gradient-26)"/>
      <path id="Trazado_129114" data-name="Trazado 129114" d="M179.246,257s.945,5.667,0,6.612-5.667,1.531-7.312,1.417-2.834-.228-2.834-.831c0-1.775,5.553-2.475,3.534-2.117-1.5.244,3.957-.489,4.25-2.964.244-2,.6-2.117.6-2.117Z" transform="translate(101.191 157.12)" fill="url(#linear-gradient-27)"/>
      <path id="Trazado_129115" data-name="Trazado 129115" d="M219.105,276.693c-1.335-6.384-5.732-75.988-8.143-81.15s-8.387-10.423-8.387-10.423-5.1,2.329-8.827,3.827c-1.319.554-3.55.879-3.436,6.319.163,7.41-3.518,14.657-.57,26.366,2.085,8.24,23.744,86.606,23.744,86.606l8.436-1.482A184.022,184.022,0,0,0,219.105,276.693Z" transform="translate(113.445 111.941)" fill="#260089"/>
      <path id="Trazado_129116" data-name="Trazado 129116" d="M205.058,185.634s-17.311-1.71-21.3-1.254c-1.433.163-3.648-.114-5,5.179-1.84,7.166-4.316,14.038-4.592,26.057-.212,8.5-.635,27.8.081,39.085a28.267,28.267,0,0,0-.407,5.618c0,6.254-1.629,45.094-1.629,45.094h8.762S191,264.7,190.743,261.98C191.411,261.442,205.058,185.634,205.058,185.634Z" transform="translate(103.146 111.427)" fill="#260089"/>
      <path id="Trazado_129117" data-name="Trazado 129117" d="M243.887,245.613c-2.443-18.859-9.315-72.942-10.488-77.73-1.433-5.8-10.895-9.136-16.188-10.52a35.828,35.828,0,0,0-9.771-.537h0c-4.755-1.629-23.239,5.765-28.19,4.739-7.426-1.547-22.7-17.914-22.7-17.914l-5.928,6.693s11.058,11.563,14.738,15.569a35.128,35.128,0,0,0,17.1,9.25,53.478,53.478,0,0,0,9.087,1.335c-.081.554-.163,1.124-.261,1.726-1.808,11.677-8.908,70.337-7.8,70.89s22.8.733,32.261,1.629,32.066,7.41,32.066,7.41A77.923,77.923,0,0,1,243.887,245.613Z" transform="translate(89.576 85.875)" fill="#fff"/>
      <path id="Trazado_129118" data-name="Trazado 129118" d="M171.242,235.1a65.427,65.427,0,0,0-.912,8.143c1.107.554,23.826.081,33.239.928s31.854,6.921,31.854,6.921a73.283,73.283,0,0,1-3.713-11.986c-2.427-18.858-14.266-73.9-15.439-78.707a11.09,11.09,0,0,0-3.355-5.7c-3.68,10.911-6.514,22.262-10.618,32.7C195.393,204.826,183.293,219.044,171.242,235.1Z" transform="translate(101.964 92.82)" fill="url(#linear-gradient-28)"/>
      <path id="Trazado_129119" data-name="Trazado 129119" d="M185.987,243.047c0-.293-1.221-29.216-.684-39.313s2.557-48.645,2.557-48.645h.782s-1.987,38.466-2.557,48.661.668,38.938.684,39.232Z" transform="translate(111.289 93.066)" fill="url(#linear-gradient-29)"/>
      <path id="Trazado_129120" data-name="Trazado 129120" d="M179.97,175.066l49.654-5.716,4.837,38.613-49.2,7.589Z" transform="translate(108.023 102.029)" fill="#26aab7"/>
      <path id="Trazado_129121" data-name="Trazado 129121" d="M214.125,187.914A91.886,91.886,0,0,0,210.868,170l-13.028,1.5c.651,2.915,1.335,5.863,1.905,8.615,1.889,9.218,3.469,9.983,2.98,20.292-.163,3.583-.212,7.3-.212,10.651l11.758-1.808a171.971,171.971,0,0,0-.147-21.334Z" transform="translate(119.255 102.437)" fill="url(#linear-gradient-30)"/>
      <path id="Trazado_129122" data-name="Trazado 129122" d="M205.211,197.387a10.683,10.683,0,0,1-.749,5.065c-1.059,2.068-1.629,3.127-3.159,2.28-.717-.391-.717-.391-.993-1.287s-.993-1.629,2.394-6.6Z" transform="translate(120.645 119.313)" fill="#fbbe52"/>
      <path id="Trazado_129123" data-name="Trazado 129123" d="M200.529,154.812s-3.453-1.515-5.114,2.72,1.629,15.862,3.5,25.08,3.469,9.967,3,20.275,0,21.855,0,21.855l10.748,1.4s1.84-25.145.684-35.73a85.058,85.058,0,0,0-5.944-25.356C203.77,155.756,200.529,154.812,200.529,154.812Z" transform="translate(117.446 92.725)" fill="#fff"/>
      <path id="Trazado_129124" data-name="Trazado 129124" d="M193.9,158.509c-1.091-4.136-.684-1.905-.928-4.039-.212-1.759.179-8.24.179-8.24l-7.719,2.345v10.634s.375,1.629,3.5,1.629a5.961,5.961,0,0,0,4.967-2.329Z" transform="translate(111.455 87.497)" fill="#fbbe52"/>
      <path id="Trazado_129125" data-name="Trazado 129125" d="M182.224,145.4c.651,4.609,1.629,11.4,6.872,12.084,3.257.423,6.514-3.045,6.872-7.687.456-6.514-3.078-12.817-6.872-12.817S181.279,138.641,182.224,145.4Z" transform="translate(109.352 81.683)" fill="#fbbe52"/>
      <path id="Trazado_129126" data-name="Trazado 129126" d="M208.882,137.185a1.335,1.335,0,0,0-.993-2.247,1.254,1.254,0,0,0-1.059-2.036,1.173,1.173,0,0,0-.847.375h0a1.3,1.3,0,0,0-1.221-1.971,1.628,1.628,0,0,0-.391.114,1.156,1.156,0,0,0-1.254-.814,1.3,1.3,0,0,0-.586.179,5.292,5.292,0,0,0-1.384-1.857,4.071,4.071,0,0,0-5.521.44,4.886,4.886,0,0,0-.977-.7,3.045,3.045,0,0,0-3.632.7,3.469,3.469,0,0,0-2.866-.684,1.987,1.987,0,0,0-1.629,1.531,7.41,7.41,0,0,0-4.886,3.257,5.585,5.585,0,0,0-.651,1.629,4.087,4.087,0,0,0-1.107.977c-2.443,3.111-2.231,7.166,1.629,9.087a4.071,4.071,0,0,0,2.622.407,2.3,2.3,0,0,0,.977,3.55,1.857,1.857,0,0,0,2.1-.977,2.849,2.849,0,0,0,.309-1.629,1.189,1.189,0,0,0,.765-1.27c-.114-.717-.342-1.466.44-1.726a.5.5,0,0,0,.212-.1c.1.114.179.228.277.326a5.114,5.114,0,0,0,5.048,1.449h0a5.636,5.636,0,0,0,1.629,1.107h0a1.417,1.417,0,0,0,.619,1.514h0l.147.13-.114.114c.2-.179-.2.081-.228.114a1.173,1.173,0,0,0,.8,2.133,3.062,3.062,0,0,0,.391,1.238.667.667,0,0,0,.2.228.88.88,0,0,0-.261.342v.114a1.335,1.335,0,0,0,.57,1.759,1.27,1.27,0,0,0,1.629-.423h0c1.954,1.238,3.99,0,4.886-2.394a1.172,1.172,0,0,0,.423,0,5.114,5.114,0,0,0,1.514-4.234v-.277a1.189,1.189,0,0,0,1.629-.9,1.628,1.628,0,0,0-.163-1.01,1.352,1.352,0,0,0,.163-1.14h.147a1.319,1.319,0,0,0,.961-2.085,1.14,1.14,0,0,0,0-.537,1.629,1.629,0,0,0-.423-.961.961.961,0,0,0,0-.309v-.13a1.287,1.287,0,0,0,.114-2.41Z" transform="translate(106.959 76.071)" fill="#fff"/>
      <path id="Trazado_129127" data-name="Trazado 129127" d="M193.114,145.985c-.651,1.791-1.873,2.98-2.736,2.671s-1.026-2.019-.375-3.794,1.873-3,2.736-2.671S193.766,144.193,193.114,145.985Z" transform="translate(114.079 84.924)" fill="#fbbe52"/>
      <path id="Trazado_129128" data-name="Trazado 129128" d="M191.721,145.749a5.329,5.329,0,0,1-.635.472h-.5c-.261-.407-1.091-.554-1.629-.619a2.443,2.443,0,0,0-1.384.179h-.9a.945.945,0,0,0-.554-.212.831.831,0,0,0-.586.44l-.326.1h-.228a1.726,1.726,0,0,0-1.059.163,5.262,5.262,0,0,0-1.189,0c-.261,0-.423.326-.228.472h0c0,.163,0,.358.309.407h.57l.326.1c.309.44.6.472,1.156.261h0a1.156,1.156,0,0,0,1.629.619.472.472,0,0,0,.57,0,.684.684,0,0,0,.147-.228h.228a2.1,2.1,0,0,0,.342.309.228.228,0,0,0,.244,0,2.248,2.248,0,0,1,.309-.244h.749a.733.733,0,0,0,.309.244.537.537,0,0,0,.5-.114,12.489,12.489,0,0,0,1.938-1.384.147.147,0,0,0,0-.179l.293-.293C192.584,145.814,192.014,145.489,191.721,145.749Z" transform="translate(109.561 87.082)" fill="#fff"/>
      <path id="Trazado_129129" data-name="Trazado 129129" d="M188.929,146.668a3.029,3.029,0,1,1,3.029-3.029,3.029,3.029,0,0,1-3.029,3.029Zm0-5.244a2.215,2.215,0,1,0,2.215,2.215A2.215,2.215,0,0,0,188.929,141.424Z" transform="translate(111.75 83.964)" fill="#260089"/>
      <path id="Trazado_129130" data-name="Trazado 129130" d="M184.329,146.668a3.029,3.029,0,1,1,3.029-3.029,3.029,3.029,0,0,1-3.029,3.029Zm0-5.244a2.215,2.215,0,1,0,2.215,2.215A2.215,2.215,0,0,0,184.329,141.424Z" transform="translate(108.859 83.964)" fill="#260089"/>
      <path id="Trazado_129131" data-name="Trazado 129131" d="M187.406,141.459a4.152,4.152,0,0,0-1.107-.179,3.762,3.762,0,0,0-1.629.375v1.205a2.72,2.72,0,0,1,1.629-.537,2.573,2.573,0,0,1,1.107.261Z" transform="translate(110.977 84.385)" fill="#260089"/>
    </g>
  </g>
</svg>
