<svg xmlns="http://www.w3.org/2000/svg" xmlns:xlink="http://www.w3.org/1999/xlink" width="549.073" height="450.154" viewBox="0 0 549.073 450.154">
  <defs>
    <linearGradient id="linear-gradient" x1="0.66" y1="-0.184" x2="0.331" y2="1.022" gradientUnits="objectBoundingBox">
      <stop offset="0" stop-color="#2a90ff"/>
      <stop offset="0.85" stop-color="#003c67"/>
    </linearGradient>
    <linearGradient id="linear-gradient-2" x1="0.353" y1="-2.319" x2="0.554" y2="1.528" xlink:href="#linear-gradient"/>
    <linearGradient id="linear-gradient-3" x1="0.001" y1="0.5" x2="1" y2="0.5" gradientUnits="objectBoundingBox">
      <stop offset="0" stop-color="#ca4f24"/>
      <stop offset="1" stop-color="#ff9500"/>
    </linearGradient>
    <linearGradient id="linear-gradient-4" x1="0.455" y1="1.54" x2="0.576" y2="-0.021" xlink:href="#linear-gradient"/>
    <linearGradient id="linear-gradient-5" x1="-0.001" y1="0.501" x2="1" y2="0.501" xlink:href="#linear-gradient-3"/>
    <linearGradient id="linear-gradient-6" x1="0.002" y1="0.502" x2="1.002" y2="0.502" xlink:href="#linear-gradient-3"/>
    <linearGradient id="linear-gradient-7" x1="1.163" y1="1.233" x2="0.125" y2="0.086" xlink:href="#linear-gradient"/>
    <linearGradient id="linear-gradient-8" x1="0.477" y1="-0.112" x2="0.53" y2="1.281" xlink:href="#linear-gradient"/>
  </defs>
  <g id="OBJECT" transform="translate(-7.794 -3.8)">
    <path id="Trazado_130551" data-name="Trazado 130551" d="M226.014,26.931C329.33,14.166,365.451,78.733,408.4,136.985S527.744,195.6,535.478,247.778s-118.03,123.166-315.914,99.539S-37.978,59.592,226.014,26.931Z" transform="translate(21.051 10.98)" fill="#e6f1ff"/>
    <rect id="Rectángulo_30868" data-name="Rectángulo 30868" width="209.592" height="102.243" rx="1.67" transform="matrix(0.403, 0.915, -0.915, 0.403, 101.371, 151.445)" fill="#26aab7"/>
    <path id="Trazado_130552" data-name="Trazado 130552" d="M157.577,292.246l-45.97,20.243a16.331,16.331,0,0,0-25.833-5.68L18.76,154.607a16.074,16.074,0,0,0,4.925-1.3,16.346,16.346,0,0,0,8.535-21.15l46-20.258a16.285,16.285,0,0,0,21.316,7.976l.242-.106,66.379,150.766-.257.091A16.376,16.376,0,0,0,157.577,292.246Z" transform="translate(5.6 55.205)" fill="#aee6e6"/>
    <ellipse id="Elipse_4311" data-name="Elipse 4311" cx="34.474" cy="34.625" rx="34.474" ry="34.625" transform="translate(50.524 249.478) rotate(-23.75)" fill="#26aab7"/>
    <text id="_" data-name="$" transform="matrix(0.403, 0.915, -0.915, 0.403, 73.121, 258.853)" fill="#fff" font-size="65" font-family="SegoeUI-Bold, Segoe UI" font-weight="700"><tspan x="0" y="0">$</tspan></text>
    <path id="Trazado_130556" data-name="Trazado 130556" d="M396.763,97.25H94.263a4.683,4.683,0,0,0-4.683,4.683V267.217a4.683,4.683,0,0,0,4.683,4.7h118.77v28.612h-18.4a14.2,14.2,0,0,0-14.185,14.185H317.437a14.185,14.185,0,0,0-14.185-14.185H279.534V271.915H396.763a4.7,4.7,0,0,0,4.7-4.7V101.933a4.7,4.7,0,0,0-4.7-4.683Z" transform="translate(41.767 47.724)" fill="url(#linear-gradient)"/>
    <rect id="Rectángulo_30869" data-name="Rectángulo 30869" width="286.773" height="150.736" rx="2.77" transform="translate(145.079 156.077)" fill="#cee5ff"/>
    <line id="Línea_241" data-name="Línea 241" y2="75.353" transform="translate(278.805 189.342)" fill="none" stroke="#fff" stroke-miterlimit="10" stroke-width="1"/>
    <line id="Línea_242" data-name="Línea 242" y2="75.353" transform="translate(266.191 189.342)" fill="none" stroke="#fff" stroke-miterlimit="10" stroke-width="1"/>
    <line id="Línea_243" data-name="Línea 243" y2="75.353" transform="translate(253.561 189.342)" fill="none" stroke="#fff" stroke-miterlimit="10" stroke-width="1"/>
    <line id="Línea_244" data-name="Línea 244" y2="75.353" transform="translate(293.051 189.342)" fill="none" stroke="#fff" stroke-miterlimit="10" stroke-width="1"/>
    <line id="Línea_245" data-name="Línea 245" y2="75.353" transform="translate(307.297 189.342)" fill="none" stroke="#fff" stroke-miterlimit="10" stroke-width="1"/>
    <line id="Línea_246" data-name="Línea 246" y2="75.353" transform="translate(321.542 189.342)" fill="none" stroke="#fff" stroke-miterlimit="10" stroke-width="1"/>
    <line id="Línea_247" data-name="Línea 247" y2="75.353" transform="translate(335.788 189.342)" fill="none" stroke="#fff" stroke-miterlimit="10" stroke-width="1"/>
    <line id="Línea_248" data-name="Línea 248" y2="75.353" transform="translate(350.034 189.342)" fill="none" stroke="#fff" stroke-miterlimit="10" stroke-width="1"/>
    <line id="Línea_249" data-name="Línea 249" y2="75.353" transform="translate(364.264 189.342)" fill="none" stroke="#fff" stroke-miterlimit="10" stroke-width="1"/>
    <line id="Línea_250" data-name="Línea 250" y2="75.353" transform="translate(378.51 189.342)" fill="none" stroke="#fff" stroke-miterlimit="10" stroke-width="1"/>
    <line id="Línea_251" data-name="Línea 251" y2="75.353" transform="translate(392.756 189.342)" fill="none" stroke="#fff" stroke-miterlimit="10" stroke-width="1"/>
    <line id="Línea_252" data-name="Línea 252" y2="75.353" transform="translate(407.002 189.342)" fill="none" stroke="#fff" stroke-miterlimit="10" stroke-width="1"/>
    <path id="Trazado_130557" data-name="Trazado 130557" d="M109.62,208.014H369.246s-10.575-59.536-42.526-62.769S290.585,180.2,275.69,185.762s-19.1-13.808-42.737-14.669-23.627,21.255-45.321,21.527-22.011-11.391-47.9-7.553S109.62,208.014,109.62,208.014Z" transform="translate(52.001 72.135)" fill="#f5ca56"/>
    <rect id="Rectángulo_30870" data-name="Rectángulo 30870" width="79.447" height="49.641" rx="3.57" transform="translate(165.73 172.166)" fill="#7697ff"/>
    <path id="Trazado_130558" data-name="Trazado 130558" d="M115.41,155.125s5.015-19.412,12.78-19.911c7.372-.453,5.182,11.179,10.2,10.7s5.5-18.491,14.246-21.044c6.632-1.949,8.248,11.481,14.08,11.814s13.762-14.79,13.762-14.79" transform="translate(54.958 60.307)" fill="none" stroke="#fff" stroke-linecap="round" stroke-linejoin="round" stroke-width="1"/>
    <line id="Línea_253" data-name="Línea 253" x2="271.757" transform="translate(154.173 280.648)" fill="none" stroke="#fff" stroke-miterlimit="10" stroke-width="1"/>
    <path id="Trazado_130559" data-name="Trazado 130559" d="M171.31,212.87h66.47s-.091,2.946-14,6.511-26.558-.574-35.29,4.728a52.194,52.194,0,0,1-17.207,6.6Z" transform="translate(83.49 106.769)" fill="url(#linear-gradient-2)"/>
    <ellipse id="Elipse_4313" data-name="Elipse 4313" cx="53.901" cy="10.061" rx="53.901" ry="10.061" transform="translate(93.822 433.832)" fill="#e6f1ff"/>
    <path id="Trazado_130560" data-name="Trazado 130560" d="M126.469,294.052c-3.882-1.828-6.949-3.369-6.949-3.369V286h-9.91l.68,5.015a49.253,49.253,0,0,0-.332,8.248,12.311,12.311,0,0,0,3.58.453c3.308.227,9.91,0,9.91,0s6.148.166,7.553-.68S130.337,295.865,126.469,294.052Z" transform="translate(51.996 144.115)" fill="#003c67"/>
    <path id="Trazado_130561" data-name="Trazado 130561" d="M78.024,279.79l-1.511,4.532a46.441,46.441,0,0,0-4.034,6.043l3.021,4.623c2.024,3.142,7.357,5.6,11.073,5.937a20.56,20.56,0,0,0,5.937,0c1.8-.393-.2-2.855-3.7-5.121l-2.689-2.87-1.284-4.245,1.511-4.351Z" transform="translate(33.034 140.944)" fill="#003c67"/>
    <path id="Trazado_130562" data-name="Trazado 130562" d="M133.756,169.23,125.643,222.1a3.339,3.339,0,0,0,3.293,3.852h0a3.339,3.339,0,0,0,3.324-2.916l6.8-53.735Z" transform="translate(60.164 84.483)" fill="#003c67"/>
    <path id="Trazado_130563" data-name="Trazado 130563" d="M97.576,179.75S75.218,204.8,71.29,215.9c.514,15.53,20.168,26.981,20.168,26.981L94,234.512l-9.427-14.8,9.774-11.844Z" transform="translate(32.427 89.855)" fill="#7d6eb2"/>
    <path id="Trazado_130564" data-name="Trazado 130564" d="M109.753,157.989S113,167.99,113,172.93s-5.121,6.753-5.121,6.753l-.514,6.481H96.595l-.68-7.856s-5.635-8.022-5.635-16.618S107.366,152.309,109.753,157.989Z" transform="translate(42.124 76.885)" fill="#ffd2a1"/>
    <path id="Trazado_130565" data-name="Trazado 130565" d="M109.292,158.537a28.9,28.9,0,0,1-5.8,5.8,18.128,18.128,0,0,1,2.221,4.789,5.272,5.272,0,0,1-.438,3.248s-.257-3.021-2.387-2.795-2.055,3.021-1.1,5.272,4,2.387,4,2.387h0a7.78,7.78,0,0,1-7.07,2.6l-1.979-.3a20.5,20.5,0,0,1-7.176-8.7,12.539,12.539,0,0,1,0-9.306s-.77-4.441,4.789-7.478,16.225-2.085,17.252-1.4,0,2.13,0,2.13S113.643,156.558,109.292,158.537Z" transform="translate(41.301 75.658)" fill="url(#linear-gradient-3)"/>
    <path id="Trazado_130566" data-name="Trazado 130566" d="M92.2,177.362l1.284-4.185s.514-.514,7.176,0,9.064,3.49,9.064,3.49l.483,2.055S96.218,176.5,92.2,177.362Z" transform="translate(43.105 86.382)" fill="#0075ae"/>
    <path id="Trazado_130567" data-name="Trazado 130567" d="M114.144,177.394l4.532,3.021a8.928,8.928,0,0,1,3.882,6.33c.529,4.275,1.375,11.738,2.221,21.542,1.36,15.892,1.873,42.012,1.873,42.012L84.64,248.034s.106-38.22.68-49.989c.861-17.252,10.756-22.026,10.756-22.026a39.731,39.731,0,0,1,18.068,1.375Z" transform="translate(39.244 87.709)" fill="#7d6eb2"/>
    <path id="Trazado_130568" data-name="Trazado 130568" d="M141.361,183.336l-13.6,15.817L112.658,181.3a.469.469,0,0,0-.166-.166c-7.13-4.683-12.282,3.52-9.774,8.868,1.964,4.215,12.69,15.953,19.08,21.482a9.412,9.412,0,0,0,13.385-1.1c6.828-8.143,11.36-22.313,11.36-22.313Z" transform="translate(48.148 89.849)" fill="#7d6eb2"/>
    <path id="Trazado_130569" data-name="Trazado 130569" d="M128.27,186.02l1.073-2.055a3.55,3.55,0,0,1-.846-2.387,9.064,9.064,0,0,1,.846-3.988l1.828,2.342,5.8-3.762a2.4,2.4,0,0,1,.287,2.674s.861,1.767.317,2.734a5.484,5.484,0,0,1-.257,3.188,9.185,9.185,0,0,1-3.475,2.553l-1.269,2.13Z" transform="translate(61.525 88.027)" fill="#ffd2a1"/>
    <path id="Trazado_130570" data-name="Trazado 130570" d="M138.191,318.9H126.408l-6.481-44.4-10-24.05a1.344,1.344,0,0,0,0-.2,227.019,227.019,0,0,1-5.136,28.008c-3.233,11.783-17.932,39.625-17.932,39.625l-6.436-2.734-6.043-2.568L87.024,272.8s1.722-46.106,2.9-50.215l42.012-1.012s.091,1.163.257,3.142h0c.634,7.8,2.342,28.31,3.837,41.242C137.859,282.148,138.191,318.9,138.191,318.9Z" transform="translate(34.005 111.212)" fill="url(#linear-gradient-4)"/>
    <path id="Trazado_130571" data-name="Trazado 130571" d="M129.776,169.23l-.257,1.662a2.523,2.523,0,0,0,2.493,2.9h4.668a2.538,2.538,0,0,0,2.478-2.009l.529-2.553Z" transform="translate(62.149 84.483)" fill="#003c67"/>
    <path id="Trazado_130572" data-name="Trazado 130572" d="M149.078,124.677c-16.512-1.511-31.332,12.69-33.1,31.724s10.167,35.788,26.679,37.314,31.332-12.69,33.1-31.724S165.59,126.218,149.078,124.677Zm20.258,36.634c-1.511,15.515-13.49,27.087-26.92,25.833s-23.129-14.835-21.693-30.35,13.506-27.041,26.92-25.833S170.786,145.812,169.336,161.311Z" transform="translate(55.16 61.674)" fill="#003c67"/>
    <path id="Trazado_130573" data-name="Trazado 130573" d="M167.721,159.29c-1.511,15.515-13.49,27.087-26.92,25.833s-23.129-14.835-21.693-30.35,13.49-27.071,26.92-25.833S169.172,143.776,167.721,159.29Z" transform="translate(56.774 63.861)" fill="#0075ae" opacity="0.21"/>
    <path id="Trazado_130574" data-name="Trazado 130574" d="M120.652,245.922a112.593,112.593,0,0,0,6.919,29.791s3.384.861,4.275,3.021c.8,1.919-3.5,25.349-1.118,40.139h-4.351l-6.481-44.4-10-24.05a1.342,1.342,0,0,0,0-.2c-1.511-3.021-9.683-3.142-9.683-3.142S96.6,270.7,96.043,272.873s2.885,3.913,2.659,5.423-6.254,1.994-7.553,1.314-10.242,15.741-10.756,35.516l-6.043-2.568,12.644-39.791s1.722-46.106,2.9-50.215l42.012-1.012s.091,1.163.257,3.142h0C129.883,225.513,119.142,230.272,120.652,245.922Z" transform="translate(33.989 111.197)" fill="#003c67"/>
    <path id="Trazado_130575" data-name="Trazado 130575" d="M268.711,32.467s-9.653-1.012-13.264,2.417-1.012,6.043-1.012,6.043a4.532,4.532,0,0,0-.514,5.7,4.94,4.94,0,0,0,5.7,1.828s2.613,3.021,5.71,1.707c0,0,3.671-6.964,3.671-9.064S268.711,32.467,268.711,32.467Z" transform="translate(125.299 14.569)" fill="url(#linear-gradient-5)"/>
    <path id="Trazado_130576" data-name="Trazado 130576" d="M278.589,51.54s2.024,27.948,3.233,34.429l-8.037,1.677s-3.112-.363-4.683-14.155S278.589,51.54,278.589,51.54Z" transform="translate(133.368 24.38)" fill="#7d6eb2"/>
    <path id="Trazado_130577" data-name="Trazado 130577" d="M283.378,36.684a28.342,28.342,0,0,1-3.4,10.575c-3.021,5.529-6.768,6.783-8.007,6.33s-7.448-6.209-7.9-7.9-.347-10.575,3.837-15.016S284.269,27.318,283.378,36.684Z" transform="translate(130.785 12.436)" fill="#ffd2a1"/>
    <path id="Trazado_130578" data-name="Trazado 130578" d="M268.659,43.13,247.948,50.2a108.057,108.057,0,0,0,0,17.041,221.248,221.248,0,0,0,3.021,21.935s-4.532,15.711-3.308,23.265a173.2,173.2,0,0,1,21.663-6.707c11.391-2.644,17.146-2.4,17.146-2.4L281.44,87.982S289.6,59.793,289.6,55.835l-12.72-10.454Z" transform="translate(122.389 20.085)" fill="#3a277b"/>
    <path id="Trazado_130579" data-name="Trazado 130579" d="M270.653,45.311a11.3,11.3,0,0,0-1.012,5.59c.257,3.127,1.012,3.55,1.012,3.55L269.6,59.784s-7.327-4.154-8.6-11.345l4.411-11.088Z" transform="translate(129.309 17.133)" fill="#ffd2a1"/>
    <path id="Trazado_130580" data-name="Trazado 130580" d="M267.541,41.045s1.511.453,2.885-2.024a8.127,8.127,0,0,0,1.178-4.29,15.364,15.364,0,0,0,5.031,4.789c3.49,2.145,4.789.574,4.789.574a4.834,4.834,0,0,0,6.043-.227c3.157-2.6,3.384-8.127-1.632-12.085s-12.085-3.611-14.4-2.311A7.553,7.553,0,0,0,263.991,30c-2.6,5.167-.423,16.149-.423,16.149S267.043,43.931,267.541,41.045Z" transform="translate(130.185 10.613)" fill="url(#linear-gradient-6)"/>
    <path id="Trazado_130581" data-name="Trazado 130581" d="M272.15,76.953s.363-1.118,3.6-3.021,4.049-1.39,4.049-1.39l9.064,14.548-6.587,3.354Z" transform="translate(135.003 35.073)" fill="#ffd2a1"/>
    <path id="Trazado_130582" data-name="Trazado 130582" d="M247.571,93.014s-.468,6.723,13.2,15.107,32.57,9.895,32.57,9.895l21.573-15.938L285.474,81.14S263.675,82,247.571,93.014Z" transform="translate(122.449 39.496)" fill="url(#linear-gradient-7)"/>
    <path id="Trazado_130583" data-name="Trazado 130583" d="M300.809,94.77s4.185,3.112,3.021,12.373-24.836,41.634-24.836,41.634l-4.895-2.07a84.07,84.07,0,0,1,3.882-23.793,40.789,40.789,0,0,1,12.584-18.974Z" transform="translate(135.999 46.457)" fill="#e1b589"/>
    <path id="Trazado_130584" data-name="Trazado 130584" d="M280.247,129.729s.211,8.913,1.193,12.448a2.7,2.7,0,0,1-2.749,1.616c-2.251,0-4.26-4.925-4.774-7.553s-1.057-5.408-1.057-5.408l2.553-4.532Z" transform="translate(135.365 62.559)" fill="#e1b589"/>
    <path id="Trazado_130585" data-name="Trazado 130585" d="M275.1,127.83a11.6,11.6,0,0,0-3.188,4.351,15.186,15.186,0,0,0-.982,3.7l.967,1.964,1.843-1.616a17.3,17.3,0,0,0,1.148,4.819c.982,2.387,5.408,6.481,8.143,6.753s-1.178-9.291-1.345-11.134c0,0,.242,1.435-1.843,1.088S275.145,132.71,275.1,127.83Z" transform="translate(134.38 63.34)" fill="#003c67"/>
    <path id="Trazado_130586" data-name="Trazado 130586" d="M250.086,47.65a11.889,11.889,0,0,1,6.783,6.843c2.342,5.514,3.414,35.38,3.414,35.38l-8.158,1.677s-3.475-6.481-6.587-21.95S248.409,47.771,250.086,47.65Z" transform="translate(120.962 22.394)" fill="#7d6eb2"/>
    <path id="Trazado_130587" data-name="Trazado 130587" d="M272.15,98.093l10.786-28.431,29.5-2.4L302.364,94.014Z" transform="translate(135.003 32.408)" fill="#a3c1ff"/>
    <path id="Trazado_130588" data-name="Trazado 130588" d="M276.567,91.607,263.5,85.127l17.856-5.167Z" transform="translate(130.585 38.894)" fill="#7697ff"/>
    <path id="Trazado_130589" data-name="Trazado 130589" d="M249.6,78.983s16.255,9.064,31.543,11.632l2.523-4.94L257.546,72.26S255.386,73.287,249.6,78.983Z" transform="translate(123.487 34.962)" fill="#ffd2a1"/>
    <path id="Trazado_130590" data-name="Trazado 130590" d="M270.54,86.259l3.9,1.511,2.931-6.979h-6.345S269.951,85.352,270.54,86.259Z" transform="translate(134.09 39.318)" fill="#ffd2a1"/>
    <path id="Trazado_130591" data-name="Trazado 130591" d="M295.818,100.21s3.867,3.475,1.828,12.584-28.7,39.1-28.7,39.1l-4.683-2.508a84.886,84.886,0,0,1,6.043-23.34,40.788,40.788,0,0,1,14.4-17.675Z" transform="translate(130.973 49.235)" fill="#ffd2a1"/>
    <path id="Trazado_130592" data-name="Trazado 130592" d="M270.523,133.827a80.214,80.214,0,0,0,0,12.493,2.659,2.659,0,0,1-2.87,1.36c-2.251-.181-3.777-5.318-4.049-7.916s-.544-5.5-.544-5.5l3.021-4.305Z" transform="translate(130.361 64.428)" fill="#ffd2a1"/>
    <path id="Trazado_130593" data-name="Trazado 130593" d="M265.66,131.4a11.648,11.648,0,0,0-3.6,4.034,14.744,14.744,0,0,0-1.314,3.6l.77,2.039,1.979-1.511a17.509,17.509,0,0,0,.695,4.925c.755,2.462,4.774,6.949,7.463,7.553s-.3-9.366-.272-11.209c0,0,.091,1.511-1.949.906S265.252,136.249,265.66,131.4Z" transform="translate(129.181 65.163)" fill="#003c67"/>
    <path id="Trazado_130594" data-name="Trazado 130594" d="M227.437,274.561c0,5.559-24.171,10.076-53.9,10.076s-53.886-4.532-53.886-10.076S143.821,264.5,173.536,264.5,227.437,269,227.437,274.561Z" transform="translate(57.123 133.136)" fill="#e6f1ff"/>
    <rect id="Rectángulo_30871" data-name="Rectángulo 30871" width="58.796" height="13.037" transform="translate(181.819 358.297)" fill="#f5ca56"/>
    <rect id="Rectángulo_30872" data-name="Rectángulo 30872" width="59.415" height="14.291" transform="translate(190.098 371.335)" fill="#dbb44c"/>
    <rect id="Rectángulo_30873" data-name="Rectángulo 30873" width="59.415" height="14.291" transform="translate(182.786 385.626)" fill="#c6a54b"/>
    <path id="Trazado_130595" data-name="Trazado 130595" d="M195.507,268.872a22.66,22.66,0,0,0-15.107-21.89V246h-7.3c-11.27.619-20.243,10.575-20.243,22.826,0,12.629,9.548,22.872,21.331,22.872h5.635v-.846a22.66,22.66,0,0,0,15.681-21.98Z" transform="translate(74.083 123.688)" fill="#be9a37"/>
    <ellipse id="Elipse_4314" data-name="Elipse 4314" cx="21.316" cy="22.872" rx="21.316" ry="22.872" transform="translate(233.167 369.688)" fill="#f5ca56"/>
    <ellipse id="Elipse_4315" data-name="Elipse 4315" cx="14.865" cy="15.938" rx="14.865" ry="15.938" transform="translate(239.618 376.622)" fill="#e6b042"/>
    <path id="Trazado_130596" data-name="Trazado 130596" d="M360.686,274.726c0,5.559-18.884,10.061-42.163,10.061s-42.163-4.532-42.163-10.061,18.884-10.076,42.163-10.076S360.686,269.167,360.686,274.726Z" transform="translate(137.153 133.212)" fill="#e6f1ff"/>
    <rect id="Rectángulo_30874" data-name="Rectángulo 30874" width="72.709" height="143.198" rx="6.14" transform="translate(430.357 261.704)" fill="#003c67"/>
    <rect id="Rectángulo_30875" data-name="Rectángulo 30875" width="72.709" height="143.198" rx="6.48" transform="translate(423.514 261.704)" fill="url(#linear-gradient-8)"/>
    <path id="Trazado_130597" data-name="Trazado 130597" d="M342.653,177.33H325.038a6.874,6.874,0,0,1-6.5,4.683h-7.312a6.874,6.874,0,0,1-6.511-4.683H290.852a5.167,5.167,0,0,0-5.182,5.167V305.844a5.182,5.182,0,0,0,5.182,5.182h51.8a5.182,5.182,0,0,0,5.182-5.182V182.5a5.167,5.167,0,0,0-5.182-5.167Z" transform="translate(141.907 88.619)" fill="#003c67"/>
    <rect id="Rectángulo_30876" data-name="Rectángulo 30876" width="6.874" height="56.303" transform="translate(441.914 315.122)" fill="#f7ffff"/>
    <rect id="Rectángulo_30877" data-name="Rectángulo 30877" width="6.874" height="61.394" transform="translate(454.105 310.031)" fill="#f7ffff"/>
    <rect id="Rectángulo_30878" data-name="Rectángulo 30878" width="6.874" height="70.927" transform="translate(466.704 300.499)" fill="#f7ffff"/>
    <path id="Trazado_130599" data-name="Trazado 130599" d="M253.56,91.124H182.543l-47.556-45.88L91.524,84.824,89.5,82.589l45.547-41.5L183.767,88.1H253.56Z" transform="translate(41.726 19.043)" fill="#7697ff"/>
    <circle id="Elipse_4316" data-name="Elipse 4316" cx="17.871" cy="17.871" r="17.871" transform="translate(156.314 74.901) rotate(-80.75)" fill="#7697ff"/>
    <path id="Trazado_130600" data-name="Trazado 130600" d="M125.876,39.143a4.668,4.668,0,1,1-4.668-4.653,4.668,4.668,0,0,1,4.668,4.653Z" transform="translate(55.535 15.673)" fill="#fff"/>
    <path id="Trazado_130601" data-name="Trazado 130601" d="M129.635,50.872H114.77V48.893A7.433,7.433,0,0,1,122.2,41.46h0a7.433,7.433,0,0,1,7.433,7.433Z" transform="translate(54.631 19.232)" fill="#fff"/>
    <circle id="Elipse_4317" data-name="Elipse 4317" cx="17.871" cy="17.871" r="17.871" transform="translate(106.934 85.528)" fill="#7697ff"/>
    <path id="Trazado_130602" data-name="Trazado 130602" d="M91.426,67.783a4.668,4.668,0,1,1-4.653-4.653,4.668,4.668,0,0,1,4.653,4.653Z" transform="translate(37.942 30.299)" fill="#fff"/>
    <path id="Trazado_130603" data-name="Trazado 130603" d="M95.2,79.522H80.33V77.513a7.433,7.433,0,0,1,7.433-7.433h0A7.433,7.433,0,0,1,95.2,77.513Z" transform="translate(37.043 33.848)" fill="#fff"/>
    <circle id="Elipse_4318" data-name="Elipse 4318" cx="17.871" cy="17.871" r="17.871" transform="translate(207.017 85.528)" fill="#7697ff"/>
    <path id="Trazado_130604" data-name="Trazado 130604" d="M157.676,67.783a4.668,4.668,0,1,1-4.668-4.653,4.668,4.668,0,0,1,4.668,4.653Z" transform="translate(71.775 30.299)" fill="#fff"/>
    <path id="Trazado_130605" data-name="Trazado 130605" d="M161.45,79.522H146.57V77.513a7.448,7.448,0,0,1,7.448-7.433h0a7.433,7.433,0,0,1,7.433,7.433Z" transform="translate(70.871 33.848)" fill="#fff"/>
    <circle id="Elipse_4319" data-name="Elipse 4319" cx="17.871" cy="17.871" r="17.871" transform="translate(286.056 85.528)" fill="#7697ff"/>
    <path id="Trazado_130606" data-name="Trazado 130606" d="M210.006,67.783a4.668,4.668,0,1,1-4.668-4.653A4.668,4.668,0,0,1,210.006,67.783Z" transform="translate(98.499 30.299)" fill="#fff"/>
    <path id="Trazado_130607" data-name="Trazado 130607" d="M213.78,79.522H198.9V77.513a7.433,7.433,0,0,1,7.433-7.433h0a7.448,7.448,0,0,1,7.448,7.433Z" transform="translate(97.595 33.848)" fill="#fff"/>
    <circle id="Elipse_4320" data-name="Elipse 4320" cx="32.193" cy="32.193" r="32.193" transform="translate(457.549 174.009)" fill="#26aab7"/>
    <circle id="Elipse_4321" data-name="Elipse 4321" cx="25.47" cy="25.47" r="25.47" transform="translate(464.272 180.731)" fill="#aee6e6"/>
    <circle id="Elipse_4322" data-name="Elipse 4322" cx="17.328" cy="17.328" r="17.328" transform="matrix(0.24, -0.971, 0.971, 0.24, 468.762, 218.868)" fill="#26aab7"/>
    <circle id="Elipse_4323" data-name="Elipse 4323" cx="8.913" cy="8.913" r="8.913" transform="translate(480.829 197.289)" fill="#aee6e6"/>
    <path id="Trazado_130608" data-name="Trazado 130608" d="M368.514,125.426h0l-1.073-5.031-2.689,1.39,2.447-2.523-.363-1.752s-6.3,3.021-7.871,5.892a11.843,11.843,0,0,0-.982,6.133L326.26,146.893l1.42,2.583L359.5,132.028a10.847,10.847,0,0,0,4.834,2.236c3.233.393,9.366-2.946,9.366-2.946Z" transform="translate(162.636 58.07)" fill="#003c67"/>
    <path id="Trazado_130609" data-name="Trazado 130609" d="M217.925,21.223V31.5l-1.571.544L204.54,36.118V16.57l12.569,4.366Z" transform="translate(100.475 6.521)" fill="#26aab7"/>
    <path id="Trazado_130610" data-name="Trazado 130610" d="M214.629,19.747V30.02l-1.511.544A6.964,6.964,0,0,1,211,25.291a6.617,6.617,0,0,1,2.87-5.831Z" transform="translate(103.771 7.997)" fill="#003c67"/>
    <path id="Trazado_130611" data-name="Trazado 130611" d="M171,23.323V43.355c21.059,4.849,51.816,18.128,51.816,18.128V5.21S192.15,18.489,171,23.323Z" transform="translate(83.347 0.72)" fill="#7d6eb2"/>
    <path id="Trazado_130612" data-name="Trazado 130612" d="M204.381,64.333h0a3.021,3.021,0,0,1-3.021-2.946V6.746A3.021,3.021,0,0,1,204.381,3.8h0a3.021,3.021,0,0,1,2.946,3.021V61.387A3.021,3.021,0,0,1,204.381,64.333Z" transform="translate(98.851 0)" fill="#003c67"/>
    <path id="Trazado_130613" data-name="Trazado 130613" d="M175.167,17.2h-2.236A10.091,10.091,0,0,0,162.84,27.291h0a10.091,10.091,0,0,0,10.091,10.076h2.236Z" transform="translate(79.18 6.843)" fill="#003c67"/>
    <path id="Trazado_130614" data-name="Trazado 130614" d="M171.094,30.16,169.01,53.107a6.707,6.707,0,0,0,6.677,7.327h0a6.692,6.692,0,0,0,6.647-5.861l2.553-20.379a19.382,19.382,0,0,0-13.793-4.034Z" transform="translate(82.316 13.417)" fill="#003c67"/>
  </g>
</svg>
