<svg xmlns="http://www.w3.org/2000/svg" xmlns:xlink="http://www.w3.org/1999/xlink" width="675.903" height="396.956" viewBox="0 0 675.903 396.956">
  <defs>
    <linearGradient id="linear-gradient" x1="23.623" y1="0.245" x2="23.623" y2="0.788" gradientUnits="objectBoundingBox">
      <stop offset="0.49" stop-color="#ebeff2"/>
      <stop offset="1" stop-color="#fff"/>
    </linearGradient>
    <linearGradient id="linear-gradient-2" x1="9.516" y1="3.751" x2="9.346" y2="0.906" gradientUnits="objectBoundingBox">
      <stop offset="0" stop-color="#311944"/>
      <stop offset="1" stop-color="#893976"/>
    </linearGradient>
    <linearGradient id="linear-gradient-3" x1="31.752" y1="-1.126" x2="31.319" y2="8.355" gradientUnits="objectBoundingBox">
      <stop offset="0" stop-color="#ff9085"/>
      <stop offset="1" stop-color="#fb6fbb"/>
    </linearGradient>
    <linearGradient id="linear-gradient-4" x1="420.375" y1="-0.219" x2="419.15" y2="1.484" xlink:href="#linear-gradient-3"/>
    <linearGradient id="linear-gradient-5" x1="426.72" y1="-0.306" x2="426.024" y2="1.604" xlink:href="#linear-gradient-3"/>
    <linearGradient id="linear-gradient-6" x1="433.104" y1="-0.46" x2="432.662" y2="1.814" xlink:href="#linear-gradient-3"/>
    <linearGradient id="linear-gradient-7" x1="440.321" y1="-0.183" x2="438.378" y2="1.435" xlink:href="#linear-gradient-3"/>
    <linearGradient id="linear-gradient-8" x1="446.909" y1="-0.19" x2="445.163" y2="1.444" xlink:href="#linear-gradient-3"/>
    <linearGradient id="linear-gradient-9" x1="453.654" y1="-0.178" x2="451.532" y2="1.428" xlink:href="#linear-gradient-3"/>
    <linearGradient id="linear-gradient-10" x1="460.286" y1="-0.197" x2="458.709" y2="1.454" xlink:href="#linear-gradient-3"/>
    <linearGradient id="linear-gradient-11" x1="466.606" y1="-0.248" x2="465.638" y2="1.524" xlink:href="#linear-gradient-3"/>
    <linearGradient id="linear-gradient-12" x1="-764.124" y1="0.5" x2="-763.123" y2="0.5" gradientUnits="objectBoundingBox">
      <stop offset="0" stop-color="#ffc444"/>
      <stop offset="1" stop-color="#f36f56"/>
    </linearGradient>
    <linearGradient id="linear-gradient-13" x1="-430.923" y1="0.5" x2="-429.923" y2="0.5" gradientUnits="objectBoundingBox">
      <stop offset="0" stop-color="#444b8c"/>
      <stop offset="1" stop-color="#26264f"/>
    </linearGradient>
    <linearGradient id="linear-gradient-14" x1="-430.217" y1="-0.006" x2="-430.33" y2="0.402" xlink:href="#linear-gradient-13"/>
    <linearGradient id="linear-gradient-15" x1="-115.54" y1="0.259" x2="-116.366" y2="0.958" xlink:href="#linear-gradient-2"/>
    <linearGradient id="linear-gradient-16" x1="-140.931" y1="0.268" x2="-141.938" y2="1.006" xlink:href="#linear-gradient-2"/>
    <linearGradient id="linear-gradient-17" x1="-929.637" y1="0.5" x2="-928.638" y2="0.5" xlink:href="#linear-gradient-13"/>
    <linearGradient id="linear-gradient-18" x1="-67.058" y1="0.075" x2="-67.38" y2="0.848" xlink:href="#linear-gradient-2"/>
    <linearGradient id="linear-gradient-19" x1="-1130.393" y1="143.506" x2="-1130.577" y2="144.624" xlink:href="#linear-gradient-12"/>
    <linearGradient id="linear-gradient-20" x1="-831.999" y1="0.822" x2="-832.146" y2="2.71" xlink:href="#linear-gradient-12"/>
    <linearGradient id="linear-gradient-21" x1="300.213" y1="-172.406" x2="300.262" y2="-174.187" xlink:href="#linear-gradient-12"/>
    <linearGradient id="linear-gradient-22" x1="-885.419" y1="-79.498" x2="-886.061" y2="-81.073" gradientUnits="objectBoundingBox">
      <stop offset="0" stop-color="#311944"/>
      <stop offset="1" stop-color="#6b3976"/>
    </linearGradient>
    <linearGradient id="linear-gradient-23" x1="781.235" y1="-49.146" x2="781.204" y2="-46" xlink:href="#linear-gradient-12"/>
    <linearGradient id="linear-gradient-24" x1="43.676" y1="26.133" x2="40.944" y2="32.012" gradientUnits="objectBoundingBox">
      <stop offset="0" stop-color="#311944"/>
      <stop offset="0.2" stop-color="#431f4e"/>
      <stop offset="1" stop-color="#893976"/>
    </linearGradient>
    <linearGradient id="linear-gradient-25" x1="139.739" y1="-0.164" x2="138.414" y2="2.142" xlink:href="#linear-gradient-3"/>
    <linearGradient id="linear-gradient-26" x1="148.131" y1="2.658" x2="148.099" y2="-0.721" xlink:href="#linear-gradient-2"/>
    <linearGradient id="linear-gradient-27" x1="196.085" y1="-0.075" x2="195.643" y2="3.01" gradientUnits="objectBoundingBox">
      <stop offset="0" stop-color="#aa80f9"/>
      <stop offset="1" stop-color="#6165d7"/>
    </linearGradient>
    <linearGradient id="linear-gradient-28" x1="48.779" y1="0.538" x2="49.167" y2="0.335" xlink:href="#linear-gradient-2"/>
    <linearGradient id="linear-gradient-29" x1="-96.234" y1="1.412" x2="-95.665" y2="0.638" xlink:href="#linear-gradient-2"/>
    <linearGradient id="linear-gradient-30" x1="-86.154" y1="2.376" x2="-85.642" y2="-0.518" xlink:href="#linear-gradient-2"/>
    <linearGradient id="linear-gradient-31" x1="-346.654" y1="0.499" x2="-345.654" y2="0.499" xlink:href="#linear-gradient-22"/>
    <linearGradient id="linear-gradient-32" x1="-1148.557" y1="1.386" x2="-1145.816" y2="-4.63" xlink:href="#linear-gradient-12"/>
    <linearGradient id="linear-gradient-33" x1="-346.654" y1="0.501" x2="-345.653" y2="0.501" xlink:href="#linear-gradient-22"/>
    <linearGradient id="linear-gradient-34" x1="-1147.641" y1="1.386" x2="-1144.902" y2="-4.627" xlink:href="#linear-gradient-12"/>
    <linearGradient id="linear-gradient-35" x1="44.209" y1="0.458" x2="44.84" y2="0.52" gradientUnits="objectBoundingBox">
      <stop offset="0" stop-color="#26264f"/>
      <stop offset="1" stop-color="#444b8c"/>
    </linearGradient>
    <linearGradient id="linear-gradient-36" x1="62.288" y1="0.478" x2="62.919" y2="0.527" xlink:href="#linear-gradient-35"/>
    <linearGradient id="linear-gradient-37" x1="116.31" y1="0.639" x2="116.663" y2="0.366" gradientUnits="objectBoundingBox">
      <stop offset="0" stop-color="#e38ddd"/>
      <stop offset="1" stop-color="#9571f6"/>
    </linearGradient>
    <linearGradient id="linear-gradient-38" x1="149.483" y1="-96.827" x2="149.535" y2="-98.649" xlink:href="#linear-gradient-12"/>
    <linearGradient id="linear-gradient-39" x1="-347.043" y1="-81.997" x2="-347.683" y2="-83.636" xlink:href="#linear-gradient-22"/>
    <linearGradient id="linear-gradient-40" x1="296.577" y1="-89.117" x2="296.545" y2="-85.925" xlink:href="#linear-gradient-12"/>
    <linearGradient id="linear-gradient-41" x1="-454.63" y1="-101.774" x2="-455.437" y2="-103.727" xlink:href="#linear-gradient-22"/>
    <linearGradient id="linear-gradient-42" x1="-1814.888" y1="-1444.374" x2="-1814.71" y2="-1439.034" xlink:href="#linear-gradient-12"/>
    <linearGradient id="linear-gradient-43" x1="63.081" y1="2.659" x2="63.1" y2="1.716" xlink:href="#linear-gradient-35"/>
    <linearGradient id="linear-gradient-44" x1="62.627" y1="0.5" x2="63.626" y2="0.5" xlink:href="#linear-gradient-35"/>
    <linearGradient id="linear-gradient-45" x1="40.239" y1="0.634" x2="40.176" y2="0.382" xlink:href="#linear-gradient-35"/>
    <linearGradient id="linear-gradient-46" x1="40.054" y1="0.5" x2="41.054" y2="0.5" xlink:href="#linear-gradient-35"/>
    <linearGradient id="linear-gradient-47" x1="44.153" y1="0.499" x2="45.153" y2="0.499" xlink:href="#linear-gradient-35"/>
    <linearGradient id="linear-gradient-48" x1="190.704" y1="0.161" x2="190.974" y2="0.593" xlink:href="#linear-gradient-13"/>
    <linearGradient id="linear-gradient-49" x1="192.062" y1="0.5" x2="193.061" y2="0.5" xlink:href="#linear-gradient-35"/>
    <linearGradient id="linear-gradient-50" x1="155.354" y1="0.5" x2="156.355" y2="0.5" xlink:href="#linear-gradient-13"/>
    <linearGradient id="linear-gradient-51" x1="155.537" y1="0.5" x2="156.538" y2="0.5" xlink:href="#linear-gradient-35"/>
    <linearGradient id="linear-gradient-52" x1="207.82" y1="0.5" x2="208.819" y2="0.5" xlink:href="#linear-gradient-35"/>
    <linearGradient id="linear-gradient-53" x1="251.19" y1="-0.014" x2="251.422" y2="1.889" xlink:href="#linear-gradient-12"/>
    <linearGradient id="linear-gradient-54" x1="326.434" y1="-2.407" x2="326.613" y2="2.649" xlink:href="#linear-gradient-35"/>
    <linearGradient id="linear-gradient-55" x1="1212.97" y1="1.152" x2="1212.847" y2="-5.073" gradientUnits="objectBoundingBox">
      <stop offset="0" stop-color="#ab316d"/>
      <stop offset="1" stop-color="#792d3d"/>
    </linearGradient>
    <linearGradient id="linear-gradient-56" x1="527.1" y1="-1.485" x2="527.387" y2="1.472" xlink:href="#linear-gradient-35"/>
    <linearGradient id="linear-gradient-57" x1="880.068" y1="1.353" x2="879.98" y2="-3.035" xlink:href="#linear-gradient-55"/>
    <linearGradient id="linear-gradient-58" x1="176.85" y1="0.5" x2="177.85" y2="0.5" xlink:href="#linear-gradient-22"/>
    <linearGradient id="linear-gradient-59" x1="190.058" y1="0.5" x2="191.059" y2="0.5" xlink:href="#linear-gradient-35"/>
    <linearGradient id="linear-gradient-60" x1="88.632" y1="0.5" x2="89.632" y2="0.5" xlink:href="#linear-gradient-22"/>
    <linearGradient id="linear-gradient-61" x1="-606.615" y1="8.032" x2="-608.105" y2="11.199" xlink:href="#linear-gradient-55"/>
    <linearGradient id="linear-gradient-62" x1="230.636" y1="3.512" x2="231.642" y2="3.512" xlink:href="#linear-gradient-27"/>
    <linearGradient id="linear-gradient-63" x1="276.762" y1="21.056" x2="277.304" y2="23.576" xlink:href="#linear-gradient-3"/>
    <linearGradient id="linear-gradient-64" x1="357.395" y1="86.031" x2="356.593" y2="86.821" xlink:href="#linear-gradient-55"/>
    <linearGradient id="linear-gradient-65" x1="1562.61" y1="911.866" x2="1558.701" y2="917.025" xlink:href="#linear-gradient-55"/>
  </defs>
  <g id="analysis-1-01" transform="translate(-83.434 -46.057)">
    <g id="Illustration" transform="translate(55.48 46.057)">
      <path id="Trazado_129168" data-name="Trazado 129168" d="M541.32,987.362c89.673,3.88,235.8,10.2,240.089,43.407,1.833,14.173-22.841,28.2-35.266,35.269-52.723,29.976-106.141,19.922-153.278,16.275-99.109-7.664-96.1,18.752-193.972,16.278-129.33-3.27-253.736-52.414-250.941-75.96,1.733-14.605,53.606-19.233,157.346-28.485C430.658,982.965,519.668,986.428,541.32,987.362Z" transform="translate(-119.953 -701.799)" fill="#ebeff2"/>
      <path id="Trazado_129169" data-name="Trazado 129169" d="M737,1010.4c35.583.109,44.136,2.1,44.762,5.426,1.533,8.166-43.51,30.974-92.247,31.878-20.222.375-38.632-3.067-39.336,0-1.128,4.927,46.389,14.088,46.12,25.1-.3,12-57.284,22.726-109.873,25.1-89.624,4.035-187.494-15.274-187.188-32.556.136-7.561,37.168-15.31,111.228-30.52C555.229,1025.622,636.131,1010.1,737,1010.4Z" transform="translate(-295.269 -718.733)" fill="#d8dee8"/>
      <path id="Trazado_129170" data-name="Trazado 129170" d="M1649.953,1204.118c-23.331,2.19-41.78,4-42.04,8.139-.378,5.792,35.008,15.546,69.866,15.6,45.019.07,88.466-16.057,87.489-23.059C1763.916,1195.217,1679.3,1201.363,1649.953,1204.118Z" transform="translate(-1138.381 -850.731)" fill="#d8dee8"/>
      <path id="Trazado_129171" data-name="Trazado 129171" d="M312.975,1049.413c25.475-2.559,58.633-2.014,59,2.035.384,4.174-34.019,12.536-68.5,11.529-11.242-.33-29.7-1.863-29.84-4.748C273.481,1054.99,296.6,1051.064,312.975,1049.413Z" transform="translate(-207.656 -744.865)" fill="#d8dee8"/>
      <g id="Grupo_55936" data-name="Grupo 55936" transform="translate(576.681 129.795)" opacity="0.75">
        <path id="Trazado_129194" data-name="Trazado 129194" d="M1966.206,480.891l118-5.677a4.878,4.878,0,0,1,5.142,4.927v96.133a4.839,4.839,0,0,1-5.142,4.9l-118-6.279a4.591,4.591,0,0,1-4.017-4.764V485.639A4.572,4.572,0,0,1,1966.206,480.891Z" transform="translate(-1962.19 -475.206)" fill="#7d6eb2"/>
        <g id="Grupo_55934" data-name="Grupo 55934" transform="translate(7.498 0.006)" opacity="0.3">
          <path id="Trazado_129195" data-name="Trazado 129195" d="M2008.421,544.243c14.542-6.076,25.324,6.333,38.6-1.428,17.844-10.431,9.049-38.136,27.523-58.236a47.113,47.113,0,0,1,10.586-8.556l16.39-.789a4.879,4.879,0,0,1,5.142,4.927v96.127a4.839,4.839,0,0,1-5.142,4.9L1986.98,575.1C1991.423,559.692,1998.246,548.493,2008.421,544.243Z" transform="translate(-1986.98 -475.226)" fill="#fff"/>
        </g>
        <g id="Grupo_55935" data-name="Grupo 55935" transform="translate(16.691 13.254)" opacity="0.68">
          <path id="Trazado_129196" data-name="Trazado 129196" d="M2114.269,548.267l2.489-.018a27.775,27.775,0,0,1,1.815-7.241l-2.154-1.307a2.849,2.849,0,0,1-.935-3.744l.3-.584a2.5,2.5,0,0,1,3.5-1.086l2.175,1.3a26.65,26.65,0,0,1,4.972-5.444l-1.268-2.311a2.946,2.946,0,0,1,.953-3.829l.548-.354a2.483,2.483,0,0,1,3.575.907l1.279,2.32a24.5,24.5,0,0,1,6.957-2.166v-2.743a2.873,2.873,0,0,1,2.677-2.919l.65-.024a2.649,2.649,0,0,1,2.695,2.737v2.767a24.067,24.067,0,0,1,7.12,1.781l1.334-2.447a2.765,2.765,0,0,1,3.769-1.17l.581.33a2.873,2.873,0,0,1,1.016,3.893l-1.355,2.465a26.186,26.186,0,0,1,5.329,5.393l2.365-1.455a2.746,2.746,0,0,1,3.856.977l.342.6a2.977,2.977,0,0,1-1.038,3.986l-2.383,1.449a27.508,27.508,0,0,1,1.966,7.561l2.761-.024a2.858,2.858,0,0,1,2.849,2.894v.7a2.888,2.888,0,0,1-2.849,2.922h-2.767a27.774,27.774,0,0,1-1.984,7.561l2.377,1.425a2.955,2.955,0,0,1,1.034,3.974l-.342.6a2.761,2.761,0,0,1-3.856,1.013l-2.371-1.437a26.432,26.432,0,0,1-5.341,5.444l1.352,2.447a2.892,2.892,0,0,1-1.016,3.9l-.581.336a2.746,2.746,0,0,1-3.768-1.134l-1.337-2.441a24.364,24.364,0,0,1-7.126,1.833v2.761a2.68,2.68,0,0,1-2.695,2.761l-.647-.018a2.84,2.84,0,0,1-2.68-2.891v-2.752a24.272,24.272,0,0,1-6.935-2.117l-1.3,2.329a2.495,2.495,0,0,1-3.575.941l-.548-.348a2.925,2.925,0,0,1-.95-3.82l1.27-2.329a26.253,26.253,0,0,1-4.963-5.4l-2.168,1.322a2.483,2.483,0,0,1-3.493-1.046l-.3-.581a2.861,2.861,0,0,1,.932-3.753l2.159-1.331a27.6,27.6,0,0,1-1.781-7.228h-2.483a2.642,2.642,0,0,1-2.534-2.74v-.662A2.661,2.661,0,0,1,2114.269,548.267Zm27.154,22.684c10.444.157,19.076-8.7,19.076-19.786s-8.632-19.862-19.076-19.6c-10.232.251-18.371,9.107-18.371,19.786s8.139,19.447,18.371,19.6Z" transform="translate(-2083.2 -519.029)" fill="#fff"/>
          <path id="Trazado_129197" data-name="Trazado 129197" d="M2018.706,676.786l1.294.027a15.065,15.065,0,0,1,.935-3.859l-1.119-.738a1.6,1.6,0,0,1-.487-2.032l.16-.3a1.249,1.249,0,0,1,1.815-.514l1.128.741A13.33,13.33,0,0,1,2025,667.3l-.653-1.264a1.573,1.573,0,0,1,.49-2.026l.284-.178a1.285,1.285,0,0,1,1.839.563l.656,1.264a11.794,11.794,0,0,1,3.551-1v-1.461a1.427,1.427,0,0,1,1.364-1.491h.33a1.452,1.452,0,0,1,1.367,1.512v1.47a12.122,12.122,0,0,1,3.6,1.095l.671-1.264a1.316,1.316,0,0,1,1.891-.538l.3.188a1.6,1.6,0,0,1,.511,2.072l-.681,1.273a14.144,14.144,0,0,1,2.665,2.943l1.177-.72a1.355,1.355,0,0,1,1.915.584l.172.324a1.575,1.575,0,0,1-.514,2.069l-1.182.72a15.64,15.64,0,0,1,.974,4l1.367.03a1.512,1.512,0,0,1,1.409,1.558v.369a1.428,1.428,0,0,1-1.409,1.491l-1.37-.036a14.977,14.977,0,0,1-.986,3.953l1.179.774a1.621,1.621,0,0,1,.514,2.1l-.169.3a1.319,1.319,0,0,1-1.915.493l-1.182-.783a13.169,13.169,0,0,1-2.668,2.81l.677,1.3a1.554,1.554,0,0,1-.511,2.048l-.3.172a1.358,1.358,0,0,1-1.89-.629l-.675-1.3a11.669,11.669,0,0,1-3.6.907v1.47a1.373,1.373,0,0,1-1.367,1.449h-.33a1.512,1.512,0,0,1-1.364-1.558v-1.461a12.325,12.325,0,0,1-3.548-1.189l-.656,1.231a1.246,1.246,0,0,1-1.839.472l-.281-.19a1.621,1.621,0,0,1-.493-2.054l.656-1.234a14.23,14.23,0,0,1-2.565-2.94l-1.125.683a1.288,1.288,0,0,1-1.815-.6l-.16-.3a1.545,1.545,0,0,1,.487-2.005l1.122-.69a15.544,15.544,0,0,1-.925-3.908l-1.292-.033a1.452,1.452,0,0,1-1.325-1.512v-.357a1.367,1.367,0,0,1,1.325-1.467Zm13.982,12.476c5.284.185,9.612-4.395,9.612-10.229s-4.328-10.625-9.612-10.695c-5.226-.07-9.421,4.513-9.421,10.232S2027.459,689.078,2032.688,689.262Z" transform="translate(-2017.378 -618.549)" fill="#fff"/>
        </g>
      </g>
      <path id="Trazado_129198" data-name="Trazado 129198" d="M1177.188,907.7a17.188,17.188,0,0,0,11.4-12.939l8.469-41.925,72.461,2.574,8.919,43.674c1.249,6.118-3.75,12.255-9.509,14.518l-30.317,11.859a39.4,39.4,0,0,1-17.723,2.571l-64.065-5.48a3.974,3.974,0,0,1-3.593-3.52c-.221-1.89-1.531-4.01.254-4.6Z" transform="translate(-820.747 -608.83)" fill="#97a6b7"/>
      <path id="Trazado_129199" data-name="Trazado 129199" d="M1176.354,900.865a17.037,17.037,0,0,0,11.384-12.778l8.469-41.4,70.688,2.544,8.91,43.126A12.615,12.615,0,0,1,1268,906.681l-30.284,11.714a39.764,39.764,0,0,1-17.705,2.534l-64-5.411a3.95,3.95,0,0,1-.907-7.688Z" transform="translate(-820.627 -604.54)" fill="url(#linear-gradient)"/>
      <path id="Trazado_129200" data-name="Trazado 129200" d="M1166.629,331.989c7.864.469,14.288-4.627,14.288-11.366V77.812c0-6.739-6.43-11.941-14.288-11.6L803.24,81.959A10.986,10.986,0,0,0,792.8,92.8V299.3a11.2,11.2,0,0,0,10.441,11.015Z" transform="translate(-569.799 -60.106)" fill="#97a6b7"/>
      <path id="Trazado_129201" data-name="Trazado 129201" d="M1155.833,331.989c7.864.469,14.285-4.627,14.285-11.366V77.812c0-6.739-6.427-11.941-14.285-11.6L792.451,81.959A10.984,10.984,0,0,0,782.01,92.8V299.3a11.2,11.2,0,0,0,10.441,11.015Z" transform="translate(-562.272 -60.106)" fill="#fff"/>
      <path id="Trazado_129202" data-name="Trazado 129202" d="M803.6,99.917l363.385-14.935c4.2-.172,7.619,2.6,7.619,6.2V333.347c0,3.6-3.418,6.318-7.619,6.076L803.6,318.554a5.983,5.983,0,0,1-5.6-5.886V105.712A5.864,5.864,0,0,1,803.6,99.917Z" transform="translate(-573.426 -73.204)" fill="#d8dee8" opacity="0.3"/>
      <path id="Trazado_129203" data-name="Trazado 129203" d="M1174.869,327.876a2.624,2.624,0,0,0,2.967-2.389V100.413a2.656,2.656,0,0,0-2.967-2.42L811.487,112.4a2.29,2.29,0,0,0-2.187,2.262V307.624a2.32,2.32,0,0,0,2.187,2.283Z" transform="translate(-581.309 -82.284)" fill="#d8dee8"/>
      <path id="Trazado_129204" data-name="Trazado 129204" d="M830.392,295.267c30.547-18.909,9.2-72.678,43.552-99.7,34.615-27.238,83.321,6.167,107.566-22.039,18.053-21-3.07-46.362,14.167-66.112,27.036-30.977,96.239,11.623,128.032-18.891,4.513-4.334,9.073-10.906,11.662-21.453l20.476-.886c7.864-.342,14.285,4.86,14.285,11.6V320.594c0,6.739-6.427,11.835-14.285,11.366L792.444,310.3A11.209,11.209,0,0,1,782,299.283v-3.672C806.132,303.8,820.883,301.143,830.392,295.267Z" transform="translate(-562.265 -60.085)" fill="#fff" opacity="0.6"/>
      <path id="Trazado_129205" data-name="Trazado 129205" d="M1015.974,184.84V385.889c0,2.834-2.7,5-6.022,4.839L688.181,375.3a4.888,4.888,0,0,1-4.691-4.748V193.436Z" transform="translate(-493.55 -142.865)" fill="#f5ca56" opacity="0.72"/>
      <path id="Trazado_129206" data-name="Trazado 129206" d="M688.209,159.149l321.759-9.566c3.327-.1,6.022,2.117,6.022,4.954v8.75L683.53,171.52v-7.706A4.778,4.778,0,0,1,688.209,159.149Z" transform="translate(-493.578 -118.27)" fill="url(#linear-gradient-2)"/>
      <path id="Trazado_129207" data-name="Trazado 129207" d="M1736.73,166.854a2.409,2.409,0,0,0,2.659,2.2,2.575,2.575,0,0,0,2.665-2.344,2.415,2.415,0,0,0-2.665-2.2A2.572,2.572,0,0,0,1736.73,166.854Z" transform="translate(-1228.239 -128.681)" fill="#fff"/>
      <path id="Trazado_129208" data-name="Trazado 129208" d="M1497.362,318.73c2.916,1.512,5.729,4.818,5.087,8.469-.647,3.7-4.537,6.049-7.625,6.8-4.319,1.065-5.746-1.3-10.38-.965-7.014.514-12.464,6.566-14.738,11.036-2.232,4.395-.49,5.474-1.933,10.537-2.535,8.889-10.377,14.27-17.844,19.387-6.2,4.255-15.64,9.376-17.333,7.788-.6-.563-.061-1.833.269-2.6,1.307-3.024,4.295-3.7,8.369-6.5,2.9-2,6.566-4.537,5.973-6.575s-5.226-3.327-8.677-2.471-5.311,3.741-6.2,5.142c-.765,1.192-.638,2.752-1.346,2.819-.487.048-1.031-.6-1.276-1.14-.629-1.409.472-2.749.874-3.829.926-2.489-1.267-5.208-3.445-7.909-3.629-4.519-5.771-4.567-11.387-9.82-3.753-3.508-5.628-5.311-5.834-7.849-.351-4.352,3.884-7.591,4.594-8.133,3.43-2.622,9.252-4.416,11.735-2.522,2.229,1.7-.118,4.927,2.5,7.395,1.833,1.727,5.036,2.084,7.537,1.434a7.556,7.556,0,0,0,5.768-6.478,5.537,5.537,0,0,0-1.624-4.585c-.529-.472-1.815-1.412-6.122-1.564-6.049-.212-7.31,1.512-10.915.817-3-.581-6.621-2.646-6.575-4.688.051-2.389,5.081-2.652,10.861-8.072,2.25-2.117,4.083-3.88,3.932-6.176-.206-3.233-4.216-5.747-5.012-6.246-3.118-1.957-5.883-3.542-5.883-3.542-.777-.448-1.906-1.086-1.775-1.7.085-.405.693-.69,1.775-.968a15.755,15.755,0,0,1,6.049-.4c4.086.732,5.39,2.453,10.4,4.748a41.523,41.523,0,0,0,10.12,3.36c5.338.992,7.174.118,9.83,1.8,2.562,1.624,1.754,3.006,4.392,5.532,2.764,2.646,6.146,3.514,11.408,4.863a65.976,65.976,0,0,0,11.693,1.851C1492.611,318.325,1494.308,317.148,1497.362,318.73Z" transform="translate(-1000.253 -220.047)" fill="#fff"/>
      <path id="Trazado_129209" data-name="Trazado 129209" d="M1327.2,297.073c5.526,1.21,10.338,2.271,11.342,5.187a4.409,4.409,0,0,1-1.424,4.724c-2.9,2.223-7.259-1.21-10.447.726-1.7,1.034-1.055,2.383-3,9.869-1.294,4.99-2.356,7.383-4.391,9.536-1.152,1.21-2.77,2.931-4.38,2.655-2.377-.4-1.479-4.6-5.235-7.607-1.316-1.053-1.558-.638-7.812-3.218-3.629-1.512-5.471-2.268-5.874-2.906-2.054-3.257,3.4-7.259,1.21-11.142-.414-.729-.472-.345-3.276-3.363-3.218-3.466-3.179-4.013-3.094-4.283.357-1.143,2.752-1.261,8.958-1.978,10.335-1.195,11.191-1.733,14.251-1.137,2.045.4,2.592.811,7.008,1.769C1324.493,296.647,1324.88,296.562,1327.2,297.073Z" transform="translate(-917.18 -218.935)" fill="#fff"/>
      <path id="Trazado_129210" data-name="Trazado 129210" d="M1390.01,576.946c3.07,2.02,3.681,5.444,3.932,6.838.6,3.439-.535,5.662-2.68,11.269-2.6,6.811-3.9,10.211-4.1,12.149-.3,3.009.327,3.554,2.849,15.488,1.878,8.883,2.078,11.191.357,12.748-2.528,2.3-7.964,1.86-8.181,1.246-.1-.3,1.068-.517,1.954-1.491,1.972-2.169.551-5.91.175-6.9-1.476-3.889-4.295-5.613-8.847-9.548-5.369-4.636-8.859-7.655-11.417-12.059-1.27-2.187-3.98-7-3.146-13.154a18.938,18.938,0,0,1,4.37-9.551,23.9,23.9,0,0,1,12.488-7.413C1381.269,575.709,1386.26,574.481,1390.01,576.946Z" transform="translate(-965.975 -415.365)" fill="#fff"/>
      <path id="Trazado_129211" data-name="Trazado 129211" d="M924.08,386.414c1.96,3.327,4.131,7.014,4.981,10.4.762,3.025,1.491,9.884-2.42,12.467-3.524,2.335-7.579-.977-12.485,1.618-2.5,1.319-3.6,3.327-4.927,5.747-2.852,5.181-1.491,8.1-2.722,14.8-.572,3.146-2.392,13.138-6.92,13.716-3.771.478-7.864-5.777-8.559-6.82-1.815-2.773-2.516-5.625-3.841-11.212-1.784-7.528-1.119-8.565-3-10.7-2.42-2.755-5.335-3.118-5.976-5.746-.469-1.918.653-3.629,1.328-4.673,2.489-3.88,5.967-3.4,8.314-7.156,1.352-2.159,1.715-4.745,1.167-5-.487-.23-1.845,1.337-2.5,2.1-2.017,2.332-1.772,3.191-3,4.361-2.474,2.371-6.654,1.905-6.956,1.866-1.911-.239-5.353-1.267-5.774-3.263-.327-1.536,1.243-3.155,3.13-5.1,1.512-1.57,2.665-2.238,2.48-2.544s-1.545.073-5.117,1.149c-3.874,1.167-5.807,1.748-6.079,1.887-1.3.662-2.42,1.564-6.049,6.99-3.687,5.492-5.027,8.257-5.861,8.012-.417-.121-.345-.883-.65-3.46-.457-3.859-.708-5.816-1.784-7.229-.907-1.189-2.849-2.81-4.839-2.613-1.21.118-2.646,1.8-5.48,5.142-2.792,3.3-3.729,4.422-5.616,5.278-.992.448-2.764,1.249-4.159.52-1.546-.807-2.075-3.215-1.434-4.93.777-2.078,2.934-2.247,2.873-3.527-.091-1.815-4.555-3.085-4.945-3.191-2.876-.789-3.611.051-5.084-.808-2.184-1.276-3.082-4.591-2.531-7.144.563-2.625,2.48-3.578,1.9-4.721-.49-.962-2.023-.641-5.06-1.373-2.256-.544-5.58-1.346-7.4-3.744-1.08-1.428-1.27-2.949-1.567-5.317a20.986,20.986,0,0,1,0-4.715c.363-3.466,1.167-3.7.783-4.715-.847-2.217-4.921-1.606-12.639-3.675-4.4-1.18-7.579-2.586-7.891-2.039-.39.687,4.754,2.656,5.1,6.291.263,2.755-2.32,5.532-3.406,5.266-.907-.221-.248-2.389-1.851-5.562a9.38,9.38,0,0,0-3.39-4.092c-2.28-1.379-3.629-.42-5.677-1.887-1.639-1.174-1.228-2.117-2.6-3.342-3.109-2.8-8.344-.823-8.68-1.86-.3-.959,3.723-3.989,8.986-4.691,4.688-.626,5.411,1.255,10.746,1.255,3.024,0,6.714-1.149,14.109-3.454,4.186-1.307,6.351-2.2,10.174-2.42,2.652-.163,2.722.2,5.514-.042,3.158-.269,7.074-.6,10.144-3.046,2.42-1.911,1.672-3.024,3.666-4.195,3.215-1.869,7.628-.387,11.381.929,3.992,1.4,6.829,3.121,11.644,6.049,5.61,3.4,7.495,5.1,10.6,4.742,2.329-.266,2.8-1.385,5.42-1.388,2.117,0,2.78.732,7.092,2.377,4.177,1.6,6.306,2.392,8.13,2.087,2.828-.475,2.937-2.262,6.007-3.375,3.279-1.192,6.409-.339,10.241.7,4.739,1.291,9.409,2.565,11.681,6.233,2.42,3.889.175,7.322,2.894,9.073,2.259,1.443,4.573-.426,6.654,1.083,2.513,1.815,1.766,6.379,1.37,8.786-.777,4.745-2.722,5.9-2.054,9.234C921.969,383.263,922.483,383.708,924.08,386.414Z" transform="translate(-551.981 -247.178)" fill="#fff"/>
      <path id="Trazado_129212" data-name="Trazado 129212" d="M1130.66,635.217c1.167-.082,3.121,4.234,2.652,8.257-.027.239-.411,3.363-1.491,3.442-1,.076-2.047-2.516-2.153-2.789a9.223,9.223,0,0,1-.5-4.252C1129.229,639.216,1129.568,635.3,1130.66,635.217Z" transform="translate(-804.403 -457.026)" fill="#fff"/>
      <path id="Trazado_129213" data-name="Trazado 129213" d="M965.113,599.519c.085.188-.239.5-1.149,1.146-2.4,1.721-3.593,2.577-5.565,3.173-1.7.514-5.934,1.422-6.841,0-.581-.907.254-2.707,1.588-3.523,1.422-.871,2.492-.07,5.892-.172C962.564,600.027,964.908,599.062,965.113,599.519Z" transform="translate(-680.41 -432.04)" fill="#fff"/>
      <path id="Trazado_129214" data-name="Trazado 129214" d="M951.418,573.441c.7.118.523,1.4,1.908,4.192.644,1.3,1,1.654.8,2.1-.445.971-3.121,1.388-4.449.206-1.24-1.1-.677-3.025-.478-3.717C949.57,574.932,950.6,573.3,951.418,573.441Z" transform="translate(-678.682 -413.929)" fill="#fff"/>
      <path id="Trazado_129215" data-name="Trazado 129215" d="M883.154,601.229a7.525,7.525,0,0,1-3.605,2.42c-.765.3-6.394,2.5-7.809.7a2.45,2.45,0,0,1,.157-2.64c.7-1.107,1.966-1.349,4.053-1.815,6.227-1.409,7.64-2.117,8.148-1.449C884.669,599.2,883.441,600.854,883.154,601.229Z" transform="translate(-624.637 -431.198)" fill="#fff"/>
      <path id="Trazado_129216" data-name="Trazado 129216" d="M937.124,556.069c.747.227.7,3.409-.635,5.916-.693,1.3-1.954,2.84-2.531,2.616s-.3-2.48.16-3.992C934.807,558.361,936.4,555.848,937.124,556.069Z" transform="translate(-668.036 -401.807)" fill="#fff"/>
      <path id="Trazado_129217" data-name="Trazado 129217" d="M899.038,484.1c0-.744-1.987-.584-4.564-2.117a15.28,15.28,0,0,1-5.8-6.236c-.281-.6-.572-1.367-.78-1.328-.318.054-.357,1.915,0,3.53a10.38,10.38,0,0,0,5.48,6.974,5.4,5.4,0,0,0,2.513.6C897.363,485.51,899.05,484.788,899.038,484.1Z" transform="translate(-635.957 -344.859)" fill="#fff"/>
      <path id="Trazado_129218" data-name="Trazado 129218" d="M888.794,633.065c3.463,2.885,5.356,2.42,5.87,4.019.584,1.815-1.8,2.553-2.223,6.167-.266,2.247.466,3.536-.16,3.85-.947.478-2.51-2.547-6.176-3.75-.284-.094-4.119-1.3-7.259.366-1.815.962-1.585,1.933-4.537,4.274-1.893,1.5-2.876,2.253-4.062,2.072-1.957-.3-3.061-2.919-3.741-4.537a12.3,12.3,0,0,1-.932-7.954c.4-1.546.69-1.174,6.076-8.211,1.491-1.948,2.09-2.789,3.442-3.3,2.758-1.047,5.786.366,6.279.6a17.824,17.824,0,0,1,3.932,3.055C887.56,631.728,887.43,631.928,888.794,633.065Z" transform="translate(-620.342 -450.373)" fill="#fff"/>
      <path id="Trazado_129219" data-name="Trazado 129219" d="M1380.408,539.617c7.038.091,12.769,5.235,12.769,11.493,0,4.053-5.378,13.356-9.149,19.381a4.387,4.387,0,0,1-7.229-.175c-3.741-6.179-9.04-15.63-9.04-19.659C1367.76,544.471,1373.41,539.523,1380.408,539.617Zm0,17.312c3.775.073,6.841-2.58,6.841-5.931s-3.067-6.109-6.841-6.164-6.805,2.6-6.805,5.928S1376.646,556.857,1380.408,556.929Z" transform="translate(-970.863 -390.34)" fill="#7d6eb2"/>
      <path id="Trazado_129220" data-name="Trazado 129220" d="M1490.372,286.884c11.076-.169,20.122,7.561,20.122,17.279,0,6.294-8.487,20.945-14.43,30.429-2.462,3.932-8.916,3.908-11.363-.027-5.867-9.43-14.161-23.848-14.161-30.051C1470.54,294.944,1479.384,287.05,1490.372,286.884Zm0,26.83c5.937-.033,10.767-4.271,10.767-9.47s-4.839-9.349-10.767-9.276-10.682,4.31-10.682,9.467S1484.462,313.744,1490.372,313.714Z" transform="translate(-1042.558 -214.044)" fill="#7d6eb2"/>
      <path id="Trazado_129221" data-name="Trazado 129221" d="M487.41,400.18v49.245a3.046,3.046,0,0,1-3.088,2.976l-101.335.581a2.816,2.816,0,0,1-2.837-2.816V403.047Z" transform="translate(-281.954 -293.076)" fill="#ebeff2"/>
      <path id="Trazado_129222" data-name="Trazado 129222" d="M382.987,382.763,484.322,379.8a2.922,2.922,0,0,1,3.088,2.87v5.051l-107.26,2.795v-4.839A2.94,2.94,0,0,1,382.987,382.763Z" transform="translate(-281.954 -278.856)" fill="#26aab7"/>
      <path id="Trazado_129223" data-name="Trazado 129223" d="M604.461,444.444l-5.65-18.954A21.27,21.27,0,0,0,584.1,445.3Z" transform="translate(-424.22 -310.731)" fill="#0d585f"/>
      <path id="Trazado_129224" data-name="Trazado 129224" d="M601.45,493.262a15.159,15.159,0,0,0,5.707,10.755l8.862-11.387Z" transform="translate(-436.323 -357.565)" fill="#fff"/>
      <path id="Trazado_129225" data-name="Trazado 129225" d="M646.074,452.816c3.43-3.227,7.561-7.141,10.888-10.268a16.2,16.2,0,0,0-11.215-4.083,16.936,16.936,0,0,0-3.808.52Z" transform="translate(-464.566 -319.778)" fill="#fff"/>
      <path id="Trazado_129226" data-name="Trazado 129226" d="M658,465.624l12.47,8.647a15.4,15.4,0,0,0,2.773-8.8,15.053,15.053,0,0,0-4.11-10.35c-.907.868-1.933,1.83-3.046,2.879C662.709,461.184,659.328,464.366,658,465.624Z" transform="translate(-475.769 -331.4)" fill="#fff"/>
      <path id="Trazado_129227" data-name="Trazado 129227" d="M656.78,494.52l.242,14.3a16.653,16.653,0,0,0,11.759-5.973Z" transform="translate(-474.918 -358.883)" fill="#fff"/>
      <path id="Trazado_129228" data-name="Trazado 129228" d="M632.5,496.59l-8.556,10.991a16.281,16.281,0,0,0,8.771,2.722Z" transform="translate(-452.01 -360.327)" fill="#fff"/>
      <path id="Trazado_129229" data-name="Trazado 129229" d="M404.5,446.234l51.452-1.047V440.37L404.5,441.519Z" transform="translate(-298.94 -321.111)" fill="#bfc8d6"/>
      <path id="Trazado_129230" data-name="Trazado 129230" d="M404.5,474.877l51.452-.862V469.2l-51.452.962Z" transform="translate(-298.94 -341.221)" fill="#bfc8d6"/>
      <path id="Trazado_129231" data-name="Trazado 129231" d="M404.5,503.512l51.452-.674V498.02L404.5,498.8Z" transform="translate(-298.94 -361.325)" fill="#bfc8d6"/>
      <path id="Trazado_129232" data-name="Trazado 129232" d="M404.5,532.151l51.452-.493V526.84l-51.452.6Z" transform="translate(-298.94 -381.428)" fill="#bfc8d6"/>
      <path id="Trazado_129233" data-name="Trazado 129233" d="M711.36,390.088a1.3,1.3,0,0,0,1.367,1.276,1.388,1.388,0,0,0,1.37-1.352,1.3,1.3,0,0,0-1.37-1.276A1.391,1.391,0,0,0,711.36,390.088Z" transform="translate(-512.99 -285.092)" fill="#fff"/>
      <path id="Trazado_129234" data-name="Trazado 129234" d="M487.41,620.845V670.09a2.952,2.952,0,0,1-3.088,2.894L382.987,670.84a2.907,2.907,0,0,1-2.837-2.891V620.83Z" transform="translate(-281.954 -446.991)" fill="#ebeff2"/>
      <path id="Trazado_129235" data-name="Trazado 129235" d="M382.987,600.44l101.335-.242a3.024,3.024,0,0,1,3.088,2.964v5.048l-107.26-.091V603.28A2.843,2.843,0,0,1,382.987,600.44Z" transform="translate(-281.954 -432.599)" fill="url(#linear-gradient-3)"/>
      <path id="Trazado_129236" data-name="Trazado 129236" d="M711.357,610.245a1.37,1.37,0,1,0,1.367-1.316,1.34,1.34,0,0,0-1.367,1.316Z" transform="translate(-512.988 -438.689)" fill="#fff"/>
      <path id="Trazado_129237" data-name="Trazado 129237" d="M664.34,686.272l7.8.145v-36.76l-7.8-.027Z" transform="translate(-480.192 -467.08)" fill="#fff"/>
      <path id="Trazado_129238" data-name="Trazado 129238" d="M664.34,730.657l7.8.145V713.351l-7.8-.091Z" transform="translate(-480.192 -511.466)" fill="url(#linear-gradient-4)"/>
      <path id="Trazado_129239" data-name="Trazado 129239" d="M628.74,685.981l7.731.145v-36.6l-7.731-.027Z" transform="translate(-455.359 -466.99)" fill="#fff"/>
      <path id="Trazado_129240" data-name="Trazado 129240" d="M628.74,750.149l7.731.145V741.6l-7.731-.115Z" transform="translate(-455.359 -531.158)" fill="url(#linear-gradient-5)"/>
      <path id="Trazado_129241" data-name="Trazado 129241" d="M593.44,685.694l7.664.142V649.4l-7.664-.027Z" transform="translate(-430.735 -466.899)" fill="#fff"/>
      <path id="Trazado_129242" data-name="Trazado 129242" d="M593.44,759.028l7.664.142v-4.543l-7.664-.127Z" transform="translate(-430.735 -540.233)" fill="url(#linear-gradient-6)"/>
      <path id="Trazado_129243" data-name="Trazado 129243" d="M558.45,685.407l7.6.139V649.267l-7.6-.027Z" transform="translate(-406.328 -466.808)" fill="#fff"/>
      <path id="Trazado_129244" data-name="Trazado 129244" d="M558.45,703.473l7.6.139V675.191l-7.6-.051Z" transform="translate(-406.328 -484.875)" fill="url(#linear-gradient-7)"/>
      <path id="Trazado_129245" data-name="Trazado 129245" d="M523.77,685.119l7.531.139V649.137l-7.531-.027Z" transform="translate(-382.137 -466.718)" fill="#fff"/>
      <path id="Trazado_129246" data-name="Trazado 129246" d="M523.77,710.5l7.531.139V685.564l-7.531-.064Z" transform="translate(-382.137 -492.102)" fill="url(#linear-gradient-8)"/>
      <path id="Trazado_129247" data-name="Trazado 129247" d="M489.38,684.842l7.467.139V649.017l-7.467-.027Z" transform="translate(-358.148 -466.634)" fill="#fff"/>
      <path id="Trazado_129248" data-name="Trazado 129248" d="M489.38,696.861l7.467.139V666.265l-7.467-.045Z" transform="translate(-358.148 -478.653)" fill="url(#linear-gradient-9)"/>
      <path id="Trazado_129249" data-name="Trazado 129249" d="M455.29,684.561l7.4.139V648.887l-7.4-.027Z" transform="translate(-334.368 -466.543)" fill="#fff"/>
      <path id="Trazado_129250" data-name="Trazado 129250" d="M455.29,716.328l7.4.139v-22l-7.4-.07Z" transform="translate(-334.368 -498.31)" fill="url(#linear-gradient-10)"/>
      <path id="Trazado_129251" data-name="Trazado 129251" d="M421.48,684.29l7.34.136V648.767l-7.34-.027Z" transform="translate(-310.784 -466.46)" fill="#fff"/>
      <path id="Trazado_129252" data-name="Trazado 129252" d="M421.48,737.813l7.34.136V725.567l-7.34-.1Z" transform="translate(-310.784 -519.983)" fill="url(#linear-gradient-11)"/>
      <path id="Trazado_129253" data-name="Trazado 129253" d="M1773.143,1238.574a37.5,37.5,0,0,0-3.327,5.017l-2.746-1.473s1.549-.553,2.326-3.545S1773.143,1238.574,1773.143,1238.574Z" transform="translate(-1249.403 -876.972)" fill="url(#linear-gradient-12)"/>
      <path id="Trazado_129254" data-name="Trazado 129254" d="M1749.014,1247.7a16.018,16.018,0,0,0,2.419.635h.073a1.189,1.189,0,0,0,1.04-.472,7.163,7.163,0,0,0,1.047-1.669c.018-.366-.974-1.122-1.86-1.449s-1.092-.762-2.722-2.075-4.416-2.867-5.713-1.669S1743.2,1245.186,1749.014,1247.7Z" transform="translate(-1232.49 -879.293)" fill="url(#linear-gradient-13)"/>
      <path id="Trazado_129255" data-name="Trazado 129255" d="M1744.285,1241.2c1.425.566,1.854,2.172,4.328,3.8a34.2,34.2,0,0,0,4.37,2.335,4.169,4.169,0,0,0,.656-1.131c.018-.366-.974-1.122-1.86-1.449s-1.092-.762-2.722-2.075-4.416-2.867-5.713-1.669a1.491,1.491,0,0,0-.469,1.228C1743.117,1241.546,1743.559,1240.911,1744.285,1241.2Z" transform="translate(-1232.522 -879.3)" fill="url(#linear-gradient-14)"/>
      <path id="Trazado_129256" data-name="Trazado 129256" d="M1792.845,974.86a202.847,202.847,0,0,0-20.945,79.979l4.724,1.951a33.671,33.671,0,0,0,10.982-11.082c5.489-9.237,1.615-13.913,6.076-25.034,4.322-10.77,9.8-10.952,14.548-22.663a50.436,50.436,0,0,0,3.605-17.466Z" transform="translate(-1252.772 -693.945)" fill="url(#linear-gradient-15)"/>
      <path id="Trazado_129257" data-name="Trazado 129257" d="M1818.03,983.42c1.706,4.416,1.57,7.734.907,10.165-2.19,8.094-10.834,8.971-12.89,18.023-1.382,6.073,2.117,7.416.275,13.725-1.951,6.693-6.246,6.4-8.593,13.308-1.848,5.444.121,7.628-.7,15.25a40.751,40.751,0,0,1-1.434,7.177,32.609,32.609,0,0,0,8.535-9.376c5.49-9.237,1.615-13.913,6.076-25.034,4.322-10.77,9.8-10.952,14.548-22.662a50.43,50.43,0,0,0,3.6-17.466Z" transform="translate(-1269.304 -699.916)" opacity="0.3" fill="url(#linear-gradient-16)"/>
      <path id="Trazado_129258" data-name="Trazado 129258" d="M2063,1189.83a3.2,3.2,0,0,1,1.685,2.069c.52,1.63-.33,8.4-1.068,10.063a1.973,1.973,0,0,1-3.539,0c-.632-1.267.266-10.229.266-10.229Z" transform="translate(-1453.636 -843.898)" fill="url(#linear-gradient-17)"/>
      <path id="Trazado_129259" data-name="Trazado 129259" d="M1843.44,988.16a147.1,147.1,0,0,1,10.952,17.188c4.824,8.895,5.928,13.184,11.611,21.45,5.266,7.655,8.741,10.407,10.159,11.463,3.421,2.55,6.245,3.69,13.513,6.439q9.527,3.6,20.164,7.437c1.252.142,1.778-.4,2.117-1.533a18.827,18.827,0,0,0-3.094-10.67c-2.882-4.171-5.874-4.192-14.8-10.513-4.758-3.372-7.177-5.111-9.179-7.864-.965-1.325-2.547-3.79-5.048-13.09-1.025-3.811-2.259-8.965-3.3-15.2Z" transform="translate(-1302.675 -703.223)" fill="url(#linear-gradient-18)"/>
      <path id="Trazado_129260" data-name="Trazado 129260" d="M1814.219,739.24a2.842,2.842,0,0,0,.814-3.539c-.889-2.468-3.049-6.451-1.134-8.931,0,0-.091,4.165,1.249,4.618a2.75,2.75,0,0,1,1.706,1.615s1.757,3.26-.182,6.188l-1.939,2.928Z" transform="translate(-1281.532 -520.89)" fill="url(#linear-gradient-19)"/>
      <path id="Trazado_129261" data-name="Trazado 129261" d="M1945.774,705.253a5.184,5.184,0,0,1-2-1.939,2.834,2.834,0,0,1,1.077-3.663,6.729,6.729,0,0,0,2.42-2.51,3.484,3.484,0,0,1,1.815-.971s-2.28,4.2-2.553,4.894-1.382.783,0,2.758Z" transform="translate(-1372.478 -499.545)" fill="url(#linear-gradient-20)"/>
      <path id="Trazado_129262" data-name="Trazado 129262" d="M1820.625,810.675a49.273,49.273,0,0,0,15.292.6,50.206,50.206,0,0,0,22.608-8.62c4.41,9.624,4.5,16.759,3.726,21.552-.575,3.533-1.443,4.718-1.512,8.671-.133,6.654,2.247,7.667,3.366,16.317.922,7.123-.4,8.674,1.676,11.638,1.491,2.117,3.472,3.182,4.652,6.506.39,1.1,1.358,3.841.327,4.73-1.651,1.422-5.746-4.234-13.411-4.99-4.083-.411-4.709,1.013-8.943.206-4.618-.88-4.3-2.659-8.629-3.533s-5.6.677-12.164-.106c-2.764-.33-4.146-.493-5.009-1.261-2.789-2.477-.484-7.41.018-15.165.493-7.649-1.4-8.166-2.184-19.547A107.927,107.927,0,0,1,1820.625,810.675Z" transform="translate(-1286.457 -573.827)" fill="#7d6eb2"/>
      <path id="Trazado_129263" data-name="Trazado 129263" d="M1933.726,718.8l2.6-2.913a47.95,47.95,0,0,1,14.276,11.687c3.784,4.591,7.123,8.641,7.483,14.517.514,8.429-5.444,14.735-8.23,17.672a34.275,34.275,0,0,1-15.4,9.252c-7-15.525-5.955-21.589-3.481-24.178,1.379-1.44,3.239-1.842,4.942-4.516,2.371-3.72,1.951-7.927,1.685-10.586A24.827,24.827,0,0,0,1933.726,718.8Z" transform="translate(-1362.429 -513.3)" fill="#7d6eb2"/>
      <path id="Trazado_129264" data-name="Trazado 129264" d="M1857.429,804.4a6.659,6.659,0,0,0,1.077,5.142,6.864,6.864,0,0,0,3.841,2.268c1.815.481,2.792.091,2.888.4.218.69-4.234,3.75-9.376,3.56-3.025-.115-6.049-1.343-6.049-2.314.033-1.089,3.914-.965,4.875-3.221.6-1.443-.233-3.218-1.152-4.6C1854.377,804.669,1856.579,805.371,1857.429,804.4Z" transform="translate(-1307.118 -575.041)" fill="url(#linear-gradient-21)"/>
      <path id="Trazado_129265" data-name="Trazado 129265" d="M1856.552,796.99a2.214,2.214,0,0,1,.018-2.722,2.747,2.747,0,0,1,1.981-.741c1.548-.1,3.514.575,4.216,1.927.414.8-.439,2.392-.572,2.68s-.433.429-.687.668c-.357.333-.907.859-1.815,1.742a6.122,6.122,0,0,0-.366-.989,5.631,5.631,0,0,0-.75-1.177C1857.753,797.443,1857.1,797.676,1856.552,796.99Z" transform="translate(-1311.501 -567.449)" fill="url(#linear-gradient-22)"/>
      <path id="Trazado_129266" data-name="Trazado 129266" d="M1861.5,805.935a3.305,3.305,0,0,1-3.024,1.3c-1.815-.19-2.117-3.971-.98-4.721a2.42,2.42,0,0,1,1.791-.142c.372.112.5.26,1.113.432s.726.109.907.248c.218.175.378.6.036,1.679a1,1,0,0,1,1.056-.275.632.632,0,0,1,.245.23C1862.886,805.124,1862.469,805.657,1861.5,805.935Z" transform="translate(-1312.013 -573.548)" fill="url(#linear-gradient-23)"/>
      <path id="Trazado_129267" data-name="Trazado 129267" d="M1869.592,490.531a31.391,31.391,0,0,1,9.8,43.3c-5.995,9.5-31.089,24.571-48.011,34a10.165,10.165,0,0,1-15.1-9.527c1.225-19.336,4.02-48.47,10.014-57.973A31.388,31.388,0,0,1,1869.592,490.531Zm-25.741,40.8a16.852,16.852,0,1,0-5.263-23.249,16.852,16.852,0,0,0,5.263,23.249Z" transform="translate(-1283.714 -352.719)" fill="url(#linear-gradient-24)"/>
      <path id="Trazado_129268" data-name="Trazado 129268" d="M1865.1,484.923a31.385,31.385,0,0,1,9.8,43.3c-5.991,9.5-31.085,24.574-48.008,34a10.167,10.167,0,0,1-15.1-9.527c1.225-19.333,4.023-48.47,10.014-57.973a31.391,31.391,0,0,1,43.3-9.8Zm-25.741,40.8a16.855,16.855,0,1,0-5.263-23.246A16.855,16.855,0,0,0,1839.362,525.723Z" transform="translate(-1280.583 -348.809)" fill="#26aab7"/>
      <path id="Trazado_129269" data-name="Trazado 129269" d="M1737.636,768.609l-3.7-4.068c-2.38-.1-15.99-.411-25.893,9.981-5.142,5.381-11.8,15.851-8.139,22.194,1.04,1.815,2.673,2.858,22.194,6.288,14.079,2.474,16.538,2.51,18.495.741,5.214-4.718.856-16.822.369-18.126a26.786,26.786,0,0,0-4.809-1.479c-8.907-1.854-15.147,1.615-15.906.369C1719.643,783.517,1722.743,779.815,1737.636,768.609Z" transform="translate(-1201.819 -547.219)" fill="#7d6eb2"/>
      <path id="Trazado_129270" data-name="Trazado 129270" d="M1954.538,73.54v67.044a4.026,4.026,0,0,1-4.019,4.029H1824.331a3.543,3.543,0,0,1-3.381-3.687V79.6Z" transform="translate(-1286.987 -65.228)" fill="#727997" opacity="0.72"/>
      <path id="Trazado_129271" data-name="Trazado 129271" d="M1824.366,52.467l126.188-6.4a3.79,3.79,0,0,1,4.02,3.826v6.869L1821,62.608V56.323A3.765,3.765,0,0,1,1824.366,52.467Z" transform="translate(-1287.022 -46.057)" fill="#26aab7"/>
      <path id="Trazado_129272" data-name="Trazado 129272" d="M2231.8,59.83a1.679,1.679,0,0,0,1.772,1.7,1.885,1.885,0,0,0,1.778-1.866,1.682,1.682,0,0,0-1.778-1.7A1.884,1.884,0,0,0,2231.8,59.83Z" transform="translate(-1573.576 -54.36)" fill="#fff"/>
      <path id="Trazado_129273" data-name="Trazado 129273" d="M2178.47,148.1a7.721,7.721,0,0,0-6.115-4.089l-.185-11.354a18.543,18.543,0,0,1,16.937,11.191Z" transform="translate(-1531.981 -106.467)" fill="url(#linear-gradient-25)"/>
      <path id="Trazado_129274" data-name="Trazado 129274" d="M2125.174,144.359a8.254,8.254,0,0,0-6.675,7.386l-10.948.7a19.807,19.807,0,0,1,17.439-19.429Z" transform="translate(-1486.906 -106.718)" fill="#fff"/>
      <path id="Trazado_129275" data-name="Trazado 129275" d="M2118.742,202a7.773,7.773,0,0,0,7.779,6.515,7.947,7.947,0,0,0,3.239-.756l5.91,9.618a18.963,18.963,0,0,1-9.149,2.45,18.689,18.689,0,0,1-18.731-17.137Z" transform="translate(-1487.073 -154.835)" fill="#fff"/>
      <path id="Trazado_129276" data-name="Trazado 129276" d="M2192.335,198.337l-5.925-9.624a8.31,8.31,0,0,0,2.928-6.333,8.161,8.161,0,0,0-.193-1.775l10.64-4.234a19.493,19.493,0,0,1,.862,5.747A19.962,19.962,0,0,1,2192.335,198.337Z" transform="translate(-1541.914 -136.957)" fill="#fff"/>
      <path id="Trazado_129277" data-name="Trazado 129277" d="M2044.513,152.311a7.328,7.328,0,0,0-5.8-3.983l-.175-11.058a17.584,17.584,0,0,1,16.048,10.912Z" transform="translate(-1438.767 -109.683)" fill="#fff"/>
      <path id="Trazado_129278" data-name="Trazado 129278" d="M1993.929,148.659a7.958,7.958,0,0,0-6.33,7.189l-10.389.681c.133-9.733,7.337-17.9,16.544-18.909Z" transform="translate(-1395.986 -109.927)" fill="url(#linear-gradient-26)"/>
      <path id="Trazado_129279" data-name="Trazado 129279" d="M1987.862,204.78a7.427,7.427,0,0,0,7.374,6.351,7.337,7.337,0,0,0,3.073-.735l5.6,9.376a17.627,17.627,0,0,1-8.674,2.383c-9.328.088-16.91-7.259-17.766-16.7Z" transform="translate(-1396.168 -156.774)" fill="#fff"/>
      <path id="Trazado_129280" data-name="Trazado 129280" d="M2057.656,201.253l-5.616-9.376a8.181,8.181,0,0,0,2.776-6.164,8.085,8.085,0,0,0-.184-1.727l10.1-4.116a19.735,19.735,0,0,1-7.062,21.383Z" transform="translate(-1448.184 -139.398)" fill="#fff"/>
      <path id="Trazado_129281" data-name="Trazado 129281" d="M1917.381,156.31a6.956,6.956,0,0,0-5.5-3.886l-.167-10.773a16.73,16.73,0,0,1,15.234,10.643Z" transform="translate(-1350.297 -112.738)" fill="#fff"/>
      <path id="Trazado_129282" data-name="Trazado 129282" d="M1869.379,152.738a7.683,7.683,0,0,0-6.01,7l-9.869.659c.124-9.488,6.956-17.448,15.727-18.419Z" transform="translate(-1309.692 -112.968)" fill="#fff"/>
      <path id="Trazado_129283" data-name="Trazado 129283" d="M1863.579,207.42a7.121,7.121,0,0,0,7,6.188,6.832,6.832,0,0,0,2.919-.714l5.317,9.128a16.4,16.4,0,0,1-8.236,2.32c-8.862.085-16.06-7.065-16.874-16.278Z" transform="translate(-1309.839 -158.616)" fill="#fff"/>
      <path id="Trazado_129284" data-name="Trazado 129284" d="M1929.859,204.027l-5.329-9.134a8.057,8.057,0,0,0,2.634-6,8.312,8.312,0,0,0-.172-1.686l9.57-4a19.555,19.555,0,0,1-6.7,20.827Z" transform="translate(-1359.24 -141.721)" fill="url(#linear-gradient-27)"/>
      <ellipse id="Elipse_4233" data-name="Elipse 4233" cx="21.631" cy="8.828" rx="21.631" ry="8.828" transform="translate(296.856 316.05)" fill="#b7c0ce"/>
      <path id="Trazado_129285" data-name="Trazado 129285" d="M1080.25,1088.814c0,4.6-9.678,8.333-21.631,8.333s-21.619-3.735-21.619-8.333,9.678-12.134,21.631-12.134S1080.25,1084.211,1080.25,1088.814Z" transform="translate(-740.141 -764.97)" fill="#97a6b7"/>
      <path id="Trazado_129286" data-name="Trazado 129286" d="M1096.187,1088.814c0-4.6-9.678-12.134-21.631-12.134a29.366,29.366,0,0,0-14.36,3.786,3.156,3.156,0,0,0-.342,1.648c.248,2.589,4.473,4.18,6.9,4.706,6.106,1.322,9.073-2.329,14.121-2.19,3.112.088,7.425,1.651,12.539,8.272C1095.183,1091.694,1096.187,1090.3,1096.187,1088.814Z" transform="translate(-756.079 -764.97)" fill="#97a6b7" opacity="0.3"/>
      <path id="Trazado_129287" data-name="Trazado 129287" d="M1104.178,1044.4a4.905,4.905,0,0,1-2.42,0,1.561,1.561,0,0,1-1.158-1.512V1022.13h4.809v20.727A1.591,1.591,0,0,1,1104.178,1044.4Z" transform="translate(-784.506 -726.919)" fill="#97a6b7"/>
      <path id="Trazado_129288" data-name="Trazado 129288" d="M1020.331,830.921l7.35-4.646c.3-1.736.4-62.942,14.466-68.656,5.719-2.32,20.66.484,24.039.635,6.741.3,11.55.514,13.864,3.732,2.97,4.128-7.434,48.392-6.4,60.214.42,4.815,1.491,6.956.16,10.147-1.6,3.823-5.3,5.94-8.166,7.135a41.933,41.933,0,0,1-17.339,5.538,43.057,43.057,0,0,1-26.7-6.736,4.407,4.407,0,0,1-2.988-3.309A3.883,3.883,0,0,1,1020.331,830.921Z" transform="translate(-727.262 -541.77)" fill="url(#linear-gradient-28)"/>
      <path id="Trazado_129289" data-name="Trazado 129289" d="M1099.887,761.234c4.984.148,8.084.091,9.8,2.317,1.8,2.338-5.444,44.856-5.78,53.176-.3,7.588,1.031,10.586-1.421,14.79a15.533,15.533,0,0,1-3.212,3.741c-6.956,5.671-24.879,5.6-32.426-6.237-6.019-9.445,1.911-63.892,8.986-68.5C1079.293,758.267,1080.089,760.65,1099.887,761.234Z" transform="translate(-759.476 -543.77)" fill="url(#linear-gradient-29)"/>
      <path id="Trazado_129290" data-name="Trazado 129290" d="M1018.534,972.444l7.346-4.646s19.683-6.469,37.9,2.656a6.049,6.049,0,0,1,3.309,5.411,4.34,4.34,0,0,1-2.667,4,39.559,39.559,0,0,1-17.93,6.687,40.745,40.745,0,0,1-26.7-6.735,4.4,4.4,0,0,1-2.988-3.306A3.883,3.883,0,0,1,1018.534,972.444Z" transform="translate(-725.997 -687.468)" fill="url(#linear-gradient-30)"/>
      <path id="Trazado_129291" data-name="Trazado 129291" d="M910.867,1170.3l6.273-3.771h2.834a34.083,34.083,0,0,1,.853,3.771c-1.261,2.066-7.135,3.629-10.8,3.769-.6.021-1.458.024-1.679-.417C907.975,1172.9,909.636,1171.333,910.867,1170.3Z" transform="translate(-650.362 -827.645)" fill="url(#linear-gradient-31)"/>
      <path id="Trazado_129292" data-name="Trazado 129292" d="M936.387,1152.91c0,2.2-.085,3.744-.632,4.428-.387.478,3.327,1.558,3.354-.3a20.388,20.388,0,0,1,.4-3.968Z" transform="translate(-669.498 -818.145)" fill="url(#linear-gradient-32)"/>
      <path id="Trazado_129293" data-name="Trazado 129293" d="M988.039,1187.781,994.3,1184h2.831a34.22,34.22,0,0,1,.856,3.771c-1.261,2.069-7.135,3.629-10.8,3.772-.6.021-1.458.024-1.679-.417C985.135,1190.388,986.8,1188.821,988.039,1187.781Z" transform="translate(-704.185 -839.831)" fill="url(#linear-gradient-33)"/>
      <path id="Trazado_129294" data-name="Trazado 129294" d="M1013.54,1170.43c0,2.2-.085,3.747-.635,4.428-.387.481,3.327,1.561,3.354-.3a20.407,20.407,0,0,1,.405-3.968Z" transform="translate(-723.314 -830.366)" fill="url(#linear-gradient-34)"/>
      <path id="Trazado_129295" data-name="Trazado 129295" d="M935.259,984.4c-1.775-10.716-.042-22.157.363-28.312.641-9.787.965-14.681,3.8-18.791,3.708-5.387,11.3-10.77,17.708-15.319a32.131,32.131,0,0,0,3.055-2.4,35.016,35.016,0,0,0,6.956-8.587c14.518-4.258,27.913-2.535,33.823,5.253a11.32,11.32,0,0,1,2.722,5.731c.747,6.494-5.635,14.309-12.794,15.942-9.1,2.075-14.378-7.259-22.442-4.159-.8.3-3.176,2.7-7.991,7.334-3.493,3.366-5.241,5.048-5.8,5.716-5.142,6.191-8.221,15.727-8.593,23.092a15.419,15.419,0,0,1-1.7,6.987,34.742,34.742,0,0,1-5.746,7.259Z" transform="translate(-668.624 -647.806)" fill="url(#linear-gradient-35)"/>
      <path id="Trazado_129296" data-name="Trazado 129296" d="M1008.489,1022.669s-3.106,1.467-5.414,0c.079-3.883.085-9.963-.414-17.4-1.086-16.272-3.39-21.193-1.346-28.143,1.476-5.015,5.444-11.847,17.131-18.235L1048.134,956a9.312,9.312,0,0,1,1.059,5.444c-.623,5.777-7.259,9.315-12.815,12.21-10.961,5.716-13.277,3.088-16.846,6.956-4.839,5.208-1.815,11.333-4.458,24.2A64.288,64.288,0,0,1,1008.489,1022.669Z" transform="translate(-714.679 -680.789)" fill="url(#linear-gradient-36)"/>
      <path id="Trazado_129297" data-name="Trazado 129297" d="M1000.4,826.844c-4.065-.354-10.223-19.6-1.685-32.029,6.285-9.155,19.39-12.933,21.677-10.156,1.328,1.609-1.4,4.927-6.454,14.442C1003.562,818.618,1003.135,827.086,1000.4,826.844Z" transform="translate(-710.438 -560.647)" fill="url(#linear-gradient-37)"/>
      <path id="Trazado_129298" data-name="Trazado 129298" d="M1070.5,783.538a54.953,54.953,0,0,0-16.108-2.634c-7.679-.091-13.819-.163-18.044,3.073-10.208,7.818,1.21,27.115-4.646,41.115a17.673,17.673,0,0,0-.883,11.72,11.95,11.95,0,0,0,1.969,3.312c6.2,8.614,23.754,9.908,31.863,2.828,4.3-3.756,8.184-2.922,8.287-7.371C1073.35,818.02,1070.347,800.439,1070.5,783.538Z" transform="translate(-735.379 -558.631)" fill="#7d6eb2"/>
      <path id="Trazado_129299" data-name="Trazado 129299" d="M1087.974,837.571c1.476-3.629-.054-7.864,3.242-9.63,1.21-.65,4.171-2.48,4.352-.85a245.883,245.883,0,0,1,1.923,35.386c-.112,4.443-3.478,8.49-8.236,12.234-5.492,4.322-14.914,5.468-22.947,3.732,10.531-5.556,18.086-11.454,17-16.747-1.264-6.158-13.562-8.275-13.069-12.6C1070.768,844.515,1084.753,845.5,1087.974,837.571Z" transform="translate(-760.586 -590.409)" fill="#3a277b"/>
      <path id="Trazado_129300" data-name="Trazado 129300" d="M1085.213,749.34a27.79,27.79,0,0,0,.6,6.049,4.653,4.653,0,0,0,.907,2.38c.478.514,1.21.953,5.3,1.924,2.238.529,2.525.52,2.574.723.242.983-5.852,4.234-12.119,3.357-3.826-.544-7.3-2.571-7.083-3.611s4.026-.436,5.166-2.32c.792-1.313-.1-3.2-1.146-4.76C1080.431,751.372,1084.194,751.067,1085.213,749.34Z" transform="translate(-766.92 -536.633)" fill="url(#linear-gradient-38)"/>
      <path id="Trazado_129301" data-name="Trazado 129301" d="M1078.18,745.11a3.468,3.468,0,0,1-1.083-4.089,4.274,4.274,0,0,1,2.689-1.93c2.292-.789,5.535-.575,7.147,1.177.953,1.037.3,3.793.236,4.28-.094.554-.475.82-.765,1.285-.4.647-1.022,1.673-2.029,3.378a9.587,9.587,0,0,0-.959-1.346,8.751,8.751,0,0,0-1.615-1.467C1080.179,745.3,1079.29,745.921,1078.18,745.11Z" transform="translate(-767.914 -529.179)" fill="url(#linear-gradient-39)"/>
      <path id="Trazado_129302" data-name="Trazado 129302" d="M1089.076,757.874a5.175,5.175,0,0,1-4.031,3.2c-2.816.457-4.839-5.117-3.415-6.72a3.764,3.764,0,0,1,2.64-.947c.6.018.862.188,1.86.2.907,0,1.137-.136,1.455,0,.4.175.811.735.741,2.516a1.578,1.578,0,0,1,1.479-.85,1.047,1.047,0,0,1,.466.245C1090.834,756.084,1090.419,757.061,1089.076,757.874Z" transform="translate(-770.946 -539.47)" fill="url(#linear-gradient-40)"/>
      <path id="Trazado_129303" data-name="Trazado 129303" d="M1088.945,752.792c-.109.121.43.484.644,1.122a3.089,3.089,0,0,1-1.924,3.505c-.813.263-1.177-.145-2.595.033a6.927,6.927,0,0,0-1.984.563,3.143,3.143,0,0,0,1.939,3.152,4.621,4.621,0,0,0,4.906-2.625c.369-1.234-.481-1.736.085-2.64a5.573,5.573,0,0,0,1.049-1.564,3.1,3.1,0,0,0,.145-.544C1090.3,753.264,1089.108,752.617,1088.945,752.792Z" transform="translate(-772.288 -539.021)" fill="url(#linear-gradient-41)"/>
      <path id="Trazado_129304" data-name="Trazado 129304" d="M1086.392,770.731a3.783,3.783,0,0,0,1.7-.136.326.326,0,0,1,.124,0,1.283,1.283,0,0,1-1.155.6c-.466,0-.907-.3-.88-.42A.411.411,0,0,1,1086.392,770.731Z" transform="translate(-774.444 -551.455)" fill="url(#linear-gradient-42)"/>
      <path id="Trazado_129305" data-name="Trazado 129305" d="M810.677,993.8h.03a.39.39,0,0,0,.36-.387V912.98a.39.39,0,0,0-.78,0v75.37l-11.414-73.688a.39.39,0,1,0-.768.121l12.189,78.685A.39.39,0,0,0,810.677,993.8Z" transform="translate(-573.492 -650.509)" fill="#b7c0ce"/>
      <path id="Trazado_129306" data-name="Trazado 129306" d="M735.614,923.618,601.9,913.32,495.64,921.525l134.541,11.324Z" transform="translate(-362.514 -651.018)" fill="#f4f7fa" opacity="0.81"/>
      <path id="Trazado_129307" data-name="Trazado 129307" d="M630.181,951.774l105.433-9.234V947l-105.433,9.234L495.64,944.911V940.45Z" transform="translate(-362.514 -669.943)" fill="#b7c0ce"/>
      <path id="Trazado_129308" data-name="Trazado 129308" d="M942.59,1072.665a.387.387,0,0,0,.384-.339l11.593-85.575a.39.39,0,0,0-.771-.1L942.98,1066.5V986.7a.39.39,0,0,0-.78,0v85.575a.387.387,0,0,0,.363.387Z" transform="translate(-674.013 -701.932)" fill="#b7c0ce"/>
      <path id="Trazado_129309" data-name="Trazado 129309" d="M499.569,1029.449a.39.39,0,0,0,.384-.339L510.7,950.495a.39.39,0,0,0-.771-.106l-9.981,72.944v-76a.39.39,0,1,0-.777,0v81.728a.384.384,0,0,0,.363.387Z" transform="translate(-364.973 -674.446)" fill="#b7c0ce"/>
      <path id="Trazado_129310" data-name="Trazado 129310" d="M1257.687,1039.154h.03a.39.39,0,0,0,.36-.387V961.21a.39.39,0,0,0-.78,0v72.231l-10.631-72.285a.39.39,0,0,0-.771.115l11.408,77.554A.39.39,0,0,0,1257.687,1039.154Z" transform="translate(-885.854 -684.152)" fill="#b7c0ce"/>
      <path id="Trazado_129311" data-name="Trazado 129311" d="M1121.62,834.323q-1.24-1.388-2.48-2.773c6.442-8.469,11.556-12.119,15.18-13.867,2.48-1.21,2.377-1.969,2.48-2.259.6-1.76-6.14-9.482-7.9-11.823-3.248-4.31-6.321-11.665-3.932-14.62,2.486-3.073,10.416-.78,14.617,1.258a24.2,24.2,0,0,1,7.446,5.641c3.953,4.449,11.56,16.423,6.7,27.22C1149.215,833.114,1135.372,838.933,1121.62,834.323Z" transform="translate(-797.438 -563.241)" fill="#7d6eb2"/>
      <path id="Trazado_129312" data-name="Trazado 129312" d="M953.651,933.339v-1.146L904.4,929.54v1.131l34.8,3.427Z" transform="translate(-647.646 -662.332)" fill="url(#linear-gradient-43)"/>
      <path id="Trazado_129313" data-name="Trazado 129313" d="M953.651,930.846l-15.277.2L904.4,928.194l9.5-.584Z" transform="translate(-647.646 -660.986)" fill="url(#linear-gradient-44)"/>
      <path id="Trazado_129314" data-name="Trazado 129314" d="M864.018,819.974l-13.852-43.332a2,2,0,0,0-1.881-1.21l-60.647-1.113a3.052,3.052,0,0,0-1.727.693c-.3.327-.744.387-.626.808l11.309,38.145a1.86,1.86,0,0,0,1.648,1.21l64.672,5.928Z" transform="translate(-564.543 -554.058)" fill="url(#linear-gradient-45)"/>
      <path id="Trazado_129315" data-name="Trazado 129315" d="M861.856,822.968,847.8,779.325a1.967,1.967,0,0,0-1.875-1.192L785.406,777a1.76,1.76,0,0,0-1.31.5,1.21,1.21,0,0,0-.3,1.18L794.38,816.55a1.86,1.86,0,0,0,1.682,1.21Z" transform="translate(-563.485 -555.924)" fill="url(#linear-gradient-46)"/>
      <path id="Trazado_129316" data-name="Trazado 129316" d="M878.968,887.83l-65.816-5.208a1.86,1.86,0,0,1-1.682-1.21L808.28,869.98c20.055,7.011,43.885,6.243,67.516,8.021Z" transform="translate(-580.597 -620.786)" opacity="0.3" fill="url(#linear-gradient-47)"/>
      <path id="Trazado_129317" data-name="Trazado 129317" d="M914.09,944.59l2.5.862s13.123-2.465,13.695-2.867c.091-.063.405-.674-.181-.777-3.1-.532-14.4-.907-14.4-.907l-1.028.03Z" transform="translate(-654.405 -670.256)" fill="url(#linear-gradient-48)"/>
      <path id="Trazado_129318" data-name="Trazado 129318" d="M913.5,942.015l2.5.862s13.12-2.471,13.692-2.876-14.581-1.691-14.581-1.691l-1.037.064Z" transform="translate(-653.994 -668.45)" fill="url(#linear-gradient-49)"/>
      <path id="Trazado_129319" data-name="Trazado 129319" d="M862.494,850.9s-6.37,27.4-6.557,29c-.175,1.479,15.482,2.928,19.233,3.058a1.814,1.814,0,0,0,.85-.3c1.037-.121-3.817-31.376-3.817-31.376h-.357Z" transform="translate(-613.839 -607.477)" fill="url(#linear-gradient-50)"/>
      <path id="Trazado_129320" data-name="Trazado 129320" d="M860.478,850.9s-7.259,27.677-7.431,29.28S871.475,883,873.1,882.95c1.034-.121-3.272-31.642-3.272-31.642Z" transform="translate(-611.824 -607.477)" fill="url(#linear-gradient-51)"/>
      <path id="Trazado_129321" data-name="Trazado 129321" d="M1089.458,934.316s-4.131-1.89-6.518-1.721-5.746,2.341-6.324,3.629,8.069,1.146,8.069,1.146S1095,936.966,1089.458,934.316Z" transform="translate(-767.756 -664.456)" fill="url(#linear-gradient-52)"/>
      <path id="Trazado_129322" data-name="Trazado 129322" d="M1100.683,927.14c-2.3-2.934-7.8-1.14-8.115-1.037-1.313.448-3.073,1.355-2.952,1.933s1.89.269,4.815.762c4.277.723,6.173,2.308,6.929,1.512C1101.938,929.683,1101.439,928.1,1100.683,927.14Z" transform="translate(-776.84 -659.49)" fill="url(#linear-gradient-53)"/>
      <path id="Trazado_129323" data-name="Trazado 129323" d="M454.252,1056.012s7.966,3.629,8.1,4.2-5.123-.193-7.259-.112-3.917-.556-3.723-1.464.947-3.194.947-3.194Z" transform="translate(-331.621 -750.154)" fill="url(#linear-gradient-54)"/>
      <path id="Trazado_129324" data-name="Trazado 129324" d="M455.074,1046.626l-.487,3.587a2.84,2.84,0,0,1-2.117-.082l-.36-3.932Z" transform="translate(-332.15 -743.709)" fill="url(#linear-gradient-55)"/>
      <path id="Trazado_129325" data-name="Trazado 129325" d="M335.1,1047.9l-.926,1.485a1.775,1.775,0,0,0-.212,1.391c.324,1.237.971,3.648,1.252,4.277.384.856,5.541,1.364,5.541,1.364s.46-.644-.6-1.427-1.757-.907-2.135-2.057a30.165,30.165,0,0,1-.632-4.416Z" transform="translate(-249.698 -744.895)" fill="url(#linear-gradient-56)"/>
      <path id="Trazado_129326" data-name="Trazado 129326" d="M341.017,1034.423a48.011,48.011,0,0,0-2,5.3s-.535.683-1.555-.327-.46-.454-.46-.454L337.2,1034Z" transform="translate(-251.752 -735.199)" fill="url(#linear-gradient-57)"/>
      <path id="Trazado_129327" data-name="Trazado 129327" d="M432.61,797.848c.42,10.7.439,22.324-.178,34.742-.693,13.985-2.087,26.918-3.841,38.626-.653.021-1.34.024-2.054,0-.484,0-.953-.036-1.406-.067a89.433,89.433,0,0,1-2.952-9.442,91.377,91.377,0,0,1-2.063-11.036c-1.533-12.119.266-13.178-.98-22.157-1.1-7.966-2.677-8.275-4.513-19.58-2-12.255-.508-14.091.215-14.756C417.914,791.36,425.146,793.287,432.61,797.848Z" transform="translate(-305.304 -566.991)" fill="url(#linear-gradient-58)"/>
      <path id="Trazado_129328" data-name="Trazado 129328" d="M414.838,794.2c2.934-2.695,9.648-1.065,16.741,3.052-8.166,8.813-9.049,14.518-8.069,18.241,1.1,4.192,4.464,5.4,4.452,9.981,0,5.635-5.1,7.129-4.993,13.09.073,3.932,2.308,3.9,2.834,8.771.626,5.747-2.293,7.746-1.349,12.007.408,1.836,1.567,4.234,4.875,6.7-.239,1.751-.484,3.484-.738,5.184-.653.021-1.34.024-2.054,0-.484,0-.953-.036-1.406-.067a89.555,89.555,0,0,1-2.952-9.439,91.528,91.528,0,0,1-2.063-11.036c-1.533-12.119.266-13.178-.98-22.157-1.1-7.966-2.677-8.278-4.513-19.581C412.627,796.7,414.115,794.868,414.838,794.2Z" transform="translate(-305.304 -567.006)" opacity="0.3" fill="url(#linear-gradient-59)"/>
      <path id="Trazado_129329" data-name="Trazado 129329" d="M370.137,795.039A240.254,240.254,0,0,0,337.2,865.531a4.268,4.268,0,0,1-2.359.354,4.352,4.352,0,0,1-2.662-1.44,69.114,69.114,0,0,1-.6-17.061,58.524,58.524,0,0,1,2.4-12.821c1.939-6.255,3.272-6.605,5.8-13.223,2.625-6.869,1.99-8.583,4.506-17.179A113.342,113.342,0,0,1,349.9,789.09Z" transform="translate(-247.884 -564.361)" fill="url(#linear-gradient-60)"/>
      <path id="Trazado_129330" data-name="Trazado 129330" d="M569.54,549.7s1.361-1.63,2.232-2.846a50.979,50.979,0,0,1,4.863-4.6s.3.557-.578,1.418-2.677,2.332-2.283,2.979,1.536,1.234.677,2.42-2.284.333-3.046,1.282-1.539,1.987-1.539,1.987Z" transform="translate(-414.064 -392.184)" fill="url(#linear-gradient-61)"/>
      <path id="Trazado_129331" data-name="Trazado 129331" d="M468.221,561.21l2.722,3.421a50.926,50.926,0,0,1-9.406,19.977c-6.109,7.806-19.139,19.5-27.251,15.664-4.942-2.335-11.617-10.353-9.219-14.215,2.3-3.717,12.282-1.96,19.136-3.508C450.927,581.029,459.647,576.142,468.221,561.21Z" transform="translate(-312.935 -405.403)" fill="#7d6eb2"/>
      <path id="Trazado_129332" data-name="Trazado 129332" d="M354.687,659.31s-5.314,18.089-2.02,25.052,13.792-.684,13.792-.684Z" transform="translate(-262.032 -473.833)" fill="url(#linear-gradient-62)"/>
      <path id="Trazado_129333" data-name="Trazado 129333" d="M357.941,659.38s-5.317,18.089-2.023,25.052,13.792-.668,13.792-.668Z" transform="translate(-264.3 -473.882)" fill="#7d6eb2" opacity="0.3"/>
      <path id="Trazado_129334" data-name="Trazado 129334" d="M322.784,637.131c6.826-.124,12.1.1,14.992,3.133,3.07,3.206-.178,6.678.324,14.9.768,12.585,8.707,15.827,9.031,28.584a32.56,32.56,0,0,1-1.3,9.887,34.284,34.284,0,0,1-9.046,7.664c-6.258,3.629-9.824,2.888-18.752,5.124-14.59,3.654-15.984,8.351-23.149,6.99-7.244-1.376-13.486-7.631-12.645-10.973.508-2,3.424-1.367,6.866-4.364,4.434-3.859,2.84-7.67,6.24-11.847,4.882-6,11.414-2.117,15.576-7.328,4.21-5.263,2.816-15.842-.508-21.664-2.172-3.8-3.043-8.224-4.872-12.2a2.722,2.722,0,0,1-.23-1.54c.366-2.556,4.67-3.853,7.93-4.8A38.714,38.714,0,0,1,322.784,637.131Z" transform="translate(-213.6 -458.344)" fill="#7d6eb2"/>
      <path id="Trazado_129335" data-name="Trazado 129335" d="M413.227,635.715l-1.346-.445s-.393,1.815-4.724,1.948a6.454,6.454,0,0,1-3.932-1.431l-.935.65a7.076,7.076,0,0,0,5.172,2.568,6.43,6.43,0,0,0,5.765-3.291Z" transform="translate(-297.398 -457.064)" fill="url(#linear-gradient-63)"/>
      <path id="Trazado_129336" data-name="Trazado 129336" d="M415.075,602.619a5.761,5.761,0,0,0-.992-4.056c-1.022-1.536-1.267-1.736-1.712-1.978l-.6-.3-.07-.021a6.7,6.7,0,0,0-1.911.057c-.808.251-1.376,3.681-.7,8.4-.033.369-.064.741-.1,1.11-1.836-.254-2.368-.079-2.462.166-.2.532,1.074,3.645,2.825,4.255,2.193.768,5.247-1.234,5.429-1.957.076-.3.06-.042-1.431-.907-.139-.432-.566-1.606-.7-2.042C412.958,605.135,414.806,604.08,415.075,602.619Z" transform="translate(-300.342 -429.823)" fill="url(#linear-gradient-64)"/>
      <path id="Trazado_129337" data-name="Trazado 129337" d="M424.383,611.693c-.405-.463-1,.06-.941.7s.735,1.249,1.325,1.068S424.927,612.313,424.383,611.693Z" transform="translate(-312.15 -440.495)" fill="url(#linear-gradient-65)"/>
      <path id="Trazado_129338" data-name="Trazado 129338" d="M191.81,538.971c8.907-5.039,23.633,1.866,30.3,10.362,3.1,3.947,4.113,7.758,8.7,9.527,3.49,1.346,9.579,1.83,13.8-1.062.529-.366,2.686-1.918,5.768-3.759,1.358-.811,2.686-1.555,4.295-1.3a3.116,3.116,0,0,1,2.359,1.379,3.155,3.155,0,0,1-.212,2.919c-.287.466-.463.469-.547.811-.236.953,1.334,1.905,1.089,2.347-.178.3-1.022-.094-1.31.278s.526,1.119.572,2.42c.6.774.687,2.238.3,4.038a16.734,16.734,0,0,1-2.492,6.049c-4.77,6.8-8.184,11.668-13.2,13.383-6.654,2.268-10.283-2.973-23.736-7.948-18.419-6.808-25.1-1.975-30.429-8.469C180.417,561.848,182.564,544.2,191.81,538.971Z" transform="translate(-144.571 -388.699)" fill="#26264f"/>
      <g id="Grupo_55937" data-name="Grupo 55937" transform="translate(75.412 189.288)" opacity="0.3">
        <path id="Trazado_129339" data-name="Trazado 129339" d="M315.82,726.892c6.866-4.561,13.081.656,17.935-3.363,4-3.309.72-7.625,5.045-13.45,4.739-6.388,11.321-4.754,12.89-9.527,1.618-4.933-4.882-8.281-5.045-15.122-.085-3.511,1.479-8.048,7.758-13.519a31.307,31.307,0,0,0-.5,7.528c.768,12.585,8.707,15.827,9.031,28.584a32.559,32.559,0,0,1-1.3,9.887,34.286,34.286,0,0,1-9.046,7.664c-6.258,3.629-9.824,2.888-18.752,5.123-14.59,3.654-15.984,8.351-23.149,6.99a18.987,18.987,0,0,1-5.867-2.22,11.4,11.4,0,0,0,4.839-1.854C312.79,731.447,312.239,729.272,315.82,726.892Z" transform="translate(-304.82 -671.91)" fill="#7d6eb2"/>
      </g>
    </g>
  </g>
</svg>
