<svg xmlns="http://www.w3.org/2000/svg" width="733.543" height="478.66" viewBox="0 0 733.543 478.66">
  <g id="report-1-01" transform="translate(-23.59 0.01)">
    <ellipse id="Elipse_4234" data-name="Elipse 4234" cx="366.772" cy="45.159" rx="366.772" ry="45.159" transform="translate(23.59 388.332)" fill="#aee6e6" opacity="0.2"/>
    <path id="Trazado_129340" data-name="Trazado 129340" d="M574.7,202.581v5.662a3.839,3.839,0,0,0,3.766,3.906l6.614-.018a3.84,3.84,0,0,0,3.748-3.931v-4a3.9,3.9,0,0,1,2.656-3.759c.3-.1.6-.2.9-.3a3.63,3.63,0,0,1,4.067,1.212l2.23,2.789a3.648,3.648,0,0,0,5.291.5l5.067-4.409a4.042,4.042,0,0,0,.481-5.511l-2.234-2.8a4.042,4.042,0,0,1-.419-4.4c.154-.287.3-.577.448-.867a3.7,3.7,0,0,1,4.02-2.058l3.773.735a3.766,3.766,0,0,0,4.376-3.138l1.205-6.771a3.913,3.913,0,0,0-3.005-4.571l-5.335-1.036a3.843,3.843,0,0,1-2.939-2.884,28.09,28.09,0,0,0-1.194-3.674,4.064,4.064,0,0,1,1.043-4.563l3.281-2.851a4.042,4.042,0,0,0,.478-5.511l-4.236-5.309a3.652,3.652,0,0,0-5.291-.5l-4.409,3.839a3.634,3.634,0,0,1-4,.555c-.32-.154-.639-.3-.963-.448a3.909,3.909,0,0,1-2.267-3.586v-6.393a3.839,3.839,0,0,0-3.766-3.909h-6.614a3.843,3.843,0,0,0-3.744,3.931V144a3.913,3.913,0,0,1-2.572,3.722l-.051.018a3.649,3.649,0,0,1-4.089-1.2l-3.16-3.961a3.645,3.645,0,0,0-5.291-.5l-5.07,4.409A4.042,4.042,0,0,0,557.02,152l3.16,3.953a4.041,4.041,0,0,1,.4,4.409l-.029.055a3.707,3.707,0,0,1-3.968,1.951l-5.169-1a3.77,3.77,0,0,0-4.38,3.141l-1.157,6.827a3.917,3.917,0,0,0,3.009,4.571l6.022,1.161a3.817,3.817,0,0,1,2.972,2.972c.077.367.162.713.254,1.066a4.042,4.042,0,0,1-1.235,4.008l-4.409,3.839a4.042,4.042,0,0,0-.478,5.511l4.2,5.305a3.648,3.648,0,0,0,5.291.5l3.281-2.855a3.674,3.674,0,0,1,4.486-.254,25.822,25.822,0,0,0,3.241,1.877A3.961,3.961,0,0,1,574.7,202.581Zm-2.649-18.757c-4.9-6.139-3.193-18.4,2.693-23.515s15.567-2.77,20.465,3.369,1.969,16.328-3.917,21.45-14.337,4.839-19.242-1.3Z" transform="translate(-330.345 -85.14)" fill="#7d6eb2"/>
    <path id="Trazado_129341" data-name="Trazado 129341" d="M1259.642,106.037h-.195l-8.9-.323a5.724,5.724,0,0,1-5.361-5.989l.243-8.138a4.923,4.923,0,0,0-2.513-4.516c-.43-.231-.86-.47-1.271-.713a4.369,4.369,0,0,0-5,.415l-6.514,5.309a5.309,5.309,0,0,1-4.042,1.176,5.47,5.47,0,0,1-3.733-2.2l-5.471-7.4a5.985,5.985,0,0,1,.963-8.116l5.6-4.552a5,5,0,0,0,1.514-5.449l-.026-.077a4.663,4.663,0,0,0-4.2-3.255l-6.65-.235a5.724,5.724,0,0,1-5.364-5.989l.272-9.351a5.805,5.805,0,0,1,1.837-4.126,5.339,5.339,0,0,1,3.873-1.47l6.657.242h.155a4.585,4.585,0,0,0,4.21-2.939l.029-.066a5.063,5.063,0,0,0-1.209-5.574l-5.32-4.953a6,6,0,0,1-.485-8.149l5.879-6.981a5.368,5.368,0,0,1,7.841-.492l6.187,5.768a4.383,4.383,0,0,0,4.964.775c.434-.213.878-.423,1.315-.617a4.846,4.846,0,0,0,2.767-4.317l.235-8.135a5.849,5.849,0,0,1,1.837-4.13,5.339,5.339,0,0,1,3.88-1.47l8.888.32A5.719,5.719,0,0,1,1267.9,6.3l-.177,6.048a4.883,4.883,0,0,0,3.167,4.776,35.348,35.348,0,0,1,4.673,2.087,4.438,4.438,0,0,0,4.909-.452l5.779-4.7a5.306,5.306,0,0,1,4.042-1.176,5.488,5.488,0,0,1,3.733,2.2l5.467,7.4a5.985,5.985,0,0,1-.966,8.113l-4.082,3.307a5.037,5.037,0,0,0-1.47,5.588c.158.419.3.845.445,1.271a4.637,4.637,0,0,0,4.181,3.219l4.7.173a5.72,5.72,0,0,1,5.357,5.985l-.268,9.343a5.849,5.849,0,0,1-1.837,4.13,5.346,5.346,0,0,1-3.873,1.47l-4.7-.169a4.552,4.552,0,0,0-4.354,2.906c-.169.419-.342.834-.522,1.246a5.081,5.081,0,0,0,1.146,5.677l3.88,3.615a6,6,0,0,1,.489,8.164l-5.879,6.981a5.364,5.364,0,0,1-7.826.485l-5.5-5.089a4.457,4.457,0,0,0-4.879-.812,34.959,34.959,0,0,1-4.776,1.749,4.776,4.776,0,0,0-3.428,4.53l-.176,6.051a5.85,5.85,0,0,1-1.837,4.13,5.357,5.357,0,0,1-3.678,1.481Zm-20.208-21.218a5.287,5.287,0,0,1,2.671.735c.4.239.819.47,1.238.694a5.879,5.879,0,0,1,3.009,5.368l-.239,8.138a4.781,4.781,0,0,0,4.457,5.023l8.891.323a4.409,4.409,0,0,0,3.2-1.212,4.909,4.909,0,0,0,1.536-3.468l.176-6.055a5.728,5.728,0,0,1,4.111-5.4,34.232,34.232,0,0,0,4.651-1.7,5.39,5.39,0,0,1,5.9.981l5.489,5.107a4.427,4.427,0,0,0,6.489-.4l5.879-6.981a5.048,5.048,0,0,0-.408-6.871l-3.891-3.63a5.959,5.959,0,0,1-1.367-6.746q.265-.6.507-1.212a5.485,5.485,0,0,1,5.265-3.5l4.692.173a4.409,4.409,0,0,0,3.2-1.216,4.89,4.89,0,0,0,1.536-3.468l.272-9.343a4.785,4.785,0,0,0-4.453-5.023l-4.7-.173a5.581,5.581,0,0,1-5.037-3.862c-.136-.419-.283-.83-.434-1.242a5.912,5.912,0,0,1,1.756-6.639l4.082-3.307a5.03,5.03,0,0,0,.8-6.823l-5.467-7.4a4.542,4.542,0,0,0-3.094-1.837,4.409,4.409,0,0,0-3.34.97l-5.776,4.7a5.371,5.371,0,0,1-5.948.555,34.426,34.426,0,0,0-4.541-2.057,5.809,5.809,0,0,1-3.784-5.688l.176-6.048a4.781,4.781,0,0,0-4.457-5.023L1253.6.938a4.409,4.409,0,0,0-3.2,1.212,4.908,4.908,0,0,0-1.536,3.468l-.235,8.138a5.791,5.791,0,0,1-3.307,5.144c-.426.191-.856.393-1.279.6a5.317,5.317,0,0,1-6.022-.933l-6.191-5.768a4.409,4.409,0,0,0-6.474.419L1219.48,20.2a5.052,5.052,0,0,0,.408,6.871l5.32,4.953a5.993,5.993,0,0,1,1.429,6.584l-.026.073a5.511,5.511,0,0,1-5.276,3.524l-6.658-.242a4.409,4.409,0,0,0-3.193,1.212,4.9,4.9,0,0,0-1.558,3.479l-.268,9.351a4.776,4.776,0,0,0,4.457,5.019l6.654.239a5.6,5.6,0,0,1,5.052,3.9l.026.077a5.941,5.941,0,0,1-1.815,6.47l-5.592,4.556a5.026,5.026,0,0,0-.8,6.827l5.474,7.4a4.534,4.534,0,0,0,3.094,1.837,4.38,4.38,0,0,0,3.34-.974l6.514-5.309a5.383,5.383,0,0,1,3.395-1.231Z" transform="translate(-749.698 0)" fill="#f5ca56"/>
    <path id="Trazado_129342" data-name="Trazado 129342" d="M1308.308,128.634h-.643c-5-.184-10.288-3.211-14.5-8.311-4.086-4.938-6.433-11.022-6.279-16.31a18.451,18.451,0,0,1,6.121-12.9,22.728,22.728,0,0,1,15.942-6.139c4.949.176,9.553,3.035,12.974,8.05a27.587,27.587,0,0,1,4.7,15.986,21.253,21.253,0,0,1-6.411,14.895A17.305,17.305,0,0,1,1308.308,128.634Zm-.073-42.741a21.824,21.824,0,0,0-14.586,5.9,17.532,17.532,0,0,0-5.827,12.235c-.316,10.92,10.086,23.3,19.874,23.654a16.383,16.383,0,0,0,11.875-4.468,20.311,20.311,0,0,0,6.117-14.237c.309-10.6-6.8-22.717-16.772-23.074Z" transform="translate(-799.139 -53.753)" fill="#f5ca56"/>
    <path id="Trazado_129343" data-name="Trazado 129343" d="M924.228,216.323l12.125-3.274a9.1,9.1,0,0,0,6.246-11.022l-3.8-15.409a8.657,8.657,0,0,0-10.578-6.514l-8.586,2.311a8.524,8.524,0,0,1-9.586-4.067q-.57-.977-1.168-1.936a9.329,9.329,0,0,1,.276-10.2l4.721-6.8a9.325,9.325,0,0,0-1.947-12.657l-12.338-9.336a8.451,8.451,0,0,0-12.125,2.028l-4.725,6.808a8.45,8.45,0,0,1-9.185,3.465q-1.058-.3-2.116-.551a8.954,8.954,0,0,1-6.713-8.23l-.581-9.233a8.824,8.824,0,0,0-9.237-8.451L839.7,124.3a8.932,8.932,0,0,0-8.083,9.637L832.44,147a9.185,9.185,0,0,1-4.5,8.546,61.124,61.124,0,0,0-7.19,4.879,8.451,8.451,0,0,1-10.391.165l-7.995-6.04a8.451,8.451,0,0,0-12.125,2.032l-8.954,12.893a9.321,9.321,0,0,0,1.947,12.654l10.754,8.124a9.248,9.248,0,0,1,3.479,9.038q-.231,1.249-.419,2.506a8.88,8.88,0,0,1-6.4,7.348l-13.708,3.674a9.109,9.109,0,0,0-6.246,11.041l3.806,15.431a8.658,8.658,0,0,0,10.574,6.518l11.776-3.167a8.524,8.524,0,0,1,9.446,3.839l.066.107a9.366,9.366,0,0,1-.246,10.247l-6.7,9.637a9.323,9.323,0,0,0,1.947,12.661l12.363,9.347a8.451,8.451,0,0,0,12.125-2.035l6.68-9.652a8.473,8.473,0,0,1,9.248-3.45l.132.037a8.976,8.976,0,0,1,6.452,8.164l.8,12.654a8.823,8.823,0,0,0,9.241,8.451l15.226-1.058a8.944,8.944,0,0,0,8.083-9.645l-.937-14.741a9.108,9.108,0,0,1,4.677-8.649q1.08-.573,2.146-1.2a8.381,8.381,0,0,1,9.31.621l10.773,8.109a8.451,8.451,0,0,0,12.125-2.028l8.939-12.9a9.318,9.318,0,0,0-1.958-12.657l-8-6.04a9.345,9.345,0,0,1-3.1-10.346,65.431,65.431,0,0,0,2.179-8.645,8.957,8.957,0,0,1,6.375-7.15Zm-38.74,16.9c-10.38,14.968-37.671,17.956-52.033,7.124s-14.829-34.82-4.446-49.781,33.92-13.918,48.267-3.083,18.591,30.756,8.212,45.732Z" transform="translate(-472.427 -77.958)" fill="#26aab7"/>
    <path id="Trazado_129344" data-name="Trazado 129344" d="M866.647,327.366a8.7,8.7,0,0,1-5.746-2.182,9.4,9.4,0,0,1-3.174-6.533l-.8-12.665a8.719,8.719,0,0,0-6.246-7.925l-.132-.033a8.241,8.241,0,0,0-8.958,3.343l-6.683,9.652a8.818,8.818,0,0,1-5.879,3.762,8.634,8.634,0,0,1-6.614-1.664l-12.385-9.34a9.6,9.6,0,0,1-2.006-13.021l6.694-9.652a9.141,9.141,0,0,0,.239-9.953l-.066-.107a8.245,8.245,0,0,0-9.149-3.726l-11.776,3.163a8.582,8.582,0,0,1-6.643-.911,9.208,9.208,0,0,1-4.258-5.794l-3.806-15.431a9.379,9.379,0,0,1,6.433-11.36l13.7-3.674a8.6,8.6,0,0,0,6.209-7.12c.125-.841.264-1.69.419-2.52a9,9,0,0,0-3.373-8.778L791.9,206.784a9.608,9.608,0,0,1-2.006-13.021l8.936-12.878a8.818,8.818,0,0,1,5.879-3.759,8.608,8.608,0,0,1,6.613,1.664l7.995,6.04a8.142,8.142,0,0,0,10.063-.162,61.337,61.337,0,0,1,7.223-4.9,8.976,8.976,0,0,0,4.372-8.3l-.823-13.065a9.21,9.21,0,0,1,8.34-9.92l15.218-1.047a8.686,8.686,0,0,1,6.349,2.168,9.381,9.381,0,0,1,3.171,6.529l.584,9.233a8.632,8.632,0,0,0,6.507,7.988c.705.169,1.422.367,2.124.551a8.2,8.2,0,0,0,8.9-3.354l4.729-6.812a8.818,8.818,0,0,1,5.879-3.751,8.627,8.627,0,0,1,6.614,1.664l12.356,9.325a9.6,9.6,0,0,1,2,13.021l-4.681,6.808a9.089,9.089,0,0,0-.272,9.92c.4.639.8,1.293,1.176,1.944a8.215,8.215,0,0,0,9.285,3.946l8.586-2.315a8.59,8.59,0,0,1,6.647.915,9.207,9.207,0,0,1,4.258,5.794l3.807,15.409a9.384,9.384,0,0,1-6.43,11.357l-12.125,3.274-.07-.261.07.261a8.722,8.722,0,0,0-6.176,6.94,66.728,66.728,0,0,1-2.2,8.682,9.042,9.042,0,0,0,3.009,10.049l8,6.04a9.6,9.6,0,0,1,2,13.021l-8.939,12.9a8.818,8.818,0,0,1-5.879,3.759,8.616,8.616,0,0,1-6.613-1.668l-10.758-8.127a8.112,8.112,0,0,0-9.053-.617c-.706.411-1.429.816-2.157,1.2a8.818,8.818,0,0,0-4.538,8.4l.937,14.744a9.2,9.2,0,0,1-8.333,9.92l-15.226,1.058C867.048,327.362,866.849,327.366,866.647,327.366Zm-18.22-30.157a8.451,8.451,0,0,1,2.271.312l.132.037a9.244,9.244,0,0,1,6.647,8.4l.8,12.657a8.84,8.84,0,0,0,2.995,6.162,8.127,8.127,0,0,0,5.959,2.035l15.226-1.058a8.684,8.684,0,0,0,7.841-9.358l-.941-14.744a9.354,9.354,0,0,1,4.806-8.9c.735-.367,1.44-.783,2.138-1.19a8.649,8.649,0,0,1,9.6.636l10.754,8.127a8.083,8.083,0,0,0,6.206,1.565,8.3,8.3,0,0,0,5.541-3.531l8.939-12.9a9.06,9.06,0,0,0-1.888-12.29l-8-6.044a9.553,9.553,0,0,1-3.2-10.637,66.11,66.11,0,0,0,2.171-8.612,9.27,9.27,0,0,1,6.562-7.348l12.125-3.27a8.849,8.849,0,0,0,6.048-10.714l-3.8-15.409a8.678,8.678,0,0,0-4.016-5.463,8.035,8.035,0,0,0-6.246-.856l-8.587,2.311a8.733,8.733,0,0,1-9.883-4.192c-.367-.647-.768-1.293-1.168-1.929a9.641,9.641,0,0,1,.283-10.493l4.721-6.808a9.06,9.06,0,0,0-1.889-12.29l-12.356-9.325a8.083,8.083,0,0,0-6.2-1.565,8.315,8.315,0,0,0-5.541,3.531l-4.7,6.793a8.733,8.733,0,0,1-9.476,3.568c-.7-.195-1.407-.367-2.105-.547a9.16,9.16,0,0,1-6.915-8.473l-.584-9.233A8.844,8.844,0,0,0,869.711,150a8.123,8.123,0,0,0-5.959-2.035l-15.218,1.047a8.683,8.683,0,0,0-7.844,9.354l.819,13.065a9.5,9.5,0,0,1-4.637,8.792,61.3,61.3,0,0,0-7.154,4.879,8.667,8.667,0,0,1-10.714.169l-8-6.048a8.083,8.083,0,0,0-6.206-1.565,8.322,8.322,0,0,0-5.541,3.535l-8.932,12.893a9.068,9.068,0,0,0,1.889,12.29l10.758,8.12a9.553,9.553,0,0,1,3.568,9.292c-.154.823-.294,1.664-.415,2.5a9.126,9.126,0,0,1-6.614,7.558l-13.7,3.674a8.867,8.867,0,0,0-6.029,10.725l3.806,15.431a8.66,8.66,0,0,0,4.012,5.463,8.061,8.061,0,0,0,6.246.856l11.776-3.167a8.789,8.789,0,0,1,9.74,3.95l.066.107a9.681,9.681,0,0,1-.254,10.541l-6.691,9.652a9.056,9.056,0,0,0,1.885,12.29l12.341,9.332a8.083,8.083,0,0,0,6.206,1.562,8.3,8.3,0,0,0,5.552-3.538l6.683-9.648A8.884,8.884,0,0,1,848.427,297.209Z" transform="translate(-477.847 -93.26)" fill="#366f90"/>
    <rect id="Rectángulo_30790" data-name="Rectángulo 30790" width="282.09" height="272.115" transform="translate(249.315 153.235)" fill="#9bc2eb" opacity="0.8"/>
    <path id="Trazado_129345" data-name="Trazado 129345" d="M398.849,364.025,259.97,333.21l9.354,320.014L398.849,636.14Z" transform="translate(-149.531 -210.79)" fill="#8fb3e3" opacity="0.8"/>
    <path id="Trazado_129346" data-name="Trazado 129346" d="M1405.72,364.025,1544.6,333.21l-9.354,320.014L1405.72,636.14Z" transform="translate(-874.315 -210.79)" fill="#8fb3e3" opacity="0.8"/>
    <path id="Trazado_129347" data-name="Trazado 129347" d="M1177,1050.835h-.074l-97.773-1.668a4.96,4.96,0,0,1-4.82-4.736l-1.984-29.525a5.21,5.21,0,0,1,1.338-3.861,4.828,4.828,0,0,1,3.472-1.584l99.753-1.962a4.776,4.776,0,0,1,3.472,1.393,5.144,5.144,0,0,1,1.536,3.7v33.155a5.143,5.143,0,0,1-1.532,3.693A4.776,4.776,0,0,1,1177,1050.835Zm-.066-.97a3.847,3.847,0,0,0,2.767-1.1,4.177,4.177,0,0,0,1.242-3v-33.156a4.162,4.162,0,0,0-1.246-3.005,3.821,3.821,0,0,0-2.7-1.1h-.074l-99.753,1.962a3.847,3.847,0,0,0-2.774,1.271,4.239,4.239,0,0,0-1.1,3.138l1.984,29.529a3.994,3.994,0,0,0,3.869,3.829Z" transform="translate(-663.421 -637.334)" fill="#daebe8"/>
    <path id="Trazado_129348" data-name="Trazado 129348" d="M1139.98,1067.929h-35.334a2.429,2.429,0,0,1-2.08-1.646,1.909,1.909,0,0,1,2.076-2.113l35.338.819a1.447,1.447,0,0,1,1.411,1.469h0A1.448,1.448,0,0,1,1139.98,1067.929Z" transform="translate(-682.532 -673.185)" fill="#daebe8"/>
    <path id="Trazado_129349" data-name="Trazado 129349" d="M1130.8,1050.41h-26.671a1.86,1.86,0,0,1-1.569-1.319,1.486,1.486,0,0,1,1.565-1.7l26.674.658a1.135,1.135,0,0,1,1.066,1.183h0A1.132,1.132,0,0,1,1130.8,1050.41Z" transform="translate(-682.533 -662.57)" fill="#daebe8"/>
    <path id="Trazado_129350" data-name="Trazado 129350" d="M1130.8,1088.13h-26.671a1.864,1.864,0,0,1-1.569-1.323,1.485,1.485,0,0,1,1.565-1.7l26.674.658a1.131,1.131,0,0,1,1.065,1.179h0a1.135,1.135,0,0,1-1.065,1.183Z" transform="translate(-682.533 -686.431)" fill="#daebe8"/>
    <path id="Trazado_129351" data-name="Trazado 129351" d="M1114.075,959.395h-35.334a2.426,2.426,0,0,1-2.076-1.642,1.906,1.906,0,0,1,2.072-2.113l35.338.816a1.447,1.447,0,0,1,1.414,1.47h0A1.448,1.448,0,0,1,1114.075,959.395Z" transform="translate(-666.147 -604.53)" fill="#daebe8"/>
    <path id="Trazado_129352" data-name="Trazado 129352" d="M1104.925,979.59h-26.652a1.887,1.887,0,0,1-1.569-1.319,1.488,1.488,0,0,1,1.569-1.7l26.671.658a1.132,1.132,0,0,1,1.066,1.183h0a1.132,1.132,0,0,1-1.084,1.179Z" transform="translate(-666.175 -617.77)" fill="#daebe8"/>
    <path id="Trazado_129353" data-name="Trazado 129353" d="M487.068,552.263l4.751-10.655c.658-1.47,2.572-1.624,3.939-.316l6.349,6.1c1.448,1.393,3.5,1.1,4.042-.555l3.656-11.482a2.186,2.186,0,0,1,3.355-1.062l3.5,2a2.286,2.286,0,0,0,2.961-.334l.555-.665c1.5-1.793,4.714-.022,4.714,2.6v23.272a2.1,2.1,0,0,1-2.612,2.175l-32.8-6.8A3.323,3.323,0,0,1,487.068,552.263Z" transform="translate(-293.056 -337.751)" fill="#f5ca56"/>
    <path id="Trazado_129354" data-name="Trazado 129354" d="M416.615,530.542a4.867,4.867,0,0,1-1.04-.114l-94.5-12.547c-6.786-.389-7.143-4.611-7.918-13.844l-.1-1.209-1.984-29.948a4.409,4.409,0,0,1,1.37-3.637,4.071,4.071,0,0,1,3.538-.9l99.757,18.738a6.334,6.334,0,0,1,4.909,6.022v33.155a4.247,4.247,0,0,1-1.528,3.406A3.957,3.957,0,0,1,416.615,530.542ZM315.1,469.231a3,3,0,0,0-2.013.735,3.406,3.406,0,0,0-1.043,2.847l1.984,29.941.1,1.2c.772,9.185,1.062,12.621,7.025,12.959h.037l94.558,12.558h0a3.2,3.2,0,0,0,2.748-.547,3.307,3.307,0,0,0,1.165-2.649V493.143a5.391,5.391,0,0,0-4.119-5.067L315.811,469.3A3.841,3.841,0,0,0,315.1,469.231Z" transform="translate(-181.846 -296.215)" fill="#daebe8"/>
    <path id="Trazado_129355" data-name="Trazado 129355" d="M378.745,535.553,343.411,528.2a3.21,3.21,0,0,1-2.076-2.072c-.213-1.69,1.3-1.837,2.076-1.683l35.334,8.157a1.874,1.874,0,0,1,1.415,1.764h0a1.139,1.139,0,0,1-1.415,1.183Z" transform="translate(-200.988 -331.736)" fill="#daebe8"/>
    <path id="Trazado_129356" data-name="Trazado 129356" d="M369.569,515.981,342.9,510.441a2.471,2.471,0,0,1-1.565-1.646c-.162-1.356.977-1.5,1.565-1.374l26.671,6.2a1.47,1.47,0,0,1,1.069,1.4h0a.893.893,0,0,1-1.069.963Z" transform="translate(-200.99 -320.971)" fill="#daebe8"/>
    <path id="Trazado_129357" data-name="Trazado 129357" d="M369.569,553.691,342.9,548.151a2.464,2.464,0,0,1-1.565-1.646c-.162-1.356.977-1.5,1.565-1.374l26.671,6.2a1.47,1.47,0,0,1,1.069,1.4h0a.893.893,0,0,1-1.069.959Z" transform="translate(-200.99 -344.826)" fill="#daebe8"/>
    <path id="Trazado_129358" data-name="Trazado 129358" d="M352.84,421.637l-35.334-7.348a3.221,3.221,0,0,1-2.08-2.076c-.209-1.686,1.3-1.837,2.076-1.683l35.338,8.157a1.874,1.874,0,0,1,1.411,1.764h0a1.139,1.139,0,0,1-1.411,1.187Z" transform="translate(-184.599 -259.672)" fill="#daebe8"/>
    <path id="Trazado_129359" data-name="Trazado 129359" d="M343.663,439.778l-26.671-5.537a2.474,2.474,0,0,1-1.569-1.65c-.162-1.352.977-1.492,1.565-1.37l26.674,6.195a1.47,1.47,0,0,1,1.065,1.4h0a.889.889,0,0,1-1.066.959Z" transform="translate(-184.6 -272.768)" fill="#daebe8"/>
    <path id="Trazado_129360" data-name="Trazado 129360" d="M1098.289,594.973a54.053,54.053,0,0,1-8.586,29.654h0a57.977,57.977,0,0,1-15.351,15.854c-.367.261-.735.522-1.1.772a70.168,70.168,0,0,1-39.093,11.632,75.692,75.692,0,0,1-12.893-1.1c-28.037-4.824-51.034-25.322-51.034-55.744,0-26.546,13.161-51.989,37.447-63.5a68.071,68.071,0,0,1,26.48-6.353c23.441-1.018,45.493,13.962,56.615,36.411A72.725,72.725,0,0,1,1098.289,594.973Z" transform="translate(-598.831 -332.833)" fill="#daebe8"/>
    <path id="Trazado_129361" data-name="Trazado 129361" d="M1034.21,600.568,1021.2,662.844c-28.037-4.824-51.034-25.322-51.034-55.744,0-26.546,13.161-51.989,37.447-63.5Z" transform="translate(-598.793 -343.88)" fill="#366f90"/>
    <path id="Trazado_129362" data-name="Trazado 129362" d="M1162.172,749.615a69.945,69.945,0,0,1-40.21,12.4,75.69,75.69,0,0,1-12.893-1.1l13.006-62.277Z" transform="translate(-686.659 -441.956)" fill="#f5ca56"/>
    <path id="Trazado_129363" data-name="Trazado 129363" d="M1199.924,733.757a57.889,57.889,0,0,1-15.358,15.865c-.368.261-.735.522-1.1.772L1144.47,698.65Z" transform="translate(-709.052 -441.962)" fill="#acc9c5"/>
    <path id="Trazado_129364" data-name="Trazado 129364" d="M1208.523,657.753a54.054,54.054,0,0,1-8.587,29.654h0l-55.447-35.117,56.5-26.909a72.725,72.725,0,0,1,7.532,32.373Z" transform="translate(-709.065 -395.613)" fill="#b8d5dc"/>
    <path id="Trazado_129365" data-name="Trazado 129365" d="M392.03,990.124a30.407,30.407,0,0,1-4.556,16.078h0a34.37,34.37,0,0,1-8.149,9.016l-.6.456a39.919,39.919,0,0,1-27.6,7.627c-14.884-1.47-27.093-11.445-27.093-27.593,0-14.094,6.981-28.118,19.881-35.18a38.318,38.318,0,0,1,14.057-4.409c12.444-1.47,24.15,5.621,30.055,17.11A36.782,36.782,0,0,1,392.03,990.124Z" transform="translate(-190.06 -604.712)" fill="#daebe8"/>
    <path id="Trazado_129366" data-name="Trazado 129366" d="M358.027,997.622l-6.9,33.571c-14.884-1.47-27.093-11.445-27.093-27.593,0-14.094,6.981-28.118,19.881-35.18Z" transform="translate(-190.054 -612.615)" fill="#366f90"/>
    <path id="Trazado_129367" data-name="Trazado 129367" d="M425.962,1073.388a39.894,39.894,0,0,1-28.192,8.083l6.9-33.571Z" transform="translate(-236.701 -662.893)" fill="#f5ca56"/>
    <path id="Trazado_129368" data-name="Trazado 129368" d="M446,1064.364a34.3,34.3,0,0,1-8.153,9.024l-.6.456L416.56,1047.9Z" transform="translate(-248.587 -662.893)" fill="#acc9c5"/>
    <path id="Trazado_129369" data-name="Trazado 129369" d="M450.563,1019.9a30.408,30.408,0,0,1-4.556,16.078h0l-29.437-16.471L446.562,1003a36.782,36.782,0,0,1,4,16.9Z" transform="translate(-248.593 -634.49)" fill="#b8d5dc"/>
    <path id="Trazado_129370" data-name="Trazado 129370" d="M709.688,1088.569H692.28l2.083-19.649h15.325Z" transform="translate(-423.004 -676.19)" fill="#daebe8"/>
    <path id="Trazado_129371" data-name="Trazado 129371" d="M778.318,1069.579H760.91l-1.62-30.679h19.028Z" transform="translate(-465.393 -657.199)" fill="#daebe8"/>
    <path id="Trazado_129372" data-name="Trazado 129372" d="M852.518,1044.016H835.11l1.955-45.526h15.453Z" transform="translate(-513.356 -631.637)" fill="#daebe8"/>
    <path id="Trazado_129373" data-name="Trazado 129373" d="M923.928,1053H906.52l2.021-40.309h15.387Z" transform="translate(-558.529 -640.619)" fill="#daebe8"/>
    <path id="Trazado_129374" data-name="Trazado 129374" d="M995.342,1000.994H977.93V930.48h16.133Z" transform="translate(-603.702 -588.614)" fill="#daebe8"/>
    <path id="Trazado_129375" data-name="Trazado 129375" d="M706.25,960.239l-.5-.621,22.192-17.985h15.336l17.4-13.286h22.592l19.366-16.717.522.6-19.594,16.908H760.954L743.546,942.43H728.225Z" transform="translate(-431.525 -576.69)" fill="#ef8062"/>
    <path id="Trazado_129376" data-name="Trazado 129376" d="M956.176,916.62l-.739-.29,2.182-5.526-6.338,2.682-.312-.735,8.09-3.421Z" transform="translate(-586.647 -575.235)" fill="#ef8062"/>
    <path id="Trazado_129377" data-name="Trazado 129377" d="M1170.9,590.409h-35.334a2.434,2.434,0,0,1-2.079-1.646,1.91,1.91,0,0,1,2.076-2.113l35.338.816a1.47,1.47,0,0,1,1.415,1.47h0A1.448,1.448,0,0,1,1170.9,590.409Z" transform="translate(-702.092 -371.113)" fill="#acc9c5"/>
    <path id="Trazado_129378" data-name="Trazado 129378" d="M1161.724,610.606h-26.671a1.86,1.86,0,0,1-1.569-1.319,1.484,1.484,0,0,1,1.565-1.7l26.674.654a1.135,1.135,0,0,1,1.065,1.183h0A1.132,1.132,0,0,1,1161.724,610.606Z" transform="translate(-702.094 -384.359)" fill="#acc9c5"/>
    <path id="Trazado_129379" data-name="Trazado 129379" d="M1282,476.185h-35.334a2.43,2.43,0,0,1-2.076-1.642,1.907,1.907,0,0,1,2.076-2.113l35.334.816a1.448,1.448,0,0,1,1.415,1.47h0a1.448,1.448,0,0,1-1.415,1.47Z" transform="translate(-772.377 -298.859)" fill="#daebe8"/>
    <path id="Trazado_129380" data-name="Trazado 129380" d="M1272.829,496.38h-26.671a1.86,1.86,0,0,1-1.565-1.319,1.484,1.484,0,0,1,1.565-1.7l26.671.658a1.135,1.135,0,0,1,1.069,1.183h0A1.132,1.132,0,0,1,1272.829,496.38Z" transform="translate(-772.379 -312.099)" fill="#daebe8"/>
    <path id="Trazado_129381" data-name="Trazado 129381" d="M1453.15,793.935H1432.3c-.459,0-1.165-.841-1.223-1.642-.125-1.646.764-2.113,1.223-2.113l20.847.816c.456,0,.834.661.834,1.47h0C1453.984,793.274,1453.606,793.935,1453.15,793.935Z" transform="translate(-890.35 -499.863)" fill="#366f90"/>
    <path id="Trazado_129382" data-name="Trazado 129382" d="M1447.733,814.13H1432c-.349,0-.882-.676-.926-1.323-.1-1.319.577-1.7.922-1.7l15.736.658c.345,0,.628.533.628,1.179h0C1448.361,813.6,1448.078,814.13,1447.733,814.13Z" transform="translate(-890.348 -513.103)" fill="#366f90"/>
    <path id="Trazado_129383" data-name="Trazado 129383" d="M1483.657,461.042l-34.324,3.972c-.757.088-1.918-.555-2.017-1.286-.206-1.5,1.26-2.1,2.013-2.186l34.328-3.215a1.194,1.194,0,0,1,1.374,1.2h0A1.58,1.58,0,0,1,1483.657,461.042Z" transform="translate(-900.616 -289.928)" fill="#daebe8"/>
    <path id="Trazado_129384" data-name="Trazado 129384" d="M1474.746,482.232l-25.906,3a1.549,1.549,0,0,1-1.525-1.043,1.611,1.611,0,0,1,1.525-1.745l25.906-2.392a.933.933,0,0,1,1.04.97h0A1.231,1.231,0,0,1,1474.746,482.232Z" transform="translate(-900.618 -303.675)" fill="#daebe8"/>
    <path id="Trazado_129385" data-name="Trazado 129385" d="M1659.8,695.895l-34.305,3.968c-.735.088-1.918-.555-2.017-1.282-.206-1.5,1.26-2.1,2.017-2.2l34.324-3.219a1.2,1.2,0,0,1,1.374,1.2h0A1.58,1.58,0,0,1,1659.8,695.895Z" transform="translate(-1012.052 -438.479)" fill="#daebe8"/>
    <path id="Trazado_129386" data-name="Trazado 129386" d="M1650.855,717.152l-25.91,2.994a1.537,1.537,0,0,1-1.521-1.043,1.6,1.6,0,0,1,1.521-1.742l25.91-2.392a.933.933,0,0,1,1.036.97h0a1.234,1.234,0,0,1-1.036,1.212Z" transform="translate(-1012.022 -452.282)" fill="#daebe8"/>
    <path id="Trazado_129387" data-name="Trazado 129387" d="M1688.32,864.109h-20.844c-.459,0-1.165-.841-1.227-1.642-.125-1.646.768-2.116,1.224-2.116l20.847.819c.459,0,.834.661.834,1.47h0C1689.154,863.447,1688.78,864.109,1688.32,864.109Z" transform="translate(-1039.115 -544.251)" fill="#366f90"/>
    <path id="Trazado_129388" data-name="Trazado 129388" d="M1682.908,884.31h-15.736c-.345,0-.878-.676-.926-1.323-.092-1.319.581-1.7.926-1.7l15.736.658c.345,0,.628.529.628,1.179h0C1683.536,883.777,1683.253,884.31,1682.908,884.31Z" transform="translate(-1039.115 -557.498)" fill="#366f90"/>
    <path id="Trazado_129389" data-name="Trazado 129389" d="M1625.47,1112.529h-20.843c-.459,0-1.165-.841-1.227-1.646-.125-1.642.768-2.113,1.227-2.113l20.843.819c.459,0,.834.661.834,1.47h0C1626.3,1111.864,1625.93,1112.529,1625.47,1112.529Z" transform="translate(-999.357 -701.398)" fill="#366f90"/>
    <path id="Trazado_129390" data-name="Trazado 129390" d="M1620.063,1132.72h-15.736c-.345,0-.878-.68-.922-1.323-.1-1.319.577-1.7.922-1.7l15.736.658c.345,0,.628.529.628,1.179h0C1620.691,1132.187,1620.408,1132.72,1620.063,1132.72Z" transform="translate(-999.362 -714.638)" fill="#366f90"/>
    <path id="Trazado_129391" data-name="Trazado 129391" d="M722.475,469.8H687.141a2.426,2.426,0,0,1-2.076-1.642,1.9,1.9,0,0,1,2.072-2.113l35.338.816a1.448,1.448,0,0,1,1.414,1.47h0A1.448,1.448,0,0,1,722.475,469.8Z" transform="translate(-418.427 -294.816)" fill="#daebe8"/>
    <path id="Trazado_129392" data-name="Trazado 129392" d="M722.475,510.759H687.141a2.43,2.43,0,0,1-2.076-1.646A1.906,1.906,0,0,1,687.137,507l35.338.816a1.448,1.448,0,0,1,1.414,1.47h0A1.47,1.47,0,0,1,722.475,510.759Z" transform="translate(-418.427 -320.727)" fill="#daebe8"/>
    <path id="Trazado_129393" data-name="Trazado 129393" d="M830.332,510.759H807.82c-.492,0-1.257-.845-1.323-1.646-.136-1.642.827-2.113,1.323-2.113l22.512.816c.5,0,.9.661.9,1.47h0C831.232,510.094,830.828,510.759,830.332,510.759Z" transform="translate(-495.248 -320.727)" fill="#daebe8"/>
    <path id="Trazado_129394" data-name="Trazado 129394" d="M835.529,469.8H808.116a2.056,2.056,0,0,1-1.613-1.642,1.71,1.71,0,0,1,1.609-2.113l27.416.816c.6,0,1.1.661,1.1,1.47h0C836.623,469.134,836.131,469.8,835.529,469.8Z" transform="translate(-495.249 -294.816)" fill="#daebe8"/>
    <path id="Trazado_129395" data-name="Trazado 129395" d="M948.422,469.8H902.05c-1.021,0-2.572-.841-2.726-1.642-.279-1.646,1.7-2.113,2.723-2.113l46.375.816a1.705,1.705,0,0,1,1.859,1.47h0A1.7,1.7,0,0,1,948.422,469.8Z" transform="translate(-553.96 -294.816)" fill="#daebe8"/>
    <path id="Trazado_129396" data-name="Trazado 129396" d="M735.209,490.46h-47.4c-1.044,0-2.649-.783-2.789-1.528-.283-1.525,1.742-1.962,2.785-1.962l47.4.761c1.04,0,1.9.614,1.9,1.363h0C737.1,489.847,736.249,490.46,735.209,490.46Z" transform="translate(-418.396 -308.056)" fill="#daebe8"/>
    <path id="Trazado_129397" data-name="Trazado 129397" d="M894.309,490.46h-47.4c-1.044,0-2.649-.783-2.789-1.528-.283-1.525,1.742-1.962,2.785-1.962l47.4.761c1.04,0,1.9.614,1.9,1.363h0C896.2,489.847,895.349,490.46,894.309,490.46Z" transform="translate(-519.041 -308.056)" fill="#daebe8"/>
    <path id="Trazado_129398" data-name="Trazado 129398" d="M714.321,564.815H686.681a2.067,2.067,0,0,1-1.628-1.642,1.716,1.716,0,0,1,1.624-2.113l27.644.816c.61,0,1.1.661,1.1,1.47h0C715.427,564.154,714.931,564.815,714.321,564.815Z" transform="translate(-418.422 -354.925)" fill="#daebe8"/>
    <path id="Trazado_129399" data-name="Trazado 129399" d="M714.321,605.775H686.681a2.067,2.067,0,0,1-1.628-1.642,1.718,1.718,0,0,1,1.624-2.113l27.644.816c.61,0,1.1.661,1.1,1.47h0C715.427,605.114,714.931,605.775,714.321,605.775Z" transform="translate(-418.422 -380.835)" fill="#daebe8"/>
    <path id="Trazado_129400" data-name="Trazado 129400" d="M798.705,605.775h-17.61c-.367,0-.981-.841-1.032-1.642-.107-1.642.647-2.113,1.032-2.113l17.61.816c.367,0,.705.661.705,1.47h0C799.411,605.114,799.091,605.775,798.705,605.775Z" transform="translate(-478.527 -380.835)" fill="#daebe8"/>
    <path id="Trazado_129401" data-name="Trazado 129401" d="M802.765,564.815H781.319c-.47,0-1.2-.841-1.26-1.642-.129-1.646.79-2.113,1.26-2.113l21.446.816c.474,0,.86.661.86,1.47h0C803.625,564.154,803.239,564.815,802.765,564.815Z" transform="translate(-478.524 -354.925)" fill="#daebe8"/>
    <path id="Trazado_129402" data-name="Trazado 129402" d="M891.088,564.815H854.806a2.482,2.482,0,0,1-2.131-1.642c-.217-1.646,1.33-2.113,2.131-2.113l36.282.816a1.47,1.47,0,0,1,1.47,1.47h0A1.47,1.47,0,0,1,891.088,564.815Z" transform="translate(-524.454 -354.925)" fill="#daebe8"/>
    <path id="Trazado_129403" data-name="Trazado 129403" d="M724.288,585.48H687.212c-.816,0-2.072-.783-2.179-1.528-.224-1.525,1.359-1.962,2.175-1.962l37.068.76a1.429,1.429,0,0,1,1.47,1.363h0A1.429,1.429,0,0,1,724.288,585.48Z" transform="translate(-418.406 -368.165)" fill="#daebe8"/>
    <path id="Trazado_129404" data-name="Trazado 129404" d="M848.771,585.48H811.7c-.816,0-2.068-.783-2.179-1.528-.22-1.525,1.363-1.962,2.179-1.962l37.068.76a1.433,1.433,0,0,1,1.47,1.363h0A1.433,1.433,0,0,1,848.771,585.48Z" transform="translate(-497.157 -368.165)" fill="#daebe8"/>
    <path id="Trazado_129405" data-name="Trazado 129405" d="M339.649,673.03l-22.166-2.748a1.808,1.808,0,0,1-1.3-1.194c-.132-1.047.816-1.224,1.3-1.165l22.166,3.263a1.054,1.054,0,0,1,.885,1.032h0a.783.783,0,0,1-.885.812Z" transform="translate(-185.079 -422.518)" fill="#daebe8"/>
    <path id="Trazado_129406" data-name="Trazado 129406" d="M339.649,698.725l-22.166-2.748a1.8,1.8,0,0,1-1.3-1.19c-.132-1.047.816-1.227,1.3-1.165l22.166,3.259a1.058,1.058,0,0,1,.885,1.032h0a.783.783,0,0,1-.885.812Z" transform="translate(-185.079 -438.774)" fill="#daebe8"/>
    <path id="Trazado_129407" data-name="Trazado 129407" d="M407.316,707.021l-14.12-1.749a1.41,1.41,0,0,1-.83-1.135c-.085-1.04.518-1.26.827-1.223l14.123,2.263c.309.04.562.485.562,1h0C407.878,706.68,407.625,707.062,407.316,707.021Z" transform="translate(-233.277 -444.657)" fill="#daebe8"/>
    <path id="Trazado_129408" data-name="Trazado 129408" d="M410.572,681.769l-17.2-2.131a1.532,1.532,0,0,1-1.01-1.157c-.1-1.044.632-1.249,1.01-1.2l17.2,2.645a.966.966,0,0,1,.687,1.007h0C411.259,681.438,410.962,681.817,410.572,681.769Z" transform="translate(-233.274 -428.439)" fill="#daebe8"/>
    <path id="Trazado_129409" data-name="Trazado 129409" d="M481.395,690.712,452.3,687.1c-.639-.077-1.624-.735-1.708-1.242-.176-1.054,1.069-1.194,1.708-1.1l29.1,4.115a1.247,1.247,0,0,1,1.165,1.065h0C482.56,690.432,482.034,690.785,481.395,690.712Z" transform="translate(-270.104 -433.16)" fill="#daebe8"/>
    <path id="Trazado_129410" data-name="Trazado 129410" d="M347.66,687.09l-29.724-3.674c-.654-.081-1.661-.694-1.745-1.172-.18-.981,1.1-1.1,1.745-1.014l29.724,4.159c.654.085,1.19.533,1.19,1.007h0C348.85,686.851,348.314,687.17,347.66,687.09Z" transform="translate(-185.084 -430.927)" fill="#daebe8"/>
    <path id="Trazado_129411" data-name="Trazado 129411" d="M447.461,699.454l-29.72-3.674c-.654-.081-1.661-.7-1.749-1.176-.176-.977,1.1-1.1,1.745-1.014l29.724,4.163c.654.081,1.19.533,1.19,1h0C448.651,699.215,448.115,699.535,447.461,699.454Z" transform="translate(-248.217 -438.746)" fill="#daebe8"/>
    <path id="Trazado_129412" data-name="Trazado 129412" d="M334.561,731.947,317.23,729.8a1.536,1.536,0,0,1-1.018-1.157c-.107-1.043.636-1.249,1.018-1.2l17.342,2.664a.966.966,0,0,1,.694,1.007h0C335.255,731.62,334.943,731.995,334.561,731.947Z" transform="translate(-185.102 -460.17)" fill="#daebe8"/>
    <path id="Trazado_129413" data-name="Trazado 129413" d="M334.561,757.647l-17.331-2.153a1.521,1.521,0,0,1-1.018-1.157c-.107-1.044.636-1.246,1.018-1.2l17.342,2.664a.966.966,0,0,1,.694,1.007h0C335.255,757.317,334.943,757.695,334.561,757.647Z" transform="translate(-185.102 -476.427)" fill="#daebe8"/>
    <path id="Trazado_129414" data-name="Trazado 129414" d="M387.474,764.154l-11.048-1.37c-.242-.029-.617-.606-.647-1.1-.066-1.04.4-1.275.647-1.245l11.048,1.885c.243.029.441.467.441.974h0C387.915,763.794,387.716,764.184,387.474,764.154Z" transform="translate(-222.786 -481.046)" fill="#daebe8"/>
    <path id="Trazado_129415" data-name="Trazado 129415" d="M390.021,738.78l-13.455-1.668c-.294-.037-.735-.621-.79-1.128-.081-1.043.492-1.268.79-1.231l13.455,2.182c.294.037.536.481.536.988h0C390.55,738.431,390.315,738.817,390.021,738.78Z" transform="translate(-222.783 -464.798)" fill="#daebe8"/>
    <path id="Trazado_129416" data-name="Trazado 129416" d="M445.433,745.751l-22.758-2.825a1.829,1.829,0,0,1-1.337-1.194c-.136-1.051.834-1.224,1.337-1.161l22.761,3.332a1.069,1.069,0,0,1,.908,1.036h0a.794.794,0,0,1-.911.812Z" transform="translate(-251.601 -468.473)" fill="#daebe8"/>
    <path id="Trazado_129417" data-name="Trazado 129417" d="M340.8,745.757l-23.25-2.884a1.84,1.84,0,0,1-1.367-1.128c-.14-.974.852-1.124,1.363-1.058l23.254,3.358a1.047,1.047,0,0,1,.933.97h0a.779.779,0,0,1-.933.742Z" transform="translate(-185.084 -468.546)" fill="#daebe8"/>
    <path id="Trazado_129418" data-name="Trazado 129418" d="M418.878,755.437l-23.254-2.884a1.856,1.856,0,0,1-1.367-1.124c-.14-.977.856-1.128,1.367-1.062l23.254,3.358a1.047,1.047,0,0,1,.93.97h0a.779.779,0,0,1-.93.742Z" transform="translate(-234.47 -474.669)" fill="#daebe8"/>
    <path id="Trazado_129419" data-name="Trazado 129419" d="M790.19,693.434h-14.9a1.1,1.1,0,0,1-.874-.885.926.926,0,0,1,.874-1.139l14.9.441c.327,0,.6.367.6.794h0C790.782,693.1,790.517,693.434,790.19,693.434Z" transform="translate(-474.947 -437.382)" fill="#daebe8"/>
    <path id="Trazado_129420" data-name="Trazado 129420" d="M790.19,715.514h-14.9a1.1,1.1,0,0,1-.874-.885.926.926,0,0,1,.874-1.139l14.9.441c.327,0,.6.367.6.79h0C790.782,715.147,790.517,715.514,790.19,715.514Z" transform="translate(-474.947 -451.35)" fill="#daebe8"/>
    <path id="Trazado_129421" data-name="Trazado 129421" d="M835.7,715.514h-9.487c-.209,0-.533-.456-.558-.885-.059-.885.367-1.139.555-1.139l9.494.441c.209,0,.368.367.368.79h0C836.063,715.147,835.909,715.514,835.7,715.514Z" transform="translate(-507.368 -451.35)" fill="#daebe8"/>
    <path id="Trazado_129422" data-name="Trazado 129422" d="M837.9,693.434h-11.57c-.254,0-.647-.452-.68-.885-.07-.885.426-1.139.68-1.139l11.559.441c.254,0,.463.367.463.794h0C838.35,693.1,838.141,693.434,837.9,693.434Z" transform="translate(-507.366 -437.382)" fill="#daebe8"/>
    <path id="Trazado_129423" data-name="Trazado 129423" d="M885.495,693.434H865.937a1.316,1.316,0,0,1-1.146-.885c-.118-.885.735-1.139,1.146-1.139l19.557.441a.79.79,0,0,1,.783.794h0A.79.79,0,0,1,885.495,693.434Z" transform="translate(-532.125 -437.382)" fill="#daebe8"/>
    <path id="Trazado_129424" data-name="Trazado 129424" d="M795.587,704.571H775.622a1.368,1.368,0,0,1-1.172-.823c-.121-.823.735-1.058,1.172-1.058l19.965.412a.768.768,0,0,1,.8.735h0A.768.768,0,0,1,795.587,704.571Z" transform="translate(-474.976 -444.518)" fill="#daebe8"/>
    <path id="Trazado_129425" data-name="Trazado 129425" d="M862.682,704.571H842.706a1.374,1.374,0,0,1-1.176-.823c-.121-.823.735-1.058,1.172-1.058l19.98.412a.772.772,0,0,1,.8.735h0A.772.772,0,0,1,862.682,704.571Z" transform="translate(-517.41 -444.518)" fill="#daebe8"/>
    <path id="Trazado_129426" data-name="Trazado 129426" d="M790.19,751.818h-14.9a1.1,1.1,0,0,1-.874-.889.926.926,0,0,1,.874-1.139l14.9.441c.327,0,.6.367.6.794h0C790.782,751.458,790.517,751.818,790.19,751.818Z" transform="translate(-474.947 -474.313)" fill="#daebe8"/>
    <path id="Trazado_129427" data-name="Trazado 129427" d="M790.19,773.894h-14.9a1.1,1.1,0,0,1-.874-.885.926.926,0,0,1,.874-1.139l14.9.441c.327,0,.6.367.6.794h0C790.782,773.538,790.517,773.894,790.19,773.894Z" transform="translate(-474.947 -488.28)" fill="#daebe8"/>
    <path id="Trazado_129428" data-name="Trazado 129428" d="M835.7,773.895h-9.487c-.209,0-.533-.452-.558-.885-.059-.885.367-1.139.555-1.139l9.494.441c.209,0,.368.367.368.794h0C836.063,773.538,835.909,773.895,835.7,773.895Z" transform="translate(-507.368 -488.28)" fill="#daebe8"/>
    <path id="Trazado_129429" data-name="Trazado 129429" d="M837.9,751.818h-11.57c-.254,0-.647-.456-.68-.889-.07-.885.426-1.139.68-1.139l11.57.445c.253,0,.463.367.463.794h0C838.35,751.458,838.141,751.818,837.9,751.818Z" transform="translate(-507.366 -474.313)" fill="#daebe8"/>
    <path id="Trazado_129430" data-name="Trazado 129430" d="M885.495,751.818H865.937a1.32,1.32,0,0,1-1.146-.889c-.118-.885.735-1.139,1.146-1.139l19.557.441a.79.79,0,0,1,.783.794h0A.794.794,0,0,1,885.495,751.818Z" transform="translate(-532.125 -474.313)" fill="#daebe8"/>
    <path id="Trazado_129431" data-name="Trazado 129431" d="M795.587,762.961H775.622a1.368,1.368,0,0,1-1.172-.823c-.121-.823.735-1.058,1.172-1.058l19.965.408a.768.768,0,0,1,.8.735h0A.772.772,0,0,1,795.587,762.961Z" transform="translate(-474.976 -481.455)" fill="#daebe8"/>
    <path id="Trazado_129432" data-name="Trazado 129432" d="M862.682,762.961H842.706a1.374,1.374,0,0,1-1.176-.823c-.121-.823.735-1.058,1.172-1.058l19.98.408a.772.772,0,0,1,.8.735h0A.775.775,0,0,1,862.682,762.961Z" transform="translate(-517.41 -481.455)" fill="#daebe8"/>
    <path id="Trazado_129433" data-name="Trazado 129433" d="M790.19,806.364h-14.9a1.1,1.1,0,0,1-.874-.885.926.926,0,0,1,.874-1.139l14.9.441c.327,0,.6.367.6.794h0C790.782,806.008,790.517,806.364,790.19,806.364Z" transform="translate(-474.947 -508.82)" fill="#daebe8"/>
    <path id="Trazado_129434" data-name="Trazado 129434" d="M790.19,828.444h-14.9a1.1,1.1,0,0,1-.874-.885.926.926,0,0,1,.874-1.139l14.9.441c.327,0,.6.367.6.79h0C790.782,828.1,790.517,828.444,790.19,828.444Z" transform="translate(-474.947 -522.788)" fill="#daebe8"/>
    <path id="Trazado_129435" data-name="Trazado 129435" d="M835.7,828.444h-9.487c-.209,0-.533-.456-.558-.885-.059-.885.367-1.139.555-1.139l9.494.441c.209,0,.368.367.368.79h0C836.063,828.1,835.909,828.444,835.7,828.444Z" transform="translate(-507.368 -522.788)" fill="#daebe8"/>
    <path id="Trazado_129436" data-name="Trazado 129436" d="M837.9,806.365h-11.57c-.254,0-.647-.452-.68-.885-.07-.885.426-1.139.68-1.139l11.559.441c.254,0,.463.367.463.794h0C838.35,806.008,838.141,806.365,837.9,806.365Z" transform="translate(-507.366 -508.82)" fill="#daebe8"/>
    <path id="Trazado_129437" data-name="Trazado 129437" d="M885.495,806.365H865.937a1.316,1.316,0,0,1-1.146-.885c-.118-.885.735-1.139,1.146-1.139l19.557.441a.79.79,0,0,1,.783.794h0A.79.79,0,0,1,885.495,806.365Z" transform="translate(-532.125 -508.82)" fill="#daebe8"/>
    <path id="Trazado_129438" data-name="Trazado 129438" d="M795.587,817.5H775.622a1.368,1.368,0,0,1-1.172-.823c-.121-.823.735-1.058,1.172-1.058l19.965.411a.768.768,0,0,1,.8.735h0A.768.768,0,0,1,795.587,817.5Z" transform="translate(-474.976 -515.956)" fill="#daebe8"/>
    <path id="Trazado_129439" data-name="Trazado 129439" d="M862.682,817.5H842.706a1.374,1.374,0,0,1-1.176-.823c-.121-.823.735-1.058,1.172-1.058l19.98.411a.772.772,0,0,1,.8.735h0A.772.772,0,0,1,862.682,817.5Z" transform="translate(-517.41 -515.956)" fill="#daebe8"/>
    <path id="Trazado_129440" data-name="Trazado 129440" d="M818.339,737.725H763.774a5.124,5.124,0,0,1-5.015-5.217V674.089a4.409,4.409,0,0,1,4.306-4.479H821.7a4.846,4.846,0,0,1,3.523,1.521,5.324,5.324,0,0,1,1.47,3.884L824.313,731.8A6.1,6.1,0,0,1,818.339,737.725Zm-55.274-67.384a3.648,3.648,0,0,0-3.553,3.726v58.419a4.37,4.37,0,0,0,4.262,4.464h54.565a5.312,5.312,0,0,0,5.206-5.214l2.373-56.791a4.548,4.548,0,0,0-1.242-3.329,4.093,4.093,0,0,0-2.98-1.29Z" transform="translate(-465.057 -423.592)" fill="#daebe8"/>
    <path id="Trazado_129441" data-name="Trazado 129441" d="M1512.765,861.88q-1.157,0-2.3.107c-12.492,1.154-23.066,11.654-27.8,26.288-.522,1.609-.97,3.274-1.345,4.979a57.176,57.176,0,0,0-1.315,12.275c0,19.267,9.373,35.639,22.368,41.407a26.119,26.119,0,0,0,4.747,1.595,24.867,24.867,0,0,0,5.64.647c10.7,0,20.208-6.838,26.175-17.412a53.5,53.5,0,0,0,6.58-26.237C1545.52,881.419,1530.853,861.88,1512.765,861.88Zm-.838,75.32a16.8,16.8,0,0,1-3.5-.368,17.267,17.267,0,0,1-3.6-1.182c-9.185-4.122-15.836-16.052-15.836-30.128a43.161,43.161,0,0,1,.9-8.84c.261-1.231.573-2.436.933-3.6,3.369-10.89,11.022-18.639,20.035-19.2.368-.026.705-.037,1.066-.037,12.665,0,22.934,14.182,22.934,31.682a40.484,40.484,0,0,1-3.917,17.709h0c-4.122,8.44-11.1,13.98-19.017,13.98Z" transform="translate(-921.31 -545.219)" fill="#daebe8"/>
    <path id="Trazado_129442" data-name="Trazado 129442" d="M1513.147,874.067c-9.979.625-18.294,10.06-20.968,22.805l-8.568-3.435c3.77-17.191,15.266-29.985,29.14-31.267Z" transform="translate(-923.588 -545.403)" fill="#f5ca56"/>
    <path id="Trazado_129443" data-name="Trazado 129443" d="M1508.429,982.314l-1.3,11.687c-15.4-3.56-27.115-21.461-27.115-42.987a57.192,57.192,0,0,1,1.315-12.275,50.983,50.983,0,0,1,1.345-4.978l8.157,4.813c-.367,1.165-.672,2.37-.933,3.6a43.16,43.16,0,0,0-.9,8.84C1488.99,966.86,1497.422,979.992,1508.429,982.314Z" transform="translate(-921.31 -590.689)" fill="#366f90"/>
    <path id="Trazado_129444" data-name="Trazado 129444" d="M1577.451,1037.427c-5.974,10.574-15.475,17.412-26.175,17.412a24.859,24.859,0,0,1-5.64-.647,26.134,26.134,0,0,1-4.747-1.595l2.447-11.276a17.28,17.28,0,0,0,3.6,1.183,16.793,16.793,0,0,0,3.5.367c7.914,0,14.9-5.541,19.017-13.962Z" transform="translate(-959.822 -650.88)" fill="#acc9c5"/>
    <path id="Trazado_129445" data-name="Trazado 129445" d="M1470.053,855.478l-12.389-12.933a13.2,13.2,0,0,0-9.59-4.144H1432.58v-.261h15.494a13.45,13.45,0,0,1,9.777,4.225L1470.24,855.3Z" transform="translate(-891.307 -530.202)" fill="#366f90"/>
    <path id="Trazado_129446" data-name="Trazado 129446" d="M1429.54,836.809c0-.551.6-.963,1.1-1.062.7-.132.955.445.955,1a1.122,1.122,0,0,1-.955,1.15A1.2,1.2,0,0,1,1429.54,836.809Z" transform="translate(-889.384 -528.676)" fill="#366f90"/>
    <path id="Trazado_129447" data-name="Trazado 129447" d="M1532,883.219c0-.551.6-.963,1.1-1.062.7-.132.959.448.959,1a1.1,1.1,0,0,1-.959,1.135A1.2,1.2,0,0,1,1532,883.219Z" transform="translate(-954.198 -558.034)" fill="#366f90"/>
    <path id="Trazado_129448" data-name="Trazado 129448" d="M1607.885,854.436l-.235-.118,7.242-14.667a9.956,9.956,0,0,1,3.619-4.071,13.386,13.386,0,0,1,7.1-2.05h15.5v.261h-15.5a13.11,13.11,0,0,0-6.959,2.01,9.672,9.672,0,0,0-3.524,3.968Z" transform="translate(-1002.054 -527.285)" fill="#366f90"/>
    <path id="Trazado_129449" data-name="Trazado 129449" d="M1698.208,832.2c0-.551-.6-.966-1.1-1.065-.7-.132-.955.448-.955,1a1.119,1.119,0,0,0,.955,1.146,1.2,1.2,0,0,0,1.1-1.08Z" transform="translate(-1058.037 -525.76)" fill="#366f90"/>
    <path id="Trazado_129450" data-name="Trazado 129450" d="M1607.248,888.407c0-.551-.6-.966-1.1-1.062-.7-.136-.955.445-.955,1a1.122,1.122,0,0,0,.955,1.15A1.2,1.2,0,0,0,1607.248,888.407Z" transform="translate(-1000.497 -561.316)" fill="#366f90"/>
    <path id="Trazado_129451" data-name="Trazado 129451" d="M1636.584,1087.506l-7.242-14.671a9.711,9.711,0,0,0-3.524-3.964,13.132,13.132,0,0,0-6.981-2.01h-15.5v-.261h15.5a13.416,13.416,0,0,1,7.1,2.047,9.963,9.963,0,0,1,3.619,4.075l7.242,14.667Z" transform="translate(-999.327 -674.722)" fill="#366f90"/>
    <path id="Trazado_129452" data-name="Trazado 129452" d="M1600.36,1065.269c0-.551.6-.963,1.1-1.062.7-.132.959.448.959,1a1.122,1.122,0,0,1-.959,1.146A1.2,1.2,0,0,1,1600.36,1065.269Z" transform="translate(-997.442 -673.196)" fill="#366f90"/>
    <path id="Trazado_129453" data-name="Trazado 129453" d="M1691.31,1121.473c0-.551.6-.966,1.1-1.066.7-.132.955.448.955,1a1.122,1.122,0,0,1-.955,1.15,1.2,1.2,0,0,1-1.1-1.084Z" transform="translate(-1054.975 -708.748)" fill="#366f90"/>
    <path id="Trazado_129454" data-name="Trazado 129454" d="M339.04,875.639H318.2c-.459,0-1.165-.845-1.227-1.646-.125-1.642.768-2.113,1.223-2.113l20.847.819c.459,0,.834.661.834,1.47h0C339.874,874.977,339.5,875.639,339.04,875.639Z" transform="translate(-185.58 -551.545)" fill="#366f90"/>
    <path id="Trazado_129455" data-name="Trazado 129455" d="M333.628,895.807H317.891c-.345,0-.878-.676-.926-1.319-.092-1.323.581-1.7.926-1.7l15.736.658c.345,0,.628.529.628,1.179h0C334.241,895.288,333.973,895.807,333.628,895.807Z" transform="translate(-185.58 -564.772)" fill="#366f90"/>
    <path id="Trazado_129456" data-name="Trazado 129456" d="M493.141,1136.511l-14.572,1.282c-.32.03-.863-.617-.948-1.267-.184-1.334.415-1.775.735-1.8l14.619-.617c.32-.029.621.489.665,1.15h0C493.684,1135.9,493.46,1136.481,493.141,1136.511Z" transform="translate(-287.192 -717.426)" fill="#366f90"/>
    <path id="Trazado_129457" data-name="Trazado 129457" d="M490.44,1153.677l-11,.97c-.242.022-.65-.5-.735-1.021-.14-1.077.309-1.425.551-1.448l11.022-.43c.242-.022.47.393.507.926h0C490.848,1153.211,490.682,1153.677,490.44,1153.677Z" transform="translate(-287.882 -728.585)" fill="#366f90"/>
    <path id="Trazado_129458" data-name="Trazado 129458" d="M355.946,937.148l-12.389-12.929a13.19,13.19,0,0,0-9.59-4.148h-15.5v-.261h15.5a13.455,13.455,0,0,1,9.777,4.229l12.4,12.94Z" transform="translate(-186.537 -581.865)" fill="#366f90"/>
    <path id="Trazado_129459" data-name="Trazado 129459" d="M315.44,918.513c0-.551.6-.966,1.1-1.065.7-.132.959.448.959,1a1.122,1.122,0,0,1-.959,1.146,1.2,1.2,0,0,1-1.1-1.08Z" transform="translate(-184.62 -580.358)" fill="#366f90"/>
    <path id="Trazado_129460" data-name="Trazado 129460" d="M417.9,964.923c0-.551.6-.966,1.1-1.065.7-.132.955.448.955,1a1.122,1.122,0,0,1-.955,1.15A1.2,1.2,0,0,1,417.9,964.923Z" transform="translate(-249.435 -609.716)" fill="#366f90"/>
    <path id="Trazado_129461" data-name="Trazado 129461" d="M508.322,1075.472,501.08,1060.8a9.692,9.692,0,0,0-3.524-3.968,13.146,13.146,0,0,0-6.959-2.006H475.1v-.261h15.5a13.415,13.415,0,0,1,7.1,2.047,9.987,9.987,0,0,1,3.619,4.075l7.242,14.667Z" transform="translate(-285.619 -667.112)" fill="#366f90"/>
    <path id="Trazado_129462" data-name="Trazado 129462" d="M472.06,1053.239c0-.551.6-.963,1.1-1.062.7-.132.955.445.955,1a1.122,1.122,0,0,1-.955,1.15A1.2,1.2,0,0,1,472.06,1053.239Z" transform="translate(-283.696 -665.586)" fill="#366f90"/>
    <path id="Trazado_129463" data-name="Trazado 129463" d="M563,1109.443c0-.551.6-.966,1.1-1.066.7-.132.955.448.955,1a1.122,1.122,0,0,1-.955,1.146A1.2,1.2,0,0,1,563,1109.443Z" transform="translate(-341.223 -701.138)" fill="#366f90"/>
    <path id="Trazado_129464" data-name="Trazado 129464" d="M1494.308,631.757l-12.018,1.121V598.951l12.018-1.121Z" transform="translate(-922.753 -378.185)" fill="#daebe8"/>
    <path id="Trazado_129465" data-name="Trazado 129465" d="M1547.562,591.91l-12.022,1.121v-54.19l12.022-1.121Z" transform="translate(-956.438 -340.16)" fill="#daebe8"/>
    <path id="Trazado_129466" data-name="Trazado 129466" d="M1600.812,603.524l-12.022,1.121V560.077l12.022-1.117Z" transform="translate(-990.123 -353.596)" fill="#daebe8"/>
    <path id="Trazado_129467" data-name="Trazado 129467" d="M1654.062,573.024l-12.022,1.117v-59.4l12.022-1.121Z" transform="translate(-1023.808 -324.915)" fill="#daebe8"/>
    <path id="Trazado_129468" data-name="Trazado 129468" d="M1707.318,529.957l-12.018,1.117V449.541l12.018-1.121Z" transform="translate(-1057.5 -283.67)" fill="#daebe8"/>
    <path id="Trazado_129469" data-name="Trazado 129469" d="M1244.234,879.319s-6.327-.3-7.348-10.442c-1.036-10.42,10.416,0,10.416,0Z" transform="translate(-767.471 -546.716)" fill="#ffb27d"/>
    <path id="Trazado_129470" data-name="Trazado 129470" d="M1257.072,814.81c-.367.158-6.794,1.969-9.63,12.055s6.687,2.135,6.687,2.135Z" transform="translate(-773.857 -515.443)" fill="#ffb27d"/>
    <path id="Trazado_129471" data-name="Trazado 129471" d="M1280.984,1193s-.088,3.626-2.436,4.648-9.16,1.947-6.614,4.277c1.47,1.337,8.34.474,10.288.474s3.766.882,5.21-.474c1.587-1.492,0-8.925,0-8.925a7.523,7.523,0,0,1-3.186.871A5.967,5.967,0,0,1,1280.984,1193Z" transform="translate(-789.329 -754.681)" fill="#331832"/>
    <path id="Trazado_129472" data-name="Trazado 129472" d="M1354.453,1193s-.088,3.626-2.436,4.648-9.16,1.947-6.614,4.277c1.47,1.337,8.34.474,10.288.474s3.766.882,5.21-.474c1.587-1.5,0-8.925,0-8.925a7.518,7.518,0,0,1-3.182.871A5.941,5.941,0,0,1,1354.453,1193Z" transform="translate(-835.805 -754.681)" fill="#331832"/>
    <path id="Trazado_129473" data-name="Trazado 129473" d="M1249.982,922.55s-.434,15.174,4.207,44.281c3.347,21.016,7.3,42.19,9.244,52.342a7.7,7.7,0,0,0,7.087,6.43l1.863.081a6.531,6.531,0,0,0,6.518-7.2l-4.707-68.677-1.161-22.607Z" transform="translate(-775.791 -583.598)" fill="#764678"/>
    <path id="Trazado_129474" data-name="Trazado 129474" d="M1289.682,945.479c-.213,1.837-10.218,1.624-22.468,0s-21.784-4.387-21.571-6.246,10.1-2.072,22.346-.456S1289.9,943.635,1289.682,945.479Z" transform="translate(-773.051 -593.175)" fill="#331832"/>
    <path id="Trazado_129475" data-name="Trazado 129475" d="M1288.257,949.6l26.149,87.684a8.491,8.491,0,0,0,7.87,6.246l1.569.029c3.715.066,6.551-3.516,5.879-7.414l-14.307-82.393a2.671,2.671,0,0,0-1.8-2.028C1308.7,950.251,1287.79,945.974,1288.257,949.6Z" transform="translate(-800.005 -599.81)" fill="#764678"/>
    <path id="Trazado_129476" data-name="Trazado 129476" d="M1285.6,804.675s-3.479-10.218-15.876-9.751-21.755,17.463-24.073,54.01c0,0,20.3-4.648,44.09,6.191C1289.725,855.12,1291.044,819.558,1285.6,804.675Z" transform="translate(-773.057 -502.853)" fill="#d3fbff"/>
    <path id="Trazado_129477" data-name="Trazado 129477" d="M1301.85,803.989l-8.781,5.879s-22.574,2.359-28.563,1.224-6.926-5.732-6.926-5.732a27.764,27.764,0,0,1,16.534-10.188,28.358,28.358,0,0,1,3.141-.3,29.652,29.652,0,0,1,5.482.125C1293.469,796.181,1301.85,803.989,1301.85,803.989Z" transform="translate(-780.604 -502.781)" fill="#d3fbff"/>
    <path id="Trazado_129478" data-name="Trazado 129478" d="M1297.768,1011.073l-5.621-17.845a16.818,16.818,0,0,0-7.326-9.432l.231-.386a17.268,17.268,0,0,1,7.521,9.685l5.625,17.845Z" transform="translate(-797.836 -622.097)" fill="#020202"/>
    <path id="Trazado_129479" data-name="Trazado 129479" d="M1285.536,763.82a7.922,7.922,0,0,1-1.1,5.313c-1.65,2.715.143,4.7,2.377,3.674s3.079,1.922,5.934.283S1285.536,763.82,1285.536,763.82Z" transform="translate(-797.185 -483.188)" fill="#331832"/>
    <path id="Trazado_129480" data-name="Trazado 129480" d="M1309.789,772.163a3.45,3.45,0,0,1-2.792-2.135l-1.536-3.722-.445-1.08-2.623-6.356.456,6.584.272,3.953.081,1.128a1.786,1.786,0,0,1-1.422,1.9h0c-.467.79-1.1,2.4.812,3.038,2.263.753,5.923-1.1,7.234-3.307Z" transform="translate(-808.255 -480.056)" fill="#ffb27d"/>
    <path id="Trazado_129481" data-name="Trazado 129481" d="M1307.637,776.691v.11a4.121,4.121,0,0,1-2.326,3.112h0l-.592-4.306a3.9,3.9,0,0,1,2.487.125A.933.933,0,0,1,1307.637,776.691Z" transform="translate(-810.424 -490.552)" fill="#673469"/>
    <ellipse id="Elipse_4235" data-name="Elipse 4235" cx="5.926" cy="7.635" rx="5.926" ry="7.635" transform="translate(487.925 272.233)" fill="#ffb27d"/>
    <path id="Trazado_129482" data-name="Trazado 129482" d="M1313.385,760.281a1.42,1.42,0,0,1-2.1.154,1.755,1.755,0,0,1,.334-2.271,1.42,1.42,0,0,1,2.1-.154A1.755,1.755,0,0,1,1313.385,760.281Z" transform="translate(-814.398 -479.263)" fill="#ffb27d"/>
    <path id="Trazado_129483" data-name="Trazado 129483" d="M1294.83,773.984a12.384,12.384,0,0,0,4.042-.694,2.04,2.04,0,0,1-2.025,2.223C1295.579,775.594,1294.83,773.984,1294.83,773.984Z" transform="translate(-804.168 -489.178)" fill="#e9633e"/>
    <path id="Trazado_129484" data-name="Trazado 129484" d="M1294.83,774a2.549,2.549,0,0,0,1.631.419,4.7,4.7,0,0,0,2.418-1.1A18.778,18.778,0,0,1,1294.83,774Z" transform="translate(-804.168 -489.197)" fill="#fff"/>
    <path id="Trazado_129485" data-name="Trazado 129485" d="M1301.829,761.23a.136.136,0,0,1-.088-.085.14.14,0,0,1,.073-.184,1.418,1.418,0,0,1,1.745.408.143.143,0,0,1,0,.2.147.147,0,0,1-.191,0,2.233,2.233,0,0,0-1.448-.342A.121.121,0,0,1,1301.829,761.23Z" transform="translate(-808.532 -481.289)" fill="#080435"/>
    <path id="Trazado_129486" data-name="Trazado 129486" d="M1303.4,765.125c0,.334-.173.614-.4.621s-.434-.257-.441-.6.169-.614.4-.621S1303.394,764.787,1303.4,765.125Z" transform="translate(-809.058 -483.637)" fill="#080435"/>
    <path id="Trazado_129487" data-name="Trazado 129487" d="M1288.587,762.667a.128.128,0,0,1-.114-.041.147.147,0,0,1,0-.2,1.425,1.425,0,0,1,1.763-.32.143.143,0,0,1,.066.187.14.14,0,0,1-.177.07,2.252,2.252,0,0,0-1.47.265A.129.129,0,0,1,1288.587,762.667Z" transform="translate(-800.123 -481.995)" fill="#080435"/>
    <path id="Trazado_129488" data-name="Trazado 129488" d="M1291.616,765.982a.562.562,0,0,1-.147.735c-.213.1-.492-.066-.625-.367a.558.558,0,0,1,.147-.735C1291.219,765.508,1291.483,765.677,1291.616,765.982Z" transform="translate(-801.597 -484.303)" fill="#080435"/>
    <path id="Trazado_129489" data-name="Trazado 129489" d="M1289.7,737.807a3.5,3.5,0,0,0,3.307,3.1c3.178.448,5.353,1.837,4.927,4.236s-5.533,7.326-1.778,9.24,2.939-1.657,7.025-.83,4.8-4.843,2-8.135-1.668-12-12.176-11.618-6.661,9.138-6.661,9.138S1289.708,740.732,1289.7,737.807Z" transform="translate(-798.367 -464.189)" fill="#331832"/>
    <path id="Trazado_129490" data-name="Trazado 129490" d="M1304.612,759.832a2.271,2.271,0,0,1-1.44-1.451c-.485-1.775,1.506-4.468,3.266-6.849.459-.625.893-1.212,1.279-1.775a4.223,4.223,0,0,0,.173-4.89,4.524,4.524,0,0,0-4.916-1.62,5.8,5.8,0,0,1-4.321-.419,3.976,3.976,0,0,1-1.323-1.15l.073-.048c0,.026,1.65,2.476,5.548,1.532a4.58,4.58,0,0,1,5.008,1.653,4.274,4.274,0,0,1-.169,4.993c-.367.562-.823,1.15-1.282,1.775-1.749,2.362-3.726,5.041-3.252,6.775a2.164,2.164,0,0,0,1.389,1.392Z" transform="translate(-805.749 -469.151)" fill="#fff"/>
    <path id="Trazado_129491" data-name="Trazado 129491" d="M1284.114,762.438a4.115,4.115,0,0,1-2.09-2.748c-.683-2.245-.206-4.74,1.069-5.563a1.646,1.646,0,0,1,1.543-.158,4.1,4.1,0,0,1,2.091,2.741h0c.683,2.241.206,4.74-1.069,5.566a1.641,1.641,0,0,1-.908.279A1.866,1.866,0,0,1,1284.114,762.438Zm2.363-5.64a3.812,3.812,0,0,0-1.933-2.572,1.429,1.429,0,0,0-1.312.132c-1.179.764-1.609,3.119-.959,5.25a3.829,3.829,0,0,0,1.933,2.572,1.411,1.411,0,0,0,1.308-.132c1.179-.768,1.613-3.123.963-5.247Z" transform="translate(-795.87 -476.878)" fill="#764678"/>
    <g id="Grupo_55955" data-name="Grupo 55955" transform="translate(492.443 275.506)" opacity="0.3">
      <path id="Trazado_129492" data-name="Trazado 129492" d="M1304.94,752.738c.474,2.179-.287,4.519-1.7,5.225s-2.939-.485-3.421-2.664.283-4.523,1.7-5.228S1304.473,750.555,1304.94,752.738Z" transform="translate(-1299.678 -749.867)" fill="#fff"/>
    </g>
    <g id="Grupo_55956" data-name="Grupo 55956" transform="translate(486.195 277.172)" opacity="0.3">
      <path id="Trazado_129493" data-name="Trazado 129493" d="M1287.393,757.245c.474,2.2-.158,4.563-1.418,5.3s-2.671-.437-3.145-2.623.158-4.567,1.433-5.3S1286.915,755.055,1287.393,757.245Z" transform="translate(-1282.672 -754.402)" fill="#fff"/>
    </g>
    <path id="Trazado_129494" data-name="Trazado 129494" d="M1300.448,757.019a4.08,4.08,0,0,1-1.911-2.859c-.518-2.329.327-4.843,1.885-5.607a2.083,2.083,0,0,1,1.925,0,4.092,4.092,0,0,1,1.9,2.859h0c.518,2.329-.327,4.846-1.885,5.607a2.1,2.1,0,0,1-.944.228A2.146,2.146,0,0,1,1300.448,757.019Zm.084-8.219c-1.448.713-2.23,3.086-1.738,5.294a3.872,3.872,0,0,0,1.767,2.678,1.884,1.884,0,0,0,1.694,0c1.47-.709,2.23-3.086,1.738-5.294h0a3.885,3.885,0,0,0-1.764-2.675,1.837,1.837,0,0,0-1.7,0Z" transform="translate(-806.417 -473.382)" fill="#764678"/>
    <path id="Trazado_129495" data-name="Trazado 129495" d="M1294.326,762.692a.246.246,0,0,0,.158-.059h0a2.135,2.135,0,0,1,1.767-.327.257.257,0,0,0,.1-.5,2.59,2.59,0,0,0-2.179.43.268.268,0,0,0-.029.367A.235.235,0,0,0,1294.326,762.692Z" transform="translate(-803.693 -481.862)" fill="#764678"/>
    <ellipse id="Elipse_4236" data-name="Elipse 4236" cx="6.088" cy="1.756" rx="6.088" ry="1.756" transform="translate(509.38 304.185) rotate(-21.31)" fill="#331832"/>
    <path id="Trazado_129496" data-name="Trazado 129496" d="M1319.6,853.109l-.107-6.709a1.7,1.7,0,0,1,1.536-1.749c4.449-.331,7.561-1.771,9.27-4.288,2.366-3.5,2.116-8.928,1.47-12.694-.338-1.929.272-3.219,2.5-4.453a14.8,14.8,0,0,1,4.284-1.521,1.745,1.745,0,0,1,2.135,1.2,42.449,42.449,0,0,1,1.1,6.665c.562,6.613-.658,12.349-3.531,16.615-3.52,5.232-9.185,8.127-16.9,8.62a1.687,1.687,0,0,1-1.76-1.683Z" transform="translate(-819.772 -519.775)" fill="#ffb27d"/>
    <g id="Grupo_55957" data-name="Grupo 55957" transform="translate(514.878 320.363)" opacity="0.5">
      <path id="Trazado_129497" data-name="Trazado 129497" d="M1362.051,876.249a1.279,1.279,0,0,1-.827-.287c-.709-.6-.632-1.877.169-2.917a2.664,2.664,0,0,1,1.716-1.077,1.311,1.311,0,0,1,1,.279c.709.6.632,1.877-.169,2.917a2.678,2.678,0,0,1-1.716,1.077Zm1.231-3.85h-.125a2.2,2.2,0,0,0-1.414.908c-.636.823-.735,1.881-.235,2.311a.878.878,0,0,0,.672.18,2.231,2.231,0,0,0,1.415-.907h0c.639-.827.735-1.885.235-2.311A.827.827,0,0,0,1363.282,872.4Z" transform="translate(-1360.739 -871.957)" fill="#ec865c"/>
    </g>
    <path id="Trazado_129498" data-name="Trazado 129498" d="M1282.963,947.957s-24.448-4.876-32.373-2.572l3.8,5.879,14.131.834Z" transform="translate(-776.182 -597.652)" fill="#764678"/>
    <path id="Trazado_129499" data-name="Trazado 129499" d="M1266.234,858.824h-21.075a1.029,1.029,0,0,1-.974-.735L1239.8,844.44a1.058,1.058,0,0,1,.97-1.4h20.267a2.15,2.15,0,0,1,2.035,1.521l4.13,12.859a1.054,1.054,0,0,1-.97,1.4Z" transform="translate(-769.322 -533.301)" fill="#331832"/>
    <path id="Trazado_129500" data-name="Trazado 129500" d="M1262.634,858.83h-21.075a1.029,1.029,0,0,1-.974-.735l-4.383-13.649a1.054,1.054,0,0,1,.97-1.4h20.266a2.149,2.149,0,0,1,2.036,1.521l4.13,12.86a1.055,1.055,0,0,1-.97,1.4Z" transform="translate(-767.045 -533.307)" fill="#331832"/>
    <path id="Trazado_129501" data-name="Trazado 129501" d="M1268,862.085c0-.518.573-.735,1.073-.735a1.457,1.457,0,0,1,1.312,1.293c0,.728-.592.886-1.1.886A1.664,1.664,0,0,1,1268,862.085Z" transform="translate(-787.196 -544.884)" fill="#daebe8"/>
    <path id="Trazado_129502" data-name="Trazado 129502" d="M1298.656,849.9a37.881,37.881,0,0,0-1.716-5.346,2.766,2.766,0,0,0-1.47-1.47l.04-.136a2.91,2.91,0,0,1,1.565,1.554,37.876,37.876,0,0,1,1.727,5.379Z" transform="translate(-804.573 -533.244)" fill="#366f90"/>
    <rect id="Rectángulo_30791" data-name="Rectángulo 30791" width="0.14" height="5.375" transform="matrix(0.952, -0.306, 0.306, 0.952, 494.578, 318.146)" fill="#366f90"/>
    <path id="Trazado_129503" data-name="Trazado 129503" d="M1236.336,858.818s-.367,2.866,1.973,3.138c2.939.345,7.014-2.418,5.144-2.667a19.505,19.505,0,0,0-4.1.1s6.195-.919,5.618-2.293-5.879-.5-5.879-.5,5.967-1.532,5.045-2.623-5.754-.331-5.754-.331,5.879-1.146,4.776-2.385-4.042.048-5.412.276c-1.282.213-1.6,1.205-1.356,2.572a4.513,4.513,0,0,0-.114,2.384c.14.323-.114.709-.114.963a9.731,9.731,0,0,0,.173,1.367Z" transform="translate(-767.043 -538.163)" fill="#ffb27d"/>
    <path id="Trazado_129504" data-name="Trazado 129504" d="M1307.753,871.377s-1.562-4.934-4.24-6.143-6.981-.643-5.46.474a18.857,18.857,0,0,0,3.806,1.988s-5-1.62-4.857-.235,4.5,2.752,4.5,2.752-6.1-1.437-5.555-.173,5.18,2.318,5.18,2.318-5.724-1.1-5.063.367,4.736.874,4.879,2.26,1.161,6.838,4.9,6.893Z" transform="translate(-804.856 -546.912)" fill="#ffb27d"/>
    <path id="Trazado_129505" data-name="Trazado 129505" d="M1313.847,874.063c-.368-.8-1.786-1.032-1.8-1.036l.033-.217c.063,0,1.551.257,1.962,1.161Z" transform="translate(-815.061 -552.133)" fill="#e9845c"/>
    <path id="Trazado_129506" data-name="Trazado 129506" d="M1313.261,881.134a3.56,3.56,0,0,0-2.171-1.264l.033-.22a3.762,3.762,0,0,1,2.318,1.356Z" transform="translate(-814.454 -556.46)" fill="#e9845c"/>
    <path id="Trazado_129507" data-name="Trazado 129507" d="M1312.091,886.868c-.316-.878-2.006-1.157-2.021-1.157l.033-.22c.073,0,1.837.3,2.2,1.3Z" transform="translate(-813.809 -560.154)" fill="#e9845c"/>
    <path id="Trazado_129508" data-name="Trazado 129508" d="M1240.963,880.879a1.863,1.863,0,0,1-1.183-.3l.143-.165c.544.467,2.307.14,2.939-.026l.055.213A8.815,8.815,0,0,1,1240.963,880.879Z" transform="translate(-769.344 -556.928)" fill="#e9845c"/>
    <path id="Trazado_129509" data-name="Trazado 129509" d="M665.928,793.336a10.879,10.879,0,0,1-4.49-1.668c-4.556-2.939-7.613-9.1-9.92-20.028a54.732,54.732,0,0,0-4.178-11.158l10.288-5.75a66.812,66.812,0,0,1,5.291,14.3c.8,3.8,1.224-20.164,3.189-22.412,1.2-1.389,6.059.9,6.059.9a125.46,125.46,0,0,1,3.851,19.01,97.612,97.612,0,0,1,.856,14.142,24.337,24.337,0,0,1-.893,6.224c-1.345,4.365-4.152,5.721-5.706,6.14A11.121,11.121,0,0,1,665.928,793.336Z" transform="translate(-394.575 -472.023)" fill="#ffb27d"/>
    <path id="Trazado_129510" data-name="Trazado 129510" d="M698.213,867.28a3.713,3.713,0,0,1-1.55-.309c-.459-.217-.709-.518-.713-.852,0-.654,1-1.168,2.271-1.172a3.564,3.564,0,0,1,1.565.309c.456.217.709.518.709.852,0,.654-1,1.168-2.267,1.172Zm0-2.179v.154c-1.154,0-1.962.459-1.958.863,0,.2.195.411.533.573a3.387,3.387,0,0,0,1.418.276h0c1.157,0,1.962-.456,1.962-.86,0-.2-.195-.411-.533-.573a3.4,3.4,0,0,0-1.422-.279h0Z" transform="translate(-425.325 -547.158)" fill="#e9845c"/>
    <path id="Trazado_129511" data-name="Trazado 129511" d="M686.044,820.8a.151.151,0,0,1-.151-.14c0-.066-.79-6.753,1.587-12a.155.155,0,0,1,.283.129c-2.344,5.162-1.573,11.757-1.565,11.831a.154.154,0,0,1-.132.173Z" transform="translate(-418.884 -511.497)" fill="#e9845c"/>
    <path id="Trazado_129512" data-name="Trazado 129512" d="M704.286,747.364s6.246.551,8.686-1.988,3.722-7.716,1.888-6.478a23.161,23.161,0,0,0-3.762,3.5s3.9-5.034,2.374-5.474-4.868,3.968-4.868,3.968,4.177-6.371,2.612-6.3-4.71,4.931-4.71,4.931,3.674-6.092,1.837-5.967-2.995,5.056-4.516,4.615-7.436-1.958-7.436,2.495Z" transform="translate(-425.604 -464.042)" fill="#ffb27d"/>
    <path id="Trazado_129513" data-name="Trazado 129513" d="M730.779,759.208a.129.129,0,1,1,0-.257c1-.07,1.866-1.6,1.874-1.613a.132.132,0,0,1,.18-.048.129.129,0,0,1,.048.176c-.037.066-.948,1.664-2.083,1.742Z" transform="translate(-447.276 -479.046)" fill="#e9845c"/>
    <path id="Trazado_129514" data-name="Trazado 129514" d="M722.967,755.441a.136.136,0,0,1-.125-.1.132.132,0,0,1,.092-.162,4.379,4.379,0,0,0,2.285-1.94.13.13,0,1,1,.228.125A4.552,4.552,0,0,1,723,755.434Z" transform="translate(-442.334 -476.455)" fill="#e9845c"/>
    <path id="Trazado_129515" data-name="Trazado 129515" d="M717.674,751.6h-.026a.129.129,0,1,1,.007-.257h.018c1.054,0,2.076-1.8,2.083-1.815a.136.136,0,0,1,.18-.051.128.128,0,0,1,.048.176C719.941,749.727,718.88,751.6,717.674,751.6Z" transform="translate(-438.97 -474.103)" fill="#e9845c"/>
    <path id="Trazado_129516" data-name="Trazado 129516" d="M617.029,1172s.18,3.634,2.572,4.593,9.233,1.694,6.742,4.1c-1.429,1.385-8.351.713-10.288.764s-3.751,1-5.236-.327c-1.631-1.451-.232-8.947-.232-8.947a7.514,7.514,0,0,0,3.215.783A6,6,0,0,0,617.029,1172Z" transform="translate(-370.973 -741.396)" fill="#331832"/>
    <path id="Trazado_129517" data-name="Trazado 129517" d="M627.479,871.88s.893,16.39-3.307,48c-3.031,22.82-6.716,45.831-8.528,56.868a8.357,8.357,0,0,1-7.484,7.168l-2.013.14c-4.042.287-7.433-3.255-7.249-7.587l3.171-74.394.621-24.473Z" transform="translate(-363.927 -551.545)" fill="#f5ca56"/>
    <path id="Trazado_129518" data-name="Trazado 129518" d="M556.285,1173.71s.184,3.634,2.572,4.593,9.237,1.694,6.746,4.1c-1.429,1.382-8.351.713-10.288.764s-3.755,1-5.236-.327c-1.631-1.47-.232-8.947-.232-8.947a7.516,7.516,0,0,0,3.215.783A6.036,6.036,0,0,0,556.285,1173.71Z" transform="translate(-332.549 -742.478)" fill="#331832"/>
    <path id="Trazado_129519" data-name="Trazado 129519" d="M566.779,873.59s.893,16.39-3.307,48c-3.035,22.82-6.716,45.831-8.531,56.868a8.35,8.35,0,0,1-7.481,7.168l-2.013.14c-4.042.287-7.433-3.255-7.249-7.587l3.167-74.394.625-24.474Z" transform="translate(-325.529 -552.627)" fill="#f5ca56"/>
    <path id="Trazado_129520" data-name="Trazado 129520" d="M542.679,914.43c.1,1.977,11.588,2.44,25.756,1.58s25.451-3.226,25.352-5.2-11.54-2.822-25.719-1.958S542.58,912.454,542.679,914.43Z" transform="translate(-328.368 -574.718)" fill="#331832"/>
    <path id="Trazado_129521" data-name="Trazado 129521" d="M542.9,752.75s2.241-10.446,20.741-11.07c26.678-.9,24.867,24.756,28.342,63.563,0,0-26.384-3.141-51.133,3.138C540.854,808.4,537.522,768.766,542.9,752.75Z" transform="translate(-326.569 -469.168)" fill="#764678"/>
    <path id="Trazado_129522" data-name="Trazado 129522" d="M529.5,751.305l12.264,6.639s26.524,1.764,33.516.367,8.781-6.852,8.781-6.852a38.135,38.135,0,0,0-20.461-9.667,36.342,36.342,0,0,0-3.729-.338,35.275,35.275,0,0,0-6.422.312C537.4,744.118,529.5,751.305,529.5,751.305Z" transform="translate(-320.031 -469.02)" fill="#764678"/>
    <path id="Trazado_129523" data-name="Trazado 129523" d="M591.692,710.925l1.268-4.743.367-1.381,2.183-8.12.522,8,.312,4.8.1,1.521c.066,1.032.676,1.231,1.433,2.109.3.367,2.267,2.506.132,3.564-2.66,1.319-7.741-.419-9.718-2.829C588.316,713.846,591.281,712.457,591.692,710.925Z" transform="translate(-357.221 -440.716)" fill="#ffb27d"/>
    <path id="Trazado_129524" data-name="Trazado 129524" d="M594.434,917.148s-15.487-4.284-47.143,3.086l-.121,4.776,46.695.408Z" transform="translate(-331.209 -579.398)" fill="#f5ca56"/>
    <ellipse id="Elipse_4237" data-name="Elipse 4237" cx="3.307" cy="6.54" rx="3.307" ry="6.54" transform="translate(207.325 285.156) rotate(-53.6)" fill="#331832"/>
    <path id="Trazado_129525" data-name="Trazado 129525" d="M504.59,832.838c.783-12.815,2.726-31.914,8.193-46.552a44.736,44.736,0,0,1,2.807-6.529c.808-1.5-.794-4.692-3.233-6.169-2.289-1.385-5.79-1.051-6.327-.32-.911,1.249-1.859,3.615-3.329,7.37-5.107,13.051-8.873,30.514-9.641,52.03Z" transform="translate(-296.98 -488.764)" fill="#ffb27d"/>
    <path id="Trazado_129526" data-name="Trazado 129526" d="M615.673,684.4a11.021,11.021,0,0,1,.849,4.306c0,2.495-3.5-2.892-3.5-2.892Z" transform="translate(-372.865 -432.948)" fill="#5c305d"/>
    <ellipse id="Elipse_4238" data-name="Elipse 4238" cx="6.885" cy="8.601" rx="6.885" ry="8.601" transform="translate(228.638 252.3) rotate(-15.63)" fill="#ffb27d"/>
    <path id="Trazado_129527" data-name="Trazado 129527" d="M576.53,680.4l3.185-1.051a2.45,2.45,0,0,0,1.536-1.47c.452-1.234,1.146-1.966,4.2-2.495,3.869-.676,5.937-3.608,5.937-5.8a2.35,2.35,0,0,0-3.979-1.837c-1.731,1.422-1.393-1.246-3.307-1.1-3.564.246-3.674,3.174-6.522,3.674-3.748.68-9.832,5.063-5.324,11.224Z" transform="translate(-346.07 -421.716)" fill="#331832"/>
    <path id="Trazado_129528" data-name="Trazado 129528" d="M604.211,702.569a.161.161,0,0,0,.044-.121.143.143,0,0,0-.154-.129,1.517,1.517,0,0,0-1.389,1.271.147.147,0,0,0,.1.176c.074.022.136-.033.169-.1a2.392,2.392,0,0,1,1.154-1.054A.121.121,0,0,0,604.211,702.569Z" transform="translate(-366.342 -444.283)" fill="#080435"/>
    <path id="Trazado_129529" data-name="Trazado 129529" d="M606.011,706.983c.151.309.445.467.661.367a.577.577,0,0,0,.117-.764c-.151-.309-.445-.467-.661-.367A.584.584,0,0,0,606.011,706.983Z" transform="translate(-368.372 -446.732)" fill="#080435"/>
    <path id="Trazado_129530" data-name="Trazado 129530" d="M617.874,698.322a.106.106,0,0,0,.059-.088.176.176,0,0,0-.088-.18.959.959,0,0,0-1.359.463.184.184,0,0,0,.037.2.1.1,0,0,0,.154,0,1.429,1.429,0,0,1,1.128-.367A.092.092,0,0,0,617.874,698.322Z" transform="translate(-375.048 -441.505)" fill="#080435"/>
    <path id="Trazado_129531" data-name="Trazado 129531" d="M617.686,702.5c.026.345.242.61.481.588s.415-.312.389-.658-.242-.61-.481-.591S617.66,702.154,617.686,702.5Z" transform="translate(-375.815 -443.979)" fill="#080435"/>
    <path id="Trazado_129532" data-name="Trazado 129532" d="M575,702.823s3.241,4.578,6.5,4.266c0,0-3.336-3.307,1.631-6.819C583.142,700.27,578,700.538,575,702.823Z" transform="translate(-348.814 -442.987)" fill="#5c305d"/>
    <path id="Trazado_129533" data-name="Trazado 129533" d="M587.052,707.546a1.393,1.393,0,0,0,1.867-.735,1.5,1.5,0,0,0-.919-1.837,1.4,1.4,0,0,0-1.87.735A1.5,1.5,0,0,0,587.052,707.546Z" transform="translate(-355.814 -445.884)" fill="#ffb27d"/>
    <path id="Trazado_129534" data-name="Trazado 129534" d="M593.472,700.27s.4,4.339,1.385,4.964,6.522-.2,8.869-1.778h0a5.723,5.723,0,0,1-3.274,6.525,7.667,7.667,0,0,1-2.612.551h0c-1.837.055-3.74-.342-4.817-1.914-.327-.478-.312-3.854-.312-3.854a3.81,3.81,0,0,0-1.381-2.715A5.242,5.242,0,0,1,593.472,700.27Z" transform="translate(-359.144 -442.987)" fill="#5c305d"/>
    <path id="Trazado_129535" data-name="Trazado 129535" d="M612.441,667.716a1.036,1.036,0,0,1-.981-.735l.184-.051a.856.856,0,0,0,1.1.536l.048.184A1.5,1.5,0,0,1,612.441,667.716Z" transform="translate(-371.878 -421.897)" fill="#331832"/>
    <path id="Trazado_129536" data-name="Trazado 129536" d="M613.2,676.581l-.048-.084a12.123,12.123,0,0,0,1.914-1.356c.852-.735,1.837-1.877,1.7-3.042-.074-.639-.261-1.036-.566-1.205-.478-.261-1.172.073-1.782.367l-.279.132-.04-.084.279-.132c.632-.3,1.348-.65,1.867-.367.338.184.536.6.617,1.275C617.136,674.388,613.359,676.493,613.2,676.581Z" transform="translate(-372.947 -424.284)" fill="#fff"/>
    <path id="Trazado_129537" data-name="Trazado 129537" d="M585.6,674.3v-.1a6.749,6.749,0,0,0,5.574-3.072l.085.044A6.89,6.89,0,0,1,585.6,674.3Z" transform="translate(-355.519 -424.553)" fill="#fff"/>
    <path id="Trazado_129538" data-name="Trazado 129538" d="M614.95,717.283a.735.735,0,0,1-.426.885c-.316.07-.639-.217-.735-.639a.735.735,0,0,1,.426-.885C614.528,716.577,614.851,716.86,614.95,717.283Z" transform="translate(-373.333 -453.339)" fill="#fff"/>
    <path id="Trazado_129539" data-name="Trazado 129539" d="M511.347,847.611h-.176c-.966-.14-1.576-1.352-1.389-2.763a2.973,2.973,0,0,1,1.018-1.973,1.4,1.4,0,0,1,1.04-.3c.963.14,1.573,1.352,1.389,2.763a2.976,2.976,0,0,1-1.021,1.973A1.422,1.422,0,0,1,511.347,847.611Zm.316-4.593a.988.988,0,0,0-.58.217,2.517,2.517,0,0,0-.838,1.664h0c-.147,1.1.309,2.138.992,2.238a.937.937,0,0,0,.687-.209,2.487,2.487,0,0,0,.838-1.664c.147-1.1-.3-2.138-.988-2.238Z" transform="translate(-307.537 -533)" fill="#ec865c"/>
    <path id="Trazado_129540" data-name="Trazado 129540" d="M490.219,924.38s9.887.309,10.225,1.055c.779,1.723,1.573,5.478,2.318,7.216.323.753,1.242,3.365.566,3.8-.588.367-2.267-1.337-2.969-2.256-.981,5.342-3.784,12.716-3.439,1.326H496.9c-.231,1.135-1.381,8.256-2.965,8.035-1.205-.169-.327-6.871.033-8.744h-.048c-.525,1.87-1.407,7.473-2.778,7.146-1.168-.283-.088-8.061-.088-8.061s-1.47,6.338-2.465,5.125c-.911-1.1.312-7.091.676-8.9C489.634,928.219,490.219,924.38,490.219,924.38Z" transform="translate(-293.944 -584.756)" fill="#ffb27d"/>
    <path id="Trazado_129541" data-name="Trazado 129541" d="M659.348,773.033a25.722,25.722,0,0,0-3.538-6.456l.25-.187a26.139,26.139,0,0,1,3.586,6.555Z" transform="translate(-399.933 -484.813)" fill="#331832"/>
    <path id="Trazado_129542" data-name="Trazado 129542" d="M604.579,974.353l-.309-.04c.018-.132,1.738-13.569,3.035-18.371s7.348-9.071,7.392-9.112l.176.253c-.059.044-5.989,4.181-7.271,8.939S604.6,974.221,604.579,974.353Z" transform="translate(-367.33 -598.957)" fill="#331832"/>
  </g>
</svg>
