<svg xmlns="http://www.w3.org/2000/svg" xmlns:xlink="http://www.w3.org/1999/xlink" width="214.683" height="115.391" viewBox="0 0 214.683 115.391">
  <defs>
    <linearGradient id="linear-gradient" x1="0.5" x2="0.5" y2="1" gradientUnits="objectBoundingBox">
      <stop offset="0" stop-color="#fff"/>
      <stop offset="1" stop-color="#d3d3d3"/>
    </linearGradient>
  </defs>
  <g id="Grupo_42974" data-name="Grupo 42974" transform="translate(-41.675 -67.932)">
    <g id="Grupo_42974-2" data-name="Grupo 42974" transform="translate(116.98 67.932)" opacity="0.29">
      <path id="Trazado_94714" data-name="Trazado 94714" d="M313.015,129.89H265.283v-36.9h39.084l8.649,8.649Z" transform="translate(-255.87 -83.499)" fill="#c9c8c3"/>
      <line id="Línea_1491" data-name="Línea 1491" x1="8.367" transform="translate(0 9.935)" fill="none" stroke="#fff" stroke-miterlimit="10" stroke-width="2.075"/>
      <line id="Línea_1492" data-name="Línea 1492" y1="8.367" transform="translate(9.674)" fill="none" stroke="#fff" stroke-miterlimit="10" stroke-width="2.075"/>
      <path id="Trazado_94715" data-name="Trazado 94715" d="M366.372,94.846v8.628h8.649" transform="translate(-318.661 -84.649)" fill="#fff"/>
    </g>
    <g id="Grupo_42996" data-name="Grupo 42996" transform="translate(57.28 75.616)">
      <g id="Grupo_42995" data-name="Grupo 42995" transform="translate(0 0)">
        <g id="Grupo_42987" data-name="Grupo 42987">
          <path id="Trazado_94716" data-name="Trazado 94716" d="M100.136,226.92l40.85-1.8,12.446,54.493-63.711.346-6.492-31.165A18.217,18.217,0,0,1,100.136,226.92Z" transform="translate(-82.865 -173.248)" fill="#00223d"/>
          <g id="Grupo_42976" data-name="Grupo 42976" transform="translate(5.78 25.933)">
            <line id="Línea_1493" data-name="Línea 1493" x2="1.942" y2="7.596" transform="translate(13.159 19.632)" fill="none" stroke="#122832" stroke-miterlimit="10" stroke-width="5.917"/>
            <line id="Línea_1494" data-name="Línea 1494" x2="1.942" y2="7.596" transform="translate(30.306 19.632)" fill="none" stroke="#122832" stroke-miterlimit="10" stroke-width="5.917"/>
            <g id="Grupo_42975" data-name="Grupo 42975">
              <path id="Trazado_94717" data-name="Trazado 94717" d="M105.954,177.538h33.655L132.4,156.663H101.859a3.736,3.736,0,0,0-3.532,4.956l4.8,13.905A2.989,2.989,0,0,0,105.954,177.538Z" transform="translate(-98.12 -156.663)" fill="#00223d"/>
            </g>
          </g>
          <g id="Grupo_42986" data-name="Grupo 42986" transform="translate(5.716)">
            <g id="Grupo_42985" data-name="Grupo 42985">
              <g id="Grupo_42984" data-name="Grupo 42984">
                <g id="Grupo_42977" data-name="Grupo 42977" transform="translate(31.645 42.524)">
                  <path id="Trazado_94718" data-name="Trazado 94718" d="M296.088,253.188c5.472-3.631,15.23-9.858,15.23-9.858s17.25-11.193,16.929-12.151-6.142,1.549-6.142,1.549c.456-.885,5.773-4.052,5.561-4.626s-6.963,3.122-7.262,2.841,6.739-4.082,6.328-4.843-7.449,3.041-7.842,2.86,6.634-4.369,5.742-5.018-10.621,6.72-11.5,6.555,2.179-4.519,2.021-6.448-8.131,9.875-8.131,9.875c-1.83,1.593-16.243,7.782-16.243,7.782Z" transform="translate(-249.37 -214.977)" fill="#df9257"/>
                  <path id="Trazado_94719" data-name="Trazado 94719" d="M348.1,239.749l-2.559,4.724s1.188-4.8.886-5.18Z" transform="translate(-283.382 -224.578)" fill="#b6613b"/>
                  <path id="Trazado_94720" data-name="Trazado 94720" d="M214.434,228.329s-18.1-38.489-29.387-23.833c-12.14,15.758,9.669,30.093,20.787,41.846a8.174,8.174,0,0,0,11.146.671L243.2,229.449l-4.441-9.078Z" transform="translate(-181.476 -200.897)" fill="#df9257"/>
                  <path id="Trazado_94721" data-name="Trazado 94721" d="M194.944,235.429c4.838-5.477,11.478-12.737,16.742-17.784-6.094-10.388-18.858-23.693-26.639-13.592C176.311,215.393,185.155,225.995,194.944,235.429Z" transform="translate(-181.476 -200.454)" fill="#26aab7"/>
                </g>
                <g id="Grupo_42978" data-name="Grupo 42978" transform="translate(7.517 36.121)">
                  <path id="Trazado_94722" data-name="Trazado 94722" d="M117.808,205.047c-.623-9.711,16.022-17.552,16.022-17.552l6.194-3.941.371,1.034,10.333,9.658,1.714-4.468-.1-1.672,1.694,1.779c1.247.2,6.334,7.146,7.668,10.377,2.029,4.918,2.648,11.364,2.843,15.234,4.6,37.686,4.957,38.86,4.957,38.86H123.423S121.674,265.346,117.808,205.047Z" transform="translate(-117.791 -183.554)" fill="#26aab7"/>
                  <path id="Trazado_94723" data-name="Trazado 94723" d="M127.462,203.584c.475-.314,30.4,63.212,30.4,63.212H120.771s-3.138-27.828-2.679-50.262C118.092,216.534,118.634,209.43,127.462,203.584Z" transform="translate(-117.95 -195.995)" fill="#18939f"/>
                </g>
                <g id="Grupo_42981" data-name="Grupo 42981" transform="translate(28.133)">
                  <g id="Grupo_42980" data-name="Grupo 42980">
                    <path id="Trazado_94724" data-name="Trazado 94724" d="M194.758,103.927a10.291,10.291,0,0,0,.581-4.616s7.348-2.506,5.594-6.708-10.388-1.856-10.388-1.856,3.269-5.013-3.155-.935c-2.554,1.621-2.98,2.019-4.963,1.136a5.393,5.393,0,0,0-6.047,1.912c-.568,1.03-.218,1.945-.994,1.864-2.874-.3-4.219,2.7-2.245,9.061,0,0-.995,3.243.941,8.3.7,1.827,3.083,2.44,3.083,2.44" transform="translate(-172.206 -88.214)" fill="#0e162e"/>
                    <path id="Trazado_94725" data-name="Trazado 94725" d="M197.258,118.2s2.18,14.741-2.31,20.425c-2.3,2.231-5.023,1.252-6.768,1.185-.067-.63.274,5.119.58,10.273,0,.013,0,.026,0,.039-.091.887-1.281,1.169-2.684,1.089a8.387,8.387,0,0,1-5.619-2.714l-4.262-4.577,2.378-10.714a17.923,17.923,0,0,0,.377-3.194c-1.731-.218-2.934-2.862-2.212-4.58.689-1.639,3.372-1.747,3.79-.2.424,1.569,1.738,1.527,1.9.225.094-.75-.473-6.907,3.965-7.634,2.665.186,3.28,2.034,4.637,2.108s2.61-2.787,3.278-2.014C196.415,120.353,197.258,118.2,197.258,118.2Z" transform="translate(-174.682 -106.582)" fill="#df9257"/>
                    <path id="Trazado_94726" data-name="Trazado 94726" d="M179.7,139.548c.927-3.124,2.979-.558,2.979-.558Z" transform="translate(-176.861 -119.137)" fill="#b6613b"/>
                    <path id="Trazado_94727" data-name="Trazado 94727" d="M204.86,175.583l-2.68-.237,2.134,5.473Z" transform="translate(-190.824 -142.335)" fill="#b6613b"/>
                    <g id="Grupo_42979" data-name="Grupo 42979" transform="translate(15.85 16.852)">
                      <path id="Trazado_94728" data-name="Trazado 94728" d="M224.967,146.257a21.862,21.862,0,0,1,1.062,3.13c-.477-.039-1.456.016-1.456.016Z" transform="translate(-220.582 -141.119)" fill="#b6613b"/>
                      <ellipse id="Elipse_3849" data-name="Elipse 3849" cx="0.847" cy="0.409" rx="0.847" ry="0.409" transform="translate(5.473 5.649) rotate(-88.584)" fill="#0e162e"/>
                      <path id="Trazado_94729" data-name="Trazado 94729" d="M220.4,143.508c-.011.468.162.851.388.857s.418-.369.43-.837-.162-.851-.388-.857S220.41,143.041,220.4,143.508Z" transform="translate(-217.989 -138.892)" fill="#0e162e"/>
                      <path id="Trazado_94730" data-name="Trazado 94730" d="M214.331,134.324c-.54.053-.578-1.856,2.155-1.607.773.07,1.428.83,1.066,1.411C217.316,134.505,216.288,134.13,214.331,134.324Z" transform="translate(-214.041 -132.694)" fill="#0e162e"/>
                      <path id="Trazado_94731" data-name="Trazado 94731" d="M230.352,134.773c.513.177,1.3-1.263-.224-1.792a.97.97,0,0,0-1.253,1.354C229.07,134.688,229.542,134.5,230.352,134.773Z" transform="translate(-223.183 -132.825)" fill="#0e162e"/>
                      <path id="Trazado_94732" data-name="Trazado 94732" d="M222.927,157.131l-3.669-.292a2.43,2.43,0,0,0,1.994,1.892C222.547,158.834,222.927,157.131,222.927,157.131Z" transform="translate(-217.282 -147.691)" fill="#fff"/>
                    </g>
                  </g>
                </g>
                <path id="Trazado_94733" data-name="Trazado 94733" d="M167.079,337.319c6.525-.743,18.237-2.1,18.237-2.1s23.46.491,23.61-.507-14.237-8.617-14.237-8.617c-2.355.586-27.109-1.411-27.109-1.411Z" transform="translate(-140.889 -235.092)" fill="#df9257"/>
                <g id="Grupo_42982" data-name="Grupo 42982" transform="translate(0 40.544)">
                  <path id="Trazado_94734" data-name="Trazado 94734" d="M121.84,210.653c.158-3.206,4.579-14.05-1.662-15.357-6.581-1.378-26.036,18.551-21.568,51.824,1.014,7.55,5.38,13.782,18.47,11.39l24.741-3.647-.749-9.491-23.979-5.5S121.37,220.17,121.84,210.653Z" transform="translate(-97.951 -195.229)" fill="#df9257"/>
                </g>
                <g id="Grupo_42983" data-name="Grupo 42983" transform="translate(0.16 40.554)">
                  <path id="Trazado_94735" data-name="Trazado 94735" d="M124.35,231.9c1-9.492,1.748-15.9,2-20.981.158-3.205.333-14.3-5.908-15.607-4.787-1-17.818,11.366-22.067,29.844C105.441,227.739,117.179,229.609,124.35,231.9Z" transform="translate(-98.373 -195.256)" fill="#26aab7"/>
                </g>
              </g>
            </g>
          </g>
        </g>
        <g id="Grupo_42994" data-name="Grupo 42994" transform="translate(40.609 18.245)">
          <g id="Grupo_42993" data-name="Grupo 42993" transform="translate(7.801)">
            <g id="Grupo_42990" data-name="Grupo 42990">
              <g id="Grupo_42988" data-name="Grupo 42988">
                <rect id="Rectángulo_28104" data-name="Rectángulo 28104" width="5.25" height="5.12" rx="2.56" transform="translate(0)" fill="#fff" opacity="0.33"/>
                <path id="Trazado_94736" data-name="Trazado 94736" d="M211.606,141.389c.275-.434.543-.874.795-1.324.68-1.218,1.307-2.484,1.985-3.694H212.05a1.659,1.659,0,0,0-1.409,1.826v1.467A1.839,1.839,0,0,0,211.606,141.389Z" transform="translate(-210.641 -136.371)" fill="#fff" opacity="0.33"/>
              </g>
              <g id="Grupo_42989" data-name="Grupo 42989" transform="translate(0)">
                <rect id="Rectángulo_28105" data-name="Rectángulo 28105" width="5.25" height="5.12" rx="2.56" fill="none" stroke="#0e162e" stroke-miterlimit="10" stroke-width="2.156"/>
              </g>
            </g>
            <g id="Grupo_42992" data-name="Grupo 42992" transform="translate(6.422 0.102)">
              <g id="Grupo_42991" data-name="Grupo 42991">
                <rect id="Rectángulo_28106" data-name="Rectángulo 28106" width="3.528" height="4.944" rx="1.764" transform="translate(0 0)" fill="#fff" opacity="0.33"/>
                <path id="Trazado_94737" data-name="Trazado 94737" d="M228.02,141.292q1.2-2.277,2.4-4.558a.864.864,0,0,0-.378-.093h-1.362a1.276,1.276,0,0,0-1.083,1.4v2.136A1.567,1.567,0,0,0,228.02,141.292Z" transform="translate(-227.593 -136.641)" fill="#fff" opacity="0.33"/>
              </g>
              <rect id="Rectángulo_28107" data-name="Rectángulo 28107" width="3.528" height="4.944" rx="1.764" transform="translate(0 0)" fill="none" stroke="#0e162e" stroke-miterlimit="10" stroke-width="1.657"/>
            </g>
            <line id="Línea_1495" data-name="Línea 1495" x2="1.072" transform="translate(5.25 3.02)" fill="none" stroke="#0e162e" stroke-miterlimit="10" stroke-width="2.156"/>
          </g>
          <line id="Línea_1496" data-name="Línea 1496" x2="7.751" y2="0.106" transform="translate(0 1.227)" fill="none" stroke="#0e162e" stroke-miterlimit="10" stroke-width="2.156"/>
        </g>
      </g>
    </g>
    <g id="Grupo_43002" data-name="Grupo 43002" transform="translate(41.675 142.049)">
      <g id="Grupo_42998" data-name="Grupo 42998" transform="translate(68.392)">
        <g id="Grupo_42997" data-name="Grupo 42997" transform="translate(0)">
          <rect id="Rectángulo_28108" data-name="Rectángulo 28108" width="33.362" height="3.912" transform="translate(0 32.35)" fill="#7d6eb2"/>
          <path id="Trazado_94738" data-name="Trazado 94738" d="M276.861,348.948q-2.516,1.9-4.951,3.913h14.526v-3.913Z" transform="translate(-253.074 -316.598)" fill="#6858a0"/>
          <path id="Trazado_94739" data-name="Trazado 94739" d="M334.117,299.823H281.537l12.692-36.263h52.581Z" transform="translate(-259.054 -263.561)" fill="#7d6eb2"/>
          <line id="Línea_1497" data-name="Línea 1497" x2="52.845" transform="translate(23.426 32.082)" fill="none" stroke="#fff" stroke-miterlimit="10" stroke-width="1.311"/>
          <path id="Trazado_94740" data-name="Trazado 94740" d="M365.02,308.7a3.3,3.3,0,1,0-3.3,3.3A3.3,3.3,0,0,0,365.02,308.7Z" transform="translate(-306.808 -289.546)" fill="#fff"/>
        </g>
      </g>
      <rect id="Rectángulo_28109" data-name="Rectángulo 28109" width="214.683" height="5.642" transform="translate(0 35.619)" fill="#00223d"/>
      <g id="Grupo_43001" data-name="Grupo 43001" transform="translate(16.514 5.188)">
        <g id="Grupo_42999" data-name="Grupo 42999" transform="translate(0 12.803)">
          <path id="Trazado_94741" data-name="Trazado 94741" d="M92.7,328.88h0a7.431,7.431,0,0,1-7.431-7.431v-10.4h14.862v10.4A7.431,7.431,0,0,1,92.7,328.88Z" transform="translate(-85.264 -311.045)" fill="#ffb701"/>
          <path id="Trazado_94742" data-name="Trazado 94742" d="M91,332.839a15.459,15.459,0,0,1-5.739-8.67V329.6a7.432,7.432,0,0,0,7.431,7.431h0a7.4,7.4,0,0,0,5.04-1.982A11,11,0,0,1,91,332.839Z" transform="translate(-85.264 -319.197)" fill="#ffb701" style="mix-blend-mode: multiply;isolation: isolate"/>
          <circle id="Elipse_3850" data-name="Elipse 3850" cx="5.615" cy="5.615" r="5.615" transform="matrix(0.974, -0.227, 0.227, 0.974, 8.615, 3.403)" fill="none" stroke="#ffb701" stroke-miterlimit="10" stroke-width="2.622"/>
        </g>
        <g id="Grupo_43000" data-name="Grupo 43000" transform="translate(3.11)" opacity="0.61">
          <path id="Trazado_94743" data-name="Trazado 94743" d="M97.124,288.089a25.571,25.571,0,0,1-2.68-4.3,7.9,7.9,0,0,1-.969-3.2,3.369,3.369,0,0,1,1.342-2.932,3.283,3.283,0,0,1,4.324,1.221,5.994,5.994,0,0,1,.4,4.835,45.906,45.906,0,0,1-1.925,4.611" transform="translate(-93.473 -277.253)" fill="#fff"/>
          <path id="Trazado_94744" data-name="Trazado 94744" d="M110.356,304.074a3.219,3.219,0,0,1,1.118-1.441.98.98,0,1,1,.9,1.678,3.213,3.213,0,0,1-1.577.131" transform="translate(-103.96 -292.916)" fill="#fff"/>
        </g>
      </g>
    </g>
    <g id="Grupo_43021" data-name="Grupo 43021" transform="translate(63.474 68.094)">
      <g id="Grupo_43012" data-name="Grupo 43012" transform="translate(89.782 20.596)">
        <g id="Grupo_43011" data-name="Grupo 43011">
          <g id="Grupo_43004" data-name="Grupo 43004" transform="translate(9.833 18.168)">
            <g id="Grupo_43003" data-name="Grupo 43003">
              <path id="Trazado_94745" data-name="Trazado 94745" d="M381.483,186.337l-9.173-15.616a.109.109,0,0,0-.2.064V184.1a.106.106,0,0,0,.058.092.735.735,0,0,1,.2,1.126.133.133,0,0,1-.027.027.725.725,0,0,1-1.209-.529.706.706,0,0,1,.371-.622.113.113,0,0,0,.062-.1V170.785a.109.109,0,0,0-.2-.064l-9.206,15.3a.109.109,0,0,0,0,.123l4.549,9.633H376.97l4.516-9.312A.108.108,0,0,0,381.483,186.337Z" transform="translate(-362.141 -170.676)" fill="#00223d"/>
            </g>
            <path id="Rectángulo_28110" data-name="Rectángulo 28110" d="M.308,0h9.813a.308.308,0,0,1,.308.308V2.926A1.558,1.558,0,0,1,8.872,4.485H1.558A1.558,1.558,0,0,1,0,2.926V.308A.308.308,0,0,1,.308,0Z" transform="translate(4.483 25.491)" fill="#00223d"/>
          </g>
          <g id="Grupo_43010" data-name="Grupo 43010">
            <g id="Grupo_43007" data-name="Grupo 43007" transform="translate(4.393)">
              <g id="Grupo_43005" data-name="Grupo 43005" transform="translate(1.037 0.848)">
                <path id="Trazado_94746" data-name="Trazado 94746" d="M350.52,124.961A14.14,14.14,0,0,0,364.661,139.1" transform="translate(-350.52 -124.961)" fill="none" stroke="#f5ca56" stroke-miterlimit="10" stroke-width="1.497"/>
                <path id="Trazado_94747" data-name="Trazado 94747" d="M401.985,176.924a14.141,14.141,0,0,0-14.141-14.141" transform="translate(-373.703 -148.454)" fill="none" stroke="#f6c343" stroke-miterlimit="10" stroke-width="1.497"/>
              </g>
              <g id="Grupo_43006" data-name="Grupo 43006">
                <rect id="Rectángulo_28111" data-name="Rectángulo 28111" width="2.074" height="2.074" fill="#00223d"/>
                <rect id="Rectángulo_28112" data-name="Rectángulo 28112" width="2.074" height="2.074" transform="translate(28.093 27.904)" fill="#00223d"/>
              </g>
            </g>
            <g id="Grupo_43009" data-name="Grupo 43009" transform="translate(0 14.235)">
              <line id="Línea_1498" data-name="Línea 1498" x2="37.332" transform="translate(1.084 0.848)" fill="none" stroke="#f5ca56" stroke-miterlimit="10" stroke-width="1.497"/>
              <g id="Grupo_43008" data-name="Grupo 43008">
                <rect id="Rectángulo_28113" data-name="Rectángulo 28113" width="2.074" height="2.074" transform="translate(18.43)" fill="#00223d"/>
                <rect id="Rectángulo_28114" data-name="Rectángulo 28114" width="2.074" height="2.074" fill="#00223d"/>
                <rect id="Rectángulo_28115" data-name="Rectángulo 28115" width="2.074" height="2.074" transform="translate(36.954)" fill="#00223d"/>
              </g>
            </g>
          </g>
        </g>
      </g>
      <g id="Grupo_43013" data-name="Grupo 43013" transform="translate(0 0)">
        <path id="Trazado_94748" data-name="Trazado 94748" d="M102.058,87.472l16.681.172a1.538,1.538,0,0,1,1.379.89l1.522,3.279a.187.187,0,0,0,.356-.071l.167-4.062.168-16.238a2.876,2.876,0,0,0-2.846-2.906l-17.229-.178A2.876,2.876,0,0,0,99.35,71.2l-.138,13.362A2.876,2.876,0,0,0,102.058,87.472Z" transform="translate(-99.212 -68.359)" fill="#a0a0a0" opacity="0.22"/>
        <path id="Rectángulo_28116" data-name="Rectángulo 28116" d="M.555,0h2.4a.556.556,0,0,1,.556.556V5.279a.556.556,0,0,1-.556.556H.556A.556.556,0,0,1,0,5.279V.555A.555.555,0,0,1,.555,0Z" transform="translate(7.948 9.496) rotate(0.591)" fill="#26aab7"/>
        <rect id="Rectángulo_28117" data-name="Rectángulo 28117" width="3.513" height="3.513" rx="0.431" transform="translate(3.985 11.776) rotate(0.593)" fill="#7d6eb2"/>
        <rect id="Rectángulo_28118" data-name="Rectángulo 28118" width="3.513" height="8.978" rx="0.556" transform="matrix(1, 0.01, -0.01, 1, 11.884, 6.393)" fill="#7d6eb2"/>
        <rect id="Rectángulo_28119" data-name="Rectángulo 28119" width="3.174" height="11.585" rx="0.888" transform="translate(15.815 3.826) rotate(0.593)" fill="url(#linear-gradient)"/>
      </g>
      <g id="Grupo_43020" data-name="Grupo 43020" transform="translate(122.984 54.482)" style="isolation: isolate">
        <g id="Grupo_43019" data-name="Grupo 43019" style="mix-blend-mode: multiply;isolation: isolate">
          <g id="Grupo_43014" data-name="Grupo 43014" transform="translate(9.961 2.023)">
            <circle id="Elipse_3851" data-name="Elipse 3851" cx="8.349" cy="8.349" r="8.349" transform="translate(14.315 2.117)" fill="#8ec8c8" style="mix-blend-mode: multiply;isolation: isolate"/>
            <circle id="Elipse_3852" data-name="Elipse 3852" cx="8.349" cy="8.349" r="8.349" transform="matrix(0.361, -0.933, 0.933, 0.361, 0, 15.57)" fill="#ffce83" style="mix-blend-mode: multiply;isolation: isolate"/>
            <circle id="Elipse_3853" data-name="Elipse 3853" cx="8.349" cy="8.349" r="8.349" transform="translate(7.366 14.076) rotate(-9.282)" fill="#26aab7" style="mix-blend-mode: multiply;isolation: isolate"/>
          </g>
          <g id="Grupo_43018" data-name="Grupo 43018">
            <rect id="Rectángulo_28120" data-name="Rectángulo 28120" width="51.658" height="34.18" transform="translate(0.645 0.816)" fill="none" stroke="#a0a0a0" stroke-miterlimit="10" stroke-width="0.771" stroke-dasharray="5.231"/>
            <g id="Grupo_43017" data-name="Grupo 43017">
              <g id="Grupo_43015" data-name="Grupo 43015">
                <rect id="Rectángulo_28121" data-name="Rectángulo 28121" width="2.417" height="2.417" fill="#fff" stroke="#00223d" stroke-miterlimit="10" stroke-width="1.744"/>
                <rect id="Rectángulo_28122" data-name="Rectángulo 28122" width="2.417" height="2.417" transform="translate(50.97)" fill="#fff" stroke="#00223d" stroke-miterlimit="10" stroke-width="1.744"/>
              </g>
              <g id="Grupo_43016" data-name="Grupo 43016" transform="translate(0 33.065)">
                <rect id="Rectángulo_28123" data-name="Rectángulo 28123" width="2.417" height="2.417" fill="#fff" stroke="#00223d" stroke-miterlimit="10" stroke-width="1.744"/>
                <rect id="Rectángulo_28124" data-name="Rectángulo 28124" width="2.417" height="2.417" transform="translate(50.97)" fill="#fff" stroke="#00223d" stroke-miterlimit="10" stroke-width="1.744"/>
              </g>
            </g>
          </g>
        </g>
        <path id="Trazado_94749" data-name="Trazado 94749" d="M517.971,300.212l-1.611,4.673a.492.492,0,0,1-.935-.015l-3.2-10.3a.492.492,0,0,1,.627-.612l10.313,3.467a.492.492,0,0,1-.008.935l-4.872,1.543A.492.492,0,0,0,517.971,300.212Z" transform="translate(-478.72 -262.952)" fill="#00223d"/>
      </g>
    </g>
    <g id="Grupo_43024" data-name="Grupo 43024" transform="translate(49.581 88.67)">
      <g id="Grupo_43022" data-name="Grupo 43022" transform="translate(156.701 0)" style="isolation: isolate">
        <path id="Trazado_94750" data-name="Trazado 94750" d="M482.314,136.8a3.083,3.083,0,1,0-3.086,3.079A3.083,3.083,0,0,0,482.314,136.8Z" transform="translate(-476.149 -129.527)" fill="#7d6eb2" style="mix-blend-mode: multiply;isolation: isolate"/>
        <rect id="Rectángulo_28125" data-name="Rectángulo 28125" width="12.991" height="7.486" transform="translate(3.091 0) rotate(0.064)" fill="none" stroke="#a0a0a0" stroke-miterlimit="10" stroke-width="0.771" stroke-dasharray="5.231" style="mix-blend-mode: multiply;isolation: isolate"/>
      </g>
      <g id="Grupo_43023" data-name="Grupo 43023" transform="translate(0 23.051)">
        <path id="Trazado_94751" data-name="Trazado 94751" d="M82.857,225.952a2.312,2.312,0,1,0-2.314,2.309A2.312,2.312,0,0,0,82.857,225.952Z" transform="translate(-72.288 -208.436)" fill="#f6c343"/>
        <rect id="Rectángulo_28126" data-name="Rectángulo 28126" width="8.918" height="17.505" transform="translate(0.02 0) rotate(0.064)" fill="none" stroke="#a0a0a0" stroke-miterlimit="10" stroke-width="0.771" stroke-dasharray="5.231"/>
      </g>
    </g>
  </g>
</svg>
