<svg xmlns="http://www.w3.org/2000/svg" width="81" height="81" viewBox="0 0 81 81">
  <g id="Grupo_55845" data-name="Grupo 55845" transform="translate(-209 -1031)">
    <circle id="Elipse_4085" data-name="Elipse 4085" cx="40.5" cy="40.5" r="40.5" transform="translate(209 1031)" fill="#aee6e6"/>
    <g id="Grupo_55638" data-name="Grupo 55638" transform="translate(222.113 1043.157)">
      <path id="Trazado_121429" data-name="Trazado 121429" d="M54.157,64.785h-2.98v-14.6a1.49,1.49,0,1,0-2.98,0v14.6H9.451V34.98h12.4a1.49,1.49,0,0,0,0-2.98H7.961a1.49,1.49,0,0,0-1.49,1.49V64.785H3.49A1.49,1.49,0,0,0,2,66.275v2.98a7.451,7.451,0,0,0,7.451,7.451H48.2a7.451,7.451,0,0,0,7.451-7.451v-2.98A1.49,1.49,0,0,0,54.157,64.785Zm-1.49,4.471A4.471,4.471,0,0,1,48.2,73.726h-2.98v-1.49a1.49,1.49,0,1,0-2.98,0v1.49H15.412v-1.49a1.49,1.49,0,1,0-2.98,0v1.49H9.451A4.471,4.471,0,0,1,4.98,69.256v-1.49H52.667Z" transform="translate(-2 -21.568)" fill="#0d585f"/>
      <path id="Trazado_121430" data-name="Trazado 121430" d="M56.451,8.98h2.98a1.49,1.49,0,0,0,0-2.98h-2.98a4.471,4.471,0,0,0-4.471,4.471v1.49H50.49a1.49,1.49,0,0,0,0,2.98h1.49v4.471a1.49,1.49,0,1,0,2.98,0V14.941h1.49a1.49,1.49,0,0,0,0-2.98h-1.49v-1.49A1.49,1.49,0,0,1,56.451,8.98Z" transform="translate(-19.196 -0.039)" fill="#0d585f"/>
      <path id="Trazado_121431" data-name="Trazado 121431" d="M4.471,26.824H22.353a4.471,4.471,0,0,0,4.471-4.471v-2.98a1.49,1.49,0,0,0-2.98,0v2.98a1.49,1.49,0,0,1-1.49,1.49H4.471a1.49,1.49,0,0,1-1.49-1.49V4.471a1.49,1.49,0,0,1,1.49-1.49H22.353a1.49,1.49,0,0,1,1.49,1.49v8.941a1.49,1.49,0,0,0,2.98,0V4.471A4.471,4.471,0,0,0,22.353,0H4.471A4.471,4.471,0,0,0,0,4.471V22.353a4.471,4.471,0,0,0,4.471,4.471Z" transform="translate(22.353 26.824) rotate(-90)" fill="#0d585f"/>
    </g>
  </g>
</svg>
