<svg xmlns="http://www.w3.org/2000/svg" width="81" height="81" viewBox="0 0 81 81">
  <g id="Grupo_55844" data-name="Grupo 55844" transform="translate(-346 -1031)">
    <g id="Grupo_55640" data-name="Grupo 55640" transform="translate(137 28)">
      <circle id="Elipse_4085" data-name="Elipse 4085" cx="40.5" cy="40.5" r="40.5" transform="translate(209 1003)" fill="rgba(125,110,178,0.6)"/>
    </g>
    <g id="follow" transform="translate(358.208 1044.388)">
      <path id="Trazado_121432" data-name="Trazado 121432" d="M47.527,0H8.916C4,0,0,4.326,0,9.643V34.021c0,5.317,4,9.643,8.916,9.643h11.6l6.242,11.894a1.654,1.654,0,0,0,2.928,0l6.242-11.894h11.6c4.916,0,8.916-4.326,8.916-9.643V9.643c0-5.317-4-9.643-8.916-9.643Zm5.609,34.021c0,3.493-2.516,6.336-5.609,6.336h-12.6a1.654,1.654,0,0,0-1.464.885l-5.243,9.99-5.243-9.99a1.654,1.654,0,0,0-1.464-.885H8.916c-3.093,0-5.609-2.842-5.609-6.336V9.643c0-3.493,2.516-6.336,5.609-6.336H47.527c3.093,0,5.609,2.842,5.609,6.336Z" transform="translate(0 0)" fill="#fff"/>
      <path id="Trazado_121433" data-name="Trazado 121433" d="M111.155,84.343a6.321,6.321,0,1,0-9.672,0,10.68,10.68,0,0,0-6.228,9.7v.065a2.98,2.98,0,0,0,2.977,2.977h16.175a2.98,2.98,0,0,0,2.976-2.977v-.065A10.68,10.68,0,0,0,111.155,84.343Zm-4.836-7.077a3.013,3.013,0,1,1-3.014,3.013A3.017,3.017,0,0,1,106.319,77.266ZM98.567,93.775a7.367,7.367,0,0,1,7.354-7.093h.8a7.367,7.367,0,0,1,7.354,7.093Z" transform="translate(-84.754 -65.806)" fill="#fff"/>
      <path id="Trazado_121434" data-name="Trazado 121434" d="M351.963,122.034a1.2,1.2,0,0,0-.639.154l-2.907,1.762a1.315,1.315,0,0,0-.639,1.167c0,.683.44,1.365,1.079,1.365a1,1,0,0,0,.551-.176l.639-.4v11.21c0,.7.859,1.057,1.718,1.057s1.718-.352,1.718-1.057V123.113C353.482,122.452,352.667,122.034,351.963,122.034Z" transform="translate(-309.439 -108.581)" fill="#fff"/>
    </g>
  </g>
</svg>
