<svg xmlns="http://www.w3.org/2000/svg" width="81" height="81" viewBox="0 0 81 81">
  <g id="Grupo_55843" data-name="Grupo 55843" transform="translate(-483 -1031)">
    <circle id="Elipse_4086" data-name="Elipse 4086" cx="40.5" cy="40.5" r="40.5" transform="translate(483 1031)" fill="#aee6e6"/>
    <path id="Trazado_128769" data-name="Trazado 128769" d="M57.829,9.532h3.532a1.766,1.766,0,1,0,0-3.532H57.829a5.3,5.3,0,0,0-5.3,5.3v1.766H50.766a1.766,1.766,0,1,0,0,3.532h1.766v5.3a1.766,1.766,0,0,0,3.532,0v-5.3h1.766a1.766,1.766,0,1,0,0-3.532H56.063V11.3A1.766,1.766,0,0,1,57.829,9.532Z" transform="translate(475.607 1052.002)" fill="#0d585f"/>
    <path id="Trazado_128770" data-name="Trazado 128770" d="M58.227,33.35a1.822,1.822,0,0,0-3.16,1.816l8.009,13.857-29.059,10.9h-.272l-4.722,2.724-3.142,1.816a3.627,3.627,0,0,1-4.958-1.326L17.29,56.851a3.632,3.632,0,0,1,1.362-4.795l6.284-3.632,4.54,7.864a1.822,1.822,0,1,0,3.16-1.816l-4.686-8.1,22.793-18.8.745,1.289a1.822,1.822,0,0,0,3.16-1.816l-1.816-3.142a1.84,1.84,0,0,0-2.742-.49L24.664,44.374l-7.737,4.468a7.265,7.265,0,0,0-3.342,8.227L11.769,58.1a5.444,5.444,0,0,0,2.724,10.171,5.558,5.558,0,0,0,2.724-.726l1.816-1.035A7.047,7.047,0,0,0,22.212,68.4a6.883,6.883,0,0,0,1.907.254,7.156,7.156,0,0,0,3.632-.981l1.58-.908,3.632,6.3a5.444,5.444,0,1,0,9.426-5.449l-3.305-5.757L66.327,51.639a1.821,1.821,0,0,0,.944-2.6Zm-42.9,31.038a1.815,1.815,0,1,1-1.816-3.142l1.58-.908,1.816,3.142Zm23.9,5.085a1.815,1.815,0,0,1-3.142,1.816l-3.632-6.3,3.015-1.725h.145Z" transform="translate(486.379 1021.372)" fill="#0d585f"/>
  </g>
</svg>
