<svg xmlns="http://www.w3.org/2000/svg" width="81" height="81" viewBox="0 0 81 81">
  <g id="Grupo_55842" data-name="Grupo 55842" transform="translate(-620 -1031)">
    <g id="Grupo_55641" data-name="Grupo 55641" transform="translate(411 28)">
      <circle id="Elipse_4085" data-name="Elipse 4085" cx="40.5" cy="40.5" r="40.5" transform="translate(209 1003)" fill="rgba(125,110,178,0.6)"/>
    </g>
    <g id="Grupo_55771" data-name="Grupo 55771" transform="translate(6768.394 11943.402)">
      <g id="facebook" transform="translate(-6136 -10900)">
        <path id="Trazado_128771" data-name="Trazado 128771" d="M219.886,55.173h0c.977,0,2.162-.005,3.643-.005,6.444,0,7.287.028,9.822.149a16.767,16.767,0,0,1,5.516,1.054,10.9,10.9,0,0,1,3.9,2.54l.013.013a10.73,10.73,0,0,1,2.55,3.917,16.682,16.682,0,0,1,1.05,5.509.919.919,0,0,0,.918.879h.041a.919.919,0,0,0,.878-.959,18.418,18.418,0,0,0-1.17-6.086,12.545,12.545,0,0,0-2.976-4.567,12.743,12.743,0,0,0-4.548-2.962,18.5,18.5,0,0,0-6.088-1.172c-2.568-.122-3.421-.151-9.906-.151-1.483,0-2.67,0-3.649.005a.919.919,0,0,0,0,1.838Z" transform="translate(-192.129 -46.793)" fill="#fff"/>
        <path id="Trazado_128772" data-name="Trazado 128772" d="M439.506,201.434H439.5a.919.919,0,0,0-.912.927c.01,1.247.012,2.916.012,5.754,0,6.4-.027,7.251-.139,9.815a18.98,18.98,0,0,1-.534,3.9.919.919,0,1,0,1.781.457,20.778,20.778,0,0,0,.59-4.28c.114-2.6.141-3.455.141-9.9,0-2.843,0-4.516-.012-5.769a.919.919,0,0,0-.919-.912Z" transform="translate(-384.224 -176.745)" fill="#fff"/>
        <path id="Trazado_128776" data-name="Trazado 128776" d="M14.654,21.9a.919.919,0,0,0,1.511,0l1.966-2.835h3.258a3.061,3.061,0,0,0,3.057-3.058V3.058A3.061,3.061,0,0,0,21.388,0H9.732a.919.919,0,1,0,0,1.839H21.388a1.22,1.22,0,0,1,1.218,1.219V16.005a1.22,1.22,0,0,1-1.218,1.219H17.65a.919.919,0,0,0-.755.4l-1.485,2.141L13.924,17.62a.919.919,0,0,0-.755-.4H3.057a1.22,1.22,0,0,1-1.218-1.219V3.058A1.22,1.22,0,0,1,3.057,1.839H5.5A.919.919,0,0,0,5.5,0H3.057A3.061,3.061,0,0,0,0,3.058V16.005a3.061,3.061,0,0,0,3.057,3.058h9.631Z" transform="translate(0 0)" fill="#fff"/>
        <path id="Trazado_128777" data-name="Trazado 128777" d="M62.812,49.725a.919.919,0,0,0,1.3,0L67.633,46.2a3.053,3.053,0,0,0-2.155-5.214h0a3.035,3.035,0,0,0-2.013.759,3.034,3.034,0,0,0-2.013-.759h0A3.053,3.053,0,0,0,59.292,46.2ZM60.59,43.182a1.2,1.2,0,0,1,.857-.355h0a1.21,1.21,0,0,1,.861.357l.5.5a.919.919,0,0,0,1.3,0l.5-.5a1.21,1.21,0,0,1,.861-.357h0a1.2,1.2,0,0,1,.857.355,1.219,1.219,0,0,1,0,1.721l-2.87,2.872L60.592,44.9A1.219,1.219,0,0,1,60.59,43.182Z" transform="translate(-51.24 -35.965)" fill="#fff"/>
        <path id="Trazado_128778" data-name="Trazado 128778" d="M78.462,183.3c-1.1,0-8.074-.062-9.813-.139a16.774,16.774,0,0,1-5.517-1.053,10.9,10.9,0,0,1-3.9-2.541l-.01-.01a10.834,10.834,0,0,1-2.553-3.919,16.683,16.683,0,0,1-1.05-5.509c-.113-2.564-.139-3.413-.139-9.815,0-5.694.023-7.019.107-8.922a.919.919,0,1,0-1.837-.081c-.086,1.935-.109,3.273-.109,9,0,6.441.027,7.3.141,9.9a18.417,18.417,0,0,0,1.17,6.086,13.165,13.165,0,0,0,7.524,7.529A18.512,18.512,0,0,0,68.568,185c2.589.114,3.445.141,9.894.141,2.272,0,3.722,0,4.849-.011a.919.919,0,0,0-.006-1.839H83.3C82.891,183.295,79.058,183.3,78.462,183.3Z" transform="translate(-47.067 -128.947)" fill="#fff"/>
      </g>
      <path id="Trazado_128780" data-name="Trazado 128780" d="M132.5,101.831a3.7,3.7,0,0,0-5.3-.349l-7.639,6.9a4.4,4.4,0,0,0-.963,1.206,3.421,3.421,0,0,0-1.779-.5H114.17a3.446,3.446,0,0,0-3.443,3.443v14.61a3.447,3.447,0,0,0,3.443,3.443h2.652a3.436,3.436,0,0,0,2.617-1.21,4.385,4.385,0,0,0,3.026,1.21h11.913a4.412,4.412,0,0,0,4.14-2.908l3.759-10.424a6.1,6.1,0,0,0-5.735-8.163h-5.41l1.747-2.985a3.707,3.707,0,0,0-.376-4.271Zm-14.441,25.308a1.243,1.243,0,0,1-1.242,1.242h-2.652a1.243,1.243,0,0,1-1.242-1.242v-14.61a1.243,1.243,0,0,1,1.242-1.242h2.652a1.243,1.243,0,0,1,1.242,1.242Zm12.918-22.149-2.716,4.641a1.1,1.1,0,0,0,.95,1.656h7.329a3.9,3.9,0,0,1,3.664,5.216l-3.76,10.424a2.206,2.206,0,0,1-2.07,1.453H122.465a2.2,2.2,0,0,1-2.2-2.2V111.688a2.2,2.2,0,0,1,.754-1.659l.014-.013,7.645-6.9a1.5,1.5,0,0,1,2.3,1.874Z" transform="translate(-6227.732 -10980.677)" fill="#fff"/>
    </g>
  </g>
</svg>
