<svg xmlns="http://www.w3.org/2000/svg" width="81" height="81" viewBox="0 0 81 81">
  <g id="Grupo_55841" data-name="Grupo 55841" transform="translate(-760 -1031)">
    <circle id="Elipse_4088" data-name="Elipse 4088" cx="40.5" cy="40.5" r="40.5" transform="translate(760 1031)" fill="#aee6e6"/>
    <g id="global" transform="translate(728.251 1007)">
      <path id="Trazado_128781" data-name="Trazado 128781" d="M374.292,236.277a.789.789,0,0,0,.148,1.106l.562.429h-5.559a.789.789,0,0,0,0,1.578H375l-.562.429a.789.789,0,1,0,.958,1.254l2.415-1.846a.789.789,0,0,0,0-1.254l-2.415-1.846A.789.789,0,0,0,374.292,236.277Z" transform="translate(-281.302 -174.535)" fill="#0d585f"/>
      <path id="Trazado_128782" data-name="Trazado 128782" d="M369.446,161.612a.787.787,0,0,0,.558-.231l3.931-3.931-.094.7a.789.789,0,1,0,1.564.209l.4-3.012a.789.789,0,0,0-.887-.887l-3.012.4a.79.79,0,1,0,.209,1.565l.7-.094-3.931,3.931a.789.789,0,0,0,.558,1.347Z" transform="translate(-281.306 -103.743)" fill="#0d585f"/>
      <path id="Trazado_128783" data-name="Trazado 128783" d="M372.819,308.4l-.7-.094a.79.79,0,0,0-.209,1.565l3.012.4a.789.789,0,0,0,.887-.887l-.4-3.012a.789.789,0,1,0-1.564.209l.094.7L370,303.354a.789.789,0,1,0-1.116,1.116Z" transform="translate(-281.306 -232.858)" fill="#0d585f"/>
      <path id="Trazado_128784" data-name="Trazado 128784" d="M137.957,78.905v8.178a6.057,6.057,0,0,0,6.05,6.05h21.044a6.057,6.057,0,0,0,6.05-6.05V41.05a6.057,6.057,0,0,0-6.05-6.05H144.007a6.057,6.057,0,0,0-6.05,6.05v8.178a15.258,15.258,0,0,0,0,29.677Zm4.34-1.486V69.848a13.613,13.613,0,0,1,5.3,1.41,12.668,12.668,0,0,1-5.3,6.161Zm0-9.152V64.856h6.662a18.782,18.782,0,0,1-.813,4.912,15.2,15.2,0,0,0-5.848-1.5Zm0-4.99V59.867a15.2,15.2,0,0,0,5.849-1.5,18.781,18.781,0,0,1,.813,4.912Zm0-4.992V50.714a12.671,12.671,0,0,1,5.3,6.161,13.613,13.613,0,0,1-5.3,1.41Zm-1.578-7.571v7.572a13.8,13.8,0,0,1-5.312-1.388,12.678,12.678,0,0,1,5.312-6.184Zm0,9.153v3.411h-6.662a18.793,18.793,0,0,1,.806-4.889,15.388,15.388,0,0,0,5.856,1.478Zm0,4.989v3.411a15.389,15.389,0,0,0-5.856,1.478,18.793,18.793,0,0,1-.805-4.889Zm0,4.991v7.572a12.678,12.678,0,0,1-5.312-6.185,13.8,13.8,0,0,1,5.312-1.387Zm-2.974,7.372a13.689,13.689,0,0,1-5.882-3.462,13.4,13.4,0,0,1,2.161-1.738A14.742,14.742,0,0,0,137.745,77.219Zm11.232-5.168a13.473,13.473,0,0,1,2.139,1.741,13.687,13.687,0,0,1-5.845,3.427,14.732,14.732,0,0,0,3.706-5.169Zm3.2.568a15.056,15.056,0,0,0-2.62-2.073,20.258,20.258,0,0,0,.985-5.69h4.624a13.611,13.611,0,0,1-2.988,7.763Zm-1.635-9.342a20.258,20.258,0,0,0-.984-5.69,15.056,15.056,0,0,0,2.62-2.073,13.611,13.611,0,0,1,2.988,7.763Zm-1.562-7.194a14.732,14.732,0,0,0-3.706-5.169,13.687,13.687,0,0,1,5.845,3.427A13.472,13.472,0,0,1,148.977,56.083Zm-14.953.032a13.4,13.4,0,0,1-2.161-1.738,13.689,13.689,0,0,1,5.882-3.463,14.742,14.742,0,0,0-3.721,5.2Zm-.573,1.5a20.272,20.272,0,0,0-.973,5.658h-4.625a13.61,13.61,0,0,1,2.956-7.723,14.985,14.985,0,0,0,2.642,2.065Zm-.974,7.236a20.271,20.271,0,0,0,.973,5.658,14.985,14.985,0,0,0-2.642,2.065,13.61,13.61,0,0,1-2.955-7.722Zm32.574,26.7H144.007a4.477,4.477,0,0,1-4.472-4.472v-3.42h29.988v3.42A4.477,4.477,0,0,1,165.051,91.555ZM139.535,44.47h21.438a.789.789,0,0,0,0-1.578H139.535V41.05a4.477,4.477,0,0,1,4.472-4.472h21.044a4.477,4.477,0,0,1,4.472,4.472v1.841h-1.841a.789.789,0,1,0,0,1.578h1.841V82.086H139.535V79.2a15.257,15.257,0,1,0,0-30.259Z" transform="translate(-70.782)" fill="#0d585f"/>
      <path id="Trazado_128785" data-name="Trazado 128785" d="M404.733,96.578H406.2a.789.789,0,1,0,0-1.578h-1.462a.789.789,0,1,0,0,1.578Z" transform="translate(-311.952 -52.109)" fill="#0d585f"/>
      <path id="Trazado_128786" data-name="Trazado 128786" d="M323.012,414a2.762,2.762,0,1,0,2.762,2.762A2.762,2.762,0,0,0,323.012,414Zm0,3.946a1.184,1.184,0,1,1,1.184-1.184A1.184,1.184,0,0,1,323.012,417.946Z" transform="translate(-239.265 -329.152)" fill="#0d585f"/>
      <path id="Trazado_128787" data-name="Trazado 128787" d="M45.06,239.229l2.415,1.846a.789.789,0,0,0,.958-1.254l-.562-.43H53.43a.789.789,0,1,0,0-1.578H47.871l.562-.429a.789.789,0,1,0-.958-1.254l-2.415,1.846a.789.789,0,0,0,0,1.254Z" transform="translate(0 -174.536)" fill="#0d585f"/>
      <path id="Trazado_128788" data-name="Trazado 128788" d="M62.732,158.352a.789.789,0,0,0,.781.685.8.8,0,0,0,.105-.007.789.789,0,0,0,.678-.887l-.094-.7,3.931,3.931a.789.789,0,0,0,1.116-1.116l-3.931-3.931.7.094a.79.79,0,0,0,.209-1.565l-3.012-.4a.789.789,0,0,0-.887.887Z" transform="translate(-15.261 -103.735)" fill="#0d585f"/>
      <path id="Trazado_128789" data-name="Trazado 128789" d="M69.251,303.353a.789.789,0,0,0-1.116,0L64.2,307.285l.094-.7a.789.789,0,0,0-1.564-.209l-.4,3.012a.789.789,0,0,0,.782.894.8.8,0,0,0,.105-.007l3.012-.4a.79.79,0,0,0-.209-1.565l-.7.094,3.931-3.931A.789.789,0,0,0,69.251,303.353Z" transform="translate(-15.262 -232.858)" fill="#0d585f"/>
    </g>
  </g>
</svg>
