<svg xmlns="http://www.w3.org/2000/svg" width="81" height="81" viewBox="0 0 81 81">
  <g id="Grupo_55840" data-name="Grupo 55840" transform="translate(-897 -1031)">
    <g id="Grupo_55643" data-name="Grupo 55643" transform="translate(688 28)">
      <circle id="Elipse_4085" data-name="Elipse 4085" cx="40.5" cy="40.5" r="40.5" transform="translate(209 1003)" fill="rgba(125,110,178,0.6)"/>
    </g>
    <g id="browser" transform="translate(909.13 1042.998)">
      <g id="Grupo_55773" data-name="Grupo 55773">
        <g id="Grupo_55772" data-name="Grupo 55772">
          <path id="Trazado_128790" data-name="Trazado 128790" d="M156.123,27.189a6.12,6.12,0,0,1,2.2,3.682l-3.224-1.29-.682,1.707,4.938,1.976,4.938-1.975-.682-1.707L160.2,30.947A7.992,7.992,0,0,0,152.275,24H152v1.839h.275A6.172,6.172,0,0,1,156.123,27.189Z" transform="translate(-134.531 -21.242)" fill="#fff"/>
          <path id="Trazado_128791" data-name="Trazado 128791" d="M245.2,397.46a6.12,6.12,0,0,1-2.2-3.682l3.224,1.29.682-1.707-4.938-1.976-4.938,1.975.682,1.707,3.412-1.364a7.993,7.993,0,0,0,7.924,6.947h.275V398.81h-.275A6.172,6.172,0,0,1,245.2,397.46Z" transform="translate(-209.791 -346.404)" fill="#fff"/>
          <path id="Trazado_128792" data-name="Trazado 128792" d="M48.729,40.454a8.2,8.2,0,0,0-3.678.873V25l1.9,4.761,1.707-.682L47.3,25.668a7.992,7.992,0,0,0,6.947-7.924v-.275H52.406v.275a6.148,6.148,0,0,1-5.033,6.05l1.29-3.224-1.707-.682-1.905,4.76V15.676a7.983,7.983,0,1,0-.1-.046H12.049a9.262,9.262,0,1,0-.1.046V32l-1.9-4.761-1.707.682,1.364,3.412A7.992,7.992,0,0,0,2.758,39.26v.275H4.6V39.26A6.148,6.148,0,0,1,9.63,33.21L8.34,36.434l1.707.682,1.905-4.76v8.971a7.983,7.983,0,1,0,.1.046H44.955a8.261,8.261,0,1,0,3.773-.919Zm-37.7-26.373a6.355,6.355,0,0,1-5.516,0V12.872a2.758,2.758,0,0,1,5.516,0Zm-4.6-7.645A1.839,1.839,0,1,1,8.275,8.275,1.841,1.841,0,0,1,6.436,6.436Zm4.6,48.1a6.355,6.355,0,0,1-5.516,0V53.326a2.758,2.758,0,0,1,5.516,0Zm-4.6-7.645a1.839,1.839,0,1,1,1.839,1.839A1.841,1.841,0,0,1,6.436,46.89Zm8.275,1.839a6.413,6.413,0,0,1-1.848,4.505,4.594,4.594,0,0,0-2.019-3.719,3.678,3.678,0,1,0-5.138,0,4.6,4.6,0,0,0-2.019,3.719,6.433,6.433,0,1,1,11.024-4.505ZM10.844,9.061a3.678,3.678,0,1,0-5.138,0A4.6,4.6,0,0,0,3.687,12.78a6.436,6.436,0,1,1,9.176,0A4.594,4.594,0,0,0,10.844,9.061ZM43.212,39.535H13.791V24.824H43.212Zm0-16.549H13.791V17.469H43.212Zm8.275-8.9a6.355,6.355,0,0,1-5.516,0V12.872a2.758,2.758,0,0,1,5.516,0Zm-4.6-7.645a1.839,1.839,0,1,1,1.839,1.839A1.841,1.841,0,0,1,46.89,6.436ZM44.141,12.78a6.436,6.436,0,1,1,9.176,0A4.594,4.594,0,0,0,51.3,9.061a3.678,3.678,0,1,0-5.138,0A4.591,4.591,0,0,0,44.141,12.78Zm7.346,41.755a6.355,6.355,0,0,1-5.516,0V53.326a2.758,2.758,0,0,1,5.516,0Zm-4.6-7.645a1.839,1.839,0,1,1,1.839,1.839A1.841,1.841,0,0,1,46.89,46.89Zm6.427,6.344A4.594,4.594,0,0,0,51.3,49.515a3.678,3.678,0,1,0-5.138,0,4.591,4.591,0,0,0-2.019,3.719,6.436,6.436,0,1,1,9.176,0Z" fill="#fff"/>
          <rect id="Rectángulo_30750" data-name="Rectángulo 30750" width="2.135" height="1.602" transform="translate(15.506 19.243)" fill="#fff"/>
          <rect id="Rectángulo_30751" data-name="Rectángulo 30751" width="1.602" height="1.602" transform="translate(19.243 19.243)" fill="#fff"/>
          <rect id="Rectángulo_30752" data-name="Rectángulo 30752" width="1.602" height="1.602" transform="translate(22.98 19.243)" fill="#fff"/>
        </g>
      </g>
    </g>
  </g>
</svg>
