<svg xmlns="http://www.w3.org/2000/svg" width="81" height="81" viewBox="0 0 81 81">
  <g id="Grupo_55839" data-name="Grupo 55839" transform="translate(-1034 -1031)">
    <circle id="Elipse_4087" data-name="Elipse 4087" cx="40.5" cy="40.5" r="40.5" transform="translate(1034 1031)" fill="#aee6e6"/>
    <g id="social-media" transform="translate(1028.404 1029.096)">
      <g id="Grupo_55775" data-name="Grupo 55775" transform="translate(31.443 8.904)">
        <g id="Grupo_55774" data-name="Grupo 55774" transform="translate(0 0)">
          <rect id="Rect치ngulo_30753" data-name="Rect치ngulo 30753" width="24.842" height="2.76" fill="#0d585f"/>
        </g>
      </g>
      <g id="Grupo_55777" data-name="Grupo 55777" transform="translate(23.596 9.915)">
        <g id="Grupo_55776" data-name="Grupo 55776">
          <path id="Trazado_128793" data-name="Trazado 128793" d="M148.2,172.575a4.243,4.243,0,0,0-4.238-4.238h-2.422V134.118h-2.422v34.219h-3.027a4.232,4.232,0,0,0-2.957,7.265,4.188,4.188,0,0,0-.637,5.247,4.235,4.235,0,0,0-2.461,3.834,4.189,4.189,0,0,0,.425,1.816h-9.507a10.893,10.893,0,0,0-4.685-8.949,7.278,7.278,0,0,0,4.685-6.792,1.211,1.211,0,0,0-1.211-1.211h-9.687v-33.2h-2.422v33.2A3.637,3.637,0,0,0,104,173.181v26.64h2.422v-26.64a1.212,1.212,0,0,1,1.211-1.211h10.744a4.851,4.851,0,0,1-4.69,3.633h-3.633a1.211,1.211,0,1,0,0,2.422,8.486,8.486,0,0,1,8.476,8.476v1.211a1.211,1.211,0,0,0,1.211,1.211h7.085a4.189,4.189,0,0,0-.425,1.816,4.243,4.243,0,0,0,4.238,4.238v4.844h2.422v-4.844h5.449a4.243,4.243,0,0,0,4.238-4.238,4.187,4.187,0,0,0-.435-1.834,4.206,4.206,0,0,0,3.423-6.441,4.217,4.217,0,0,0,1.18-6.861A4.221,4.221,0,0,0,148.2,172.575Zm-9.687,19.98H130.64a1.816,1.816,0,1,1,0-3.633h7.871a1.816,1.816,0,1,1,0,3.633Zm3.633-6.054h-7.871a1.816,1.816,0,1,1,0-3.633h7.871a1.816,1.816,0,1,1,0,3.633Zm1.816-6.054h-7.871a1.816,1.816,0,0,1,0-3.633h7.871a1.816,1.816,0,0,1,0,3.633Zm0-6.054h-7.871a1.816,1.816,0,1,1,0-3.633h7.871a1.816,1.816,0,1,1,0,3.633Z" transform="translate(-104 -134.118)" fill="#0d585f"/>
        </g>
      </g>
      <g id="Grupo_55781" data-name="Grupo 55781" transform="translate(40.548 21.127)">
        <g id="Grupo_55780" data-name="Grupo 55780">
          <path id="Trazado_128795" data-name="Trazado 128795" d="M223.265,122.422V120h-3.633a1.211,1.211,0,0,0-1.211,1.211v3.633H216v2.422h2.422v4.844h2.422v-4.844h2.422v-2.422h-2.422v-2.422Z" transform="translate(-216 -120)" fill="#0d585f"/>
        </g>
      </g>
      <g id="Grupo_55783" data-name="Grupo 55783" transform="translate(33.283 16.284)">
        <g id="Grupo_55782" data-name="Grupo 55782">
          <path id="Trazado_128796" data-name="Trazado 128796" d="M186.163,88H171.633A3.637,3.637,0,0,0,168,91.633v14.531a3.637,3.637,0,0,0,3.633,3.633h14.531a3.637,3.637,0,0,0,3.633-3.633V91.633A3.637,3.637,0,0,0,186.163,88Zm1.211,18.163a1.212,1.212,0,0,1-1.211,1.211H171.633a1.212,1.212,0,0,1-1.211-1.211V91.633a1.212,1.212,0,0,1,1.211-1.211h14.531a1.212,1.212,0,0,1,1.211,1.211Z" transform="translate(-168 -88)" fill="#0d585f"/>
        </g>
      </g>
      <g id="Grupo_55789" data-name="Grupo 55789" transform="translate(43.036 53.068)">
        <g id="Grupo_55788" data-name="Grupo 55788" transform="translate(0 0)">
          <rect id="Rect치ngulo_30754" data-name="Rect치ngulo 30754" width="2.208" height="1.656" transform="translate(0)" fill="#0d585f"/>
        </g>
      </g>
    </g>
  </g>
</svg>
