<svg xmlns="http://www.w3.org/2000/svg" width="81" height="81" viewBox="0 0 81 81">
  <g id="Grupo_55838" data-name="Grupo 55838" transform="translate(-1171 -1031)">
    <g id="Grupo_55642" data-name="Grupo 55642" transform="translate(962 28)">
      <circle id="Elipse_4085" data-name="Elipse 4085" cx="40.5" cy="40.5" r="40.5" transform="translate(209 1003)" fill="rgba(125,110,178,0.6)"/>
    </g>
    <g id="stories" transform="translate(1095.5 1038)">
      <path id="Trazado_128801" data-name="Trazado 128801" d="M130.516,61.972a.986.986,0,0,0,0-1.972h-5.03a.986.986,0,1,0,0,1.972Z" transform="translate(-26.056 -52.112)" fill="#fff"/>
      <path id="Trazado_128802" data-name="Trazado 128802" d="M192.755,60.986a.986.986,0,0,0,.986.986H199.1a.986.986,0,1,0,0-1.972h-5.357A.986.986,0,0,0,192.755,60.986Z" transform="translate(-85.337 -52.112)" fill="#fff"/>
      <path id="Trazado_128803" data-name="Trazado 128803" d="M263.5,60.986a.986.986,0,0,0,.986.986h5.368a.986.986,0,1,0,0-1.972h-5.368A.986.986,0,0,0,263.5,60.986Z" transform="translate(-146.781 -52.112)" fill="#fff"/>
      <path id="Trazado_128804" data-name="Trazado 128804" d="M340.334,60h-5.018a.986.986,0,1,0,0,1.972h5.018a.986.986,0,1,0,0-1.972Z" transform="translate(-208.299 -52.112)" fill="#fff"/>
      <path id="Trazado_128805" data-name="Trazado 128805" d="M135.98,41.707a.986.986,0,0,0-.986.986V61.4a3.949,3.949,0,0,1-3.944,3.944H100.416A3.949,3.949,0,0,1,96.472,61.4V5.916a3.949,3.949,0,0,1,3.944-3.944h20.265a.986.986,0,1,0,0-1.972H100.416A5.923,5.923,0,0,0,94.5,5.916V61.4a5.923,5.923,0,0,0,5.916,5.916H131.05a5.923,5.923,0,0,0,5.916-5.916V42.693A.986.986,0,0,0,135.98,41.707Z" transform="translate(0)" fill="#fff"/>
      <path id="Trazado_128806" data-name="Trazado 128806" d="M327.873,0H322.1a.986.986,0,1,0,0,1.972h5.769a3.949,3.949,0,0,1,3.944,3.944V38.085a.986.986,0,0,0,1.972,0V5.916A5.923,5.923,0,0,0,327.873,0Z" transform="translate(-196.823)" fill="#fff"/>
      <path id="Trazado_128807" data-name="Trazado 128807" d="M219.06,31.972a.986.986,0,1,0,0-1.972h-6.574a.986.986,0,0,0,0,1.972Z" transform="translate(-101.618 -26.056)" fill="#fff"/>
      <path id="Trazado_128808" data-name="Trazado 128808" d="M128,93.5a3.5,3.5,0,1,0-3.5-3.5A3.5,3.5,0,0,0,128,93.5Zm0-5.03A1.529,1.529,0,1,1,126.472,90,1.53,1.53,0,0,1,128,88.472Z" transform="translate(-26.056 -75.128)" fill="#fff"/>
      <path id="Trazado_128809" data-name="Trazado 128809" d="M193.741,107.6H199.1a.986.986,0,1,0,0-1.972h-5.357a.986.986,0,0,0,0,1.972Z" transform="translate(-85.337 -91.74)" fill="#fff"/>
      <path id="Trazado_128810" data-name="Trazado 128810" d="M266.237,107.6a.986.986,0,1,0,0-1.972h-1.751a.986.986,0,1,0,0,1.972Z" transform="translate(-146.781 -91.74)" fill="#fff"/>
      <path id="Trazado_128811" data-name="Trazado 128811" d="M146.171,427.916h-9.034a.986.986,0,0,0,0,1.972h9.034a3.944,3.944,0,0,0,0-7.888H128.444a3.944,3.944,0,0,0,0,7.888h4.1a.986.986,0,1,0,0-1.972h-4.1a1.972,1.972,0,0,1,0-3.944h17.727a1.972,1.972,0,0,1,0,3.944Z" transform="translate(-26.056 -366.518)" fill="#fff"/>
      <path id="Trazado_128812" data-name="Trazado 128812" d="M340.422,423.192a1.63,1.63,0,0,0-1.619-.3L335.1,424.2a1.648,1.648,0,0,0-.523,2.805l2.986,2.555a1.632,1.632,0,0,0,1.065.4,1.664,1.664,0,0,0,.555-.1,1.63,1.63,0,0,0,1.071-1.252l.72-3.863h0A1.631,1.631,0,0,0,340.422,423.192Zm-2.007,4.5-2.131-1.824,2.645-.934Z" transform="translate(-208.009 -367.208)" fill="#fff"/>
      <path id="Trazado_128813" data-name="Trazado 128813" d="M175.1,149.508a8.486,8.486,0,0,0-8.621-.469,12.547,12.547,0,0,0-1.724,1.067.986.986,0,1,0,1.173,1.585,10.584,10.584,0,0,1,1.453-.9,6.508,6.508,0,0,1,6.833.5,1.122,1.122,0,0,0,.847.214c3.119-.481,4.7-.258,6.061.854,5.091,4.174,1.977,15.109,1.032,18.015-.95-.356-2.524-.931-4.1-1.485a9.751,9.751,0,0,0,.976-1.4,14.559,14.559,0,0,0,1.6-6.418.986.986,0,0,0-.67-.953,10.629,10.629,0,0,1-4.007-5.336,1.248,1.248,0,0,0-2.258-.254,11.426,11.426,0,0,1-8.36,5.547.986.986,0,0,0-.869,1,14.674,14.674,0,0,0,1.708,6.7,6.721,6.721,0,0,0,.849,1.188c-1.553.628-2.776,1.111-3.541,1.411-.924-2.667-3.1-10.249-.242-15.586a.986.986,0,1,0-1.738-.932c-3.37,6.287-.67,14.988.238,17.505a1.639,1.639,0,0,0,2.143.973c.8-.314,2.391-.939,4.5-1.793l-.189,1.665a.251.251,0,0,1-.172.212l-4.4,1.416a4.683,4.683,0,0,0-3.187,3.665l-.342,1.965a.986.986,0,0,0,.8,1.141,1.036,1.036,0,0,0,1.141-.8l.342-1.965a2.716,2.716,0,0,1,1.849-2.126l1.977-.637V177.6l-1.108,1.428a.986.986,0,0,0,.175,1.383,1.034,1.034,0,0,0,1.383-.175l.892-1.15,4.64,1.485a.986.986,0,0,0,.6,0l4.64-1.485.892,1.15a1,1,0,0,0,1.383.175.986.986,0,0,0,.175-1.383l-1.108-1.428v-2.526l1.977.637a2.716,2.716,0,0,1,1.848,2.126l.342,1.965a1.053,1.053,0,0,0,1.141.8.986.986,0,0,0,.8-1.141l-.342-1.965a4.682,4.682,0,0,0-3.187-3.665l-4.4-1.416a.249.249,0,0,1-.172-.2l-.168-1.74c1.986.69,4.148,1.481,5.152,1.862a1.643,1.643,0,0,0,2.14-1.012c1.192-3.533,4.606-15.452-1.543-20.493C180.356,149.181,178.082,149.079,175.1,149.508Zm-.49,7.2a12.629,12.629,0,0,0,4.032,4.889,12.435,12.435,0,0,1-1.343,4.954c-.707,1.51-3.583,3.652-4.8,3.565a8.138,8.138,0,0,1-4.59-3.293,12.414,12.414,0,0,1-1.42-4.93A13.239,13.239,0,0,0,174.615,156.711Zm2.195,17.733v2.779L172.5,178.6l-4.311-1.379v-2.779l.447-.144a2.221,2.221,0,0,0,1.528-1.874l.117-1.027a5.77,5.77,0,0,0,2.214.692h.018a5.171,5.171,0,0,0,2.233-.6l.09.931a2.224,2.224,0,0,0,1.529,1.882Z" transform="translate(-56.775 -128.603)" fill="#fff"/>
      <ellipse id="Elipse_4225" data-name="Elipse 4225" cx="0.5" cy="1" rx="0.5" ry="1" transform="translate(120.5 3.899)" fill="#fff"/>
    </g>
  </g>
</svg>
