<svg xmlns="http://www.w3.org/2000/svg" width="81" height="81" viewBox="0 0 81 81">
  <g id="Grupo_55847" data-name="Grupo 55847" transform="translate(-471.75 -903)">
    <g id="Grupo_55846" data-name="Grupo 55846">
      <circle id="Elipse_4123" data-name="Elipse 4123" cx="40.5" cy="40.5" r="40.5" transform="translate(471.75 903)" fill="#aee6e6"/>
      <g id="metrics_1_" data-name="metrics (1)" transform="translate(484.048 916.714)">
        <path id="Trazado_128814" data-name="Trazado 128814" d="M8.37,297.266h-5.8A2.578,2.578,0,0,0,0,299.841v15.052a2.578,2.578,0,0,0,2.575,2.575h5.8a2.578,2.578,0,0,0,2.575-2.575V299.841A2.578,2.578,0,0,0,8.37,297.266Zm.9,17.628a.9.9,0,0,1-.9.895h-5.8a.9.9,0,0,1-.895-.895V299.841a.9.9,0,0,1,.895-.9h5.8a.9.9,0,0,1,.9.9Zm0,0" transform="translate(0 -263.968)" fill="#0d585f"/>
        <path id="Trazado_128815" data-name="Trazado 128815" d="M146.467,191.945h-5.8a2.578,2.578,0,0,0-2.575,2.575V199.3a.84.84,0,1,0,1.68,0V194.52a.9.9,0,0,1,.895-.895h5.8a.9.9,0,0,1,.895.895v26.85a.9.9,0,0,1-.895.895h-5.8a.9.9,0,0,1-.895-.895V202.657a.84.84,0,1,0-1.68,0V221.37a2.578,2.578,0,0,0,2.575,2.575h5.8a2.578,2.578,0,0,0,2.575-2.575v-26.85a2.578,2.578,0,0,0-2.575-2.575Zm0,0" transform="translate(-122.628 -170.445)" fill="#0d585f"/>
        <path id="Trazado_128816" data-name="Trazado 128816" d="M284.561,255.141h-5.8a2.578,2.578,0,0,0-2.575,2.575v19.771a2.578,2.578,0,0,0,2.575,2.575h5.8a2.578,2.578,0,0,0,2.575-2.575V257.716A2.578,2.578,0,0,0,284.561,255.141Zm.9,22.346a.9.9,0,0,1-.9.895h-5.8a.9.9,0,0,1-.895-.895V257.716a.9.9,0,0,1,.895-.895h5.8a.9.9,0,0,1,.9.895Zm0,0" transform="translate(-245.254 -226.562)" fill="#0d585f"/>
        <path id="Trazado_128817" data-name="Trazado 128817" d="M422.656,139.285h-5.8a2.578,2.578,0,0,0-2.576,2.575v24.006a.84.84,0,1,0,1.68,0V141.86a.9.9,0,0,1,.9-.895h5.8a.9.9,0,0,1,.895.895v32.749a.9.9,0,0,1-.895.895h-5.8a.9.9,0,0,1-.9-.895v-5.383a.84.84,0,1,0-1.68,0v5.383a2.578,2.578,0,0,0,2.576,2.575h5.8a2.578,2.578,0,0,0,2.575-2.575V141.86A2.578,2.578,0,0,0,422.656,139.285Zm0,0" transform="translate(-367.879 -123.683)" fill="#0d585f"/>
        <path id="Trazado_128818" data-name="Trazado 128818" d="M7.36,17.7a5.245,5.245,0,1,0,5.19,4.559l8.254-6.3a5.221,5.221,0,0,0,5.062-.567l7.221,3.3A5.234,5.234,0,1,0,43.45,17.3l8.516-7.145a5.235,5.235,0,1,0-3.435-4.916,5.266,5.266,0,0,0,.082.916L40.1,13.3a5.222,5.222,0,0,0-4.836.656l-7.221-3.3a5.234,5.234,0,1,0-10.4,1.161L9.385,18.1A5.206,5.206,0,0,0,7.36,17.7ZM53.766,1.68a3.555,3.555,0,0,1,0,7.109,3.6,3.6,0,0,1-3.555-3.555A3.558,3.558,0,0,1,53.766,1.68ZM49.223,7.832c.014.025.029.048.044.072a5.264,5.264,0,0,0,1.151,1.352l-7.577,6.356c-.014-.025-.244-.389-.356-.54a5.281,5.281,0,0,0-.839-.885ZM34.743,18.159a3.554,3.554,0,0,1,7.108.053,3.554,3.554,0,1,1-7.109,0c0-.018,0-.035,0-.053Zm-7.6-4.069a5.277,5.277,0,0,0,.755-1.658L34,15.223a5.277,5.277,0,0,0-.712,1.466q-.034.111-.063.223l-6.1-2.792.021-.031ZM22.829,7.578a3.558,3.558,0,0,1,3.554,3.554,3.555,3.555,0,1,1-7.109,0A3.558,3.558,0,0,1,22.829,7.578Zm-4.66,5.939.032.058A5.266,5.266,0,0,0,19.3,15l-7.278,5.551a5.317,5.317,0,0,0-1.128-1.478ZM9.478,20.107a3.524,3.524,0,1,1-2.118-.731,3.5,3.5,0,0,1,2.118.731Zm0,0" transform="translate(-1.887)" fill="#0d585f"/>
      </g>
    </g>
  </g>
</svg>
