<svg xmlns="http://www.w3.org/2000/svg" width="81" height="81" viewBox="0 0 81 81">
  <g id="Grupo_55874" data-name="Grupo 55874" transform="translate(-662.75 -903)">
    <g id="Grupo_55659" data-name="Grupo 55659" transform="translate(453.75 -100)">
      <circle id="Elipse_4085" data-name="Elipse 4085" cx="40.5" cy="40.5" r="40.5" transform="translate(209 1003)" fill="rgba(125,110,178,0.6)"/>
    </g>
    <g id="metrics_2_" data-name="metrics (2)" transform="translate(650 913.428)">
      <g id="Grupo_55849" data-name="Grupo 55849" transform="translate(27)">
        <g id="Grupo_55848" data-name="Grupo 55848">
          <path id="Trazado_128819" data-name="Trazado 128819" d="M70.189,0H30.464A3.468,3.468,0,0,0,27,3.464v52.2a3.468,3.468,0,0,0,3.464,3.464h26.1a1.155,1.155,0,1,0,0-2.31h-26.1a1.156,1.156,0,0,1-1.155-1.155V3.464A1.156,1.156,0,0,1,30.464,2.31H70.189a1.156,1.156,0,0,1,1.155,1.155V26.5a1.155,1.155,0,1,0,2.31,0V3.464A3.468,3.468,0,0,0,70.189,0Z" transform="translate(-27 0)" fill="#fff"/>
        </g>
      </g>
      <g id="Grupo_55851" data-name="Grupo 55851" transform="translate(71.344 29.332)">
        <g id="Grupo_55850" data-name="Grupo 55850">
          <path id="Trazado_128820" data-name="Trazado 128820" d="M412.971,254.338a1.154,1.154,0,1,0,.338.816A1.162,1.162,0,0,0,412.971,254.338Z" transform="translate(-411 -254)" fill="#fff"/>
        </g>
      </g>
      <g id="Grupo_55853" data-name="Grupo 55853" transform="translate(33.005 6.236)">
        <g id="Grupo_55852" data-name="Grupo 55852">
          <path id="Trazado_128821" data-name="Trazado 128821" d="M80.971,54.338a1.154,1.154,0,1,0,.338.816A1.163,1.163,0,0,0,80.971,54.338Z" transform="translate(-79 -54)" fill="#fff"/>
        </g>
      </g>
      <g id="Grupo_55855" data-name="Grupo 55855" transform="translate(33.005 6.31)">
        <g id="Grupo_55854" data-name="Grupo 55854">
          <path id="Trazado_128822" data-name="Trazado 128822" d="M112.489,61.962a1.155,1.155,0,0,0-1.155,1.155V76.743h-4.157V62.821l6.2-6.2a1.155,1.155,0,1,0-1.633-1.633L99.56,67.171l-7.053-7.053a1.155,1.155,0,0,0-1.633,0L81.31,69.683v-9.3a1.155,1.155,0,1,0-2.31,0V77.9a1.155,1.155,0,0,0,1.155,1.155h32.334a1.155,1.155,0,0,0,1.155-1.155V63.117A1.155,1.155,0,0,0,112.489,61.962ZM85.467,76.743H81.31V72.949l4.157-4.157Zm6.467,0H87.776V66.482l3.914-3.914.243.243Zm6.467,0H94.243V65.121L98.4,69.278Zm6.467,0H100.71V69.288l4.157-4.157Z" transform="translate(-79 -54.646)" fill="#fff"/>
        </g>
      </g>
      <g id="Grupo_55857" data-name="Grupo 55857" transform="translate(33.005 33.951)">
        <g id="Grupo_55856" data-name="Grupo 55856">
          <path id="Trazado_128823" data-name="Trazado 128823" d="M90.663,294H80.155a1.155,1.155,0,0,0,0,2.31H90.663a1.155,1.155,0,1,0,0-2.31Z" transform="translate(-79 -294)" fill="#fff"/>
        </g>
      </g>
      <g id="Grupo_55859" data-name="Grupo 55859" transform="translate(33.005 39.494)">
        <g id="Grupo_55858" data-name="Grupo 55858">
          <path id="Trazado_128824" data-name="Trazado 128824" d="M90.663,342H80.155a1.155,1.155,0,0,0,0,2.31H90.663a1.155,1.155,0,1,0,0-2.31Z" transform="translate(-79 -342)" fill="#fff"/>
        </g>
      </g>
      <g id="Grupo_55861" data-name="Grupo 55861" transform="translate(33.005 45.037)">
        <g id="Grupo_55860" data-name="Grupo 55860">
          <path id="Trazado_128825" data-name="Trazado 128825" d="M90.663,390H80.155a1.155,1.155,0,0,0,0,2.31H90.663a1.155,1.155,0,0,0,0-2.31Z" transform="translate(-79 -390)" fill="#fff"/>
        </g>
      </g>
      <g id="Grupo_55863" data-name="Grupo 55863" transform="translate(33.005 50.58)">
        <g id="Grupo_55862" data-name="Grupo 55862">
          <path id="Trazado_128826" data-name="Trazado 128826" d="M90.663,438H80.155a1.155,1.155,0,0,0,0,2.31H90.663a1.155,1.155,0,1,0,0-2.31Z" transform="translate(-79 -438)" fill="#fff"/>
        </g>
      </g>
      <g id="Grupo_55865" data-name="Grupo 55865" transform="translate(54.564 33.8)">
        <g id="Grupo_55864" data-name="Grupo 55864">
          <path id="Trazado_128827" data-name="Trazado 128827" d="M278.778,293.538a12.185,12.185,0,0,0-7.8,2.811l-.018-.018v-2.482a1.155,1.155,0,1,0-2.31,0v.173l-.989-.989a1.155,1.155,0,0,0-1.633,1.633l.989.989h-.173a1.155,1.155,0,0,0,0,2.31h2.482l.018.018a12.236,12.236,0,1,0,9.43-4.444Zm0,22.172a9.923,9.923,0,0,1-7.786-16.085l1.646,1.646a7.632,7.632,0,1,0,1.633-1.633l-1.646-1.646a9.928,9.928,0,1,1,6.153,17.718Zm0-6.467a3.464,3.464,0,1,0-1.493-6.59l-1.355-1.355a5.319,5.319,0,1,1-1.633,1.633l1.355,1.355a3.463,3.463,0,0,0,3.126,4.957Zm.071-4.616a1.154,1.154,0,1,1-1.222,1.222c.024,0,.047,0,.071,0a1.153,1.153,0,0,0,1.151-1.226Z" transform="translate(-265.694 -292.694)" fill="#fff"/>
        </g>
      </g>
    </g>
  </g>
</svg>
