<svg xmlns="http://www.w3.org/2000/svg" width="81" height="81" viewBox="0 0 81 81">
  <g id="Grupo_55866" data-name="Grupo 55866" transform="translate(-855.25 -903)">
    <circle id="Elipse_4120" data-name="Elipse 4120" cx="40.5" cy="40.5" r="40.5" transform="translate(855.25 903)" fill="#aee6e6"/>
    <g id="metrics_4_" data-name="metrics (4)" transform="translate(866 916.428)">
      <path id="Trazado_128828" data-name="Trazado 128828" d="M249.137,345.866a.933.933,0,0,1-.01-1.866h.01a.933.933,0,1,1,0,1.866Zm0,0" transform="translate(-219.246 -303.872)" fill="#0d585f"/>
      <path id="Trazado_128829" data-name="Trazado 128829" d="M59.123,329.866H1.308a.933.933,0,1,1,0-1.866H59.123a.933.933,0,1,1,0,1.866Zm0,0" transform="translate(-0.331 -289.739)" fill="#0d585f"/>
      <path id="Trazado_128830" data-name="Trazado 128830" d="M56.926,43.861H2.8a2.8,2.8,0,0,1-2.8-2.8V2.8A2.8,2.8,0,0,1,2.8,0H56.926a2.8,2.8,0,0,1,2.8,2.8V41.061A2.8,2.8,0,0,1,56.926,43.861ZM2.8,1.866a.934.934,0,0,0-.933.933V41.061a.934.934,0,0,0,.933.933H56.926a.934.934,0,0,0,.933-.933V2.8a.934.934,0,0,0-.933-.933Zm0,0" fill="#0d585f"/>
      <path id="Trazado_128831" data-name="Trazado 128831" d="M176.933,369.328a.947.947,0,0,1-.227-.028.934.934,0,0,1-.679-1.131l1.866-7.466a.933.933,0,0,1,1.811.452l-1.866,7.466A.934.934,0,0,1,176.933,369.328Zm0,0" transform="translate(-155.468 -318.001)" fill="#0d585f"/>
      <path id="Trazado_128832" data-name="Trazado 128832" d="M306.794,369.327a.934.934,0,0,1-.9-.707l-1.866-7.466a.933.933,0,1,1,1.811-.452l1.866,7.466a.932.932,0,0,1-.679,1.131A.949.949,0,0,1,306.794,369.327Zm0,0" transform="translate(-268.534 -318.001)" fill="#0d585f"/>
      <path id="Trazado_128833" data-name="Trazado 128833" d="M144.933,427.733A.932.932,0,0,1,144,426.8a2.8,2.8,0,0,1,2.8-2.8.933.933,0,1,1,0,1.866.934.934,0,0,0-.933.933A.932.932,0,0,1,144.933,427.733Zm0,0" transform="translate(-127.202 -374.54)" fill="#0d585f"/>
      <path id="Trazado_128834" data-name="Trazado 128834" d="M338.8,427.733a.932.932,0,0,1-.933-.933.934.934,0,0,0-.933-.933.933.933,0,0,1,0-1.866,2.8,2.8,0,0,1,2.8,2.8A.932.932,0,0,1,338.8,427.733Zm0,0" transform="translate(-296.805 -374.54)" fill="#0d585f"/>
      <path id="Trazado_128835" data-name="Trazado 128835" d="M181.464,425.866H160.933a.933.933,0,1,1,0-1.866h20.531a.933.933,0,1,1,0,1.866Zm0,0" transform="translate(-141.336 -374.54)" fill="#0d585f"/>
      <path id="Trazado_128836" data-name="Trazado 128836" d="M144.933,442.8a.932.932,0,0,1-.933-.933v-.933a.933.933,0,1,1,1.866,0v.933A.932.932,0,0,1,144.933,442.8Zm0,0" transform="translate(-127.202 -388.674)" fill="#0d585f"/>
      <path id="Trazado_128837" data-name="Trazado 128837" d="M169.2,449.866H144.933a.933.933,0,1,1,0-1.866H169.2a.933.933,0,1,1,0,1.866Zm0,0" transform="translate(-127.202 -395.74)" fill="#0d585f"/>
      <path id="Trazado_128838" data-name="Trazado 128838" d="M352.933,442.8a.932.932,0,0,1-.933-.933v-.933a.933.933,0,1,1,1.866,0v.933A.932.932,0,0,1,352.933,442.8Zm0,0" transform="translate(-310.939 -388.674)" fill="#0d585f"/>
      <path id="Trazado_128839" data-name="Trazado 128839" d="M299.613,217.866H280.949a.933.933,0,0,1,0-1.866h18.664a.933.933,0,0,1,0,1.866Zm0,0" transform="translate(-247.352 -190.803)" fill="#0d585f"/>
      <path id="Trazado_128840" data-name="Trazado 128840" d="M280.949,76.531a.933.933,0,0,1-.933-.933V56.933a.933.933,0,1,1,1.866,0V75.6A.933.933,0,0,1,280.949,76.531Zm0,0" transform="translate(-247.352 -49.468)" fill="#0d585f"/>
      <path id="Trazado_128841" data-name="Trazado 128841" d="M312.917,168.4a.933.933,0,0,1-.933-.933v-6.532a.933.933,0,1,1,1.866,0v6.532A.933.933,0,0,1,312.917,168.4Zm0,0" transform="translate(-275.591 -141.336)" fill="#0d585f"/>
      <path id="Trazado_128842" data-name="Trazado 128842" d="M344.949,126a.933.933,0,0,1-.933-.933V112.933a.933.933,0,1,1,1.866,0v12.132A.933.933,0,0,1,344.949,126Zm0,0" transform="translate(-303.886 -98.935)" fill="#0d585f"/>
      <path id="Trazado_128843" data-name="Trazado 128843" d="M408.917,147.2a.933.933,0,0,1-.933-.933v-9.332a.933.933,0,1,1,1.866,0v9.332A.933.933,0,0,1,408.917,147.2Zm0,0" transform="translate(-360.392 -120.135)" fill="#0d585f"/>
      <path id="Trazado_128844" data-name="Trazado 128844" d="M376.917,182.532a.933.933,0,0,1-.933-.933v-4.666a.933.933,0,1,1,1.866,0V181.6A.933.933,0,0,1,376.917,182.532Zm0,0" transform="translate(-332.125 -155.469)" fill="#0d585f"/>
      <path id="Trazado_128845" data-name="Trazado 128845" d="M66.249,76.531A10.265,10.265,0,1,1,76.515,66.265,10.277,10.277,0,0,1,66.249,76.531Zm0-18.664a8.4,8.4,0,1,0,8.4,8.4A8.409,8.409,0,0,0,66.249,57.866Zm0,0" transform="translate(-49.453 -49.468)" fill="#0d585f"/>
      <path id="Trazado_128846" data-name="Trazado 128846" d="M122.784,125.6a2.8,2.8,0,1,1,2.8-2.8A2.8,2.8,0,0,1,122.784,125.6Zm0-3.733a.933.933,0,1,0,.933.933A.934.934,0,0,0,122.784,121.866Zm0,0" transform="translate(-105.988 -106.002)" fill="#0d585f"/>
      <path id="Trazado_128847" data-name="Trazado 128847" d="M136.917,65.332a.933.933,0,0,1-.933-.933V56.933a.933.933,0,1,1,1.866,0V64.4A.933.933,0,0,1,136.917,65.332Zm0,0" transform="translate(-120.121 -49.468)" fill="#0d585f"/>
      <path id="Trazado_128848" data-name="Trazado 128848" d="M80.356,154.455a.933.933,0,0,1-.66-1.593l5.278-5.278a.933.933,0,1,1,1.32,1.32l-5.278,5.278A.926.926,0,0,1,80.356,154.455Zm0,0" transform="translate(-70.158 -130.126)" fill="#0d585f"/>
      <path id="Trazado_128849" data-name="Trazado 128849" d="M299.609,249.866H280.948a.933.933,0,0,1,0-1.866h18.661a.933.933,0,0,1,0,1.866Zm0,0" transform="translate(-247.351 -219.071)" fill="#0d585f"/>
      <path id="Trazado_128850" data-name="Trazado 128850" d="M336.383,273.866h-7.466a.933.933,0,0,1,0-1.866h7.466a.933.933,0,0,1,0,1.866Zm0,0" transform="translate(-289.724 -240.271)" fill="#0d585f"/>
      <path id="Trazado_128851" data-name="Trazado 128851" d="M82.661,249.866H64.933a.933.933,0,1,1,0-1.866H82.661a.933.933,0,1,1,0,1.866Zm0,0" transform="translate(-56.534 -219.071)" fill="#0d585f"/>
      <path id="Trazado_128852" data-name="Trazado 128852" d="M120.368,273.866H112.9a.933.933,0,0,1,0-1.866h7.466a.933.933,0,0,1,0,1.866Zm0,0" transform="translate(-98.908 -240.271)" fill="#0d585f"/>
    </g>
  </g>
</svg>
