<svg xmlns="http://www.w3.org/2000/svg" width="81" height="81" viewBox="0 0 81 81">
  <g id="Grupo_55867" data-name="Grupo 55867" transform="translate(-1048 -903)">
    <g id="Grupo_55661" data-name="Grupo 55661" transform="translate(839 -100)">
      <circle id="Elipse_4085" data-name="Elipse 4085" cx="40.5" cy="40.5" r="40.5" transform="translate(209 1003)" fill="rgba(125,110,178,0.6)"/>
    </g>
    <g id="rating" transform="translate(1047.344 914.817)">
      <path id="Trazado_128853" data-name="Trazado 128853" d="M377.038,128.436a1.113,1.113,0,0,0,1-.011c.9-.469,3.835-2.181,3.869-4.537a2.833,2.833,0,0,0-4.376-2.382,2.805,2.805,0,0,0-1.538-.457,2.917,2.917,0,0,0-2.842,2.809C373.1,126.3,376.115,127.98,377.038,128.436Zm-1.049-5.694H376a1.13,1.13,0,0,1,.777.312h0a1.111,1.111,0,0,0,1.516,0,1.143,1.143,0,0,1,1.928.809c-.016,1.115-1.6,2.3-2.7,2.918-1.112-.6-2.7-1.752-2.676-2.889A1.2,1.2,0,0,1,375.989,122.742Z" transform="translate(-318.997 -107.392)" fill="#fff"/>
      <path id="Trazado_128854" data-name="Trazado 128854" d="M64.9,128.436a1.113,1.113,0,0,0,1-.011c.9-.469,3.835-2.181,3.869-4.537a2.834,2.834,0,0,0-4.376-2.382,2.807,2.807,0,0,0-1.558-.457,2.875,2.875,0,0,0-2.823,2.809C60.966,126.3,63.976,127.98,64.9,128.436Zm-1.049-5.694h.008a1.129,1.129,0,0,1,.777.312h0a1.111,1.111,0,0,0,1.516,0,1.143,1.143,0,0,1,1.928.809c-.016,1.115-1.6,2.3-2.7,2.918-1.112-.6-2.7-1.752-2.676-2.889A1.2,1.2,0,0,1,63.85,122.742Z" transform="translate(-42.075 -107.392)" fill="#fff"/>
      <path id="Trazado_128855" data-name="Trazado 128855" d="M24.24,23.656h2.722a.362.362,0,0,1,.257.106L29.062,25.6a1.456,1.456,0,0,0,2.043.007l1.879-1.848a.362.362,0,0,1,.255-.1h2.69a3.028,3.028,0,0,0,3.025-3.025V17.459a3.854,3.854,0,0,0,1.314.23h3.648a.97.97,0,0,1,.727.329l1.845,2.1a1.694,1.694,0,0,0,1.264.574h.007a1.7,1.7,0,0,0,1.262-.564l1.889-2.111a.97.97,0,0,1,.722-.323h3.608a3.857,3.857,0,0,0,1.193-.189v3.132a3.028,3.028,0,0,0,3.025,3.025h2.722a.362.362,0,0,1,.257.106L64.279,25.6a1.456,1.456,0,0,0,2.043.007L68.2,23.76a.362.362,0,0,1,.255-.1h2.69a3.028,3.028,0,0,0,3.024-3.025V12.779a3.028,3.028,0,0,0-3.024-3.025H59.111V3.872A3.876,3.876,0,0,0,55.239,0H48.346a.846.846,0,0,0,0,1.692h6.894a2.182,2.182,0,0,1,2.179,2.179v9.945A2.182,2.182,0,0,1,55.239,16H51.631a2.665,2.665,0,0,0-1.984.887l-1.89,2.112-1.844-2.1a2.663,2.663,0,0,0-2-.9H40.267a2.182,2.182,0,0,1-2.179-2.179V3.872a2.182,2.182,0,0,1,2.179-2.179H44.4A.846.846,0,1,0,44.4,0h-4.13A3.876,3.876,0,0,0,36.4,3.872V9.755H24.24a3.028,3.028,0,0,0-3.025,3.025v7.852A3.028,3.028,0,0,0,24.24,23.656ZM71.146,11.447a1.334,1.334,0,0,1,1.332,1.332v7.852a1.334,1.334,0,0,1-1.332,1.332h-2.69a2.044,2.044,0,0,0-1.442.59l-1.709,1.681-1.674-1.67a2.043,2.043,0,0,0-1.453-.6H59.456a1.334,1.334,0,0,1-1.332-1.332V16.4a3.856,3.856,0,0,0,.987-2.578v-2.37H71.146ZM22.907,12.779a1.334,1.334,0,0,1,1.332-1.332H36.4v2.37a3.853,3.853,0,0,0,.866,2.436v4.378a1.334,1.334,0,0,1-1.332,1.332h-2.69a2.045,2.045,0,0,0-1.442.59l-1.708,1.681-1.674-1.67a2.043,2.043,0,0,0-1.453-.6H24.239a1.334,1.334,0,0,1-1.332-1.332V12.779Z" transform="translate(-6.766 0)" fill="#fff"/>
      <path id="Trazado_128856" data-name="Trazado 128856" d="M200.9,40.32c-.07,3.485,4.35,5.939,5.706,6.608a1.255,1.255,0,0,0,1.131-.012c1.323-.69,5.644-3.2,5.692-6.566a3.9,3.9,0,0,0-6.263-3.095,3.874,3.874,0,0,0-2.385-.8A3.955,3.955,0,0,0,200.9,40.32Zm3.894-2.175h.016a2.183,2.183,0,0,1,1.5.6h0a1.252,1.252,0,0,0,1.709,0,2.205,2.205,0,0,1,3.718,1.579c-.027,1.873-2.442,3.827-4.584,4.984-2.174-1.114-4.6-3.037-4.562-4.955A2.28,2.28,0,0,1,204.789,38.145Z" transform="translate(-166.173 -32.339)" fill="#fff"/>
      <path id="Trazado_128857" data-name="Trazado 128857" d="M67.778,221.593V209.267a9.2,9.2,0,0,0-13.4-8.188.846.846,0,1,0,.773,1.505,7.424,7.424,0,0,1,3.425-.825,7.516,7.516,0,0,1,7.508,7.508V220.1c-.023-.01-.045-.022-.068-.031h0l-4.262-1.756v-1.654a10.012,10.012,0,0,0,2.881-6.632c0-3.089-1.375-5.517-3.679-6.494a.847.847,0,0,0-.656,0,.88.88,0,0,0-.5.6,6.1,6.1,0,0,1-4.676,4.653l-1.937.415a.982.982,0,0,0-.667,1,10.036,10.036,0,0,0,2.88,6.474v1.644L52.034,219.7a4.213,4.213,0,0,0-.964-.87v-9.563a7.46,7.46,0,0,1,1.356-4.3.846.846,0,0,0-1.386-.972,9.144,9.144,0,0,0-1.662,5.276v8.779l-4.631-1.908v-3.214c2.12-1.717,3.376-4.807,3.61-7.846a6.905,6.905,0,0,0,2.115-3.7,3.139,3.139,0,0,0-.412-2.585,3.1,3.1,0,0,0-1.274-1.094,3.246,3.246,0,0,0,.038-.863,3.214,3.214,0,0,0-4.581-2.612,3.725,3.725,0,0,0-5.1-1.543A3.216,3.216,0,0,0,34.1,194.22a4.231,4.231,0,0,0-2.543,6.745,10.688,10.688,0,0,0,.144,2.192,4.026,4.026,0,0,0,1.976,2.773A13.864,13.864,0,0,0,34,207.568a.892.892,0,0,0,1.033.6.846.846,0,0,0,.6-1.033,12.181,12.181,0,0,1-.324-1.758c-.037-.327.085-.471.827-.833a3.419,3.419,0,0,0,1.541-1.178,4.951,4.951,0,0,0,4.485-2.19,3.785,3.785,0,0,0,2.355.621,3.925,3.925,0,0,0,1.51,1.665c.5.347.659.455.662,1.094-.175,3.955-2.363,8.038-5.729,8.038a4.773,4.773,0,0,1-3.829-2.174.846.846,0,1,0-1.369.995,7.9,7.9,0,0,0,1.417,1.511v3.206l-5.608,2.311a4.23,4.23,0,0,0-1.692,1.267l-3.4-1.4v-2.6a9.854,9.854,0,0,0,2.747-4.3.845.845,0,0,0,.592-.38c.88-1.374,2.569-5.541-.14-8.285a4.2,4.2,0,0,0-3.8-1.068,2.68,2.68,0,0,0-.177-.326c-1.143-1.785-4.1-2.036-6.724-.57a.846.846,0,1,0,.825,1.478c1.971-1.1,3.9-.886,4.475,0a1.846,1.846,0,0,1,.042,1.554,4.543,4.543,0,0,1-2.771,2.676,9.936,9.936,0,0,0-3.824,2.5,7.706,7.706,0,0,1-.065-4.16.846.846,0,1,0-1.62-.489,9.273,9.273,0,0,0,.747,6.751.846.846,0,0,0,.613.384,9.881,9.881,0,0,0,2.724,4.224v2.609c-.078.034-4.227,1.738-4.309,1.778a3.656,3.656,0,0,0-2.224,3.371v2.667a1.978,1.978,0,0,0,1.976,1.976H66.313a1.978,1.978,0,0,0,1.976-1.976v-2.667A3.663,3.663,0,0,0,67.778,221.593Zm-21.9-20.986a.846.846,0,0,0-1.076-.577,1.919,1.919,0,0,1-2.182-.75.846.846,0,0,0-1.5.211,3.209,3.209,0,0,1-3.055,2.212,5.762,5.762,0,0,1-.744-.1.846.846,0,0,0-.985.649c-.073.331-.324.481-.923.768a3.447,3.447,0,0,0-1.417,1.035,2.314,2.314,0,0,1-.627-1.213,9.453,9.453,0,0,1-.1-2.105.846.846,0,0,0-.223-.641,2.537,2.537,0,0,1,1.786-4.26.846.846,0,0,0,.818-.767,1.521,1.521,0,0,1,2.727-.775.846.846,0,0,0,1.231.124,2.03,2.03,0,0,1,3.354,1.3.846.846,0,0,0,1.492.445,1.51,1.51,0,0,1,1.312-.546,1.523,1.523,0,0,1,1.2,2.249.846.846,0,0,0,.653,1.249,1.42,1.42,0,0,1,1.042.623,1.448,1.448,0,0,1,.189,1.193,7.985,7.985,0,0,1-.859,2.08,3.283,3.283,0,0,0-.992-.935,2.262,2.262,0,0,1-1.111-1.468Zm9.6,9.832a7.8,7.8,0,0,0,5.651-4.858,5.485,5.485,0,0,1,1.814,4.445c0,3.037-2.643,6.55-4.367,6.55-1.6,0-3.984-2.991-4.325-5.874ZM39.462,226.412a16.627,16.627,0,0,0-3.15-8.084l1.518-.625a4.726,4.726,0,0,0,3.135,1.191h0A4.727,4.727,0,0,0,44.1,217.7l1.494.615a16.635,16.635,0,0,0-3.177,8.094Zm7.754-7.426,2.494,1.028a2.534,2.534,0,0,1,1.574,2.35v4.048h-7.16A14.92,14.92,0,0,1,47.216,218.986Zm-6.252-4.693a5.812,5.812,0,0,0,2.091-.382v2.457a3.036,3.036,0,0,1-2.09.833h0a3.036,3.036,0,0,1-2.09-.833v-2.455A5.85,5.85,0,0,0,40.963,214.293ZM28.953,226.412H27.477l1.476-1.713Zm.01-4.318-3.719,4.318H21.393l-3.879-5.193,3.262-1.344a3.928,3.928,0,0,0,2.524.918h0a3.927,3.927,0,0,0,2.524-.918l3.285,1.354A4.24,4.24,0,0,0,28.963,222.094Zm-.489-18.162c1.473,1.492,1.009,3.754.428,5.171a14.323,14.323,0,0,0-2.318-1.874,4.081,4.081,0,0,1-1.393-1.453,5.519,5.519,0,0,0,.73-1.419,4.4,4.4,0,0,0,.216-1A2.567,2.567,0,0,1,28.473,203.931Zm-9.651,6.363a8.219,8.219,0,0,1,3.3-2.214,6.662,6.662,0,0,0,1.859-1.037,5.9,5.9,0,0,0,1.686,1.61,12.7,12.7,0,0,1,2.089,1.7c-.653,2.778-2.928,5.091-4.461,5.091S19.457,213.1,18.823,210.294ZM23.3,217.14a3.809,3.809,0,0,0,1.486-.326v1.722a2.236,2.236,0,0,1-1.485.564h0a2.236,2.236,0,0,1-1.485-.564v-1.724A3.789,3.789,0,0,0,23.3,217.14Zm-8.018,8.989v-2.667a1.97,1.97,0,0,1,.681-1.492l3.318,4.442H15.565A.284.284,0,0,1,15.281,226.128Zm15.364-3.764a2.534,2.534,0,0,1,1.574-2.35l2.473-1.019a14.914,14.914,0,0,1,3.064,7.417H30.645v-4.048Zm22.331,4.048v-4.048a4.251,4.251,0,0,0-.162-1.155l2.592-1.068a11.935,11.935,0,0,0,1.416,6.271Zm4.117-7.534V217.9a3.182,3.182,0,0,0,2.97,0s0,.894,0,.982c0,2.539,0,5.16-1.485,7.091-1.485-1.928-1.485-4.551-1.485-7.093A.009.009,0,0,0,57.093,218.877Zm9.5,7.251a.283.283,0,0,1-.283.283H60.332a11.937,11.937,0,0,0,1.417-6.271l3.623,1.493h0a1.971,1.971,0,0,1,1.224,1.828Z" transform="translate(0 -170.338)" fill="#fff"/>
    </g>
  </g>
</svg>
