<svg id="Grupo_1099264" data-name="Grupo 1099264" xmlns="http://www.w3.org/2000/svg" xmlns:xlink="http://www.w3.org/1999/xlink" width="158.007" height="164.484" viewBox="0 0 158.007 164.484">
  <defs>
    <clipPath id="clip-path">
      <rect id="Rectángulo_401138" data-name="Rectángulo 401138" width="149.007" height="153.484" fill="#7d6eb2"/>
    </clipPath>
    <clipPath id="clip-path-2">
      <rect id="Rectángulo_401138-2" data-name="Rectángulo 401138" width="149.007" height="153.484" fill="none"/>
    </clipPath>
    <clipPath id="clip-path-3">
      <path id="Trazado_873307" data-name="Trazado 873307" d="M50.764,70.089C35.929,84.253,25.486,96.476,37.122,111.294,54.388,129.378,69.589,145.3,69.589,145.3s-4.559-10.678,20.4-34.128,30.32-37.88,25.809-55.407L79.556,17.805s-3.039,27.7-28.792,52.284" fill="none"/>
    </clipPath>
  </defs>
  <g id="Grupo_1099265" data-name="Grupo 1099265" transform="translate(9 11)" opacity="0.22" style="mix-blend-mode: multiply;isolation: isolate">
    <g id="Grupo_1099258" data-name="Grupo 1099258" clip-path="url(#clip-path)">
      <path id="Trazado_873306" data-name="Trazado 873306" d="M79.483,153.445S66.6,143.667,84.5,126.577s56.882-53.45,34.362-77.04L71.574,0s19.205,27.827-33.4,78.048c-11.979,11.435-12.5,23.884-3.241,33.582L69.464,147.8s5.884,6.229,10.019,5.645" fill="#7d6eb2"/>
    </g>
  </g>
  <g id="Grupo_1099259" data-name="Grupo 1099259">
    <g id="Grupo_1099258-2" data-name="Grupo 1099258" clip-path="url(#clip-path-2)">
      <path id="Trazado_873306-2" data-name="Trazado 873306" d="M79.483,153.445S66.6,143.667,84.5,126.577s56.882-53.45,34.362-77.04L71.574,0s19.205,27.827-33.4,78.048c-11.979,11.435-12.5,23.884-3.241,33.582L69.464,147.8s5.884,6.229,10.019,5.645" fill="#fff6e7"/>
    </g>
  </g>
  <g id="Grupo_1099261" data-name="Grupo 1099261">
    <g id="Grupo_1099260" data-name="Grupo 1099260" clip-path="url(#clip-path-3)">
      <rect id="Rectángulo_401139" data-name="Rectángulo 401139" width="2.541" height="113.874" transform="translate(0 70.834) rotate(-43.671)" fill="#d3bfa5"/>
      <rect id="Rectángulo_401140" data-name="Rectángulo 401140" width="2.541" height="113.874" transform="translate(4.031 66.985) rotate(-43.671)" fill="#d3bfa5"/>
      <rect id="Rectángulo_401141" data-name="Rectángulo 401141" width="2.541" height="113.874" transform="translate(8.063 63.137) rotate(-43.671)" fill="#d3bfa5"/>
      <rect id="Rectángulo_401142" data-name="Rectángulo 401142" width="2.541" height="113.874" transform="translate(12.095 59.288) rotate(-43.671)" fill="#d3bfa5"/>
      <rect id="Rectángulo_401143" data-name="Rectángulo 401143" width="2.541" height="113.874" transform="translate(16.126 55.439) rotate(-43.671)" fill="#d3bfa5"/>
      <rect id="Rectángulo_401144" data-name="Rectángulo 401144" width="2.541" height="113.874" transform="translate(20.158 51.59) rotate(-43.671)" fill="#d3bfa5"/>
      <rect id="Rectángulo_401145" data-name="Rectángulo 401145" width="2.541" height="113.874" transform="translate(24.189 47.741) rotate(-43.671)" fill="#d3bfa5"/>
      <rect id="Rectángulo_401146" data-name="Rectángulo 401146" width="2.541" height="113.874" transform="translate(28.221 43.892) rotate(-43.671)" fill="#d3bfa5"/>
      <rect id="Rectángulo_401147" data-name="Rectángulo 401147" width="2.541" height="113.874" transform="translate(32.253 40.044) rotate(-43.671)" fill="#d3bfa5"/>
      <rect id="Rectángulo_401148" data-name="Rectángulo 401148" width="2.541" height="113.874" transform="translate(36.284 36.195) rotate(-43.671)" fill="#d3bfa5"/>
      <rect id="Rectángulo_401149" data-name="Rectángulo 401149" width="2.541" height="113.874" transform="translate(40.316 32.346) rotate(-43.671)" fill="#d3bfa5"/>
      <rect id="Rectángulo_401150" data-name="Rectángulo 401150" width="2.541" height="113.874" transform="translate(44.348 28.497) rotate(-43.671)" fill="#d3bfa5"/>
      <rect id="Rectángulo_401151" data-name="Rectángulo 401151" width="2.541" height="113.874" transform="translate(48.379 24.648) rotate(-43.671)" fill="#d3bfa5"/>
      <rect id="Rectángulo_401152" data-name="Rectángulo 401152" width="2.541" height="113.874" transform="translate(52.411 20.8) rotate(-43.671)" fill="#d3bfa5"/>
      <rect id="Rectángulo_401153" data-name="Rectángulo 401153" width="2.541" height="113.874" transform="translate(56.442 16.95) rotate(-43.671)" fill="#d3bfa5"/>
      <rect id="Rectángulo_401154" data-name="Rectángulo 401154" width="2.541" height="113.874" transform="translate(60.474 13.102) rotate(-43.671)" fill="#d3bfa5"/>
      <rect id="Rectángulo_401155" data-name="Rectángulo 401155" width="2.541" height="113.874" transform="translate(64.505 9.253) rotate(-43.671)" fill="#d3bfa5"/>
      <rect id="Rectángulo_401156" data-name="Rectángulo 401156" width="2.541" height="113.874" transform="translate(68.537 5.404) rotate(-43.671)" fill="#d3bfa5"/>
    </g>
  </g>
  <g id="Grupo_1099263" data-name="Grupo 1099263">
    <g id="Grupo_1099262" data-name="Grupo 1099262" clip-path="url(#clip-path-2)">
      <path id="Trazado_873308" data-name="Trazado 873308" d="M91.947,30.741s-2.24,9.324-4.577,12.189L74.694,30.094l2.538-14.767Z" fill="#fff6e7"/>
      <path id="Trazado_873309" data-name="Trazado 873309" d="M79.239,21.006A30.047,30.047,0,0,1,76.86,30.35l8.657,9.066,1.188-2.276-6.5-6.811a40.9,40.9,0,0,0,1.6-6.634l-2.566-2.689" fill="#d3bfa5"/>
    </g>
  </g>
</svg>
