<svg id="Grupo_1099256" data-name="Grupo 1099256" xmlns="http://www.w3.org/2000/svg" xmlns:xlink="http://www.w3.org/1999/xlink" width="109.873" height="116.515" viewBox="0 0 109.873 116.515">
  <defs>
    <clipPath id="clip-path">
      <rect id="Rectángulo_401127" data-name="Rectángulo 401127" width="101.873" height="107.017" fill="#7d6eb2"/>
    </clipPath>
    <clipPath id="clip-path-2">
      <rect id="Rectángulo_401127-2" data-name="Rectángulo 401127" width="101.873" height="107.017" fill="none"/>
    </clipPath>
    <clipPath id="clip-path-3">
      <path id="Trazado_873305" data-name="Trazado 873305" d="M14.63,80.585,68.917,97.169S93.565,63.118,90.245,25.134L39.058,9.5S37.493,57.925,14.63,80.585" fill="none"/>
    </clipPath>
  </defs>
  <g id="Grupo_1099257" data-name="Grupo 1099257" transform="translate(8 9.498)" opacity="0.21" style="mix-blend-mode: multiply;isolation: isolate">
    <g id="Grupo_1099252" data-name="Grupo 1099252" clip-path="url(#clip-path)">
      <path id="Trazado_873304" data-name="Trazado 873304" d="M32.216,0S40.534,52.73,0,86.269l67.917,20.748S103.7,69.841,94.771,19.11L32.216,0" fill="#7d6eb2"/>
    </g>
  </g>
  <g id="Grupo_1099253" data-name="Grupo 1099253">
    <g id="Grupo_1099252-2" data-name="Grupo 1099252" clip-path="url(#clip-path-2)">
      <path id="Trazado_873304-2" data-name="Trazado 873304" d="M32.216,0S40.534,52.73,0,86.269l67.917,20.748S103.7,69.841,94.771,19.11L32.216,0" fill="#fff6e7"/>
    </g>
  </g>
  <g id="Grupo_1099255" data-name="Grupo 1099255">
    <g id="Grupo_1099254" data-name="Grupo 1099254" clip-path="url(#clip-path-3)">
      <rect id="Rectángulo_401128" data-name="Rectángulo 401128" width="3.094" height="76.635" transform="translate(27.678 11.97) rotate(-73.013)" fill="#d3bfa5"/>
      <rect id="Rectángulo_401129" data-name="Rectángulo 401129" width="3.094" height="76.635" transform="translate(25.569 18.874) rotate(-73.013)" fill="#d3bfa5"/>
      <rect id="Rectángulo_401130" data-name="Rectángulo 401130" width="3.094" height="76.635" transform="translate(23.46 25.777) rotate(-73.013)" fill="#d3bfa5"/>
      <rect id="Rectángulo_401131" data-name="Rectángulo 401131" width="3.094" height="76.635" transform="translate(21.351 32.68) rotate(-73.013)" fill="#d3bfa5"/>
      <rect id="Rectángulo_401132" data-name="Rectángulo 401132" width="3.094" height="76.635" transform="translate(19.243 39.583) rotate(-73.013)" fill="#d3bfa5"/>
      <rect id="Rectángulo_401133" data-name="Rectángulo 401133" width="3.094" height="76.635" transform="translate(17.134 46.487) rotate(-73.013)" fill="#d3bfa5"/>
      <rect id="Rectángulo_401134" data-name="Rectángulo 401134" width="3.094" height="76.635" transform="translate(15.025 53.39) rotate(-73.013)" fill="#d3bfa5"/>
      <rect id="Rectángulo_401135" data-name="Rectángulo 401135" width="3.094" height="76.635" transform="translate(12.916 60.293) rotate(-73.013)" fill="#d3bfa5"/>
      <rect id="Rectángulo_401136" data-name="Rectángulo 401136" width="3.094" height="76.635" transform="translate(10.807 67.196) rotate(-73.013)" fill="#d3bfa5"/>
      <rect id="Rectángulo_401137" data-name="Rectángulo 401137" width="3.094" height="76.635" transform="translate(8.698 74.1) rotate(-73.013)" fill="#d3bfa5"/>
    </g>
  </g>
</svg>
