<svg xmlns="http://www.w3.org/2000/svg" xmlns:xlink="http://www.w3.org/1999/xlink" width="78.5" height="72.824" viewBox="0 0 78.5 72.824">
  <defs>
    <clipPath id="clip-path">
      <rect id="Rectángulo_401173" data-name="Rectángulo 401173" width="60" height="60" transform="translate(249.263 6628.738)" fill="#fff" stroke="#707070" stroke-width="1"/>
    </clipPath>
  </defs>
  <g id="Grupo_1099309" data-name="Grupo 1099309" transform="translate(-240.263 -6628.738)">
    <path id="_12068" data-name="12068" d="M72.033,71.913c-8.038-1.11-16.53-.839-23.844,2.675C38.045,79.46,31.382,90.507,31.127,101.757s5.606,22.305,14.66,28.988,21,9.051,32.068,7.045c11.165-2.023,21.645-8.583,27.469-18.322,3.735-6.245,5.48-13.956,3.417-20.934a28.6,28.6,0,0,0-6.787-11.156A50.145,50.145,0,0,0,72.033,71.913Z" transform="translate(209.144 6563.081)" fill="#26aab7"/>
    <g id="Enmascarar_grupo_1098697" data-name="Enmascarar grupo 1098697" clip-path="url(#clip-path)">
      <g id="contenido" transform="translate(249.263 6628.738)">
        <g id="Grupo_1099319" data-name="Grupo 1099319">
          <path id="Trazado_873472" data-name="Trazado 873472" d="M57.6,58.031H2.4A1.524,1.524,0,0,1,.879,56.507V8.677H59.121v47.83A1.524,1.524,0,0,1,57.6,58.031Z" fill="#d8ecfe"/>
          <path id="Trazado_873473" data-name="Trazado 873473" d="M59.121,8.677H.879V3.493A1.524,1.524,0,0,1,2.4,1.969H57.6a1.524,1.524,0,0,1,1.524,1.524Z" fill="#3c87d0"/>
          <path id="Trazado_873474" data-name="Trazado 873474" d="M59.121,8.677v47.83A1.524,1.524,0,0,1,57.6,58.03h-2.41a1.524,1.524,0,0,0,1.524-1.524V8.677Z" fill="#b3dafe"/>
          <path id="Trazado_873475" data-name="Trazado 873475" d="M59.121,3.494V8.677h-2.41V3.494A1.524,1.524,0,0,0,55.187,1.97H57.6A1.524,1.524,0,0,1,59.121,3.494Z" fill="#0078c8"/>
          <path id="Trazado_873476" data-name="Trazado 873476" d="M23.547,28.843H51.6a.557.557,0,0,0,.557-.557V14.295a.557.557,0,0,0-.557-.557H23.547a.557.557,0,0,0-.557.557V28.286A.557.557,0,0,0,23.547,28.843Z" fill="#fe7c66"/>
          <path id="Trazado_873477" data-name="Trazado 873477" d="M52.157,14.3v13.99a.558.558,0,0,1-.557.558H49.177a.558.558,0,0,0,.557-.558V14.3a.558.558,0,0,0-.557-.558H51.6A.558.558,0,0,1,52.157,14.3Z" fill="#fe6c55"/>
          <path id="Trazado_873478" data-name="Trazado 873478" d="M51.6,39.231H18.409a.557.557,0,0,1-.557-.557V34.036a.557.557,0,0,1,.557-.557H51.6a.557.557,0,0,1,.557.557v4.638A.557.557,0,0,1,51.6,39.231Z" fill="#6ed5a1"/>
          <path id="Trazado_873479" data-name="Trazado 873479" d="M52.157,34.036v4.638a.557.557,0,0,1-.557.557H49.177a.557.557,0,0,0,.557-.557V34.036a.558.558,0,0,0-.557-.558H51.6A.558.558,0,0,1,52.157,34.036Z" fill="#46cc8d"/>
          <circle id="Elipse_11588" data-name="Elipse 11588" cx="9.738" cy="9.738" r="9.738" transform="translate(8.114 33.435)" fill="#ffd15b"/>
          <path id="Trazado_873480" data-name="Trazado 873480" d="M27.59,43.173a9.743,9.743,0,0,1-11.919,9.492,9.738,9.738,0,0,0,2.045-19.227c.045,0,.089,0,.135,0A9.738,9.738,0,0,1,27.59,43.173Z" fill="#ffc344"/>
        </g>
        <g id="Grupo_1099330" data-name="Grupo 1099330">
          <path id="Trazado_873481" data-name="Trazado 873481" d="M59.121,8.677H.879V3.493A1.524,1.524,0,0,1,2.4,1.969H57.6a1.524,1.524,0,0,1,1.524,1.524Z" fill="none" stroke="#000" stroke-linecap="round" stroke-linejoin="round" stroke-miterlimit="10" stroke-width="1.758"/>
          <path id="Trazado_873482" data-name="Trazado 873482" d="M.879,44.7V8.677H59.121v47.83A1.524,1.524,0,0,1,57.6,58.031H2.4A1.524,1.524,0,0,1,.879,56.507V48.776" fill="none" stroke="#000" stroke-linecap="round" stroke-linejoin="round" stroke-miterlimit="10" stroke-width="1.758"/>
          <path id="Trazado_873483" data-name="Trazado 873483" d="M28.454,13.737H23.547a.557.557,0,0,0-.557.557V28.286a.557.557,0,0,0,.557.557H51.6a.557.557,0,0,0,.557-.557V14.295a.557.557,0,0,0-.557-.557H32.507" fill="none" stroke="#000" stroke-linecap="round" stroke-linejoin="round" stroke-miterlimit="10" stroke-width="1.758"/>
          <g id="Grupo_1099324" data-name="Grupo 1099324">
            <g id="Grupo_1099320" data-name="Grupo 1099320">
              <path id="Trazado_873484" data-name="Trazado 873484" d="M26.931,25.643,30.2,17.06a.2.2,0,0,1,.365,0L33.8,25.643" fill="none" stroke="#000" stroke-linecap="round" stroke-linejoin="round" stroke-miterlimit="10" stroke-width="1.758"/>
              <line id="Línea_1545" data-name="Línea 1545" x2="4.85" transform="translate(27.951 23.505)" fill="none" stroke="#000" stroke-linecap="round" stroke-linejoin="round" stroke-miterlimit="10" stroke-width="1.758"/>
            </g>
            <g id="Grupo_1099321" data-name="Grupo 1099321">
              <path id="Trazado_873485" data-name="Trazado 873485" d="M48.033,20.61a2.517,2.517,0,0,0-2.158-.481,1.151,1.151,0,0,0-.446,2.065s.761.34,1.605.651c2.032.75,1.157,2.716-.479,2.716a2.606,2.606,0,0,1-1.923-.818" fill="none" stroke="#000" stroke-linecap="round" stroke-linejoin="round" stroke-miterlimit="10" stroke-width="1.758"/>
            </g>
            <g id="Grupo_1099323" data-name="Grupo 1099323">
              <g id="Grupo_1099322" data-name="Grupo 1099322">
                <line id="Línea_1546" data-name="Línea 1546" y2="8.289" transform="translate(41.562 17.272)" fill="none" stroke="#000" stroke-linecap="round" stroke-linejoin="round" stroke-miterlimit="10" stroke-width="1.758"/>
              </g>
              <circle id="Elipse_11589" data-name="Elipse 11589" cx="2.779" cy="2.779" r="2.779" transform="translate(36.003 20.002)" fill="none" stroke="#000" stroke-linecap="round" stroke-linejoin="round" stroke-miterlimit="10" stroke-width="1.758"/>
            </g>
          </g>
          <g id="Grupo_1099325" data-name="Grupo 1099325">
            <line id="Línea_1547" data-name="Línea 1547" x2="10.902" transform="translate(7.843 13.76)" fill="none" stroke="#000" stroke-linecap="round" stroke-linejoin="round" stroke-miterlimit="10" stroke-width="1.758"/>
            <line id="Línea_1548" data-name="Línea 1548" x2="10.902" transform="translate(7.843 18.78)" fill="none" stroke="#000" stroke-linecap="round" stroke-linejoin="round" stroke-miterlimit="10" stroke-width="1.758"/>
            <line id="Línea_1549" data-name="Línea 1549" x2="10.902" transform="translate(7.843 23.8)" fill="none" stroke="#000" stroke-linecap="round" stroke-linejoin="round" stroke-miterlimit="10" stroke-width="1.758"/>
            <line id="Línea_1550" data-name="Línea 1550" x2="10.902" transform="translate(7.843 28.82)" fill="none" stroke="#000" stroke-linecap="round" stroke-linejoin="round" stroke-miterlimit="10" stroke-width="1.758"/>
          </g>
          <path id="Trazado_873486" data-name="Trazado 873486" d="M18.409,33.478H51.6a.557.557,0,0,1,.557.557v4.638a.557.557,0,0,1-.557.557H26.931" fill="none" stroke="#000" stroke-linecap="round" stroke-linejoin="round" stroke-miterlimit="10" stroke-width="1.758"/>
          <g id="Grupo_1099328" data-name="Grupo 1099328">
            <g id="Grupo_1099326" data-name="Grupo 1099326">
              <path id="Trazado_873487" data-name="Trazado 873487" d="M20.3,39.842a3.825,3.825,0,0,0-3.279-.73A1.783,1.783,0,0,0,15.836,41.6c.538,1.073,1.913,1.263,2.943,1.643,3.088,1.139,1.758,4.127-.728,4.127a3.961,3.961,0,0,1-2.923-1.243" fill="none" stroke="#000" stroke-linecap="round" stroke-linejoin="round" stroke-miterlimit="10" stroke-width="1.758"/>
            </g>
            <g id="Grupo_1099327" data-name="Grupo 1099327">
              <line id="Línea_1551" data-name="Línea 1551" y1="1.447" transform="translate(17.852 37.372)" fill="none" stroke="#000" stroke-linecap="round" stroke-linejoin="round" stroke-miterlimit="10" stroke-width="1.758"/>
              <line id="Línea_1552" data-name="Línea 1552" y1="1.447" transform="translate(17.852 47.528)" fill="none" stroke="#000" stroke-linecap="round" stroke-linejoin="round" stroke-miterlimit="10" stroke-width="1.758"/>
            </g>
          </g>
          <circle id="Elipse_11590" data-name="Elipse 11590" cx="9.738" cy="9.738" r="9.738" transform="translate(8.114 33.435)" fill="none" stroke="#000" stroke-linecap="round" stroke-linejoin="round" stroke-miterlimit="10" stroke-width="1.758"/>
          <g id="Grupo_1099329" data-name="Grupo 1099329">
            <line id="Línea_1553" data-name="Línea 1553" x2="19.81" transform="translate(32.347 43.889)" fill="none" stroke="#000" stroke-linecap="round" stroke-linejoin="round" stroke-miterlimit="10" stroke-width="1.758"/>
            <line id="Línea_1554" data-name="Línea 1554" x2="21.224" transform="translate(30.933 48.43)" fill="none" stroke="#000" stroke-linecap="round" stroke-linejoin="round" stroke-miterlimit="10" stroke-width="1.758"/>
            <line id="Línea_1555" data-name="Línea 1555" x2="24.206" transform="translate(27.951 52.971)" fill="none" stroke="#000" stroke-linecap="round" stroke-linejoin="round" stroke-miterlimit="10" stroke-width="1.758"/>
          </g>
        </g>
      </g>
    </g>
  </g>
</svg>
