<svg xmlns="http://www.w3.org/2000/svg" xmlns:xlink="http://www.w3.org/1999/xlink" width="78.5" height="72.824" viewBox="0 0 78.5 72.824">
  <defs>
    <clipPath id="clip-path">
      <rect id="Rectángulo_401173" data-name="Rectángulo 401173" width="60" height="60" transform="translate(249.263 6628.738)" fill="#fff" stroke="#707070" stroke-width="1"/>
    </clipPath>
  </defs>
  <g id="Grupo_1099312" data-name="Grupo 1099312" transform="translate(-240.263 -6628.738)">
    <path id="_12068" data-name="12068" d="M72.033,71.913c-8.038-1.11-16.53-.839-23.844,2.675C38.045,79.46,31.382,90.507,31.127,101.757s5.606,22.305,14.66,28.988,21,9.051,32.068,7.045c11.165-2.023,21.645-8.583,27.469-18.322,3.735-6.245,5.48-13.956,3.417-20.934a28.6,28.6,0,0,0-6.787-11.156A50.145,50.145,0,0,0,72.033,71.913Z" transform="translate(209.144 6563.081)" fill="#26aab7"/>
    <g id="Enmascarar_grupo_1098700" data-name="Enmascarar grupo 1098700" clip-path="url(#clip-path)">
      <g id="escritura" transform="translate(249.263 6628.738)">
        <g id="Grupo_1099361" data-name="Grupo 1099361">
          <path id="Trazado_873530" data-name="Trazado 873530" d="M5.572,59.091H47.8A4.692,4.692,0,0,1,43.109,54.4V.909H.88V54.4A4.692,4.692,0,0,0,5.572,59.091Z" fill="#e3edf6"/>
          <path id="Trazado_873531" data-name="Trazado 873531" d="M47.8,59.091A4.692,4.692,0,0,0,52.493,54.4V47.361H43.109V54.4A4.692,4.692,0,0,0,47.8,59.091Z" fill="#c5d9ec"/>
          <path id="Trazado_873532" data-name="Trazado 873532" d="M23.067,39.8,21.408,44.78l4.977-1.659L48.857,20.649l-3.318-3.318Z" fill="#f88fa4"/>
          <path id="Trazado_873533" data-name="Trazado 873533" d="M50.931,16.087l-.829-.829a1.759,1.759,0,0,0-2.488,0l-2.074,2.074,3.318,3.318,2.074-2.074a1.759,1.759,0,0,0,0-2.488Z" fill="#e3edf6"/>
          <g id="Grupo_1099360" data-name="Grupo 1099360">
            <path id="Trazado_873534" data-name="Trazado 873534" d="M35.2,27.674l-6.012,1-.938,4.692-.179,2.472a4.149,4.149,0,0,1-4.136,3.849l-.142,0L22.967,32.9,24.14,24.57l6.452-3.05,10.445.313Z" fill="#ffe4c2"/>
            <path id="Trazado_873535" data-name="Trazado 873535" d="M60,25.509H48.069l-2.787-1.286-6.757,6.757L40.445,32.9l-2.581,3.284-2.933,1.056-4.625.147a2.856,2.856,0,1,0,.213,5.708l5.233-.224,5.865-1.642,5.865-3.284H60Z" fill="#ffe4c2"/>
          </g>
        </g>
        <g id="Grupo_1099362" data-name="Grupo 1099362">
          <path id="Trazado_873536" data-name="Trazado 873536" d="M34.428,53.519h1.76v1.76h-1.76Z" fill="#fff"/>
          <path id="Trazado_873537" data-name="Trazado 873537" d="M37.947,53.519h1.76v1.76h-1.76Z" fill="#fff"/>
          <path id="Trazado_873538" data-name="Trazado 873538" d="M15.66,44.6h1.76v1.76H15.66Z" fill="#fff"/>
        </g>
        <g id="Grupo_1099363" data-name="Grupo 1099363">
          <path id="Trazado_873539" data-name="Trazado 873539" d="M43.988,43.724h-1.76V54.4a5.55,5.55,0,0,0,1.514,3.812H9.091v1.76H47.8A5.578,5.578,0,0,0,53.372,54.4V46.481H43.988Zm7.625,4.516V54.4a3.812,3.812,0,1,1-7.625,0V48.24Z"/>
          <path id="Trazado_873540" data-name="Trazado 873540" d="M1.76,1.789H17.436V.029H0V23.062H1.76Z"/>
          <path id="Trazado_873541" data-name="Trazado 873541" d="M1.863,55.279H32.551v-1.76H1.76v-28.7H0V54.4a5.578,5.578,0,0,0,5.572,5.572h1.76v-1.76H5.572a3.818,3.818,0,0,1-3.709-2.933Z"/>
          <path id="Trazado_873542" data-name="Trazado 873542" d="M42.229,15.455h1.76V.029H19.2v1.76H42.229Z"/>
          <path id="Trazado_873543" data-name="Trazado 873543" d="M6.158,9.413h5.865v1.76H6.158Z"/>
          <path id="Trazado_873544" data-name="Trazado 873544" d="M26.1,9.413h5.865v1.76H26.1Z"/>
          <path id="Trazado_873545" data-name="Trazado 873545" d="M13.783,9.413H24.34v1.76H13.783Z"/>
          <path id="Trazado_873546" data-name="Trazado 873546" d="M33.724,9.413H37.83v1.76H33.724Z"/>
          <path id="Trazado_873547" data-name="Trazado 873547" d="M6.158,15.279h4.106v1.76H6.158Z"/>
          <path id="Trazado_873548" data-name="Trazado 873548" d="M12.023,15.279h5.865v1.76H12.023Z"/>
          <path id="Trazado_873549" data-name="Trazado 873549" d="M31.965,15.279H37.83v1.76H31.965Z"/>
          <path id="Trazado_873550" data-name="Trazado 873550" d="M19.648,15.279H30.205v1.76H19.648Z"/>
          <path id="Trazado_873551" data-name="Trazado 873551" d="M14.956,21.144h4.106V22.9H14.956Z"/>
          <path id="Trazado_873552" data-name="Trazado 873552" d="M6.158,21.144H13.2V22.9H6.158Z"/>
          <path id="Trazado_873553" data-name="Trazado 873553" d="M12.023,27.009h7.038v1.76H12.023Z"/>
          <path id="Trazado_873554" data-name="Trazado 873554" d="M6.158,27.009h4.106v1.76H6.158Z"/>
          <path id="Trazado_873555" data-name="Trazado 873555" d="M14.956,32.874h4.106v1.76H14.956Z"/>
          <path id="Trazado_873556" data-name="Trazado 873556" d="M6.158,32.874H13.2v1.76H6.158Z"/>
          <path id="Trazado_873557" data-name="Trazado 873557" d="M6.158,38.739h4.106V40.5H6.158Z"/>
          <path id="Trazado_873558" data-name="Trazado 873558" d="M12.023,38.739h7.038V40.5H12.023Z"/>
          <path id="Trazado_873559" data-name="Trazado 873559" d="M6.158,44.6H13.9v1.76H6.158Z"/>
          <path id="Trazado_873560" data-name="Trazado 873560" d="M53.3,37.063H60v1.76H53.3Z"/>
          <path id="Trazado_873561" data-name="Trazado 873561" d="M48.262,24.629,46.8,23.953,51.553,19.2a2.639,2.639,0,0,0,0-3.733l-.829-.829a2.643,2.643,0,0,0-3.732,0l-6.308,6.308-10.277-.308-7.072,3.343L22.08,32.89l.718,5.938-.5.5-2.281,6.843L26.86,43.89l.954-.954a3.717,3.717,0,0,0,2.58,1.04c.054,0,.109,0,.164,0l5.334-.228,6.064-1.7,5.756-3.224h3.826v-1.76H47.253L41.28,40.408l-5.666,1.587-5.132.22a1.976,1.976,0,1,1-.147-3.95l4.764-.151,3.3-1.189,3.219-4.1L39.77,30.98l5.7-5.7,2.405,1.109H60v-1.76H48.262Zm-.027-8.75a.881.881,0,0,1,1.244,0l.829.829a.88.88,0,0,1,0,1.244L48.857,19.4l-2.074-2.074ZM25.909,42.352,22.8,43.389l.941-2.825h.026l.163,0a4.99,4.99,0,0,0,2.767-.839,3.769,3.769,0,0,0-.035.512,3.72,3.72,0,0,0,.189,1.171Zm1.463-9.1-.183,2.526a3.285,3.285,0,0,1-2.628,2.971l-.706-5.839,1.091-7.745,5.832-2.757,8.2.246-4.2,4.2L28.44,27.908Zm5.261-4.256-3.269,3.269.564-2.819Zm4.7,6.448-2.564.923-.391.012,4.152-4.152.745.745ZM31.8,36.458l-1.526.048a3.725,3.725,0,0,0-1.5.369,4.985,4.985,0,0,0,.169-.972L29,35.114,45.539,18.575l2.074,2.074Z"/>
        </g>
      </g>
    </g>
  </g>
</svg>
