<svg xmlns="http://www.w3.org/2000/svg" xmlns:xlink="http://www.w3.org/1999/xlink" width="78.501" height="74.27" viewBox="0 0 78.501 74.27">
  <defs>
    <linearGradient id="linear-gradient" x1="0.5" x2="0.5" y2="1" gradientUnits="objectBoundingBox">
      <stop offset="0" stop-color="#fff"/>
      <stop offset="1" stop-color="#d2e6ee"/>
    </linearGradient>
  </defs>
  <g id="Grupo_1099217" data-name="Grupo 1099217" transform="translate(-240.263 -6627.292)">
    <path id="_12068" data-name="12068" d="M72.033,71.913c-8.038-1.11-16.53-.839-23.844,2.675C38.045,79.46,31.382,90.507,31.127,101.757s5.606,22.305,14.66,28.988,21,9.051,32.068,7.045c11.165-2.023,21.645-8.583,27.469-18.322,3.735-6.245,5.48-13.956,3.417-20.934a28.6,28.6,0,0,0-6.787-11.156A50.145,50.145,0,0,0,72.033,71.913Z" transform="translate(209.144 6563.081)" fill="#26aab7"/>
    <g id="Grupo_1099055" data-name="Grupo 1099055" transform="translate(252.378 6627.292)">
      <g id="Grupo_14488" data-name="Grupo 14488" transform="translate(0.974 0.875)">
        <path id="Trazado_24362" data-name="Trazado 24362" d="M151.441,291.253l4.831-1.1a3.873,3.873,0,0,0,3.01-3.854l-.093-4.691-7.724,1.761Z" transform="translate(-132.783 -245.959)" fill="url(#linear-gradient)"/>
        <path id="Trazado_24363" data-name="Trazado 24363" d="M110.961,306.194c-3.576-8.924-4.753-18.813-2.4-27.367l7.338,2.023.005-.019a22.325,22.325,0,0,0-.358,7.345,21.1,21.1,0,0,0,4.514,11.067,3.665,3.665,0,0,1-.572,5.127l-3.757,3.047a3.064,3.064,0,0,1-4.774-1.224Z" transform="translate(-94.402 -243.539)" fill="#6b5e9a"/>
        <path id="Trazado_24364" data-name="Trazado 24364" d="M126.035,299.243a21.1,21.1,0,0,1-4.514-11.067,22.325,22.325,0,0,1,.358-7.345l-.005.019-7.338-2.023c-.122.443-.233.89-.336,1.34l2.477.683.005-.019a22.326,22.326,0,0,0-.358,7.345,21.1,21.1,0,0,0,4.514,11.067,3.665,3.665,0,0,1-.572,5.126l-3,2.436a3.071,3.071,0,0,0,4.443.611l3.757-3.047a3.665,3.665,0,0,0,.572-5.126Z" transform="translate(-100.373 -243.538)" fill="#7d6eb2"/>
        <g id="Grupo_14487" data-name="Grupo 14487">
          <g id="Grupo_14486" data-name="Grupo 14486">
            <g id="Grupo_14485" data-name="Grupo 14485">
              <path id="Trazado_24365" data-name="Trazado 24365" d="M258.089,71.286c-3.32-6.295-11.728-6.455-11.728-6.455l-5.6-24.564s7.234-3.234,7.772-10.9Z" transform="translate(-210.519 -26.432)" fill="url(#linear-gradient)"/>
              <path id="Trazado_24366" data-name="Trazado 24366" d="M69.687,137.981l-27.436-.936a3.473,3.473,0,0,1-3.114-2.691l-1.291-5.663a3.473,3.473,0,0,1,1.64-3.775l24.6-11.5Z" transform="translate(-33.845 -99.582)" fill="#f5ca56"/>
              <path id="Trazado_24367" data-name="Trazado 24367" d="M209.611,137.8l5.237.179-5.6-24.564-4.7,2.2Z" transform="translate(-179.007 -99.583)" fill="#deac2f"/>
              <path id="Trazado_24368" data-name="Trazado 24368" d="M12.893,236.423l-2.577.552a1.808,1.808,0,0,1-2.165-1.361l-.521-2.286a1.808,1.808,0,0,1,1.361-2.165l2.577-.552Z" transform="translate(-7.584 -201.577)" fill="url(#linear-gradient)"/>
              <path id="Trazado_24369" data-name="Trazado 24369" d="M312.45,53.453h0a2.3,2.3,0,0,1-2.756-1.733l-9.61-42.16a2.3,2.3,0,0,1,1.733-2.756h0a2.3,2.3,0,0,1,2.756,1.733l9.61,42.16A2.3,2.3,0,0,1,312.45,53.453Z" transform="translate(-262.096 -6.747)" fill="#7d6eb2"/>
            </g>
          </g>
        </g>
      </g>
      <g id="Grupo_14489" data-name="Grupo 14489" transform="translate(0 0)">
        <path id="Trazado_24370" data-name="Trazado 24370" d="M48.259,19.061a.974.974,0,0,0-1.9.433l5.824,25.549a1.328,1.328,0,0,1-2.589.59L40.01,3.588c-.387-1.7,2.163-2.457,2.563-.705L45.207,14.44a.974.974,0,0,0,1.9-.433L44.473,2.45c-.925-4.058-7.3-2.72-6.395,1.426-.565,6.876-7.121,9.916-7.188,9.946l-.007,0-.007,0-24.6,11.5q-.039.018-.077.04a4.425,4.425,0,0,0-2.213,3.77l-1.748.375A2.786,2.786,0,0,0,.143,32.843l.521,2.286a2.807,2.807,0,0,0,3.319,2.1l1.756-.376a4.423,4.423,0,0,0,3.637,2.459l.043,0,4.082.139c-.123.755-.226,1.523-.3,2.3a43.608,43.608,0,0,0,.638,12.405.975.975,0,0,0,1.914-.364,41.662,41.662,0,0,1-.613-11.85c.081-.817.19-1.628.325-2.421l5.819.2a24.309,24.309,0,0,0,.291,8.117,22.182,22.182,0,0,0,4.18,9.108c1.24,1.6.765,3.2-.691,4.382-1.151.934-2.224,1.974-3.462,2.8a2.119,2.119,0,0,1-2.34-.015c-1.319-.9-1.682-3.38-2.124-4.8a.975.975,0,0,0-1.86.581c.606,1.939,1.085,4.6,2.89,5.828a4.107,4.107,0,0,0,4.512.026c1.291-.857,2.412-1.932,3.612-2.906,2.29-1.858,2.884-4.668,1-7.091a20.227,20.227,0,0,1-3.81-8.3q-.111-.542-.2-1.089l1.466-.334A4.866,4.866,0,0,0,28.52,41.2L28.5,39.963l8.359.285h.015c.078,0,7.771.215,10.828,5.831.953,4.1,7.324,2.65,6.385-1.47ZM3.562,35.324a.85.85,0,0,1-1-.628L2.043,32.41a.833.833,0,0,1,.615-1l1.637-.351.892,3.912Zm23.01,5.911a2.91,2.91,0,0,1-2.252,2.884l-1.249.285a21.756,21.756,0,0,1,.172-4.62l3.3.113ZM9.509,37.365a2.487,2.487,0,0,1-2.22-1.935L6,29.766a2.488,2.488,0,0,1,1.145-2.694L30.608,16.1l5.05,22.153Zm28.168.983-5.27-23.117a15.448,15.448,0,0,0,6.627-7.155l7.706,33.8A16.912,16.912,0,0,0,37.677,38.348Z" transform="translate(-0.073 0)" fill="#00223d"/>
        <path id="Trazado_24371" data-name="Trazado 24371" d="M403.655,146.792a.975.975,0,0,0-.044.942l.79,1.6-4.648.032a.975.975,0,0,0,.014,1.949l6.2-.043a.983.983,0,0,0,.867-1.405l-.79-1.6,4.931-.04a.975.975,0,0,0-.016-1.949l-6.483.053a.974.974,0,0,0-.822.463Z" transform="translate(-347.103 -127.305)" fill="#00223d"/>
        <path id="Trazado_24372" data-name="Trazado 24372" d="M386.232,60.759a.967.967,0,0,0,.439-.105l5.534-2.8a.983.983,0,0,0,.15-1.644l-1.422-1.083,4.4-2.233a.975.975,0,0,0-.882-1.737l-5.781,2.936a.983.983,0,0,0-.149,1.644l1.42,1.081-4.147,2.1A.984.984,0,0,0,386.232,60.759Z" transform="translate(-335.323 -44.42)" fill="#00223d"/>
        <path id="Trazado_24373" data-name="Trazado 24373" d="M423.446,228.185l-4.93-.106.812-1.592a.983.983,0,0,0-.848-1.417l-6.2-.127a.975.975,0,0,0-.04,1.948l4.647.095-.811,1.59a.983.983,0,0,0,.847,1.417l6.482.14a.975.975,0,0,0,.042-1.948Z" transform="translate(-357.981 -195.769)" fill="#00223d"/>
      </g>
    </g>
  </g>
</svg>
