<svg xmlns="http://www.w3.org/2000/svg" xmlns:xlink="http://www.w3.org/1999/xlink" width="150.004" height="150" viewBox="0 0 150.004 150">
  <defs>
    <clipPath id="clip-path">
      <rect id="Rectángulo_401169" data-name="Rectángulo 401169" width="111.981" height="150" fill="#62529b"/>
    </clipPath>
  </defs>
  <g id="Grupo_1099514" data-name="Grupo 1099514" transform="translate(-251.999 -525.197)">
    <path id="_12068" data-name="12068" d="M102.864,72.381c-14.1-2-28.986-1.513-41.812,4.828C43.264,86,31.581,105.941,31.133,126.247s9.83,40.259,25.707,52.321,36.816,16.337,56.233,12.715c19.579-3.652,37.957-15.492,48.169-33.07,6.549-11.271,9.61-25.189,5.992-37.783-2.184-7.6-6.649-14.337-11.9-20.135A87.145,87.145,0,0,0,102.864,72.381Z" transform="translate(225.513 475.667)" fill="#26aab7"/>
    <g id="Grupo_1099281" data-name="Grupo 1099281" transform="translate(274.438 525.197)">
      <g id="Grupo_1099280" data-name="Grupo 1099280" transform="translate(0 0)" clip-path="url(#clip-path)">
        <path id="Trazado_873337" data-name="Trazado 873337" d="M399.858,17.966c.286-2.062,0-17.965,0-17.965h10.865l-1.715,22.06Z" transform="translate(-370.816 -0.001)" fill="#839e91"/>
        <path id="Trazado_873338" data-name="Trazado 873338" d="M191.977,294.875l7.591,6.29s-9.67,118.36-11.483,121.089-78.181-5.374-78.953-5.661-3.282-8.188-3.282-8.188Z" transform="translate(-98.162 -272.815)" fill="#62529b"/>
        <path id="Trazado_873339" data-name="Trazado 873339" d="M66.208,180.616c.732-1.77,84.257,3.5,84.866,7.484s-8.857,118.544-10.593,122.2-41.5-.545-55.917-2.222-22.425-.31-24.639-3.14,4.819-120.779,6.283-124.319" transform="translate(-55.176 -166.777)" fill="#6a66ac"/>
        <path id="Trazado_873340" data-name="Trazado 873340" d="M89.5,327.428l-5.779.058c-.836.008-.667,1.34.164,1.331l5.779-.058c.836-.008.667-1.34-.164-1.331" transform="translate(-77.129 -302.933)" fill="#3c4b64"/>
        <path id="Trazado_873341" data-name="Trazado 873341" d="M75.385,422.67a63.333,63.333,0,0,0-6.341-.193c-.837.016-.668,1.347.164,1.331a59.955,59.955,0,0,1,6,.192c.831.068,1.013-1.262.174-1.33" transform="translate(-63.52 -390.86)" fill="#3c4b64"/>
        <path id="Trazado_873342" data-name="Trazado 873342" d="M69,507.919a49.787,49.787,0,0,0-6.133.461.672.672,0,0,0,.164,1.331,49.8,49.8,0,0,1,6.133-.461c.836-.011.667-1.342-.164-1.331" transform="translate(-57.789 -469.921)" fill="#3c4b64"/>
        <path id="Trazado_873343" data-name="Trazado 873343" d="M67.61,598.614l-6.139.357c-.837.049-.671,1.38.164,1.331l6.139-.357c.837-.049.671-1.38-.164-1.331" transform="translate(-56.495 -553.83)" fill="#3c4b64"/>
        <path id="Trazado_873344" data-name="Trazado 873344" d="M57.507,714.227a36.845,36.845,0,0,1-5.89-.432c-.829-.127-1,1.2-.174,1.33a38.889,38.889,0,0,0,6.228.433c.836-.007.667-1.339-.164-1.331" transform="translate(-47.203 -660.387)" fill="#3c4b64"/>
        <path id="Trazado_873345" data-name="Trazado 873345" d="M50.812,807.759l-5.605-.873c-.828-.129-1,1.2-.174,1.33l5.606.873c.828.129,1-1.2.173-1.33" transform="translate(-41.259 -746.513)" fill="#3c4b64"/>
        <path id="Trazado_873346" data-name="Trazado 873346" d="M44.985,908.848l-5.6-.886c-.828-.131-1,1.2-.173,1.33l5.6.886c.828.131,1-1.2.173-1.33" transform="translate(-35.857 -840.028)" fill="#3c4b64"/>
        <path id="Trazado_873347" data-name="Trazado 873347" d="M36.479,1027.816a32.1,32.1,0,0,1-6.777-.426c-.827-.139-1,1.19-.173,1.33a33.7,33.7,0,0,0,7.115.427c.837-.037.67-1.368-.164-1.331" transform="translate(-26.882 -950.52)" fill="#3c4b64"/>
        <path id="Trazado_873348" data-name="Trazado 873348" d="M32.209,1128.693a39.644,39.644,0,0,0-6.2.232.672.672,0,0,0,.164,1.331,37.494,37.494,0,0,1,5.86-.233c.829.033,1.013-1.3.173-1.33" transform="translate(-23.613 -1044.224)" fill="#3c4b64"/>
        <path id="Trazado_873349" data-name="Trazado 873349" d="M36.2,1239.513a15.69,15.69,0,0,1-6.581-.079c-.818-.184-.989,1.146-.173,1.33a16.6,16.6,0,0,0,6.919.08c.818-.164.662-1.5-.164-1.331" transform="translate(-26.812 -1146.694)" fill="#3c4b64"/>
        <path id="Trazado_873350" data-name="Trazado 873350" d="M25.778,1331.273a13.214,13.214,0,0,1-6.333-.342c-.794-.245-1.313.986-.51,1.234a14.586,14.586,0,0,0,7.008.438c.822-.152.664-1.485-.164-1.331" transform="translate(-17.187 -1231.333)" fill="#3c4b64"/>
        <path id="Trazado_873351" data-name="Trazado 873351" d="M21.052,1453.6a64.763,64.763,0,0,0-7.723-.27c-.837.02-.668,1.351.164,1.331a61.882,61.882,0,0,1,7.386.268c.831.079,1.012-1.25.173-1.33" transform="translate(-11.85 -1344.591)" fill="#3c4b64"/>
        <path id="Trazado_873352" data-name="Trazado 873352" d="M25.172,1563.536a38.3,38.3,0,0,0-6.7-.176c-.837.051-.671,1.382.164,1.331a36.348,36.348,0,0,1,6.365.175.672.672,0,0,0,.174-1.33" transform="translate(-16.617 -1446.336)" fill="#3c4b64"/>
        <path id="Trazado_873353" data-name="Trazado 873353" d="M10.353,1642.383a46.648,46.648,0,0,0-7.457-.226c-.837.041-.67,1.372.164,1.331a44.513,44.513,0,0,1,7.119.225c.831.093,1.01-1.237.173-1.33" transform="translate(-2.175 -1519.252)" fill="#3c4b64"/>
        <path id="Trazado_873354" data-name="Trazado 873354" d="M7.837,1713.986a22.44,22.44,0,0,1-7.129-.381c-.82-.176-.992,1.155-.174,1.33a23.554,23.554,0,0,0,7.467.382.672.672,0,0,0-.164-1.331" transform="translate(0 -1585.392)" fill="#3c4b64"/>
        <path id="Trazado_873355" data-name="Trazado 873355" d="M1321.445,498.86l-.711,9.3,14.928,1.162,1.128-11.264Z" transform="translate(-1224.809 -460.795)" fill="#ebc36b"/>
        <path id="Trazado_873356" data-name="Trazado 873356" d="M1251.391,1443.38h14.975l-.29,6.042-15.378-.551Z" transform="translate(-1159.86 -1335.398)" fill="#f1947b"/>
        <path id="Trazado_873357" data-name="Trazado 873357" d="M1203.46,1766.777h7.488l-1.183,8.3h-7.416Z" transform="translate(-1115.022 -1634.602)" fill="#f1947b"/>
        <path id="Trazado_873358" data-name="Trazado 873358" d="M1241.2,1137.109l-3.1,33.424,7.015.431,2.353-33.856Z" transform="translate(-1148.175 -1052.04)" fill="#d9d1ce"/>
        <path id="Trazado_873359" data-name="Trazado 873359" d="M300.006,588.691l3.261.161a1.716,1.716,0,0,1,1.039.381,2.09,2.09,0,0,1,.627.89,2.8,2.8,0,0,1,.176,1.127,3.015,3.015,0,0,1-.293,1.145,3.682,3.682,0,0,1-.7,1.019,3.259,3.259,0,0,1-1,.7,2.54,2.54,0,0,1-1.182.224l-1.767-.087-.7,2.767-1.562-.077Zm2.169,4.238a.9.9,0,0,0,.468-.106,1.381,1.381,0,0,0,.416-.339,1.806,1.806,0,0,0,.3-.521,2.087,2.087,0,0,0,.134-.664,1.4,1.4,0,0,0-.072-.551.775.775,0,0,0-.252-.36.654.654,0,0,0-.371-.136l-1.6-.079-.684,2.673Z" transform="translate(-276.262 -544.65)" fill="#fff"/>
        <path id="Trazado_873360" data-name="Trazado 873360" d="M405.021,593.708l1.562.077-1.746,6.846,3.865.19-.351,1.407-5.438-.268Z" transform="translate(-373.649 -549.292)" fill="#fff"/>
        <path id="Trazado_873361" data-name="Trazado 873361" d="M496.759,599.858l1.4.069.788,8.4-1.619-.08-.108-2.089-2.69-.132-1.158,2.026-1.619-.08Zm.4,5.152-.17-3.292-1.826,3.194Z" transform="translate(-456.039 -554.982)" fill="#fff"/>
        <path id="Trazado_873362" data-name="Trazado 873362" d="M615.672,603.772l1.22.06,2.505,5.608,1.382-5.405,1.562.077-2.108,8.241-1.266-.062-2.5-5.478-1.342,5.289-1.562-.077Z" transform="translate(-569 -558.603)" fill="#fff"/>
        <path id="Trazado_873363" data-name="Trazado 873363" d="M741.4,609.779l1.22.06,2.505,5.608,1.382-5.405,1.562.077-2.108,8.241L744.7,618.3l-2.5-5.478-1.342,5.289-1.562-.077Z" transform="translate(-685.6 -564.161)" fill="#fff"/>
        <path id="Trazado_873364" data-name="Trazado 873364" d="M867.135,615.786l5.244.258-.351,1.407-3.694-.182-.5,1.988,3.181.157-.335,1.3-3.181-.156-.545,2.151,3.785.186-.362,1.406-5.347-.263Z" transform="translate(-802.199 -569.718)" fill="#fff"/>
        <path id="Trazado_873365" data-name="Trazado 873365" d="M966.428,628.883l2.108-8.253,3.42.168a1.691,1.691,0,0,1,1.034.38,2.153,2.153,0,0,1,.627.89,2.738,2.738,0,0,1,.182,1.127,2.9,2.9,0,0,1-.184.891,3.258,3.258,0,0,1-.443.808,3.6,3.6,0,0,1-.642.663,2.835,2.835,0,0,1-.78.444l.949,3.189-1.779-.087-.828-2.842-1.4-.069-.7,2.767Zm4.437-4.007a.849.849,0,0,0,.462-.113,1.505,1.505,0,0,0,.41-.345,1.823,1.823,0,0,0,.3-.515,1.925,1.925,0,0,0,.132-.623,1.413,1.413,0,0,0-.072-.545.927.927,0,0,0-.245-.383.573.573,0,0,0-.364-.153l-1.756-.086-.684,2.674Z" transform="translate(-896.236 -574.2)" fill="#fff"/>
      </g>
    </g>
    <g id="Grupo_1099024" data-name="Grupo 1099024" transform="translate(251.999 651.324) rotate(-90)">
      <path id="Trazado_873104" data-name="Trazado 873104" d="M.647,2.832A1.64,1.64,0,0,0,2.79,2.59,1.64,1.64,0,0,0,2.7.434,1.641,1.641,0,0,0,.541.376,1.573,1.573,0,0,0,.647,2.832Z" transform="translate(20.31 126.782)" fill="#fff"/>
      <path id="Trazado_873105" data-name="Trazado 873105" d="M.646,2.832A1.64,1.64,0,0,0,2.791,2.59,1.641,1.641,0,0,0,2.7.434,1.641,1.641,0,0,0,.541.376,1.573,1.573,0,0,0,.646,2.832Z" transform="translate(52.039 133.415)" fill="#ffd947"/>
      <path id="Trazado_873106" data-name="Trazado 873106" d="M.647,2.832A1.639,1.639,0,0,0,2.79,2.59,1.641,1.641,0,0,0,2.7.434,1.641,1.641,0,0,0,.541.376,1.573,1.573,0,0,0,.647,2.832Z" transform="translate(110.372)" fill="#7d6eb2"/>
      <path id="Trazado_873109" data-name="Trazado 873109" d="M2.129,6.609a3.577,3.577,0,0,0,4.43-1.75A3.579,3.579,0,0,0,5.014.353,3.578,3.578,0,0,0,.442,1.692,3.468,3.468,0,0,0,2.129,6.609Z" transform="translate(115.776 114.404)" fill="#7d6eb2"/>
      <path id="Trazado_873110" data-name="Trazado 873110" d="M2.13,6.609a3.577,3.577,0,0,0,4.43-1.75A3.578,3.578,0,0,0,5.014.354,3.577,3.577,0,0,0,.443,1.691,3.468,3.468,0,0,0,2.13,6.609Z" transform="translate(64.789 143.165)" fill="#ffd947"/>
      <path id="Trazado_873111" data-name="Trazado 873111" d="M2.13,6.609a3.576,3.576,0,0,0,4.43-1.75A3.577,3.577,0,0,0,5.014.354,3.576,3.576,0,0,0,.443,1.691,3.468,3.468,0,0,0,2.13,6.609Z" transform="translate(0 40.675)" fill="#ffd947"/>
      <path id="Trazado_873113" data-name="Trazado 873113" d="M2.129,6.609a3.578,3.578,0,0,0,4.43-1.75A3.579,3.579,0,0,0,5.015.353,3.578,3.578,0,0,0,.442,1.692,3.468,3.468,0,0,0,2.129,6.609Z" transform="translate(103.525 8.488)" fill="#ffd947"/>
      <circle id="Elipse_11485" data-name="Elipse 11485" cx="1.689" cy="1.689" r="1.689" transform="translate(7.75 134.831)" fill="none" stroke="#26aab7" stroke-linecap="round" stroke-linejoin="round" stroke-width="1.5"/>
    </g>
  </g>
</svg>
