<svg xmlns="http://www.w3.org/2000/svg" xmlns:xlink="http://www.w3.org/1999/xlink" width="78.501" height="75.824" viewBox="0 0 78.501 75.824">
  <defs>
    <clipPath id="clip-path">
      <rect id="Rectángulo_401173" data-name="Rectángulo 401173" width="66" height="66" transform="translate(252.263 6631.738)" fill="#fff" stroke="#707070" stroke-width="1"/>
    </clipPath>
  </defs>
  <g id="Grupo_1099059" data-name="Grupo 1099059" transform="translate(-240.263 -6625.738)">
    <path id="_12068" data-name="12068" d="M72.033,71.913c-8.038-1.11-16.53-.839-23.844,2.675C38.045,79.46,31.382,90.507,31.127,101.757s5.606,22.305,14.66,28.988,21,9.051,32.068,7.045c11.165-2.023,21.645-8.583,27.469-18.322,3.735-6.245,5.48-13.956,3.417-20.934a28.6,28.6,0,0,0-6.787-11.156A50.145,50.145,0,0,0,72.033,71.913Z" transform="translate(209.144 6563.081)" fill="#26aab7"/>
    <g id="Enmascarar_grupo_1098692" data-name="Enmascarar grupo 1098692" transform="translate(-6 -6)" clip-path="url(#clip-path)">
      <g id="lectores" transform="translate(258.133 6631.738)">
        <g id="Grupo_1099305" data-name="Grupo 1099305" transform="translate(0.664 0.663)">
          <g id="Grupo_1099302" data-name="Grupo 1099302" transform="translate(6.7 12.448)">
            <g id="Grupo_1099300" data-name="Grupo 1099300" transform="translate(32.632)">
              <path id="Trazado_873389" data-name="Trazado 873389" d="M44.744,14.837c-.99-.326-1.763-.537-2.28-2.766a.707.707,0,0,0-1.375,0c-.506,2.18-1.212,2.413-2.28,2.766a.707.707,0,0,0,0,1.341c1.775.586,1.976,1.454,2.28,2.766a.706.706,0,0,0,1.376,0c.506-2.18,1.25-2.426,2.28-2.766A.707.707,0,0,0,44.744,14.837Z" transform="translate(-38.325 -11.526)"/>
              <path id="Trazado_873390" data-name="Trazado 873390" d="M42.419,15.023A3.5,3.5,0,0,0,41.376,16.2a3.659,3.659,0,0,0-1.107-1.168A3.485,3.485,0,0,0,41.362,13.8,3.609,3.609,0,0,0,42.419,15.023Z" transform="translate(-37.893 -11.021)" fill="#f0c020"/>
            </g>
            <g id="Grupo_1099301" data-name="Grupo 1099301">
              <path id="Trazado_873391" data-name="Trazado 873391" d="M18.045,14.837c-.99-.326-1.763-.537-2.28-2.766a.707.707,0,0,0-1.375,0c-.506,2.18-1.212,2.413-2.28,2.766a.707.707,0,0,0,0,1.341c1.775.586,1.976,1.454,2.28,2.766a.706.706,0,0,0,1.376,0c.506-2.18,1.25-2.426,2.28-2.766A.707.707,0,0,0,18.045,14.837Z" transform="translate(-11.626 -11.526)"/>
              <path id="Trazado_873392" data-name="Trazado 873392" d="M15.72,15.023A3.5,3.5,0,0,0,14.677,16.2a3.659,3.659,0,0,0-1.107-1.168A3.485,3.485,0,0,0,14.663,13.8a3.609,3.609,0,0,0,1.056,1.221Z" transform="translate(-11.194 -11.021)" fill="#f0c020"/>
            </g>
          </g>
          <g id="Grupo_1099304" data-name="Grupo 1099304">
            <path id="Trazado_873393" data-name="Trazado 873393" d="M54.5,25.143a17.667,17.667,0,0,0-2.4-.779h0c-.609-.156-1.232-.288-1.86-.4h0a2.466,2.466,0,0,1-2.277,1.523H45.052a2.466,2.466,0,0,1-2.431-2.065q-.954.024-1.892.092a24.49,24.49,0,0,0-8.7,1.973l-.016-.008a24.51,24.51,0,0,0-8.687-1.965q-.938-.069-1.892-.092A2.464,2.464,0,0,1,19,25.488H16.095a2.464,2.464,0,0,1-2.28-1.528c-.647.116-1.264.251-1.86.4h0a17.989,17.989,0,0,0-2.407.782,1.226,1.226,0,0,0-.771,1.135V55.669a1.22,1.22,0,0,0,1.612,1.156c6.051-2.086,16.5-1.865,21.624.655l.016.008c5.113-2.528,15.584-2.749,21.637-.663a1.219,1.219,0,0,0,1.612-1.156V26.277a1.226,1.226,0,0,0-.771-1.134Z" transform="translate(-5.559 3.566)" fill="#f2e1d6"/>
            <path id="Trazado_873394" data-name="Trazado 873394" d="M40.64,24.527q-.954.024-1.892.092a24.49,24.49,0,0,0-8.7,1.973l-.016-.008a24.51,24.51,0,0,0-8.687-1.965q-.938-.069-1.892-.092a2.472,2.472,0,0,0-1.76-2.779,5.411,5.411,0,0,1,1.528-.779l.582-.189,7.148-2.326v.434a3.1,3.1,0,1,0,6.194,0v-.434l7.142,2.323.59.191a5.366,5.366,0,0,1,1.525.782,2.466,2.466,0,0,0-1.76,2.776Z" transform="translate(-3.578 2.462)" fill="#72c2e9"/>
            <path id="Trazado_873395" data-name="Trazado 873395" d="M21.342,24.2q-.938-.069-1.892-.092a2.472,2.472,0,0,0-1.76-2.779,5.411,5.411,0,0,1,1.528-.779l.582-.189A4.324,4.324,0,0,1,21.342,24.2Z" transform="translate(-3.578 2.884)" fill="#4ba5c8"/>
            <path id="Trazado_873396" data-name="Trazado 873396" d="M36.817,24.1q-.954.024-1.892.092a4.372,4.372,0,0,1,1.536-3.841l.59.191a5.366,5.366,0,0,1,1.525.782,2.467,2.467,0,0,0-1.76,2.776Z" transform="translate(0.245 2.884)" fill="#4ba5c8"/>
            <g id="Grupo_1099303" data-name="Grupo 1099303" transform="translate(16.449 7.095)">
              <path id="Trazado_873397" data-name="Trazado 873397" d="M35.991,7.147v5.805c0,.189-.008.377-.024.563a6.918,6.918,0,0,1-3.811,5.641,6.924,6.924,0,0,1-6.191,0,6.926,6.926,0,0,1-3.814-5.641c-.016-.186-.024-.375-.024-.563V7.147Z" transform="translate(-19.041 -7.147)" fill="#feb69f"/>
              <path id="Trazado_873398" data-name="Trazado 873398" d="M22.688,12.59c0,.189.008.377.024.563h-.922a2.189,2.189,0,1,1,0-4.377h.9V12.59Z" transform="translate(-19.602 -6.785)" fill="#feb69f"/>
              <path id="Trazado_873399" data-name="Trazado 873399" d="M36.561,10.965a2.19,2.19,0,0,1-2.189,2.189H33.45c.016-.186.024-.375.024-.563V8.776h.9A2.19,2.19,0,0,1,36.561,10.965Z" transform="translate(-16.525 -6.785)" fill="#feb69f"/>
            </g>
            <path id="Trazado_873400" data-name="Trazado 873400" d="M35.982,8.437H22.115V6.424a3.149,3.149,0,0,1,3.149-3.147h7.48a2.378,2.378,0,0,0,2.336-1.936c3.313,2.69,2.851,5.368.9,7.1Z" transform="translate(-2.595 -1.342)" fill="#7c7b7a"/>
            <path id="Trazado_873401" data-name="Trazado 873401" d="M31.459,16.973v2.245a3.1,3.1,0,0,1-6.194,0V16.973a6.93,6.93,0,0,0,6.194,0Z" transform="translate(-1.895 2.132)" fill="#feb69f"/>
            <path id="Trazado_873402" data-name="Trazado 873402" d="M59.078,29.511V58.8a1.222,1.222,0,0,1-1.221,1.224H7.365A1.222,1.222,0,0,1,6.144,58.8V29.511A1.22,1.22,0,0,1,7.365,28.29H9.36v26.3a1.22,1.22,0,0,0,1.612,1.156c6.051-2.086,16.5-1.865,21.624.655l.016.008c5.113-2.528,15.584-2.749,21.637-.663a1.219,1.219,0,0,0,1.612-1.156V28.29h2A1.222,1.222,0,0,1,59.078,29.511Z" transform="translate(-6.144 4.647)" fill="#fc5d3d"/>
            <path id="Trazado_873403" data-name="Trazado 873403" d="M57.5,28.29v26.3a3.106,3.106,0,0,1-4.113,2.941C47.81,55.6,37.849,55.8,33.2,58.1a1.877,1.877,0,0,1-1.655.005c-.008-.005-.019-.008-.03-.014-4.628-2.277-14.565-2.5-20.176-.563a3.107,3.107,0,0,1-4.113-2.941V28.29H9.118v26.3a1.22,1.22,0,0,0,1.612,1.156c6.051-2.086,16.5-1.865,21.624.655l.016.008c5.113-2.528,15.584-2.749,21.637-.663a1.219,1.219,0,0,0,1.612-1.156V28.29Z" transform="translate(-5.902 4.647)" fill="#b25035"/>
            <path id="Trazado_873404" data-name="Trazado 873404" d="M22.745,23.515a4.329,4.329,0,0,1-4.323,3.859H15.517a4.341,4.341,0,0,1-4.14-3.013c.6-.151,1.213-.286,1.86-.4a2.464,2.464,0,0,0,2.28,1.528h2.906a2.464,2.464,0,0,0,2.431-2.065c.636.016,1.267.046,1.892.092Z" transform="translate(-4.981 3.566)" fill="#d6c0b4"/>
            <path id="Trazado_873405" data-name="Trazado 873405" d="M20.549,23.945a2.464,2.464,0,0,1-2.431,2.065H15.212a2.464,2.464,0,0,1-2.28-1.528,2.416,2.416,0,0,1-.186-.938,2.466,2.466,0,0,1,2.466-2.469h2.906a2.509,2.509,0,0,1,.671.092A2.471,2.471,0,0,1,20.549,23.945Z" transform="translate(-4.677 3.044)" fill="#feb69f"/>
            <path id="Trazado_873406" data-name="Trazado 873406" d="M20.549,23.945a2.464,2.464,0,0,1-2.431,2.065H15.212a2.464,2.464,0,0,1-2.28-1.528,2.416,2.416,0,0,1-.186-.938,2.466,2.466,0,0,1,2.466-2.469h2.906a2.509,2.509,0,0,1,.671.092A2.471,2.471,0,0,1,20.549,23.945Z" transform="translate(-4.677 3.044)" fill="#feb69f"/>
            <path id="Trazado_873407" data-name="Trazado 873407" d="M46.288,24.364a4.334,4.334,0,0,1-4.14,3.011H39.242a4.334,4.334,0,0,1-4.323-3.859q.938-.069,1.892-.092a2.466,2.466,0,0,0,2.431,2.065h2.905a2.466,2.466,0,0,0,2.277-1.523h0C45.056,24.075,45.679,24.207,46.288,24.364Z" transform="translate(0.251 3.566)" fill="#d6c0b4"/>
            <path id="Trazado_873408" data-name="Trazado 873408" d="M44.277,23.544a2.494,2.494,0,0,1-.186.943h0a2.466,2.466,0,0,1-2.277,1.523H38.905a2.467,2.467,0,0,1-.671-4.841,2.4,2.4,0,0,1,.671-.094H41.81A2.468,2.468,0,0,1,44.277,23.544Z" transform="translate(0.588 3.044)" fill="#feb69f"/>
            <path id="Trazado_873409" data-name="Trazado 873409" d="M44.277,23.544a2.494,2.494,0,0,1-.186.943h0a2.466,2.466,0,0,1-2.277,1.523H38.905a2.467,2.467,0,0,1-.671-4.841,2.4,2.4,0,0,1,.671-.094H41.81A2.468,2.468,0,0,1,44.277,23.544Z" transform="translate(0.588 3.044)" fill="#feb69f"/>
          </g>
        </g>
        <g id="Grupo_1099306" data-name="Grupo 1099306" transform="translate(5.911 56.28)">
          <path id="Trazado_873410" data-name="Trazado 873410" d="M31.415,49.96c-5.6-2.189-14.367-2.249-20.155-.818a.663.663,0,1,1-.318-1.288c5.974-1.477,14.852-1.421,20.715.778,4.972-1.867,11.9-2.133,17.25-1.422a.664.664,0,1,1-.175,1.316c-5.15-.685-12.032-.444-16.834,1.435a.665.665,0,0,1-.483,0Zm20.637-.818q-.371-.092-.757-.175a.664.664,0,1,1,.28-1.3q.405.087.8.184a.664.664,0,0,1-.318,1.288Z" transform="translate(-10.437 -46.846)" fill="#fff"/>
        </g>
        <path id="Trazado_873411" data-name="Trazado 873411" d="M25.7,13.705a2.729,2.729,0,0,0,5.11,0,.663.663,0,0,0-.39-.855.677.677,0,0,0-.852.388,1.4,1.4,0,0,1-2.623,0,.679.679,0,0,0-.855-.39.662.662,0,0,0-.39.852Z" transform="translate(-1.143 1.871)"/>
        <path id="Trazado_873412" data-name="Trazado 873412" d="M26.12,10.7v-.534a.664.664,0,1,0-1.327,0V10.7a.664.664,0,1,0,1.327,0Z" transform="translate(-1.336 1.135)"/>
        <path id="Trazado_873413" data-name="Trazado 873413" d="M30.359,11.361a.664.664,0,0,0,.664-.664v-.534a.664.664,0,1,0-1.327,0V10.7A.664.664,0,0,0,30.359,11.361Z" transform="translate(-0.247 1.135)"/>
        <path id="Trazado_873414" data-name="Trazado 873414" d="M27.908,13.087a.664.664,0,0,0,.664-.664V10.612a.664.664,0,1,0-1.327,0v1.811a.664.664,0,0,0,.664.664Z" transform="translate(-0.791 1.234)"/>
        <circle id="Elipse_11572" data-name="Elipse 11572" cx="0.664" cy="0.664" r="0.664" transform="translate(25.466 1.936)"/>
        <path id="Trazado_873415" data-name="Trazado 873415" d="M12.3,29.5a35.365,35.365,0,0,1,14.986-.129.664.664,0,1,0,.281-1.3A36.7,36.7,0,0,0,12,28.211.664.664,0,1,0,12.3,29.5Z" transform="translate(-4.293 5.092)"/>
        <path id="Trazado_873416" data-name="Trazado 873416" d="M12.3,33.46a35.381,35.381,0,0,1,14.986-.129.664.664,0,0,0,.281-1.3A36.709,36.709,0,0,0,12,32.169.664.664,0,1,0,12.3,33.46Z" transform="translate(-4.293 5.971)"/>
        <path id="Trazado_873417" data-name="Trazado 873417" d="M12.3,37.419a33.583,33.583,0,0,1,7.777-.867,34.162,34.162,0,0,1,7.209.738.664.664,0,0,0,.281-1.3,35.477,35.477,0,0,0-7.49-.768,34.915,34.915,0,0,0-8.085.9.664.664,0,0,0,.308,1.291Z" transform="translate(-4.293 6.851)"/>
        <path id="Trazado_873418" data-name="Trazado 873418" d="M17.948,39.847a.663.663,0,0,0,.661.664h0a.664.664,0,1,0-.664-.664Z" transform="translate(-2.857 7.731)"/>
        <path id="Trazado_873419" data-name="Trazado 873419" d="M12,40.069a.664.664,0,0,0,.308,1.293,31.492,31.492,0,0,1,5.136-.775.664.664,0,1,0-.1-1.325A33.65,33.65,0,0,0,12,40.069Z" transform="translate(-4.293 7.748)"/>
        <path id="Trazado_873420" data-name="Trazado 873420" d="M25.652,39.936a33.479,33.479,0,0,0-4.826-.677.663.663,0,1,0-.093,1.322,32.968,32.968,0,0,1,4.637.65.663.663,0,1,0,.281-1.3Z" transform="translate(-2.375 7.748)"/>
        <path id="Trazado_873421" data-name="Trazado 873421" d="M12.3,45.337a35.365,35.365,0,0,1,14.986-.129.664.664,0,0,0,.281-1.3A36.7,36.7,0,0,0,12,44.045a.664.664,0,0,0,.308,1.291Z" transform="translate(-4.293 8.611)"/>
        <path id="Trazado_873422" data-name="Trazado 873422" d="M39.1,27.308a34.91,34.91,0,0,0-8.085.9.664.664,0,1,0,.308,1.291,33.591,33.591,0,0,1,7.777-.867,34.163,34.163,0,0,1,7.209.738.664.664,0,1,0,.281-1.3,35.478,35.478,0,0,0-7.49-.768Z" transform="translate(-0.066 5.092)"/>
        <path id="Trazado_873423" data-name="Trazado 873423" d="M46.594,32.034a36.71,36.71,0,0,0-15.575.135.664.664,0,1,0,.308,1.291,35.378,35.378,0,0,1,14.986-.129.664.664,0,1,0,.281-1.3Z" transform="translate(-0.066 5.972)"/>
        <path id="Trazado_873424" data-name="Trazado 873424" d="M46.594,35.993a36.7,36.7,0,0,0-15.575.135.664.664,0,1,0,.308,1.291,35.371,35.371,0,0,1,14.986-.129.664.664,0,1,0,.281-1.3Z" transform="translate(-0.066 6.851)"/>
        <path id="Trazado_873425" data-name="Trazado 873425" d="M46.594,39.952a36.7,36.7,0,0,0-15.575.135.664.664,0,1,0,.308,1.291,35.375,35.375,0,0,1,14.986-.129.664.664,0,1,0,.281-1.3Z" transform="translate(-0.066 7.731)"/>
        <path id="Trazado_873426" data-name="Trazado 873426" d="M46.594,43.91a36.7,36.7,0,0,0-15.575.135.664.664,0,1,0,.308,1.291,35.375,35.375,0,0,1,14.986-.129.664.664,0,1,0,.281-1.3Z" transform="translate(-0.066 8.611)"/>
        <path id="Trazado_873427" data-name="Trazado 873427" d="M7.486,66.8H57.978a1.888,1.888,0,0,0,1.885-1.887h0V46.237a.664.664,0,0,0-1.327,0V64.911h0a.559.559,0,0,1-.557.56H7.486a.559.559,0,0,1-.557-.56V35.62a.558.558,0,0,1,.557-.557H8.817V60.7a1.885,1.885,0,0,0,2.492,1.783c6-2.068,16.261-1.765,21.1.615a.658.658,0,0,0,.619.015c4.846-2.4,15.114-2.7,21.127-.63A1.884,1.884,0,0,0,56.644,60.7V35.063h1.334a.558.558,0,0,1,.557.557v5.309a.664.664,0,0,0,1.327,0V35.62h0a1.887,1.887,0,0,0-1.884-1.884H56.645v-2.43a1.884,1.884,0,0,0-1.18-1.748,20.29,20.29,0,0,0-3.7-1.082,3.129,3.129,0,0,0-3.1-3.559H45.758a3.126,3.126,0,0,0-.538.048,6.046,6.046,0,0,0-1.454-.7L36.493,21.9v-.934a7.628,7.628,0,0,0,3.732-5.373h.337a2.852,2.852,0,0,0,0-5.7h-.234V8.827c2.146-2.109,2.218-5.146-1.161-7.879a.664.664,0,0,0-1.07.39,1.712,1.712,0,0,1-1.683,1.4H34.386a.664.664,0,1,0,0,1.327h2.028a3.056,3.056,0,0,0,2.6-1.471c1.728,1.7,2.094,3.614.375,5.3H26.449V6.546a2.491,2.491,0,0,1,2.484-2.485h.143a.664.664,0,1,0,0-1.327h-.143a3.819,3.819,0,0,0-3.811,3.812v3.34H24.9a2.852,2.852,0,0,0,0,5.7h.337a7.633,7.633,0,0,0,3.732,5.371V21.9L21.7,24.262a6.105,6.105,0,0,0-1.463.705,3.155,3.155,0,0,0-.531-.05H16.8a3.13,3.13,0,0,0-3.1,3.555A20.243,20.243,0,0,0,10,29.556,1.885,1.885,0,0,0,8.816,31.3v2.43H7.486A1.887,1.887,0,0,0,5.6,35.62V64.912A1.888,1.888,0,0,0,7.486,66.8ZM54.96,30.785a.563.563,0,0,1,.357.52V60.7a.555.555,0,0,1-.732.529c-6.026-2.077-15.741-1.9-21.19.273V30.937a27.107,27.107,0,0,1,9.428-1.8,3.113,3.113,0,0,0,2.934,2.046h2.905A3.113,3.113,0,0,0,51.3,29.738a19.552,19.552,0,0,1,3.661,1.047Zm-6.3-4.541a1.8,1.8,0,0,1,0,3.608H45.758a1.8,1.8,0,0,1,0-3.608h2.905ZM30.3,21.558a7.619,7.619,0,0,0,2.436.4,7.516,7.516,0,0,0,2.431-.4v1.251a2.433,2.433,0,0,1-4.867,0V21.558ZM40.561,11.213a1.525,1.525,0,0,1,0,3.05h-.234v-3.05ZM23.377,12.738A1.527,1.527,0,0,1,24.9,11.213h.234v3.05H24.9A1.527,1.527,0,0,1,23.377,12.738Zm3.086,1.625V9.222H39v5.141a6.276,6.276,0,0,1-6.266,6.271,6.156,6.156,0,0,1-2.8-.661,6.293,6.293,0,0,1-3.471-5.611ZM29,23.283a3.761,3.761,0,0,0,7.463,0c7.539,2.452,7,2.268,7.266,2.381a3.119,3.119,0,0,0-1.1,2.148,26.847,26.847,0,0,0-9.9,1.967,26.855,26.855,0,0,0-9.9-1.968,3.129,3.129,0,0,0-1.1-2.147c.273-.114-.271.07,7.269-2.382ZM16.8,26.244h2.905a1.806,1.806,0,0,1,1.779,2.083c0,.006,0,.012,0,.018a1.811,1.811,0,0,1-1.776,1.507H16.8a1.8,1.8,0,0,1,0-3.608ZM10.143,31.3a.564.564,0,0,1,.359-.521,19.376,19.376,0,0,1,3.662-1.05A3.116,3.116,0,0,0,16.8,31.179h2.905a3.11,3.11,0,0,0,2.936-2.045,27.132,27.132,0,0,1,9.427,1.8V61.5c-5.451-2.173-15.174-2.348-21.192-.273a.557.557,0,0,1-.732-.529V31.3Z" transform="translate(-5.601 -0.799)"/>
        <circle id="Elipse_11573" data-name="Elipse 11573" cx="0.664" cy="0.664" r="0.664" transform="translate(52.934 42.121)"/>
      </g>
    </g>
  </g>
</svg>
