<svg xmlns="http://www.w3.org/2000/svg" xmlns:xlink="http://www.w3.org/1999/xlink" width="78.5" height="72.824" viewBox="0 0 78.5 72.824">
  <defs>
    <clipPath id="clip-path">
      <rect id="Rectángulo_401173" data-name="Rectángulo 401173" width="60" height="60" transform="translate(249.263 6628.738)" fill="#fff" stroke="#707070" stroke-width="1"/>
    </clipPath>
    <clipPath id="clip-path-2">
      <path id="path2841" d="M0-60H60V0H0Z"/>
    </clipPath>
  </defs>
  <g id="Grupo_1099313" data-name="Grupo 1099313" transform="translate(-240.263 -6628.738)">
    <path id="_12068" data-name="12068" d="M72.033,71.913c-8.038-1.11-16.53-.839-23.844,2.675C38.045,79.46,31.382,90.507,31.127,101.757s5.606,22.305,14.66,28.988,21,9.051,32.068,7.045c11.165-2.023,21.645-8.583,27.469-18.322,3.735-6.245,5.48-13.956,3.417-20.934a28.6,28.6,0,0,0-6.787-11.156A50.145,50.145,0,0,0,72.033,71.913Z" transform="translate(209.144 6563.081)" fill="#26aab7"/>
    <g id="Enmascarar_grupo_1098701" data-name="Enmascarar grupo 1098701" clip-path="url(#clip-path)">
      <g id="g2835" transform="translate(249.263 6688.738)">
        <g id="g2837">
          <g id="g2839" clip-path="url(#clip-path-2)">
            <g id="g2845" transform="translate(23.393 -31.289)">
              <path id="path2847" d="M0,0H-15.849a5.15,5.15,0,0,0-5.142,5.157v8.454a5.15,5.15,0,0,0,5.142,5.157h5.014c.216,6.5,6.417,6.3,8.2,5.916a.134.134,0,0,0-.005-.262c-5.632-1.352-3.483-5.654-3.483-5.654H0a5.15,5.15,0,0,0,5.142-5.157V5.157A5.15,5.15,0,0,0,0,0" fill="#47d5e6"/>
            </g>
            <g id="g2849" transform="translate(23.393 -31.289)">
              <path id="path2851" d="M0,0H-3.516A5.15,5.15,0,0,1,1.626,5.157v8.454a5.15,5.15,0,0,1-5.142,5.157H0a5.15,5.15,0,0,0,5.142-5.157V5.157A5.15,5.15,0,0,0,0,0" fill="#22c0d4"/>
            </g>
            <g id="g2853" transform="translate(9.945 -43.54)">
              <path id="path2855" d="M0,0-8.874-4.994a.334.334,0,0,1-.192-.279.334.334,0,0,1,.192-.279L0-10.547Z" fill="#ebad88"/>
            </g>
            <g id="g2857" transform="translate(9.945 -47.055)">
              <path id="path2859" d="M0,0-9.066-1.758a.334.334,0,0,0,.192.279L0,3.516Z" fill="#e89776"/>
            </g>
            <g id="g2861" transform="translate(4.412 -46.654)">
              <path id="path2863" d="M0,0-3.341-1.88a.3.3,0,0,1,0-.559L0-4.318Z" fill="#50536e"/>
            </g>
            <path id="path2865" d="M9.945-54.086H59.121v3.516H9.945Z" fill="#ffd659"/>
            <path id="path2867" d="M9.945-50.571H59.121v3.516H9.945Z" fill="#ffbd54"/>
            <path id="path2869" d="M9.945-47.055H59.121v3.516H9.945Z" fill="#ffa954"/>
            <g id="g2871" transform="translate(34.235 -34.445)">
              <path id="path2873" d="M0,0H0A2.328,2.328,0,0,0-1.07-.786,30.47,30.47,0,0,1-7.348-3.839,7.174,7.174,0,0,0-11.371-5.05H-13.6a1,1,0,0,1-1-1V-7.13c0-1.455,1.192-3.037,4.433-3.037h5.4c1.71,0,3.095-2.277,3.095-3.987l.014-7.76A2.323,2.323,0,0,1,.667-24.237,2.323,2.323,0,0,1,2.99-21.914v-.439a2.323,2.323,0,0,1,2.323-2.323,2.323,2.323,0,0,1,2.323,2.323v.684a2.323,2.323,0,0,1,2.323-2.323,2.323,2.323,0,0,1,2.323,2.323v1.931a.107.107,0,0,0,.1.107c.045,0,.088-1.01.108-1.051a1.958,1.958,0,0,1,1.755-1.092A1.968,1.968,0,0,1,16.2-20.2v6.536h0V-1.034a2.091,2.091,0,0,1-2.091,2.09H2.125A2.665,2.665,0,0,1,0,0" fill="#ebad88"/>
            </g>
            <g id="g2875" transform="translate(50.434 -54.648)">
              <path id="path2877" d="M0,0A1.968,1.968,0,0,0-1.959-1.57,1.957,1.957,0,0,0-3.7-.5,6.923,6.923,0,0,1-3.516.99V6.536h0V19.17a2.09,2.09,0,0,1-2.091,2.09h3.516A2.09,2.09,0,0,0,0,19.17V6.536H0Z" fill="#e8916f"/>
            </g>
            <g id="g2879" transform="translate(53.022 -24.65)">
              <path id="path2881" d="M0,0V-7.64a1.1,1.1,0,0,0-1.1-1.1h-18.89a1.1,1.1,0,0,0-1.1,1.1V0a1.1,1.1,0,0,0,1.1,1.1H-1.1A1.1,1.1,0,0,0,0,0" fill="#dcdfe8"/>
            </g>
            <g id="g2883" transform="translate(51.921 -33.392)">
              <path id="path2885" d="M0,0H-3.516a1.1,1.1,0,0,1,1.1,1.1v7.64a1.1,1.1,0,0,1-1.1,1.1H0a1.1,1.1,0,0,0,1.1-1.1V1.1A1.1,1.1,0,0,0,0,0" fill="#cbcdd9"/>
            </g>
            <path id="path2887" d="M51.664-23.548H33.705V-.879H51.664Z" fill="#ff4b26"/>
            <path id="path2889" d="M48.148-.879h3.516V-23.548H48.148Z" fill="#eb4523"/>
            <g id="g2891" transform="translate(16.077 -26.772)">
              <path id="path2893" d="M0,0,1.093,2.191a.808.808,0,0,0,.609.437l2.445.351A.8.8,0,0,1,4.6,4.343L2.827,6.048a.794.794,0,0,0-.233.708l.418,2.408a.807.807,0,0,1-1.174.843L-.349,8.87a.816.816,0,0,0-.753,0l-2.187,1.137a.807.807,0,0,1-1.174-.843l.418-2.408a.794.794,0,0,0-.233-.708L-6.047,4.343A.8.8,0,0,1-5.6,2.979l2.445-.351a.808.808,0,0,0,.609-.437L-1.451,0A.813.813,0,0,1,0,0" fill="#ffd659"/>
            </g>
            <g id="g2895" transform="translate(18.903 -20.723)">
              <path id="path2897" d="M0,0A.794.794,0,0,0-.232.708L.185,3.115a.807.807,0,0,1-1.173.844L-1.3,3.794C-1.458-.468-3.461-2.059-4.432-5.737l.156-.312a.813.813,0,0,1,1.45,0l1.094,2.191a.807.807,0,0,0,.609.437l2.445.351A.8.8,0,0,1,1.77-1.705Z" fill="#ffbd54"/>
            </g>
            <g id="g2899" transform="translate(9.946 -43.54)">
              <path id="path2901" d="M0,0-8.874-4.994a.3.3,0,0,1,0-.559L0-10.547Z" fill="none" stroke="#000" stroke-linecap="round" stroke-linejoin="round" stroke-miterlimit="10" stroke-width="1.758"/>
            </g>
            <g id="g2903" transform="translate(52.48 -54.087)">
              <path id="path2905" d="M0,0H-2.046" fill="none" stroke="#000" stroke-linecap="round" stroke-linejoin="round" stroke-miterlimit="10" stroke-width="1.758"/>
            </g>
            <g id="g2907" transform="translate(50.434 -50.571)">
              <path id="path2909" d="M0,0H8.687V-3.516H5.816" fill="none" stroke="#000" stroke-linecap="round" stroke-linejoin="round" stroke-miterlimit="10" stroke-width="1.758"/>
            </g>
            <g id="g2911" transform="translate(32.573 -54.087)">
              <path id="path2913" d="M0,0H-22.628V3.516H-.006" fill="none" stroke="#000" stroke-linecap="round" stroke-linejoin="round" stroke-miterlimit="10" stroke-width="1.758"/>
            </g>
            <g id="g2915" transform="translate(50.434 -47.055)">
              <path id="path2917" d="M0,0H8.687V-3.516H0" fill="none" stroke="#000" stroke-linecap="round" stroke-linejoin="round" stroke-miterlimit="10" stroke-width="1.758"/>
            </g>
            <g id="g2919" transform="translate(32.568 -50.571)">
              <path id="path2921" d="M0,0H-22.622V3.516h22.3" fill="none" stroke="#000" stroke-linecap="round" stroke-linejoin="round" stroke-miterlimit="10" stroke-width="1.758"/>
            </g>
            <g id="g2923" transform="translate(20.519 -43.54)">
              <path id="path2925" d="M0,0H-10.574V-3.516h22.3" fill="none" stroke="#000" stroke-linecap="round" stroke-linejoin="round" stroke-miterlimit="10" stroke-width="1.758"/>
            </g>
            <g id="g2927" transform="translate(50.434 -47.055)">
              <path id="path2929" d="M0,0H8.687V3.516H0" fill="none" stroke="#000" stroke-linecap="round" stroke-linejoin="round" stroke-miterlimit="10" stroke-width="1.758"/>
            </g>
            <g id="g2931" transform="translate(4.412 -46.654)">
              <path id="path2933" d="M0,0-3.341-1.88a.3.3,0,0,1,0-.559L0-4.318Z" fill="none" stroke="#000" stroke-linecap="round" stroke-linejoin="round" stroke-miterlimit="10" stroke-width="1.758"/>
            </g>
            <g id="g2935" transform="translate(37.224 -56.359)">
              <path id="path2937" d="M0,0V2.9" fill="none" stroke="#000" stroke-linecap="round" stroke-linejoin="round" stroke-miterlimit="10" stroke-width="1.758"/>
            </g>
            <g id="g2939" transform="translate(41.87 -56.114)">
              <path id="path2941" d="M0,0V3.468" fill="none" stroke="#000" stroke-linecap="round" stroke-linejoin="round" stroke-miterlimit="10" stroke-width="1.758"/>
            </g>
            <g id="g2943" transform="translate(46.516 -54.086)">
              <path id="path2945" d="M0,0V3.045" fill="none" stroke="#000" stroke-linecap="round" stroke-linejoin="round" stroke-miterlimit="10" stroke-width="1.758"/>
            </g>
            <g id="g2947" transform="translate(53.022 -24.65)">
              <path id="path2949" d="M0,0V-7.64a1.1,1.1,0,0,0-1.1-1.1h-18.89a1.1,1.1,0,0,0-1.1,1.1V0a1.1,1.1,0,0,0,1.1,1.1H-1.1A1.1,1.1,0,0,0,0,0Z" fill="none" stroke="#000" stroke-linecap="round" stroke-linejoin="round" stroke-miterlimit="10" stroke-width="1.758"/>
            </g>
            <g id="g2951" transform="translate(33.705 -3.789)">
              <path id="path2953" d="M0,0V2.91H17.959V-19.759H0V-3.75" fill="none" stroke="#000" stroke-linecap="round" stroke-linejoin="round" stroke-miterlimit="10" stroke-width="1.758"/>
            </g>
            <g id="g2955" transform="translate(50.434 -35.479)">
              <path id="path2957" d="M0,0A2.09,2.09,0,0,1-2.091,2.09H-14.074A2.665,2.665,0,0,1-16.2,1.034,2.33,2.33,0,0,0-17.27.247a30.47,30.47,0,0,1-6.278-3.053,7.175,7.175,0,0,0-4.023-1.21H-29.8a1,1,0,0,1-1-1V-6.1c0-1.456,1.192-3.038,4.433-3.038h5.4c1.71,0,3.095-2.277,3.095-3.987l.014-7.76A2.323,2.323,0,0,1-15.533-23.2,2.323,2.323,0,0,1-13.21-20.88v-.439a2.323,2.323,0,0,1,2.323-2.323A2.323,2.323,0,0,1-8.564-21.32v.684a2.323,2.323,0,0,1,2.323-2.323,2.323,2.323,0,0,1,2.323,2.323V-18.7c0,.055.184-.9.2-.944A1.957,1.957,0,0,1-1.959-20.74,1.968,1.968,0,0,1,0-19.17v6.536H0Z" fill="none" stroke="#000" stroke-linecap="round" stroke-linejoin="round" stroke-miterlimit="10" stroke-width="1.758"/>
            </g>
            <g id="g2959" transform="translate(9.375 -31.289)">
              <path id="path2961" d="M0,0H-1.831A5.15,5.15,0,0,0-6.973,5.157v8.454a5.15,5.15,0,0,0,5.142,5.157H3.183c.216,6.5,6.417,6.3,8.2,5.916a.134.134,0,0,0-.005-.262c-5.632-1.352-3.483-5.654-3.483-5.654h6.125a5.15,5.15,0,0,0,5.142-5.157V5.157A5.15,5.15,0,0,0,14.018,0H3.75" fill="none" stroke="#000" stroke-linecap="round" stroke-linejoin="round" stroke-miterlimit="10" stroke-width="1.758"/>
            </g>
            <g id="g2963" transform="translate(16.077 -26.772)">
              <path id="path2965" d="M0,0,1.093,2.191a.808.808,0,0,0,.609.437l2.445.351A.8.8,0,0,1,4.6,4.343L2.827,6.048a.794.794,0,0,0-.233.708l.418,2.408a.807.807,0,0,1-1.174.843L-.349,8.87a.816.816,0,0,0-.753,0l-2.187,1.137a.807.807,0,0,1-1.174-.843l.418-2.408a.794.794,0,0,0-.233-.708L-6.047,4.343A.8.8,0,0,1-5.6,2.979l2.445-.351a.808.808,0,0,0,.609-.437L-1.451,0A.813.813,0,0,1,0,0Z" fill="none" stroke="#000" stroke-linecap="round" stroke-linejoin="round" stroke-miterlimit="10" stroke-width="1.758"/>
            </g>
          </g>
        </g>
      </g>
    </g>
  </g>
</svg>
