<svg xmlns="http://www.w3.org/2000/svg" xmlns:xlink="http://www.w3.org/1999/xlink" width="78.501" height="74.824" viewBox="0 0 78.501 74.824">
  <defs>
    <clipPath id="clip-path">
      <rect id="Rectángulo_401173" data-name="Rectángulo 401173" width="64" height="64" transform="translate(252.264 6631.738)" fill="#fff" stroke="#707070" stroke-width="1"/>
    </clipPath>
  </defs>
  <g id="Grupo_1099291" data-name="Grupo 1099291" transform="translate(-240.263 -6626.738)">
    <path id="_12068" data-name="12068" d="M72.033,71.913c-8.038-1.11-16.53-.839-23.844,2.675C38.045,79.46,31.382,90.507,31.127,101.757s5.606,22.305,14.66,28.988,21,9.051,32.068,7.045c11.165-2.023,21.645-8.583,27.469-18.322,3.735-6.245,5.48-13.956,3.417-20.934a28.6,28.6,0,0,0-6.787-11.156A50.145,50.145,0,0,0,72.033,71.913Z" transform="translate(209.144 6563.081)" fill="#26aab7"/>
    <g id="Enmascarar_grupo_1098693" data-name="Enmascarar grupo 1098693" transform="translate(-5 -5)" clip-path="url(#clip-path)">
      <g id="lectura" transform="translate(255.326 6631.738)">
        <g id="Grupo_1099307" data-name="Grupo 1099307" transform="translate(0.945 0.959)">
          <path id="Trazado_873428" data-name="Trazado 873428" d="M39.377,12.291c0-7.462-5.96-11.23-12.18-11.482h-1.35a15.727,15.727,0,0,0-5.663,1.275,10.807,10.807,0,0,0-6.861,10.207c11.347-.1,10.4,10.752,26.054,0Zm0,0" transform="translate(1.522 -0.81)" fill="gray" fill-rule="evenodd"/>
          <path id="Trazado_873429" data-name="Trazado 873429" d="M39.377,10.6c-15.6,5.929-14.679-3.067-26.054,0v7.076c0,3.053,1.857,6.612,4.632,9.279,6.067,5.281,11.627,4.884,16.787,0,2.775-2.667,4.635-6.229,4.635-9.283Zm0,0" transform="translate(1.522 0.882)" fill="#ffdda6" fill-rule="evenodd"/>
          <path id="Trazado_873430" data-name="Trazado 873430" d="M28.11,58.917l3.239-15.126L28.11,26.107l-8.4-1.449L6.517,22.385a2.218,2.218,0,0,0-2.661,2.281V52a3.351,3.351,0,0,0,2.661,3.194Zm0,0" transform="translate(-0.231 3.179)" fill="#e6e6e6" fill-rule="evenodd"/>
          <path id="Trazado_873431" data-name="Trazado 873431" d="M45.917,22.385,32.705,24.662,24.32,26.107v32.81l21.6-3.726A3.352,3.352,0,0,0,48.578,52V24.666a2.218,2.218,0,0,0-2.661-2.281Zm0,0" transform="translate(3.559 3.179)" fill="#c2c7cc" fill-rule="evenodd"/>
          <path id="Trazado_873432" data-name="Trazado 873432" d="M49.238,36.511a3.86,3.86,0,0,0-3.849-3.846H43.706a2.171,2.171,0,0,0-2.165,2.164v6.956a2.171,2.171,0,0,0,2.165,2.164h1.684a3.858,3.858,0,0,0,3.849-3.843Zm0,0" transform="translate(6.748 5.089)" fill="#fcc368" fill-rule="evenodd"/>
          <path id="Trazado_873433" data-name="Trazado 873433" d="M8.494,42.489V35.537A2.173,2.173,0,0,0,6.326,33.37H4.646c-.075,0-.149,0-.223.007A3.858,3.858,0,0,0,.8,37.216v3.595A3.858,3.858,0,0,0,4.423,44.65c.074,0,.148.007.223.007h1.68A2.173,2.173,0,0,0,8.494,42.489Zm0,0" transform="translate(-0.797 5.22)" fill="#fcc368" fill-rule="evenodd"/>
          <path id="Trazado_873434" data-name="Trazado 873434" d="M21,29.8,8.857,27.747a.489.489,0,0,0-.582.5v4.431a.727.727,0,0,0,.582.694L21,35.429a.488.488,0,0,0,.581-.5V30.5A.727.727,0,0,0,21,29.8Zm0,0" transform="translate(0.588 4.177)" fill="#64b0d9" fill-rule="evenodd"/>
          <path id="Trazado_873435" data-name="Trazado 873435" d="M39.27,40.746l-8.8,1.445a.687.687,0,0,0-.563.651V47a.465.465,0,0,0,.563.467l8.8-1.441a.694.694,0,0,0,.56-.655V41.214a.464.464,0,0,0-.56-.468Zm0,0" transform="translate(4.593 6.585)" fill="#64b0d9" fill-rule="evenodd"/>
          <path id="Trazado_873436" data-name="Trazado 873436" d="M38.067,12.291c0-7.462-5.96-11.23-12.18-11.482h-1.35a16.119,16.119,0,0,0-4.139.7c6.378.089,12.626,3.857,12.626,11.5v.836a36.867,36.867,0,0,0,5.043-1.555Zm0,0" transform="translate(2.832 -0.81)" fill="#666" fill-rule="evenodd"/>
          <path id="Trazado_873437" data-name="Trazado 873437" d="M36.654,17.574V10.5a36.789,36.789,0,0,1-5.043,1.555v6.241a16.611,16.611,0,0,1-3.586,9.25l3.994-.687c2.775-2.667,4.635-6.229,4.635-9.283Zm0,0" transform="translate(4.245 0.985)" fill="#fcc368" fill-rule="evenodd"/>
        </g>
        <path id="Trazado_873438" data-name="Trazado 873438" d="M20.769,15.33a.945.945,0,0,0-.945.945V17.33a.945.945,0,0,0,1.89,0V16.275A.945.945,0,0,0,20.769,15.33Zm0,0" transform="translate(3.671 2.839)"/>
        <path id="Trazado_873439" data-name="Trazado 873439" d="M28.17,18.275a.945.945,0,0,0,.945-.945V16.275a.945.945,0,0,0-1.89,0V17.33A.945.945,0,0,0,28.17,18.275Zm0,0" transform="translate(5.042 2.839)"/>
        <path id="Trazado_873440" data-name="Trazado 873440" d="M10.819,37.542l9.93,1.842a.958.958,0,0,0,.173.016.945.945,0,0,0,.171-1.874l-9.93-1.842a.945.945,0,0,0-.345,1.858Zm0,0" transform="translate(1.86 6.605)"/>
        <path id="Trazado_873441" data-name="Trazado 873441" d="M10.819,41.744l9.93,1.842a.958.958,0,0,0,.173.016.945.945,0,0,0,.171-1.874l-9.93-1.842a.945.945,0,0,0-.345,1.858Zm0,0" transform="translate(1.86 7.383)"/>
        <path id="Trazado_873442" data-name="Trazado 873442" d="M21.524,46.009,8.837,43.657a.945.945,0,1,0-.344,1.858L21.18,47.867a.945.945,0,1,0,.344-1.858Zm0,0" transform="translate(1.43 8.082)"/>
        <path id="Trazado_873443" data-name="Trazado 873443" d="M44.212,27.542a.944.944,0,0,0-1.1-.756L29.878,29.243a.945.945,0,0,0,.171,1.874.922.922,0,0,0,.174-.016l13.232-2.458a.945.945,0,0,0,.756-1.1Zm0,0" transform="translate(5.39 4.957)"/>
        <path id="Trazado_873444" data-name="Trazado 873444" d="M40.905,32.263a.945.945,0,0,0-1.1-.756l-9.926,1.842a.945.945,0,0,0,.171,1.874.954.954,0,0,0,.173-.016l9.926-1.841A.945.945,0,0,0,40.905,32.263Zm0,0" transform="translate(5.39 5.832)"/>
        <path id="Trazado_873445" data-name="Trazado 873445" d="M39.259,35.792l-9.38,1.742a.945.945,0,0,0,.171,1.874.922.922,0,0,0,.174-.016L39.6,37.65a.945.945,0,1,0-.345-1.857Zm0,0" transform="translate(5.39 6.625)"/>
        <path id="Trazado_873446" data-name="Trazado 873446" d="M29.6,48.23a1.422,1.422,0,0,0,.928.337,1.5,1.5,0,0,0,.237-.019h0l8.811-1.443a1.63,1.63,0,0,0,1.344-1.586V41.361a1.42,1.42,0,0,0-.493-1.084,1.438,1.438,0,0,0-1.165-.316l-8.8,1.444a1.621,1.621,0,0,0-1.36,1.585v4.158A1.416,1.416,0,0,0,29.6,48.23Zm1.4-5,8.037-1.319V45.28L31,46.6Zm0,0" transform="translate(5.39 7.397)"/>
        <path id="Trazado_873447" data-name="Trazado 873447" d="M21.3,29.021l-4.228-.715a.945.945,0,1,0-.315,1.863l4.022.681v3.708L9.368,32.622V28.914l3.119.528A.945.945,0,0,0,12.8,27.58L9.16,26.963a1.432,1.432,0,0,0-1.681,1.431v4.431a1.66,1.66,0,0,0,1.368,1.626L20.99,36.508a1.493,1.493,0,0,0,.246.021,1.43,1.43,0,0,0,.928-.337,1.453,1.453,0,0,0,.508-1.115V30.646A1.66,1.66,0,0,0,21.3,29.021Zm0,0" transform="translate(1.385 4.989)"/>
        <path id="Trazado_873448" data-name="Trazado 873448" d="M54.026,37.863V28.8a3.286,3.286,0,0,0-1.13-2.533,3.181,3.181,0,0,0-2.637-.679L39.716,27.41a13.6,13.6,0,0,0,3.073-7.892V12.441a11.6,11.6,0,0,0-5.3-10.059A16.644,16.644,0,0,0,22.271,1.37a11.747,11.747,0,0,0-7.426,11.072v7.076a13.6,13.6,0,0,0,3.069,7.889L7.391,25.592a3.183,3.183,0,0,0-2.636.679A3.286,3.286,0,0,0,3.626,28.8v9.945A4.8,4.8,0,0,0,0,43.4v3.6a4.8,4.8,0,0,0,3.625,4.646v4.5a4.268,4.268,0,0,0,3.445,4.125l21.593,3.726h0a.935.935,0,0,0,.157.013.913.913,0,0,0,.155-.013h.005L39.1,62.24a.945.945,0,0,0-.321-1.862l-9.009,1.555V31.041l7.611-1.312h.006L50.58,27.454a1.324,1.324,0,0,1,1.1.261,1.387,1.387,0,0,1,.458,1.089v8.965H51.4a3.113,3.113,0,0,0-3.11,3.108v6.956a3.113,3.113,0,0,0,3.11,3.108h.739v5.193A2.4,2.4,0,0,1,50.26,58.4l-6.574,1.133a.945.945,0,0,0,.16,1.876.916.916,0,0,0,.162-.014l6.573-1.133a4.268,4.268,0,0,0,3.446-4.126V50.848a4.8,4.8,0,0,0,3.849-4.694V42.56a4.8,4.8,0,0,0-3.849-4.7ZM23.031,3.1a14.684,14.684,0,0,1,13.429.865,9.551,9.551,0,0,1,4.423,7.827c-7.93,2.888-11.223,1.641-14.411.433a16.316,16.316,0,0,0-6.206-1.385,16.764,16.764,0,0,0-3.47.388A9.925,9.925,0,0,1,23.031,3.1Zm-6.3,16.418V13.178a13.393,13.393,0,0,1,9.069.813,17.464,17.464,0,0,0,6.713,1.457A25.629,25.629,0,0,0,40.9,13.789v5.729c0,2.66-1.581,5.856-4.141,8.4l-7.934,1.368-7.952-1.371c-2.558-2.543-4.138-5.739-4.138-8.4ZM1.889,46.99V43.4a2.906,2.906,0,0,1,2.9-2.9h1.68A1.225,1.225,0,0,1,7.7,41.717v6.952a1.225,1.225,0,0,1-1.224,1.223H4.793a2.906,2.906,0,0,1-2.9-2.9Zm3.625,9.145V51.781h.958a3.116,3.116,0,0,0,3.113-3.112V41.717a3.116,3.116,0,0,0-3.113-3.112H5.515V28.8a1.386,1.386,0,0,1,.458-1.089,1.325,1.325,0,0,1,1.1-.261l20.808,3.587V61.934L7.392,58.4a2.4,2.4,0,0,1-1.877-2.263Zm50.471-9.98a2.9,2.9,0,0,1-2.9,2.9H51.4a1.221,1.221,0,0,1-1.221-1.219V40.877A1.221,1.221,0,0,1,51.4,39.658h1.684a2.906,2.906,0,0,1,2.9,2.9Zm0,0" transform="translate(0 0)"/>
      </g>
    </g>
  </g>
</svg>
