<svg xmlns="http://www.w3.org/2000/svg" xmlns:xlink="http://www.w3.org/1999/xlink" width="150" height="150" viewBox="0 0 150 150">
  <defs>
    <clipPath id="clip-path">
      <rect id="Rectángulo_401168" data-name="Rectángulo 401168" width="150" height="126.971" fill="none"/>
    </clipPath>
  </defs>
  <g id="Grupo_1099512" data-name="Grupo 1099512" transform="translate(-556.5 -509.919)">
    <path id="_12068" data-name="12068" d="M92.482,72.366C80.426,70.39,67.691,70.874,56.72,77.128,41.506,85.8,31.514,105.464,31.131,125.491s8.407,39.705,21.987,51.6a55.29,55.29,0,0,0,48.1,12.54c16.746-3.6,32.464-15.279,41.2-32.614,5.6-11.116,8.219-24.842,5.125-37.264A53.335,53.335,0,0,0,137.359,99.9C126.222,85.72,110.734,75.358,92.482,72.366Z" transform="translate(540.513 469.057)" fill="#26aab7"/>
    <g id="Grupo_1099278" data-name="Grupo 1099278" transform="translate(556.5 509.919)">
      <path id="Trazado_873312" data-name="Trazado 873312" d="M0,251.5l86,14.945V189.767l-68.534-9.41Z" transform="translate(0 -139.478)" fill="#7d6eb2"/>
      <path id="Trazado_873313" data-name="Trazado 873313" d="M326.614,189.768V266.45l86-14.945-17.467-71.146Z" transform="translate(-262.614 -139.479)" fill="#7d6eb2"/>
      <g id="Grupo_1099276" data-name="Grupo 1099276">
        <g id="Grupo_1099275" data-name="Grupo 1099275" clip-path="url(#clip-path)">
          <path id="Trazado_873314" data-name="Trazado 873314" d="M85.795,200.029v67.785l-3.091-.543L14.013,255.2l.007-.03-.007,0,.007-.028a.011.011,0,0,0-.007,0l.007-.03h-.007l.007-.03h-.007l.007-.03h-.007l.007-.03h-.007l.007-.033h-.007l.007-.03h-.007l.007-.03h-.007l.007-.03h-.007l.007-.03h-.007l.007-.03h-.007l.007-.033h-.007l.007-.03h-.007l.007-.03h-.007l.007-.03h-.007l.007-.03h-.007l.007-.033a.008.008,0,0,1-.007,0l.007-.033h-.007l.007-.03h-.007l.007-.03h-.007l.007-.03h-.007l.007-.03h-.007l.007-.033a.008.008,0,0,0-.007,0l.007-.033h-.007l.007-.03h-.007l.007-.03h-.007l.007-.03h-.007l.007-.03h-.007l.007-.033a.008.008,0,0,0-.007,0l.007-.033h-.007l.007-.03h-.007l.007-.03h-.007l.007-.03h-.007l.007-.03h-.007l.007-.033h-.007l.007-.03h-.007l.007-.03h-.007l.007-.03h-.007l.007-.03h-.007l.007-.03h-.007l.007-.033h-.007l.007-.03h-.007l.007-.03h-.007l.007-.03h-.007l.007-.03h-.007l.007-.033a.008.008,0,0,1-.007,0l.007-.033h-.007l.007-.03h-.007l.007-.03h-.007l.007-.03h-.007l.007-.03h-.007l.007-.033a.008.008,0,0,1-.007,0l.007-.033h-.007l.007-.03h-.007l.007-.03h-.007l.007-.03h-.007l.007-.03h-.007l.007-.033a.008.008,0,0,0-.007,0l.007-.033h-.007l.007-.03h-.007l.007-.03h-.007l.007-.03h-.007l.007-.03h-.007l.007-.033a.008.008,0,0,0-.007,0l.007-.033h-.007l.007-.03h-.007l.007-.03h-.007l.007-.03h-.007l.007-.03h-.007l.007-.033h-.007l.007-.03h-.007l.007-.03h-.007l.007-.03h-.007l.007-.03h-.007l.007-.03h-.007l.007-.033h-.007l.007-.03h-.007l.007-.03h-.007l.007-.03h-.007l.007-.03h-.007l.007-.033a.008.008,0,0,1-.007,0l.007-.033h-.007l.007-.03h-.007l.007-.03h-.007l.007-.03h-.007l.007-.03h-.007l.007-.033-.007,0,.007-.033h-.007l.007-.03h-.007l.007-.03h-.007l.007-.03h-.007l.007-.03h-.007l.007-.033a.008.008,0,0,0-.007,0l.007-.033h-.007l.007-.03h-.007l.007-.03h-.007l.007-.03h-.007l.007-.03h-.007l.007-.033a.008.008,0,0,0-.007,0l.007-.033,14.572-60.034a109.737,109.737,0,0,1,51.742,5.934l3.876,1.427Z" transform="translate(-10.795 -143.356)" fill="#62529b"/>
          <path id="Trazado_873315" data-name="Trazado 873315" d="M398.395,252.179h-.007l.007.03h-.007l.007.03h-.007l.007.03h-.007l.007.03h-.007l.007.033a.008.008,0,0,0-.007,0l.007.033h-.007l.007.03h-.007l.007.03h-.007l.007.03h-.007l.007.03h-.007l.007.033-.007,0,.007.033h-.007l.007.03h-.007l.007.03h-.007l.007.03h-.007l.007.03h-.007l.007.033a.008.008,0,0,1-.007,0l.007.033h-.007l.007.03h-.007l.007.03h-.007l.007.03h-.007l.007.03h-.007l.007.033h-.007l.007.03h-.007l.007.03h-.007l.007.03h-.007l.007.03h-.007l.007.03h-.007l.007.033h-.007l.007.03h-.007l.007.03h-.007l.007.03h-.007l.007.03h-.007l.007.033a.008.008,0,0,0-.007,0l.007.033h-.007l.007.03h-.007l.007.03h-.007l.007.03h-.007l.007.03h-.007l.007.033a.008.008,0,0,0-.007,0l.007.033h-.007l.007.03h-.007l.007.03h-.007l.007.03h-.007l.007.03h-.007l.007.033a.008.008,0,0,1-.007,0l.007.033h-.007l.007.03h-.007l.007.03h-.007l.007.03h-.007l.007.03h-.007l.007.033a.008.008,0,0,1-.007,0l.007.033h-.007l.007.03h-.007l.007.03h-.007l.007.03h-.007l.007.03h-.007l.007.033h-.007l.007.03h-.007l.007.03h-.007l.007.03h-.007l.007.03h-.007l.007.03h-.007l.007.033h-.007l.007.03h-.007l.007.03h-.007l.007.03h-.007l.007.03h-.007l.007.033a.008.008,0,0,0-.007,0l.007.033h-.007l.007.03h-.007l.007.03h-.007l.007.03h-.007l.007.03h-.007l.007.033a.008.008,0,0,0-.007,0l.007.033h-.007l.007.03h-.007l.007.03h-.007l.007.03h-.007l.007.03h-.007l.007.033a.008.008,0,0,1-.007,0l.007.033h-.007l.007.03h-.007l.007.03h-.007l.007.03h-.007l.007.03h-.007l.007.033h-.007l.007.03h-.007l.007.03h-.007l.007.03h-.007l.007.03h-.007l.007.03h-.007l.007.033h-.007l.007.03h-.007l.007.03h-.007l.007.03h-.007l.007.03a.011.011,0,0,0-.007,0l.007.027-.007,0,.007.03-68.6,12.056v0l-3.183.558V200.026l1.676-.616,3.784-1.394a110.271,110.271,0,0,1,38.093-6.808,106.526,106.526,0,0,1,13.649.873l14.572,60.034.007.033a.008.008,0,0,0-.007,0Z" transform="translate(-251.613 -143.354)" fill="#62529b"/>
          <path id="Trazado_873316" data-name="Trazado 873316" d="M85.795,180.029v67.785l-3.091-.543L14.013,235.2l.007-.03-.007,0,.007-.028a.011.011,0,0,0-.007,0l.007-.03h-.007l.007-.03h-.007l.007-.03h-.007l.007-.03h-.007l.007-.033h-.007l.007-.03h-.007l.007-.03h-.007l.007-.03h-.007l.007-.03h-.007l.007-.03h-.007l.007-.033h-.007l.007-.03h-.007l.007-.03h-.007l.007-.03h-.007l.007-.03h-.007l.007-.033a.008.008,0,0,1-.007,0l.007-.033h-.007l.007-.03h-.007l.007-.03h-.007l.007-.03h-.007l.007-.03h-.007l.007-.033a.008.008,0,0,0-.007,0l.007-.033h-.007l.007-.03h-.007l.007-.03h-.007l.007-.03h-.007l.007-.03h-.007l.007-.033a.008.008,0,0,0-.007,0l.007-.033h-.007l.007-.03h-.007l.007-.03h-.007l.007-.03h-.007l.007-.03h-.007l.007-.033h-.007l.007-.03h-.007l.007-.03h-.007l.007-.03h-.007l.007-.03h-.007l.007-.03h-.007l.007-.033h-.007l.007-.03h-.007l.007-.03h-.007l.007-.03h-.007l.007-.03h-.007l.007-.033a.008.008,0,0,1-.007,0l.007-.033h-.007l.007-.03h-.007l.007-.03h-.007l.007-.03h-.007l.007-.03h-.007l.007-.033a.008.008,0,0,1-.007,0l.007-.033h-.007l.007-.03h-.007l.007-.03h-.007l.007-.03h-.007l.007-.03h-.007l.007-.033a.008.008,0,0,0-.007,0l.007-.033h-.007l.007-.03h-.007l.007-.03h-.007l.007-.03h-.007l.007-.03h-.007l.007-.033a.008.008,0,0,0-.007,0l.007-.033h-.007l.007-.03h-.007l.007-.03h-.007l.007-.03h-.007l.007-.03h-.007l.007-.033h-.007l.007-.03h-.007l.007-.03h-.007l.007-.03h-.007l.007-.03h-.007l.007-.03h-.007l.007-.033h-.007l.007-.03h-.007l.007-.03h-.007l.007-.03h-.007l.007-.03h-.007l.007-.033a.008.008,0,0,1-.007,0l.007-.033h-.007l.007-.03h-.007l.007-.03h-.007l.007-.03h-.007l.007-.03h-.007l.007-.033-.007,0,.007-.033h-.007l.007-.03h-.007l.007-.03h-.007l.007-.03h-.007l.007-.03h-.007l.007-.033a.008.008,0,0,0-.007,0l.007-.033h-.007l.007-.03h-.007l.007-.03h-.007l.007-.03h-.007l.007-.03h-.007l.007-.033a.008.008,0,0,0-.007,0l.007-.033,14.572-60.034a109.737,109.737,0,0,1,51.742,5.934l3.876,1.427Z" transform="translate(-10.795 -128.362)" fill="#d7d8da"/>
          <path id="Trazado_873317" data-name="Trazado 873317" d="M398.395,232.179h-.007l.007.03h-.007l.007.03h-.007l.007.03h-.007l.007.03h-.007l.007.033a.008.008,0,0,0-.007,0l.007.033h-.007l.007.03h-.007l.007.03h-.007l.007.03h-.007l.007.03h-.007l.007.033-.007,0,.007.033h-.007l.007.03h-.007l.007.03h-.007l.007.03h-.007l.007.03h-.007l.007.033a.008.008,0,0,1-.007,0l.007.033h-.007l.007.03h-.007l.007.03h-.007l.007.03h-.007l.007.03h-.007l.007.033h-.007l.007.03h-.007l.007.03h-.007l.007.03h-.007l.007.03h-.007l.007.03h-.007l.007.033h-.007l.007.03h-.007l.007.03h-.007l.007.03h-.007l.007.03h-.007l.007.033a.008.008,0,0,0-.007,0l.007.033h-.007l.007.03h-.007l.007.03h-.007l.007.03h-.007l.007.03h-.007l.007.033a.008.008,0,0,0-.007,0l.007.033h-.007l.007.03h-.007l.007.03h-.007l.007.03h-.007l.007.03h-.007l.007.033a.008.008,0,0,1-.007,0l.007.033h-.007l.007.03h-.007l.007.03h-.007l.007.03h-.007l.007.03h-.007l.007.033a.008.008,0,0,1-.007,0l.007.033h-.007l.007.03h-.007l.007.03h-.007l.007.03h-.007l.007.03h-.007l.007.033h-.007l.007.03h-.007l.007.03h-.007l.007.03h-.007l.007.03h-.007l.007.03h-.007l.007.033h-.007l.007.03h-.007l.007.03h-.007l.007.03h-.007l.007.03h-.007l.007.033a.008.008,0,0,0-.007,0l.007.033h-.007l.007.03h-.007l.007.03h-.007l.007.03h-.007l.007.03h-.007l.007.033a.008.008,0,0,0-.007,0l.007.033h-.007l.007.03h-.007l.007.03h-.007l.007.03h-.007l.007.03h-.007l.007.033a.008.008,0,0,1-.007,0l.007.033h-.007l.007.03h-.007l.007.03h-.007l.007.03h-.007l.007.03h-.007l.007.033h-.007l.007.03h-.007l.007.03h-.007l.007.03h-.007l.007.03h-.007l.007.03h-.007l.007.033h-.007l.007.03h-.007l.007.03h-.007l.007.03h-.007l.007.03a.011.011,0,0,0-.007,0l.007.028-.007,0,.007.03-68.6,12.056v0l-3.183.558V180.026l1.676-.616,3.784-1.394a110.271,110.271,0,0,1,38.093-6.808,106.531,106.531,0,0,1,13.649.873l14.572,60.034.007.033a.008.008,0,0,0-.007,0Z" transform="translate(-251.613 -128.359)" fill="#d7d8da"/>
          <path id="Trazado_873318" data-name="Trazado 873318" d="M85.795,180.029v67.785l-3.091-.543L14.013,235.2l.007-.03-.007,0,.007-.028a.011.011,0,0,0-.007,0l.007-.03h-.007l.007-.03h-.007l.007-.03h-.007l.007-.03h-.007l.007-.033h-.007l.007-.03h-.007l.007-.03h-.007l.007-.03h-.007l.007-.03h-.007l.007-.03h-.007l.007-.033h-.007l.007-.03h-.007l.007-.03h-.007l.007-.03h-.007l.007-.03h-.007l.007-.033a.008.008,0,0,1-.007,0l.007-.033h-.007l.007-.03h-.007l.007-.03h-.007l.007-.03h-.007l.007-.03h-.007l.007-.033a.008.008,0,0,0-.007,0l.007-.033h-.007l.007-.03h-.007l.007-.03h-.007l.007-.03h-.007l.007-.03h-.007l.007-.033a.008.008,0,0,0-.007,0l.007-.033h-.007l.007-.03h-.007l.007-.03h-.007l.007-.03h-.007l.007-.03h-.007l.007-.033h-.007l.007-.03h-.007l.007-.03h-.007l.007-.03h-.007l.007-.03h-.007l.007-.03h-.007l.007-.033h-.007l.007-.03h-.007l.007-.03h-.007l.007-.03h-.007l.007-.03h-.007l.007-.033a.008.008,0,0,1-.007,0l.007-.033h-.007l.007-.03h-.007l.007-.03h-.007l.007-.03h-.007l.007-.03h-.007l.007-.033a.008.008,0,0,1-.007,0l.007-.033h-.007l.007-.03h-.007l.007-.03h-.007l.007-.03h-.007l.007-.03h-.007l.007-.033a.008.008,0,0,0-.007,0l.007-.033h-.007l.007-.03h-.007l.007-.03h-.007l.007-.03h-.007l.007-.03h-.007l.007-.033a.008.008,0,0,0-.007,0l.007-.033h-.007l.007-.03h-.007l.007-.03h-.007l.007-.03h-.007l.007-.03h-.007l.007-.033h-.007l.007-.03h-.007l.007-.03h-.007l.007-.03h-.007l.007-.03h-.007l.007-.03h-.007l.007-.033h-.007l.007-.03h-.007l.007-.03h-.007l.007-.03h-.007l.007-.03h-.007l.007-.033a.008.008,0,0,1-.007,0l.007-.033h-.007l.007-.03h-.007l.007-.03h-.007l.007-.03h-.007l.007-.03h-.007l.007-.033-.007,0,.007-.033h-.007l.007-.03h-.007l.007-.03h-.007l.007-.03h-.007l.007-.03h-.007l.007-.033a.008.008,0,0,0-.007,0l.007-.033h-.007l.007-.03h-.007l.007-.03h-.007l.007-.03h-.007l.007-.03h-.007l.007-.033a.008.008,0,0,0-.007,0l.007-.033,14.572-60.034a109.737,109.737,0,0,1,51.742,5.934l3.876,1.427Z" transform="translate(-10.795 -128.362)" fill="#d7d8da"/>
          <path id="Trazado_873319" data-name="Trazado 873319" d="M85.795,179.839v64.74l-3.01-1.069-6.216-2.2a164.5,164.5,0,0,0-62.549-9.348h-.007l14.579-60.067a108.479,108.479,0,0,1,51.745,5.924l3.874,1.437Z" transform="translate(-10.795 -128.202)" fill="#fff"/>
          <path id="Trazado_873320" data-name="Trazado 873320" d="M398.395,232.179h-.007l.007.03h-.007l.007.03h-.007l.007.03h-.007l.007.03h-.007l.007.033a.008.008,0,0,0-.007,0l.007.033h-.007l.007.03h-.007l.007.03h-.007l.007.03h-.007l.007.03h-.007l.007.033-.007,0,.007.033h-.007l.007.03h-.007l.007.03h-.007l.007.03h-.007l.007.03h-.007l.007.033a.008.008,0,0,1-.007,0l.007.033h-.007l.007.03h-.007l.007.03h-.007l.007.03h-.007l.007.03h-.007l.007.033h-.007l.007.03h-.007l.007.03h-.007l.007.03h-.007l.007.03h-.007l.007.03h-.007l.007.033h-.007l.007.03h-.007l.007.03h-.007l.007.03h-.007l.007.03h-.007l.007.033a.008.008,0,0,0-.007,0l.007.033h-.007l.007.03h-.007l.007.03h-.007l.007.03h-.007l.007.03h-.007l.007.033a.008.008,0,0,0-.007,0l.007.033h-.007l.007.03h-.007l.007.03h-.007l.007.03h-.007l.007.03h-.007l.007.033a.008.008,0,0,1-.007,0l.007.033h-.007l.007.03h-.007l.007.03h-.007l.007.03h-.007l.007.03h-.007l.007.033a.008.008,0,0,1-.007,0l.007.033h-.007l.007.03h-.007l.007.03h-.007l.007.03h-.007l.007.03h-.007l.007.033h-.007l.007.03h-.007l.007.03h-.007l.007.03h-.007l.007.03h-.007l.007.03h-.007l.007.033h-.007l.007.03h-.007l.007.03h-.007l.007.03h-.007l.007.03h-.007l.007.033a.008.008,0,0,0-.007,0l.007.033h-.007l.007.03h-.007l.007.03h-.007l.007.03h-.007l.007.03h-.007l.007.033a.008.008,0,0,0-.007,0l.007.033h-.007l.007.03h-.007l.007.03h-.007l.007.03h-.007l.007.03h-.007l.007.033a.008.008,0,0,1-.007,0l.007.033h-.007l.007.03h-.007l.007.03h-.007l.007.03h-.007l.007.03h-.007l.007.033h-.007l.007.03h-.007l.007.03h-.007l.007.03h-.007l.007.03h-.007l.007.03h-.007l.007.033h-.007l.007.03h-.007l.007.03h-.007l.007.03h-.007l.007.03a.011.011,0,0,0-.007,0l.007.028-.007,0,.007.03-68.6,12.056v0l-3.183.558V180.026l1.676-.616,3.784-1.394a110.271,110.271,0,0,1,38.093-6.808,106.531,106.531,0,0,1,13.649.873l14.572,60.034.007.033a.008.008,0,0,0-.007,0Z" transform="translate(-251.613 -128.359)" fill="#d7d8da"/>
          <path id="Trazado_873321" data-name="Trazado 873321" d="M398.395,231.959h-.007a164.509,164.509,0,0,0-62.548,9.348l-6.124,2.172-3.1,1.1v-64.74l1.674-.621,3.787-1.4a108.469,108.469,0,0,1,51.742-5.924Z" transform="translate(-251.613 -128.202)" fill="#fff"/>
          <path id="Trazado_873322" data-name="Trazado 873322" d="M319.616,268.1l-3.1,1.1-3.01-1.069,1.426-64.224v-.033l1.584.586,1.674-.621,0,.035Z" transform="translate(-241.514 -152.823)" fill="#e8e8e9"/>
          <path id="Trazado_873323" data-name="Trazado 873323" d="M75,454.719,0,440.513l.755-3.354L75,451.074Z" transform="translate(0 -327.748)" fill="#7d6eb2"/>
          <path id="Trazado_873324" data-name="Trazado 873324" d="M326.614,454.719l75-14.206-.755-3.354-74.244,13.915Z" transform="translate(-251.614 -327.748)" fill="#7d6eb2"/>
          <path id="Trazado_873325" data-name="Trazado 873325" d="M350.224,198.854l-.426-.887a74.413,74.413,0,0,1,15.657-6.169c8.427-2.283,20.9-3.988,32.493.856l-.329.935c-11.365-4.75-23.643-3.067-31.942-.82a73.352,73.352,0,0,0-15.452,6.085" transform="translate(-269.474 -142.106)" fill="#484849"/>
          <path id="Trazado_873326" data-name="Trazado 873326" d="M350.224,230.106l-.426-.887a74.4,74.4,0,0,1,15.657-6.169c8.427-2.283,20.9-3.987,32.493.856l-.329.935c-11.365-4.751-23.643-3.068-31.942-.82a73.345,73.345,0,0,0-15.452,6.085" transform="translate(-269.474 -165.536)" fill="#484849"/>
          <path id="Trazado_873327" data-name="Trazado 873327" d="M382.455,252.064a61.459,61.459,0,0,0-17,2.243,74.4,74.4,0,0,0-15.657,6.169l.426.887a73.355,73.355,0,0,1,15.452-6.085,60.6,60.6,0,0,1,16.778-2.214Z" transform="translate(-269.474 -188.971)" fill="#484849"/>
          <path id="Trazado_873328" data-name="Trazado 873328" d="M496.883,190.721l-.1.247-.009.011-5.264,6.076L489.5,199.37a1.27,1.27,0,0,1-.7.418,1.224,1.224,0,0,1-.795-.1,1.453,1.453,0,0,1-.785-1.41l.207-3.2.539-8.326v-.023l.1-.245,7.513-5.558Z" transform="translate(-375.345 -135.644)" fill="#fdddbf"/>
          <path id="Trazado_873329" data-name="Trazado 873329" d="M517.28,30.924,499.293,75.335l-.008.007-2.68,2.4-.186-3.921-.4.36-2.381,2.132-.186-3.921-.01.009-2.774,2.484-.179-3.769V71.1l17.988-44.411Z" transform="translate(-377.856 -20.007)" fill="#fbd57d"/>
          <path id="Trazado_873330" data-name="Trazado 873330" d="M524.058,33.616,505.927,78.38l-2.381,2.132-.186-3.921-.009.009L521.3,32.288Z" transform="translate(-387.767 -24.207)" fill="#f9c350"/>
          <path id="Trazado_873331" data-name="Trazado 873331" d="M491.508,239.45l-2.005,2.315a1.274,1.274,0,0,1-.7.418,1.225,1.225,0,0,1-.794-.1,1.454,1.454,0,0,1-.785-1.41l.208-3.2a5.288,5.288,0,0,1,2.205.53,5.7,5.7,0,0,1,1.868,1.446" transform="translate(-375.343 -178.039)" fill="#3e3e3f"/>
          <path id="Trazado_873332" data-name="Trazado 873332" d="M574.4,12.745,565.6,8.508l2.179-5.378A4.666,4.666,0,0,1,574.122.449a5.441,5.441,0,0,1,2.46,6.918Z" transform="translate(-435.719 0)" fill="#ef9dad"/>
          <path id="Trazado_873670" data-name="Trazado 873670" d="M.5.24,5.105.1l-.32,9.768-4.6.142Z" transform="matrix(0.404, -0.915, 0.915, 0.404, 129.454, 8.872)" fill="#f7f7f8"/>
          <path id="Trazado_873333" data-name="Trazado 873333" d="M580.809,23.984l-7.6-3.659a.277.277,0,0,1-.125-.351.238.238,0,0,1,.322-.136l7.6,3.659a.277.277,0,0,1,.125.351.238.238,0,0,1-.322.136" transform="translate(-441.468 -14.856)" fill="#caccce"/>
          <path id="Trazado_873334" data-name="Trazado 873334" d="M579.527,27.5,571.7,23.735a.277.277,0,0,1-.125-.351.238.238,0,0,1,.322-.136l7.828,3.767a.277.277,0,0,1,.125.351.237.237,0,0,1-.322.136" transform="translate(-440.308 -17.412)" fill="#caccce"/>
          <path id="Trazado_873335" data-name="Trazado 873335" d="M578.022,30.911l-7.828-3.767a.277.277,0,0,1-.125-.351.238.238,0,0,1,.322-.136l7.828,3.767a.277.277,0,0,1,.125.351.237.237,0,0,1-.322.136" transform="translate(-439.149 -19.968)" fill="#caccce"/>
          <path id="Trazado_873336" data-name="Trazado 873336" d="M576.517,34.32l-7.828-3.767a.277.277,0,0,1-.125-.351.238.238,0,0,1,.322-.136l7.828,3.767a.277.277,0,0,1,.125.351.237.237,0,0,1-.322.136" transform="translate(-437.99 -22.524)" fill="#caccce"/>
        </g>
      </g>
    </g>
    <g id="Grupo_1099279" data-name="Grupo 1099279" transform="translate(566.999 646.532) rotate(-90)">
      <path id="Trazado_873104" data-name="Trazado 873104" d="M.647,2.832A1.64,1.64,0,0,0,2.79,2.59,1.64,1.64,0,0,0,2.7.434,1.641,1.641,0,0,0,.541.376,1.573,1.573,0,0,0,.647,2.832Z" transform="translate(20.986 109.935)" fill="#fff"/>
      <path id="Trazado_873105" data-name="Trazado 873105" d="M.646,2.832A1.64,1.64,0,0,0,2.791,2.59,1.641,1.641,0,0,0,2.7.434,1.641,1.641,0,0,0,.541.376,1.573,1.573,0,0,0,.646,2.832Z" transform="translate(50.524 115.687)" fill="#ffd947"/>
      <path id="Trazado_873106" data-name="Trazado 873106" d="M.647,2.832A1.639,1.639,0,0,0,2.79,2.59,1.641,1.641,0,0,0,2.7.434,1.641,1.641,0,0,0,.541.376,1.573,1.573,0,0,0,.647,2.832Z" transform="translate(102.357)" fill="#7d6eb2"/>
      <path id="Trazado_873109" data-name="Trazado 873109" d="M2.129,6.609a3.577,3.577,0,0,0,4.43-1.75A3.579,3.579,0,0,0,5.014.353,3.578,3.578,0,0,0,.442,1.692,3.468,3.468,0,0,0,2.129,6.609Z" transform="translate(107.464 102.126)" fill="#7d6eb2"/>
      <path id="Trazado_873110" data-name="Trazado 873110" d="M2.13,6.609a3.577,3.577,0,0,0,4.43-1.75A3.578,3.578,0,0,0,5.014.354,3.577,3.577,0,0,0,.443,1.691,3.468,3.468,0,0,0,2.13,6.609Z" transform="translate(63.232 124.142)" fill="#ffd947"/>
      <path id="Trazado_873111" data-name="Trazado 873111" d="M2.13,6.609a3.576,3.576,0,0,0,4.43-1.75A3.577,3.577,0,0,0,5.014.354,3.576,3.576,0,0,0,.443,1.691,3.468,3.468,0,0,0,2.13,6.609Z" transform="translate(0 38.792)" fill="#ffd947"/>
      <path id="Trazado_873113" data-name="Trazado 873113" d="M2.129,6.609a3.578,3.578,0,0,0,4.43-1.75A3.579,3.579,0,0,0,5.015.353,3.578,3.578,0,0,0,.442,1.692,3.468,3.468,0,0,0,2.129,6.609Z" transform="translate(95.886 7.36)" fill="#ffd947"/>
      <circle id="Elipse_11485" data-name="Elipse 11485" cx="1.689" cy="1.689" r="1.689" transform="translate(7.325 116.915)" fill="none" stroke="#26aab7" stroke-linecap="round" stroke-linejoin="round" stroke-width="1.5"/>
    </g>
  </g>
</svg>
