<svg xmlns="http://www.w3.org/2000/svg" xmlns:xlink="http://www.w3.org/1999/xlink" width="78.501" height="73.824" viewBox="0 0 78.501 73.824">
  <defs>
    <clipPath id="clip-path">
      <rect id="Rectángulo_401074" data-name="Rectángulo 401074" width="59" height="59" transform="translate(250.263 6627.738)" fill="#fff" stroke="#707070" stroke-width="1"/>
    </clipPath>
    <clipPath id="clip-path-2">
      <path id="path2715" d="M0-59H59V0H0Z"/>
    </clipPath>
  </defs>
  <g id="Grupo_1099158" data-name="Grupo 1099158" transform="translate(-240.263 -6627.738)">
    <path id="_12068" data-name="12068" d="M72.033,71.913c-8.038-1.11-16.53-.839-23.844,2.675C38.045,79.46,31.382,90.507,31.127,101.757s5.606,22.305,14.66,28.988,21,9.051,32.068,7.045c11.165-2.023,21.645-8.583,27.469-18.322,3.735-6.245,5.48-13.956,3.417-20.934a28.6,28.6,0,0,0-6.787-11.156A50.145,50.145,0,0,0,72.033,71.913Z" transform="translate(209.144 6563.081)" fill="#26aab7"/>
    <g id="Enmascarar_grupo_1098687" data-name="Enmascarar grupo 1098687" clip-path="url(#clip-path)">
      <g id="g2709" transform="translate(250.263 6686.738)">
        <g id="g2711">
          <g id="g2713" clip-path="url(#clip-path-2)">
            <g id="g2719" transform="translate(56.797 -45.597)">
              <path id="path2721" d="M0,0H-11.791a.354.354,0,0,1-.354-.354V-12.149l-.118-.391H-35.241a.59.59,0,0,0-.59.59V31.389a.59.59,0,0,0,.59.59H-.2a.59.59,0,0,0,.59-.59V.118Z" fill="#fff3de"/>
            </g>
            <g id="g2723" transform="translate(25.378 -45.383)">
              <path id="path2725" d="M0,0,1.011,1.011V-12.163a.59.59,0,0,1,.59-.59H-3.823a.59.59,0,0,0-.59.59V0Z" fill="#ffe5c2"/>
            </g>
            <g id="g2727" transform="translate(57.191 -25.352)">
              <path id="path2729" d="M0,0V-20.127l-.394-.118H-12.185a.354.354,0,0,1-.354-.354V-32.394l-.118-.391H-35.635a.59.59,0,0,0-.59.59V11.144a.59.59,0,0,0,.59.59H-.59a.59.59,0,0,0,.59-.59V4.033" fill="none" stroke="#000" stroke-linecap="round" stroke-linejoin="round" stroke-miterlimit="10" stroke-width="1.729"/>
            </g>
            <g id="g2731" transform="translate(44.533 -58.136)">
              <path id="path2733" d="M0,0V12.3a.354.354,0,0,0,.354.354h12.3Z" fill="#fd9a01"/>
            </g>
            <g id="g2735" transform="translate(48.195 -45.833)">
              <path id="path2737" d="M0,0V-8.642L-3.661-12.3V0a.354.354,0,0,0,.354.354H.354A.354.354,0,0,1,0,0" fill="#fb8801"/>
            </g>
            <g id="g2739" transform="translate(44.533 -58.136)">
              <path id="path2741" d="M0,0V12.3a.354.354,0,0,0,.354.354h12.3Z" fill="none" stroke="#000" stroke-linecap="round" stroke-linejoin="round" stroke-miterlimit="10" stroke-width="1.729"/>
            </g>
            <g id="g2743" transform="translate(25.171 -21.687)">
              <path id="path2745" d="M0,0V-18.736a.354.354,0,0,1,.354-.354h27.1a.354.354,0,0,1,.354.354V0a.354.354,0,0,1-.354.354H.354A.354.354,0,0,1,0,0" fill="#fb8801"/>
            </g>
            <g id="g2747" transform="translate(25.525 -21.333)">
              <path id="path2749" d="M0,0H26.771L19.549-9.738a.59.59,0,0,0-.948,0l-4.056,5.47L8.751-12.08a.59.59,0,0,0-.948,0l-8.157,11v.726A.354.354,0,0,0,0,0" fill="#fed402"/>
            </g>
            <g id="g2751" transform="translate(25.525 -21.333)">
              <path id="path2753" d="M0,0H26.771L19.549-9.738a.59.59,0,0,0-.948,0l-4.056,5.47L8.751-12.08a.59.59,0,0,0-.948,0l-8.157,11v.726A.354.354,0,0,0,0,0Z" fill="none" stroke="#000" stroke-linecap="round" stroke-linejoin="round" stroke-miterlimit="10" stroke-width="1.729"/>
            </g>
            <g id="g2755" transform="translate(33.994 -40.777)">
              <path id="path2757" d="M0,0H-8.469a.354.354,0,0,0-.354.354V19.09a.354.354,0,0,0,.354.354h27.1a.354.354,0,0,0,.354-.354V.354A.354.354,0,0,0,18.636,0H4.033" fill="none" stroke="#000" stroke-linecap="round" stroke-linejoin="round" stroke-miterlimit="10" stroke-width="1.729"/>
            </g>
            <g id="g2759" transform="translate(49.737 -35.863)">
              <path id="path2761" d="M0,0A1.771,1.771,0,0,1-1.771,1.771,1.771,1.771,0,0,1-3.543,0,1.771,1.771,0,0,1-1.771-1.771,1.771,1.771,0,0,1,0,0" fill="#fed402"/>
            </g>
            <g id="g2763" transform="translate(49.737 -35.863)">
              <path id="path2765" d="M0,0A1.771,1.771,0,0,1-1.771,1.771,1.771,1.771,0,0,1-3.543,0,1.771,1.771,0,0,1-1.771-1.771,1.771,1.771,0,0,1,0,0Z" fill="none" stroke="#000" stroke-linecap="round" stroke-linejoin="round" stroke-miterlimit="10" stroke-width="1.729"/>
            </g>
            <g id="g2767" transform="translate(30.504 -45.479)">
              <path id="path2769" d="M0,0V-4.7L3.07,0V-4.7" fill="none" stroke="#000" stroke-linecap="round" stroke-linejoin="round" stroke-miterlimit="10" stroke-width="1.729"/>
            </g>
            <g id="g2771" transform="translate(25.171 -45.479)">
              <path id="path2773" d="M0,0V-4.7H1.889A1.181,1.181,0,0,1,3.07-3.519v.156A1.181,1.181,0,0,1,1.889-2.182H.327" fill="none" stroke="#000" stroke-linecap="round" stroke-linejoin="round" stroke-miterlimit="10" stroke-width="1.729"/>
            </g>
            <g id="g2775" transform="translate(39.006 -50.178)">
              <path id="path2777" d="M0,0H-1.889A1.181,1.181,0,0,0-3.07,1.181V3.519A1.181,1.181,0,0,0-1.889,4.7h.709A1.181,1.181,0,0,0,0,3.519V2.434H-.827" fill="none" stroke="#000" stroke-linecap="round" stroke-linejoin="round" stroke-miterlimit="10" stroke-width="1.729"/>
            </g>
            <g id="g2779" transform="translate(25.171 -17.869)">
              <path id="path2781" d="M0,0H5.05" fill="none" stroke="#000" stroke-linecap="round" stroke-linejoin="round" stroke-miterlimit="10" stroke-width="1.729"/>
            </g>
            <g id="g2783" transform="translate(37.641 -32.844)">
              <path id="path2785" d="M0,0H-11.791a.354.354,0,0,1-.354-.354V-12.148l-.118-.391H-35.241a.59.59,0,0,0-.59.59V31.389a.59.59,0,0,0,.59.59H-.2a.59.59,0,0,0,.59-.59V.118Z" fill="#d8ecfe"/>
            </g>
            <g id="g2787" transform="translate(7.836 -1.455)">
              <path id="path2789" d="M0,0V-43.338a.59.59,0,0,1,.59-.59H-5.436a.59.59,0,0,0-.59.59V0a.59.59,0,0,0,.59.59H.59A.59.59,0,0,1,0,0" fill="#c4e2ff"/>
            </g>
            <g id="g2791" transform="translate(38.035 -7.721)">
              <path id="path2793" d="M0,0V-25l-.394-.118H-12.185a.354.354,0,0,1-.354-.354V-37.271l-.118-.391H-35.635a.59.59,0,0,0-.59.59V6.266a.59.59,0,0,0,.59.59H-.59A.59.59,0,0,0,0,6.266V4.033" fill="none" stroke="#000" stroke-linecap="round" stroke-linejoin="round" stroke-miterlimit="10" stroke-width="1.729"/>
            </g>
            <g id="g2795" transform="translate(25.378 -45.383)">
              <path id="path2797" d="M0,0V12.3a.354.354,0,0,0,.354.354h12.3Z" fill="#0593fc"/>
            </g>
            <g id="g2799" transform="translate(29.039 -33.08)">
              <path id="path2801" d="M0,0V-8.642L-3.661-12.3V0a.354.354,0,0,0,.354.354H.354A.354.354,0,0,1,0,0" fill="#0182fc"/>
            </g>
            <g id="g2803" transform="translate(25.378 -45.383)">
              <path id="path2805" d="M0,0V12.3a.354.354,0,0,0,.354.354h12.3Z" fill="none" stroke="#000" stroke-linecap="round" stroke-linejoin="round" stroke-miterlimit="10" stroke-width="1.729"/>
            </g>
            <g id="g2807" transform="translate(9.531 -37.425)">
              <path id="path2809" d="M0,0V3.519A1.181,1.181,0,0,1-1.181,4.7h-.709A1.181,1.181,0,0,1-3.07,3.519v-.33" fill="none" stroke="#000" stroke-linecap="round" stroke-linejoin="round" stroke-miterlimit="10" stroke-width="1.729"/>
            </g>
            <g id="g2811" transform="translate(11.982 -32.725)">
              <path id="path2813" d="M0,0V-4.7H1.889A1.181,1.181,0,0,1,3.07-3.519v.156A1.181,1.181,0,0,1,1.889-2.182H.327" fill="none" stroke="#000" stroke-linecap="round" stroke-linejoin="round" stroke-miterlimit="10" stroke-width="1.729"/>
            </g>
            <g id="g2815" transform="translate(20.395 -37.425)">
              <path id="path2817" d="M0,0H-1.889A1.181,1.181,0,0,0-3.07,1.181V3.519A1.181,1.181,0,0,0-1.889,4.7h.709A1.181,1.181,0,0,0,0,3.519V2.434H-.827" fill="none" stroke="#000" stroke-linecap="round" stroke-linejoin="round" stroke-miterlimit="10" stroke-width="1.729"/>
            </g>
            <g id="g2819" transform="translate(6.016 -8.934)">
              <path id="path2821" d="M0,0V-18.736a.354.354,0,0,1,.354-.354h27.1a.354.354,0,0,1,.354.354V0a.354.354,0,0,1-.354.354H.354A.354.354,0,0,1,0,0" fill="#0593fc"/>
            </g>
            <g id="g2823" transform="translate(10.832 -8.934)">
              <path id="path2825" d="M0,0V-18.736a.354.354,0,0,1,.354-.354H-4.462a.354.354,0,0,0-.354.354V0a.354.354,0,0,0,.354.354H.354A.354.354,0,0,1,0,0" fill="#0182fc"/>
            </g>
            <g id="g2827" transform="translate(6.37 -8.58)">
              <path id="path2829" d="M0,0H26.771L19.549-9.738a.59.59,0,0,0-.948,0l-4.056,5.47L8.751-12.08a.59.59,0,0,0-.948,0l-8.157,11v.726A.354.354,0,0,0,0,0" fill="#46cc8d"/>
            </g>
            <g id="g2831" transform="translate(10.832 -8.934)">
              <path id="path2833" d="M0,0V-.726L6.223-9.118,4.289-11.726a.59.59,0,0,0-.948,0l-8.157,11V0a.354.354,0,0,0,.354.354H.354A.354.354,0,0,1,0,0" fill="#08b865"/>
            </g>
            <g id="g2835" transform="translate(6.37 -8.58)">
              <path id="path2837" d="M0,0H26.771L19.549-9.738a.59.59,0,0,0-.948,0l-4.056,5.47L8.751-12.08a.59.59,0,0,0-.948,0l-8.157,11v.726A.354.354,0,0,0,0,0Z" fill="none" stroke="#000" stroke-linecap="round" stroke-linejoin="round" stroke-miterlimit="10" stroke-width="1.729"/>
            </g>
            <g id="g2839" transform="translate(6.016 -8.934)">
              <path id="path2841" d="M0,0V-18.736a.354.354,0,0,1,.354-.354h27.1a.354.354,0,0,1,.354.354V0a.354.354,0,0,1-.354.354H.354A.354.354,0,0,1,0,0Z" fill="none" stroke="#000" stroke-linecap="round" stroke-linejoin="round" stroke-miterlimit="10" stroke-width="1.729"/>
            </g>
            <g id="g2843" transform="translate(30.582 -23.11)">
              <path id="path2845" d="M0,0A1.771,1.771,0,0,1-1.771,1.771,1.771,1.771,0,0,1-3.542,0,1.771,1.771,0,0,1-1.771-1.771,1.771,1.771,0,0,1,0,0" fill="#fff"/>
            </g>
            <g id="g2847" transform="translate(30.582 -23.11)">
              <path id="path2849" d="M0,0A1.771,1.771,0,0,1-1.771,1.771,1.771,1.771,0,0,1-3.542,0,1.771,1.771,0,0,1-1.771-1.771,1.771,1.771,0,0,1,0,0Z" fill="none" stroke="#000" stroke-linecap="round" stroke-linejoin="round" stroke-miterlimit="10" stroke-width="1.729"/>
            </g>
            <g id="g2851" transform="translate(6.016 -5.116)">
              <path id="path2853" d="M0,0H5.05" fill="none" stroke="#000" stroke-linecap="round" stroke-linejoin="round" stroke-miterlimit="10" stroke-width="1.729"/>
            </g>
          </g>
        </g>
      </g>
    </g>
  </g>
</svg>
