<svg xmlns="http://www.w3.org/2000/svg" xmlns:xlink="http://www.w3.org/1999/xlink" width="78.501" height="74.574" viewBox="0 0 78.501 74.574">
  <defs>
    <clipPath id="clip-path">
      <rect id="Rectángulo_401173" data-name="Rectángulo 401173" width="63.5" height="63.5" transform="translate(252.263 6631.738)" fill="#fff" stroke="#707070" stroke-width="1"/>
    </clipPath>
    <clipPath id="clip-path-2">
      <path id="path4485" d="M0-54H63.5V9.5H0Z" transform="translate(0 54)"/>
    </clipPath>
  </defs>
  <g id="Grupo_1099292" data-name="Grupo 1099292" transform="translate(-240.263 -6626.988)">
    <path id="_12068" data-name="12068" d="M72.033,71.913c-8.038-1.11-16.53-.839-23.844,2.675C38.045,79.46,31.382,90.507,31.127,101.757s5.606,22.305,14.66,28.988,21,9.051,32.068,7.045c11.165-2.023,21.645-8.583,27.469-18.322,3.735-6.245,5.48-13.956,3.417-20.934a28.6,28.6,0,0,0-6.787-11.156A50.145,50.145,0,0,0,72.033,71.913Z" transform="translate(209.144 6563.081)" fill="#26aab7"/>
    <g id="Enmascarar_grupo_1098694" data-name="Enmascarar grupo 1098694" transform="translate(-4.75 -4.75)" clip-path="url(#clip-path)">
      <g id="g4479" transform="translate(252.263 6631.738)">
        <g id="g4481" transform="translate(0 0)">
          <g id="g4483" clip-path="url(#clip-path-2)">
            <g id="g4489" transform="translate(0.93 37.639)">
              <path id="path4491" d="M2.165.435A8.161,8.161,0,0,1,4.108,5.73a8.205,8.205,0,0,1-8.208,8.2,8.205,8.205,0,0,1-8.208-8.2A8.205,8.205,0,0,1-4.1-2.473a8.26,8.26,0,0,1,3.733.92l2.533-.563Z" transform="translate(12.309 2.473)" fill="#fff6e0"/>
            </g>
            <g id="g4493" transform="translate(36.298 8.457)">
              <path id="path4495" d="M1.04,5.821h0A6.948,6.948,0,0,1-5.912-1.127V-26.138a6.948,6.948,0,0,1,6.948-6.948h0a6.948,6.948,0,0,1,6.948,6.948V-1.127A6.948,6.948,0,0,1,1.04,5.821" transform="translate(5.912 33.086)" fill="#828cb3"/>
            </g>
            <g id="g4497" transform="translate(33.21 10.943)">
              <path id="path4499" d="M1.306.653A4.363,4.363,0,0,1-3.059,5.014,4.363,4.363,0,0,1-7.423.653,4.363,4.363,0,0,1-3.059-3.709,4.363,4.363,0,0,1,1.306.653" transform="translate(7.423 3.709)" fill="#ffea00"/>
            </g>
            <g id="g4501" transform="translate(13.058 40.251)">
              <path id="path4503" d="M0,3.326V-5.78A13.127,13.127,0,0,1,13.127-18.907h8.187A13.127,13.127,0,0,1,34.442-5.78V3.326Z" transform="translate(0 18.907)" fill="#ffea00"/>
            </g>
            <g id="g4505" transform="translate(26.073 40.891)">
              <path id="path4507" d="M.63,1.481h0A4.205,4.205,0,0,1-3.578-2.724v-5.7H4.835v5.7A4.205,4.205,0,0,1,.63,1.481" transform="translate(3.578 8.42)" fill="#ffcab9"/>
            </g>
            <g id="g4509" transform="translate(18.921 12.6)">
              <path id="path4511" d="M1.7,4.835H1.669A11.342,11.342,0,0,1-9.673-6.507v-9.635A11.342,11.342,0,0,1,1.669-27.484H1.7l11.342,15.31v5.668A11.342,11.342,0,0,1,1.7,4.835" transform="translate(9.673 27.484)" fill="#ffcab9"/>
            </g>
            <g id="g4513" transform="translate(27.799 21.214)">
              <path id="path4515" d="M1.328,0V12.364A11.346,11.346,0,0,1-7.55,23.437a11.383,11.383,0,0,0,2.464.269h.032A11.342,11.342,0,0,0,6.289,12.364V6.7Z" transform="translate(7.55)" fill="#fabba7"/>
            </g>
            <g id="g4517" transform="translate(18.921 12.6)">
              <path id="path4519" d="M0,2.418v-4.8A11.36,11.36,0,0,1,11.358-13.742,11.36,11.36,0,0,1,22.717-2.38V1.568c-6.651,0-8.794-6.654-8.794-6.654s-1.8,7.5-13.923,7.5" transform="translate(0 13.742)" fill="#828cb3"/>
            </g>
            <g id="g4521" transform="translate(27.799 12.6)">
              <path id="path4523" d="M.371,0h0a11.39,11.39,0,0,0-2.48.272,11.365,11.365,0,0,1,8.878,11.09v2.422A8.477,8.477,0,0,0,11.73,15.31V11.362A11.36,11.36,0,0,0,.371,0" transform="translate(2.109)" fill="#717eb3"/>
            </g>
            <g id="g4525" transform="translate(8.609 0.93)">
              <path id="path4527" d="M2.716,2.533A10.236,10.236,0,0,0,5.152-4.108,10.292,10.292,0,0,0-5.144-14.4a10.292,10.292,0,0,0-10.3,10.288A10.292,10.292,0,0,0-5.144,6.18,10.36,10.36,0,0,0-.461,5.026l3.177.706Z" transform="translate(15.439 14.397)" fill="#fff6e0"/>
            </g>
            <g id="g4529" transform="translate(16.39 0.93)">
              <path id="path4531" d="M.376,0A10.323,10.323,0,0,0-2.1.3a10.293,10.293,0,0,1,7.815,9.986,10.6,10.6,0,0,1-7.849,9.978,10.321,10.321,0,0,0,2.514.31,10.361,10.361,0,0,0,4.683-1.154l3.177.706v-3.2a10.236,10.236,0,0,0,2.436-6.641A10.292,10.292,0,0,0,.376,0" transform="translate(2.138)" fill="#fff0cc"/>
            </g>
            <g id="g4533" transform="translate(39.498 41.993)">
              <path id="path4535" d="M.364.546A10.294,10.294,0,1,0,8.224-3.1,10.36,10.36,0,0,0,3.541-1.948L.364-2.654Z" transform="translate(2.072 3.102)" fill="#fff6e0"/>
            </g>
            <g id="g4537" transform="translate(47.313 41.993)">
              <path id="path4539" d="M.371,0A9.9,9.9,0,0,0-2.075.31a10.293,10.293,0,0,1,7.781,9.978,10.293,10.293,0,0,1-7.815,9.986A10.29,10.29,0,1,0,.371,0" transform="translate(2.109)" fill="#fff0cc"/>
            </g>
            <g id="g4541" transform="translate(46.154 13.144)">
              <path id="path4543" d="M.291,2.019A8.161,8.161,0,0,1-1.652-3.275a8.205,8.205,0,0,1,8.208-8.2,8.205,8.205,0,0,1,8.208,8.2,8.205,8.205,0,0,1-8.208,8.2,8.262,8.262,0,0,1-3.733-.92L.291,4.57Z" transform="translate(1.652 11.478)" fill="#fff6e0"/>
            </g>
            <g id="g4545" transform="translate(51.881 13.144)">
              <path id="path4547" d="M.371,0a8.2,8.2,0,0,0-2.48.382A8.206,8.206,0,0,1,3.618,8.2a8.206,8.206,0,0,1-5.7,7.811,7.982,7.982,0,0,0,2.452.392A8.2,8.2,0,1,0,.371,0" transform="translate(2.109)" fill="#fff0cc"/>
            </g>
            <g id="g4549" transform="translate(0.93 37.639)">
              <path id="path4551" d="M1.8,2.313a8.175,8.175,0,0,1-3.831.946,8.205,8.205,0,0,1-8.208-8.2,8.205,8.205,0,0,1,8.208-8.2,8.26,8.26,0,0,1,3.733.92l2.533-.563v2.551A8.179,8.179,0,0,1,5.92-6.991" transform="translate(10.238 13.146)" fill="none" stroke="#000" stroke-linecap="round" stroke-linejoin="round" stroke-miterlimit="10" stroke-width="1.582"/>
            </g>
            <g id="g4553" transform="translate(11.279 44.789)">
              <path id="path4555" d="M.134.278a.931.931,0,0,0,0-1.86.931.931,0,0,0,0,1.86" transform="translate(0.764 1.582)"/>
            </g>
            <g id="g4557" transform="translate(8.24 44.789)">
              <path id="path4559" d="M.134.278a.931.931,0,0,0,0-1.86.931.931,0,0,0,0,1.86" transform="translate(0.764 1.582)"/>
            </g>
            <g id="g4561" transform="translate(5.2 44.789)">
              <path id="path4563" d="M.134.278a.931.931,0,0,0,0-1.86.931.931,0,0,0,0,1.86" transform="translate(0.764 1.582)"/>
            </g>
            <g id="g4565" transform="translate(50.027 29.083)">
              <path id="path4567" d="M.026,0V11.332a6.972,6.972,0,0,1-.171,1.539" transform="translate(0.145)" fill="none" stroke="#000" stroke-linecap="round" stroke-linejoin="round" stroke-miterlimit="10" stroke-width="1.582"/>
            </g>
            <g id="g4569" transform="translate(37.92 8.456)">
              <path id="path4571" d="M0,.372A6.933,6.933,0,0,1,5.326-2.114h0a6.95,6.95,0,0,1,6.807,5.548" transform="translate(0 2.114)" fill="none" stroke="#000" stroke-linecap="round" stroke-linejoin="round" stroke-miterlimit="10" stroke-width="1.582"/>
            </g>
            <g id="g4573" transform="translate(33.817 10.943)">
              <path id="path4575" d="M0,.32A4.364,4.364,0,1,1,6.644,5.813" transform="translate(0 1.82)" fill="none" stroke="#000" stroke-linecap="round" stroke-linejoin="round" stroke-miterlimit="10" stroke-width="1.582"/>
            </g>
            <g id="g4577" transform="translate(39.051 41.109)">
              <path id="path4579" d="M0,0A13.088,13.088,0,0,1,2.8,1.48" fill="none" stroke="#000" stroke-linecap="round" stroke-linejoin="round" stroke-miterlimit="10" stroke-width="1.582"/>
            </g>
            <g id="g4581" transform="translate(13.058 41.094)">
              <path id="path4583" d="M0,3.2V-5.906a13.092,13.092,0,0,1,4.245-9.666,13.127,13.127,0,0,1,4.246-2.619" transform="translate(0 18.191)" fill="none" stroke="#000" stroke-linecap="round" stroke-linejoin="round" stroke-miterlimit="10" stroke-width="1.582"/>
            </g>
            <g id="g4585" transform="translate(26.073 44.245)">
              <path id="path4587" d="M1.259,0V2.316A4.205,4.205,0,0,1-2.946,6.521h0A4.205,4.205,0,0,1-7.154,2.316V-.026" transform="translate(7.154 0.026)" fill="none" stroke="#000" stroke-linecap="round" stroke-linejoin="round" stroke-miterlimit="10" stroke-width="1.582"/>
            </g>
            <g id="g4589" transform="translate(18.921 12.6)">
              <path id="path4591" d="M1.538.007Q2.063-.041,2.6-.042h.032A11.342,11.342,0,0,1,13.976,11.3v9.635A11.342,11.342,0,0,1,2.633,32.278H2.6A11.342,11.342,0,0,1-8.741,20.936V11.3a11.392,11.392,0,0,1,.262-2.435" transform="translate(8.741 0.042)" fill="none" stroke="#000" stroke-linecap="round" stroke-linejoin="round" stroke-miterlimit="10" stroke-width="1.582"/>
            </g>
            <g id="g4593" transform="translate(18.921 21.256)">
              <path id="path4595" d="M3.4,1C-3.253,1-5.395-5.658-5.395-5.658s-1.8,7.5-13.923,7.5" transform="translate(19.318 5.658)" fill="none" stroke="#000" stroke-linecap="round" stroke-linejoin="round" stroke-miterlimit="10" stroke-width="1.582"/>
            </g>
            <g id="g4597" transform="translate(8.609 0.93)">
              <path id="path4599" d="M.363.547a10.285,10.285,0,0,0,7.87,16.919,10.36,10.36,0,0,0,4.683-1.154l3.177.706v-3.2A10.293,10.293,0,0,0,4.225-2.3" transform="translate(2.063 3.111)" fill="none" stroke="#000" stroke-linecap="round" stroke-linejoin="round" stroke-miterlimit="10" stroke-width="1.582"/>
            </g>
            <g id="g4601" transform="translate(21.818 10.442)">
              <path id="path4603" d="M.134.278a.931.931,0,0,0,0-1.86.931.931,0,0,0,0,1.86" transform="translate(0.764 1.582)"/>
            </g>
            <g id="g4605" transform="translate(18.006 10.442)">
              <path id="path4607" d="M.134.278a.931.931,0,0,0,0-1.86.931.931,0,0,0,0,1.86" transform="translate(0.764 1.582)"/>
            </g>
            <g id="g4609" transform="translate(14.193 10.442)">
              <path id="path4611" d="M.134.278a.931.931,0,0,0,0-1.86.931.931,0,0,0,0,1.86" transform="translate(0.764 1.582)"/>
            </g>
            <g id="g4613" transform="translate(39.499 41.993)">
              <path id="path4615" d="M.179,2.261a10.3,10.3,0,0,0,9.1,5.465,10.292,10.292,0,0,0,10.3-10.288,10.292,10.292,0,0,0-10.3-10.288A10.36,10.36,0,0,0,4.593-11.7L1.416-12.4v3.2A10.236,10.236,0,0,0-1.02-2.563" transform="translate(1.02 12.851)" fill="none" stroke="#000" stroke-linecap="round" stroke-linejoin="round" stroke-miterlimit="10" stroke-width="1.582"/>
            </g>
            <g id="g4617" transform="translate(45.083 51.198)">
              <path id="path4619" d="M.134.278a.931.931,0,0,0,0-1.86.931.931,0,0,0,0,1.86" transform="translate(0.764 1.582)"/>
            </g>
            <g id="g4621" transform="translate(48.895 51.198)">
              <path id="path4623" d="M.134.278a.931.931,0,0,0,0-1.86.931.931,0,0,0,0,1.86" transform="translate(0.764 1.582)"/>
            </g>
            <g id="g4625" transform="translate(52.708 51.198)">
              <path id="path4627" d="M.134.278a.931.931,0,0,0,0-1.86.931.931,0,0,0,0,1.86" transform="translate(0.764 1.582)"/>
            </g>
            <g id="g4629" transform="translate(46.154 13.144)">
              <path id="path4631" d="M.291,2.019A8.161,8.161,0,0,1-1.652-3.275a8.205,8.205,0,0,1,8.208-8.2,8.205,8.205,0,0,1,8.208,8.2,8.205,8.205,0,0,1-8.208,8.2,8.262,8.262,0,0,1-3.733-.92L.291,4.57Z" transform="translate(1.652 11.478)" fill="none" stroke="#000" stroke-linecap="round" stroke-linejoin="round" stroke-miterlimit="10" stroke-width="1.582"/>
            </g>
            <g id="g4633" transform="translate(50.424 20.539)">
              <path id="path4635" d="M.134.278a.931.931,0,0,0,0-1.86.931.931,0,0,0,0,1.86" transform="translate(0.764 1.582)"/>
            </g>
            <g id="g4637" transform="translate(53.463 20.539)">
              <path id="path4639" d="M.134.278a.931.931,0,0,0,0-1.86.931.931,0,0,0,0,1.86" transform="translate(0.764 1.582)"/>
            </g>
            <g id="g4641" transform="translate(56.502 20.539)">
              <path id="path4643" d="M.134.278a.931.931,0,0,0,0-1.86.931.931,0,0,0,0,1.86" transform="translate(0.764 1.582)"/>
            </g>
          </g>
        </g>
      </g>
    </g>
  </g>
</svg>
