<svg xmlns="http://www.w3.org/2000/svg" xmlns:xlink="http://www.w3.org/1999/xlink" width="78.501" height="73.824" viewBox="0 0 78.501 73.824">
  <defs>
    <clipPath id="clip-path">
      <rect id="Rectángulo_401074" data-name="Rectángulo 401074" width="59" height="59" transform="translate(10)" fill="#fff" stroke="#707070" stroke-width="1"/>
    </clipPath>
  </defs>
  <g id="Grupo_1099159" data-name="Grupo 1099159" transform="translate(0)">
    <path id="_12068" data-name="12068" d="M72.033,71.913c-8.038-1.11-16.53-.839-23.844,2.675C38.045,79.46,31.382,90.507,31.127,101.757s5.606,22.305,14.66,28.988,21,9.051,32.068,7.045c11.165-2.023,21.645-8.583,27.469-18.322,3.735-6.245,5.48-13.956,3.417-20.934a28.6,28.6,0,0,0-6.787-11.156A50.145,50.145,0,0,0,72.033,71.913Z" transform="translate(-31.119 -64.657)" fill="#26aab7"/>
    <g id="Enmascarar_grupo_1098688" data-name="Enmascarar grupo 1098688" clip-path="url(#clip-path)">
      <g id="grabacion-de-video" transform="translate(9.767 -0.232)">
        <path id="Trazado_873213" data-name="Trazado 873213" d="M58.535,58.535H35.307L22.3,56.677,9.291,58.535H.929V.929H58.535Z" fill="#c9efff"/>
        <path id="Trazado_873214" data-name="Trazado 873214" d="M23.228,40.882l-8.362-9.291a7.822,7.822,0,0,1-1.118-8.856l1.2-2.293h8.281a10.22,10.22,0,0,1,0,20.441Z" fill="#d99e54"/>
        <path id="Trazado_873215" data-name="Trazado 873215" d="M16.724,31.591l8.222,9.136a10.215,10.215,0,0,0-1.718-20.285H16.8l-1.2,2.293a7.822,7.822,0,0,0,1.118,8.856Z" fill="#cf8e4a"/>
        <path id="Trazado_873216" data-name="Trazado 873216" d="M35.307,58.535H9.291v-6.4a7.433,7.433,0,0,1,5.477-7.171l4.743-1.293h5.575l4.743,1.294a7.433,7.433,0,0,1,5.477,7.171Z" fill="#7ab4ff"/>
        <path id="Trazado_873217" data-name="Trazado 873217" d="M29.83,44.963l-4.743-1.294H23.759L21.37,45.528l-4.743,1.294a7.433,7.433,0,0,0-5.477,7.171v4.543H35.307v-6.4a7.433,7.433,0,0,0-5.477-7.171Z" fill="#64a0fa"/>
        <path id="Trazado_873218" data-name="Trazado 873218" d="M19.047,39.256h6.5v4.878a3.252,3.252,0,1,1-6.5,0Z" fill="#f0be97"/>
        <path id="Trazado_873219" data-name="Trazado 873219" d="M22.3,42.74a7.433,7.433,0,0,1-7.433-7.433V31.126a13.836,13.836,0,0,0,9.844-4.113l.067-.068.026.13a5.025,5.025,0,0,0,4.93,4.051v4.181A7.433,7.433,0,0,1,22.3,42.74Z" fill="#ffd7aa"/>
        <path id="Trazado_873220" data-name="Trazado 873220" d="M38.094,22.3v9.291a1.858,1.858,0,0,0,1.858,1.858h1.858v3.717l3.717-3.717h6.5a1.858,1.858,0,0,0,1.858-1.858V22.3a1.858,1.858,0,0,0-1.858-1.858H39.953A1.858,1.858,0,0,0,38.094,22.3Z" fill="#fff"/>
        <circle id="Elipse_11547" data-name="Elipse 11547" cx="1.858" cy="1.858" r="1.858" transform="translate(13.472 8.362)" fill="#f03a5a"/>
        <path id="Trazado_873221" data-name="Trazado 873221" d="M58.535.232H.929a.7.7,0,0,0-.7.7V58.535a.7.7,0,0,0,.7.7H58.535a.7.7,0,0,0,.7-.7V.929A.7.7,0,0,0,58.535.232ZM12.079,54.122H9.988V52.134a6.751,6.751,0,0,1,4.964-6.5l3.455-.942a3.929,3.929,0,0,0,7.784,0l3.455.942a6.751,6.751,0,0,1,4.964,6.5v5.7H9.988V55.516h2.091a.7.7,0,1,0,0-1.394Zm2.787-23.693-.014,0a7.15,7.15,0,0,1-.487-7.375l1-1.919h7.859a9.534,9.534,0,0,1,9.524,9.524,9.419,9.419,0,0,1-2.53,6.442,8.105,8.105,0,0,0,.207-1.8V31.126a.7.7,0,0,0-.7-.7,4.336,4.336,0,0,1-4.245-3.488l-.025-.13a.7.7,0,0,0-1.179-.357l-.068.069a13.222,13.222,0,0,1-9.348,3.907Zm.7,1.376a14.652,14.652,0,0,0,8.861-3.569,5.743,5.743,0,0,0,4.611,3.544v3.527a6.736,6.736,0,0,1-13.472,0ZM22.3,43.437a8.087,8.087,0,0,0,2.555-.417v1.114a2.555,2.555,0,1,1-5.11,0V43.019a8.085,8.085,0,0,0,2.555.418Zm35.539,14.4H36v-5.7a8.148,8.148,0,0,0-5.991-7.844l-3.765-1.026v-.856A8.185,8.185,0,0,0,29,39.908a10.9,10.9,0,0,0-5.767-20.164H14.947a.7.7,0,0,0-.617.374l-1.2,2.293a8.545,8.545,0,0,0,1.038,9.412v3.484a8.133,8.133,0,0,0,4.181,7.1v.856L14.585,44.29a8.148,8.148,0,0,0-5.991,7.843v1.988H5.343V47.386a.7.7,0,0,0-1.394,0v7.433a.7.7,0,0,0,.7.7H8.594v2.323H1.626V1.626H57.839Z"/>
        <path id="Trazado_873222" data-name="Trazado 873222" d="M20.906,14.634a.7.7,0,0,0,.7-.7V10.453H23.24l1.674,3.767a.7.7,0,1,0,1.274-.566l-1.544-3.474a2.781,2.781,0,0,0-1.183-5.3H20.906a.7.7,0,0,0-.7.7v8.362A.7.7,0,0,0,20.906,14.634Zm.7-8.362h1.858a1.394,1.394,0,1,1,0,2.787H21.6Z"/>
        <path id="Trazado_873223" data-name="Trazado 873223" d="M29.732,14.634h3.717a.7.7,0,0,0,0-1.394h-3.02V10.453H32.52a.7.7,0,0,0,0-1.394H30.429V6.272h3.02a.7.7,0,0,0,0-1.394H29.732a.7.7,0,0,0-.7.7v8.362A.7.7,0,0,0,29.732,14.634Z"/>
        <path id="Trazado_873224" data-name="Trazado 873224" d="M39.488,14.634a3.488,3.488,0,0,0,3.484-3.484.7.7,0,1,0-1.394,0,2.091,2.091,0,1,1-4.181,0V8.362a2.091,2.091,0,1,1,4.181,0,.7.7,0,1,0,1.394,0,3.484,3.484,0,1,0-6.968,0V11.15a3.488,3.488,0,0,0,3.484,3.484Z"/>
        <path id="Trazado_873225" data-name="Trazado 873225" d="M52.031,19.744H39.953A2.558,2.558,0,0,0,37.4,22.3v9.291a2.558,2.558,0,0,0,2.555,2.555h1.161v3.02a.7.7,0,0,0,1.189.492l3.512-3.512h6.216a2.558,2.558,0,0,0,2.555-2.555V22.3a2.558,2.558,0,0,0-2.555-2.555Zm1.161,11.846a1.162,1.162,0,0,1-1.161,1.161h-6.5a.7.7,0,0,0-.492.2l-2.527,2.527V33.449a.7.7,0,0,0-.7-.7H39.953a1.162,1.162,0,0,1-1.161-1.161V22.3a1.162,1.162,0,0,1,1.161-1.161H52.031A1.162,1.162,0,0,1,53.193,22.3Z"/>
        <path id="Trazado_873226" data-name="Trazado 873226" d="M49.244,24.39h-6.5a.7.7,0,1,0,0,1.394h6.5a.7.7,0,1,0,0-1.394Z"/>
        <path id="Trazado_873227" data-name="Trazado 873227" d="M49.244,28.106h-6.5a.7.7,0,1,0,0,1.394h6.5a.7.7,0,1,0,0-1.394Z"/>
        <path id="Trazado_873228" data-name="Trazado 873228" d="M22.3,36.7A.7.7,0,0,0,23,36V34.61a.7.7,0,1,0-1.394,0V36A.7.7,0,0,0,22.3,36.7Z"/>
        <circle id="Elipse_11548" data-name="Elipse 11548" cx="0.929" cy="0.929" r="0.929" transform="translate(25.087 32.52)"/>
        <circle id="Elipse_11549" data-name="Elipse 11549" cx="0.929" cy="0.929" r="0.929" transform="translate(17.654 32.52)"/>
        <path id="Trazado_873229" data-name="Trazado 873229" d="M22.3,39.993a2.537,2.537,0,0,0,1.807-.749.7.7,0,1,0-.985-.985,1.188,1.188,0,0,1-1.642,0,.7.7,0,1,0-.985.985,2.537,2.537,0,0,0,1.806.749Z"/>
        <path id="Trazado_873230" data-name="Trazado 873230" d="M4.646,12.776a.7.7,0,0,0,.7-.7V5.343h6.736a.7.7,0,0,0,0-1.394H4.646a.7.7,0,0,0-.7.7v7.433A.7.7,0,0,0,4.646,12.776Z"/>
        <path id="Trazado_873231" data-name="Trazado 873231" d="M46.457,6.272h6.736v6.736a.7.7,0,1,0,1.394,0V5.575a.7.7,0,0,0-.7-.7H46.457a.7.7,0,0,0,0,1.394Z"/>
        <path id="Trazado_873232" data-name="Trazado 873232" d="M53.89,45.76a.7.7,0,0,0-.7.7v6.736H46.457a.7.7,0,0,0,0,1.394H53.89a.7.7,0,0,0,.7-.7V46.457a.7.7,0,0,0-.7-.7Z"/>
        <path id="Trazado_873233" data-name="Trazado 873233" d="M15.331,12.776a2.555,2.555,0,1,0-2.555-2.555,2.555,2.555,0,0,0,2.555,2.555Zm0-3.717a1.161,1.161,0,1,1-1.161,1.161A1.161,1.161,0,0,1,15.331,9.059Z"/>
      </g>
    </g>
  </g>
</svg>
