<svg xmlns="http://www.w3.org/2000/svg" width="150" height="150" viewBox="0 0 150 150">
  <g id="Grupo_1099519" data-name="Grupo 1099519" transform="translate(-1188 -525.197)">
    <path id="_12068" data-name="12068" d="M92.482,72.366C80.426,70.39,67.691,70.874,56.72,77.128,41.506,85.8,31.514,105.464,31.131,125.491s8.407,39.705,21.987,51.6a55.29,55.29,0,0,0,48.1,12.54c16.746-3.6,32.464-15.279,41.2-32.614,5.6-11.116,8.219-24.842,5.125-37.264A53.335,53.335,0,0,0,137.358,99.9C126.222,85.72,110.734,75.358,92.482,72.366Z" transform="translate(1171.019 480.003)" fill="#26aab7"/>
    <g id="Grupo_1099289" data-name="Grupo 1099289" transform="translate(1188 573.344)">
      <path id="Trazado_873312" data-name="Trazado 873312" d="M0,251.5l86,14.945V189.767l-68.534-9.41Z" transform="translate(0 -177.893)" fill="#ffd947"/>
      <path id="Trazado_873313" data-name="Trazado 873313" d="M326.614,189.768V266.45l86-14.945-17.467-71.146Z" transform="translate(-262.614 -177.894)" fill="#ffd947"/>
      <g id="Grupo_1099276" data-name="Grupo 1099276">
        <g id="Grupo_1099290" data-name="Grupo 1099290">
          <path id="Trazado_873314" data-name="Trazado 873314" d="M96.323,200.488V271.8l-3.544-.571-78.766-12.7.008-.032-.008,0,.008-.029a.013.013,0,0,0-.008,0l.008-.032h-.008l.008-.032h-.008l.008-.032h-.008l.008-.032h-.008l.008-.034h-.008l.008-.032h-.008l.008-.032h-.008l.008-.032h-.008l.008-.032h-.008l.008-.032h-.008l.008-.034h-.008l.008-.032h-.008l.008-.032h-.008l.008-.032h-.008l.008-.032h-.008l.008-.034a.01.01,0,0,1-.008,0l.008-.034h-.008l.008-.032h-.008l.008-.032h-.008l.008-.032h-.008l.008-.032h-.008l.008-.034a.01.01,0,0,0-.008,0l.008-.034h-.008l.008-.032h-.008l.008-.032h-.008l.008-.032h-.008l.008-.032h-.008l.008-.034a.01.01,0,0,0-.008,0l.008-.034h-.008l.008-.032h-.008l.008-.032h-.008l.008-.032h-.008l.008-.032h-.008l.008-.034h-.008l.008-.032h-.008l.008-.032h-.008l.008-.032h-.008l.008-.032h-.008l.008-.032h-.008l.008-.034h-.008l.008-.032h-.008l.008-.032h-.008l.008-.032h-.008l.008-.032h-.008l.008-.034a.01.01,0,0,1-.008,0l.008-.034h-.008l.008-.032h-.008l.008-.032h-.008l.008-.032h-.008l.008-.032h-.008l.008-.034a.01.01,0,0,1-.008,0l.008-.034h-.008l.008-.032h-.008l.008-.032h-.008l.008-.032h-.008l.008-.032h-.008l.008-.034a.01.01,0,0,0-.008,0l.008-.034h-.008l.008-.032h-.008l.008-.032h-.008l.008-.032h-.008l.008-.032h-.008l.008-.034a.01.01,0,0,0-.008,0l.008-.034h-.008l.008-.032h-.008l.008-.032h-.008l.008-.032h-.008l.008-.032h-.008l.008-.034h-.008l.008-.032h-.008l.008-.032h-.008l.008-.032h-.008l.008-.032h-.008l.008-.032h-.008l.008-.034h-.008l.008-.032h-.008l.008-.032h-.008l.008-.032h-.008l.008-.032h-.008l.008-.034a.01.01,0,0,1-.008,0l.008-.034h-.008l.008-.032h-.008l.008-.032h-.008l.008-.032h-.008l.008-.032h-.008l.008-.034-.008,0,.008-.034h-.008l.008-.032h-.008l.008-.032h-.008l.008-.032h-.008l.008-.032h-.008l.008-.034a.01.01,0,0,0-.008,0l.008-.034h-.008l.008-.032h-.008l.008-.032h-.008l.008-.032h-.008l.008-.032h-.008l.008-.034a.01.01,0,0,0-.008,0l.008-.034,16.71-63.16a136.424,136.424,0,0,1,59.331,6.243l4.445,1.5Z" transform="translate(-10.323 -185.89)" fill="#eca90d"/>
          <path id="Trazado_873315" data-name="Trazado 873315" d="M408.923,255.354h-.008l.008.032h-.008l.008.032h-.008l.008.032h-.008l.008.032h-.008l.008.034a.01.01,0,0,0-.008,0l.008.034h-.008l.008.032h-.008l.008.032h-.008l.008.032h-.008l.008.032h-.008l.008.034-.008,0,.008.034h-.008l.008.032h-.008l.008.032h-.008l.008.032h-.008l.008.032h-.008l.008.034a.01.01,0,0,1-.008,0l.008.034h-.008l.008.032h-.008l.008.032h-.008l.008.032h-.008l.008.032h-.008l.008.034h-.008l.008.032h-.008l.008.032h-.008l.008.032h-.008l.008.032h-.008l.008.032h-.008l.008.034h-.008l.008.032h-.008l.008.032h-.008l.008.032h-.008l.008.032h-.008l.008.034a.01.01,0,0,0-.008,0l.008.034h-.008l.008.032h-.008l.008.032h-.008l.008.032h-.008l.008.032h-.008l.008.034a.01.01,0,0,0-.008,0l.008.034h-.008l.008.032h-.008l.008.032h-.008l.008.032h-.008l.008.032h-.008l.008.034a.01.01,0,0,1-.008,0l.008.034h-.008l.008.032h-.008l.008.032h-.008l.008.032h-.008l.008.032h-.008l.008.034a.01.01,0,0,1-.008,0l.008.034h-.008l.008.032h-.008l.008.032h-.008l.008.032h-.008l.008.032h-.008l.008.034h-.008l.008.032h-.008l.008.032h-.008l.008.032h-.008l.008.032h-.008l.008.032h-.008l.008.034h-.008l.008.032h-.008l.008.032h-.008l.008.032h-.008l.008.032h-.008l.008.034a.01.01,0,0,0-.008,0l.008.034h-.008l.008.032h-.008l.008.032h-.008l.008.032h-.008l.008.032h-.008l.008.034a.01.01,0,0,0-.008,0l.008.034h-.008l.008.032h-.008l.008.032h-.008l.008.032h-.008l.008.032h-.008l.008.034a.01.01,0,0,1-.008,0l.008.034h-.008l.008.032h-.008l.008.032h-.008l.008.032h-.008l.008.032h-.008l.008.034h-.008l.008.032h-.008l.008.032h-.008l.008.032h-.008l.008.032h-.008l.008.032h-.008l.008.034h-.008l.008.032h-.008l.008.032h-.008l.008.032h-.008l.008.032a.013.013,0,0,0-.008,0l.008.029-.008,0,.008.032L330.262,271.21v0l-3.649.587V200.485l1.922-.648,4.339-1.467a136.645,136.645,0,0,1,43.68-7.162,132.986,132.986,0,0,1,15.651.919l16.71,63.16.008.034a.01.01,0,0,0-.008,0Z" transform="translate(-262.614 -185.888)" fill="#eca90d"/>
          <path id="Trazado_873316" data-name="Trazado 873316" d="M96.323,180.488V251.8l-3.544-.571-78.766-12.7.008-.032-.008,0,.008-.029a.013.013,0,0,0-.008,0l.008-.032h-.008l.008-.032h-.008l.008-.032h-.008l.008-.032h-.008l.008-.034h-.008l.008-.032h-.008l.008-.032h-.008l.008-.032h-.008l.008-.032h-.008l.008-.032h-.008l.008-.034h-.008l.008-.032h-.008l.008-.032h-.008l.008-.032h-.008l.008-.032h-.008l.008-.034a.01.01,0,0,1-.008,0l.008-.034h-.008l.008-.032h-.008l.008-.032h-.008l.008-.032h-.008l.008-.032h-.008l.008-.034a.01.01,0,0,0-.008,0l.008-.034h-.008l.008-.032h-.008l.008-.032h-.008l.008-.032h-.008l.008-.032h-.008l.008-.034a.01.01,0,0,0-.008,0l.008-.034h-.008l.008-.032h-.008l.008-.032h-.008l.008-.032h-.008l.008-.032h-.008l.008-.034h-.008l.008-.032h-.008l.008-.032h-.008l.008-.032h-.008l.008-.032h-.008l.008-.032h-.008l.008-.034h-.008l.008-.032h-.008l.008-.032h-.008l.008-.032h-.008l.008-.032h-.008l.008-.034a.01.01,0,0,1-.008,0l.008-.034h-.008l.008-.032h-.008l.008-.032h-.008l.008-.032h-.008l.008-.032h-.008l.008-.034a.01.01,0,0,1-.008,0l.008-.034h-.008l.008-.032h-.008l.008-.032h-.008l.008-.032h-.008l.008-.032h-.008l.008-.034a.01.01,0,0,0-.008,0l.008-.034h-.008l.008-.032h-.008l.008-.032h-.008l.008-.032h-.008l.008-.032h-.008l.008-.034a.01.01,0,0,0-.008,0l.008-.034h-.008l.008-.032h-.008l.008-.032h-.008l.008-.032h-.008l.008-.032h-.008l.008-.034h-.008l.008-.032h-.008l.008-.032h-.008l.008-.032h-.008l.008-.032h-.008l.008-.032h-.008l.008-.034h-.008l.008-.032h-.008l.008-.032h-.008l.008-.032h-.008l.008-.032h-.008l.008-.034a.01.01,0,0,1-.008,0l.008-.034h-.008l.008-.032h-.008l.008-.032h-.008l.008-.032h-.008l.008-.032h-.008l.008-.034-.008,0,.008-.034h-.008l.008-.032h-.008l.008-.032h-.008l.008-.032h-.008l.008-.032h-.008l.008-.034a.01.01,0,0,0-.008,0l.008-.034h-.008l.008-.032h-.008l.008-.032h-.008l.008-.032h-.008l.008-.032h-.008l.008-.034a.01.01,0,0,0-.008,0l.008-.034,16.71-63.16a136.424,136.424,0,0,1,59.331,6.243l4.445,1.5Z" transform="translate(-10.323 -171.156)" fill="#d7d8da"/>
          <path id="Trazado_873317" data-name="Trazado 873317" d="M408.923,235.354h-.008l.008.032h-.008l.008.032h-.008l.008.032h-.008l.008.032h-.008l.008.034a.01.01,0,0,0-.008,0l.008.034h-.008l.008.032h-.008l.008.032h-.008l.008.032h-.008l.008.032h-.008l.008.034-.008,0,.008.034h-.008l.008.032h-.008l.008.032h-.008l.008.032h-.008l.008.032h-.008l.008.034a.01.01,0,0,1-.008,0l.008.034h-.008l.008.032h-.008l.008.032h-.008l.008.032h-.008l.008.032h-.008l.008.034h-.008l.008.032h-.008l.008.032h-.008l.008.032h-.008l.008.032h-.008l.008.032h-.008l.008.034h-.008l.008.032h-.008l.008.032h-.008l.008.032h-.008l.008.032h-.008l.008.034a.01.01,0,0,0-.008,0l.008.034h-.008l.008.032h-.008l.008.032h-.008l.008.032h-.008l.008.032h-.008l.008.034a.01.01,0,0,0-.008,0l.008.034h-.008l.008.032h-.008l.008.032h-.008l.008.032h-.008l.008.032h-.008l.008.034a.01.01,0,0,1-.008,0l.008.034h-.008l.008.032h-.008l.008.032h-.008l.008.032h-.008l.008.032h-.008l.008.034a.01.01,0,0,1-.008,0l.008.034h-.008l.008.032h-.008l.008.032h-.008l.008.032h-.008l.008.032h-.008l.008.034h-.008l.008.032h-.008l.008.032h-.008l.008.032h-.008l.008.032h-.008l.008.032h-.008l.008.034h-.008l.008.032h-.008l.008.032h-.008l.008.032h-.008l.008.032h-.008l.008.034a.01.01,0,0,0-.008,0l.008.034h-.008l.008.032h-.008l.008.032h-.008l.008.032h-.008l.008.032h-.008l.008.034a.01.01,0,0,0-.008,0l.008.034h-.008l.008.032h-.008l.008.032h-.008l.008.032h-.008l.008.032h-.008l.008.034a.01.01,0,0,1-.008,0l.008.034h-.008l.008.032h-.008l.008.032h-.008l.008.032h-.008l.008.032h-.008l.008.034h-.008l.008.032h-.008l.008.032h-.008l.008.032h-.008l.008.032h-.008l.008.032h-.008l.008.034h-.008l.008.032h-.008l.008.032h-.008l.008.032h-.008l.008.032a.013.013,0,0,0-.008,0l.008.029-.008,0,.008.032L330.262,251.21v0l-3.649.587V180.485l1.922-.648,4.339-1.467a136.645,136.645,0,0,1,43.68-7.162,132.99,132.99,0,0,1,15.651.919l16.71,63.16.008.034a.01.01,0,0,0-.008,0Z" transform="translate(-262.614 -171.154)" fill="#d7d8da"/>
          <path id="Trazado_873318" data-name="Trazado 873318" d="M96.323,180.488V251.8l-3.544-.571-78.766-12.7.008-.032-.008,0,.008-.029a.013.013,0,0,0-.008,0l.008-.032h-.008l.008-.032h-.008l.008-.032h-.008l.008-.032h-.008l.008-.034h-.008l.008-.032h-.008l.008-.032h-.008l.008-.032h-.008l.008-.032h-.008l.008-.032h-.008l.008-.034h-.008l.008-.032h-.008l.008-.032h-.008l.008-.032h-.008l.008-.032h-.008l.008-.034a.01.01,0,0,1-.008,0l.008-.034h-.008l.008-.032h-.008l.008-.032h-.008l.008-.032h-.008l.008-.032h-.008l.008-.034a.01.01,0,0,0-.008,0l.008-.034h-.008l.008-.032h-.008l.008-.032h-.008l.008-.032h-.008l.008-.032h-.008l.008-.034a.01.01,0,0,0-.008,0l.008-.034h-.008l.008-.032h-.008l.008-.032h-.008l.008-.032h-.008l.008-.032h-.008l.008-.034h-.008l.008-.032h-.008l.008-.032h-.008l.008-.032h-.008l.008-.032h-.008l.008-.032h-.008l.008-.034h-.008l.008-.032h-.008l.008-.032h-.008l.008-.032h-.008l.008-.032h-.008l.008-.034a.01.01,0,0,1-.008,0l.008-.034h-.008l.008-.032h-.008l.008-.032h-.008l.008-.032h-.008l.008-.032h-.008l.008-.034a.01.01,0,0,1-.008,0l.008-.034h-.008l.008-.032h-.008l.008-.032h-.008l.008-.032h-.008l.008-.032h-.008l.008-.034a.01.01,0,0,0-.008,0l.008-.034h-.008l.008-.032h-.008l.008-.032h-.008l.008-.032h-.008l.008-.032h-.008l.008-.034a.01.01,0,0,0-.008,0l.008-.034h-.008l.008-.032h-.008l.008-.032h-.008l.008-.032h-.008l.008-.032h-.008l.008-.034h-.008l.008-.032h-.008l.008-.032h-.008l.008-.032h-.008l.008-.032h-.008l.008-.032h-.008l.008-.034h-.008l.008-.032h-.008l.008-.032h-.008l.008-.032h-.008l.008-.032h-.008l.008-.034a.01.01,0,0,1-.008,0l.008-.034h-.008l.008-.032h-.008l.008-.032h-.008l.008-.032h-.008l.008-.032h-.008l.008-.034-.008,0,.008-.034h-.008l.008-.032h-.008l.008-.032h-.008l.008-.032h-.008l.008-.032h-.008l.008-.034a.01.01,0,0,0-.008,0l.008-.034h-.008l.008-.032h-.008l.008-.032h-.008l.008-.032h-.008l.008-.032h-.008l.008-.034a.01.01,0,0,0-.008,0l.008-.034,16.71-63.16a136.424,136.424,0,0,1,59.331,6.243l4.445,1.5Z" transform="translate(-10.323 -171.156)" fill="#d7d8da"/>
          <path id="Trazado_873319" data-name="Trazado 873319" d="M96.323,180.3v68.11l-3.452-1.124-7.128-2.317a204.239,204.239,0,0,0-71.723-9.835h-.008L30.73,171.939a135.055,135.055,0,0,1,59.334,6.233l4.442,1.511Z" transform="translate(-10.323 -170.999)" fill="#fff"/>
          <path id="Trazado_873320" data-name="Trazado 873320" d="M408.923,235.354h-.008l.008.032h-.008l.008.032h-.008l.008.032h-.008l.008.032h-.008l.008.034a.01.01,0,0,0-.008,0l.008.034h-.008l.008.032h-.008l.008.032h-.008l.008.032h-.008l.008.032h-.008l.008.034-.008,0,.008.034h-.008l.008.032h-.008l.008.032h-.008l.008.032h-.008l.008.032h-.008l.008.034a.01.01,0,0,1-.008,0l.008.034h-.008l.008.032h-.008l.008.032h-.008l.008.032h-.008l.008.032h-.008l.008.034h-.008l.008.032h-.008l.008.032h-.008l.008.032h-.008l.008.032h-.008l.008.032h-.008l.008.034h-.008l.008.032h-.008l.008.032h-.008l.008.032h-.008l.008.032h-.008l.008.034a.01.01,0,0,0-.008,0l.008.034h-.008l.008.032h-.008l.008.032h-.008l.008.032h-.008l.008.032h-.008l.008.034a.01.01,0,0,0-.008,0l.008.034h-.008l.008.032h-.008l.008.032h-.008l.008.032h-.008l.008.032h-.008l.008.034a.01.01,0,0,1-.008,0l.008.034h-.008l.008.032h-.008l.008.032h-.008l.008.032h-.008l.008.032h-.008l.008.034a.01.01,0,0,1-.008,0l.008.034h-.008l.008.032h-.008l.008.032h-.008l.008.032h-.008l.008.032h-.008l.008.034h-.008l.008.032h-.008l.008.032h-.008l.008.032h-.008l.008.032h-.008l.008.032h-.008l.008.034h-.008l.008.032h-.008l.008.032h-.008l.008.032h-.008l.008.032h-.008l.008.034a.01.01,0,0,0-.008,0l.008.034h-.008l.008.032h-.008l.008.032h-.008l.008.032h-.008l.008.032h-.008l.008.034a.01.01,0,0,0-.008,0l.008.034h-.008l.008.032h-.008l.008.032h-.008l.008.032h-.008l.008.032h-.008l.008.034a.01.01,0,0,1-.008,0l.008.034h-.008l.008.032h-.008l.008.032h-.008l.008.032h-.008l.008.032h-.008l.008.034h-.008l.008.032h-.008l.008.032h-.008l.008.032h-.008l.008.032h-.008l.008.032h-.008l.008.034h-.008l.008.032h-.008l.008.032h-.008l.008.032h-.008l.008.032a.013.013,0,0,0-.008,0l.008.029-.008,0,.008.032L330.262,251.21v0l-3.649.587V180.485l1.922-.648,4.339-1.467a136.645,136.645,0,0,1,43.68-7.162,132.99,132.99,0,0,1,15.651.919l16.71,63.16.008.034a.01.01,0,0,0-.008,0Z" transform="translate(-262.614 -171.154)" fill="#d7d8da"/>
          <path id="Trazado_873321" data-name="Trazado 873321" d="M408.923,235.133h-.008a204.247,204.247,0,0,0-71.723,9.835l-7.022,2.286-3.557,1.156V180.3l1.92-.653,4.342-1.475a135.044,135.044,0,0,1,59.331-6.233Z" transform="translate(-262.614 -170.999)" fill="#fff"/>
          <path id="Trazado_873322" data-name="Trazado 873322" d="M320.512,271.446l-3.557,1.156-3.452-1.124,1.635-67.568v-.034l1.817.616,1.92-.653,0,.037Z" transform="translate(-241.962 -195.192)" fill="#e8e8e9"/>
          <path id="Trazado_873323" data-name="Trazado 873323" d="M86,455.633,0,440.687l.866-3.528L86,451.8Z" transform="translate(0 -367.077)" fill="#ffd947"/>
          <path id="Trazado_873324" data-name="Trazado 873324" d="M326.614,455.633l86-14.945-.866-3.528L326.614,451.8Z" transform="translate(-262.615 -367.077)" fill="#ffd947"/>
          <path id="Trazado_873325" data-name="Trazado 873325" d="M350.287,199.339l-.489-.933a89.776,89.776,0,0,1,17.953-6.49c9.663-2.4,23.97-4.2,37.259.9l-.377.983c-13.032-5-27.111-3.227-36.627-.863a88.5,88.5,0,0,0-17.718,6.4" transform="translate(-279.694 -184.661)" fill="#484849"/>
          <path id="Trazado_873326" data-name="Trazado 873326" d="M350.287,230.591l-.489-.933a89.765,89.765,0,0,1,17.953-6.49c9.663-2.4,23.971-4.2,37.259.9l-.377.983c-13.032-5-27.111-3.228-36.627-.863a88.489,88.489,0,0,0-17.718,6.4" transform="translate(-279.694 -207.685)" fill="#484849"/>
          <path id="Trazado_873327" data-name="Trazado 873327" d="M387.244,252.065a76.427,76.427,0,0,0-19.493,2.36,89.762,89.762,0,0,0-17.953,6.49l.489.933a88.5,88.5,0,0,1,17.719-6.4,75.361,75.361,0,0,1,19.239-2.329Z" transform="translate(-272.753 -230.713)" fill="#484849"/>
        </g>
      </g>
    </g>
    <g id="Grupo_1099024" data-name="Grupo 1099024" transform="translate(1202.138 675.197) rotate(-90)">
      <path id="Trazado_873104" data-name="Trazado 873104" d="M.647,2.832A1.64,1.64,0,0,0,2.79,2.59,1.64,1.64,0,0,0,2.7.434,1.641,1.641,0,0,0,.541.376,1.573,1.573,0,0,0,.647,2.832Z" transform="translate(38.974 103.117)" fill="#fff"/>
      <path id="Trazado_873105" data-name="Trazado 873105" d="M.646,2.832A1.64,1.64,0,0,0,2.791,2.59,1.641,1.641,0,0,0,2.7.434,1.641,1.641,0,0,0,.541.376,1.573,1.573,0,0,0,.646,2.832Z" transform="translate(93.138 119.498)" fill="#ffd947"/>
      <path id="Trazado_873106" data-name="Trazado 873106" d="M.647,2.832A1.639,1.639,0,0,0,2.79,2.59,1.641,1.641,0,0,0,2.7.434,1.641,1.641,0,0,0,.541.376,1.573,1.573,0,0,0,.647,2.832Z" transform="translate(146.85)" fill="#7d6eb2"/>
      <path id="Trazado_873109" data-name="Trazado 873109" d="M2.129,6.609a3.577,3.577,0,0,0,4.43-1.75A3.579,3.579,0,0,0,5.014.353,3.578,3.578,0,0,0,.442,1.692,3.468,3.468,0,0,0,2.129,6.609Z" transform="translate(128.808 102.803)" fill="#7d6eb2"/>
      <path id="Trazado_873110" data-name="Trazado 873110" d="M2.13,6.609a3.577,3.577,0,0,0,4.43-1.75A3.578,3.578,0,0,0,5.014.354,3.577,3.577,0,0,0,.443,1.691,3.468,3.468,0,0,0,2.13,6.609Z" transform="translate(79.41 122.164)" fill="#ffd947"/>
      <path id="Trazado_873111" data-name="Trazado 873111" d="M2.13,6.609a3.576,3.576,0,0,0,4.43-1.75A3.577,3.577,0,0,0,5.014.354,3.576,3.576,0,0,0,.443,1.691,3.468,3.468,0,0,0,2.13,6.609Z" transform="translate(0 33.783)" fill="#7d6eb2"/>
      <path id="Trazado_873113" data-name="Trazado 873113" d="M2.129,6.609a3.578,3.578,0,0,0,4.43-1.75A3.579,3.579,0,0,0,5.015.353,3.578,3.578,0,0,0,.442,1.692,3.468,3.468,0,0,0,2.129,6.609Z" transform="translate(140.207 7.343)" fill="#ffd947"/>
      <circle id="Elipse_11485" data-name="Elipse 11485" cx="1.689" cy="1.689" r="1.689" transform="translate(13.34 108.98)" fill="none" stroke="#26aab7" stroke-linecap="round" stroke-linejoin="round" stroke-width="1.5"/>
    </g>
  </g>
</svg>
