<svg xmlns="http://www.w3.org/2000/svg" xmlns:xlink="http://www.w3.org/1999/xlink" width="78.5" height="72.824" viewBox="0 0 78.5 72.824">
  <defs>
    <clipPath id="clip-path">
      <rect id="Rectángulo_401173" data-name="Rectángulo 401173" width="60" height="60" transform="translate(249.263 6628.738)" fill="#fff" stroke="#707070" stroke-width="1"/>
    </clipPath>
  </defs>
  <g id="Grupo_1099293" data-name="Grupo 1099293" transform="translate(-240.263 -6628.738)">
    <path id="_12068" data-name="12068" d="M72.033,71.913c-8.038-1.11-16.53-.839-23.844,2.675C38.045,79.46,31.382,90.507,31.127,101.757s5.606,22.305,14.66,28.988,21,9.051,32.068,7.045c11.165-2.023,21.645-8.583,27.469-18.322,3.735-6.245,5.48-13.956,3.417-20.934a28.6,28.6,0,0,0-6.787-11.156A50.145,50.145,0,0,0,72.033,71.913Z" transform="translate(209.144 6563.081)" fill="#26aab7"/>
    <g id="Enmascarar_grupo_1098695" data-name="Enmascarar grupo 1098695" clip-path="url(#clip-path)">
      <g id="cargando" transform="translate(249.263 6628.738)">
        <g id="Grupo_1099316" data-name="Grupo 1099316">
          <g id="Grupo_1099314" data-name="Grupo 1099314">
            <path id="Trazado_873449" data-name="Trazado 873449" d="M14,33.691c1.523.7,5.282,10.852,5.282,10.852,1.333,4.031.282,9.351-1.366,13.957a.351.351,0,0,0,.331.468l1.557.114h17.9a.351.351,0,0,0,.344-.281c.721-3.534,1.887-8.431,7.3-7.7,2.564.347,5.084.77,6.3.571,1.734-.284,3.463-1.046,3.97-3.107a3.285,3.285,0,0,0-.507-2.726.794.794,0,0,1,.254-.983,3.531,3.531,0,0,1,.831-.407.926.926,0,0,0,.623-.933,1.657,1.657,0,0,0-.722-1.185.117.117,0,0,1-.018-.17,9.107,9.107,0,0,1,1.215-1.14l.024-.019a.939.939,0,0,0-.041-1.47c-.759-.573-2.488-2.108-.266-2.791,1.441-.443,2.112-1.143,2.114-2.216,0-.919-.583-1.447-1.35-2.037a11.7,11.7,0,0,1-3.293-3.636,1.454,1.454,0,0,1-.075-1.277c.423-.992,1.5-2.024,1.261-3.029-.192-.825-1.042-1.778-1.171-3.751C53.952,12.508,47.81,7.515,40.166,5.99a20.7,20.7,0,0,0-2.58-.34l-.64-.046-1.322.49-9.082-1.23Z" fill="#e3a76f"/>
            <path id="Trazado_873450" data-name="Trazado 873450" d="M42.958,20.784A22.128,22.128,0,0,0,36.947,5.6l-10.4-.741L14,33.691c1.124.519,2.948,6.18,3.828,9.113h0c.312,1.041.505,1.739.505,1.739,1.334,4.031.948,9.465-.7,14.072a.35.35,0,0,0,.332.468h1.839a23.34,23.34,0,0,0,.722-15.189.7.7,0,0,1,.661-.9A22.256,22.256,0,0,0,42.958,20.784Z" fill="#d6995c"/>
            <path id="Trazado_873451" data-name="Trazado 873451" d="M40.615,20.784A19.868,19.868,0,0,0,6.334,7.109s-.633.821-.979,1.253A19.437,19.437,0,0,0,1.434,20.784c0,10.973,8.336,19.1,19.308,19.1,5.949,0,11.157-1.925,14.8-6.069.254-.289.7-.736,1-1.046.185-.192.3-.341.3-.341a19.78,19.78,0,0,0,3.769-11.646Z" fill="#f9f8f9"/>
            <path id="Trazado_873452" data-name="Trazado 873452" d="M36.861,32.408A19.868,19.868,0,1,1,6.39,7.051,19.868,19.868,0,0,0,36.861,32.408Z" fill="#e8e8e8"/>
          </g>
          <g id="Grupo_1099315" data-name="Grupo 1099315">
            <circle id="Elipse_11574" data-name="Elipse 11574" cx="2.93" cy="2.93" r="2.93" transform="translate(17.813 27.499)" fill="#b2e5fb"/>
            <circle id="Elipse_11575" data-name="Elipse 11575" cx="2.929" cy="2.929" r="2.929" transform="translate(26.202 22.656)" fill="#d3effd"/>
            <circle id="Elipse_11576" data-name="Elipse 11576" cx="2.929" cy="2.929" r="2.929" transform="translate(26.202 12.969)" fill="#e6f7fe"/>
            <circle id="Elipse_11577" data-name="Elipse 11577" cx="2.93" cy="2.93" r="2.93" transform="translate(17.813 8.126)" fill="#6cbff8"/>
            <circle id="Elipse_11578" data-name="Elipse 11578" cx="2.929" cy="2.929" r="2.929" transform="translate(9.424 12.969)" fill="#75cff9"/>
            <circle id="Elipse_11579" data-name="Elipse 11579" cx="2.929" cy="2.929" r="2.929" transform="translate(9.424 22.656)" fill="#91dafa"/>
          </g>
        </g>
        <g id="Grupo_1099317" data-name="Grupo 1099317">
          <path id="Trazado_873453" data-name="Trazado 873453" d="M41.635,50.735c-3.123,1.494-3.937,5.537-4.476,8.212a.879.879,0,1,0,1.723.347c.5-2.472,1.18-5.858,3.512-6.974a.879.879,0,1,0-.759-1.586Z"/>
          <path id="Trazado_873454" data-name="Trazado 873454" d="M57.29,37.537c.669-.225,2.705-.911,2.71-3.054a3.448,3.448,0,0,0-1.689-2.741,11.2,11.2,0,0,1-2.75-2.866,1.547,1.547,0,0,1-.01-1.639,4.22,4.22,0,0,0,.973-2.968,5.46,5.46,0,0,0-.419-1.074,7.447,7.447,0,0,1-.779-3.149.879.879,0,1,0-1.749.17,9.356,9.356,0,0,0,.938,3.728,4.308,4.308,0,0,1,.3.723,3.652,3.652,0,0,1-.758,1.65,3.314,3.314,0,0,0,.028,3.51,12.844,12.844,0,0,0,3.153,3.306c.791.612,1.008.9,1.007,1.347,0,.33,0,.884-1.513,1.392a2.075,2.075,0,0,0-1.559,1.616A3.186,3.186,0,0,0,56.509,40.2a.238.238,0,0,1,.1.151.507.507,0,0,1-.133.336,1.64,1.64,0,0,1-.845.609.854.854,0,0,0-.725.7.888.888,0,0,0,.447.933c.165.094.55.332.572.518a.226.226,0,0,1-.133.206,4,4,0,0,0-.925.473,1.674,1.674,0,0,0-.519,2.135,2.6,2.6,0,0,1,.421,2.1c-.335,1.368-1.369,2.149-3.254,2.459a27.569,27.569,0,0,1-5.32-.478.879.879,0,1,0-.244,1.741,25.832,25.832,0,0,0,5.849.471c2.594-.427,4.167-1.7,4.676-3.775a4.074,4.074,0,0,0-.528-3.258,5.265,5.265,0,0,1,.555-.259,1.978,1.978,0,0,0,1.168-2.026,1.95,1.95,0,0,0-.345-.9,3.661,3.661,0,0,0,.547-.576,2.172,2.172,0,0,0,.479-1.639,1.98,1.98,0,0,0-.778-1.316,1.632,1.632,0,0,1-.666-1.032c.007-.043.118-.144.385-.234Z"/>
          <path id="Trazado_873455" data-name="Trazado 873455" d="M38.4,6.438c7.1.93,12.326,4.59,14.337,10.039a.879.879,0,1,0,1.649-.608,15.751,15.751,0,0,0-6.134-7.691,22.432,22.432,0,0,0-9.623-3.483A.879.879,0,0,0,38.4,6.438Z"/>
          <path id="Trazado_873456" data-name="Trazado 873456" d="M18.117,43.7a.879.879,0,0,0-.56,1.11c1.257,3.819.92,9.316-.859,14a.879.879,0,1,0,1.644.624c1.942-5.119,2.281-10.934.885-15.177a.879.879,0,0,0-1.11-.56Z"/>
          <path id="Trazado_873457" data-name="Trazado 873457" d="M20.742,1.758a18.96,18.96,0,0,1,6.051.984.879.879,0,1,0,.56-1.666A20.746,20.746,0,0,0,5.186,34.462.879.879,0,0,0,6.5,33.3,18.985,18.985,0,0,1,20.742,1.758Z"/>
          <path id="Trazado_873458" data-name="Trazado 873458" d="M38.652,10.273a20.863,20.863,0,0,0-7.439-7.44.879.879,0,0,0-.889,1.517,18.987,18.987,0,0,1-9.582,35.376A18.824,18.824,0,0,1,9.389,35.959a.879.879,0,0,0-1.052,1.408A20.746,20.746,0,0,0,38.652,10.273Z"/>
          <path id="Trazado_873459" data-name="Trazado 873459" d="M20.742,7.247a3.809,3.809,0,1,0,3.809,3.809,3.813,3.813,0,0,0-3.809-3.809Zm0,5.859a2.051,2.051,0,1,1,2.051-2.051A2.053,2.053,0,0,1,20.742,13.106Z"/>
          <path id="Trazado_873460" data-name="Trazado 873460" d="M12.352,12.09A3.809,3.809,0,1,0,16.161,15.9a3.813,3.813,0,0,0-3.809-3.809Zm0,5.859A2.051,2.051,0,1,1,14.4,15.9,2.053,2.053,0,0,1,12.352,17.949Z"/>
          <path id="Trazado_873461" data-name="Trazado 873461" d="M12.352,21.778a3.809,3.809,0,1,0,3.809,3.809,3.813,3.813,0,0,0-3.809-3.809Zm0,5.859A2.051,2.051,0,1,1,14.4,25.586,2.053,2.053,0,0,1,12.352,27.637Z"/>
          <path id="Trazado_873462" data-name="Trazado 873462" d="M29.132,12.09A3.809,3.809,0,1,0,32.941,15.9a3.813,3.813,0,0,0-3.809-3.809Zm0,5.859A2.051,2.051,0,1,1,31.183,15.9a2.053,2.053,0,0,1-2.051,2.051Z"/>
          <path id="Trazado_873463" data-name="Trazado 873463" d="M29.132,21.778a3.809,3.809,0,1,0,3.809,3.809,3.813,3.813,0,0,0-3.809-3.809Zm0,5.859a2.051,2.051,0,1,1,2.051-2.051,2.053,2.053,0,0,1-2.051,2.051Z"/>
          <path id="Trazado_873464" data-name="Trazado 873464" d="M20.742,26.62a3.809,3.809,0,1,0,3.809,3.809,3.813,3.813,0,0,0-3.809-3.809Zm0,5.859a2.051,2.051,0,1,1,2.051-2.051A2.053,2.053,0,0,1,20.742,32.48Z"/>
        </g>
      </g>
    </g>
  </g>
</svg>
