<svg xmlns="http://www.w3.org/2000/svg" xmlns:xlink="http://www.w3.org/1999/xlink" width="78.5" height="72.824" viewBox="0 0 78.5 72.824">
  <defs>
    <clipPath id="clip-path">
      <rect id="Rectángulo_401173" data-name="Rectángulo 401173" width="60" height="60" transform="translate(249.263 6628.738)" fill="#fff" stroke="#707070" stroke-width="1"/>
    </clipPath>
  </defs>
  <g id="Grupo_1099308" data-name="Grupo 1099308" transform="translate(-240.263 -6628.738)">
    <path id="_12068" data-name="12068" d="M72.033,71.913c-8.038-1.11-16.53-.839-23.844,2.675C38.045,79.46,31.382,90.507,31.127,101.757s5.606,22.305,14.66,28.988,21,9.051,32.068,7.045c11.165-2.023,21.645-8.583,27.469-18.322,3.735-6.245,5.48-13.956,3.417-20.934a28.6,28.6,0,0,0-6.787-11.156A50.145,50.145,0,0,0,72.033,71.913Z" transform="translate(209.144 6563.081)" fill="#26aab7"/>
    <g id="Enmascarar_grupo_1098696" data-name="Enmascarar grupo 1098696" clip-path="url(#clip-path)">
      <g id="objetivo" transform="translate(248.295 6627.771)">
        <path id="Trazado_873465" data-name="Trazado 873465" d="M40.916,47.206l-3.174,7.955-1.355,3.387a2.308,2.308,0,0,1-4.452-.861v-.135a2.3,2.3,0,0,1,.174-.881l4.461-10.81A15.763,15.763,0,0,0,40.916,47.206Z" fill="#dfb28b"/>
        <path id="Trazado_873466" data-name="Trazado 873466" d="M55.161,57.552v.135a2.308,2.308,0,0,1-4.452.861l-1.355-3.387-3.174-7.955a15.763,15.763,0,0,0,4.345-1.345l4.461,10.81a2.3,2.3,0,0,1,.174.881Z" fill="#dfb28b"/>
        <circle id="Elipse_11580" data-name="Elipse 11580" cx="16.452" cy="16.452" r="16.452" transform="translate(27.097 14.516)" fill="#ff826e"/>
        <circle id="Elipse_11581" data-name="Elipse 11581" cx="12.581" cy="12.581" r="12.581" transform="translate(30.968 18.387)" fill="#ffeaa7"/>
        <path id="Trazado_873467" data-name="Trazado 873467" d="M39.213,25.771a6.694,6.694,0,0,1,4.335-1.577,6.774,6.774,0,0,1,0,13.548,6.769,6.769,0,0,1-4.335-11.971Z" fill="#ff826e"/>
        <g id="Grupo_1099318" data-name="Grupo 1099318">
          <circle id="Elipse_11582" data-name="Elipse 11582" cx="8.71" cy="8.71" r="8.71" transform="translate(1.935 22.258)" fill="#e6e9ed"/>
          <circle id="Elipse_11583" data-name="Elipse 11583" cx="8.71" cy="8.71" r="8.71" transform="translate(1.935 42.581)" fill="#e6e9ed"/>
          <circle id="Elipse_11584" data-name="Elipse 11584" cx="8.71" cy="8.71" r="8.71" transform="translate(1.935 1.935)" fill="#e6e9ed"/>
        </g>
        <path id="Trazado_873468" data-name="Trazado 873468" d="M14.129,14.506a6.788,6.788,0,0,1,2.439,2.526,8.713,8.713,0,0,1-11.845,0,6.788,6.788,0,0,1,9.406-2.526Z" fill="#fcd770"/>
        <path id="Trazado_873469" data-name="Trazado 873469" d="M14.129,34.829a6.788,6.788,0,0,1,2.439,2.526,8.713,8.713,0,0,1-11.845,0,6.788,6.788,0,0,1,9.406-2.526Z" fill="#ff826e"/>
        <path id="Trazado_873470" data-name="Trazado 873470" d="M14.129,55.152a6.788,6.788,0,0,1,2.439,2.526,8.713,8.713,0,0,1-11.845,0,6.788,6.788,0,0,1,9.406-2.526Z" fill="#4fc1e9"/>
        <circle id="Elipse_11585" data-name="Elipse 11585" cx="3.871" cy="3.871" r="3.871" transform="translate(6.774 5.806)" fill="#f0d0b4"/>
        <circle id="Elipse_11586" data-name="Elipse 11586" cx="3.871" cy="3.871" r="3.871" transform="translate(6.774 26.129)" fill="#f0d0b4"/>
        <circle id="Elipse_11587" data-name="Elipse 11587" cx="3.871" cy="3.871" r="3.871" transform="translate(6.774 46.452)" fill="#f0d0b4"/>
        <path id="Trazado_873471" data-name="Trazado 873471" d="M51.769,46.318A17.414,17.414,0,1,0,30.135,19.869L19.6,14.293A9.687,9.687,0,1,0,18.7,16L28.98,21.446A17.3,17.3,0,0,0,26.178,30h-5.9a9.682,9.682,0,1,0,0,1.935h5.9a17.3,17.3,0,0,0,2.8,8.554L18.7,45.933a9.694,9.694,0,1,0,.907,1.71l10.532-5.576a17.538,17.538,0,0,0,5.192,4.25L31.215,56.3a3.243,3.243,0,0,0-.248,1.248v.139a3.276,3.276,0,0,0,6.318,1.216L38.4,56.129H48.7l1.112,2.779a3.276,3.276,0,0,0,6.317-1.216v-.139a3.251,3.251,0,0,0-.247-1.247ZM6.008,16.83a5.8,5.8,0,0,1,9.275,0,7.684,7.684,0,0,1-9.275,0ZM7.742,9.677a2.9,2.9,0,1,1,2.9,2.9A2.907,2.907,0,0,1,7.742,9.677Zm8.934,5.81a7.738,7.738,0,0,0-2.836-2.2,4.839,4.839,0,1,0-6.389,0,7.749,7.749,0,0,0-2.836,2.2,7.742,7.742,0,1,1,12.062,0ZM6.008,57.475a5.8,5.8,0,0,1,9.275,0,7.684,7.684,0,0,1-9.275,0Zm1.734-7.153a2.9,2.9,0,1,1,2.9,2.9A2.907,2.907,0,0,1,7.742,50.323Zm8.934,5.81a7.738,7.738,0,0,0-2.836-2.2,4.839,4.839,0,1,0-6.389,0,7.749,7.749,0,0,0-2.836,2.2,7.742,7.742,0,1,1,12.062,0Zm14.015-33.78,1.725.914A13.452,13.452,0,0,0,30.049,30H28.114a15.375,15.375,0,0,1,2.577-7.648Zm5.182,9.583a7.7,7.7,0,0,0,1.732,3.986l-3.462,1.833a11.537,11.537,0,0,1-2.16-5.819ZM37.829,30a5.788,5.788,0,0,1,1.54-3.053L43.1,28.92,44,27.209l-2.865-1.516a5.806,5.806,0,1,1,0,10.55L44,34.726,43.1,33.015l-3.727,1.973a5.788,5.788,0,0,1-1.54-3.053h5.719V30Zm1.292,7.309a7.742,7.742,0,1,0,0-12.683l-3.686-1.952a11.613,11.613,0,1,1,0,16.587Zm-1.515-11.3A7.708,7.708,0,0,0,35.874,30H31.985a11.537,11.537,0,0,1,2.16-5.819ZM6.008,37.153a5.8,5.8,0,0,1,9.275,0,7.684,7.684,0,0,1-9.275,0ZM7.742,30a2.9,2.9,0,1,1,2.9,2.9A2.907,2.907,0,0,1,7.742,30Zm8.934,5.81a7.738,7.738,0,0,0-2.836-2.2,4.839,4.839,0,1,0-6.389,0,7.749,7.749,0,0,0-2.836,2.2,7.742,7.742,0,1,1,12.062,0Zm11.438-3.875h1.935a13.452,13.452,0,0,0,2.367,6.735l-1.725.914A15.382,15.382,0,0,1,28.114,31.935Zm3.784,9.2,1.763-.933a13.549,13.549,0,1,0,0-18.465L31.9,20.8a15.483,15.483,0,1,1,0,20.331Zm3.59,17.056a1.34,1.34,0,0,1-2.585-.5v-.139a1.331,1.331,0,0,1,.1-.51l4.082-9.913a17.347,17.347,0,0,0,2.51.788Zm3.683-4,2.372-5.931a16.158,16.158,0,0,0,4.009,0l2.373,5.931Zm15.022,3.5a1.34,1.34,0,0,1-2.585.5L47.5,47.918a17.155,17.155,0,0,0,2.51-.788l4.083,9.914a1.328,1.328,0,0,1,.1.51Z"/>
      </g>
    </g>
  </g>
</svg>
