<svg xmlns="http://www.w3.org/2000/svg" width="151.991" height="146.556" viewBox="0 0 151.991 146.556">
  <g id="Grupo_1099525" data-name="Grupo 1099525" transform="translate(-934.004 -1402.973)">
    <path id="_12068" data-name="12068" d="M103.949,72.366C89.64,70.39,74.525,70.874,61.5,77.128,43.447,85.8,31.588,105.464,31.133,125.491s9.978,39.705,26.1,51.6S94.6,193.2,114.312,189.632c19.875-3.6,38.53-15.279,48.9-32.614,6.648-11.116,9.755-24.842,6.082-37.264-2.217-7.5-6.75-14.14-12.082-19.858A89.263,89.263,0,0,0,103.949,72.366Z" transform="translate(907.518 1358.667)" fill="#26aab7"/>
    <g id="Grupo_1099024" data-name="Grupo 1099024" transform="translate(883.14 1677.56) rotate(-90)">
      <path id="Trazado_873104" data-name="Trazado 873104" d="M149.557,395.548a1.582,1.582,0,1,0-.106-2.456A1.573,1.573,0,0,0,149.557,395.548Z" transform="translate(13.93 -213.31)" fill="#fff"/>
      <path id="Trazado_873105" data-name="Trazado 873105" d="M417.219,416a1.582,1.582,0,1,0-.105-2.456A1.573,1.573,0,0,0,417.219,416Z" transform="translate(-222.435 -227.035)" fill="#ffd947"/>
      <path id="Trazado_873106" data-name="Trazado 873106" d="M303.26,44.546a1.582,1.582,0,1,0-.106-2.456A1.573,1.573,0,0,0,303.26,44.546Z" transform="translate(-52.901 9.151)" fill="#7d6eb2"/>
      <path id="Trazado_873109" data-name="Trazado 873109" d="M339.452,404.413a3.448,3.448,0,1,0-1.687-4.918A3.468,3.468,0,0,0,339.452,404.413Z" transform="translate(-70.207 -247.255)" fill="#7d6eb2"/>
      <path id="Trazado_873110" data-name="Trazado 873110" d="M390.262,440.006a3.448,3.448,0,1,0-1.687-4.918A3.468,3.468,0,0,0,390.262,440.006Z" transform="translate(-181.42 -237.38)" fill="#ffd947"/>
      <path id="Trazado_873111" data-name="Trazado 873111" d="M176.115,56.142a3.448,3.448,0,1,0-1.687-4.918A3.468,3.468,0,0,0,176.115,56.142Z" transform="translate(-32.569 42.202)" fill="#ffd947"/>
      <path id="Trazado_873113" data-name="Trazado 873113" d="M321.56,66.974a3.448,3.448,0,1,0-1.687-4.918A3.468,3.468,0,0,0,321.56,66.974Z" transform="translate(-76.565 -0.895)" fill="#ffd947"/>
      <circle id="Elipse_11485" data-name="Elipse 11485" cx="1.689" cy="1.689" r="1.689" transform="translate(149.167 187.566)" fill="none" stroke="#26aab7" stroke-linecap="round" stroke-linejoin="round" stroke-width="1.5"/>
    </g>
    <g id="Grupo_1099494" data-name="Grupo 1099494" transform="translate(951 1339.533)">
      <g id="Grupo_1099479" data-name="Grupo 1099479" transform="translate(0 0.004)">
        <path id="Trazado_873612" data-name="Trazado 873612" d="M853.8,837.46c5.783-2.812,19.37,13.206,30.348,35.779s15.191,43.15,9.408,45.962-19.37-13.207-30.348-35.778-15.19-43.151-9.408-45.963" transform="translate(-775.32 -762.507)" fill="#7d6eb2" fill-rule="evenodd"/>
        <path id="Trazado_873613" data-name="Trazado 873613" d="M444.637,1417.955a30,30,0,0,0-16.823-34.587l-.008.013q-.2.8-.354,1.615a29.962,29.962,0,0,0,15.68,32.24q.733.379,1.487.718Z" transform="translate(-388.859 -1260.038)" fill="#0c4c9d" fill-rule="evenodd"/>
        <path id="Trazado_873614" data-name="Trazado 873614" d="M913.553,884.619c3.844-1.87,14.788,12.706,24.44,32.556s14.365,37.457,10.521,39.327-14.787-12.707-24.441-32.556-14.365-37.457-10.52-39.327" transform="translate(-830.887 -805.606)" fill="#62529b" fill-rule="evenodd"/>
        <path id="Trazado_873615" data-name="Trazado 873615" d="M363.566,981.131q33.314-17.556,66.736-4.614c-6.766-4.5-16.363-17.654-24.519-34.424s-12.578-32.44-11.94-40.541Q383.388,935.833,349.01,951.2Z" transform="translate(-317.895 -821.177)" fill="#fefefe" fill-rule="evenodd"/>
        <path id="Trazado_873616" data-name="Trazado 873616" d="M1087.5,1203.2c-1.2.582-.6,4.274,1.335,8.248s4.468,6.723,5.662,6.141.6-4.272-1.334-8.246-4.469-6.722-5.663-6.142" transform="translate(-989.984 -1095.865)" fill="#7d6eb2" fill-rule="evenodd"/>
        <path id="Trazado_873617" data-name="Trazado 873617" d="M1012.167,1218.381c-1.194.582-3.731-2.168-5.663-6.141s-2.531-7.666-1.335-8.247l-8.674,1.45c1.3,3.082,2.758,6.286,4.346,9.551s3.21,6.386,4.83,9.315Z" transform="translate(-907.655 -1096.655)" fill="#fefefe" fill-rule="evenodd"/>
        <path id="Trazado_873618" data-name="Trazado 873618" d="M22.872,1600.663a15.909,15.909,0,1,0-21.266-7.348,15.909,15.909,0,0,0,21.266,7.348" transform="translate(0 -1430.435)" fill="#62529b" fill-rule="evenodd"/>
        <path id="Trazado_873619" data-name="Trazado 873619" d="M237.254,1698.912l8.076-3.927a6.345,6.345,0,0,1,8.458,2.922l18.658,38.362a6.346,6.346,0,0,1-2.923,8.457l-8.076,3.927a6.344,6.344,0,0,1-8.458-2.924l-18.657-38.361a6.345,6.345,0,0,1,2.923-8.457" transform="translate(-212.862 -1543.295)" fill="#62529b" fill-rule="evenodd"/>
        <path id="Trazado_873620" data-name="Trazado 873620" d="M88.363,1383.515l-33.224,16.16a30,30,0,0,0,16.814,34.573l6.139-2.985,21.025-10.227,6.059-2.947q-.753-.339-1.487-.718a29.963,29.963,0,0,1-15.68-32.24q.155-.813.354-1.615" transform="translate(-49.416 -1260.172)" fill="#7d6eb2" fill-rule="evenodd"/>
        <path id="Trazado_873621" data-name="Trazado 873621" d="M213.236,1723.03l-10.763,5.235-3.224,1.568a29.823,29.823,0,0,0,5.337,4.667l.592-.287,3.863-1.88,15.593-7.583,1.738-.845.9-.44q-.893-.61-1.743-1.286-.577-.46-1.133-.948a29.807,29.807,0,0,1-2.46-2.433l-.312.152Z" transform="translate(-181.485 -1565.563)" fill="#62529b" fill-rule="evenodd"/>
        <path id="Trazado_873622" data-name="Trazado 873622" d="M135.279,1623.734l16.685-8.114,6.005-2.921a30.42,30.42,0,0,1-2.857-5.873l-6,2.921-16.685,8.114a30.476,30.476,0,0,0,2.856,5.873" transform="translate(-120.617 -1463.574)" fill="#62529b" fill-rule="evenodd"/>
        <path id="Trazado_873623" data-name="Trazado 873623" d="M127.134,1482.9l8.7-4.233a29.922,29.922,0,0,1-.394-3.436c-.028-.493-.042-.985-.046-1.477q-.007-1.087.064-2.168l-.9.441-17.331,8.429-4.455,2.166a29.806,29.806,0,0,0,.376,7.08Z" transform="translate(-102.659 -1340.387)" fill="#62529b" fill-rule="evenodd"/>
        <g id="Grupo_1099496" data-name="Grupo 1099496" transform="translate(95.478 63.436)">
          <g id="Grupo_1099497" data-name="Grupo 1099497">
            <path id="Trazado_873650" data-name="Trazado 873650" d="M224.074,600.786a5.81,5.81,0,1,1-11.586-.887l6.06-.707Z" transform="translate(-201.502 -568.259)" fill="#ffc82c"/>
            <path id="Trazado_873651" data-name="Trazado 873651" d="M33.855,38.349l-.1,1.324a1.3,1.3,0,0,1-1.4,1.2L1.2,38.486a1.3,1.3,0,0,1-1.2-1.4l.1-1.324a1.3,1.3,0,0,1,.729-1.072L4.1,33.1l.239-.116q.129-.063.253-.135a4.013,4.013,0,0,0,1.992-3.167l.679-8.868a10.932,10.932,0,0,1,8.986-9.927,2.747,2.747,0,1,1,5.435.416,10.934,10.934,0,0,1,7.369,11.18l-.679,8.868a4.013,4.013,0,0,0,1.487,3.434q.111.09.23.171l.219.151L33.3,37.179a1.3,1.3,0,0,1,.557,1.17" transform="translate(0 -7.596)" fill="#ffc82c"/>
            <path id="Trazado_873652" data-name="Trazado 873652" d="M245.695,83.034l-18.114-1.387a1.892,1.892,0,0,1,1.77-.908,31.946,31.946,0,0,0,4.636-.02,6.455,6.455,0,0,0,4-1.567c1.533-1.441,1.945-3.68,2.276-5.758a25.055,25.055,0,0,0,.442-7.209,9.69,9.69,0,0,0-5.865-7.3,10.322,10.322,0,0,1,2.682.671,10.934,10.934,0,0,1,7.369,11.18l-.679,8.868a4.012,4.012,0,0,0,1.487,3.434" transform="translate(-215.832 -55.842)" fill="#efa31d"/>
            <path id="Trazado_873653" data-name="Trazado 873653" d="M356.8,10.8a2.532,2.532,0,0,0-1.7-2.715,2.748,2.748,0,0,1,3.354,3.216Z" transform="translate(-336.76 -7.596)" fill="#efa31d"/>
            <path id="Trazado_873654" data-name="Trazado 873654" d="M517.887,517.912l-.1,1.324a1.3,1.3,0,0,1-1.4,1.2l-.777-.06a1.337,1.337,0,0,0,.625-1.043c.053-.334.095-.752.122-1.072a.739.739,0,0,0-.392-.716c-.971-.512-3.3-1.737-3.846-2a3.846,3.846,0,0,1-1.739-1.494l.028-.37,3.018.231a3.981,3.981,0,0,0,.468.442q.111.09.23.172l.219.151,2.987,2.068a1.3,1.3,0,0,1,.557,1.17" transform="translate(-484.032 -487.159)" fill="#efa31d"/>
            <path id="Trazado_873655" data-name="Trazado 873655" d="M105.652,491.493l-26.21-2.007.239-.116q.129-.063.253-.135L105.2,491.17q.111.09.23.172Z" transform="translate(-75.341 -463.978)" fill="#ffda64"/>
            <path id="Trazado_873656" data-name="Trazado 873656" d="M224.075,613.774a5.814,5.814,0,0,1-7.93,4.961,5.847,5.847,0,0,0,4.029-.923,4.281,4.281,0,0,0,1.792-3.205l-9.474-.791a5.841,5.841,0,0,1,0-.928Z" transform="translate(-201.503 -581.247)" fill="#efa31d"/>
            <path id="Trazado_873657" data-name="Trazado 873657" d="M178.728,100.031a1.71,1.71,0,0,0-2.237-.718,10.768,10.768,0,0,0-5.245,5.484,2.03,2.03,0,0,0-.181,1.449c.242.661,1.015.928,1.694,1.112a2.986,2.986,0,0,0,2.575-.1,3.94,3.94,0,0,0,1-2.169,6.015,6.015,0,0,1,1.966-2.907A1.712,1.712,0,0,0,178.728,100.031Z" transform="translate(-162.165 -94.026)" fill="#ffe473"/>
            <path id="Trazado_873658" data-name="Trazado 873658" d="M162.727,295.028a1.014,1.014,0,0,0-.93-1.258c-.592-.032-1.2-.057-1.717-.122a.883.883,0,0,0-1.2.945l-.2,1.456a2.413,2.413,0,0,0,.229,1.8,1.547,1.547,0,0,0,1.651.439,2.786,2.786,0,0,0,1.614-1.488,11.344,11.344,0,0,0,.549-1.775" transform="translate(-150.431 -278.462)" fill="#ffe473"/>
            <path id="Trazado_873659" data-name="Trazado 873659" d="M26.628,525.569a.234.234,0,0,0-.306-.326l-.61.3a1.655,1.655,0,0,0-1.116,1.941c0,.046,0,.094,0,.143a.6.6,0,0,0,1.191.066,6.744,6.744,0,0,1,.836-2.125" transform="translate(-23.326 -498.103)" fill="#ffe473"/>
            <path id="Trazado_873660" data-name="Trazado 873660" d="M326.8,24.228a2.79,2.79,0,0,1,.872-1.947.274.274,0,0,1,.446.194.345.345,0,0,1-.089.256,2.2,2.2,0,0,0-.532,1.4h-.019a3.267,3.267,0,0,0-.634.088Z" transform="translate(-309.926 -21.072)" fill="#ffe473"/>
            <path id="Trazado_873661" data-name="Trazado 873661" d="M120.99,49.545a8.4,8.4,0,0,1,4.913-4.43.3.3,0,0,0-.158-.572,8.976,8.976,0,0,0-5.267,4.7c-.169.34.342.641.512.3" transform="translate(-114.226 -42.232)" fill="#44331b"/>
            <path id="Trazado_873662" data-name="Trazado 873662" d="M73.792,6.932A11.6,11.6,0,0,1,80.585.808a.41.41,0,0,0-.218-.79,12.391,12.391,0,0,0-7.283,6.5c-.234.471.473.887.708.414" transform="translate(-69.267 0)" fill="#44331b"/>
            <path id="Trazado_873663" data-name="Trazado 873663" d="M500.071,71.436a8.984,8.984,0,0,0-4.472-5.465c-.344-.158-.646.352-.3.512a8.4,8.4,0,0,1,4.2,5.111c.115.362.688.207.572-.158" transform="translate(-469.585 -62.537)" fill="#44331b"/>
            <path id="Trazado_873664" data-name="Trazado 873664" d="M513.821,30.616a12.4,12.4,0,0,0-6.183-7.556.423.423,0,0,0-.561.147.413.413,0,0,0,.147.561,11.589,11.589,0,0,1,5.806,7.066c.159.5.951.287.79-.218" transform="translate(-480.85 -21.824)" fill="#44331b"/>
          </g>
        </g>
      </g>
    </g>
  </g>
</svg>
