<svg xmlns="http://www.w3.org/2000/svg" xmlns:xlink="http://www.w3.org/1999/xlink" width="78.501" height="73.824" viewBox="0 0 78.501 73.824">
  <defs>
    <clipPath id="clip-path">
      <rect id="Rectángulo_401074" data-name="Rectángulo 401074" width="59" height="59" transform="translate(10)" fill="#fff" stroke="#707070" stroke-width="1"/>
    </clipPath>
  </defs>
  <g id="Grupo_1099161" data-name="Grupo 1099161" transform="translate(0)">
    <path id="_12068" data-name="12068" d="M72.033,71.913c-8.038-1.11-16.53-.839-23.844,2.675C38.045,79.46,31.382,90.507,31.127,101.757s5.606,22.305,14.66,28.988,21,9.051,32.068,7.045c11.165-2.023,21.645-8.583,27.469-18.322,3.735-6.245,5.48-13.956,3.417-20.934a28.6,28.6,0,0,0-6.787-11.156A50.145,50.145,0,0,0,72.033,71.913Z" transform="translate(-31.119 -64.657)" fill="#26aab7"/>
    <g id="Enmascarar_grupo_1098691" data-name="Enmascarar grupo 1098691" clip-path="url(#clip-path)">
      <g id="expandir" transform="translate(9.048 -0.476)">
        <path id="Trazado_873293" data-name="Trazado 873293" d="M49.484,29.5V41.832a1.942,1.942,0,0,1-1.942,1.942H3.845A1.942,1.942,0,0,1,1.9,41.832V11.458A1.942,1.942,0,0,1,3.845,9.516h43.7a1.942,1.942,0,0,1,1.942,1.942v20.9" fill="#3d9ae2"/>
        <circle id="Elipse_11550" data-name="Elipse 11550" cx="7.613" cy="7.613" r="7.613" transform="translate(18.081 19.032)" fill="#e0e0e2"/>
        <path id="Trazado_873294" data-name="Trazado 873294" d="M23.79,30.452V22.839l6.3,3.806Z" fill="#ff5023"/>
        <path id="Trazado_873295" data-name="Trazado 873295" d="M56.145,37.292V50.435H39.968V34.258H53.111" fill="#ffde17"/>
        <path id="Trazado_873296" data-name="Trazado 873296" d="M53.29,31.4H59v5.71H53.29Z" fill="#ff5023"/>
        <path id="Trazado_873297" data-name="Trazado 873297" d="M36.115,42.823H3.845a.992.992,0,0,1-.991-.991V11.458a.992.992,0,0,1,.991-.991h43.7a.992.992,0,0,1,.991.991V30.452a.952.952,0,1,0,1.9,0V11.458a2.9,2.9,0,0,0-2.894-2.894H3.845A2.9,2.9,0,0,0,.952,11.458V41.832a2.9,2.9,0,0,0,2.894,2.894H36.115a.952.952,0,0,0,0-1.9Z"/>
        <path id="Trazado_873298" data-name="Trazado 873298" d="M23.323,31.28a.952.952,0,0,0,.96-.015l6.3-3.806a.952.952,0,0,0,0-1.627l-6.3-3.806a.952.952,0,0,0-1.445.814v7.613a.952.952,0,0,0,.484.829Zm1.419-6.755,3.509,2.12-3.509,2.12Z"/>
        <path id="Trazado_873299" data-name="Trazado 873299" d="M25.694,35.21a8.565,8.565,0,1,0-8.565-8.565A8.565,8.565,0,0,0,25.694,35.21Zm0-15.226a6.661,6.661,0,1,1-6.661,6.661,6.661,6.661,0,0,1,6.661-6.661Z"/>
        <path id="Trazado_873300" data-name="Trazado 873300" d="M5.71,39.016a.952.952,0,1,0,0,1.9h7.613a.952.952,0,1,0,0-1.9Z"/>
        <path id="Trazado_873301" data-name="Trazado 873301" d="M16.177,39.016a.952.952,0,1,0,0,1.9h.952a.952.952,0,1,0,0-1.9Z"/>
        <path id="Trazado_873302" data-name="Trazado 873302" d="M59,30.452H53.29a.952.952,0,0,0-.952.952v1.9H39.968a.952.952,0,0,0-.952.952V50.435a.952.952,0,0,0,.952.952H56.145a.952.952,0,0,0,.952-.952V38.065H59a.952.952,0,0,0,.952-.952V31.4A.952.952,0,0,0,59,30.452ZM55.194,49.484H40.919V35.21H52.339v1.9a.952.952,0,0,0,.952.952h1.9Zm2.855-13.323H54.242V32.355h3.806Z"/>
        <path id="Trazado_873303" data-name="Trazado 873303" d="M51.315,39.6c0-.01-.01-.016-.015-.026a.925.925,0,0,0-.168-.25.938.938,0,0,0-.072-.066.952.952,0,0,0-.2-.133.8.8,0,0,0-.1-.044.952.952,0,0,0-.33-.069H47.581a.952.952,0,0,0,0,1.9h.558L42.15,46.908A.952.952,0,1,0,43.5,48.254l5.988-5.989v.558a.952.952,0,1,0,1.9,0V39.968c0-.012-.007-.022-.007-.034a.932.932,0,0,0-.066-.33Z"/>
      </g>
    </g>
  </g>
</svg>
