<svg xmlns="http://www.w3.org/2000/svg" xmlns:xlink="http://www.w3.org/1999/xlink" width="78.5" height="72.824" viewBox="0 0 78.5 72.824">
  <defs>
    <clipPath id="clip-path">
      <rect id="Rectángulo_401173" data-name="Rectángulo 401173" width="60" height="60" transform="translate(249.263 6628.738)" fill="#fff" stroke="#707070" stroke-width="1"/>
    </clipPath>
  </defs>
  <g id="Grupo_1099311" data-name="Grupo 1099311" transform="translate(-240.263 -6628.738)">
    <path id="_12068" data-name="12068" d="M72.033,71.913c-8.038-1.11-16.53-.839-23.844,2.675C38.045,79.46,31.382,90.507,31.127,101.757s5.606,22.305,14.66,28.988,21,9.051,32.068,7.045c11.165-2.023,21.645-8.583,27.469-18.322,3.735-6.245,5.48-13.956,3.417-20.934a28.6,28.6,0,0,0-6.787-11.156A50.145,50.145,0,0,0,72.033,71.913Z" transform="translate(209.144 6563.081)" fill="#26aab7"/>
    <g id="Enmascarar_grupo_1098698" data-name="Enmascarar grupo 1098698" clip-path="url(#clip-path)">
      <g id="redaccion" transform="translate(248.295 6627.77)">
        <g id="Grupo_1099345" data-name="Grupo 1099345">
          <g id="Grupo_1099331" data-name="Grupo 1099331">
            <path id="Trazado_873488" data-name="Trazado 873488" d="M1.935,56.129H25.161A3.87,3.87,0,0,1,21.29,60H5.806A3.87,3.87,0,0,1,1.935,56.129Z" fill="#aab2bd"/>
          </g>
          <g id="Grupo_1099332" data-name="Grupo 1099332">
            <path id="Trazado_873489" data-name="Trazado 873489" d="M25.161,46.452v9.677H1.935V46.452a1.941,1.941,0,0,1,1.935-1.935H23.226A1.941,1.941,0,0,1,25.161,46.452Z" fill="#ccd1d9"/>
          </g>
          <g id="Grupo_1099333" data-name="Grupo 1099333">
            <circle id="Elipse_11591" data-name="Elipse 11591" cx="1.935" cy="1.935" r="1.935" transform="translate(11.613 48.387)" fill="#69d6f4"/>
          </g>
          <g id="Grupo_1099334" data-name="Grupo 1099334">
            <path id="Trazado_873490" data-name="Trazado 873490" d="M22.984,44.516H16.452l1.355-5.439A7.768,7.768,0,0,1,22.984,44.516Z" fill="#b4dd7f"/>
          </g>
          <g id="Grupo_1099335" data-name="Grupo 1099335">
            <path id="Trazado_873491" data-name="Trazado 873491" d="M13.548,40.645l2.9,3.871H10.645Z" fill="#b4dd7f"/>
          </g>
          <g id="Grupo_1099336" data-name="Grupo 1099336">
            <path id="Trazado_873492" data-name="Trazado 873492" d="M9.29,39.077l1.355,5.439H4.113A7.768,7.768,0,0,1,9.29,39.077Z" fill="#b4dd7f"/>
          </g>
          <g id="Grupo_1099337" data-name="Grupo 1099337">
            <path id="Trazado_873493" data-name="Trazado 873493" d="M13.548,40.645l-2.9,3.871L9.29,39.077a6.248,6.248,0,0,1,1.355-.29,6.331,6.331,0,0,1,.968-.068h3.871a6.331,6.331,0,0,1,.968.068,6.878,6.878,0,0,1,1.355.29l-1.355,5.439Z" fill="#a0d468"/>
          </g>
          <g id="Grupo_1099338" data-name="Grupo 1099338">
            <path id="Trazado_873494" data-name="Trazado 873494" d="M16.142,11.613a6.772,6.772,0,1,1,6.116,9.677H21.126v.01h-6.61a3.87,3.87,0,0,0-3.871,3.871,1.932,1.932,0,0,0-1.365.571,1.892,1.892,0,0,0-.571,1.365v.165a1.941,1.941,0,0,0,.571,1.374l1.365,1.365v4.839A11.522,11.522,0,0,1,2.9,23.961,12.357,12.357,0,0,1,15.252,11.613Z" fill="#b27946"/>
          </g>
          <g id="Grupo_1099339" data-name="Grupo 1099339">
            <path id="Trazado_873495" data-name="Trazado 873495" d="M16.452,36.01v2.777a6.331,6.331,0,0,0-.968-.068H11.613a6.331,6.331,0,0,0-.968.068V30.01L9.281,28.645a1.941,1.941,0,0,1-.571-1.374v-.165a1.892,1.892,0,0,1,.571-1.365,1.932,1.932,0,0,1,1.365-.571A3.87,3.87,0,0,1,14.516,21.3h6.61a1.128,1.128,0,0,1,1.132,1.132,6.615,6.615,0,0,0,1.935,4.674l-1.935,1.935v4.5a3.274,3.274,0,0,1-.948,2.294,3.253,3.253,0,0,1-3.5.716Z" fill="#f0d0b4"/>
          </g>
          <g id="Grupo_1099340" data-name="Grupo 1099340">
            <path id="Trazado_873496" data-name="Trazado 873496" d="M56.129,36.774V48.387a1.941,1.941,0,0,1-1.935,1.935H50.323l-2.448,3.271a1.519,1.519,0,0,1-2.681-.542l-.677-2.729H30.968a1.941,1.941,0,0,1-1.935-1.935V36.774a1.941,1.941,0,0,1,1.935-1.935H54.194A1.941,1.941,0,0,1,56.129,36.774Z" fill="#e6e9ed"/>
          </g>
          <g id="Grupo_1099341" data-name="Grupo 1099341">
            <path id="Trazado_873497" data-name="Trazado 873497" d="M60,13.548V25.161A1.941,1.941,0,0,1,58.065,27.1h-8.71l-2.448,3.271a1.519,1.519,0,0,1-2.681-.542L43.548,27.1h-8.71A1.941,1.941,0,0,1,32.9,25.161V13.548a1.941,1.941,0,0,1,1.935-1.935H58.065A1.941,1.941,0,0,1,60,13.548Z" fill="#e6e9ed"/>
          </g>
          <g id="Grupo_1099342" data-name="Grupo 1099342">
            <path id="Trazado_873498" data-name="Trazado 873498" d="M49.355,19.355v.968a2.9,2.9,0,0,1-5.806,0v-.968h5.806Z" fill="#aab2bd"/>
          </g>
          <g id="Grupo_1099343" data-name="Grupo 1099343">
            <path id="Trazado_873499" data-name="Trazado 873499" d="M53.952,11.613a7.741,7.741,0,0,1-3.319,4.577,2.832,2.832,0,0,0-1.277,2.4v.765H43.548v-.726A2.866,2.866,0,0,0,42.29,16.2a7.742,7.742,0,0,1-3.339-4.587,7.884,7.884,0,0,1-.174-2.952A7.741,7.741,0,0,1,54.194,9.677,7.973,7.973,0,0,1,53.952,11.613Z" fill="#ffeaa7"/>
          </g>
          <g id="Grupo_1099344" data-name="Grupo 1099344">
            <circle id="Elipse_11592" data-name="Elipse 11592" cx="1.935" cy="1.935" r="1.935" transform="translate(44.516 7.742)" fill="#fcd770"/>
          </g>
        </g>
        <g id="Grupo_1099346" data-name="Grupo 1099346">
          <path id="Trazado_873500" data-name="Trazado 873500" d="M13.548,47.419a2.9,2.9,0,1,0,2.9,2.9A2.907,2.907,0,0,0,13.548,47.419Zm0,3.871a.968.968,0,1,1,.968-.968A.968.968,0,0,1,13.548,51.29Z"/>
          <circle id="Elipse_11593" data-name="Elipse 11593" cx="0.968" cy="0.968" r="0.968" transform="translate(17.419 24.203)"/>
          <path id="Trazado_873501" data-name="Trazado 873501" d="M54.194,33.871H30.968a2.907,2.907,0,0,0-2.9,2.9V48.387a2.907,2.907,0,0,0,2.9,2.9H43.76l.5,1.994a2.479,2.479,0,0,0,4.388.885l2.159-2.879h3.387a2.907,2.907,0,0,0,2.9-2.9V36.774A2.907,2.907,0,0,0,54.194,33.871Zm.968,14.516a.968.968,0,0,1-.968.968H49.839L47.1,53.008a.566.566,0,0,1-.963-.194l-.864-3.46h-14.3A.968.968,0,0,1,30,48.387V36.774a.968.968,0,0,1,.968-.968H54.194a.968.968,0,0,1,.968.968Z"/>
          <path id="Trazado_873502" data-name="Trazado 873502" d="M58.065,10.645H55.1A8.587,8.587,0,0,0,52.252,3.18,8.71,8.71,0,0,0,37.815,8.536a8.936,8.936,0,0,0,0,2.109H34.839a2.907,2.907,0,0,0-2.9,2.9V25.161a2.907,2.907,0,0,0,2.9,2.9h7.954l.5,1.994a2.479,2.479,0,0,0,4.388.885l2.159-2.879h8.226a2.907,2.907,0,0,0,2.9-2.9V13.548A2.907,2.907,0,0,0,58.065,10.645ZM39.735,8.781a6.8,6.8,0,0,1,5.923-5.833,7.019,7.019,0,0,1,.8-.046,6.694,6.694,0,0,1,4.5,1.721,6.771,6.771,0,0,1-.852,10.752A3.773,3.773,0,0,0,48.4,18.387h-.98V12.4a2.9,2.9,0,1,0-1.935,0v5.985H44.5a3.772,3.772,0,0,0-1.693-3,6.746,6.746,0,0,1-3.074-6.6Zm8.652,11.541a1.935,1.935,0,1,1-3.871,0Zm-2.9-10.645a.968.968,0,1,1,.968.968A.968.968,0,0,1,45.484,9.677ZM59.032,25.161a.968.968,0,0,1-.968.968H48.871l-2.74,3.653a.566.566,0,0,1-.963-.194l-.864-3.46H34.839a.968.968,0,0,1-.968-.968V13.548a.968.968,0,0,1,.968-.968h3.414a8.651,8.651,0,0,0,3.514,4.435,1.9,1.9,0,0,1,.814,1.613v1.694a3.871,3.871,0,1,0,7.742,0V18.589A1.864,1.864,0,0,1,51.157,17a8.678,8.678,0,0,0,3.495-4.422h3.413a.968.968,0,0,1,.968.968Z"/>
          <path id="Trazado_873503" data-name="Trazado 873503" d="M51.29,37.742h1.935v1.935H51.29Z"/>
          <path id="Trazado_873504" data-name="Trazado 873504" d="M31.935,37.742H49.355v1.935H31.935Z"/>
          <path id="Trazado_873505" data-name="Trazado 873505" d="M31.935,41.613h21.29v1.935H31.935Z"/>
          <path id="Trazado_873506" data-name="Trazado 873506" d="M31.935,45.484h21.29v1.935H31.935Z"/>
          <path id="Trazado_873507" data-name="Trazado 873507" d="M30,14.516a7.735,7.735,0,0,0-14.437-3.87h-.315A13.334,13.334,0,0,0,1.935,23.962,12.5,12.5,0,0,0,9.677,35.507v2.468A8.7,8.7,0,0,0,3.387,43.6,2.9,2.9,0,0,0,.968,46.452v9.677a4.844,4.844,0,0,0,4.839,4.839H21.29a4.844,4.844,0,0,0,4.839-4.839V46.452A2.9,2.9,0,0,0,23.71,43.6a8.7,8.7,0,0,0-6.29-5.623v-.536l.025.011a4.213,4.213,0,0,0,5.781-3.908v-4.1l2.336-2.336-.684-.684a5.608,5.608,0,0,1-1.652-3.989A2.15,2.15,0,0,0,23.2,22.2,7.751,7.751,0,0,0,30,14.516ZM16.637,39.787l-.631,2.523L14.04,39.687h1.444A6.79,6.79,0,0,1,16.637,39.787Zm-2.121,3.762H12.581l.968-1.29ZM11.09,42.31l-.631-2.523a6.778,6.778,0,0,1,1.153-.1h1.445ZM8.62,40.4l.787,3.148h-3.9A6.755,6.755,0,0,1,8.62,40.4ZM21.29,59.032H5.806A2.9,2.9,0,0,1,3.081,57.1H24.015A2.9,2.9,0,0,1,21.29,59.032Zm2.9-3.871H2.9v-8.71a.968.968,0,0,1,.968-.968H23.226a.968.968,0,0,1,.968.968Zm-2.6-11.613h-3.9l.787-3.147A6.752,6.752,0,0,1,21.591,43.548Zm-.3-14.907v3.3H19.355a1.937,1.937,0,0,1-1.935-1.935H15.484a3.875,3.875,0,0,0,3.871,3.871h1.9a2.269,2.269,0,0,1-3.09,1.772L13.91,33.941l-.722,1.8,2.3.924v1.092H11.613V29.609L9.961,27.957a.974.974,0,0,1-.284-.684v-.166a.968.968,0,0,1,.968-.968h.968v-.968a2.907,2.907,0,0,1,2.9-2.9h6.608a.166.166,0,0,1,.166.166,7.515,7.515,0,0,0,1.577,4.629Zm.968-8.319h-2.9v.01H14.516a4.847,4.847,0,0,0-4.768,4.012,2.909,2.909,0,0,0-2.006,2.762v.166a2.886,2.886,0,0,0,.851,2.053L9.677,30.41v2.972a10.563,10.563,0,0,1-5.806-9.42A11.388,11.388,0,0,1,14.764,12.607a7.717,7.717,0,0,0-.248,1.909h1.935a5.806,5.806,0,1,1,5.806,5.806Z"/>
        </g>
      </g>
    </g>
  </g>
</svg>
